<svg width="260" height="260" viewBox="0 0 260 260" fill="none" xmlns="http://www.w3.org/2000/svg">
<g clip-path="url(#clip0_103_8)">
<path d="M0 50C0 26.4298 0 14.6447 7.32233 7.32233C14.6447 0 26.4298 0 50 0H222.02C222.232 0 222.339 0 222.412 0.00263821C225.426 0.112163 227.239 3.39119 225.729 6.00223C225.693 6.06513 225.636 6.15524 225.523 6.33547V6.33547C224.509 7.95089 224.002 8.75859 223.784 9.14281C214.265 25.9084 231.642 45.11 249.272 37.3059C249.676 37.127 250.53 36.7029 252.238 35.8545L253.875 35.0416C254.178 34.8911 254.33 34.8158 254.442 34.7684C256.984 33.6933 259.825 35.4547 259.993 38.2095C260 38.3309 260 38.5001 260 38.8385V210C260 233.57 260 245.355 252.678 252.678C245.355 260 233.57 260 210 260H50C26.4298 260 14.6447 260 7.32233 252.678C0 245.355 0 233.57 0 210V50Z" fill="#F3F5F7"/>
<path d="M0.179539 104C-7.09217 104 -13.5429 102.296 -19.1726 98.8893C-24.7241 95.4822 -29.1028 90.5301 -32.3086 84.0328C-35.4362 77.5355 -37 69.6913 -37 60.5C-37 51.3087 -35.4362 43.4645 -32.3086 36.9672C-29.1028 30.4699 -24.7241 25.5178 -19.1726 22.1107C-13.5429 18.7036 -7.09217 17 0.179539 17C7.45125 17 13.8629 18.7036 19.4144 22.1107C25.0441 25.5178 29.4228 30.4699 32.5504 36.9672C35.7562 43.4645 37.3591 51.3087 37.3591 60.5C37.3591 69.6913 35.7562 77.5355 32.5504 84.0328C29.4228 90.5301 25.0441 95.4822 19.4144 98.8893C13.8629 102.296 7.45125 104 0.179539 104ZM0.179539 81.5369C1.97792 81.5369 3.58082 80.903 4.98825 79.6352C6.39568 78.3675 7.49034 76.1885 8.27225 73.0984C9.13234 70.0082 9.56239 65.8087 9.56239 60.5C9.56239 55.112 9.13234 50.9126 8.27225 47.9016C7.49034 44.8115 6.39568 42.6325 4.98825 41.3647C3.58082 40.097 1.97792 39.4631 0.179539 39.4631C-1.61884 39.4631 -3.22174 40.097 -4.62917 41.3647C-6.0366 42.6325 -7.17036 44.8115 -8.03045 47.9016C-8.81236 50.9126 -9.20331 55.112 -9.20331 60.5C-9.20331 65.8087 -8.81236 70.0082 -8.03045 73.0984C-7.17036 76.1885 -6.0366 78.3675 -4.62917 79.6352C-3.22174 80.903 -1.61884 81.5369 0.179539 81.5369Z" fill="#00AAFF" fill-opacity="0.1"/>
<path d="M54.3206 102.098V28.6475L66.1664 40.0574H40.2463V18.9016H82V102.098H54.3206Z" fill="#00AAFF" fill-opacity="0.1"/>
</g>
<circle cx="242.5" cy="17.5" r="17.5" fill="#F3F5F7"/>
<path d="M235 18.25H250M250 18.25L243 11M250 18.25L243 25" stroke="#00AAFF" stroke-width="2" stroke-linecap="round" stroke-linejoin="round"/>
<path d="M22.208 157.136C21.3013 157.136 20.457 156.983 19.675 156.677C18.9043 156.371 18.2357 155.946 17.669 155.402C17.1023 154.847 16.6603 154.201 16.343 153.464C16.0257 152.727 15.867 151.923 15.867 151.05C15.867 150.177 16.0257 149.373 16.343 148.636C16.6603 147.899 17.1023 147.259 17.669 146.715C18.2357 146.16 18.9043 145.729 19.675 145.423C20.4457 145.117 21.29 144.964 22.208 144.964C23.1147 144.964 23.9477 145.117 24.707 145.423C25.4777 145.718 26.1463 146.143 26.713 146.698C27.291 147.242 27.733 147.882 28.039 148.619C28.3563 149.356 28.515 150.166 28.515 151.05C28.515 151.934 28.3563 152.744 28.039 153.481C27.733 154.218 27.291 154.864 26.713 155.419C26.1463 155.963 25.4777 156.388 24.707 156.694C23.9477 156.989 23.1147 157.136 22.208 157.136ZM22.208 155.623C22.8653 155.623 23.4717 155.51 24.027 155.283C24.5937 155.056 25.081 154.739 25.489 154.331C25.9083 153.912 26.2313 153.424 26.458 152.869C26.696 152.314 26.815 151.707 26.815 151.05C26.815 150.393 26.696 149.786 26.458 149.231C26.2313 148.676 25.9083 148.194 25.489 147.786C25.081 147.367 24.5937 147.044 24.027 146.817C23.4717 146.59 22.8653 146.477 22.208 146.477C21.5393 146.477 20.9217 146.59 20.355 146.817C19.7997 147.044 19.3123 147.367 18.893 147.786C18.4737 148.194 18.145 148.676 17.907 149.231C17.6803 149.786 17.567 150.393 17.567 151.05C17.567 151.707 17.6803 152.314 17.907 152.869C18.145 153.424 18.4737 153.912 18.893 154.331C19.3123 154.739 19.7997 155.056 20.355 155.283C20.9217 155.51 21.5393 155.623 22.208 155.623ZM30.9912 157V147.99H39.3382V157H37.7062V149.01L38.0972 149.418H32.2322L32.6232 149.01V157H30.9912ZM47.273 157.102C46.525 157.102 45.8394 156.932 45.216 156.592C44.604 156.241 44.111 155.725 43.737 155.045C43.3744 154.365 43.193 153.515 43.193 152.495C43.193 151.475 43.3687 150.625 43.72 149.945C44.0827 149.265 44.57 148.755 45.182 148.415C45.8054 148.075 46.5024 147.905 47.273 147.905C48.157 147.905 48.939 148.098 49.619 148.483C50.299 148.868 50.8374 149.407 51.234 150.098C51.6307 150.778 51.829 151.577 51.829 152.495C51.829 153.413 51.6307 154.218 51.234 154.909C50.8374 155.6 50.299 156.139 49.619 156.524C48.939 156.909 48.157 157.102 47.273 157.102ZM42.496 160.298V147.99H44.06V150.421L43.958 152.512L44.128 154.603V160.298H42.496ZM47.137 155.674C47.715 155.674 48.2307 155.544 48.684 155.283C49.1487 155.022 49.5114 154.654 49.772 154.178C50.044 153.691 50.18 153.13 50.18 152.495C50.18 151.849 50.044 151.294 49.772 150.829C49.5114 150.353 49.1487 149.985 48.684 149.724C48.2307 149.463 47.715 149.333 47.137 149.333C46.5704 149.333 46.0547 149.463 45.59 149.724C45.1367 149.985 44.774 150.353 44.502 150.829C44.2414 151.294 44.111 151.849 44.111 152.495C44.111 153.13 44.2414 153.691 44.502 154.178C44.774 154.654 45.1367 155.022 45.59 155.283C46.0547 155.544 46.5704 155.674 47.137 155.674ZM58.2121 157.102C57.2488 157.102 56.3988 156.904 55.6621 156.507C54.9368 156.11 54.3701 155.566 53.9621 154.875C53.5655 154.184 53.3671 153.39 53.3671 152.495C53.3671 151.6 53.5598 150.806 53.9451 150.115C54.3418 149.424 54.8801 148.885 55.5601 148.5C56.2515 148.103 57.0278 147.905 57.8891 147.905C58.7618 147.905 59.5325 148.098 60.2011 148.483C60.8698 148.868 61.3911 149.412 61.7651 150.115C62.1505 150.806 62.3431 151.617 62.3431 152.546C62.3431 152.614 62.3375 152.693 62.3261 152.784C62.3261 152.875 62.3205 152.96 62.3091 153.039H54.6421V151.866H61.4591L60.7961 152.274C60.8075 151.696 60.6885 151.18 60.4391 150.727C60.1898 150.274 59.8441 149.922 59.4021 149.673C58.9715 149.412 58.4671 149.282 57.8891 149.282C57.3225 149.282 56.8181 149.412 56.3761 149.673C55.9341 149.922 55.5885 150.279 55.3391 150.744C55.0898 151.197 54.9651 151.719 54.9651 152.308V152.58C54.9651 153.181 55.1011 153.719 55.3731 154.195C55.6565 154.66 56.0475 155.022 56.5461 155.283C57.0448 155.544 57.6171 155.674 58.2631 155.674C58.7958 155.674 59.2775 155.583 59.7081 155.402C60.1501 155.221 60.5355 154.949 60.8641 154.586L61.7651 155.64C61.3571 156.116 60.8471 156.479 60.2351 156.728C59.6345 156.977 58.9601 157.102 58.2121 157.102ZM70.8795 156.235V149.418H66.9695L66.8845 151.152C66.8619 151.719 66.8222 152.268 66.7655 152.801C66.7202 153.322 66.6409 153.804 66.5275 154.246C66.4255 154.688 66.2725 155.051 66.0685 155.334C65.8645 155.617 65.5925 155.793 65.2525 155.861L63.6375 155.572C63.9889 155.583 64.2722 155.47 64.4875 155.232C64.7029 154.983 64.8672 154.643 64.9805 154.212C65.1052 153.781 65.1959 153.294 65.2525 152.75C65.3092 152.195 65.3545 151.622 65.3885 151.033L65.5245 147.99H72.5115V156.235H70.8795ZM63.2805 159.091V155.572H73.8885V159.091H72.3585V157H64.8275V159.091H63.2805ZM80.0266 157.102C79.0633 157.102 78.2133 156.904 77.4766 156.507C76.7513 156.11 76.1846 155.566 75.7766 154.875C75.3799 154.184 75.1816 153.39 75.1816 152.495C75.1816 151.6 75.3743 150.806 75.7596 150.115C76.1563 149.424 76.6946 148.885 77.3746 148.5C78.0659 148.103 78.8423 147.905 79.7036 147.905C80.5763 147.905 81.3469 148.098 82.0156 148.483C82.6843 148.868 83.2056 149.412 83.5796 150.115C83.9649 150.806 84.1576 151.617 84.1576 152.546C84.1576 152.614 84.1519 152.693 84.1406 152.784C84.1406 152.875 84.1349 152.96 84.1236 153.039H76.4566V151.866H83.2736L82.6106 152.274C82.6219 151.696 82.5029 151.18 82.2536 150.727C82.0043 150.274 81.6586 149.922 81.2166 149.673C80.7859 149.412 80.2816 149.282 79.7036 149.282C79.1369 149.282 78.6326 149.412 78.1906 149.673C77.7486 149.922 77.4029 150.279 77.1536 150.744C76.9043 151.197 76.7796 151.719 76.7796 152.308V152.58C76.7796 153.181 76.9156 153.719 77.1876 154.195C77.4709 154.66 77.8619 155.022 78.3606 155.283C78.8593 155.544 79.4316 155.674 80.0776 155.674C80.6103 155.674 81.0919 155.583 81.5226 155.402C81.9646 155.221 82.3499 154.949 82.6786 154.586L83.5796 155.64C83.1716 156.116 82.6616 156.479 82.0496 156.728C81.4489 156.977 80.7746 157.102 80.0266 157.102ZM85.044 156.983L85.146 155.606C85.2253 155.617 85.299 155.629 85.367 155.64C85.435 155.651 85.4973 155.657 85.554 155.657C85.9167 155.657 86.2 155.532 86.404 155.283C86.6193 155.034 86.778 154.705 86.88 154.297C86.982 153.878 87.0557 153.407 87.101 152.886C87.1463 152.365 87.1803 151.843 87.203 151.322L87.356 147.99H94.275V157H92.643V148.942L93.034 149.418H88.41L88.784 148.925L88.665 151.424C88.631 152.217 88.5687 152.96 88.478 153.651C88.3873 154.342 88.2457 154.949 88.053 155.47C87.8717 155.991 87.6167 156.399 87.288 156.694C86.9707 156.989 86.557 157.136 86.047 157.136C85.8997 157.136 85.741 157.119 85.571 157.085C85.4123 157.062 85.2367 157.028 85.044 156.983ZM103.194 157V153.838L103.449 154.144H100.576C99.3743 154.144 98.4336 153.889 97.7536 153.379C97.0849 152.869 96.7506 152.127 96.7506 151.152C96.7506 150.109 97.1076 149.322 97.8216 148.789C98.5469 148.256 99.5103 147.99 100.712 147.99H104.656V157H103.194ZM96.6656 157L99.1136 153.549H100.797L98.4166 157H96.6656ZM103.194 153.328V148.959L103.449 149.418H100.763C100.015 149.418 99.4366 149.56 99.0286 149.843C98.6206 150.115 98.4166 150.568 98.4166 151.203C98.4166 152.382 99.1759 152.971 100.695 152.971H103.449L103.194 153.328ZM111.852 157.102C110.888 157.102 110.038 156.904 109.302 156.507C108.576 156.11 108.01 155.566 107.602 154.875C107.205 154.184 107.007 153.39 107.007 152.495C107.007 151.6 107.199 150.806 107.585 150.115C107.981 149.424 108.52 148.885 109.2 148.5C109.891 148.103 110.667 147.905 111.529 147.905C112.401 147.905 113.172 148.098 113.841 148.483C114.509 148.868 115.031 149.412 115.405 150.115C115.79 150.806 115.983 151.617 115.983 152.546C115.983 152.614 115.977 152.693 115.966 152.784C115.966 152.875 115.96 152.96 115.949 153.039H108.282V151.866H115.099L114.436 152.274C114.447 151.696 114.328 151.18 114.079 150.727C113.829 150.274 113.484 149.922 113.042 149.673C112.611 149.412 112.107 149.282 111.529 149.282C110.962 149.282 110.458 149.412 110.016 149.673C109.574 149.922 109.228 150.279 108.979 150.744C108.729 151.197 108.605 151.719 108.605 152.308V152.58C108.605 153.181 108.741 153.719 109.013 154.195C109.296 154.66 109.687 155.022 110.186 155.283C110.684 155.544 111.257 155.674 111.903 155.674C112.435 155.674 112.917 155.583 113.348 155.402C113.79 155.221 114.175 154.949 114.504 154.586L115.405 155.64C114.997 156.116 114.487 156.479 113.875 156.728C113.274 156.977 112.6 157.102 111.852 157.102ZM118.515 157V147.99H120.198L124.074 154.654H123.394L127.372 147.99H128.902V157H127.423V149.826L127.695 149.979L124.057 155.98H123.343L119.688 149.86L120.011 149.792V157H118.515ZM136.005 157.102C135.087 157.102 134.265 156.904 133.54 156.507C132.826 156.11 132.265 155.566 131.857 154.875C131.449 154.184 131.245 153.39 131.245 152.495C131.245 151.6 131.449 150.806 131.857 150.115C132.265 149.424 132.826 148.885 133.54 148.5C134.265 148.103 135.087 147.905 136.005 147.905C136.821 147.905 137.546 148.069 138.181 148.398C138.827 148.715 139.326 149.191 139.677 149.826L138.436 150.625C138.141 150.183 137.779 149.86 137.348 149.656C136.929 149.441 136.475 149.333 135.988 149.333C135.399 149.333 134.872 149.463 134.407 149.724C133.942 149.985 133.574 150.353 133.302 150.829C133.03 151.294 132.894 151.849 132.894 152.495C132.894 153.141 133.03 153.702 133.302 154.178C133.574 154.654 133.942 155.022 134.407 155.283C134.872 155.544 135.399 155.674 135.988 155.674C136.475 155.674 136.929 155.572 137.348 155.368C137.779 155.153 138.141 154.824 138.436 154.382L139.677 155.164C139.326 155.787 138.827 156.269 138.181 156.609C137.546 156.938 136.821 157.102 136.005 157.102ZM147.271 157V153.838L147.526 154.144H144.653C143.451 154.144 142.511 153.889 141.831 153.379C141.162 152.869 140.828 152.127 140.828 151.152C140.828 150.109 141.185 149.322 141.899 148.789C142.624 148.256 143.587 147.99 144.789 147.99H148.733V157H147.271ZM140.743 157L143.191 153.549H144.874L142.494 157H140.743ZM147.271 153.328V148.959L147.526 149.418H144.84C144.092 149.418 143.514 149.56 143.106 149.843C142.698 150.115 142.494 150.568 142.494 151.203C142.494 152.382 143.253 152.971 144.772 152.971H147.526L147.271 153.328ZM160.409 157.102C159.491 157.102 158.67 156.904 157.944 156.507C157.23 156.11 156.669 155.566 156.261 154.875C155.853 154.184 155.649 153.39 155.649 152.495C155.649 151.6 155.853 150.806 156.261 150.115C156.669 149.424 157.23 148.885 157.944 148.5C158.67 148.103 159.491 147.905 160.409 147.905C161.225 147.905 161.951 148.069 162.585 148.398C163.231 148.715 163.73 149.191 164.081 149.826L162.84 150.625C162.546 150.183 162.183 149.86 161.752 149.656C161.333 149.441 160.88 149.333 160.392 149.333C159.803 149.333 159.276 149.463 158.811 149.724C158.347 149.985 157.978 150.353 157.706 150.829C157.434 151.294 157.298 151.849 157.298 152.495C157.298 153.141 157.434 153.702 157.706 154.178C157.978 154.654 158.347 155.022 158.811 155.283C159.276 155.544 159.803 155.674 160.392 155.674C160.88 155.674 161.333 155.572 161.752 155.368C162.183 155.153 162.546 154.824 162.84 154.382L164.081 155.164C163.73 155.787 163.231 156.269 162.585 156.609C161.951 156.938 161.225 157.102 160.409 157.102ZM27.274 178L24.401 173.614L25.744 172.798L29.212 178H27.274ZM22.531 174.192V172.798H25.455V174.192H22.531ZM25.897 173.682L24.35 173.478L27.223 168.99H28.974L25.897 173.682ZM17.159 178H15.221L18.672 172.798L20.015 173.614L17.159 178ZM23.024 178H21.392V168.99H23.024V178ZM21.885 174.192H18.978V172.798H21.885V174.192ZM18.536 173.682L15.459 168.99H17.193L20.066 173.478L18.536 173.682ZM34.7209 178.102C33.7576 178.102 32.9076 177.904 32.1709 177.507C31.4456 177.11 30.8789 176.566 30.4709 175.875C30.0743 175.184 29.8759 174.39 29.8759 173.495C29.8759 172.6 30.0686 171.806 30.4539 171.115C30.8506 170.424 31.3889 169.885 32.0689 169.5C32.7603 169.103 33.5366 168.905 34.3979 168.905C35.2706 168.905 36.0413 169.098 36.7099 169.483C37.3786 169.868 37.8999 170.412 38.2739 171.115C38.6593 171.806 38.8519 172.617 38.8519 173.546C38.8519 173.614 38.8463 173.693 38.8349 173.784C38.8349 173.875 38.8293 173.96 38.8179 174.039H31.1509V172.866H37.9679L37.3049 173.274C37.3163 172.696 37.1973 172.18 36.9479 171.727C36.6986 171.274 36.3529 170.922 35.9109 170.673C35.4803 170.412 34.9759 170.282 34.3979 170.282C33.8313 170.282 33.3269 170.412 32.8849 170.673C32.4429 170.922 32.0973 171.279 31.8479 171.744C31.5986 172.197 31.4739 172.719 31.4739 173.308V173.58C31.4739 174.181 31.6099 174.719 31.8819 175.195C32.1653 175.66 32.5563 176.022 33.0549 176.283C33.5536 176.544 34.1259 176.674 34.7719 176.674C35.3046 176.674 35.7863 176.583 36.2169 176.402C36.6589 176.221 37.0443 175.949 37.3729 175.586L38.2739 176.64C37.8659 177.116 37.3559 177.479 36.7439 177.728C36.1433 177.977 35.4689 178.102 34.7209 178.102ZM39.7383 177.983L39.8403 176.606C39.9197 176.617 39.9933 176.629 40.0613 176.64C40.1293 176.651 40.1917 176.657 40.2483 176.657C40.611 176.657 40.8943 176.532 41.0983 176.283C41.3137 176.034 41.4723 175.705 41.5743 175.297C41.6763 174.878 41.75 174.407 41.7953 173.886C41.8407 173.365 41.8747 172.843 41.8973 172.322L42.0503 168.99H48.9693V178H47.3373V169.942L47.7283 170.418H43.1043L43.4783 169.925L43.3593 172.424C43.3253 173.217 43.263 173.96 43.1723 174.651C43.0817 175.342 42.94 175.949 42.7473 176.47C42.566 176.991 42.311 177.399 41.9823 177.694C41.665 177.989 41.2513 178.136 40.7413 178.136C40.594 178.136 40.4353 178.119 40.2653 178.085C40.1067 178.062 39.931 178.028 39.7383 177.983ZM57.6499 178V176.096L57.5649 175.739V172.492C57.5649 171.801 57.3609 171.268 56.9529 170.894C56.5563 170.509 55.9556 170.316 55.1509 170.316C54.6183 170.316 54.0969 170.407 53.5869 170.588C53.0769 170.758 52.6463 170.99 52.2949 171.285L51.6149 170.061C52.0796 169.687 52.6349 169.404 53.2809 169.211C53.9383 169.007 54.6239 168.905 55.3379 168.905C56.5733 168.905 57.5253 169.205 58.1939 169.806C58.8626 170.407 59.1969 171.325 59.1969 172.56V178H57.6499ZM54.6919 178.102C54.0233 178.102 53.4339 177.989 52.9239 177.762C52.4253 177.535 52.0399 177.224 51.7679 176.827C51.4959 176.419 51.3599 175.96 51.3599 175.45C51.3599 174.963 51.4733 174.521 51.6999 174.124C51.9379 173.727 52.3176 173.41 52.8389 173.172C53.3716 172.934 54.0856 172.815 54.9809 172.815H57.8369V173.988H55.0489C54.2329 173.988 53.6833 174.124 53.3999 174.396C53.1166 174.668 52.9749 174.997 52.9749 175.382C52.9749 175.824 53.1506 176.181 53.5019 176.453C53.8533 176.714 54.3406 176.844 54.9639 176.844C55.5759 176.844 56.1086 176.708 56.5619 176.436C57.0266 176.164 57.3609 175.767 57.5649 175.246L57.8879 176.368C57.6726 176.901 57.2929 177.326 56.7489 177.643C56.2049 177.949 55.5193 178.102 54.6919 178.102ZM66.1477 178.102C65.1844 178.102 64.3344 177.904 63.5977 177.507C62.8724 177.11 62.3057 176.566 61.8977 175.875C61.501 175.184 61.3027 174.39 61.3027 173.495C61.3027 172.6 61.4954 171.806 61.8807 171.115C62.2774 170.424 62.8157 169.885 63.4957 169.5C64.187 169.103 64.9634 168.905 65.8247 168.905C66.6974 168.905 67.468 169.098 68.1367 169.483C68.8054 169.868 69.3267 170.412 69.7007 171.115C70.086 171.806 70.2787 172.617 70.2787 173.546C70.2787 173.614 70.273 173.693 70.2617 173.784C70.2617 173.875 70.256 173.96 70.2447 174.039H62.5777V172.866H69.3947L68.7317 173.274C68.743 172.696 68.624 172.18 68.3747 171.727C68.1254 171.274 67.7797 170.922 67.3377 170.673C66.907 170.412 66.4027 170.282 65.8247 170.282C65.258 170.282 64.7537 170.412 64.3117 170.673C63.8697 170.922 63.524 171.279 63.2747 171.744C63.0254 172.197 62.9007 172.719 62.9007 173.308V173.58C62.9007 174.181 63.0367 174.719 63.3087 175.195C63.592 175.66 63.983 176.022 64.4817 176.283C64.9804 176.544 65.5527 176.674 66.1987 176.674C66.7314 176.674 67.213 176.583 67.6437 176.402C68.0857 176.221 68.471 175.949 68.7997 175.586L69.7007 176.64C69.2927 177.116 68.7827 177.479 68.1707 177.728C67.57 177.977 66.8957 178.102 66.1477 178.102ZM72.8105 178V168.99H74.4935L78.3695 175.654H77.6895L81.6675 168.99H83.1975V178H81.7185V170.826L81.9905 170.979L78.3525 176.98H77.6385L73.9835 170.86L74.3065 170.792V178H72.8105ZM90.233 178.102C89.3263 178.102 88.5216 177.904 87.819 177.507C87.1163 177.11 86.561 176.566 86.153 175.875C85.745 175.172 85.541 174.379 85.541 173.495C85.541 172.6 85.745 171.806 86.153 171.115C86.561 170.424 87.1163 169.885 87.819 169.5C88.5216 169.103 89.3263 168.905 90.233 168.905C91.1283 168.905 91.9273 169.103 92.63 169.5C93.344 169.885 93.8993 170.424 94.296 171.115C94.704 171.795 94.908 172.588 94.908 173.495C94.908 174.39 94.704 175.184 94.296 175.875C93.8993 176.566 93.344 177.11 92.63 177.507C91.9273 177.904 91.1283 178.102 90.233 178.102ZM90.233 176.674C90.811 176.674 91.3266 176.544 91.78 176.283C92.2446 176.022 92.6073 175.654 92.868 175.178C93.1286 174.691 93.259 174.13 93.259 173.495C93.259 172.849 93.1286 172.294 92.868 171.829C92.6073 171.353 92.2446 170.985 91.78 170.724C91.3266 170.463 90.811 170.333 90.233 170.333C89.655 170.333 89.1393 170.463 88.686 170.724C88.2326 170.985 87.87 171.353 87.598 171.829C87.326 172.294 87.19 172.849 87.19 173.495C87.19 174.13 87.326 174.691 87.598 175.178C87.87 175.654 88.2326 176.022 88.686 176.283C89.1393 176.544 89.655 176.674 90.233 176.674ZM97.2646 178V168.99H98.8966V175.552L104.422 168.99H105.901V178H104.269V171.438L98.7606 178H97.2646ZM101.481 167.817C100.653 167.817 100.002 167.619 99.5256 167.222C99.0609 166.814 98.8229 166.23 98.8116 165.471H99.9166C99.9279 165.902 100.07 166.242 100.342 166.491C100.625 166.74 100.999 166.865 101.464 166.865C101.928 166.865 102.302 166.74 102.586 166.491C102.869 166.242 103.016 165.902 103.028 165.471H104.167C104.155 166.23 103.912 166.814 103.436 167.222C102.96 167.619 102.308 167.817 101.481 167.817ZM113.634 178V168.99H115.317L119.193 175.654H118.513L122.491 168.99H124.021V178H122.542V170.826L122.814 170.979L119.176 176.98H118.462L114.807 170.86L115.13 170.792V178H113.634ZM132.722 178V176.096L132.637 175.739V172.492C132.637 171.801 132.433 171.268 132.025 170.894C131.629 170.509 131.028 170.316 130.223 170.316C129.691 170.316 129.169 170.407 128.659 170.588C128.149 170.758 127.719 170.99 127.367 171.285L126.687 170.061C127.152 169.687 127.707 169.404 128.353 169.211C129.011 169.007 129.696 168.905 130.41 168.905C131.646 168.905 132.598 169.205 133.266 169.806C133.935 170.407 134.269 171.325 134.269 172.56V178H132.722ZM129.764 178.102C129.096 178.102 128.506 177.989 127.996 177.762C127.498 177.535 127.112 177.224 126.84 176.827C126.568 176.419 126.432 175.96 126.432 175.45C126.432 174.963 126.546 174.521 126.772 174.124C127.01 173.727 127.39 173.41 127.911 173.172C128.444 172.934 129.158 172.815 130.053 172.815H132.909V173.988H130.121C129.305 173.988 128.756 174.124 128.472 174.396C128.189 174.668 128.047 174.997 128.047 175.382C128.047 175.824 128.223 176.181 128.574 176.453C128.926 176.714 129.413 176.844 130.036 176.844C130.648 176.844 131.181 176.708 131.634 176.436C132.099 176.164 132.433 175.767 132.637 175.246L132.96 176.368C132.745 176.901 132.365 177.326 131.821 177.643C131.277 177.949 130.592 178.102 129.764 178.102ZM141.985 178.102C141.237 178.102 140.551 177.932 139.928 177.592C139.316 177.241 138.823 176.725 138.449 176.045C138.086 175.365 137.905 174.515 137.905 173.495C137.905 172.475 138.081 171.625 138.432 170.945C138.795 170.265 139.282 169.755 139.894 169.415C140.517 169.075 141.214 168.905 141.985 168.905C142.869 168.905 143.651 169.098 144.331 169.483C145.011 169.868 145.549 170.407 145.946 171.098C146.343 171.778 146.541 172.577 146.541 173.495C146.541 174.413 146.343 175.218 145.946 175.909C145.549 176.6 145.011 177.139 144.331 177.524C143.651 177.909 142.869 178.102 141.985 178.102ZM137.208 181.298V168.99H138.772V171.421L138.67 173.512L138.84 175.603V181.298H137.208ZM141.849 176.674C142.427 176.674 142.943 176.544 143.396 176.283C143.861 176.022 144.223 175.654 144.484 175.178C144.756 174.691 144.892 174.13 144.892 173.495C144.892 172.849 144.756 172.294 144.484 171.829C144.223 171.353 143.861 170.985 143.396 170.724C142.943 170.463 142.427 170.333 141.849 170.333C141.282 170.333 140.767 170.463 140.302 170.724C139.849 170.985 139.486 171.353 139.214 171.829C138.953 172.294 138.823 172.849 138.823 173.495C138.823 174.13 138.953 174.691 139.214 175.178C139.486 175.654 139.849 176.022 140.302 176.283C140.767 176.544 141.282 176.674 141.849 176.674ZM155.44 178L151.955 173.614L153.298 172.798L157.361 178H155.44ZM148.912 178V168.99H150.544V178H148.912ZM150.051 174.192V172.798H153.026V174.192H150.051ZM153.434 173.682L151.921 173.478L155.372 168.99H157.123L153.434 173.682ZM162.632 178.102C161.726 178.102 160.921 177.904 160.218 177.507C159.516 177.11 158.96 176.566 158.552 175.875C158.144 175.172 157.94 174.379 157.94 173.495C157.94 172.6 158.144 171.806 158.552 171.115C158.96 170.424 159.516 169.885 160.218 169.5C160.921 169.103 161.726 168.905 162.632 168.905C163.528 168.905 164.327 169.103 165.029 169.5C165.743 169.885 166.299 170.424 166.695 171.115C167.103 171.795 167.307 172.588 167.307 173.495C167.307 174.39 167.103 175.184 166.695 175.875C166.299 176.566 165.743 177.11 165.029 177.507C164.327 177.904 163.528 178.102 162.632 178.102ZM162.632 176.674C163.21 176.674 163.726 176.544 164.179 176.283C164.644 176.022 165.007 175.654 165.267 175.178C165.528 174.691 165.658 174.13 165.658 173.495C165.658 172.849 165.528 172.294 165.267 171.829C165.007 171.353 164.644 170.985 164.179 170.724C163.726 170.463 163.21 170.333 162.632 170.333C162.054 170.333 161.539 170.463 161.085 170.724C160.632 170.985 160.269 171.353 159.997 171.829C159.725 172.294 159.589 172.849 159.589 173.495C159.589 174.13 159.725 174.691 159.997 175.178C160.269 175.654 160.632 176.022 161.085 176.283C161.539 176.544 162.054 176.674 162.632 176.674ZM169.664 178V168.99H171.296V175.552L176.821 168.99H178.3V178H176.668V171.438L171.16 178H169.664ZM173.88 167.817C173.053 167.817 172.401 167.619 171.925 167.222C171.46 166.814 171.222 166.23 171.211 165.471H172.316C172.327 165.902 172.469 166.242 172.741 166.491C173.024 166.74 173.398 166.865 173.863 166.865C174.328 166.865 174.702 166.74 174.985 166.491C175.268 166.242 175.416 165.902 175.427 165.471H176.566C176.555 166.23 176.311 166.814 175.835 167.222C175.359 167.619 174.707 167.817 173.88 167.817ZM186.033 178V168.99H187.665V175.552L193.19 168.99H194.669V178H193.037V171.438L187.529 178H186.033ZM16.581 199V189.99H18.264L22.14 196.654H21.46L25.438 189.99H26.968V199H25.489V191.826L25.761 191.979L22.123 197.98H21.409L17.754 191.86L18.077 191.792V199H16.581ZM34.0035 199.102C33.0968 199.102 32.2921 198.904 31.5895 198.507C30.8868 198.11 30.3315 197.566 29.9235 196.875C29.5155 196.172 29.3115 195.379 29.3115 194.495C29.3115 193.6 29.5155 192.806 29.9235 192.115C30.3315 191.424 30.8868 190.885 31.5895 190.5C32.2921 190.103 33.0968 189.905 34.0035 189.905C34.8988 189.905 35.6978 190.103 36.4005 190.5C37.1145 190.885 37.6698 191.424 38.0665 192.115C38.4745 192.795 38.6785 193.588 38.6785 194.495C38.6785 195.39 38.4745 196.184 38.0665 196.875C37.6698 197.566 37.1145 198.11 36.4005 198.507C35.6978 198.904 34.8988 199.102 34.0035 199.102ZM34.0035 197.674C34.5815 197.674 35.0971 197.544 35.5505 197.283C36.0151 197.022 36.3778 196.654 36.6385 196.178C36.8991 195.691 37.0295 195.13 37.0295 194.495C37.0295 193.849 36.8991 193.294 36.6385 192.829C36.3778 192.353 36.0151 191.985 35.5505 191.724C35.0971 191.463 34.5815 191.333 34.0035 191.333C33.4255 191.333 32.9098 191.463 32.4565 191.724C32.0031 191.985 31.6405 192.353 31.3685 192.829C31.0965 193.294 30.9605 193.849 30.9605 194.495C30.9605 195.13 31.0965 195.691 31.3685 196.178C31.6405 196.654 32.0031 197.022 32.4565 197.283C32.9098 197.544 33.4255 197.674 34.0035 197.674ZM47.1227 198.235V191.418H43.2127L43.1277 193.152C43.105 193.719 43.0654 194.268 43.0087 194.801C42.9634 195.322 42.884 195.804 42.7707 196.246C42.6687 196.688 42.5157 197.051 42.3117 197.334C42.1077 197.617 41.8357 197.793 41.4957 197.861L39.8807 197.572C40.232 197.583 40.5154 197.47 40.7307 197.232C40.946 196.983 41.1104 196.643 41.2237 196.212C41.3484 195.781 41.439 195.294 41.4957 194.75C41.5524 194.195 41.5977 193.622 41.6317 193.033L41.7677 189.99H48.7547V198.235H47.1227ZM39.5237 201.091V197.572H50.1317V201.091H48.6017V199H41.0707V201.091H39.5237ZM56.2698 199.102C55.3064 199.102 54.4564 198.904 53.7198 198.507C52.9944 198.11 52.4278 197.566 52.0198 196.875C51.6231 196.184 51.4248 195.39 51.4248 194.495C51.4248 193.6 51.6174 192.806 52.0028 192.115C52.3994 191.424 52.9378 190.885 53.6178 190.5C54.3091 190.103 55.0854 189.905 55.9468 189.905C56.8194 189.905 57.5901 190.098 58.2588 190.483C58.9274 190.868 59.4488 191.412 59.8228 192.115C60.2081 192.806 60.4008 193.617 60.4008 194.546C60.4008 194.614 60.3951 194.693 60.3838 194.784C60.3838 194.875 60.3781 194.96 60.3668 195.039H52.6998V193.866H59.5168L58.8538 194.274C58.8651 193.696 58.7461 193.18 58.4968 192.727C58.2474 192.274 57.9018 191.922 57.4598 191.673C57.0291 191.412 56.5248 191.282 55.9468 191.282C55.3801 191.282 54.8758 191.412 54.4338 191.673C53.9918 191.922 53.6461 192.279 53.3968 192.744C53.1474 193.197 53.0228 193.719 53.0228 194.308V194.58C53.0228 195.181 53.1588 195.719 53.4308 196.195C53.7141 196.66 54.1051 197.022 54.6038 197.283C55.1024 197.544 55.6748 197.674 56.3208 197.674C56.8534 197.674 57.3351 197.583 57.7658 197.402C58.2078 197.221 58.5931 196.949 58.9218 196.586L59.8228 197.64C59.4148 198.116 58.9048 198.479 58.2928 198.728C57.6921 198.977 57.0178 199.102 56.2698 199.102ZM61.2871 198.983L61.3891 197.606C61.4685 197.617 61.5421 197.629 61.6101 197.64C61.6781 197.651 61.7405 197.657 61.7971 197.657C62.1598 197.657 62.4431 197.532 62.6471 197.283C62.8625 197.034 63.0211 196.705 63.1231 196.297C63.2251 195.878 63.2988 195.407 63.3441 194.886C63.3895 194.365 63.4235 193.843 63.4461 193.322L63.5991 189.99H70.5181V199H68.8861V190.942L69.2771 191.418H64.6531L65.0271 190.925L64.9081 193.424C64.8741 194.217 64.8118 194.96 64.7211 195.651C64.6305 196.342 64.4888 196.949 64.2961 197.47C64.1148 197.991 63.8598 198.399 63.5311 198.694C63.2138 198.989 62.8001 199.136 62.2901 199.136C62.1428 199.136 61.9841 199.119 61.8141 199.085C61.6555 199.062 61.4798 199.028 61.2871 198.983ZM77.8388 193.05C78.9834 193.061 79.8561 193.322 80.4568 193.832C81.0574 194.342 81.3578 195.062 81.3578 195.991C81.3578 196.966 81.0291 197.719 80.3718 198.252C79.7144 198.773 78.7851 199.028 77.5838 199.017L73.6738 199V189.99H75.3058V193.033L77.8388 193.05ZM77.4478 197.776C78.1844 197.787 78.7398 197.64 79.1138 197.334C79.4991 197.028 79.6918 196.575 79.6918 195.974C79.6918 195.385 79.5048 194.954 79.1308 194.682C78.7568 194.41 78.1958 194.268 77.4478 194.257L75.3058 194.223V197.759L77.4478 197.776ZM83.4521 199V189.99H85.0841V193.679H87.8041V195.192H85.0841V199H83.4521ZM91.4251 199.102C90.5411 199.102 89.7534 198.904 89.0621 198.507C88.3821 198.11 87.8438 197.566 87.4471 196.875C87.0504 196.172 86.8521 195.379 86.8521 194.495C86.8521 193.6 87.0504 192.806 87.4471 192.115C87.8438 191.412 88.3821 190.868 89.0621 190.483C89.7534 190.098 90.5411 189.905 91.4251 189.905C92.2978 189.905 93.0798 190.098 93.7711 190.483C94.4624 190.868 95.0064 191.412 95.4031 192.115C95.7998 192.806 95.9981 193.6 95.9981 194.495C95.9981 195.39 95.7998 196.184 95.4031 196.875C95.0064 197.566 94.4624 198.11 93.7711 198.507C93.0798 198.904 92.2978 199.102 91.4251 199.102ZM91.4251 197.674C91.9918 197.674 92.4961 197.544 92.9381 197.283C93.3801 197.011 93.7314 196.643 93.9921 196.178C94.2528 195.702 94.3831 195.141 94.3831 194.495C94.3831 193.849 94.2528 193.294 93.9921 192.829C93.7314 192.353 93.3801 191.985 92.9381 191.724C92.4961 191.463 91.9918 191.333 91.4251 191.333C90.8698 191.333 90.3654 191.463 89.9121 191.724C89.4701 191.985 89.1188 192.353 88.8581 192.829C88.5974 193.294 88.4671 193.849 88.4671 194.495C88.4671 195.141 88.5974 195.702 88.8581 196.178C89.1188 196.643 89.4701 197.011 89.9121 197.283C90.3654 197.544 90.8698 197.674 91.4251 197.674ZM108.434 199V197.096L108.349 196.739V193.492C108.349 192.801 108.145 192.268 107.737 191.894C107.34 191.509 106.74 191.316 105.935 191.316C105.402 191.316 104.881 191.407 104.371 191.588C103.861 191.758 103.43 191.99 103.079 192.285L102.399 191.061C102.864 190.687 103.419 190.404 104.065 190.211C104.722 190.007 105.408 189.905 106.122 189.905C107.357 189.905 108.309 190.205 108.978 190.806C109.647 191.407 109.981 192.325 109.981 193.56V199H108.434ZM105.476 199.102C104.807 199.102 104.218 198.989 103.708 198.762C103.209 198.535 102.824 198.224 102.552 197.827C102.28 197.419 102.144 196.96 102.144 196.45C102.144 195.963 102.257 195.521 102.484 195.124C102.722 194.727 103.102 194.41 103.623 194.172C104.156 193.934 104.87 193.815 105.765 193.815H108.621V194.988H105.833C105.017 194.988 104.467 195.124 104.184 195.396C103.901 195.668 103.759 195.997 103.759 196.382C103.759 196.824 103.935 197.181 104.286 197.453C104.637 197.714 105.125 197.844 105.748 197.844C106.36 197.844 106.893 197.708 107.346 197.436C107.811 197.164 108.145 196.767 108.349 196.246L108.672 197.368C108.457 197.901 108.077 198.326 107.533 198.643C106.989 198.949 106.303 199.102 105.476 199.102ZM112.92 199V189.99H117.102C118.156 189.99 118.983 190.194 119.584 190.602C120.196 190.999 120.502 191.565 120.502 192.302C120.502 193.039 120.213 193.611 119.635 194.019C119.068 194.416 118.315 194.614 117.374 194.614L117.629 194.172C118.706 194.172 119.505 194.37 120.026 194.767C120.547 195.164 120.808 195.747 120.808 196.518C120.808 197.3 120.513 197.912 119.924 198.354C119.346 198.785 118.456 199 117.255 199H112.92ZM114.518 197.742H117.136C117.816 197.742 118.326 197.64 118.666 197.436C119.006 197.221 119.176 196.881 119.176 196.416C119.176 195.94 119.017 195.594 118.7 195.379C118.394 195.152 117.907 195.039 117.238 195.039H114.518V197.742ZM114.518 193.866H116.966C117.589 193.866 118.06 193.753 118.377 193.526C118.706 193.288 118.87 192.959 118.87 192.54C118.87 192.109 118.706 191.786 118.377 191.571C118.06 191.356 117.589 191.248 116.966 191.248H114.518V193.866ZM125.147 199V190.993L125.555 191.418H121.849V189.99H130.077V191.418H126.388L126.779 190.993V199H125.147ZM135.207 199.102C134.3 199.102 133.495 198.904 132.793 198.507C132.09 198.11 131.535 197.566 131.127 196.875C130.719 196.172 130.515 195.379 130.515 194.495C130.515 193.6 130.719 192.806 131.127 192.115C131.535 191.424 132.09 190.885 132.793 190.5C133.495 190.103 134.3 189.905 135.207 189.905C136.102 189.905 136.901 190.103 137.604 190.5C138.318 190.885 138.873 191.424 139.27 192.115C139.678 192.795 139.882 193.588 139.882 194.495C139.882 195.39 139.678 196.184 139.27 196.875C138.873 197.566 138.318 198.11 137.604 198.507C136.901 198.904 136.102 199.102 135.207 199.102ZM135.207 197.674C135.785 197.674 136.3 197.544 136.754 197.283C137.218 197.022 137.581 196.654 137.842 196.178C138.102 195.691 138.233 195.13 138.233 194.495C138.233 193.849 138.102 193.294 137.842 192.829C137.581 192.353 137.218 191.985 136.754 191.724C136.3 191.463 135.785 191.333 135.207 191.333C134.629 191.333 134.113 191.463 133.66 191.724C133.206 191.985 132.844 192.353 132.572 192.829C132.3 193.294 132.164 193.849 132.164 194.495C132.164 195.13 132.3 195.691 132.572 196.178C132.844 196.654 133.206 197.022 133.66 197.283C134.113 197.544 134.629 197.674 135.207 197.674ZM142.238 199V189.99H143.921L147.797 196.654H147.117L151.095 189.99H152.625V199H151.146V191.826L151.418 191.979L147.78 197.98H147.066L143.411 191.86L143.734 191.792V199H142.238ZM159.661 199.102C158.754 199.102 157.949 198.904 157.247 198.507C156.544 198.11 155.989 197.566 155.581 196.875C155.173 196.172 154.969 195.379 154.969 194.495C154.969 193.6 155.173 192.806 155.581 192.115C155.989 191.424 156.544 190.885 157.247 190.5C157.949 190.103 158.754 189.905 159.661 189.905C160.556 189.905 161.355 190.103 162.058 190.5C162.772 190.885 163.327 191.424 163.724 192.115C164.132 192.795 164.336 193.588 164.336 194.495C164.336 195.39 164.132 196.184 163.724 196.875C163.327 197.566 162.772 198.11 162.058 198.507C161.355 198.904 160.556 199.102 159.661 199.102ZM159.661 197.674C160.239 197.674 160.754 197.544 161.208 197.283C161.672 197.022 162.035 196.654 162.296 196.178C162.556 195.691 162.687 195.13 162.687 194.495C162.687 193.849 162.556 193.294 162.296 192.829C162.035 192.353 161.672 191.985 161.208 191.724C160.754 191.463 160.239 191.333 159.661 191.333C159.083 191.333 158.567 191.463 158.114 191.724C157.66 191.985 157.298 192.353 157.026 192.829C156.754 193.294 156.618 193.849 156.618 194.495C156.618 195.13 156.754 195.691 157.026 196.178C157.298 196.654 157.66 197.022 158.114 197.283C158.567 197.544 159.083 197.674 159.661 197.674ZM170.857 199.136C170.109 199.136 169.446 199.017 168.868 198.779C168.302 198.541 167.814 198.19 167.406 197.725C166.998 197.249 166.687 196.654 166.471 195.94C166.267 195.215 166.165 194.365 166.165 193.39C166.165 192.619 166.233 191.928 166.369 191.316C166.505 190.704 166.698 190.16 166.947 189.684C167.208 189.208 167.525 188.794 167.899 188.443C168.285 188.092 168.715 187.803 169.191 187.576C169.679 187.338 170.211 187.157 170.789 187.032L174.903 186.114L175.141 187.627L171.35 188.443C171.124 188.488 170.852 188.556 170.534 188.647C170.217 188.738 169.894 188.879 169.565 189.072C169.237 189.253 168.931 189.508 168.647 189.837C168.364 190.166 168.137 190.596 167.967 191.129C167.797 191.65 167.712 192.296 167.712 193.067C167.712 193.282 167.718 193.447 167.729 193.56C167.741 193.673 167.752 193.787 167.763 193.9C167.786 194.013 167.803 194.183 167.814 194.41L167.134 193.713C167.316 193.09 167.605 192.546 168.001 192.081C168.398 191.616 168.874 191.259 169.429 191.01C169.996 190.749 170.614 190.619 171.282 190.619C172.121 190.619 172.863 190.8 173.509 191.163C174.167 191.526 174.682 192.024 175.056 192.659C175.43 193.294 175.617 194.019 175.617 194.835C175.617 195.662 175.419 196.405 175.022 197.062C174.637 197.708 174.087 198.218 173.373 198.592C172.659 198.955 171.821 199.136 170.857 199.136ZM171.01 197.776C171.588 197.776 172.098 197.651 172.54 197.402C172.982 197.141 173.328 196.796 173.577 196.365C173.827 195.923 173.951 195.43 173.951 194.886C173.951 194.342 173.827 193.86 173.577 193.441C173.328 193.022 172.982 192.693 172.54 192.455C172.098 192.206 171.577 192.081 170.976 192.081C170.41 192.081 169.9 192.2 169.446 192.438C168.993 192.665 168.642 192.988 168.392 193.407C168.143 193.815 168.018 194.291 168.018 194.835C168.018 195.379 168.143 195.878 168.392 196.331C168.653 196.773 169.004 197.124 169.446 197.385C169.9 197.646 170.421 197.776 171.01 197.776ZM177.948 199V189.99H179.58V196.552L185.105 189.99H186.584V199H184.952V192.438L179.444 199H177.948ZM188.256 198.983L188.358 197.606C188.437 197.617 188.511 197.629 188.579 197.64C188.647 197.651 188.709 197.657 188.766 197.657C189.129 197.657 189.412 197.532 189.616 197.283C189.831 197.034 189.99 196.705 190.092 196.297C190.194 195.878 190.268 195.407 190.313 194.886C190.358 194.365 190.392 193.843 190.415 193.322L190.568 189.99H197.487V199H195.855V190.942L196.246 191.418H191.622L191.996 190.925L191.877 193.424C191.843 194.217 191.781 194.96 191.69 195.651C191.599 196.342 191.458 196.949 191.265 197.47C191.084 197.991 190.829 198.399 190.5 198.694C190.183 198.989 189.769 199.136 189.259 199.136C189.112 199.136 188.953 199.119 188.783 199.085C188.624 199.062 188.449 199.028 188.256 198.983ZM206.406 199V195.838L206.661 196.144H203.788C202.586 196.144 201.646 195.889 200.966 195.379C200.297 194.869 199.963 194.127 199.963 193.152C199.963 192.109 200.32 191.322 201.034 190.789C201.759 190.256 202.722 189.99 203.924 189.99H207.868V199H206.406ZM199.878 199L202.326 195.549H204.009L201.629 199H199.878ZM206.406 195.328V190.959L206.661 191.418H203.975C203.227 191.418 202.649 191.56 202.241 191.843C201.833 192.115 201.629 192.568 201.629 193.203C201.629 194.382 202.388 194.971 203.907 194.971H206.661L206.406 195.328ZM210.372 201.516L211.222 198.082L211.443 199.068C211.114 199.068 210.836 198.966 210.61 198.762C210.394 198.558 210.287 198.28 210.287 197.929C210.287 197.589 210.394 197.311 210.61 197.096C210.836 196.881 211.108 196.773 211.426 196.773C211.754 196.773 212.021 196.886 212.225 197.113C212.429 197.328 212.531 197.6 212.531 197.929C212.531 198.042 212.519 198.156 212.497 198.269C212.485 198.371 212.457 198.496 212.412 198.643C212.378 198.779 212.321 198.949 212.242 199.153L211.443 201.516H210.372ZM224.994 199V197.096L224.909 196.739V193.492C224.909 192.801 224.705 192.268 224.297 191.894C223.9 191.509 223.299 191.316 222.495 191.316C221.962 191.316 221.441 191.407 220.931 191.588C220.421 191.758 219.99 191.99 219.639 192.285L218.959 191.061C219.423 190.687 219.979 190.404 220.625 190.211C221.282 190.007 221.968 189.905 222.682 189.905C223.917 189.905 224.869 190.205 225.538 190.806C226.206 191.407 226.541 192.325 226.541 193.56V199H224.994ZM222.036 199.102C221.367 199.102 220.778 198.989 220.268 198.762C219.769 198.535 219.384 198.224 219.112 197.827C218.84 197.419 218.704 196.96 218.704 196.45C218.704 195.963 218.817 195.521 219.044 195.124C219.282 194.727 219.661 194.41 220.183 194.172C220.715 193.934 221.429 193.815 222.325 193.815H225.181V194.988H222.393C221.577 194.988 221.027 195.124 220.744 195.396C220.46 195.668 220.319 195.997 220.319 196.382C220.319 196.824 220.494 197.181 220.846 197.453C221.197 197.714 221.684 197.844 222.308 197.844C222.92 197.844 223.452 197.708 223.906 197.436C224.37 197.164 224.705 196.767 224.909 196.246L225.232 197.368C225.016 197.901 224.637 198.326 224.093 198.643C223.549 198.949 222.863 199.102 222.036 199.102ZM18.366 220V211.993L18.774 212.418H15.068V210.99H23.296V212.418H19.607L19.998 211.993V220H18.366ZM30.4898 220V218.096L30.4048 217.739V214.492C30.4048 213.801 30.2008 213.268 29.7928 212.894C29.3961 212.509 28.7955 212.316 27.9908 212.316C27.4581 212.316 26.9368 212.407 26.4268 212.588C25.9168 212.758 25.4861 212.99 25.1348 213.285L24.4548 212.061C24.9195 211.687 25.4748 211.404 26.1208 211.211C26.7781 211.007 27.4638 210.905 28.1778 210.905C29.4131 210.905 30.3651 211.205 31.0338 211.806C31.7025 212.407 32.0368 213.325 32.0368 214.56V220H30.4898ZM27.5318 220.102C26.8631 220.102 26.2738 219.989 25.7638 219.762C25.2651 219.535 24.8798 219.224 24.6078 218.827C24.3358 218.419 24.1998 217.96 24.1998 217.45C24.1998 216.963 24.3131 216.521 24.5398 216.124C24.7778 215.727 25.1575 215.41 25.6788 215.172C26.2115 214.934 26.9255 214.815 27.8208 214.815H30.6768V215.988H27.8888C27.0728 215.988 26.5231 216.124 26.2398 216.396C25.9565 216.668 25.8148 216.997 25.8148 217.382C25.8148 217.824 25.9905 218.181 26.3418 218.453C26.6931 218.714 27.1805 218.844 27.8038 218.844C28.4158 218.844 28.9485 218.708 29.4018 218.436C29.8665 218.164 30.2008 217.767 30.4048 217.246L30.7278 218.368C30.5125 218.901 30.1328 219.326 29.5888 219.643C29.0448 219.949 28.3591 220.102 27.5318 220.102ZM41.5035 220L38.0185 215.614L39.3615 214.798L43.4245 220H41.5035ZM34.9755 220V210.99H36.6075V220H34.9755ZM36.1145 216.192V214.798H39.0895V216.192H36.1145ZM39.4975 215.682L37.9845 215.478L41.4355 210.99H43.1865L39.4975 215.682ZM60.3941 220L57.5211 215.614L58.8641 214.798L62.3321 220H60.3941ZM55.6511 216.192V214.798H58.5751V216.192H55.6511ZM59.0171 215.682L57.4701 215.478L60.3431 210.99H62.0941L59.0171 215.682ZM50.2791 220H48.3411L51.7921 214.798L53.1351 215.614L50.2791 220ZM56.1441 220H54.5121V210.99H56.1441V220ZM55.0051 216.192H52.0981V214.798H55.0051V216.192ZM51.6561 215.682L48.5791 210.99H50.3131L53.1861 215.478L51.6561 215.682ZM67.841 220.102C66.8777 220.102 66.0277 219.904 65.291 219.507C64.5657 219.11 63.999 218.566 63.591 217.875C63.1944 217.184 62.996 216.39 62.996 215.495C62.996 214.6 63.1887 213.806 63.574 213.115C63.9707 212.424 64.509 211.885 65.189 211.5C65.8804 211.103 66.6567 210.905 67.518 210.905C68.3907 210.905 69.1614 211.098 69.83 211.483C70.4987 211.868 71.02 212.412 71.394 213.115C71.7794 213.806 71.972 214.617 71.972 215.546C71.972 215.614 71.9664 215.693 71.955 215.784C71.955 215.875 71.9494 215.96 71.938 216.039H64.271V214.866H71.088L70.425 215.274C70.4364 214.696 70.3174 214.18 70.068 213.727C69.8187 213.274 69.473 212.922 69.031 212.673C68.6004 212.412 68.096 212.282 67.518 212.282C66.9514 212.282 66.447 212.412 66.005 212.673C65.563 212.922 65.2174 213.279 64.968 213.744C64.7187 214.197 64.594 214.719 64.594 215.308V215.58C64.594 216.181 64.73 216.719 65.002 217.195C65.2854 217.66 65.6764 218.022 66.175 218.283C66.6737 218.544 67.246 218.674 67.892 218.674C68.4247 218.674 68.9064 218.583 69.337 218.402C69.779 218.221 70.1644 217.949 70.493 217.586L71.394 218.64C70.986 219.116 70.476 219.479 69.864 219.728C69.2634 219.977 68.589 220.102 67.841 220.102ZM82.9963 220.102C82.0783 220.102 81.2566 219.904 80.5313 219.507C79.8173 219.11 79.2563 218.566 78.8483 217.875C78.4403 217.184 78.2363 216.39 78.2363 215.495C78.2363 214.6 78.4403 213.806 78.8483 213.115C79.2563 212.424 79.8173 211.885 80.5313 211.5C81.2566 211.103 82.0783 210.905 82.9963 210.905C83.8123 210.905 84.5376 211.069 85.1723 211.398C85.8183 211.715 86.3169 212.191 86.6683 212.826L85.4273 213.625C85.1326 213.183 84.7699 212.86 84.3393 212.656C83.9199 212.441 83.4666 212.333 82.9793 212.333C82.3899 212.333 81.8629 212.463 81.3983 212.724C80.9336 212.985 80.5653 213.353 80.2933 213.829C80.0213 214.294 79.8853 214.849 79.8853 215.495C79.8853 216.141 80.0213 216.702 80.2933 217.178C80.5653 217.654 80.9336 218.022 81.3983 218.283C81.8629 218.544 82.3899 218.674 82.9793 218.674C83.4666 218.674 83.9199 218.572 84.3393 218.368C84.7699 218.153 85.1326 217.824 85.4273 217.382L86.6683 218.164C86.3169 218.787 85.8183 219.269 85.1723 219.609C84.5376 219.938 83.8123 220.102 82.9963 220.102ZM93.3466 220V210.99H97.5286C98.5826 210.99 99.41 211.194 100.011 211.602C100.623 211.999 100.929 212.565 100.929 213.302C100.929 214.039 100.64 214.611 100.062 215.019C99.495 215.416 98.7413 215.614 97.8006 215.614L98.0556 215.172C99.1323 215.172 99.9313 215.37 100.453 215.767C100.974 216.164 101.235 216.747 101.235 217.518C101.235 218.3 100.94 218.912 100.351 219.354C99.7726 219.785 98.883 220 97.6816 220H93.3466ZM94.9446 218.742H97.5626C98.2426 218.742 98.7526 218.64 99.0926 218.436C99.4326 218.221 99.6026 217.881 99.6026 217.416C99.6026 216.94 99.444 216.594 99.1266 216.379C98.8206 216.152 98.3333 216.039 97.6646 216.039H94.9446V218.742ZM94.9446 214.866H97.3926C98.016 214.866 98.4863 214.753 98.8036 214.526C99.1323 214.288 99.2966 213.959 99.2966 213.54C99.2966 213.109 99.1323 212.786 98.8036 212.571C98.4863 212.356 98.016 212.248 97.3926 212.248H94.9446V214.866ZM109.314 220V218.096L109.229 217.739V214.492C109.229 213.801 109.025 213.268 108.617 212.894C108.22 212.509 107.62 212.316 106.815 212.316C106.282 212.316 105.761 212.407 105.251 212.588C104.741 212.758 104.31 212.99 103.959 213.285L103.279 212.061C103.744 211.687 104.299 211.404 104.945 211.211C105.602 211.007 106.288 210.905 107.002 210.905C108.237 210.905 109.189 211.205 109.858 211.806C110.527 212.407 110.861 213.325 110.861 214.56V220H109.314ZM106.356 220.102C105.687 220.102 105.098 219.989 104.588 219.762C104.089 219.535 103.704 219.224 103.432 218.827C103.16 218.419 103.024 217.96 103.024 217.45C103.024 216.963 103.137 216.521 103.364 216.124C103.602 215.727 103.982 215.41 104.503 215.172C105.036 214.934 105.75 214.815 106.645 214.815H109.501V215.988H106.713C105.897 215.988 105.347 216.124 105.064 216.396C104.781 216.668 104.639 216.997 104.639 217.382C104.639 217.824 104.815 218.181 105.166 218.453C105.517 218.714 106.005 218.844 106.628 218.844C107.24 218.844 107.773 218.708 108.226 218.436C108.691 218.164 109.025 217.767 109.229 217.246L109.552 218.368C109.337 218.901 108.957 219.326 108.413 219.643C107.869 219.949 107.183 220.102 106.356 220.102ZM119.784 218.572L119.41 218.997V210.99H121.042V218.997L120.634 218.572H125.394L125.003 218.997V210.99H126.635V220H113.8V210.99H115.432V218.997L115.041 218.572H119.784ZM129.804 220V210.99H131.436V217.552L136.961 210.99H138.44V220H136.808V213.438L131.3 220H129.804ZM141.607 220V210.99H143.29L147.166 217.654H146.486L150.464 210.99H151.994V220H150.515V212.826L150.787 212.979L147.149 218.98H146.435L142.78 212.86L143.103 212.792V220H141.607ZM20.746 241.136C19.998 241.136 19.335 241.017 18.757 240.779C18.1903 240.541 17.703 240.19 17.295 239.725C16.887 239.249 16.5753 238.654 16.36 237.94C16.156 237.215 16.054 236.365 16.054 235.39C16.054 234.619 16.122 233.928 16.258 233.316C16.394 232.704 16.5867 232.16 16.836 231.684C17.0967 231.208 17.414 230.794 17.788 230.443C18.1733 230.092 18.604 229.803 19.08 229.576C19.5673 229.338 20.1 229.157 20.678 229.032L24.792 228.114L25.03 229.627L21.239 230.443C21.0123 230.488 20.7403 230.556 20.423 230.647C20.1057 230.738 19.7827 230.879 19.454 231.072C19.1253 231.253 18.8193 231.508 18.536 231.837C18.2527 232.166 18.026 232.596 17.856 233.129C17.686 233.65 17.601 234.296 17.601 235.067C17.601 235.282 17.6067 235.447 17.618 235.56C17.6293 235.673 17.6407 235.787 17.652 235.9C17.6747 236.013 17.6917 236.183 17.703 236.41L17.023 235.713C17.2043 235.09 17.4933 234.546 17.89 234.081C18.2867 233.616 18.7627 233.259 19.318 233.01C19.8847 232.749 20.5023 232.619 21.171 232.619C22.0097 232.619 22.752 232.8 23.398 233.163C24.0553 233.526 24.571 234.024 24.945 234.659C25.319 235.294 25.506 236.019 25.506 236.835C25.506 237.662 25.3077 238.405 24.911 239.062C24.5257 239.708 23.976 240.218 23.262 240.592C22.548 240.955 21.7093 241.136 20.746 241.136ZM20.899 239.776C21.477 239.776 21.987 239.651 22.429 239.402C22.871 239.141 23.2167 238.796 23.466 238.365C23.7153 237.923 23.84 237.43 23.84 236.886C23.84 236.342 23.7153 235.86 23.466 235.441C23.2167 235.022 22.871 234.693 22.429 234.455C21.987 234.206 21.4657 234.081 20.865 234.081C20.2983 234.081 19.7883 234.2 19.335 234.438C18.8817 234.665 18.5303 234.988 18.281 235.407C18.0317 235.815 17.907 236.291 17.907 236.835C17.907 237.379 18.0317 237.878 18.281 238.331C18.5417 238.773 18.893 239.124 19.335 239.385C19.7883 239.646 20.3097 239.776 20.899 239.776ZM27.8369 241V231.99H29.4689V235.679H32.1889V237.192H29.4689V241H27.8369ZM35.8099 241.102C34.9259 241.102 34.1382 240.904 33.4469 240.507C32.7669 240.11 32.2285 239.566 31.8319 238.875C31.4352 238.172 31.2369 237.379 31.2369 236.495C31.2369 235.6 31.4352 234.806 31.8319 234.115C32.2285 233.412 32.7669 232.868 33.4469 232.483C34.1382 232.098 34.9259 231.905 35.8099 231.905C36.6825 231.905 37.4645 232.098 38.1559 232.483C38.8472 232.868 39.3912 233.412 39.7879 234.115C40.1845 234.806 40.3829 235.6 40.3829 236.495C40.3829 237.39 40.1845 238.184 39.7879 238.875C39.3912 239.566 38.8472 240.11 38.1559 240.507C37.4645 240.904 36.6825 241.102 35.8099 241.102ZM35.8099 239.674C36.3765 239.674 36.8809 239.544 37.3229 239.283C37.7649 239.011 38.1162 238.643 38.3769 238.178C38.6375 237.702 38.7679 237.141 38.7679 236.495C38.7679 235.849 38.6375 235.294 38.3769 234.829C38.1162 234.353 37.7649 233.985 37.3229 233.724C36.8809 233.463 36.3765 233.333 35.8099 233.333C35.2545 233.333 34.7502 233.463 34.2969 233.724C33.8549 233.985 33.5035 234.353 33.2429 234.829C32.9822 235.294 32.8519 235.849 32.8519 236.495C32.8519 237.141 32.9822 237.702 33.2429 238.178C33.5035 238.643 33.8549 239.011 34.2969 239.283C34.7502 239.544 35.2545 239.674 35.8099 239.674ZM48.8161 240.235V233.418H44.9061L44.8211 235.152C44.7984 235.719 44.7587 236.268 44.7021 236.801C44.6567 237.322 44.5774 237.804 44.4641 238.246C44.3621 238.688 44.2091 239.051 44.0051 239.334C43.8011 239.617 43.5291 239.793 43.1891 239.861L41.5741 239.572C41.9254 239.583 42.2087 239.47 42.4241 239.232C42.6394 238.983 42.8037 238.643 42.9171 238.212C43.0417 237.781 43.1324 237.294 43.1891 236.75C43.2457 236.195 43.2911 235.622 43.3251 235.033L43.4611 231.99H50.4481V240.235H48.8161ZM41.2171 243.091V239.572H51.8251V243.091H50.2951V241H42.7641V243.091H41.2171ZM64.6441 241L61.7711 236.614L63.1141 235.798L66.5821 241H64.6441ZM59.9011 237.192V235.798H62.8251V237.192H59.9011ZM63.2671 236.682L61.7201 236.478L64.5931 231.99H66.3441L63.2671 236.682ZM54.5291 241H52.5911L56.0421 235.798L57.3851 236.614L54.5291 241ZM60.3941 241H58.7621V231.99H60.3941V241ZM59.2551 237.192H56.3481V235.798H59.2551V237.192ZM55.9061 236.682L52.8291 231.99H54.5631L57.4361 236.478L55.9061 236.682ZM72.091 241.102C71.1277 241.102 70.2777 240.904 69.541 240.507C68.8157 240.11 68.249 239.566 67.841 238.875C67.4444 238.184 67.246 237.39 67.246 236.495C67.246 235.6 67.4387 234.806 67.824 234.115C68.2207 233.424 68.759 232.885 69.439 232.5C70.1304 232.103 70.9067 231.905 71.768 231.905C72.6407 231.905 73.4114 232.098 74.08 232.483C74.7487 232.868 75.27 233.412 75.644 234.115C76.0294 234.806 76.222 235.617 76.222 236.546C76.222 236.614 76.2164 236.693 76.205 236.784C76.205 236.875 76.1994 236.96 76.188 237.039H68.521V235.866H75.338L74.675 236.274C74.6864 235.696 74.5674 235.18 74.318 234.727C74.0687 234.274 73.723 233.922 73.281 233.673C72.8504 233.412 72.346 233.282 71.768 233.282C71.2014 233.282 70.697 233.412 70.255 233.673C69.813 233.922 69.4674 234.279 69.218 234.744C68.9687 235.197 68.844 235.719 68.844 236.308V236.58C68.844 237.181 68.98 237.719 69.252 238.195C69.5354 238.66 69.9264 239.022 70.425 239.283C70.9237 239.544 71.496 239.674 72.142 239.674C72.6747 239.674 73.1564 239.583 73.587 239.402C74.029 239.221 74.4144 238.949 74.743 238.586L75.644 239.64C75.236 240.116 74.726 240.479 74.114 240.728C73.5134 240.977 72.839 241.102 72.091 241.102ZM80.157 241V232.993L80.565 233.418H76.859V231.99H85.087V233.418H81.398L81.789 232.993V241H80.157ZM90.2164 241.102C89.3097 241.102 88.505 240.904 87.8024 240.507C87.0997 240.11 86.5444 239.566 86.1364 238.875C85.7284 238.172 85.5244 237.379 85.5244 236.495C85.5244 235.6 85.7284 234.806 86.1364 234.115C86.5444 233.424 87.0997 232.885 87.8024 232.5C88.505 232.103 89.3097 231.905 90.2164 231.905C91.1117 231.905 91.9107 232.103 92.6134 232.5C93.3274 232.885 93.8827 233.424 94.2794 234.115C94.6874 234.795 94.8914 235.588 94.8914 236.495C94.8914 237.39 94.6874 238.184 94.2794 238.875C93.8827 239.566 93.3274 240.11 92.6134 240.507C91.9107 240.904 91.1117 241.102 90.2164 241.102ZM90.2164 239.674C90.7944 239.674 91.31 239.544 91.7634 239.283C92.228 239.022 92.5907 238.654 92.8514 238.178C93.112 237.691 93.2424 237.13 93.2424 236.495C93.2424 235.849 93.112 235.294 92.8514 234.829C92.5907 234.353 92.228 233.985 91.7634 233.724C91.31 233.463 90.7944 233.333 90.2164 233.333C89.6384 233.333 89.1227 233.463 88.6694 233.724C88.216 233.985 87.8534 234.353 87.5814 234.829C87.3094 235.294 87.1734 235.849 87.1734 236.495C87.1734 237.13 87.3094 237.691 87.5814 238.178C87.8534 238.654 88.216 239.022 88.6694 239.283C89.1227 239.544 89.6384 239.674 90.2164 239.674ZM97.248 241V231.99H98.931L102.807 238.654H102.127L106.105 231.99H107.635V241H106.156V233.826L106.428 233.979L102.79 239.98H102.076L98.421 233.86L98.744 233.792V241H97.248Z" fill="#434343"/>
<defs>
<clipPath id="clip0_103_8">
<rect width="260" height="260" rx="25" fill="white"/>
</clipPath>
</defs>
</svg>
