<svg width="300" height="239" viewBox="0 0 300 239" fill="none" xmlns="http://www.w3.org/2000/svg">
<path d="M0 50C0 26.4298 0 14.6447 7.32233 7.32233C14.6447 0 26.4298 0 50 0H258.544C258.796 0 258.922 0 259.016 0.00438307C261.703 0.130288 263.503 2.81976 262.594 5.35171C262.562 5.43986 262.514 5.55661 262.417 5.79013L259.867 11.9672C251.281 32.7641 276.444 51.0542 293.576 36.469C296.107 34.3144 300 36.1129 300 39.4366V189C300 212.57 300 224.355 292.678 231.678C285.355 239 273.57 239 250 239H50C26.4298 239 14.6447 239 7.32233 231.678C0 224.355 0 212.57 0 189V50Z" fill="#F3F5F7"/>
<mask id="mask0_221_4" style="mask-type:alpha" maskUnits="userSpaceOnUse" x="0" y="0" width="298" height="237">
<path d="M0 50C0 26.4298 0 14.6447 7.32233 7.32233C14.6447 0 26.4298 0 50 0H254.469C255.626 0 256.205 0 256.593 0.077668C259.018 0.562597 260.426 3.10949 259.548 5.421C259.407 5.79122 259.099 6.28129 258.484 7.26143C252.969 16.0465 250.212 20.439 249.452 22.7285C244.552 37.4906 257.638 51.9508 272.815 48.5434C275.169 48.015 279.814 45.7083 289.104 41.0948L290.98 40.1631C292.069 39.6224 292.613 39.352 293.038 39.2467C295.22 38.7063 297.419 40.0693 297.905 42.2637C298 42.6914 298 43.2992 298 44.5149V187C298 210.57 298 222.355 290.678 229.678C283.355 237 271.57 237 248 237H50C26.4298 237 14.6447 237 7.32233 229.678C0 222.355 0 210.57 0 187V50Z" fill="#F3F5F7"/>
</mask>
<g mask="url(#mask0_221_4)">
<path d="M0.205776 119.2C-8.12872 119.2 -15.5222 117.247 -21.9747 113.342C-28.3376 109.437 -33.3562 103.761 -37.0306 96.3145C-40.6153 88.8676 -42.4077 79.8769 -42.4077 69.3423C-42.4077 58.8077 -40.6153 49.817 -37.0306 42.3701C-33.3562 34.9232 -28.3376 29.2473 -21.9747 25.3422C-15.5222 21.4372 -8.12872 19.4846 0.205776 19.4846C8.54027 19.4846 15.889 21.4372 22.2519 25.3422C28.7044 29.2473 33.723 34.9232 37.3077 42.3701C40.9821 49.817 42.8193 58.8077 42.8193 69.3423C42.8193 79.8769 40.9821 88.8676 37.3077 96.3145C33.723 103.761 28.7044 109.437 22.2519 113.342C15.889 117.247 8.54027 119.2 0.205776 119.2ZM0.205776 93.4538C2.267 93.4538 4.10417 92.7273 5.7173 91.2742C7.33043 89.8212 8.58508 87.3238 9.48127 83.782C10.4671 80.2402 10.96 75.4269 10.96 69.3423C10.96 63.1669 10.4671 58.3536 9.48127 54.9026C8.58508 51.3608 7.33043 48.8634 5.7173 47.4104C4.10417 45.9573 2.267 45.2308 0.205776 45.2308C-1.85544 45.2308 -3.69262 45.9573 -5.30574 47.4104C-6.91887 48.8634 -8.21833 51.3608 -9.20414 54.9026C-10.1003 58.3536 -10.5484 63.1669 -10.5484 69.3423C-10.5484 75.4269 -10.1003 80.2402 -9.20414 83.782C-8.21833 87.3238 -6.91887 89.8212 -5.30574 91.2742C-3.69262 92.7273 -1.85544 93.4538 0.205776 93.4538Z" fill="#00AAFF" fill-opacity="0.1"/>
<path d="M62.2598 117.02V32.8345L75.8369 45.9119H46.1285V21.6642H93.9846V117.02H62.2598Z" fill="#00AAFF" fill-opacity="0.1"/>
</g>
<circle cx="280.5" cy="19.5" r="19.5" fill="#F3F5F7"/>
<path d="M273 20.25H288M288 20.25L281 13M288 20.25L281 27" stroke="#00AAFF" stroke-width="2" stroke-linecap="round" stroke-linejoin="round"/>
<path d="M22.208 157.136C21.3013 157.136 20.457 156.983 19.675 156.677C18.9043 156.371 18.2357 155.946 17.669 155.402C17.1023 154.847 16.6603 154.201 16.343 153.464C16.0257 152.727 15.867 151.923 15.867 151.05C15.867 150.177 16.0257 149.373 16.343 148.636C16.6603 147.899 17.1023 147.259 17.669 146.715C18.2357 146.16 18.9043 145.729 19.675 145.423C20.4457 145.117 21.29 144.964 22.208 144.964C23.1147 144.964 23.9477 145.117 24.707 145.423C25.4777 145.718 26.1463 146.143 26.713 146.698C27.291 147.242 27.733 147.882 28.039 148.619C28.3563 149.356 28.515 150.166 28.515 151.05C28.515 151.934 28.3563 152.744 28.039 153.481C27.733 154.218 27.291 154.864 26.713 155.419C26.1463 155.963 25.4777 156.388 24.707 156.694C23.9477 156.989 23.1147 157.136 22.208 157.136ZM22.208 155.623C22.8653 155.623 23.4717 155.51 24.027 155.283C24.5937 155.056 25.081 154.739 25.489 154.331C25.9083 153.912 26.2313 153.424 26.458 152.869C26.696 152.314 26.815 151.707 26.815 151.05C26.815 150.393 26.696 149.786 26.458 149.231C26.2313 148.676 25.9083 148.194 25.489 147.786C25.081 147.367 24.5937 147.044 24.027 146.817C23.4717 146.59 22.8653 146.477 22.208 146.477C21.5393 146.477 20.9217 146.59 20.355 146.817C19.7997 147.044 19.3123 147.367 18.893 147.786C18.4737 148.194 18.145 148.676 17.907 149.231C17.6803 149.786 17.567 150.393 17.567 151.05C17.567 151.707 17.6803 152.314 17.907 152.869C18.145 153.424 18.4737 153.912 18.893 154.331C19.3123 154.739 19.7997 155.056 20.355 155.283C20.9217 155.51 21.5393 155.623 22.208 155.623ZM30.9912 157V147.99H39.3382V157H37.7062V149.01L38.0972 149.418H32.2322L32.6232 149.01V157H30.9912ZM47.273 157.102C46.525 157.102 45.8394 156.932 45.216 156.592C44.604 156.241 44.111 155.725 43.737 155.045C43.3744 154.365 43.193 153.515 43.193 152.495C43.193 151.475 43.3687 150.625 43.72 149.945C44.0827 149.265 44.57 148.755 45.182 148.415C45.8054 148.075 46.5024 147.905 47.273 147.905C48.157 147.905 48.939 148.098 49.619 148.483C50.299 148.868 50.8374 149.407 51.234 150.098C51.6307 150.778 51.829 151.577 51.829 152.495C51.829 153.413 51.6307 154.218 51.234 154.909C50.8374 155.6 50.299 156.139 49.619 156.524C48.939 156.909 48.157 157.102 47.273 157.102ZM42.496 160.298V147.99H44.06V150.421L43.958 152.512L44.128 154.603V160.298H42.496ZM47.137 155.674C47.715 155.674 48.2307 155.544 48.684 155.283C49.1487 155.022 49.5114 154.654 49.772 154.178C50.044 153.691 50.18 153.13 50.18 152.495C50.18 151.849 50.044 151.294 49.772 150.829C49.5114 150.353 49.1487 149.985 48.684 149.724C48.2307 149.463 47.715 149.333 47.137 149.333C46.5704 149.333 46.0547 149.463 45.59 149.724C45.1367 149.985 44.774 150.353 44.502 150.829C44.2414 151.294 44.111 151.849 44.111 152.495C44.111 153.13 44.2414 153.691 44.502 154.178C44.774 154.654 45.1367 155.022 45.59 155.283C46.0547 155.544 46.5704 155.674 47.137 155.674ZM58.2121 157.102C57.2488 157.102 56.3988 156.904 55.6621 156.507C54.9368 156.11 54.3701 155.566 53.9621 154.875C53.5655 154.184 53.3671 153.39 53.3671 152.495C53.3671 151.6 53.5598 150.806 53.9451 150.115C54.3418 149.424 54.8801 148.885 55.5601 148.5C56.2515 148.103 57.0278 147.905 57.8891 147.905C58.7618 147.905 59.5325 148.098 60.2011 148.483C60.8698 148.868 61.3911 149.412 61.7651 150.115C62.1505 150.806 62.3431 151.617 62.3431 152.546C62.3431 152.614 62.3375 152.693 62.3261 152.784C62.3261 152.875 62.3205 152.96 62.3091 153.039H54.6421V151.866H61.4591L60.7961 152.274C60.8075 151.696 60.6885 151.18 60.4391 150.727C60.1898 150.274 59.8441 149.922 59.4021 149.673C58.9715 149.412 58.4671 149.282 57.8891 149.282C57.3225 149.282 56.8181 149.412 56.3761 149.673C55.9341 149.922 55.5885 150.279 55.3391 150.744C55.0898 151.197 54.9651 151.719 54.9651 152.308V152.58C54.9651 153.181 55.1011 153.719 55.3731 154.195C55.6565 154.66 56.0475 155.022 56.5461 155.283C57.0448 155.544 57.6171 155.674 58.2631 155.674C58.7958 155.674 59.2775 155.583 59.7081 155.402C60.1501 155.221 60.5355 154.949 60.8641 154.586L61.7651 155.64C61.3571 156.116 60.8471 156.479 60.2351 156.728C59.6345 156.977 58.9601 157.102 58.2121 157.102ZM70.8795 156.235V149.418H66.9695L66.8845 151.152C66.8619 151.719 66.8222 152.268 66.7655 152.801C66.7202 153.322 66.6409 153.804 66.5275 154.246C66.4255 154.688 66.2725 155.051 66.0685 155.334C65.8645 155.617 65.5925 155.793 65.2525 155.861L63.6375 155.572C63.9889 155.583 64.2722 155.47 64.4875 155.232C64.7029 154.983 64.8672 154.643 64.9805 154.212C65.1052 153.781 65.1959 153.294 65.2525 152.75C65.3092 152.195 65.3545 151.622 65.3885 151.033L65.5245 147.99H72.5115V156.235H70.8795ZM63.2805 159.091V155.572H73.8885V159.091H72.3585V157H64.8275V159.091H63.2805ZM80.0266 157.102C79.0633 157.102 78.2133 156.904 77.4766 156.507C76.7513 156.11 76.1846 155.566 75.7766 154.875C75.3799 154.184 75.1816 153.39 75.1816 152.495C75.1816 151.6 75.3743 150.806 75.7596 150.115C76.1563 149.424 76.6946 148.885 77.3746 148.5C78.0659 148.103 78.8423 147.905 79.7036 147.905C80.5763 147.905 81.3469 148.098 82.0156 148.483C82.6843 148.868 83.2056 149.412 83.5796 150.115C83.9649 150.806 84.1576 151.617 84.1576 152.546C84.1576 152.614 84.1519 152.693 84.1406 152.784C84.1406 152.875 84.1349 152.96 84.1236 153.039H76.4566V151.866H83.2736L82.6106 152.274C82.6219 151.696 82.5029 151.18 82.2536 150.727C82.0043 150.274 81.6586 149.922 81.2166 149.673C80.7859 149.412 80.2816 149.282 79.7036 149.282C79.1369 149.282 78.6326 149.412 78.1906 149.673C77.7486 149.922 77.4029 150.279 77.1536 150.744C76.9043 151.197 76.7796 151.719 76.7796 152.308V152.58C76.7796 153.181 76.9156 153.719 77.1876 154.195C77.4709 154.66 77.8619 155.022 78.3606 155.283C78.8593 155.544 79.4316 155.674 80.0776 155.674C80.6103 155.674 81.0919 155.583 81.5226 155.402C81.9646 155.221 82.3499 154.949 82.6786 154.586L83.5796 155.64C83.1716 156.116 82.6616 156.479 82.0496 156.728C81.4489 156.977 80.7746 157.102 80.0266 157.102ZM85.044 156.983L85.146 155.606C85.2253 155.617 85.299 155.629 85.367 155.64C85.435 155.651 85.4973 155.657 85.554 155.657C85.9167 155.657 86.2 155.532 86.404 155.283C86.6193 155.034 86.778 154.705 86.88 154.297C86.982 153.878 87.0557 153.407 87.101 152.886C87.1463 152.365 87.1803 151.843 87.203 151.322L87.356 147.99H94.275V157H92.643V148.942L93.034 149.418H88.41L88.784 148.925L88.665 151.424C88.631 152.217 88.5687 152.96 88.478 153.651C88.3873 154.342 88.2457 154.949 88.053 155.47C87.8717 155.991 87.6167 156.399 87.288 156.694C86.9707 156.989 86.557 157.136 86.047 157.136C85.8997 157.136 85.741 157.119 85.571 157.085C85.4123 157.062 85.2367 157.028 85.044 156.983ZM103.194 157V153.838L103.449 154.144H100.576C99.3743 154.144 98.4336 153.889 97.7536 153.379C97.0849 152.869 96.7506 152.127 96.7506 151.152C96.7506 150.109 97.1076 149.322 97.8216 148.789C98.5469 148.256 99.5103 147.99 100.712 147.99H104.656V157H103.194ZM96.6656 157L99.1136 153.549H100.797L98.4166 157H96.6656ZM103.194 153.328V148.959L103.449 149.418H100.763C100.015 149.418 99.4366 149.56 99.0286 149.843C98.6206 150.115 98.4166 150.568 98.4166 151.203C98.4166 152.382 99.1759 152.971 100.695 152.971H103.449L103.194 153.328ZM111.852 157.102C110.888 157.102 110.038 156.904 109.302 156.507C108.576 156.11 108.01 155.566 107.602 154.875C107.205 154.184 107.007 153.39 107.007 152.495C107.007 151.6 107.199 150.806 107.585 150.115C107.981 149.424 108.52 148.885 109.2 148.5C109.891 148.103 110.667 147.905 111.529 147.905C112.401 147.905 113.172 148.098 113.841 148.483C114.509 148.868 115.031 149.412 115.405 150.115C115.79 150.806 115.983 151.617 115.983 152.546C115.983 152.614 115.977 152.693 115.966 152.784C115.966 152.875 115.96 152.96 115.949 153.039H108.282V151.866H115.099L114.436 152.274C114.447 151.696 114.328 151.18 114.079 150.727C113.829 150.274 113.484 149.922 113.042 149.673C112.611 149.412 112.107 149.282 111.529 149.282C110.962 149.282 110.458 149.412 110.016 149.673C109.574 149.922 109.228 150.279 108.979 150.744C108.729 151.197 108.605 151.719 108.605 152.308V152.58C108.605 153.181 108.741 153.719 109.013 154.195C109.296 154.66 109.687 155.022 110.186 155.283C110.684 155.544 111.257 155.674 111.903 155.674C112.435 155.674 112.917 155.583 113.348 155.402C113.79 155.221 114.175 154.949 114.504 154.586L115.405 155.64C114.997 156.116 114.487 156.479 113.875 156.728C113.274 156.977 112.6 157.102 111.852 157.102ZM118.515 157V147.99H120.198L124.074 154.654H123.394L127.372 147.99H128.902V157H127.423V149.826L127.695 149.979L124.057 155.98H123.343L119.688 149.86L120.011 149.792V157H118.515ZM136.005 157.102C135.087 157.102 134.265 156.904 133.54 156.507C132.826 156.11 132.265 155.566 131.857 154.875C131.449 154.184 131.245 153.39 131.245 152.495C131.245 151.6 131.449 150.806 131.857 150.115C132.265 149.424 132.826 148.885 133.54 148.5C134.265 148.103 135.087 147.905 136.005 147.905C136.821 147.905 137.546 148.069 138.181 148.398C138.827 148.715 139.326 149.191 139.677 149.826L138.436 150.625C138.141 150.183 137.779 149.86 137.348 149.656C136.929 149.441 136.475 149.333 135.988 149.333C135.399 149.333 134.872 149.463 134.407 149.724C133.942 149.985 133.574 150.353 133.302 150.829C133.03 151.294 132.894 151.849 132.894 152.495C132.894 153.141 133.03 153.702 133.302 154.178C133.574 154.654 133.942 155.022 134.407 155.283C134.872 155.544 135.399 155.674 135.988 155.674C136.475 155.674 136.929 155.572 137.348 155.368C137.779 155.153 138.141 154.824 138.436 154.382L139.677 155.164C139.326 155.787 138.827 156.269 138.181 156.609C137.546 156.938 136.821 157.102 136.005 157.102ZM147.271 157V153.838L147.526 154.144H144.653C143.451 154.144 142.511 153.889 141.831 153.379C141.162 152.869 140.828 152.127 140.828 151.152C140.828 150.109 141.185 149.322 141.899 148.789C142.624 148.256 143.587 147.99 144.789 147.99H148.733V157H147.271ZM140.743 157L143.191 153.549H144.874L142.494 157H140.743ZM147.271 153.328V148.959L147.526 149.418H144.84C144.092 149.418 143.514 149.56 143.106 149.843C142.698 150.115 142.494 150.568 142.494 151.203C142.494 152.382 143.253 152.971 144.772 152.971H147.526L147.271 153.328ZM160.409 157.102C159.491 157.102 158.67 156.904 157.944 156.507C157.23 156.11 156.669 155.566 156.261 154.875C155.853 154.184 155.649 153.39 155.649 152.495C155.649 151.6 155.853 150.806 156.261 150.115C156.669 149.424 157.23 148.885 157.944 148.5C158.67 148.103 159.491 147.905 160.409 147.905C161.225 147.905 161.951 148.069 162.585 148.398C163.231 148.715 163.73 149.191 164.081 149.826L162.84 150.625C162.546 150.183 162.183 149.86 161.752 149.656C161.333 149.441 160.88 149.333 160.392 149.333C159.803 149.333 159.276 149.463 158.811 149.724C158.347 149.985 157.978 150.353 157.706 150.829C157.434 151.294 157.298 151.849 157.298 152.495C157.298 153.141 157.434 153.702 157.706 154.178C157.978 154.654 158.347 155.022 158.811 155.283C159.276 155.544 159.803 155.674 160.392 155.674C160.88 155.674 161.333 155.572 161.752 155.368C162.183 155.153 162.546 154.824 162.84 154.382L164.081 155.164C163.73 155.787 163.231 156.269 162.585 156.609C161.951 156.938 161.225 157.102 160.409 157.102ZM181.453 157L178.58 152.614L179.923 151.798L183.391 157H181.453ZM176.71 153.192V151.798H179.634V153.192H176.71ZM180.076 152.682L178.529 152.478L181.402 147.99H183.153L180.076 152.682ZM171.338 157H169.4L172.851 151.798L174.194 152.614L171.338 157ZM177.203 157H175.571V147.99H177.203V157ZM176.064 153.192H173.157V151.798H176.064V153.192ZM172.715 152.682L169.638 147.99H171.372L174.245 152.478L172.715 152.682ZM188.9 157.102C187.936 157.102 187.086 156.904 186.35 156.507C185.624 156.11 185.058 155.566 184.65 154.875C184.253 154.184 184.055 153.39 184.055 152.495C184.055 151.6 184.247 150.806 184.633 150.115C185.029 149.424 185.568 148.885 186.248 148.5C186.939 148.103 187.715 147.905 188.577 147.905C189.449 147.905 190.22 148.098 190.889 148.483C191.557 148.868 192.079 149.412 192.453 150.115C192.838 150.806 193.031 151.617 193.031 152.546C193.031 152.614 193.025 152.693 193.014 152.784C193.014 152.875 193.008 152.96 192.997 153.039H185.33V151.866H192.147L191.484 152.274C191.495 151.696 191.376 151.18 191.127 150.727C190.877 150.274 190.532 149.922 190.09 149.673C189.659 149.412 189.155 149.282 188.577 149.282C188.01 149.282 187.506 149.412 187.064 149.673C186.622 149.922 186.276 150.279 186.027 150.744C185.777 151.197 185.653 151.719 185.653 152.308V152.58C185.653 153.181 185.789 153.719 186.061 154.195C186.344 154.66 186.735 155.022 187.234 155.283C187.732 155.544 188.305 155.674 188.951 155.674C189.483 155.674 189.965 155.583 190.396 155.402C190.838 155.221 191.223 154.949 191.552 154.586L192.453 155.64C192.045 156.116 191.535 156.479 190.923 156.728C190.322 156.977 189.648 157.102 188.9 157.102ZM193.917 156.983L194.019 155.606C194.098 155.617 194.172 155.629 194.24 155.64C194.308 155.651 194.37 155.657 194.427 155.657C194.79 155.657 195.073 155.532 195.277 155.283C195.492 155.034 195.651 154.705 195.753 154.297C195.855 153.878 195.929 153.407 195.974 152.886C196.019 152.365 196.053 151.843 196.076 151.322L196.229 147.99H203.148V157H201.516V148.942L201.907 149.418H197.283L197.657 148.925L197.538 151.424C197.504 152.217 197.442 152.96 197.351 153.651C197.26 154.342 197.119 154.949 196.926 155.47C196.745 155.991 196.49 156.399 196.161 156.694C195.844 156.989 195.43 157.136 194.92 157.136C194.773 157.136 194.614 157.119 194.444 157.085C194.285 157.062 194.11 157.028 193.917 156.983ZM211.829 157V155.096L211.744 154.739V151.492C211.744 150.801 211.54 150.268 211.132 149.894C210.735 149.509 210.134 149.316 209.33 149.316C208.797 149.316 208.276 149.407 207.766 149.588C207.256 149.758 206.825 149.99 206.474 150.285L205.794 149.061C206.258 148.687 206.814 148.404 207.46 148.211C208.117 148.007 208.803 147.905 209.517 147.905C210.752 147.905 211.704 148.205 212.373 148.806C213.041 149.407 213.376 150.325 213.376 151.56V157H211.829ZM208.871 157.102C208.202 157.102 207.613 156.989 207.103 156.762C206.604 156.535 206.219 156.224 205.947 155.827C205.675 155.419 205.539 154.96 205.539 154.45C205.539 153.963 205.652 153.521 205.879 153.124C206.117 152.727 206.496 152.41 207.018 152.172C207.55 151.934 208.264 151.815 209.16 151.815H212.016V152.988H209.228C208.412 152.988 207.862 153.124 207.579 153.396C207.295 153.668 207.154 153.997 207.154 154.382C207.154 154.824 207.329 155.181 207.681 155.453C208.032 155.714 208.519 155.844 209.143 155.844C209.755 155.844 210.287 155.708 210.741 155.436C211.205 155.164 211.54 154.767 211.744 154.246L212.067 155.368C211.851 155.901 211.472 156.326 210.928 156.643C210.384 156.949 209.698 157.102 208.871 157.102ZM220.326 157.102C219.363 157.102 218.513 156.904 217.776 156.507C217.051 156.11 216.484 155.566 216.076 154.875C215.68 154.184 215.481 153.39 215.481 152.495C215.481 151.6 215.674 150.806 216.059 150.115C216.456 149.424 216.994 148.885 217.674 148.5C218.366 148.103 219.142 147.905 220.003 147.905C220.876 147.905 221.647 148.098 222.315 148.483C222.984 148.868 223.505 149.412 223.879 150.115C224.265 150.806 224.457 151.617 224.457 152.546C224.457 152.614 224.452 152.693 224.44 152.784C224.44 152.875 224.435 152.96 224.423 153.039H216.756V151.866H223.573L222.91 152.274C222.922 151.696 222.803 151.18 222.553 150.727C222.304 150.274 221.958 149.922 221.516 149.673C221.086 149.412 220.581 149.282 220.003 149.282C219.437 149.282 218.932 149.412 218.49 149.673C218.048 149.922 217.703 150.279 217.453 150.744C217.204 151.197 217.079 151.719 217.079 152.308V152.58C217.079 153.181 217.215 153.719 217.487 154.195C217.771 154.66 218.162 155.022 218.66 155.283C219.159 155.544 219.731 155.674 220.377 155.674C220.91 155.674 221.392 155.583 221.822 155.402C222.264 155.221 222.65 154.949 222.978 154.586L223.879 155.64C223.471 156.116 222.961 156.479 222.349 156.728C221.749 156.977 221.074 157.102 220.326 157.102ZM226.989 157V147.99H228.672L232.548 154.654H231.868L235.846 147.99H237.376V157H235.897V149.826L236.169 149.979L232.531 155.98H231.817L228.162 149.86L228.485 149.792V157H226.989ZM244.412 157.102C243.505 157.102 242.7 156.904 241.998 156.507C241.295 156.11 240.74 155.566 240.332 154.875C239.924 154.172 239.72 153.379 239.72 152.495C239.72 151.6 239.924 150.806 240.332 150.115C240.74 149.424 241.295 148.885 241.998 148.5C242.7 148.103 243.505 147.905 244.412 147.905C245.307 147.905 246.106 148.103 246.809 148.5C247.523 148.885 248.078 149.424 248.475 150.115C248.883 150.795 249.087 151.588 249.087 152.495C249.087 153.39 248.883 154.184 248.475 154.875C248.078 155.566 247.523 156.11 246.809 156.507C246.106 156.904 245.307 157.102 244.412 157.102ZM244.412 155.674C244.99 155.674 245.505 155.544 245.959 155.283C246.423 155.022 246.786 154.654 247.047 154.178C247.307 153.691 247.438 153.13 247.438 152.495C247.438 151.849 247.307 151.294 247.047 150.829C246.786 150.353 246.423 149.985 245.959 149.724C245.505 149.463 244.99 149.333 244.412 149.333C243.834 149.333 243.318 149.463 242.865 149.724C242.411 149.985 242.049 150.353 241.777 150.829C241.505 151.294 241.369 151.849 241.369 152.495C241.369 153.13 241.505 153.691 241.777 154.178C242.049 154.654 242.411 155.022 242.865 155.283C243.318 155.544 243.834 155.674 244.412 155.674ZM251.443 157V147.99H253.075V154.552L258.6 147.99H260.079V157H258.447V150.438L252.939 157H251.443ZM255.659 146.817C254.832 146.817 254.18 146.619 253.704 146.222C253.24 145.814 253.002 145.23 252.99 144.471H254.095C254.107 144.902 254.248 145.242 254.52 145.491C254.804 145.74 255.178 145.865 255.642 145.865C256.107 145.865 256.481 145.74 256.764 145.491C257.048 145.242 257.195 144.902 257.206 144.471H258.345C258.334 145.23 258.09 145.814 257.614 146.222C257.138 146.619 256.487 146.817 255.659 146.817ZM16.581 178V168.99H18.264L22.14 175.654H21.46L25.438 168.99H26.968V178H25.489V170.826L25.761 170.979L22.123 176.98H21.409L17.754 170.86L18.077 170.792V178H16.581ZM35.6695 178V176.096L35.5845 175.739V172.492C35.5845 171.801 35.3805 171.268 34.9725 170.894C34.5758 170.509 33.9751 170.316 33.1705 170.316C32.6378 170.316 32.1165 170.407 31.6065 170.588C31.0965 170.758 30.6658 170.99 30.3145 171.285L29.6345 170.061C30.0991 169.687 30.6545 169.404 31.3005 169.211C31.9578 169.007 32.6435 168.905 33.3575 168.905C34.5928 168.905 35.5448 169.205 36.2135 169.806C36.8821 170.407 37.2165 171.325 37.2165 172.56V178H35.6695ZM32.7115 178.102C32.0428 178.102 31.4535 177.989 30.9435 177.762C30.4448 177.535 30.0595 177.224 29.7875 176.827C29.5155 176.419 29.3795 175.96 29.3795 175.45C29.3795 174.963 29.4928 174.521 29.7195 174.124C29.9575 173.727 30.3371 173.41 30.8585 173.172C31.3911 172.934 32.1051 172.815 33.0005 172.815H35.8565V173.988H33.0685C32.2525 173.988 31.7028 174.124 31.4195 174.396C31.1361 174.668 30.9945 174.997 30.9945 175.382C30.9945 175.824 31.1701 176.181 31.5215 176.453C31.8728 176.714 32.3601 176.844 32.9835 176.844C33.5955 176.844 34.1281 176.708 34.5815 176.436C35.0461 176.164 35.3805 175.767 35.5845 175.246L35.9075 176.368C35.6921 176.901 35.3125 177.326 34.7685 177.643C34.2245 177.949 33.5388 178.102 32.7115 178.102ZM44.9322 178.102C44.1842 178.102 43.4986 177.932 42.8752 177.592C42.2632 177.241 41.7702 176.725 41.3962 176.045C41.0336 175.365 40.8522 174.515 40.8522 173.495C40.8522 172.475 41.0279 171.625 41.3792 170.945C41.7419 170.265 42.2292 169.755 42.8412 169.415C43.4646 169.075 44.1616 168.905 44.9322 168.905C45.8162 168.905 46.5982 169.098 47.2782 169.483C47.9582 169.868 48.4966 170.407 48.8932 171.098C49.2899 171.778 49.4882 172.577 49.4882 173.495C49.4882 174.413 49.2899 175.218 48.8932 175.909C48.4966 176.6 47.9582 177.139 47.2782 177.524C46.5982 177.909 45.8162 178.102 44.9322 178.102ZM40.1552 181.298V168.99H41.7192V171.421L41.6172 173.512L41.7872 175.603V181.298H40.1552ZM44.7962 176.674C45.3742 176.674 45.8899 176.544 46.3432 176.283C46.8079 176.022 47.1706 175.654 47.4312 175.178C47.7032 174.691 47.8392 174.13 47.8392 173.495C47.8392 172.849 47.7032 172.294 47.4312 171.829C47.1706 171.353 46.8079 170.985 46.3432 170.724C45.8899 170.463 45.3742 170.333 44.7962 170.333C44.2296 170.333 43.7139 170.463 43.2492 170.724C42.7959 170.985 42.4332 171.353 42.1612 171.829C41.9006 172.294 41.7702 172.849 41.7702 173.495C41.7702 174.13 41.9006 174.691 42.1612 175.178C42.4332 175.654 42.7959 176.022 43.2492 176.283C43.7139 176.544 44.2296 176.674 44.7962 176.674ZM58.3873 178L54.9023 173.614L56.2453 172.798L60.3083 178H58.3873ZM51.8593 178V168.99H53.4913V178H51.8593ZM52.9983 174.192V172.798H55.9733V174.192H52.9983ZM56.3813 173.682L54.8683 173.478L58.3193 168.99H60.0703L56.3813 173.682ZM65.5796 178.102C64.673 178.102 63.8683 177.904 63.1656 177.507C62.463 177.11 61.9076 176.566 61.4996 175.875C61.0916 175.172 60.8876 174.379 60.8876 173.495C60.8876 172.6 61.0916 171.806 61.4996 171.115C61.9076 170.424 62.463 169.885 63.1656 169.5C63.8683 169.103 64.673 168.905 65.5796 168.905C66.475 168.905 67.274 169.103 67.9766 169.5C68.6906 169.885 69.246 170.424 69.6426 171.115C70.0506 171.795 70.2546 172.588 70.2546 173.495C70.2546 174.39 70.0506 175.184 69.6426 175.875C69.246 176.566 68.6906 177.11 67.9766 177.507C67.274 177.904 66.475 178.102 65.5796 178.102ZM65.5796 176.674C66.1576 176.674 66.6733 176.544 67.1266 176.283C67.5913 176.022 67.954 175.654 68.2146 175.178C68.4753 174.691 68.6056 174.13 68.6056 173.495C68.6056 172.849 68.4753 172.294 68.2146 171.829C67.954 171.353 67.5913 170.985 67.1266 170.724C66.6733 170.463 66.1576 170.333 65.5796 170.333C65.0016 170.333 64.486 170.463 64.0326 170.724C63.5793 170.985 63.2166 171.353 62.9446 171.829C62.6726 172.294 62.5366 172.849 62.5366 173.495C62.5366 174.13 62.6726 174.691 62.9446 175.178C63.2166 175.654 63.5793 176.022 64.0326 176.283C64.486 176.544 65.0016 176.674 65.5796 176.674ZM72.6113 178V168.99H74.2433V175.552L79.7683 168.99H81.2473V178H79.6153V171.438L74.1073 178H72.6113ZM76.8273 167.817C75.9999 167.817 75.3483 167.619 74.8723 167.222C74.4076 166.814 74.1696 166.23 74.1583 165.471H75.2633C75.2746 165.902 75.4163 166.242 75.6883 166.491C75.9716 166.74 76.3456 166.865 76.8103 166.865C77.2749 166.865 77.6489 166.74 77.9323 166.491C78.2156 166.242 78.3629 165.902 78.3743 165.471H79.5133C79.5019 166.23 79.2583 166.814 78.7823 167.222C78.3063 167.619 77.6546 167.817 76.8273 167.817ZM88.9804 178V168.99H90.6124V175.552L96.1374 168.99H97.6164V178H95.9844V171.438L90.4764 178H88.9804ZM105.35 178V168.99H107.033L110.909 175.654H110.229L114.207 168.99H115.737V178H114.258V170.826L114.53 170.979L110.892 176.98H110.178L106.523 170.86L106.846 170.792V178H105.35ZM122.772 178.102C121.865 178.102 121.061 177.904 120.358 177.507C119.655 177.11 119.1 176.566 118.692 175.875C118.284 175.172 118.08 174.379 118.08 173.495C118.08 172.6 118.284 171.806 118.692 171.115C119.1 170.424 119.655 169.885 120.358 169.5C121.061 169.103 121.865 168.905 122.772 168.905C123.667 168.905 124.466 169.103 125.169 169.5C125.883 169.885 126.438 170.424 126.835 171.115C127.243 171.795 127.447 172.588 127.447 173.495C127.447 174.39 127.243 175.184 126.835 175.875C126.438 176.566 125.883 177.11 125.169 177.507C124.466 177.904 123.667 178.102 122.772 178.102ZM122.772 176.674C123.35 176.674 123.866 176.544 124.319 176.283C124.784 176.022 125.146 175.654 125.407 175.178C125.668 174.691 125.798 174.13 125.798 173.495C125.798 172.849 125.668 172.294 125.407 171.829C125.146 171.353 124.784 170.985 124.319 170.724C123.866 170.463 123.35 170.333 122.772 170.333C122.194 170.333 121.678 170.463 121.225 170.724C120.772 170.985 120.409 171.353 120.137 171.829C119.865 172.294 119.729 172.849 119.729 173.495C119.729 174.13 119.865 174.691 120.137 175.178C120.409 175.654 120.772 176.022 121.225 176.283C121.678 176.544 122.194 176.674 122.772 176.674ZM135.891 177.235V170.418H131.981L131.896 172.152C131.874 172.719 131.834 173.268 131.777 173.801C131.732 174.322 131.653 174.804 131.539 175.246C131.437 175.688 131.284 176.051 131.08 176.334C130.876 176.617 130.604 176.793 130.264 176.861L128.649 176.572C129.001 176.583 129.284 176.47 129.499 176.232C129.715 175.983 129.879 175.643 129.992 175.212C130.117 174.781 130.208 174.294 130.264 173.75C130.321 173.195 130.366 172.622 130.4 172.033L130.536 168.99H137.523V177.235H135.891ZM128.292 180.091V176.572H138.9V180.091H137.37V178H129.839V180.091H128.292ZM145.038 178.102C144.075 178.102 143.225 177.904 142.488 177.507C141.763 177.11 141.196 176.566 140.788 175.875C140.392 175.184 140.193 174.39 140.193 173.495C140.193 172.6 140.386 171.806 140.771 171.115C141.168 170.424 141.706 169.885 142.386 169.5C143.078 169.103 143.854 168.905 144.715 168.905C145.588 168.905 146.359 169.098 147.027 169.483C147.696 169.868 148.217 170.412 148.591 171.115C148.977 171.806 149.169 172.617 149.169 173.546C149.169 173.614 149.164 173.693 149.152 173.784C149.152 173.875 149.147 173.96 149.135 174.039H141.468V172.866H148.285L147.622 173.274C147.634 172.696 147.515 172.18 147.265 171.727C147.016 171.274 146.67 170.922 146.228 170.673C145.798 170.412 145.293 170.282 144.715 170.282C144.149 170.282 143.644 170.412 143.202 170.673C142.76 170.922 142.415 171.279 142.165 171.744C141.916 172.197 141.791 172.719 141.791 173.308V173.58C141.791 174.181 141.927 174.719 142.199 175.195C142.483 175.66 142.874 176.022 143.372 176.283C143.871 176.544 144.443 176.674 145.089 176.674C145.622 176.674 146.104 176.583 146.534 176.402C146.976 176.221 147.362 175.949 147.69 175.586L148.591 176.64C148.183 177.116 147.673 177.479 147.061 177.728C146.461 177.977 145.786 178.102 145.038 178.102ZM150.056 177.983L150.158 176.606C150.237 176.617 150.311 176.629 150.379 176.64C150.447 176.651 150.509 176.657 150.566 176.657C150.928 176.657 151.212 176.532 151.416 176.283C151.631 176.034 151.79 175.705 151.892 175.297C151.994 174.878 152.067 174.407 152.113 173.886C152.158 173.365 152.192 172.843 152.215 172.322L152.368 168.99H159.287V178H157.655V169.942L158.046 170.418H153.422L153.796 169.925L153.677 172.424C153.643 173.217 153.58 173.96 153.49 174.651C153.399 175.342 153.257 175.949 153.065 176.47C152.883 176.991 152.628 177.399 152.3 177.694C151.982 177.989 151.569 178.136 151.059 178.136C150.911 178.136 150.753 178.119 150.583 178.085C150.424 178.062 150.248 178.028 150.056 177.983ZM166.607 172.05C167.752 172.061 168.625 172.322 169.225 172.832C169.826 173.342 170.126 174.062 170.126 174.991C170.126 175.966 169.798 176.719 169.14 177.252C168.483 177.773 167.554 178.028 166.352 178.017L162.442 178V168.99H164.074V172.033L166.607 172.05ZM166.216 176.776C166.953 176.787 167.508 176.64 167.882 176.334C168.268 176.028 168.46 175.575 168.46 174.974C168.46 174.385 168.273 173.954 167.899 173.682C167.525 173.41 166.964 173.268 166.216 173.257L164.074 173.223V176.759L166.216 176.776ZM172.221 178V168.99H173.853V172.679H176.573V174.192H173.853V178H172.221ZM180.194 178.102C179.31 178.102 178.522 177.904 177.831 177.507C177.151 177.11 176.612 176.566 176.216 175.875C175.819 175.172 175.621 174.379 175.621 173.495C175.621 172.6 175.819 171.806 176.216 171.115C176.612 170.412 177.151 169.868 177.831 169.483C178.522 169.098 179.31 168.905 180.194 168.905C181.066 168.905 181.848 169.098 182.54 169.483C183.231 169.868 183.775 170.412 184.172 171.115C184.568 171.806 184.767 172.6 184.767 173.495C184.767 174.39 184.568 175.184 184.172 175.875C183.775 176.566 183.231 177.11 182.54 177.507C181.848 177.904 181.066 178.102 180.194 178.102ZM180.194 176.674C180.76 176.674 181.265 176.544 181.707 176.283C182.149 176.011 182.5 175.643 182.761 175.178C183.021 174.702 183.152 174.141 183.152 173.495C183.152 172.849 183.021 172.294 182.761 171.829C182.5 171.353 182.149 170.985 181.707 170.724C181.265 170.463 180.76 170.333 180.194 170.333C179.638 170.333 179.134 170.463 178.681 170.724C178.239 170.985 177.887 171.353 177.627 171.829C177.366 172.294 177.236 172.849 177.236 173.495C177.236 174.141 177.366 174.702 177.627 175.178C177.887 175.643 178.239 176.011 178.681 176.283C179.134 176.544 179.638 176.674 180.194 176.674ZM22.106 199V197.096L22.021 196.739V193.492C22.021 192.801 21.817 192.268 21.409 191.894C21.0123 191.509 20.4117 191.316 19.607 191.316C19.0743 191.316 18.553 191.407 18.043 191.588C17.533 191.758 17.1023 191.99 16.751 192.285L16.071 191.061C16.5357 190.687 17.091 190.404 17.737 190.211C18.3943 190.007 19.08 189.905 19.794 189.905C21.0293 189.905 21.9813 190.205 22.65 190.806C23.3187 191.407 23.653 192.325 23.653 193.56V199H22.106ZM19.148 199.102C18.4793 199.102 17.89 198.989 17.38 198.762C16.8813 198.535 16.496 198.224 16.224 197.827C15.952 197.419 15.816 196.96 15.816 196.45C15.816 195.963 15.9293 195.521 16.156 195.124C16.394 194.727 16.7737 194.41 17.295 194.172C17.8277 193.934 18.5417 193.815 19.437 193.815H22.293V194.988H19.505C18.689 194.988 18.1393 195.124 17.856 195.396C17.5727 195.668 17.431 195.997 17.431 196.382C17.431 196.824 17.6067 197.181 17.958 197.453C18.3093 197.714 18.7967 197.844 19.42 197.844C20.032 197.844 20.5647 197.708 21.018 197.436C21.4827 197.164 21.817 196.767 22.021 196.246L22.344 197.368C22.1287 197.901 21.749 198.326 21.205 198.643C20.661 198.949 19.9753 199.102 19.148 199.102ZM26.5917 199V189.99H30.7737C31.8277 189.99 32.6551 190.194 33.2557 190.602C33.8677 190.999 34.1737 191.565 34.1737 192.302C34.1737 193.039 33.8847 193.611 33.3067 194.019C32.7401 194.416 31.9864 194.614 31.0457 194.614L31.3007 194.172C32.3774 194.172 33.1764 194.37 33.6977 194.767C34.2191 195.164 34.4797 195.747 34.4797 196.518C34.4797 197.3 34.1851 197.912 33.5957 198.354C33.0177 198.785 32.1281 199 30.9267 199H26.5917ZM28.1897 197.742H30.8077C31.4877 197.742 31.9977 197.64 32.3377 197.436C32.6777 197.221 32.8477 196.881 32.8477 196.416C32.8477 195.94 32.6891 195.594 32.3717 195.379C32.0657 195.152 31.5784 195.039 30.9097 195.039H28.1897V197.742ZM28.1897 193.866H30.6377C31.2611 193.866 31.7314 193.753 32.0487 193.526C32.3774 193.288 32.5417 192.959 32.5417 192.54C32.5417 192.109 32.3774 191.786 32.0487 191.571C31.7314 191.356 31.2611 191.248 30.6377 191.248H28.1897V193.866ZM38.8191 199V190.993L39.2271 191.418H35.5211V189.99H43.7491V191.418H40.0601L40.4511 190.993V199H38.8191ZM48.8785 199.102C47.9718 199.102 47.1671 198.904 46.4645 198.507C45.7618 198.11 45.2065 197.566 44.7985 196.875C44.3905 196.172 44.1865 195.379 44.1865 194.495C44.1865 193.6 44.3905 192.806 44.7985 192.115C45.2065 191.424 45.7618 190.885 46.4645 190.5C47.1671 190.103 47.9718 189.905 48.8785 189.905C49.7738 189.905 50.5728 190.103 51.2755 190.5C51.9895 190.885 52.5448 191.424 52.9415 192.115C53.3495 192.795 53.5535 193.588 53.5535 194.495C53.5535 195.39 53.3495 196.184 52.9415 196.875C52.5448 197.566 51.9895 198.11 51.2755 198.507C50.5728 198.904 49.7738 199.102 48.8785 199.102ZM48.8785 197.674C49.4565 197.674 49.9721 197.544 50.4255 197.283C50.8901 197.022 51.2528 196.654 51.5135 196.178C51.7741 195.691 51.9045 195.13 51.9045 194.495C51.9045 193.849 51.7741 193.294 51.5135 192.829C51.2528 192.353 50.8901 191.985 50.4255 191.724C49.9721 191.463 49.4565 191.333 48.8785 191.333C48.3005 191.333 47.7848 191.463 47.3315 191.724C46.8781 191.985 46.5155 192.353 46.2435 192.829C45.9715 193.294 45.8355 193.849 45.8355 194.495C45.8355 195.13 45.9715 195.691 46.2435 196.178C46.5155 196.654 46.8781 197.022 47.3315 197.283C47.7848 197.544 48.3005 197.674 48.8785 197.674ZM55.9101 199V189.99H57.5931L61.4691 196.654H60.7891L64.7671 189.99H66.2971V199H64.8181V191.826L65.0901 191.979L61.4521 197.98H60.7381L57.0831 191.86L57.4061 191.792V199H55.9101ZM73.3326 199.102C72.4259 199.102 71.6212 198.904 70.9186 198.507C70.2159 198.11 69.6606 197.566 69.2526 196.875C68.8446 196.172 68.6406 195.379 68.6406 194.495C68.6406 193.6 68.8446 192.806 69.2526 192.115C69.6606 191.424 70.2159 190.885 70.9186 190.5C71.6212 190.103 72.4259 189.905 73.3326 189.905C74.2279 189.905 75.0269 190.103 75.7296 190.5C76.4436 190.885 76.9989 191.424 77.3956 192.115C77.8036 192.795 78.0076 193.588 78.0076 194.495C78.0076 195.39 77.8036 196.184 77.3956 196.875C76.9989 197.566 76.4436 198.11 75.7296 198.507C75.0269 198.904 74.2279 199.102 73.3326 199.102ZM73.3326 197.674C73.9106 197.674 74.4262 197.544 74.8796 197.283C75.3442 197.022 75.7069 196.654 75.9676 196.178C76.2282 195.691 76.3586 195.13 76.3586 194.495C76.3586 193.849 76.2282 193.294 75.9676 192.829C75.7069 192.353 75.3442 191.985 74.8796 191.724C74.4262 191.463 73.9106 191.333 73.3326 191.333C72.7546 191.333 72.2389 191.463 71.7856 191.724C71.3322 191.985 70.9696 192.353 70.6976 192.829C70.4256 193.294 70.2896 193.849 70.2896 194.495C70.2896 195.13 70.4256 195.691 70.6976 196.178C70.9696 196.654 71.3322 197.022 71.7856 197.283C72.2389 197.544 72.7546 197.674 73.3326 197.674ZM84.5292 199.136C83.7812 199.136 83.1182 199.017 82.5402 198.779C81.9735 198.541 81.4862 198.19 81.0782 197.725C80.6702 197.249 80.3585 196.654 80.1432 195.94C79.9392 195.215 79.8372 194.365 79.8372 193.39C79.8372 192.619 79.9052 191.928 80.0412 191.316C80.1772 190.704 80.3699 190.16 80.6192 189.684C80.8799 189.208 81.1972 188.794 81.5712 188.443C81.9565 188.092 82.3872 187.803 82.8632 187.576C83.3505 187.338 83.8832 187.157 84.4612 187.032L88.5752 186.114L88.8132 187.627L85.0222 188.443C84.7955 188.488 84.5235 188.556 84.2062 188.647C83.8889 188.738 83.5659 188.879 83.2372 189.072C82.9085 189.253 82.6025 189.508 82.3192 189.837C82.0359 190.166 81.8092 190.596 81.6392 191.129C81.4692 191.65 81.3842 192.296 81.3842 193.067C81.3842 193.282 81.3899 193.447 81.4012 193.56C81.4125 193.673 81.4239 193.787 81.4352 193.9C81.4579 194.013 81.4749 194.183 81.4862 194.41L80.8062 193.713C80.9875 193.09 81.2765 192.546 81.6732 192.081C82.0699 191.616 82.5459 191.259 83.1012 191.01C83.6679 190.749 84.2855 190.619 84.9542 190.619C85.7929 190.619 86.5352 190.8 87.1812 191.163C87.8385 191.526 88.3542 192.024 88.7282 192.659C89.1022 193.294 89.2892 194.019 89.2892 194.835C89.2892 195.662 89.0909 196.405 88.6942 197.062C88.3089 197.708 87.7592 198.218 87.0452 198.592C86.3312 198.955 85.4925 199.136 84.5292 199.136ZM84.6822 197.776C85.2602 197.776 85.7702 197.651 86.2122 197.402C86.6542 197.141 86.9999 196.796 87.2492 196.365C87.4985 195.923 87.6232 195.43 87.6232 194.886C87.6232 194.342 87.4985 193.86 87.2492 193.441C86.9999 193.022 86.6542 192.693 86.2122 192.455C85.7702 192.206 85.2489 192.081 84.6482 192.081C84.0815 192.081 83.5715 192.2 83.1182 192.438C82.6649 192.665 82.3135 192.988 82.0642 193.407C81.8149 193.815 81.6902 194.291 81.6902 194.835C81.6902 195.379 81.8149 195.878 82.0642 196.331C82.3249 196.773 82.6762 197.124 83.1182 197.385C83.5715 197.646 84.0929 197.776 84.6822 197.776ZM91.6201 199V189.99H93.2521V196.552L98.7771 189.99H100.256V199H98.6241V192.438L93.1161 199H91.6201ZM101.928 198.983L102.03 197.606C102.109 197.617 102.183 197.629 102.251 197.64C102.319 197.651 102.381 197.657 102.438 197.657C102.8 197.657 103.084 197.532 103.288 197.283C103.503 197.034 103.662 196.705 103.764 196.297C103.866 195.878 103.939 195.407 103.985 194.886C104.03 194.365 104.064 193.843 104.087 193.322L104.24 189.99H111.159V199H109.527V190.942L109.918 191.418H105.294L105.668 190.925L105.549 193.424C105.515 194.217 105.452 194.96 105.362 195.651C105.271 196.342 105.129 196.949 104.937 197.47C104.755 197.991 104.5 198.399 104.172 198.694C103.854 198.989 103.441 199.136 102.931 199.136C102.783 199.136 102.625 199.119 102.455 199.085C102.296 199.062 102.12 199.028 101.928 198.983ZM120.077 199V195.838L120.332 196.144H117.459C116.258 196.144 115.317 195.889 114.637 195.379C113.969 194.869 113.634 194.127 113.634 193.152C113.634 192.109 113.991 191.322 114.705 190.789C115.431 190.256 116.394 189.99 117.595 189.99H121.539V199H120.077ZM113.549 199L115.997 195.549H117.68L115.3 199H113.549ZM120.077 195.328V190.959L120.332 191.418H117.646C116.898 191.418 116.32 191.56 115.912 191.843C115.504 192.115 115.3 192.568 115.3 193.203C115.3 194.382 116.06 194.971 117.578 194.971H120.332L120.077 195.328ZM124.044 201.516L124.894 198.082L125.115 199.068C124.786 199.068 124.508 198.966 124.282 198.762C124.066 198.558 123.959 198.28 123.959 197.929C123.959 197.589 124.066 197.311 124.282 197.096C124.508 196.881 124.78 196.773 125.098 196.773C125.426 196.773 125.693 196.886 125.897 197.113C126.101 197.328 126.203 197.6 126.203 197.929C126.203 198.042 126.191 198.156 126.169 198.269C126.157 198.371 126.129 198.496 126.084 198.643C126.05 198.779 125.993 198.949 125.914 199.153L125.115 201.516H124.044ZM138.666 199V197.096L138.581 196.739V193.492C138.581 192.801 138.377 192.268 137.969 191.894C137.572 191.509 136.971 191.316 136.167 191.316C135.634 191.316 135.113 191.407 134.603 191.588C134.093 191.758 133.662 191.99 133.311 192.285L132.631 191.061C133.095 190.687 133.651 190.404 134.297 190.211C134.954 190.007 135.64 189.905 136.354 189.905C137.589 189.905 138.541 190.205 139.21 190.806C139.878 191.407 140.213 192.325 140.213 193.56V199H138.666ZM135.708 199.102C135.039 199.102 134.45 198.989 133.94 198.762C133.441 198.535 133.056 198.224 132.784 197.827C132.512 197.419 132.376 196.96 132.376 196.45C132.376 195.963 132.489 195.521 132.716 195.124C132.954 194.727 133.333 194.41 133.855 194.172C134.387 193.934 135.101 193.815 135.997 193.815H138.853V194.988H136.065C135.249 194.988 134.699 195.124 134.416 195.396C134.132 195.668 133.991 195.997 133.991 196.382C133.991 196.824 134.166 197.181 134.518 197.453C134.869 197.714 135.356 197.844 135.98 197.844C136.592 197.844 137.124 197.708 137.578 197.436C138.042 197.164 138.377 196.767 138.581 196.246L138.904 197.368C138.688 197.901 138.309 198.326 137.765 198.643C137.221 198.949 136.535 199.102 135.708 199.102ZM149.502 199V190.993L149.91 191.418H146.204V189.99H154.432V191.418H150.743L151.134 190.993V199H149.502ZM161.626 199V197.096L161.541 196.739V193.492C161.541 192.801 161.337 192.268 160.929 191.894C160.532 191.509 159.931 191.316 159.127 191.316C158.594 191.316 158.073 191.407 157.563 191.588C157.053 191.758 156.622 191.99 156.271 192.285L155.591 191.061C156.055 190.687 156.611 190.404 157.257 190.211C157.914 190.007 158.6 189.905 159.314 189.905C160.549 189.905 161.501 190.205 162.17 190.806C162.838 191.407 163.173 192.325 163.173 193.56V199H161.626ZM158.668 199.102C157.999 199.102 157.41 198.989 156.9 198.762C156.401 198.535 156.016 198.224 155.744 197.827C155.472 197.419 155.336 196.96 155.336 196.45C155.336 195.963 155.449 195.521 155.676 195.124C155.914 194.727 156.293 194.41 156.815 194.172C157.347 193.934 158.061 193.815 158.957 193.815H161.813V194.988H159.025C158.209 194.988 157.659 195.124 157.376 195.396C157.092 195.668 156.951 195.997 156.951 196.382C156.951 196.824 157.126 197.181 157.478 197.453C157.829 197.714 158.316 197.844 158.94 197.844C159.552 197.844 160.084 197.708 160.538 197.436C161.002 197.164 161.337 196.767 161.541 196.246L161.864 197.368C161.648 197.901 161.269 198.326 160.725 198.643C160.181 198.949 159.495 199.102 158.668 199.102ZM172.639 199L169.154 194.614L170.497 193.798L174.56 199H172.639ZM166.111 199V189.99H167.743V199H166.111ZM167.25 195.192V193.798H170.225V195.192H167.25ZM170.633 194.682L169.12 194.478L172.571 189.99H174.322L170.633 194.682ZM191.53 199L188.657 194.614L190 193.798L193.468 199H191.53ZM186.787 195.192V193.798H189.711V195.192H186.787ZM190.153 194.682L188.606 194.478L191.479 189.99H193.23L190.153 194.682ZM181.415 199H179.477L182.928 193.798L184.271 194.614L181.415 199ZM187.28 199H185.648V189.99H187.28V199ZM186.141 195.192H183.234V193.798H186.141V195.192ZM182.792 194.682L179.715 189.99H181.449L184.322 194.478L182.792 194.682ZM198.977 199.102C198.013 199.102 197.163 198.904 196.427 198.507C195.701 198.11 195.135 197.566 194.727 196.875C194.33 196.184 194.132 195.39 194.132 194.495C194.132 193.6 194.324 192.806 194.71 192.115C195.106 191.424 195.645 190.885 196.325 190.5C197.016 190.103 197.792 189.905 198.654 189.905C199.526 189.905 200.297 190.098 200.966 190.483C201.634 190.868 202.156 191.412 202.53 192.115C202.915 192.806 203.108 193.617 203.108 194.546C203.108 194.614 203.102 194.693 203.091 194.784C203.091 194.875 203.085 194.96 203.074 195.039H195.407V193.866H202.224L201.561 194.274C201.572 193.696 201.453 193.18 201.204 192.727C200.954 192.274 200.609 191.922 200.167 191.673C199.736 191.412 199.232 191.282 198.654 191.282C198.087 191.282 197.583 191.412 197.141 191.673C196.699 191.922 196.353 192.279 196.104 192.744C195.854 193.197 195.73 193.719 195.73 194.308V194.58C195.73 195.181 195.866 195.719 196.138 196.195C196.421 196.66 196.812 197.022 197.311 197.283C197.809 197.544 198.382 197.674 199.028 197.674C199.56 197.674 200.042 197.583 200.473 197.402C200.915 197.221 201.3 196.949 201.629 196.586L202.53 197.64C202.122 198.116 201.612 198.479 201 198.728C200.399 198.977 199.725 199.102 198.977 199.102ZM214.132 199.102C213.214 199.102 212.392 198.904 211.667 198.507C210.953 198.11 210.392 197.566 209.984 196.875C209.576 196.184 209.372 195.39 209.372 194.495C209.372 193.6 209.576 192.806 209.984 192.115C210.392 191.424 210.953 190.885 211.667 190.5C212.392 190.103 213.214 189.905 214.132 189.905C214.948 189.905 215.673 190.069 216.308 190.398C216.954 190.715 217.453 191.191 217.804 191.826L216.563 192.625C216.268 192.183 215.906 191.86 215.475 191.656C215.056 191.441 214.602 191.333 214.115 191.333C213.526 191.333 212.999 191.463 212.534 191.724C212.069 191.985 211.701 192.353 211.429 192.829C211.157 193.294 211.021 193.849 211.021 194.495C211.021 195.141 211.157 195.702 211.429 196.178C211.701 196.654 212.069 197.022 212.534 197.283C212.999 197.544 213.526 197.674 214.115 197.674C214.602 197.674 215.056 197.572 215.475 197.368C215.906 197.153 216.268 196.824 216.563 196.382L217.804 197.164C217.453 197.787 216.954 198.269 216.308 198.609C215.673 198.938 214.948 199.102 214.132 199.102ZM224.482 199V189.99H228.664C229.718 189.99 230.546 190.194 231.146 190.602C231.758 190.999 232.064 191.565 232.064 192.302C232.064 193.039 231.775 193.611 231.197 194.019C230.631 194.416 229.877 194.614 228.936 194.614L229.191 194.172C230.268 194.172 231.067 194.37 231.588 194.767C232.11 195.164 232.37 195.747 232.37 196.518C232.37 197.3 232.076 197.912 231.486 198.354C230.908 198.785 230.019 199 228.817 199H224.482ZM226.08 197.742H228.698C229.378 197.742 229.888 197.64 230.228 197.436C230.568 197.221 230.738 196.881 230.738 196.416C230.738 195.94 230.58 195.594 230.262 195.379C229.956 195.152 229.469 195.039 228.8 195.039H226.08V197.742ZM226.08 193.866H228.528C229.152 193.866 229.622 193.753 229.939 193.526C230.268 193.288 230.432 192.959 230.432 192.54C230.432 192.109 230.268 191.786 229.939 191.571C229.622 191.356 229.152 191.248 228.528 191.248H226.08V193.866ZM240.45 199V197.096L240.365 196.739V193.492C240.365 192.801 240.161 192.268 239.753 191.894C239.356 191.509 238.755 191.316 237.951 191.316C237.418 191.316 236.897 191.407 236.387 191.588C235.877 191.758 235.446 191.99 235.095 192.285L234.415 191.061C234.879 190.687 235.435 190.404 236.081 190.211C236.738 190.007 237.424 189.905 238.138 189.905C239.373 189.905 240.325 190.205 240.994 190.806C241.662 191.407 241.997 192.325 241.997 193.56V199H240.45ZM237.492 199.102C236.823 199.102 236.234 198.989 235.724 198.762C235.225 198.535 234.84 198.224 234.568 197.827C234.296 197.419 234.16 196.96 234.16 196.45C234.16 195.963 234.273 195.521 234.5 195.124C234.738 194.727 235.117 194.41 235.639 194.172C236.171 193.934 236.885 193.815 237.781 193.815H240.637V194.988H237.849C237.033 194.988 236.483 195.124 236.2 195.396C235.916 195.668 235.775 195.997 235.775 196.382C235.775 196.824 235.95 197.181 236.302 197.453C236.653 197.714 237.14 197.844 237.764 197.844C238.376 197.844 238.908 197.708 239.362 197.436C239.826 197.164 240.161 196.767 240.365 196.246L240.688 197.368C240.472 197.901 240.093 198.326 239.549 198.643C239.005 198.949 238.319 199.102 237.492 199.102ZM250.919 197.572L250.545 197.997V189.99H252.177V197.997L251.769 197.572H256.529L256.138 197.997V189.99H257.77V199H244.935V189.99H246.567V197.997L246.176 197.572H250.919ZM260.939 199V189.99H262.571V196.552L268.096 189.99H269.575V199H267.943V192.438L262.435 199H260.939ZM272.743 199V189.99H274.426L278.302 196.654H277.622L281.6 189.99H283.13V199H281.651V191.826L281.923 191.979L278.285 197.98H277.571L273.916 191.86L274.239 191.792V199H272.743ZM20.746 220.136C19.998 220.136 19.335 220.017 18.757 219.779C18.1903 219.541 17.703 219.19 17.295 218.725C16.887 218.249 16.5753 217.654 16.36 216.94C16.156 216.215 16.054 215.365 16.054 214.39C16.054 213.619 16.122 212.928 16.258 212.316C16.394 211.704 16.5867 211.16 16.836 210.684C17.0967 210.208 17.414 209.794 17.788 209.443C18.1733 209.092 18.604 208.803 19.08 208.576C19.5673 208.338 20.1 208.157 20.678 208.032L24.792 207.114L25.03 208.627L21.239 209.443C21.0123 209.488 20.7403 209.556 20.423 209.647C20.1057 209.738 19.7827 209.879 19.454 210.072C19.1253 210.253 18.8193 210.508 18.536 210.837C18.2527 211.166 18.026 211.596 17.856 212.129C17.686 212.65 17.601 213.296 17.601 214.067C17.601 214.282 17.6067 214.447 17.618 214.56C17.6293 214.673 17.6407 214.787 17.652 214.9C17.6747 215.013 17.6917 215.183 17.703 215.41L17.023 214.713C17.2043 214.09 17.4933 213.546 17.89 213.081C18.2867 212.616 18.7627 212.259 19.318 212.01C19.8847 211.749 20.5023 211.619 21.171 211.619C22.0097 211.619 22.752 211.8 23.398 212.163C24.0553 212.526 24.571 213.024 24.945 213.659C25.319 214.294 25.506 215.019 25.506 215.835C25.506 216.662 25.3077 217.405 24.911 218.062C24.5257 218.708 23.976 219.218 23.262 219.592C22.548 219.955 21.7093 220.136 20.746 220.136ZM20.899 218.776C21.477 218.776 21.987 218.651 22.429 218.402C22.871 218.141 23.2167 217.796 23.466 217.365C23.7153 216.923 23.84 216.43 23.84 215.886C23.84 215.342 23.7153 214.86 23.466 214.441C23.2167 214.022 22.871 213.693 22.429 213.455C21.987 213.206 21.4657 213.081 20.865 213.081C20.2983 213.081 19.7883 213.2 19.335 213.438C18.8817 213.665 18.5303 213.988 18.281 214.407C18.0317 214.815 17.907 215.291 17.907 215.835C17.907 216.379 18.0317 216.878 18.281 217.331C18.5417 217.773 18.893 218.124 19.335 218.385C19.7883 218.646 20.3097 218.776 20.899 218.776ZM27.8369 220V210.99H29.4689V214.679H32.1889V216.192H29.4689V220H27.8369ZM35.8099 220.102C34.9259 220.102 34.1382 219.904 33.4469 219.507C32.7669 219.11 32.2285 218.566 31.8319 217.875C31.4352 217.172 31.2369 216.379 31.2369 215.495C31.2369 214.6 31.4352 213.806 31.8319 213.115C32.2285 212.412 32.7669 211.868 33.4469 211.483C34.1382 211.098 34.9259 210.905 35.8099 210.905C36.6825 210.905 37.4645 211.098 38.1559 211.483C38.8472 211.868 39.3912 212.412 39.7879 213.115C40.1845 213.806 40.3829 214.6 40.3829 215.495C40.3829 216.39 40.1845 217.184 39.7879 217.875C39.3912 218.566 38.8472 219.11 38.1559 219.507C37.4645 219.904 36.6825 220.102 35.8099 220.102ZM35.8099 218.674C36.3765 218.674 36.8809 218.544 37.3229 218.283C37.7649 218.011 38.1162 217.643 38.3769 217.178C38.6375 216.702 38.7679 216.141 38.7679 215.495C38.7679 214.849 38.6375 214.294 38.3769 213.829C38.1162 213.353 37.7649 212.985 37.3229 212.724C36.8809 212.463 36.3765 212.333 35.8099 212.333C35.2545 212.333 34.7502 212.463 34.2969 212.724C33.8549 212.985 33.5035 213.353 33.2429 213.829C32.9822 214.294 32.8519 214.849 32.8519 215.495C32.8519 216.141 32.9822 216.702 33.2429 217.178C33.5035 217.643 33.8549 218.011 34.2969 218.283C34.7502 218.544 35.2545 218.674 35.8099 218.674ZM48.8161 219.235V212.418H44.9061L44.8211 214.152C44.7984 214.719 44.7587 215.268 44.7021 215.801C44.6567 216.322 44.5774 216.804 44.4641 217.246C44.3621 217.688 44.2091 218.051 44.0051 218.334C43.8011 218.617 43.5291 218.793 43.1891 218.861L41.5741 218.572C41.9254 218.583 42.2087 218.47 42.4241 218.232C42.6394 217.983 42.8037 217.643 42.9171 217.212C43.0417 216.781 43.1324 216.294 43.1891 215.75C43.2457 215.195 43.2911 214.622 43.3251 214.033L43.4611 210.99H50.4481V219.235H48.8161ZM41.2171 222.091V218.572H51.8251V222.091H50.2951V220H42.7641V222.091H41.2171ZM64.6441 220L61.7711 215.614L63.1141 214.798L66.5821 220H64.6441ZM59.9011 216.192V214.798H62.8251V216.192H59.9011ZM63.2671 215.682L61.7201 215.478L64.5931 210.99H66.3441L63.2671 215.682ZM54.5291 220H52.5911L56.0421 214.798L57.3851 215.614L54.5291 220ZM60.3941 220H58.7621V210.99H60.3941V220ZM59.2551 216.192H56.3481V214.798H59.2551V216.192ZM55.9061 215.682L52.8291 210.99H54.5631L57.4361 215.478L55.9061 215.682ZM72.091 220.102C71.1277 220.102 70.2777 219.904 69.541 219.507C68.8157 219.11 68.249 218.566 67.841 217.875C67.4444 217.184 67.246 216.39 67.246 215.495C67.246 214.6 67.4387 213.806 67.824 213.115C68.2207 212.424 68.759 211.885 69.439 211.5C70.1304 211.103 70.9067 210.905 71.768 210.905C72.6407 210.905 73.4114 211.098 74.08 211.483C74.7487 211.868 75.27 212.412 75.644 213.115C76.0294 213.806 76.222 214.617 76.222 215.546C76.222 215.614 76.2164 215.693 76.205 215.784C76.205 215.875 76.1994 215.96 76.188 216.039H68.521V214.866H75.338L74.675 215.274C74.6864 214.696 74.5674 214.18 74.318 213.727C74.0687 213.274 73.723 212.922 73.281 212.673C72.8504 212.412 72.346 212.282 71.768 212.282C71.2014 212.282 70.697 212.412 70.255 212.673C69.813 212.922 69.4674 213.279 69.218 213.744C68.9687 214.197 68.844 214.719 68.844 215.308V215.58C68.844 216.181 68.98 216.719 69.252 217.195C69.5354 217.66 69.9264 218.022 70.425 218.283C70.9237 218.544 71.496 218.674 72.142 218.674C72.6747 218.674 73.1564 218.583 73.587 218.402C74.029 218.221 74.4144 217.949 74.743 217.586L75.644 218.64C75.236 219.116 74.726 219.479 74.114 219.728C73.5134 219.977 72.839 220.102 72.091 220.102ZM80.157 220V211.993L80.565 212.418H76.859V210.99H85.087V212.418H81.398L81.789 211.993V220H80.157ZM90.2164 220.102C89.3097 220.102 88.505 219.904 87.8024 219.507C87.0997 219.11 86.5444 218.566 86.1364 217.875C85.7284 217.172 85.5244 216.379 85.5244 215.495C85.5244 214.6 85.7284 213.806 86.1364 213.115C86.5444 212.424 87.0997 211.885 87.8024 211.5C88.505 211.103 89.3097 210.905 90.2164 210.905C91.1117 210.905 91.9107 211.103 92.6134 211.5C93.3274 211.885 93.8827 212.424 94.2794 213.115C94.6874 213.795 94.8914 214.588 94.8914 215.495C94.8914 216.39 94.6874 217.184 94.2794 217.875C93.8827 218.566 93.3274 219.11 92.6134 219.507C91.9107 219.904 91.1117 220.102 90.2164 220.102ZM90.2164 218.674C90.7944 218.674 91.31 218.544 91.7634 218.283C92.228 218.022 92.5907 217.654 92.8514 217.178C93.112 216.691 93.2424 216.13 93.2424 215.495C93.2424 214.849 93.112 214.294 92.8514 213.829C92.5907 213.353 92.228 212.985 91.7634 212.724C91.31 212.463 90.7944 212.333 90.2164 212.333C89.6384 212.333 89.1227 212.463 88.6694 212.724C88.216 212.985 87.8534 213.353 87.5814 213.829C87.3094 214.294 87.1734 214.849 87.1734 215.495C87.1734 216.13 87.3094 216.691 87.5814 217.178C87.8534 217.654 88.216 218.022 88.6694 218.283C89.1227 218.544 89.6384 218.674 90.2164 218.674ZM97.248 220V210.99H98.931L102.807 217.654H102.127L106.105 210.99H107.635V220H106.156V212.826L106.428 212.979L102.79 218.98H102.076L98.421 212.86L98.744 212.792V220H97.248Z" fill="#434343"/>
</svg>
