<svg width="193" height="193" viewBox="0 0 193 193" fill="none" xmlns="http://www.w3.org/2000/svg">
<rect width="193" height="193" rx="35" fill="#00AAFF"/>
<path d="M33.4964 131.784L34.0564 130.6C34.547 130.984 35.0857 131.272 35.6724 131.464C36.2697 131.656 36.8617 131.757 37.4484 131.768C38.035 131.768 38.5737 131.688 39.0644 131.528C39.5657 131.368 39.9657 131.128 40.2644 130.808C40.563 130.488 40.7124 130.093 40.7124 129.624C40.7124 129.048 40.4777 128.611 40.0084 128.312C39.5497 128.013 38.9097 127.864 38.0884 127.864H35.5924V126.568H37.9764C38.691 126.568 39.2457 126.424 39.6404 126.136C40.0457 125.837 40.2484 125.427 40.2484 124.904C40.2484 124.509 40.1257 124.179 39.8804 123.912C39.6457 123.635 39.3204 123.427 38.9044 123.288C38.499 123.149 38.035 123.08 37.5124 123.08C37.0004 123.069 36.4724 123.139 35.9284 123.288C35.3844 123.427 34.8617 123.651 34.3604 123.96L33.8484 122.648C34.531 122.264 35.2404 121.997 35.9764 121.848C36.723 121.688 37.443 121.64 38.1364 121.704C38.8297 121.757 39.4537 121.917 40.0084 122.184C40.5737 122.44 41.0217 122.781 41.3524 123.208C41.6937 123.624 41.8644 124.125 41.8644 124.712C41.8644 125.245 41.7257 125.72 41.4484 126.136C41.171 126.541 40.787 126.856 40.2964 127.08C39.8057 127.293 39.235 127.4 38.5844 127.4L38.6484 126.968C39.395 126.968 40.0404 127.091 40.5844 127.336C41.139 127.571 41.5657 127.907 41.8644 128.344C42.1737 128.781 42.3284 129.288 42.3284 129.864C42.3284 130.408 42.1897 130.893 41.9124 131.32C41.635 131.736 41.2564 132.088 40.7764 132.376C40.307 132.653 39.7684 132.856 39.1604 132.984C38.563 133.112 37.9337 133.155 37.2724 133.112C36.611 133.069 35.955 132.941 35.3044 132.728C34.6644 132.515 34.0617 132.2 33.4964 131.784ZM49.938 133V131.208L49.858 130.872V127.816C49.858 127.165 49.666 126.664 49.282 126.312C48.9087 125.949 48.3433 125.768 47.586 125.768C47.0847 125.768 46.594 125.853 46.114 126.024C45.634 126.184 45.2287 126.403 44.898 126.68L44.258 125.528C44.6953 125.176 45.218 124.909 45.826 124.728C46.4447 124.536 47.09 124.44 47.762 124.44C48.9247 124.44 49.8207 124.723 50.45 125.288C51.0793 125.853 51.394 126.717 51.394 127.88V133H49.938ZM47.154 133.096C46.5247 133.096 45.97 132.989 45.49 132.776C45.0207 132.563 44.658 132.269 44.402 131.896C44.146 131.512 44.018 131.08 44.018 130.6C44.018 130.141 44.1247 129.725 44.338 129.352C44.562 128.979 44.9193 128.68 45.41 128.456C45.9113 128.232 46.5833 128.12 47.426 128.12H50.114V129.224H47.49C46.722 129.224 46.2047 129.352 45.938 129.608C45.6713 129.864 45.538 130.173 45.538 130.536C45.538 130.952 45.7033 131.288 46.034 131.544C46.3647 131.789 46.8233 131.912 47.41 131.912C47.986 131.912 48.4873 131.784 48.914 131.528C49.3513 131.272 49.666 130.899 49.858 130.408L50.162 131.464C49.9593 131.965 49.602 132.365 49.09 132.664C48.578 132.952 47.9327 133.096 47.154 133.096ZM54.1599 133V124.52H55.7439L59.3919 130.792H58.7519L62.4959 124.52H63.9359V133H62.5439V126.248L62.7999 126.392L59.3759 132.04H58.7039L55.2639 126.28L55.5679 126.216V133H54.1599ZM70.7015 133.096C69.7948 133.096 68.9948 132.909 68.3015 132.536C67.6188 132.163 67.0855 131.651 66.7015 131C66.3282 130.349 66.1415 129.603 66.1415 128.76C66.1415 127.917 66.3228 127.171 66.6855 126.52C67.0588 125.869 67.5655 125.363 68.2055 125C68.8562 124.627 69.5868 124.44 70.3975 124.44C71.2188 124.44 71.9442 124.621 72.5735 124.984C73.2028 125.347 73.6935 125.859 74.0455 126.52C74.4082 127.171 74.5895 127.933 74.5895 128.808C74.5895 128.872 74.5842 128.947 74.5735 129.032C74.5735 129.117 74.5682 129.197 74.5575 129.272H67.3415V128.168H73.7575L73.1335 128.552C73.1442 128.008 73.0322 127.523 72.7975 127.096C72.5628 126.669 72.2375 126.339 71.8215 126.104C71.4162 125.859 70.9415 125.736 70.3975 125.736C69.8642 125.736 69.3895 125.859 68.9735 126.104C68.5575 126.339 68.2322 126.675 67.9975 127.112C67.7628 127.539 67.6455 128.029 67.6455 128.584V128.84C67.6455 129.405 67.7735 129.912 68.0295 130.36C68.2962 130.797 68.6642 131.139 69.1335 131.384C69.6028 131.629 70.1415 131.752 70.7495 131.752C71.2508 131.752 71.7042 131.667 72.1095 131.496C72.5255 131.325 72.8882 131.069 73.1975 130.728L74.0455 131.72C73.6615 132.168 73.1815 132.509 72.6055 132.744C72.0402 132.979 71.4055 133.096 70.7015 133.096ZM76.9724 133V124.52H78.5084V128.12H83.3404V124.52H84.8764V133H83.3404V129.448H78.5084V133H76.9724ZM93.063 133V131.208L92.983 130.872V127.816C92.983 127.165 92.791 126.664 92.407 126.312C92.0337 125.949 91.4683 125.768 90.711 125.768C90.2097 125.768 89.719 125.853 89.239 126.024C88.759 126.184 88.3537 126.403 88.023 126.68L87.383 125.528C87.8203 125.176 88.343 124.909 88.951 124.728C89.5697 124.536 90.215 124.44 90.887 124.44C92.0497 124.44 92.9457 124.723 93.575 125.288C94.2043 125.853 94.519 126.717 94.519 127.88V133H93.063ZM90.279 133.096C89.6497 133.096 89.095 132.989 88.615 132.776C88.1457 132.563 87.783 132.269 87.527 131.896C87.271 131.512 87.143 131.08 87.143 130.6C87.143 130.141 87.2497 129.725 87.463 129.352C87.687 128.979 88.0443 128.68 88.535 128.456C89.0363 128.232 89.7083 128.12 90.551 128.12H93.239V129.224H90.615C89.847 129.224 89.3297 129.352 89.063 129.608C88.7963 129.864 88.663 130.173 88.663 130.536C88.663 130.952 88.8283 131.288 89.159 131.544C89.4897 131.789 89.9483 131.912 90.535 131.912C91.111 131.912 91.6123 131.784 92.039 131.528C92.4763 131.272 92.791 130.899 92.983 130.408L93.287 131.464C93.0843 131.965 92.727 132.365 92.215 132.664C91.703 132.952 91.0577 133.096 90.279 133.096ZM105.278 133.096C104.414 133.096 103.64 132.909 102.958 132.536C102.286 132.163 101.758 131.651 101.374 131C100.99 130.349 100.798 129.603 100.798 128.76C100.798 127.917 100.99 127.171 101.374 126.52C101.758 125.869 102.286 125.363 102.958 125C103.64 124.627 104.414 124.44 105.278 124.44C106.046 124.44 106.728 124.595 107.326 124.904C107.934 125.203 108.403 125.651 108.734 126.248L107.566 127C107.288 126.584 106.947 126.28 106.542 126.088C106.147 125.885 105.72 125.784 105.262 125.784C104.707 125.784 104.211 125.907 103.774 126.152C103.336 126.397 102.99 126.744 102.734 127.192C102.478 127.629 102.35 128.152 102.35 128.76C102.35 129.368 102.478 129.896 102.734 130.344C102.99 130.792 103.336 131.139 103.774 131.384C104.211 131.629 104.707 131.752 105.262 131.752C105.72 131.752 106.147 131.656 106.542 131.464C106.947 131.261 107.288 130.952 107.566 130.536L108.734 131.272C108.403 131.859 107.934 132.312 107.326 132.632C106.728 132.941 106.046 133.096 105.278 133.096ZM110.722 133V124.52H114.658C115.65 124.52 116.429 124.712 116.994 125.096C117.57 125.469 117.858 126.003 117.858 126.696C117.858 127.389 117.586 127.928 117.042 128.312C116.509 128.685 115.8 128.872 114.914 128.872L115.154 128.456C116.168 128.456 116.92 128.643 117.41 129.016C117.901 129.389 118.146 129.939 118.146 130.664C118.146 131.4 117.869 131.976 117.314 132.392C116.77 132.797 115.933 133 114.802 133H110.722ZM112.226 131.816H114.69C115.33 131.816 115.81 131.72 116.13 131.528C116.45 131.325 116.61 131.005 116.61 130.568C116.61 130.12 116.461 129.795 116.162 129.592C115.874 129.379 115.416 129.272 114.786 129.272H112.226V131.816ZM112.226 128.168H114.53C115.117 128.168 115.56 128.061 115.858 127.848C116.168 127.624 116.322 127.315 116.322 126.92C116.322 126.515 116.168 126.211 115.858 126.008C115.56 125.805 115.117 125.704 114.53 125.704H112.226V128.168ZM124.327 133.096C123.42 133.096 122.62 132.909 121.927 132.536C121.244 132.163 120.711 131.651 120.327 131C119.953 130.349 119.767 129.603 119.767 128.76C119.767 127.917 119.948 127.171 120.311 126.52C120.684 125.869 121.191 125.363 121.831 125C122.481 124.627 123.212 124.44 124.023 124.44C124.844 124.44 125.569 124.621 126.199 124.984C126.828 125.347 127.319 125.859 127.671 126.52C128.033 127.171 128.215 127.933 128.215 128.808C128.215 128.872 128.209 128.947 128.199 129.032C128.199 129.117 128.193 129.197 128.183 129.272H120.967V128.168H127.383L126.759 128.552C126.769 128.008 126.657 127.523 126.423 127.096C126.188 126.669 125.863 126.339 125.447 126.104C125.041 125.859 124.567 125.736 124.023 125.736C123.489 125.736 123.015 125.859 122.599 126.104C122.183 126.339 121.857 126.675 121.623 127.112C121.388 127.539 121.271 128.029 121.271 128.584V128.84C121.271 129.405 121.399 129.912 121.655 130.36C121.921 130.797 122.289 131.139 122.759 131.384C123.228 131.629 123.767 131.752 124.375 131.752C124.876 131.752 125.329 131.667 125.735 131.496C126.151 131.325 126.513 131.069 126.823 130.728L127.671 131.72C127.287 132.168 126.807 132.509 126.231 132.744C125.665 132.979 125.031 133.096 124.327 133.096ZM135.941 129.528C135.493 129.741 135.029 129.912 134.549 130.04C134.08 130.157 133.595 130.216 133.093 130.216C132.069 130.216 131.259 129.976 130.661 129.496C130.075 129.016 129.781 128.275 129.781 127.272V124.52H131.317V127.176C131.317 127.784 131.504 128.232 131.877 128.52C132.261 128.808 132.773 128.952 133.413 128.952C133.819 128.952 134.235 128.899 134.661 128.792C135.099 128.685 135.525 128.536 135.941 128.344V129.528ZM135.829 133V124.52H137.365V133H135.829ZM144.123 133.096C143.217 133.096 142.417 132.909 141.723 132.536C141.041 132.163 140.507 131.651 140.123 131C139.75 130.349 139.563 129.603 139.563 128.76C139.563 127.917 139.745 127.171 140.107 126.52C140.481 125.869 140.987 125.363 141.627 125C142.278 124.627 143.009 124.44 143.819 124.44C144.641 124.44 145.366 124.621 145.995 124.984C146.625 125.347 147.115 125.859 147.467 126.52C147.83 127.171 148.011 127.933 148.011 128.808C148.011 128.872 148.006 128.947 147.995 129.032C147.995 129.117 147.99 129.197 147.979 129.272H140.763V128.168H147.179L146.555 128.552C146.566 128.008 146.454 127.523 146.219 127.096C145.985 126.669 145.659 126.339 145.243 126.104C144.838 125.859 144.363 125.736 143.819 125.736C143.286 125.736 142.811 125.859 142.395 126.104C141.979 126.339 141.654 126.675 141.419 127.112C141.185 127.539 141.067 128.029 141.067 128.584V128.84C141.067 129.405 141.195 129.912 141.451 130.36C141.718 130.797 142.086 131.139 142.555 131.384C143.025 131.629 143.563 131.752 144.171 131.752C144.673 131.752 145.126 131.667 145.531 131.496C145.947 131.325 146.31 131.069 146.619 130.728L147.467 131.72C147.083 132.168 146.603 132.509 146.027 132.744C145.462 132.979 144.827 133.096 144.123 133.096ZM150.394 133V124.52H151.93V130.696L157.13 124.52H158.522V133H156.986V126.824L151.802 133H150.394ZM154.362 123.416C153.584 123.416 152.97 123.229 152.522 122.856C152.085 122.472 151.861 121.923 151.85 121.208H152.89C152.901 121.613 153.034 121.933 153.29 122.168C153.557 122.403 153.909 122.52 154.346 122.52C154.784 122.52 155.136 122.403 155.402 122.168C155.669 121.933 155.808 121.613 155.818 121.208H156.89C156.88 121.923 156.65 122.472 156.202 122.856C155.754 123.229 155.141 123.416 154.362 123.416ZM54.5461 153.112C55.2928 153.112 55.9541 153.005 56.5301 152.792C57.1168 152.568 57.5808 152.264 57.9221 151.88C58.2635 151.485 58.4341 151.032 58.4341 150.52C58.4341 149.88 58.1621 149.373 57.6181 149C57.0741 148.627 56.3275 148.44 55.3781 148.44L55.3141 148.808C55.8688 148.808 56.3595 148.717 56.7861 148.536C57.2128 148.355 57.5541 148.109 57.8101 147.8C58.0661 147.48 58.1941 147.117 58.1941 146.712C58.1941 146.232 58.0235 145.816 57.6821 145.464C57.3515 145.112 56.8981 144.845 56.3221 144.664C55.7461 144.472 55.0901 144.387 54.3541 144.408C53.8635 144.419 53.3675 144.493 52.8661 144.632C52.3755 144.76 51.8741 144.947 51.3621 145.192L51.7781 146.392C52.2368 146.168 52.6848 146.003 53.1221 145.896C53.5701 145.789 54.0075 145.731 54.4341 145.72C54.8715 145.72 55.2501 145.768 55.5701 145.864C55.9008 145.96 56.1568 146.099 56.3381 146.28C56.5195 146.461 56.6101 146.68 56.6101 146.936C56.6101 147.171 56.5301 147.379 56.3701 147.56C56.2208 147.731 56.0075 147.859 55.7301 147.944C55.4528 148.029 55.1275 148.072 54.7541 148.072H53.3141V149.176H54.8501C55.4795 149.176 55.9701 149.283 56.3221 149.496C56.6741 149.709 56.8501 150.013 56.8501 150.408C56.8501 150.685 56.7541 150.931 56.5621 151.144C56.3701 151.347 56.0928 151.507 55.7301 151.624C55.3781 151.741 54.9568 151.8 54.4661 151.8C53.9328 151.8 53.4048 151.731 52.8821 151.592C52.3595 151.443 51.8955 151.24 51.4901 150.984L51.0261 152.152C51.5061 152.461 52.0501 152.701 52.6581 152.872C53.2768 153.032 53.9061 153.112 54.5461 153.112ZM65.9693 153V151.208L65.8893 150.872V147.816C65.8893 147.165 65.6973 146.664 65.3133 146.312C64.9399 145.949 64.3746 145.768 63.6173 145.768C63.1159 145.768 62.6253 145.853 62.1453 146.024C61.6653 146.184 61.2599 146.403 60.9293 146.68L60.2893 145.528C60.7266 145.176 61.2493 144.909 61.8573 144.728C62.4759 144.536 63.1213 144.44 63.7933 144.44C64.9559 144.44 65.8519 144.723 66.4813 145.288C67.1106 145.853 67.4253 146.717 67.4253 147.88V153H65.9693ZM63.1853 153.096C62.5559 153.096 62.0013 152.989 61.5213 152.776C61.0519 152.563 60.6893 152.269 60.4333 151.896C60.1773 151.512 60.0493 151.08 60.0493 150.6C60.0493 150.141 60.1559 149.725 60.3693 149.352C60.5933 148.979 60.9506 148.68 61.4413 148.456C61.9426 148.232 62.6146 148.12 63.4573 148.12H66.1453V149.224H63.5213C62.7533 149.224 62.2359 149.352 61.9693 149.608C61.7026 149.864 61.5693 150.173 61.5693 150.536C61.5693 150.952 61.7346 151.288 62.0653 151.544C62.3959 151.789 62.8546 151.912 63.4413 151.912C64.0173 151.912 64.5186 151.784 64.9453 151.528C65.3826 151.272 65.6973 150.899 65.8893 150.408L66.1933 151.464C65.9906 151.965 65.6333 152.365 65.1213 152.664C64.6093 152.952 63.9639 153.096 63.1853 153.096ZM80.2551 153L77.5511 148.872L78.8151 148.104L82.0791 153H80.2551ZM75.7911 149.416V148.104H78.5431V149.416H75.7911ZM78.9591 148.936L77.5031 148.744L80.2071 144.52H81.8551L78.9591 148.936ZM70.7351 153H68.9111L72.1591 148.104L73.4231 148.872L70.7351 153ZM76.2551 153H74.7191V144.52H76.2551V153ZM75.1831 149.416H72.4471V148.104H75.1831V149.416ZM72.0311 148.936L69.1351 144.52H70.7671L73.4711 148.744L72.0311 148.936ZM83.7693 153V144.52H85.3053V150.696L90.5052 144.52H91.8973V153H90.3612V146.824L85.1773 153H83.7693ZM94.8786 153V144.52H101.119V145.864H96.0466L96.4146 145.512V153H94.8786ZM107.891 153V151.208L107.811 150.872V147.816C107.811 147.165 107.619 146.664 107.235 146.312C106.862 145.949 106.296 145.768 105.539 145.768C105.038 145.768 104.547 145.853 104.067 146.024C103.587 146.184 103.182 146.403 102.851 146.68L102.211 145.528C102.648 145.176 103.171 144.909 103.779 144.728C104.398 144.536 105.043 144.44 105.715 144.44C106.878 144.44 107.774 144.723 108.403 145.288C109.032 145.853 109.347 146.717 109.347 147.88V153H107.891ZM105.107 153.096C104.478 153.096 103.923 152.989 103.443 152.776C102.974 152.563 102.611 152.269 102.355 151.896C102.099 151.512 101.971 151.08 101.971 150.6C101.971 150.141 102.078 149.725 102.291 149.352C102.515 148.979 102.872 148.68 103.363 148.456C103.864 148.232 104.536 148.12 105.379 148.12H108.067V149.224H105.443C104.675 149.224 104.158 149.352 103.891 149.608C103.624 149.864 103.491 150.173 103.491 150.536C103.491 150.952 103.656 151.288 103.987 151.544C104.318 151.789 104.776 151.912 105.363 151.912C105.939 151.912 106.44 151.784 106.867 151.528C107.304 151.272 107.619 150.899 107.811 150.408L108.115 151.464C107.912 151.965 107.555 152.365 107.043 152.664C106.531 152.952 105.886 153.096 105.107 153.096ZM112.113 153V144.52H113.649V148.12H118.481V144.52H120.017V153H118.481V149.448H113.649V153H112.113ZM123.004 153V144.52H124.54V150.696L129.74 144.52H131.132V153H129.596V146.824L124.412 153H123.004ZM139.537 153V150.024L139.777 150.312H137.073C135.942 150.312 135.057 150.072 134.417 149.592C133.788 149.112 133.473 148.413 133.473 147.496C133.473 146.515 133.809 145.773 134.481 145.272C135.164 144.771 136.07 144.52 137.201 144.52H140.913V153H139.537ZM133.393 153L135.697 149.752H137.281L135.041 153H133.393ZM139.537 149.544V145.432L139.777 145.864H137.249C136.545 145.864 136.001 145.997 135.617 146.264C135.233 146.52 135.041 146.947 135.041 147.544C135.041 148.653 135.756 149.208 137.185 149.208H139.777L139.537 149.544Z" fill="white"/>
<path d="M75.818 96.9967C74.0793 96.9967 72.3406 96.9912 70.6018 97.0001C69.8461 97.0035 69.2097 96.7665 68.679 96.2267C68.0358 95.5718 67.3653 94.9426 66.7187 94.2911C65.7811 93.3445 65.7607 92.0224 66.6585 91.1697C67.5403 90.3315 68.9427 90.2968 69.7666 91.2971C70.7632 92.5052 71.9314 92.8393 73.4565 92.7533C75.5668 92.6348 77.6885 92.7175 79.8057 92.7298C80.1682 92.732 80.4409 92.6505 80.7035 92.38C81.5524 91.5072 82.4263 90.6578 83.3058 89.814C83.532 89.5972 83.6184 89.4665 83.3388 89.2027C82.3581 88.2751 81.3955 87.3285 80.4512 86.3651C80.1818 86.0902 80.0511 86.1763 79.8295 86.3987C78.6488 87.5777 77.4703 88.7579 76.2612 89.9079C75.0123 91.0948 73.0895 90.593 72.6212 88.9691C72.3837 88.1455 72.6394 87.4369 73.2463 86.8401C74.4088 85.6968 75.5612 84.5435 76.7408 83.4158C77.0215 83.1476 77.0396 83.0034 76.751 82.7252C75.2532 81.2812 73.7758 79.815 72.294 78.3554C71.1473 77.2255 71.1473 76.0442 72.294 74.9166C73.4838 73.7465 74.6838 72.5875 75.8634 71.4085C76.0976 71.1749 76.2191 71.1369 76.4783 71.3928C81.6546 76.5013 86.8401 81.6009 92.0347 86.6915C92.2972 86.9496 92.2472 87.0648 92.0154 87.2916C88.9743 90.2678 85.9401 93.2517 82.9115 96.2401C82.3876 96.7565 81.7717 97.0023 81.0364 97.0001C79.2977 96.9956 77.559 96.999 75.8203 96.999L75.818 96.9967Z" fill="white"/>
<path d="M126.043 42.4617C126.68 41.8426 126.935 41.067 127 40.1908C126.885 38.8743 126.303 37.8372 125.008 37.2929C123.723 36.752 122.53 36.9677 121.504 37.8785C120.678 38.6128 119.895 39.3973 119.122 40.1874C118.854 40.4613 118.651 40.506 118.303 40.3283C117.019 39.6734 115.632 39.3157 114.199 39.2286C110.656 39.0129 107.627 40.1562 105.107 42.6361C99.8021 47.8552 94.4768 53.0542 89.1743 58.2745C88.8538 58.5896 88.6982 58.5706 88.3993 58.2655C87.3095 57.1569 86.1901 56.0751 85.0775 54.9865C83.9832 53.9159 82.7626 53.917 81.6626 54.9955C79.6136 57.0027 77.5681 59.0121 75.5248 61.0248C74.4247 62.1089 74.4236 63.3125 75.5157 64.3865C83.3865 72.1292 91.2585 79.8707 99.1316 87.6111C100.231 88.6918 101.446 88.7019 102.548 87.6256C104.611 85.6073 106.668 83.5822 108.725 81.556C109.796 80.5021 109.796 79.303 108.722 78.239C107.604 77.1304 106.49 76.0173 105.348 74.9332C105.007 74.6102 104.953 74.4471 105.331 74.0805C110.626 68.9318 115.903 63.764 121.179 58.5952C124.975 54.8781 125.823 50.1172 123.536 45.363C123.423 45.1261 123.427 44.9953 123.624 44.8087C124.441 44.0353 125.24 43.244 126.045 42.4584L126.043 42.4617ZM106.096 64.6626C105.21 65.0694 104.394 64.8939 103.699 64.2625C103.006 63.6322 102.357 62.956 101.689 62.3C100.927 61.5523 100.16 60.808 99.4066 60.0537C98.4236 59.0702 98.3952 57.7928 99.3237 56.8976C100.225 56.0292 101.532 56.0739 102.492 57.0149C103.884 58.3773 105.268 59.7474 106.66 61.1109C107.121 61.5624 107.399 62.0843 107.383 62.7403C107.345 63.6333 106.919 64.2848 106.096 64.6637V64.6626ZM115.905 54.9999C115.52 55.8448 114.835 56.2494 113.912 56.2952C113.288 56.2975 112.773 56.0583 112.342 55.637C110.912 54.2344 109.479 52.8329 108.057 51.4203C107.158 50.5274 107.135 49.2477 107.98 48.3849C108.855 47.4898 110.166 47.4529 111.106 48.3525C112.58 49.7652 114.036 51.1968 115.471 52.6485C116.13 53.3157 116.306 54.1215 115.905 55.0011V54.9999Z" fill="white"/>
</svg>
