<svg width="260" height="260" viewBox="0 0 260 260" fill="none" xmlns="http://www.w3.org/2000/svg">
<g clip-path="url(#clip0_103_15)">
<path d="M0 50C0 26.4298 0 14.6447 7.32233 7.32233C14.6447 0 26.4298 0 50 0H222.02C222.232 0 222.339 0 222.411 0.00263821C225.426 0.112163 227.239 3.39119 225.729 6.00223C225.693 6.06513 225.636 6.15524 225.523 6.33547C224.509 7.95089 224.002 8.75859 223.784 9.14281C214.265 25.9084 231.642 45.11 249.272 37.3059C249.676 37.127 250.53 36.7029 252.238 35.8545L253.875 35.0416C254.178 34.8911 254.33 34.8158 254.442 34.7684C256.984 33.6933 259.825 35.4547 259.993 38.2095C260 38.3309 260 38.5001 260 38.8385V210C260 233.57 260 245.355 252.678 252.678C245.355 260 233.57 260 210 260H50C26.4298 260 14.6447 260 7.32233 252.678C0 245.355 0 233.57 0 210V50Z" fill="#F3F5F7"/>
<path d="M0 50C0 26.4298 0 14.6447 7.32233 7.32233C14.6447 0 26.4298 0 50 0H222.02C222.232 0 222.339 0 222.411 0.00263821C225.426 0.112163 227.239 3.39119 225.729 6.00223C225.693 6.06513 225.636 6.15524 225.523 6.33547C224.509 7.95089 224.002 8.75859 223.784 9.14281C214.265 25.9084 231.642 45.11 249.272 37.3059C249.676 37.127 250.53 36.7029 252.238 35.8545L253.875 35.0416C254.178 34.8911 254.33 34.8158 254.442 34.7684C256.984 33.6933 259.825 35.4547 259.993 38.2095C260 38.3309 260 38.5001 260 38.8385V210C260 233.57 260 245.355 252.678 252.678C245.355 260 233.57 260 210 260H50C26.4298 260 14.6447 260 7.32233 252.678C0 245.355 0 233.57 0 210V50Z" fill="#F3F5F7"/>
<path d="M-0.49931 105C-7.83383 105 -14.3403 103.296 -20.0186 99.8893C-25.6181 96.4822 -30.0346 91.5301 -33.2681 85.0328C-36.4227 78.5355 -38 70.6912 -38 61.5C-38 52.3087 -36.4227 44.4645 -33.2681 37.9672C-30.0346 31.4699 -25.6181 26.5178 -20.0186 23.1107C-14.3403 19.7036 -7.83383 18 -0.49931 18C6.83521 18 13.3022 19.7036 18.9017 23.1107C24.58 26.5178 28.9965 31.4699 32.1511 37.9672C35.3846 44.4645 37.0014 52.3087 37.0014 61.5C37.0014 70.6912 35.3846 78.5355 32.1511 85.0328C28.9965 91.5301 24.58 96.4822 18.9017 99.8893C13.3022 103.296 6.83521 105 -0.49931 105ZM-0.49931 82.5369C1.31461 82.5369 2.93135 81.903 4.35094 80.6352C5.77052 79.3675 6.87464 77.1885 7.6633 74.0984C8.53082 71.0082 8.96459 66.8087 8.96459 61.5C8.96459 56.112 8.53082 51.9126 7.6633 48.9016C6.87464 45.8115 5.77052 43.6325 4.35094 42.3647C2.93135 41.097 1.31461 40.4631 -0.49931 40.4631C-2.31322 40.4631 -3.92997 41.097 -5.34956 42.3647C-6.76914 43.6325 -7.9127 45.8115 -8.78022 48.9016C-9.56888 51.9126 -9.96321 56.112 -9.96321 61.5C-9.96321 66.8087 -9.56888 71.0082 -8.78022 74.0984C-7.9127 77.1885 -6.76914 79.3675 -5.34956 80.6352C-3.92997 81.903 -2.31322 82.5369 -0.49931 82.5369Z" fill="#00AAFF" fill-opacity="0.1"/>
<path d="M42.6344 103.098V85.8647L72.564 58.0533C74.4568 56.2309 75.8369 54.6462 76.7045 53.2992C77.6508 51.9522 78.2818 50.7637 78.5972 49.7336C78.9127 48.6243 79.0704 47.5943 79.0704 46.6434C79.0704 44.5833 78.4001 42.9986 77.0593 41.8893C75.7186 40.7008 73.7076 40.1066 71.0261 40.1066C68.5813 40.1066 66.2547 40.7801 64.0465 42.127C61.8382 43.3948 60.1032 45.2964 58.8413 47.832L37.7842 37.2541C40.7811 31.5492 45.2764 26.9139 51.2702 23.3484C57.264 19.7828 64.7169 18 73.6287 18C80.1746 18 85.9712 19.0697 91.0186 21.209C96.066 23.3484 100.009 26.3593 102.848 30.2418C105.688 34.1243 107.107 38.7199 107.107 44.0287C107.107 46.7227 106.752 49.4167 106.043 52.1107C105.412 54.8046 104.071 57.6571 102.02 60.668C99.9699 63.5997 96.9335 66.888 92.9114 70.5328L70.4346 91.0943L66.0576 81.3484H109V103.098H42.6344Z" fill="#00AAFF" fill-opacity="0.1"/>
<circle cx="242.5" cy="17.5" r="17.5" fill="#F3F5F7"/>
<path d="M235 18.25H250M250 18.25L243 11M250 18.25L243 25" stroke="#00AAFF" stroke-width="2" stroke-linecap="round" stroke-linejoin="round"/>
<path d="M16.853 136V124.1H21.494C22.5367 124.1 23.4263 124.264 24.163 124.593C24.8997 124.922 25.4663 125.398 25.863 126.021C26.2597 126.644 26.458 127.387 26.458 128.248C26.458 129.109 26.2597 129.852 25.863 130.475C25.4663 131.087 24.8997 131.563 24.163 131.903C23.4263 132.232 22.5367 132.396 21.494 132.396H17.788L18.553 131.597V136H16.853ZM18.553 131.767L17.788 130.917H21.443C22.531 130.917 23.3527 130.685 23.908 130.22C24.4747 129.755 24.758 129.098 24.758 128.248C24.758 127.398 24.4747 126.741 23.908 126.276C23.3527 125.811 22.531 125.579 21.443 125.579H17.788L18.553 124.729V131.767ZM33.9927 136V134.096L33.9077 133.739V130.492C33.9077 129.801 33.7037 129.268 33.2957 128.894C32.8991 128.509 32.2984 128.316 31.4937 128.316C30.9611 128.316 30.4397 128.407 29.9297 128.588C29.4197 128.758 28.9891 128.99 28.6377 129.285L27.9577 128.061C28.4224 127.687 28.9777 127.404 29.6237 127.211C30.2811 127.007 30.9667 126.905 31.6807 126.905C32.9161 126.905 33.8681 127.205 34.5367 127.806C35.2054 128.407 35.5397 129.325 35.5397 130.56V136H33.9927ZM31.0347 136.102C30.3661 136.102 29.7767 135.989 29.2667 135.762C28.7681 135.535 28.3827 135.224 28.1107 134.827C27.8387 134.419 27.7027 133.96 27.7027 133.45C27.7027 132.963 27.8161 132.521 28.0427 132.124C28.2807 131.727 28.6604 131.41 29.1817 131.172C29.7144 130.934 30.4284 130.815 31.3237 130.815H34.1797V131.988H31.3917C30.5757 131.988 30.0261 132.124 29.7427 132.396C29.4594 132.668 29.3177 132.997 29.3177 133.382C29.3177 133.824 29.4934 134.181 29.8447 134.453C30.1961 134.714 30.6834 134.844 31.3067 134.844C31.9187 134.844 32.4514 134.708 32.9047 134.436C33.3694 134.164 33.7037 133.767 33.9077 133.246L34.2307 134.368C34.0154 134.901 33.6357 135.326 33.0917 135.643C32.5477 135.949 31.8621 136.102 31.0347 136.102ZM42.4055 136.102C41.4875 136.102 40.6658 135.904 39.9405 135.507C39.2265 135.11 38.6655 134.566 38.2575 133.875C37.8495 133.184 37.6455 132.39 37.6455 131.495C37.6455 130.6 37.8495 129.806 38.2575 129.115C38.6655 128.424 39.2265 127.885 39.9405 127.5C40.6658 127.103 41.4875 126.905 42.4055 126.905C43.2215 126.905 43.9468 127.069 44.5815 127.398C45.2275 127.715 45.7261 128.191 46.0775 128.826L44.8365 129.625C44.5418 129.183 44.1791 128.86 43.7485 128.656C43.3291 128.441 42.8758 128.333 42.3885 128.333C41.7991 128.333 41.2721 128.463 40.8075 128.724C40.3428 128.985 39.9745 129.353 39.7025 129.829C39.4305 130.294 39.2945 130.849 39.2945 131.495C39.2945 132.141 39.4305 132.702 39.7025 133.178C39.9745 133.654 40.3428 134.022 40.8075 134.283C41.2721 134.544 41.7991 134.674 42.3885 134.674C42.8758 134.674 43.3291 134.572 43.7485 134.368C44.1791 134.153 44.5418 133.824 44.8365 133.382L46.0775 134.164C45.7261 134.787 45.2275 135.269 44.5815 135.609C43.9468 135.938 43.2215 136.102 42.4055 136.102ZM51.9846 136.102C51.0666 136.102 50.2449 135.904 49.5196 135.507C48.8056 135.11 48.2446 134.566 47.8366 133.875C47.4286 133.184 47.2246 132.39 47.2246 131.495C47.2246 130.6 47.4286 129.806 47.8366 129.115C48.2446 128.424 48.8056 127.885 49.5196 127.5C50.2449 127.103 51.0666 126.905 51.9846 126.905C52.8006 126.905 53.5259 127.069 54.1606 127.398C54.8066 127.715 55.3052 128.191 55.6566 128.826L54.4156 129.625C54.1209 129.183 53.7582 128.86 53.3276 128.656C52.9082 128.441 52.4549 128.333 51.9676 128.333C51.3782 128.333 50.8512 128.463 50.3866 128.724C49.9219 128.985 49.5536 129.353 49.2816 129.829C49.0096 130.294 48.8736 130.849 48.8736 131.495C48.8736 132.141 49.0096 132.702 49.2816 133.178C49.5536 133.654 49.9219 134.022 50.3866 134.283C50.8512 134.544 51.3782 134.674 51.9676 134.674C52.4549 134.674 52.9082 134.572 53.3276 134.368C53.7582 134.153 54.1209 133.824 54.4156 133.382L55.6566 134.164C55.3052 134.787 54.8066 135.269 54.1606 135.609C53.5259 135.938 52.8006 136.102 51.9846 136.102ZM57.7695 136V126.99H59.4525L63.3285 133.654H62.6485L66.6265 126.99H68.1565V136H66.6775V128.826L66.9495 128.979L63.3115 134.98H62.5975L58.9425 128.86L59.2655 128.792V136H57.7695ZM76.858 136V134.096L76.773 133.739V130.492C76.773 129.801 76.569 129.268 76.161 128.894C75.7643 128.509 75.1636 128.316 74.359 128.316C73.8263 128.316 73.305 128.407 72.795 128.588C72.285 128.758 71.8543 128.99 71.503 129.285L70.823 128.061C71.2876 127.687 71.843 127.404 72.489 127.211C73.1463 127.007 73.832 126.905 74.546 126.905C75.7813 126.905 76.7333 127.205 77.402 127.806C78.0706 128.407 78.405 129.325 78.405 130.56V136H76.858ZM73.9 136.102C73.2313 136.102 72.642 135.989 72.132 135.762C71.6333 135.535 71.248 135.224 70.976 134.827C70.704 134.419 70.568 133.96 70.568 133.45C70.568 132.963 70.6813 132.521 70.908 132.124C71.146 131.727 71.5256 131.41 72.047 131.172C72.5796 130.934 73.2936 130.815 74.189 130.815H77.045V131.988H74.257C73.441 131.988 72.8913 132.124 72.608 132.396C72.3246 132.668 72.183 132.997 72.183 133.382C72.183 133.824 72.3586 134.181 72.71 134.453C73.0613 134.714 73.5486 134.844 74.172 134.844C74.784 134.844 75.3166 134.708 75.77 134.436C76.2346 134.164 76.569 133.767 76.773 133.246L77.096 134.368C76.8806 134.901 76.501 135.326 75.957 135.643C75.413 135.949 74.7273 136.102 73.9 136.102ZM83.1287 136V127.993L83.5367 128.418H79.8307V126.99H88.0587V128.418H84.3697L84.7607 127.993V136H83.1287ZM94.5045 136.102C93.7565 136.102 93.0708 135.932 92.4475 135.592C91.8355 135.241 91.3425 134.725 90.9685 134.045C90.6058 133.365 90.4245 132.515 90.4245 131.495C90.4245 130.475 90.6002 129.625 90.9515 128.945C91.3142 128.265 91.8015 127.755 92.4135 127.415C93.0368 127.075 93.7338 126.905 94.5045 126.905C95.3885 126.905 96.1705 127.098 96.8505 127.483C97.5305 127.868 98.0688 128.407 98.4655 129.098C98.8622 129.778 99.0605 130.577 99.0605 131.495C99.0605 132.413 98.8622 133.218 98.4655 133.909C98.0688 134.6 97.5305 135.139 96.8505 135.524C96.1705 135.909 95.3885 136.102 94.5045 136.102ZM89.7275 139.298V126.99H91.2915V129.421L91.1895 131.512L91.3595 133.603V139.298H89.7275ZM94.3685 134.674C94.9465 134.674 95.4622 134.544 95.9155 134.283C96.3802 134.022 96.7428 133.654 97.0035 133.178C97.2755 132.691 97.4115 132.13 97.4115 131.495C97.4115 130.849 97.2755 130.294 97.0035 129.829C96.7428 129.353 96.3802 128.985 95.9155 128.724C95.4622 128.463 94.9465 128.333 94.3685 128.333C93.8018 128.333 93.2862 128.463 92.8215 128.724C92.3682 128.985 92.0055 129.353 91.7335 129.829C91.4728 130.294 91.3425 130.849 91.3425 131.495C91.3425 132.13 91.4728 132.691 91.7335 133.178C92.0055 133.654 92.3682 134.022 92.8215 134.283C93.2862 134.544 93.8018 134.674 94.3685 134.674ZM101.432 136V126.99H103.064V133.552L108.589 126.99H110.068V136H108.436V129.438L102.928 136H101.432ZM113.235 136V126.99H117.417C118.471 126.99 119.299 127.194 119.899 127.602C120.511 127.999 120.817 128.565 120.817 129.302C120.817 130.039 120.528 130.611 119.95 131.019C119.384 131.416 118.63 131.614 117.689 131.614L117.944 131.172C119.021 131.172 119.82 131.37 120.341 131.767C120.863 132.164 121.123 132.747 121.123 133.518C121.123 134.3 120.829 134.912 120.239 135.354C119.661 135.785 118.772 136 117.57 136H113.235ZM114.833 134.742H117.451C118.131 134.742 118.641 134.64 118.981 134.436C119.321 134.221 119.491 133.881 119.491 133.416C119.491 132.94 119.333 132.594 119.015 132.379C118.709 132.152 118.222 132.039 117.553 132.039H114.833V134.742ZM114.833 130.866H117.281C117.905 130.866 118.375 130.753 118.692 130.526C119.021 130.288 119.185 129.959 119.185 129.54C119.185 129.109 119.021 128.786 118.692 128.571C118.375 128.356 117.905 128.248 117.281 128.248H114.833V130.866ZM129.203 136V134.096L129.118 133.739V130.492C129.118 129.801 128.914 129.268 128.506 128.894C128.109 128.509 127.508 128.316 126.704 128.316C126.171 128.316 125.65 128.407 125.14 128.588C124.63 128.758 124.199 128.99 123.848 129.285L123.168 128.061C123.632 127.687 124.188 127.404 124.834 127.211C125.491 127.007 126.177 126.905 126.891 126.905C128.126 126.905 129.078 127.205 129.747 127.806C130.415 128.407 130.75 129.325 130.75 130.56V136H129.203ZM126.245 136.102C125.576 136.102 124.987 135.989 124.477 135.762C123.978 135.535 123.593 135.224 123.321 134.827C123.049 134.419 122.913 133.96 122.913 133.45C122.913 132.963 123.026 132.521 123.253 132.124C123.491 131.727 123.87 131.41 124.392 131.172C124.924 130.934 125.638 130.815 126.534 130.815H129.39V131.988H126.602C125.786 131.988 125.236 132.124 124.953 132.396C124.669 132.668 124.528 132.997 124.528 133.382C124.528 133.824 124.703 134.181 125.055 134.453C125.406 134.714 125.893 134.844 126.517 134.844C127.129 134.844 127.661 134.708 128.115 134.436C128.579 134.164 128.914 133.767 129.118 133.246L129.441 134.368C129.225 134.901 128.846 135.326 128.302 135.643C127.758 135.949 127.072 136.102 126.245 136.102ZM137.7 136.102C136.737 136.102 135.887 135.904 135.15 135.507C134.425 135.11 133.858 134.566 133.45 133.875C133.054 133.184 132.855 132.39 132.855 131.495C132.855 130.6 133.048 129.806 133.433 129.115C133.83 128.424 134.368 127.885 135.048 127.5C135.74 127.103 136.516 126.905 137.377 126.905C138.25 126.905 139.021 127.098 139.689 127.483C140.358 127.868 140.879 128.412 141.253 129.115C141.639 129.806 141.831 130.617 141.831 131.546C141.831 131.614 141.826 131.693 141.814 131.784C141.814 131.875 141.809 131.96 141.797 132.039H134.13V130.866H140.947L140.284 131.274C140.296 130.696 140.177 130.18 139.927 129.727C139.678 129.274 139.332 128.922 138.89 128.673C138.46 128.412 137.955 128.282 137.377 128.282C136.811 128.282 136.306 128.412 135.864 128.673C135.422 128.922 135.077 129.279 134.827 129.744C134.578 130.197 134.453 130.719 134.453 131.308V131.58C134.453 132.181 134.589 132.719 134.861 133.195C135.145 133.66 135.536 134.022 136.034 134.283C136.533 134.544 137.105 134.674 137.751 134.674C138.284 134.674 138.766 134.583 139.196 134.402C139.638 134.221 140.024 133.949 140.352 133.586L141.253 134.64C140.845 135.116 140.335 135.479 139.723 135.728C139.123 135.977 138.448 136.102 137.7 136.102ZM144.363 136V126.99H146.046L149.922 133.654H149.242L153.22 126.99H154.75V136H153.271V128.826L153.543 128.979L149.905 134.98H149.191L145.536 128.86L145.859 128.792V136H144.363ZM16.581 157V147.99H24.928V157H23.296V149.01L23.687 149.418H17.822L18.213 149.01V157H16.581ZM31.9449 157.102C31.0382 157.102 30.2335 156.904 29.5309 156.507C28.8282 156.11 28.2729 155.566 27.8649 154.875C27.4569 154.172 27.2529 153.379 27.2529 152.495C27.2529 151.6 27.4569 150.806 27.8649 150.115C28.2729 149.424 28.8282 148.885 29.5309 148.5C30.2335 148.103 31.0382 147.905 31.9449 147.905C32.8402 147.905 33.6392 148.103 34.3419 148.5C35.0559 148.885 35.6112 149.424 36.0079 150.115C36.4159 150.795 36.6199 151.588 36.6199 152.495C36.6199 153.39 36.4159 154.184 36.0079 154.875C35.6112 155.566 35.0559 156.11 34.3419 156.507C33.6392 156.904 32.8402 157.102 31.9449 157.102ZM31.9449 155.674C32.5229 155.674 33.0385 155.544 33.4919 155.283C33.9565 155.022 34.3192 154.654 34.5799 154.178C34.8405 153.691 34.9709 153.13 34.9709 152.495C34.9709 151.849 34.8405 151.294 34.5799 150.829C34.3192 150.353 33.9565 149.985 33.4919 149.724C33.0385 149.463 32.5229 149.333 31.9449 149.333C31.3669 149.333 30.8512 149.463 30.3979 149.724C29.9445 149.985 29.5819 150.353 29.3099 150.829C29.0379 151.294 28.9019 151.849 28.9019 152.495C28.9019 153.13 29.0379 153.691 29.3099 154.178C29.5819 154.654 29.9445 155.022 30.3979 155.283C30.8512 155.544 31.3669 155.674 31.9449 155.674ZM45.0641 156.235V149.418H41.1541L41.0691 151.152C41.0464 151.719 41.0068 152.268 40.9501 152.801C40.9048 153.322 40.8254 153.804 40.7121 154.246C40.6101 154.688 40.4571 155.051 40.2531 155.334C40.0491 155.617 39.7771 155.793 39.4371 155.861L37.8221 155.572C38.1734 155.583 38.4568 155.47 38.6721 155.232C38.8874 154.983 39.0518 154.643 39.1651 154.212C39.2898 153.781 39.3804 153.294 39.4371 152.75C39.4938 152.195 39.5391 151.622 39.5731 151.033L39.7091 147.99H46.6961V156.235H45.0641ZM37.4651 159.091V155.572H48.0731V159.091H46.5431V157H39.0121V159.091H37.4651ZM48.7712 157L52.6472 151.968L52.6302 152.801L48.9412 147.99H50.7602L53.5822 151.696H52.8852L55.7072 147.99H57.4922L53.7522 152.835L53.7692 151.968L57.6792 157H55.8262L52.8512 153.056L53.5142 153.158L50.5902 157H48.7712ZM62.9566 157.102C62.0499 157.102 61.2453 156.904 60.5426 156.507C59.8399 156.11 59.2846 155.566 58.8766 154.875C58.4686 154.172 58.2646 153.379 58.2646 152.495C58.2646 151.6 58.4686 150.806 58.8766 150.115C59.2846 149.424 59.8399 148.885 60.5426 148.5C61.2453 148.103 62.0499 147.905 62.9566 147.905C63.8519 147.905 64.6509 148.103 65.3536 148.5C66.0676 148.885 66.6229 149.424 67.0196 150.115C67.4276 150.795 67.6316 151.588 67.6316 152.495C67.6316 153.39 67.4276 154.184 67.0196 154.875C66.6229 155.566 66.0676 156.11 65.3536 156.507C64.6509 156.904 63.8519 157.102 62.9566 157.102ZM62.9566 155.674C63.5346 155.674 64.0503 155.544 64.5036 155.283C64.9683 155.022 65.3309 154.654 65.5916 154.178C65.8523 153.691 65.9826 153.13 65.9826 152.495C65.9826 151.849 65.8523 151.294 65.5916 150.829C65.3309 150.353 64.9683 149.985 64.5036 149.724C64.0503 149.463 63.5346 149.333 62.9566 149.333C62.3786 149.333 61.8629 149.463 61.4096 149.724C60.9563 149.985 60.5936 150.353 60.3216 150.829C60.0496 151.294 59.9136 151.849 59.9136 152.495C59.9136 153.13 60.0496 153.691 60.3216 154.178C60.5936 154.654 60.9563 155.022 61.4096 155.283C61.8629 155.544 62.3786 155.674 62.9566 155.674ZM76.0758 156.235V149.418H72.1658L72.0808 151.152C72.0582 151.719 72.0185 152.268 71.9618 152.801C71.9165 153.322 71.8372 153.804 71.7238 154.246C71.6218 154.688 71.4688 155.051 71.2648 155.334C71.0608 155.617 70.7888 155.793 70.4488 155.861L68.8338 155.572C69.1852 155.583 69.4685 155.47 69.6838 155.232C69.8992 154.983 70.0635 154.643 70.1768 154.212C70.3015 153.781 70.3922 153.294 70.4488 152.75C70.5055 152.195 70.5508 151.622 70.5848 151.033L70.7208 147.99H77.7078V156.235H76.0758ZM68.4768 159.091V155.572H79.0848V159.091H77.5548V157H70.0238V159.091H68.4768ZM86.9739 157V153.838L87.2289 154.144H84.3559C83.1545 154.144 82.2139 153.889 81.5339 153.379C80.8652 152.869 80.5309 152.127 80.5309 151.152C80.5309 150.109 80.8879 149.322 81.6019 148.789C82.3272 148.256 83.2905 147.99 84.4919 147.99H88.4359V157H86.9739ZM80.4459 157L82.8939 153.549H84.5769L82.1969 157H80.4459ZM86.9739 153.328V148.959L87.2289 149.418H84.5429C83.7949 149.418 83.2169 149.56 82.8089 149.843C82.4009 150.115 82.1969 150.568 82.1969 151.203C82.1969 152.382 82.9562 152.971 84.4749 152.971H87.2289L86.9739 153.328ZM97.6041 155.572L97.2301 155.997V147.99H98.8621V155.997L98.4541 155.572H103.214L102.823 155.997V147.99H104.455V157H91.6201V147.99H93.2521V155.997L92.8611 155.572H97.6041ZM104.251 158.921V156.575L104.642 157H102.738V155.572H105.781V158.921H104.251ZM107.624 157V147.99H109.256V154.552L114.781 147.99H116.26V157H114.628V150.438L109.12 157H107.624ZM123.44 157.102C122.476 157.102 121.626 156.904 120.89 156.507C120.164 156.11 119.598 155.566 119.19 154.875C118.793 154.184 118.595 153.39 118.595 152.495C118.595 151.6 118.787 150.806 119.173 150.115C119.569 149.424 120.108 148.885 120.788 148.5C121.479 148.103 122.255 147.905 123.117 147.905C123.989 147.905 124.76 148.098 125.429 148.483C126.097 148.868 126.619 149.412 126.993 150.115C127.378 150.806 127.571 151.617 127.571 152.546C127.571 152.614 127.565 152.693 127.554 152.784C127.554 152.875 127.548 152.96 127.537 153.039H119.87V151.866H126.687L126.024 152.274C126.035 151.696 125.916 151.18 125.667 150.727C125.417 150.274 125.072 149.922 124.63 149.673C124.199 149.412 123.695 149.282 123.117 149.282C122.55 149.282 122.046 149.412 121.604 149.673C121.162 149.922 120.816 150.279 120.567 150.744C120.317 151.197 120.193 151.719 120.193 152.308V152.58C120.193 153.181 120.329 153.719 120.601 154.195C120.884 154.66 121.275 155.022 121.774 155.283C122.272 155.544 122.845 155.674 123.491 155.674C124.023 155.674 124.505 155.583 124.936 155.402C125.378 155.221 125.763 154.949 126.092 154.586L126.993 155.64C126.585 156.116 126.075 156.479 125.463 156.728C124.862 156.977 124.188 157.102 123.44 157.102ZM134.668 157V147.99H138.85C139.904 147.99 140.731 148.194 141.332 148.602C141.944 148.999 142.25 149.565 142.25 150.302C142.25 151.039 141.961 151.611 141.383 152.019C140.816 152.416 140.063 152.614 139.122 152.614L139.377 152.172C140.454 152.172 141.253 152.37 141.774 152.767C142.295 153.164 142.556 153.747 142.556 154.518C142.556 155.3 142.261 155.912 141.672 156.354C141.094 156.785 140.204 157 139.003 157H134.668ZM136.266 155.742H138.884C139.564 155.742 140.074 155.64 140.414 155.436C140.754 155.221 140.924 154.881 140.924 154.416C140.924 153.94 140.765 153.594 140.448 153.379C140.142 153.152 139.655 153.039 138.986 153.039H136.266V155.742ZM136.266 151.866H138.714C139.337 151.866 139.808 151.753 140.125 151.526C140.454 151.288 140.618 150.959 140.618 150.54C140.618 150.109 140.454 149.786 140.125 149.571C139.808 149.356 139.337 149.248 138.714 149.248H136.266V151.866ZM150.635 157V155.096L150.55 154.739V151.492C150.55 150.801 150.346 150.268 149.938 149.894C149.542 149.509 148.941 149.316 148.136 149.316C147.604 149.316 147.082 149.407 146.572 149.588C146.062 149.758 145.632 149.99 145.28 150.285L144.6 149.061C145.065 148.687 145.62 148.404 146.266 148.211C146.924 148.007 147.609 147.905 148.323 147.905C149.559 147.905 150.511 148.205 151.179 148.806C151.848 149.407 152.182 150.325 152.182 151.56V157H150.635ZM147.677 157.102C147.009 157.102 146.419 156.989 145.909 156.762C145.411 156.535 145.025 156.224 144.753 155.827C144.481 155.419 144.345 154.96 144.345 154.45C144.345 153.963 144.459 153.521 144.685 153.124C144.923 152.727 145.303 152.41 145.824 152.172C146.357 151.934 147.071 151.815 147.966 151.815H150.822V152.988H148.034C147.218 152.988 146.669 153.124 146.385 153.396C146.102 153.668 145.96 153.997 145.96 154.382C145.96 154.824 146.136 155.181 146.487 155.453C146.839 155.714 147.326 155.844 147.949 155.844C148.561 155.844 149.094 155.708 149.547 155.436C150.012 155.164 150.346 154.767 150.55 154.246L150.873 155.368C150.658 155.901 150.278 156.326 149.734 156.643C149.19 156.949 148.505 157.102 147.677 157.102ZM159.898 157.102C159.15 157.102 158.464 156.932 157.841 156.592C157.229 156.241 156.736 155.725 156.362 155.045C155.999 154.365 155.818 153.515 155.818 152.495C155.818 151.475 155.994 150.625 156.345 149.945C156.708 149.265 157.195 148.755 157.807 148.415C158.43 148.075 159.127 147.905 159.898 147.905C160.782 147.905 161.564 148.098 162.244 148.483C162.924 148.868 163.462 149.407 163.859 150.098C164.256 150.778 164.454 151.577 164.454 152.495C164.454 153.413 164.256 154.218 163.859 154.909C163.462 155.6 162.924 156.139 162.244 156.524C161.564 156.909 160.782 157.102 159.898 157.102ZM155.121 160.298V147.99H156.685V150.421L156.583 152.512L156.753 154.603V160.298H155.121ZM159.762 155.674C160.34 155.674 160.856 155.544 161.309 155.283C161.774 155.022 162.136 154.654 162.397 154.178C162.669 153.691 162.805 153.13 162.805 152.495C162.805 151.849 162.669 151.294 162.397 150.829C162.136 150.353 161.774 149.985 161.309 149.724C160.856 149.463 160.34 149.333 159.762 149.333C159.195 149.333 158.68 149.463 158.215 149.724C157.762 149.985 157.399 150.353 157.127 150.829C156.866 151.294 156.736 151.849 156.736 152.495C156.736 153.13 156.866 153.691 157.127 154.178C157.399 154.654 157.762 155.022 158.215 155.283C158.68 155.544 159.195 155.674 159.762 155.674ZM166.825 157V147.99H168.457V154.552L173.982 147.99H175.461V157H173.829V150.438L168.321 157H166.825ZM184.154 157V155.096L184.069 154.739V151.492C184.069 150.801 183.865 150.268 183.457 149.894C183.06 149.509 182.46 149.316 181.655 149.316C181.122 149.316 180.601 149.407 180.091 149.588C179.581 149.758 179.15 149.99 178.799 150.285L178.119 149.061C178.584 148.687 179.139 148.404 179.785 148.211C180.442 148.007 181.128 147.905 181.842 147.905C183.077 147.905 184.029 148.205 184.698 148.806C185.367 149.407 185.701 150.325 185.701 151.56V157H184.154ZM181.196 157.102C180.527 157.102 179.938 156.989 179.428 156.762C178.929 156.535 178.544 156.224 178.272 155.827C178 155.419 177.864 154.96 177.864 154.45C177.864 153.963 177.977 153.521 178.204 153.124C178.442 152.727 178.822 152.41 179.343 152.172C179.876 151.934 180.59 151.815 181.485 151.815H184.341V152.988H181.553C180.737 152.988 180.187 153.124 179.904 153.396C179.621 153.668 179.479 153.997 179.479 154.382C179.479 154.824 179.655 155.181 180.006 155.453C180.357 155.714 180.845 155.844 181.468 155.844C182.08 155.844 182.613 155.708 183.066 155.436C183.531 155.164 183.865 154.767 184.069 154.246L184.392 155.368C184.177 155.901 183.797 156.326 183.253 156.643C182.709 156.949 182.023 157.102 181.196 157.102ZM188.64 157V147.99H190.272V151.815H195.406V147.99H197.038V157H195.406V153.226H190.272V157H188.64ZM201.996 157V148.993L202.404 149.418H198.698V147.99H206.926V149.418H203.237L203.628 148.993V157H201.996ZM217.503 157V147.99H219.135V157H217.503ZM212.658 151.05C213.802 151.061 214.669 151.322 215.259 151.832C215.859 152.342 216.16 153.062 216.16 153.991C216.16 154.966 215.831 155.719 215.174 156.252C214.528 156.773 213.598 157.028 212.386 157.017L208.595 157V147.99H210.227V151.033L212.658 151.05ZM212.267 155.776C212.992 155.787 213.547 155.64 213.933 155.334C214.318 155.028 214.511 154.575 214.511 153.974C214.511 153.385 214.318 152.954 213.933 152.682C213.559 152.41 213.003 152.268 212.267 152.257L210.227 152.223V155.759L212.267 155.776ZM226.873 157V147.99H228.505V154.552L234.03 147.99H235.509V157H233.877V150.438L228.369 157H226.873ZM16.581 178V168.99H24.928V178H23.296V170.01L23.687 170.418H17.822L18.213 170.01V178H16.581ZM32.0979 178.102C31.1345 178.102 30.2845 177.904 29.5479 177.507C28.8225 177.11 28.2559 176.566 27.8479 175.875C27.4512 175.184 27.2529 174.39 27.2529 173.495C27.2529 172.6 27.4455 171.806 27.8309 171.115C28.2275 170.424 28.7659 169.885 29.4459 169.5C30.1372 169.103 30.9135 168.905 31.7749 168.905C32.6475 168.905 33.4182 169.098 34.0869 169.483C34.7555 169.868 35.2769 170.412 35.6509 171.115C36.0362 171.806 36.2289 172.617 36.2289 173.546C36.2289 173.614 36.2232 173.693 36.2119 173.784C36.2119 173.875 36.2062 173.96 36.1949 174.039H28.5279V172.866H35.3449L34.6819 173.274C34.6932 172.696 34.5742 172.18 34.3249 171.727C34.0755 171.274 33.7299 170.922 33.2879 170.673C32.8572 170.412 32.3529 170.282 31.7749 170.282C31.2082 170.282 30.7039 170.412 30.2619 170.673C29.8199 170.922 29.4742 171.279 29.2249 171.744C28.9755 172.197 28.8509 172.719 28.8509 173.308V173.58C28.8509 174.181 28.9869 174.719 29.2589 175.195C29.5422 175.66 29.9332 176.022 30.4319 176.283C30.9305 176.544 31.5029 176.674 32.1489 176.674C32.6815 176.674 33.1632 176.583 33.5939 176.402C34.0359 176.221 34.4212 175.949 34.7499 175.586L35.6509 176.64C35.2429 177.116 34.7329 177.479 34.1209 177.728C33.5202 177.977 32.8459 178.102 32.0979 178.102ZM43.5377 178.102C42.7897 178.102 42.104 177.932 41.4807 177.592C40.8687 177.241 40.3757 176.725 40.0017 176.045C39.639 175.365 39.4577 174.515 39.4577 173.495C39.4577 172.475 39.6334 171.625 39.9847 170.945C40.3474 170.265 40.8347 169.755 41.4467 169.415C42.07 169.075 42.767 168.905 43.5377 168.905C44.4217 168.905 45.2037 169.098 45.8837 169.483C46.5637 169.868 47.102 170.407 47.4987 171.098C47.8954 171.778 48.0937 172.577 48.0937 173.495C48.0937 174.413 47.8954 175.218 47.4987 175.909C47.102 176.6 46.5637 177.139 45.8837 177.524C45.2037 177.909 44.4217 178.102 43.5377 178.102ZM38.7607 181.298V168.99H40.3247V171.421L40.2227 173.512L40.3927 175.603V181.298H38.7607ZM43.4017 176.674C43.9797 176.674 44.4954 176.544 44.9487 176.283C45.4134 176.022 45.776 175.654 46.0367 175.178C46.3087 174.691 46.4447 174.13 46.4447 173.495C46.4447 172.849 46.3087 172.294 46.0367 171.829C45.776 171.353 45.4134 170.985 44.9487 170.724C44.4954 170.463 43.9797 170.333 43.4017 170.333C42.835 170.333 42.3194 170.463 41.8547 170.724C41.4014 170.985 41.0387 171.353 40.7667 171.829C40.506 172.294 40.3757 172.849 40.3757 173.495C40.3757 174.13 40.506 174.691 40.7667 175.178C41.0387 175.654 41.4014 176.022 41.8547 176.283C42.3194 176.544 42.835 176.674 43.4017 176.674ZM50.4648 178V168.99H54.6468C55.7008 168.99 56.5281 169.194 57.1288 169.602C57.7408 169.999 58.0468 170.565 58.0468 171.302C58.0468 172.039 57.7578 172.611 57.1798 173.019C56.6131 173.416 55.8595 173.614 54.9188 173.614L55.1738 173.172C56.2505 173.172 57.0495 173.37 57.5708 173.767C58.0921 174.164 58.3528 174.747 58.3528 175.518C58.3528 176.3 58.0581 176.912 57.4688 177.354C56.8908 177.785 56.0011 178 54.7998 178H50.4648ZM52.0628 176.742H54.6808C55.3608 176.742 55.8708 176.64 56.2108 176.436C56.5508 176.221 56.7208 175.881 56.7208 175.416C56.7208 174.94 56.5621 174.594 56.2448 174.379C55.9388 174.152 55.4515 174.039 54.7828 174.039H52.0628V176.742ZM52.0628 172.866H54.5108C55.1341 172.866 55.6045 172.753 55.9218 172.526C56.2505 172.288 56.4148 171.959 56.4148 171.54C56.4148 171.109 56.2505 170.786 55.9218 170.571C55.6045 170.356 55.1341 170.248 54.5108 170.248H52.0628V172.866ZM64.7662 178.102C63.8595 178.102 63.0548 177.904 62.3522 177.507C61.6495 177.11 61.0942 176.566 60.6862 175.875C60.2782 175.172 60.0742 174.379 60.0742 173.495C60.0742 172.6 60.2782 171.806 60.6862 171.115C61.0942 170.424 61.6495 169.885 62.3522 169.5C63.0548 169.103 63.8595 168.905 64.7662 168.905C65.6615 168.905 66.4605 169.103 67.1632 169.5C67.8772 169.885 68.4325 170.424 68.8292 171.115C69.2372 171.795 69.4412 172.588 69.4412 173.495C69.4412 174.39 69.2372 175.184 68.8292 175.875C68.4325 176.566 67.8772 177.11 67.1632 177.507C66.4605 177.904 65.6615 178.102 64.7662 178.102ZM64.7662 176.674C65.3442 176.674 65.8598 176.544 66.3132 176.283C66.7778 176.022 67.1405 175.654 67.4012 175.178C67.6618 174.691 67.7922 174.13 67.7922 173.495C67.7922 172.849 67.6618 172.294 67.4012 171.829C67.1405 171.353 66.7778 170.985 66.3132 170.724C65.8598 170.463 65.3442 170.333 64.7662 170.333C64.1882 170.333 63.6725 170.463 63.2192 170.724C62.7658 170.985 62.4032 171.353 62.1312 171.829C61.8592 172.294 61.7232 172.849 61.7232 173.495C61.7232 174.13 61.8592 174.691 62.1312 175.178C62.4032 175.654 62.7658 176.022 63.2192 176.283C63.6725 176.544 64.1882 176.674 64.7662 176.674ZM71.7978 178V168.99H73.4298V172.815H78.5638V168.99H80.1958V178H78.5638V174.226H73.4298V178H71.7978ZM88.8941 178V176.096L88.8091 175.739V172.492C88.8091 171.801 88.6051 171.268 88.1971 170.894C87.8004 170.509 87.1998 170.316 86.3951 170.316C85.8624 170.316 85.3411 170.407 84.8311 170.588C84.3211 170.758 83.8904 170.99 83.5391 171.285L82.8591 170.061C83.3238 169.687 83.8791 169.404 84.5251 169.211C85.1824 169.007 85.8681 168.905 86.5821 168.905C87.8174 168.905 88.7694 169.205 89.4381 169.806C90.1068 170.407 90.4411 171.325 90.4411 172.56V178H88.8941ZM85.9361 178.102C85.2674 178.102 84.6781 177.989 84.1681 177.762C83.6694 177.535 83.2841 177.224 83.0121 176.827C82.7401 176.419 82.6041 175.96 82.6041 175.45C82.6041 174.963 82.7174 174.521 82.9441 174.124C83.1821 173.727 83.5618 173.41 84.0831 173.172C84.6158 172.934 85.3298 172.815 86.2251 172.815H89.0811V173.988H86.2931C85.4771 173.988 84.9274 174.124 84.6441 174.396C84.3608 174.668 84.2191 174.997 84.2191 175.382C84.2191 175.824 84.3948 176.181 84.7461 176.453C85.0974 176.714 85.5848 176.844 86.2081 176.844C86.8201 176.844 87.3528 176.708 87.8061 176.436C88.2708 176.164 88.6051 175.767 88.8091 175.246L89.1321 176.368C88.9168 176.901 88.5371 177.326 87.9931 177.643C87.4491 177.949 86.7634 178.102 85.9361 178.102ZM99.0578 174.311C98.5818 174.538 98.0888 174.719 97.5788 174.855C97.0802 174.98 96.5645 175.042 96.0318 175.042C94.9438 175.042 94.0825 174.787 93.4478 174.277C92.8245 173.767 92.5128 172.979 92.5128 171.914V168.99H94.1448V171.812C94.1448 172.458 94.3432 172.934 94.7398 173.24C95.1478 173.546 95.6918 173.699 96.3718 173.699C96.8025 173.699 97.2445 173.642 97.6978 173.529C98.1625 173.416 98.6158 173.257 99.0578 173.053V174.311ZM98.9388 178V168.99H100.571V178H98.9388ZM109.264 178V176.096L109.179 175.739V172.492C109.179 171.801 108.975 171.268 108.567 170.894C108.171 170.509 107.57 170.316 106.765 170.316C106.233 170.316 105.711 170.407 105.201 170.588C104.691 170.758 104.261 170.99 103.909 171.285L103.229 170.061C103.694 169.687 104.249 169.404 104.895 169.211C105.553 169.007 106.238 168.905 106.952 168.905C108.188 168.905 109.14 169.205 109.808 169.806C110.477 170.407 110.811 171.325 110.811 172.56V178H109.264ZM106.306 178.102C105.638 178.102 105.048 177.989 104.538 177.762C104.04 177.535 103.654 177.224 103.382 176.827C103.11 176.419 102.974 175.96 102.974 175.45C102.974 174.963 103.088 174.521 103.314 174.124C103.552 173.727 103.932 173.41 104.453 173.172C104.986 172.934 105.7 172.815 106.595 172.815H109.451V173.988H106.663C105.847 173.988 105.298 174.124 105.014 174.396C104.731 174.668 104.589 174.997 104.589 175.382C104.589 175.824 104.765 176.181 105.116 176.453C105.468 176.714 105.955 176.844 106.578 176.844C107.19 176.844 107.723 176.708 108.176 176.436C108.641 176.164 108.975 175.767 109.179 175.246L109.502 176.368C109.287 176.901 108.907 177.326 108.363 177.643C107.819 177.949 107.134 178.102 106.306 178.102ZM112.254 177.983L112.356 176.606C112.435 176.617 112.509 176.629 112.577 176.64C112.645 176.651 112.707 176.657 112.764 176.657C113.127 176.657 113.41 176.532 113.614 176.283C113.829 176.034 113.988 175.705 114.09 175.297C114.192 174.878 114.266 174.407 114.311 173.886C114.356 173.365 114.39 172.843 114.413 172.322L114.566 168.99H121.485V178H119.853V169.942L120.244 170.418H115.62L115.994 169.925L115.875 172.424C115.841 173.217 115.779 173.96 115.688 174.651C115.597 175.342 115.456 175.949 115.263 176.47C115.082 176.991 114.827 177.399 114.498 177.694C114.181 177.989 113.767 178.136 113.257 178.136C113.11 178.136 112.951 178.119 112.781 178.085C112.622 178.062 112.447 178.028 112.254 177.983ZM128.806 172.05C129.95 172.061 130.823 172.322 131.424 172.832C132.024 173.342 132.325 174.062 132.325 174.991C132.325 175.966 131.996 176.719 131.339 177.252C130.681 177.773 129.752 178.028 128.551 178.017L124.641 178V168.99H126.273V172.033L128.806 172.05ZM128.415 176.776C129.151 176.787 129.707 176.64 130.081 176.334C130.466 176.028 130.659 175.575 130.659 174.974C130.659 174.385 130.472 173.954 130.098 173.682C129.724 173.41 129.163 173.268 128.415 173.257L126.273 173.223V176.759L128.415 176.776ZM134.419 178V168.99H136.051V172.815H141.185V168.99H142.817V178H141.185V174.226H136.051V178H134.419ZM149.849 178.102C148.943 178.102 148.138 177.904 147.435 177.507C146.733 177.11 146.177 176.566 145.769 175.875C145.361 175.172 145.157 174.379 145.157 173.495C145.157 172.6 145.361 171.806 145.769 171.115C146.177 170.424 146.733 169.885 147.435 169.5C148.138 169.103 148.943 168.905 149.849 168.905C150.745 168.905 151.544 169.103 152.246 169.5C152.96 169.885 153.516 170.424 153.912 171.115C154.32 171.795 154.524 172.588 154.524 173.495C154.524 174.39 154.32 175.184 153.912 175.875C153.516 176.566 152.96 177.11 152.246 177.507C151.544 177.904 150.745 178.102 149.849 178.102ZM149.849 176.674C150.427 176.674 150.943 176.544 151.396 176.283C151.861 176.022 152.224 175.654 152.484 175.178C152.745 174.691 152.875 174.13 152.875 173.495C152.875 172.849 152.745 172.294 152.484 171.829C152.224 171.353 151.861 170.985 151.396 170.724C150.943 170.463 150.427 170.333 149.849 170.333C149.271 170.333 148.756 170.463 148.302 170.724C147.849 170.985 147.486 171.353 147.214 171.829C146.942 172.294 146.806 172.849 146.806 173.495C146.806 174.13 146.942 174.691 147.214 175.178C147.486 175.654 147.849 176.022 148.302 176.283C148.756 176.544 149.271 176.674 149.849 176.674ZM16.581 199V189.99H24.928V199H23.296V191.01L23.687 191.418H17.822L18.213 191.01V199H16.581ZM32.8629 199.102C32.1149 199.102 31.4292 198.932 30.8059 198.592C30.1939 198.241 29.7009 197.725 29.3269 197.045C28.9642 196.365 28.7829 195.515 28.7829 194.495C28.7829 193.475 28.9585 192.625 29.3099 191.945C29.6725 191.265 30.1599 190.755 30.7719 190.415C31.3952 190.075 32.0922 189.905 32.8629 189.905C33.7469 189.905 34.5289 190.098 35.2089 190.483C35.8889 190.868 36.4272 191.407 36.8239 192.098C37.2206 192.778 37.4189 193.577 37.4189 194.495C37.4189 195.413 37.2206 196.218 36.8239 196.909C36.4272 197.6 35.8889 198.139 35.2089 198.524C34.5289 198.909 33.7469 199.102 32.8629 199.102ZM28.0859 202.298V189.99H29.6499V192.421L29.5479 194.512L29.7179 196.603V202.298H28.0859ZM32.7269 197.674C33.3049 197.674 33.8205 197.544 34.2739 197.283C34.7385 197.022 35.1012 196.654 35.3619 196.178C35.6339 195.691 35.7699 195.13 35.7699 194.495C35.7699 193.849 35.6339 193.294 35.3619 192.829C35.1012 192.353 34.7385 191.985 34.2739 191.724C33.8205 191.463 33.3049 191.333 32.7269 191.333C32.1602 191.333 31.6445 191.463 31.1799 191.724C30.7265 191.985 30.3639 192.353 30.0919 192.829C29.8312 193.294 29.7009 193.849 29.7009 194.495C29.7009 195.13 29.8312 195.691 30.0919 196.178C30.3639 196.654 30.7265 197.022 31.1799 197.283C31.6445 197.544 32.1602 197.674 32.7269 197.674ZM43.649 199.102C42.7423 199.102 41.9377 198.904 41.235 198.507C40.5323 198.11 39.977 197.566 39.569 196.875C39.161 196.172 38.957 195.379 38.957 194.495C38.957 193.6 39.161 192.806 39.569 192.115C39.977 191.424 40.5323 190.885 41.235 190.5C41.9377 190.103 42.7423 189.905 43.649 189.905C44.5443 189.905 45.3433 190.103 46.046 190.5C46.76 190.885 47.3153 191.424 47.712 192.115C48.12 192.795 48.324 193.588 48.324 194.495C48.324 195.39 48.12 196.184 47.712 196.875C47.3153 197.566 46.76 198.11 46.046 198.507C45.3433 198.904 44.5443 199.102 43.649 199.102ZM43.649 197.674C44.227 197.674 44.7427 197.544 45.196 197.283C45.6607 197.022 46.0233 196.654 46.284 196.178C46.5447 195.691 46.675 195.13 46.675 194.495C46.675 193.849 46.5447 193.294 46.284 192.829C46.0233 192.353 45.6607 191.985 45.196 191.724C44.7427 191.463 44.227 191.333 43.649 191.333C43.071 191.333 42.5553 191.463 42.102 191.724C41.6487 191.985 41.286 192.353 41.014 192.829C40.742 193.294 40.606 193.849 40.606 194.495C40.606 195.13 40.742 195.691 41.014 196.178C41.286 196.654 41.6487 197.022 42.102 197.283C42.5553 197.544 43.071 197.674 43.649 197.674ZM50.6806 199V189.99H54.8626C55.9166 189.99 56.7439 190.194 57.3446 190.602C57.9566 190.999 58.2626 191.565 58.2626 192.302C58.2626 193.039 57.9736 193.611 57.3956 194.019C56.8289 194.416 56.0753 194.614 55.1346 194.614L55.3896 194.172C56.4663 194.172 57.2653 194.37 57.7866 194.767C58.3079 195.164 58.5686 195.747 58.5686 196.518C58.5686 197.3 58.2739 197.912 57.6846 198.354C57.1066 198.785 56.2169 199 55.0156 199H50.6806ZM52.2786 197.742H54.8966C55.5766 197.742 56.0866 197.64 56.4266 197.436C56.7666 197.221 56.9366 196.881 56.9366 196.416C56.9366 195.94 56.7779 195.594 56.4606 195.379C56.1546 195.152 55.6673 195.039 54.9986 195.039H52.2786V197.742ZM52.2786 193.866H54.7266C55.3499 193.866 55.8203 193.753 56.1376 193.526C56.4663 193.288 56.6306 192.959 56.6306 192.54C56.6306 192.109 56.4663 191.786 56.1376 191.571C55.8203 191.356 55.3499 191.248 54.7266 191.248H52.2786V193.866ZM65.135 199.102C64.1717 199.102 63.3217 198.904 62.585 198.507C61.8597 198.11 61.293 197.566 60.885 196.875C60.4883 196.184 60.29 195.39 60.29 194.495C60.29 193.6 60.4827 192.806 60.868 192.115C61.2647 191.424 61.803 190.885 62.483 190.5C63.1743 190.103 63.9507 189.905 64.812 189.905C65.6847 189.905 66.4553 190.098 67.124 190.483C67.7927 190.868 68.314 191.412 68.688 192.115C69.0733 192.806 69.266 193.617 69.266 194.546C69.266 194.614 69.2603 194.693 69.249 194.784C69.249 194.875 69.2433 194.96 69.232 195.039H61.565V193.866H68.382L67.719 194.274C67.7303 193.696 67.6113 193.18 67.362 192.727C67.1127 192.274 66.767 191.922 66.325 191.673C65.8943 191.412 65.39 191.282 64.812 191.282C64.2453 191.282 63.741 191.412 63.299 191.673C62.857 191.922 62.5113 192.279 62.262 192.744C62.0127 193.197 61.888 193.719 61.888 194.308V194.58C61.888 195.181 62.024 195.719 62.296 196.195C62.5793 196.66 62.9703 197.022 63.469 197.283C63.9677 197.544 64.54 197.674 65.186 197.674C65.7187 197.674 66.2003 197.583 66.631 197.402C67.073 197.221 67.4583 196.949 67.787 196.586L68.688 197.64C68.28 198.116 67.77 198.479 67.158 198.728C66.5573 198.977 65.883 199.102 65.135 199.102ZM76.5748 199.102C75.8268 199.102 75.1411 198.932 74.5178 198.592C73.9058 198.241 73.4128 197.725 73.0388 197.045C72.6761 196.365 72.4948 195.515 72.4948 194.495C72.4948 193.475 72.6705 192.625 73.0218 191.945C73.3845 191.265 73.8718 190.755 74.4838 190.415C75.1071 190.075 75.8041 189.905 76.5748 189.905C77.4588 189.905 78.2408 190.098 78.9208 190.483C79.6008 190.868 80.1391 191.407 80.5358 192.098C80.9325 192.778 81.1308 193.577 81.1308 194.495C81.1308 195.413 80.9325 196.218 80.5358 196.909C80.1391 197.6 79.6008 198.139 78.9208 198.524C78.2408 198.909 77.4588 199.102 76.5748 199.102ZM71.7978 202.298V189.99H73.3618V192.421L73.2598 194.512L73.4298 196.603V202.298H71.7978ZM76.4388 197.674C77.0168 197.674 77.5325 197.544 77.9858 197.283C78.4505 197.022 78.8131 196.654 79.0738 196.178C79.3458 195.691 79.4818 195.13 79.4818 194.495C79.4818 193.849 79.3458 193.294 79.0738 192.829C78.8131 192.353 78.4505 191.985 77.9858 191.724C77.5325 191.463 77.0168 191.333 76.4388 191.333C75.8721 191.333 75.3565 191.463 74.8918 191.724C74.4385 191.985 74.0758 192.353 73.8038 192.829C73.5431 193.294 73.4128 193.849 73.4128 194.495C73.4128 195.13 73.5431 195.691 73.8038 196.178C74.0758 196.654 74.4385 197.022 74.8918 197.283C75.3565 197.544 75.8721 197.674 76.4388 197.674ZM88.9661 199V195.838L89.2211 196.144H86.3481C85.1467 196.144 84.2061 195.889 83.5261 195.379C82.8574 194.869 82.5231 194.127 82.5231 193.152C82.5231 192.109 82.8801 191.322 83.5941 190.789C84.3194 190.256 85.2827 189.99 86.4841 189.99H90.4281V199H88.9661ZM82.4381 199L84.8861 195.549H86.5691L84.1891 199H82.4381ZM88.9661 195.328V190.959L89.2211 191.418H86.5351C85.7871 191.418 85.2091 191.56 84.8011 191.843C84.3931 192.115 84.1891 192.568 84.1891 193.203C84.1891 194.382 84.9484 194.971 86.4671 194.971H89.2211L88.9661 195.328ZM97.6243 199.102C96.6609 199.102 95.8109 198.904 95.0743 198.507C94.3489 198.11 93.7823 197.566 93.3743 196.875C92.9776 196.184 92.7793 195.39 92.7793 194.495C92.7793 193.6 92.9719 192.806 93.3573 192.115C93.7539 191.424 94.2923 190.885 94.9723 190.5C95.6636 190.103 96.4399 189.905 97.3013 189.905C98.1739 189.905 98.9446 190.098 99.6133 190.483C100.282 190.868 100.803 191.412 101.177 192.115C101.563 192.806 101.755 193.617 101.755 194.546C101.755 194.614 101.75 194.693 101.738 194.784C101.738 194.875 101.733 194.96 101.721 195.039H94.0543V193.866H100.871L100.208 194.274C100.22 193.696 100.101 193.18 99.8513 192.727C99.6019 192.274 99.2563 191.922 98.8143 191.673C98.3836 191.412 97.8793 191.282 97.3013 191.282C96.7346 191.282 96.2303 191.412 95.7883 191.673C95.3463 191.922 95.0006 192.279 94.7513 192.744C94.5019 193.197 94.3773 193.719 94.3773 194.308V194.58C94.3773 195.181 94.5133 195.719 94.7853 196.195C95.0686 196.66 95.4596 197.022 95.9583 197.283C96.4569 197.544 97.0293 197.674 97.6753 197.674C98.2079 197.674 98.6896 197.583 99.1203 197.402C99.5623 197.221 99.9476 196.949 100.276 196.586L101.177 197.64C100.769 198.116 100.259 198.479 99.6473 198.728C99.0466 198.977 98.3723 199.102 97.6243 199.102ZM104.287 199V189.99H105.97L109.846 196.654H109.166L113.144 189.99H114.674V199H113.195V191.826L113.467 191.979L109.829 197.98H109.115L105.46 191.86L105.783 191.792V199H104.287ZM16.853 220V208.1H18.536V213.2H21.613V214.73H18.536V220H16.853ZM26.713 220.136C25.8517 220.136 25.0527 219.989 24.316 219.694C23.5793 219.388 22.939 218.963 22.395 218.419C21.851 217.864 21.426 217.218 21.12 216.481C20.8253 215.744 20.678 214.934 20.678 214.05C20.678 213.166 20.8253 212.356 21.12 211.619C21.426 210.882 21.851 210.242 22.395 209.698C22.939 209.143 23.5793 208.718 24.316 208.423C25.0527 208.117 25.8517 207.964 26.713 207.964C27.5743 207.964 28.3733 208.117 29.11 208.423C29.858 208.718 30.504 209.143 31.048 209.698C31.592 210.242 32.0113 210.882 32.306 211.619C32.612 212.356 32.765 213.166 32.765 214.05C32.765 214.934 32.612 215.744 32.306 216.481C32.0113 217.218 31.592 217.864 31.048 218.419C30.504 218.963 29.858 219.388 29.11 219.694C28.3733 219.989 27.5743 220.136 26.713 220.136ZM26.713 218.606C27.3363 218.606 27.9087 218.498 28.43 218.283C28.9627 218.056 29.4217 217.739 29.807 217.331C30.2037 216.923 30.5097 216.441 30.725 215.886C30.9517 215.331 31.065 214.719 31.065 214.05C31.065 213.381 30.9517 212.769 30.725 212.214C30.5097 211.659 30.2037 211.177 29.807 210.769C29.4217 210.361 28.9627 210.049 28.43 209.834C27.9087 209.607 27.342 209.494 26.73 209.494C26.118 209.494 25.5457 209.607 25.013 209.834C24.4917 210.049 24.0327 210.361 23.636 210.769C23.2507 211.177 22.9447 211.659 22.718 212.214C22.5027 212.769 22.395 213.381 22.395 214.05C22.395 214.719 22.5027 215.331 22.718 215.886C22.9447 216.441 23.2507 216.923 23.636 217.331C24.0327 217.739 24.4917 218.056 25.013 218.283C25.5457 218.498 26.1123 218.606 26.713 218.606ZM40.0348 220.102C39.2868 220.102 38.6011 219.932 37.9778 219.592C37.3658 219.241 36.8728 218.725 36.4988 218.045C36.1361 217.365 35.9548 216.515 35.9548 215.495C35.9548 214.475 36.1304 213.625 36.4818 212.945C36.8444 212.265 37.3318 211.755 37.9438 211.415C38.5671 211.075 39.2641 210.905 40.0348 210.905C40.9188 210.905 41.7008 211.098 42.3808 211.483C43.0608 211.868 43.5991 212.407 43.9958 213.098C44.3924 213.778 44.5908 214.577 44.5908 215.495C44.5908 216.413 44.3924 217.218 43.9958 217.909C43.5991 218.6 43.0608 219.139 42.3808 219.524C41.7008 219.909 40.9188 220.102 40.0348 220.102ZM35.2578 223.298V210.99H36.8218V213.421L36.7198 215.512L36.8898 217.603V223.298H35.2578ZM39.8988 218.674C40.4768 218.674 40.9924 218.544 41.4458 218.283C41.9104 218.022 42.2731 217.654 42.5338 217.178C42.8058 216.691 42.9418 216.13 42.9418 215.495C42.9418 214.849 42.8058 214.294 42.5338 213.829C42.2731 213.353 41.9104 212.985 41.4458 212.724C40.9924 212.463 40.4768 212.333 39.8988 212.333C39.3321 212.333 38.8164 212.463 38.3518 212.724C37.8984 212.985 37.5358 213.353 37.2638 213.829C37.0031 214.294 36.8728 214.849 36.8728 215.495C36.8728 216.13 37.0031 216.691 37.2638 217.178C37.5358 217.654 37.8984 218.022 38.3518 218.283C38.8164 218.544 39.3321 218.674 39.8988 218.674ZM46.9619 220V210.99H48.5939V217.552L54.1189 210.99H55.5979V220H53.9659V213.438L48.4579 220H46.9619ZM64.9196 219.235V212.418H61.0096L60.9246 214.152C60.9019 214.719 60.8622 215.268 60.8056 215.801C60.7602 216.322 60.6809 216.804 60.5676 217.246C60.4656 217.688 60.3126 218.051 60.1086 218.334C59.9046 218.617 59.6326 218.793 59.2926 218.861L57.6776 218.572C58.0289 218.583 58.3122 218.47 58.5276 218.232C58.7429 217.983 58.9072 217.643 59.0206 217.212C59.1452 216.781 59.2359 216.294 59.2926 215.75C59.3492 215.195 59.3946 214.622 59.4286 214.033L59.5646 210.99H66.5516V219.235H64.9196ZM57.3206 222.091V218.572H67.9286V222.091H66.3986V220H58.8676V222.091H57.3206ZM70.0546 220V210.99H71.6866V217.552L77.2116 210.99H78.6906V220H77.0586V213.438L71.5506 220H70.0546ZM87.5363 216.311C87.0603 216.538 86.5673 216.719 86.0573 216.855C85.5587 216.98 85.043 217.042 84.5103 217.042C83.4223 217.042 82.561 216.787 81.9263 216.277C81.303 215.767 80.9913 214.979 80.9913 213.914V210.99H82.6233V213.812C82.6233 214.458 82.8217 214.934 83.2183 215.24C83.6263 215.546 84.1703 215.699 84.8503 215.699C85.281 215.699 85.723 215.642 86.1763 215.529C86.641 215.416 87.0943 215.257 87.5363 215.053V216.311ZM87.4173 220V210.99H89.0493V220H87.4173ZM96.2297 220.102C95.2664 220.102 94.4164 219.904 93.6797 219.507C92.9544 219.11 92.3877 218.566 91.9797 217.875C91.5831 217.184 91.3847 216.39 91.3847 215.495C91.3847 214.6 91.5774 213.806 91.9627 213.115C92.3594 212.424 92.8977 211.885 93.5777 211.5C94.2691 211.103 95.0454 210.905 95.9067 210.905C96.7794 210.905 97.5501 211.098 98.2187 211.483C98.8874 211.868 99.4087 212.412 99.7827 213.115C100.168 213.806 100.361 214.617 100.361 215.546C100.361 215.614 100.355 215.693 100.344 215.784C100.344 215.875 100.338 215.96 100.327 216.039H92.6597V214.866H99.4767L98.8137 215.274C98.8251 214.696 98.7061 214.18 98.4567 213.727C98.2074 213.274 97.8617 212.922 97.4197 212.673C96.9891 212.412 96.4847 212.282 95.9067 212.282C95.3401 212.282 94.8357 212.412 94.3937 212.673C93.9517 212.922 93.6061 213.279 93.3567 213.744C93.1074 214.197 92.9827 214.719 92.9827 215.308V215.58C92.9827 216.181 93.1187 216.719 93.3907 217.195C93.6741 217.66 94.0651 218.022 94.5637 218.283C95.0624 218.544 95.6347 218.674 96.2807 218.674C96.8134 218.674 97.2951 218.583 97.7257 218.402C98.1677 218.221 98.5531 217.949 98.8817 217.586L99.7827 218.64C99.3747 219.116 98.8647 219.479 98.2527 219.728C97.6521 219.977 96.9777 220.102 96.2297 220.102ZM106.82 220.102C105.902 220.102 105.08 219.904 104.355 219.507C103.641 219.11 103.08 218.566 102.672 217.875C102.264 217.184 102.06 216.39 102.06 215.495C102.06 214.6 102.264 213.806 102.672 213.115C103.08 212.424 103.641 211.885 104.355 211.5C105.08 211.103 105.902 210.905 106.82 210.905C107.636 210.905 108.361 211.069 108.996 211.398C109.642 211.715 110.14 212.191 110.492 212.826L109.251 213.625C108.956 213.183 108.593 212.86 108.163 212.656C107.743 212.441 107.29 212.333 106.803 212.333C106.213 212.333 105.686 212.463 105.222 212.724C104.757 212.985 104.389 213.353 104.117 213.829C103.845 214.294 103.709 214.849 103.709 215.495C103.709 216.141 103.845 216.702 104.117 217.178C104.389 217.654 104.757 218.022 105.222 218.283C105.686 218.544 106.213 218.674 106.803 218.674C107.29 218.674 107.743 218.572 108.163 218.368C108.593 218.153 108.956 217.824 109.251 217.382L110.492 218.164C110.14 218.787 109.642 219.269 108.996 219.609C108.361 219.938 107.636 220.102 106.82 220.102ZM119.132 220L115.647 215.614L116.99 214.798L121.053 220H119.132ZM112.604 220V210.99H114.236V220H112.604ZM113.743 216.192V214.798H116.718V216.192H113.743ZM117.126 215.682L115.613 215.478L119.064 210.99H120.815L117.126 215.682ZM122.709 223.4C122.278 223.4 121.859 223.326 121.451 223.179C121.043 223.043 120.692 222.839 120.397 222.567L121.094 221.343C121.321 221.558 121.57 221.723 121.842 221.836C122.114 221.949 122.403 222.006 122.709 222.006C123.106 222.006 123.434 221.904 123.695 221.7C123.956 221.496 124.199 221.133 124.426 220.612L124.987 219.371L125.157 219.167L128.693 210.99H130.291L125.922 220.901C125.661 221.536 125.367 222.034 125.038 222.397C124.721 222.76 124.369 223.015 123.984 223.162C123.599 223.321 123.174 223.4 122.709 223.4ZM124.851 220.289L120.737 210.99H122.437L125.939 219.014L124.851 220.289ZM131.962 220V210.99H133.594V214.679H136.314V216.192H133.594V220H131.962ZM139.935 220.102C139.051 220.102 138.263 219.904 137.572 219.507C136.892 219.11 136.354 218.566 135.957 217.875C135.56 217.172 135.362 216.379 135.362 215.495C135.362 214.6 135.56 213.806 135.957 213.115C136.354 212.412 136.892 211.868 137.572 211.483C138.263 211.098 139.051 210.905 139.935 210.905C140.808 210.905 141.59 211.098 142.281 211.483C142.972 211.868 143.516 212.412 143.913 213.115C144.31 213.806 144.508 214.6 144.508 215.495C144.508 216.39 144.31 217.184 143.913 217.875C143.516 218.566 142.972 219.11 142.281 219.507C141.59 219.904 140.808 220.102 139.935 220.102ZM139.935 218.674C140.502 218.674 141.006 218.544 141.448 218.283C141.89 218.011 142.241 217.643 142.502 217.178C142.763 216.702 142.893 216.141 142.893 215.495C142.893 214.849 142.763 214.294 142.502 213.829C142.241 213.353 141.89 212.985 141.448 212.724C141.006 212.463 140.502 212.333 139.935 212.333C139.38 212.333 138.875 212.463 138.422 212.724C137.98 212.985 137.629 213.353 137.368 213.829C137.107 214.294 136.977 214.849 136.977 215.495C136.977 216.141 137.107 216.702 137.368 217.178C137.629 217.643 137.98 218.011 138.422 218.283C138.875 218.544 139.38 218.674 139.935 218.674ZM157.097 216.311C156.621 216.538 156.128 216.719 155.618 216.855C155.119 216.98 154.604 217.042 154.071 217.042C152.983 217.042 152.122 216.787 151.487 216.277C150.864 215.767 150.552 214.979 150.552 213.914V210.99H152.184V213.812C152.184 214.458 152.382 214.934 152.779 215.24C153.187 215.546 153.731 215.699 154.411 215.699C154.842 215.699 155.284 215.642 155.737 215.529C156.202 215.416 156.655 215.257 157.097 215.053V216.311ZM156.978 220V210.99H158.61V220H156.978ZM161.778 220V210.99H163.41V217.552L168.935 210.99H170.414V220H168.782V213.438L163.274 220H161.778ZM177.509 220.102C176.591 220.102 175.769 219.904 175.044 219.507C174.33 219.11 173.769 218.566 173.361 217.875C172.953 217.184 172.749 216.39 172.749 215.495C172.749 214.6 172.953 213.806 173.361 213.115C173.769 212.424 174.33 211.885 175.044 211.5C175.769 211.103 176.591 210.905 177.509 210.905C178.325 210.905 179.05 211.069 179.685 211.398C180.331 211.715 180.83 212.191 181.181 212.826L179.94 213.625C179.645 213.183 179.283 212.86 178.852 212.656C178.433 212.441 177.979 212.333 177.492 212.333C176.903 212.333 176.376 212.463 175.911 212.724C175.446 212.985 175.078 213.353 174.806 213.829C174.534 214.294 174.398 214.849 174.398 215.495C174.398 216.141 174.534 216.702 174.806 217.178C175.078 217.654 175.446 218.022 175.911 218.283C176.376 218.544 176.903 218.674 177.492 218.674C177.979 218.674 178.433 218.572 178.852 218.368C179.283 218.153 179.645 217.824 179.94 217.382L181.181 218.164C180.83 218.787 180.331 219.269 179.685 219.609C179.05 219.938 178.325 220.102 177.509 220.102ZM184.963 220V211.993L185.371 212.418H181.665V210.99H189.893V212.418H186.204L186.595 211.993V220H184.963ZM195.022 220.102C194.115 220.102 193.311 219.904 192.608 219.507C191.905 219.11 191.35 218.566 190.942 217.875C190.534 217.172 190.33 216.379 190.33 215.495C190.33 214.6 190.534 213.806 190.942 213.115C191.35 212.424 191.905 211.885 192.608 211.5C193.311 211.103 194.115 210.905 195.022 210.905C195.917 210.905 196.716 211.103 197.419 211.5C198.133 211.885 198.688 212.424 199.085 213.115C199.493 213.795 199.697 214.588 199.697 215.495C199.697 216.39 199.493 217.184 199.085 217.875C198.688 218.566 198.133 219.11 197.419 219.507C196.716 219.904 195.917 220.102 195.022 220.102ZM195.022 218.674C195.6 218.674 196.116 218.544 196.569 218.283C197.034 218.022 197.396 217.654 197.657 217.178C197.918 216.691 198.048 216.13 198.048 215.495C198.048 214.849 197.918 214.294 197.657 213.829C197.396 213.353 197.034 212.985 196.569 212.724C196.116 212.463 195.6 212.333 195.022 212.333C194.444 212.333 193.928 212.463 193.475 212.724C193.022 212.985 192.659 213.353 192.387 213.829C192.115 214.294 191.979 214.849 191.979 215.495C191.979 216.13 192.115 216.691 192.387 217.178C192.659 217.654 193.022 218.022 193.475 218.283C193.928 218.544 194.444 218.674 195.022 218.674ZM203.507 220V211.993L203.915 212.418H200.209V210.99H208.437V212.418H204.748L205.139 211.993V220H203.507ZM210.564 223.4C210.134 223.4 209.714 223.326 209.306 223.179C208.898 223.043 208.547 222.839 208.252 222.567L208.949 221.343C209.176 221.558 209.425 221.723 209.697 221.836C209.969 221.949 210.258 222.006 210.564 222.006C210.961 222.006 211.29 221.904 211.55 221.7C211.811 221.496 212.055 221.133 212.281 220.612L212.842 219.371L213.012 219.167L216.548 210.99H218.146L213.777 220.901C213.517 221.536 213.222 222.034 212.893 222.397C212.576 222.76 212.225 223.015 211.839 223.162C211.454 223.321 211.029 223.4 210.564 223.4ZM212.706 220.289L208.592 210.99H210.292L213.794 219.014L212.706 220.289ZM16.581 241V231.99H20.763C21.817 231.99 22.6443 232.194 23.245 232.602C23.857 232.999 24.163 233.565 24.163 234.302C24.163 235.039 23.874 235.611 23.296 236.019C22.7293 236.416 21.9757 236.614 21.035 236.614L21.29 236.172C22.3667 236.172 23.1657 236.37 23.687 236.767C24.2083 237.164 24.469 237.747 24.469 238.518C24.469 239.3 24.1743 239.912 23.585 240.354C23.007 240.785 22.1173 241 20.916 241H16.581ZM18.179 239.742H20.797C21.477 239.742 21.987 239.64 22.327 239.436C22.667 239.221 22.837 238.881 22.837 238.416C22.837 237.94 22.6783 237.594 22.361 237.379C22.055 237.152 21.5677 237.039 20.899 237.039H18.179V239.742ZM18.179 235.866H20.627C21.2503 235.866 21.7207 235.753 22.038 235.526C22.3667 235.288 22.531 234.959 22.531 234.54C22.531 234.109 22.3667 233.786 22.038 233.571C21.7207 233.356 21.2503 233.248 20.627 233.248H18.179V235.866ZM30.8824 241.102C29.9757 241.102 29.171 240.904 28.4684 240.507C27.7657 240.11 27.2104 239.566 26.8024 238.875C26.3944 238.172 26.1904 237.379 26.1904 236.495C26.1904 235.6 26.3944 234.806 26.8024 234.115C27.2104 233.424 27.7657 232.885 28.4684 232.5C29.171 232.103 29.9757 231.905 30.8824 231.905C31.7777 231.905 32.5767 232.103 33.2794 232.5C33.9934 232.885 34.5487 233.424 34.9454 234.115C35.3534 234.795 35.5574 235.588 35.5574 236.495C35.5574 237.39 35.3534 238.184 34.9454 238.875C34.5487 239.566 33.9934 240.11 33.2794 240.507C32.5767 240.904 31.7777 241.102 30.8824 241.102ZM30.8824 239.674C31.4604 239.674 31.976 239.544 32.4294 239.283C32.894 239.022 33.2567 238.654 33.5174 238.178C33.778 237.691 33.9084 237.13 33.9084 236.495C33.9084 235.849 33.778 235.294 33.5174 234.829C33.2567 234.353 32.894 233.985 32.4294 233.724C31.976 233.463 31.4604 233.333 30.8824 233.333C30.3044 233.333 29.7887 233.463 29.3354 233.724C28.882 233.985 28.5194 234.353 28.2474 234.829C27.9754 235.294 27.8394 235.849 27.8394 236.495C27.8394 237.13 27.9754 237.691 28.2474 238.178C28.5194 238.654 28.882 239.022 29.3354 239.283C29.7887 239.544 30.3044 239.674 30.8824 239.674ZM40.4494 241.119C41.2427 241.119 41.9454 241.006 42.5574 240.779C43.1807 240.541 43.6737 240.218 44.0364 239.81C44.3991 239.391 44.5804 238.909 44.5804 238.365C44.5804 237.685 44.2914 237.147 43.7134 236.75C43.1354 236.353 42.3421 236.155 41.3334 236.155L41.2654 236.546C41.8547 236.546 42.3761 236.45 42.8294 236.257C43.2827 236.064 43.6454 235.804 43.9174 235.475C44.1894 235.135 44.3254 234.75 44.3254 234.319C44.3254 233.809 44.1441 233.367 43.7814 232.993C43.4301 232.619 42.9484 232.336 42.3364 232.143C41.7244 231.939 41.0274 231.848 40.2454 231.871C39.7241 231.882 39.1971 231.962 38.6644 232.109C38.1431 232.245 37.6104 232.443 37.0664 232.704L37.5084 233.979C37.9957 233.741 38.4717 233.565 38.9364 233.452C39.4124 233.339 39.8771 233.276 40.3304 233.265C40.7951 233.265 41.1974 233.316 41.5374 233.418C41.8887 233.52 42.1607 233.667 42.3534 233.86C42.5461 234.053 42.6424 234.285 42.6424 234.557C42.6424 234.806 42.5574 235.027 42.3874 235.22C42.2287 235.401 42.0021 235.537 41.7074 235.628C41.4127 235.719 41.0671 235.764 40.6704 235.764H39.1404V236.937H40.7724C41.4411 236.937 41.9624 237.05 42.3364 237.277C42.7104 237.504 42.8974 237.827 42.8974 238.246C42.8974 238.541 42.7954 238.801 42.5914 239.028C42.3874 239.243 42.0927 239.413 41.7074 239.538C41.3334 239.663 40.8857 239.725 40.3644 239.725C39.7977 239.725 39.2367 239.651 38.6814 239.504C38.1261 239.345 37.6331 239.13 37.2024 238.858L36.7094 240.099C37.2194 240.428 37.7974 240.683 38.4434 240.864C39.1007 241.034 39.7694 241.119 40.4494 241.119ZM47.0615 241V231.99H48.7445L52.6205 238.654H51.9405L55.9185 231.99H57.4485V241H55.9695V233.826L56.2415 233.979L52.6035 239.98H51.8895L48.2345 233.86L48.5575 233.792V241H47.0615ZM64.4839 241.102C63.5773 241.102 62.7726 240.904 62.0699 240.507C61.3673 240.11 60.8119 239.566 60.4039 238.875C59.9959 238.172 59.7919 237.379 59.7919 236.495C59.7919 235.6 59.9959 234.806 60.4039 234.115C60.8119 233.424 61.3673 232.885 62.0699 232.5C62.7726 232.103 63.5773 231.905 64.4839 231.905C65.3793 231.905 66.1783 232.103 66.8809 232.5C67.5949 232.885 68.1503 233.424 68.5469 234.115C68.9549 234.795 69.1589 235.588 69.1589 236.495C69.1589 237.39 68.9549 238.184 68.5469 238.875C68.1503 239.566 67.5949 240.11 66.8809 240.507C66.1783 240.904 65.3793 241.102 64.4839 241.102ZM64.4839 239.674C65.0619 239.674 65.5776 239.544 66.0309 239.283C66.4956 239.022 66.8583 238.654 67.1189 238.178C67.3796 237.691 67.5099 237.13 67.5099 236.495C67.5099 235.849 67.3796 235.294 67.1189 234.829C66.8583 234.353 66.4956 233.985 66.0309 233.724C65.5776 233.463 65.0619 233.333 64.4839 233.333C63.9059 233.333 63.3903 233.463 62.9369 233.724C62.4836 233.985 62.1209 234.353 61.8489 234.829C61.5769 235.294 61.4409 235.849 61.4409 236.495C61.4409 237.13 61.5769 237.691 61.8489 238.178C62.1209 238.654 62.4836 239.022 62.9369 239.283C63.3903 239.544 63.9059 239.674 64.4839 239.674ZM81.9097 241L79.0367 236.614L80.3797 235.798L83.8477 241H81.9097ZM77.1667 237.192V235.798H80.0907V237.192H77.1667ZM80.5327 236.682L78.9857 236.478L81.8587 231.99H83.6097L80.5327 236.682ZM71.7947 241H69.8567L73.3077 235.798L74.6507 236.614L71.7947 241ZM77.6597 241H76.0277V231.99H77.6597V241ZM76.5207 237.192H73.6137V235.798H76.5207V237.192ZM73.1717 236.682L70.0947 231.99H71.8287L74.7017 236.478L73.1717 236.682ZM85.6435 241V231.99H87.2755V235.815H92.4095V231.99H94.0415V241H92.4095V237.226H87.2755V241H85.6435ZM101.074 241.102C100.167 241.102 99.3625 240.904 98.6598 240.507C97.9571 240.11 97.4018 239.566 96.9938 238.875C96.5858 238.172 96.3818 237.379 96.3818 236.495C96.3818 235.6 96.5858 234.806 96.9938 234.115C97.4018 233.424 97.9571 232.885 98.6598 232.5C99.3625 232.103 100.167 231.905 101.074 231.905C101.969 231.905 102.768 232.103 103.471 232.5C104.185 232.885 104.74 233.424 105.137 234.115C105.545 234.795 105.749 235.588 105.749 236.495C105.749 237.39 105.545 238.184 105.137 238.875C104.74 239.566 104.185 240.11 103.471 240.507C102.768 240.904 101.969 241.102 101.074 241.102ZM101.074 239.674C101.652 239.674 102.167 239.544 102.621 239.283C103.085 239.022 103.448 238.654 103.709 238.178C103.969 237.691 104.1 237.13 104.1 236.495C104.1 235.849 103.969 235.294 103.709 234.829C103.448 234.353 103.085 233.985 102.621 233.724C102.167 233.463 101.652 233.333 101.074 233.333C100.496 233.333 99.9801 233.463 99.5268 233.724C99.0735 233.985 98.7108 234.353 98.4388 234.829C98.1668 235.294 98.0308 235.849 98.0308 236.495C98.0308 237.13 98.1668 237.691 98.4388 238.178C98.7108 238.654 99.0735 239.022 99.5268 239.283C99.9801 239.544 100.496 239.674 101.074 239.674ZM108.105 241V231.99H109.737V238.552L115.262 231.99H116.741V241H115.109V234.438L109.601 241H108.105ZM112.321 230.817C111.494 230.817 110.842 230.619 110.366 230.222C109.902 229.814 109.664 229.23 109.652 228.471H110.757C110.769 228.902 110.91 229.242 111.182 229.491C111.466 229.74 111.84 229.865 112.304 229.865C112.769 229.865 113.143 229.74 113.426 229.491C113.71 229.242 113.857 228.902 113.868 228.471H115.007C114.996 229.23 114.752 229.814 114.276 230.222C113.8 230.619 113.149 230.817 112.321 230.817ZM128.402 241.102C127.484 241.102 126.662 240.904 125.937 240.507C125.223 240.11 124.662 239.566 124.254 238.875C123.846 238.184 123.642 237.39 123.642 236.495C123.642 235.6 123.846 234.806 124.254 234.115C124.662 233.424 125.223 232.885 125.937 232.5C126.662 232.103 127.484 231.905 128.402 231.905C129.218 231.905 129.943 232.069 130.578 232.398C131.224 232.715 131.722 233.191 132.074 233.826L130.833 234.625C130.538 234.183 130.175 233.86 129.745 233.656C129.325 233.441 128.872 233.333 128.385 233.333C127.795 233.333 127.268 233.463 126.804 233.724C126.339 233.985 125.971 234.353 125.699 234.829C125.427 235.294 125.291 235.849 125.291 236.495C125.291 237.141 125.427 237.702 125.699 238.178C125.971 238.654 126.339 239.022 126.804 239.283C127.268 239.544 127.795 239.674 128.385 239.674C128.872 239.674 129.325 239.572 129.745 239.368C130.175 239.153 130.538 238.824 130.833 238.382L132.074 239.164C131.722 239.787 131.224 240.269 130.578 240.609C129.943 240.938 129.218 241.102 128.402 241.102ZM140.075 240.235V233.418H136.165L136.08 235.152C136.057 235.719 136.018 236.268 135.961 236.801C135.916 237.322 135.836 237.804 135.723 238.246C135.621 238.688 135.468 239.051 135.264 239.334C135.06 239.617 134.788 239.793 134.448 239.861L132.833 239.572C133.184 239.583 133.468 239.47 133.683 239.232C133.898 238.983 134.063 238.643 134.176 238.212C134.301 237.781 134.391 237.294 134.448 236.75C134.505 236.195 134.55 235.622 134.584 235.033L134.72 231.99H141.707V240.235H140.075ZM132.476 243.091V239.572H143.084V243.091H141.554V241H134.023V243.091H132.476ZM149.222 241.102C148.259 241.102 147.409 240.904 146.672 240.507C145.947 240.11 145.38 239.566 144.972 238.875C144.575 238.184 144.377 237.39 144.377 236.495C144.377 235.6 144.57 234.806 144.955 234.115C145.352 233.424 145.89 232.885 146.57 232.5C147.261 232.103 148.038 231.905 148.899 231.905C149.772 231.905 150.542 232.098 151.211 232.483C151.88 232.868 152.401 233.412 152.775 234.115C153.16 234.806 153.353 235.617 153.353 236.546C153.353 236.614 153.347 236.693 153.336 236.784C153.336 236.875 153.33 236.96 153.319 237.039H145.652V235.866H152.469L151.806 236.274C151.817 235.696 151.698 235.18 151.449 234.727C151.2 234.274 150.854 233.922 150.412 233.673C149.981 233.412 149.477 233.282 148.899 233.282C148.332 233.282 147.828 233.412 147.386 233.673C146.944 233.922 146.598 234.279 146.349 234.744C146.1 235.197 145.975 235.719 145.975 236.308V236.58C145.975 237.181 146.111 237.719 146.383 238.195C146.666 238.66 147.057 239.022 147.556 239.283C148.055 239.544 148.627 239.674 149.273 239.674C149.806 239.674 150.287 239.583 150.718 239.402C151.16 239.221 151.545 238.949 151.874 238.586L152.775 239.64C152.367 240.116 151.857 240.479 151.245 240.728C150.644 240.977 149.97 241.102 149.222 241.102ZM154.239 240.983L154.341 239.606C154.421 239.617 154.494 239.629 154.562 239.64C154.63 239.651 154.693 239.657 154.749 239.657C155.112 239.657 155.395 239.532 155.599 239.283C155.815 239.034 155.973 238.705 156.075 238.297C156.177 237.878 156.251 237.407 156.296 236.886C156.342 236.365 156.376 235.843 156.398 235.322L156.551 231.99H163.47V241H161.838V232.942L162.229 233.418H157.605L157.979 232.925L157.86 235.424C157.826 236.217 157.764 236.96 157.673 237.651C157.583 238.342 157.441 238.949 157.248 239.47C157.067 239.991 156.812 240.399 156.483 240.694C156.166 240.989 155.752 241.136 155.242 241.136C155.095 241.136 154.936 241.119 154.766 241.085C154.608 241.062 154.432 241.028 154.239 240.983ZM173.154 241L169.669 236.614L171.012 235.798L175.075 241H173.154ZM166.626 241V231.99H168.258V241H166.626ZM167.765 237.192V235.798H170.74V237.192H167.765ZM171.148 236.682L169.635 236.478L173.086 231.99H174.837L171.148 236.682ZM176.786 241V231.99H178.418V238.552L183.943 231.99H185.422V241H183.79V234.438L178.282 241H176.786Z" fill="#434343"/>
</g>
<defs>
<clipPath id="clip0_103_15">
<rect width="260" height="260" rx="25" fill="white"/>
</clipPath>
</defs>
</svg>
