<svg width="300" height="239" viewBox="0 0 300 239" fill="none" xmlns="http://www.w3.org/2000/svg">
<path d="M0 50C0 26.4298 0 14.6447 7.32233 7.32233C14.6447 0 26.4298 0 50 0H258.544C258.796 0 258.922 0 259.016 0.00438307C261.703 0.130288 263.503 2.81976 262.593 5.35171C262.562 5.43986 262.514 5.55661 262.417 5.79013L259.867 11.9672C251.281 32.7641 276.444 51.0542 293.576 36.469V36.469C296.107 34.3144 300 36.1129 300 39.4366V189C300 212.57 300 224.355 292.678 231.678C285.355 239 273.57 239 250 239H50C26.4298 239 14.6447 239 7.32233 231.678C0 224.355 0 212.57 0 189V50Z" fill="#F3F5F7"/>
<circle cx="280.5" cy="19.5" r="19.5" fill="#F3F5F7"/>
<path d="M273 20.25H288M288 20.25L281 13M288 20.25L281 27" stroke="#00AAFF" stroke-width="2" stroke-linecap="round" stroke-linejoin="round"/>
<mask id="mask0_221_13" style="mask-type:alpha" maskUnits="userSpaceOnUse" x="0" y="0" width="300" height="239">
<path d="M0 45.9615C0 24.2951 0 13.4618 8.44884 6.73091C16.8977 0 30.4959 0 57.6923 0H256.177C256.422 0 256.545 0 256.629 0.00242512C260.106 0.103104 262.199 3.11728 260.457 5.51744C260.415 5.57525 260.349 5.65809 260.219 5.82376C259.049 7.3087 258.464 8.05117 258.212 8.40436C247.228 23.8158 267.28 41.4665 287.621 34.2927C288.087 34.1283 289.073 33.7384 291.044 32.9586L292.933 32.2113C293.283 32.0729 293.457 32.0038 293.587 31.9602C296.52 30.9719 299.798 32.591 299.991 35.1233C300 35.2349 300 35.3905 300 35.7016V193.038C300 214.705 300 225.538 291.551 232.269C283.102 239 269.504 239 242.308 239H57.6923C30.4959 239 16.8977 239 8.44884 232.269C0 225.538 0 214.705 0 193.038V45.9615Z" fill="#F3F5F7"/>
</mask>
<g mask="url(#mask0_221_13)">
<path d="M-0.576134 118.154C-9.03904 118.154 -16.5465 116.188 -23.0984 112.257C-29.5593 108.326 -34.6553 102.612 -38.3862 95.1147C-42.0262 87.6179 -43.8462 78.5668 -43.8462 67.9615C-43.8462 57.3562 -42.0262 48.3052 -38.3862 40.8083C-34.6553 33.3115 -29.5593 27.5974 -23.0984 23.6661C-16.5465 19.7349 -9.03904 17.7692 -0.576134 17.7692C7.88677 17.7692 15.3487 19.7349 21.8096 23.6661C28.3615 27.5974 33.4575 33.3115 37.0975 40.8083C40.8284 48.3052 42.6939 57.3562 42.6939 67.9615C42.6939 78.5668 40.8284 87.6179 37.0975 95.1147C33.4575 102.612 28.3615 108.326 21.8096 112.257C15.3487 116.188 7.88677 118.154 -0.576134 118.154ZM-0.576134 92.2349C1.51684 92.2349 3.38232 91.5035 5.0203 90.0407C6.65829 88.5779 7.93227 86.0637 8.84226 82.4981C9.84325 78.9325 10.3437 74.087 10.3437 67.9615C10.3437 61.7446 9.84325 56.8991 8.84226 53.425C7.93227 49.8594 6.65829 47.3452 5.0203 45.8824C3.38232 44.4196 1.51684 43.6882 -0.576134 43.6882C-2.66911 43.6882 -4.53459 44.4196 -6.17258 45.8824C-7.81056 47.3452 -9.13004 49.8594 -10.131 53.425C-11.041 56.8991 -11.496 61.7446 -11.496 67.9615C-11.496 74.087 -11.041 78.9325 -10.131 82.4981C-9.13004 86.0637 -7.81056 88.5779 -6.17258 90.0407C-4.53459 91.5035 -2.66911 92.2349 -0.576134 92.2349Z" fill="#00AAFF" fill-opacity="0.1"/>
<path d="M49.1936 115.96V96.0747L83.7277 63.9845C85.9117 61.8818 87.5041 60.0533 88.5051 58.499C89.5971 56.9448 90.3251 55.5734 90.6891 54.3849C91.0531 53.105 91.2351 51.9164 91.2351 50.8193C91.2351 48.4423 90.4616 46.6138 88.9146 45.3338C87.3676 43.9625 85.0472 43.2768 81.9532 43.2768C79.1322 43.2768 76.4478 44.0539 73.8998 45.6081C71.3518 47.0709 69.3498 49.2651 67.8939 52.1907L43.5971 39.9855C47.0551 33.4029 52.242 28.0545 59.158 23.9404C66.0739 19.8263 74.6733 17.7692 84.9562 17.7692C92.5091 17.7692 99.1975 19.0035 105.021 21.4719C110.845 23.9404 115.395 27.4146 118.671 31.8944C121.947 36.3742 123.585 41.6769 123.585 47.8023C123.585 50.9108 123.176 54.0192 122.357 57.1277C121.629 60.2361 120.082 63.5274 117.716 67.0016C115.35 70.3843 111.846 74.1784 107.205 78.384L81.2707 102.109L76.2203 90.8635H125.769V115.96H49.1936Z" fill="#00AAFF" fill-opacity="0.1"/>
</g>
<path d="M16.853 157V145.1H21.494C22.5367 145.1 23.4263 145.264 24.163 145.593C24.8997 145.922 25.4663 146.398 25.863 147.021C26.2597 147.644 26.458 148.387 26.458 149.248C26.458 150.109 26.2597 150.852 25.863 151.475C25.4663 152.087 24.8997 152.563 24.163 152.903C23.4263 153.232 22.5367 153.396 21.494 153.396H17.788L18.553 152.597V157H16.853ZM18.553 152.767L17.788 151.917H21.443C22.531 151.917 23.3527 151.685 23.908 151.22C24.4747 150.755 24.758 150.098 24.758 149.248C24.758 148.398 24.4747 147.741 23.908 147.276C23.3527 146.811 22.531 146.579 21.443 146.579H17.788L18.553 145.729V152.767ZM33.9927 157V155.096L33.9077 154.739V151.492C33.9077 150.801 33.7037 150.268 33.2957 149.894C32.8991 149.509 32.2984 149.316 31.4937 149.316C30.9611 149.316 30.4397 149.407 29.9297 149.588C29.4197 149.758 28.9891 149.99 28.6377 150.285L27.9577 149.061C28.4224 148.687 28.9777 148.404 29.6237 148.211C30.2811 148.007 30.9667 147.905 31.6807 147.905C32.9161 147.905 33.8681 148.205 34.5367 148.806C35.2054 149.407 35.5397 150.325 35.5397 151.56V157H33.9927ZM31.0347 157.102C30.3661 157.102 29.7767 156.989 29.2667 156.762C28.7681 156.535 28.3827 156.224 28.1107 155.827C27.8387 155.419 27.7027 154.96 27.7027 154.45C27.7027 153.963 27.8161 153.521 28.0427 153.124C28.2807 152.727 28.6604 152.41 29.1817 152.172C29.7144 151.934 30.4284 151.815 31.3237 151.815H34.1797V152.988H31.3917C30.5757 152.988 30.0261 153.124 29.7427 153.396C29.4594 153.668 29.3177 153.997 29.3177 154.382C29.3177 154.824 29.4934 155.181 29.8447 155.453C30.1961 155.714 30.6834 155.844 31.3067 155.844C31.9187 155.844 32.4514 155.708 32.9047 155.436C33.3694 155.164 33.7037 154.767 33.9077 154.246L34.2307 155.368C34.0154 155.901 33.6357 156.326 33.0917 156.643C32.5477 156.949 31.8621 157.102 31.0347 157.102ZM42.4055 157.102C41.4875 157.102 40.6658 156.904 39.9405 156.507C39.2265 156.11 38.6655 155.566 38.2575 154.875C37.8495 154.184 37.6455 153.39 37.6455 152.495C37.6455 151.6 37.8495 150.806 38.2575 150.115C38.6655 149.424 39.2265 148.885 39.9405 148.5C40.6658 148.103 41.4875 147.905 42.4055 147.905C43.2215 147.905 43.9468 148.069 44.5815 148.398C45.2275 148.715 45.7261 149.191 46.0775 149.826L44.8365 150.625C44.5418 150.183 44.1791 149.86 43.7485 149.656C43.3291 149.441 42.8758 149.333 42.3885 149.333C41.7991 149.333 41.2721 149.463 40.8075 149.724C40.3428 149.985 39.9745 150.353 39.7025 150.829C39.4305 151.294 39.2945 151.849 39.2945 152.495C39.2945 153.141 39.4305 153.702 39.7025 154.178C39.9745 154.654 40.3428 155.022 40.8075 155.283C41.2721 155.544 41.7991 155.674 42.3885 155.674C42.8758 155.674 43.3291 155.572 43.7485 155.368C44.1791 155.153 44.5418 154.824 44.8365 154.382L46.0775 155.164C45.7261 155.787 45.2275 156.269 44.5815 156.609C43.9468 156.938 43.2215 157.102 42.4055 157.102ZM51.9846 157.102C51.0666 157.102 50.2449 156.904 49.5196 156.507C48.8056 156.11 48.2446 155.566 47.8366 154.875C47.4286 154.184 47.2246 153.39 47.2246 152.495C47.2246 151.6 47.4286 150.806 47.8366 150.115C48.2446 149.424 48.8056 148.885 49.5196 148.5C50.2449 148.103 51.0666 147.905 51.9846 147.905C52.8006 147.905 53.5259 148.069 54.1606 148.398C54.8066 148.715 55.3052 149.191 55.6566 149.826L54.4156 150.625C54.1209 150.183 53.7582 149.86 53.3276 149.656C52.9082 149.441 52.4549 149.333 51.9676 149.333C51.3782 149.333 50.8512 149.463 50.3866 149.724C49.9219 149.985 49.5536 150.353 49.2816 150.829C49.0096 151.294 48.8736 151.849 48.8736 152.495C48.8736 153.141 49.0096 153.702 49.2816 154.178C49.5536 154.654 49.9219 155.022 50.3866 155.283C50.8512 155.544 51.3782 155.674 51.9676 155.674C52.4549 155.674 52.9082 155.572 53.3276 155.368C53.7582 155.153 54.1209 154.824 54.4156 154.382L55.6566 155.164C55.3052 155.787 54.8066 156.269 54.1606 156.609C53.5259 156.938 52.8006 157.102 51.9846 157.102ZM57.7695 157V147.99H59.4525L63.3285 154.654H62.6485L66.6265 147.99H68.1565V157H66.6775V149.826L66.9495 149.979L63.3115 155.98H62.5975L58.9425 149.86L59.2655 149.792V157H57.7695ZM76.858 157V155.096L76.773 154.739V151.492C76.773 150.801 76.569 150.268 76.161 149.894C75.7643 149.509 75.1636 149.316 74.359 149.316C73.8263 149.316 73.305 149.407 72.795 149.588C72.285 149.758 71.8543 149.99 71.503 150.285L70.823 149.061C71.2876 148.687 71.843 148.404 72.489 148.211C73.1463 148.007 73.832 147.905 74.546 147.905C75.7813 147.905 76.7333 148.205 77.402 148.806C78.0706 149.407 78.405 150.325 78.405 151.56V157H76.858ZM73.9 157.102C73.2313 157.102 72.642 156.989 72.132 156.762C71.6333 156.535 71.248 156.224 70.976 155.827C70.704 155.419 70.568 154.96 70.568 154.45C70.568 153.963 70.6813 153.521 70.908 153.124C71.146 152.727 71.5256 152.41 72.047 152.172C72.5796 151.934 73.2936 151.815 74.189 151.815H77.045V152.988H74.257C73.441 152.988 72.8913 153.124 72.608 153.396C72.3246 153.668 72.183 153.997 72.183 154.382C72.183 154.824 72.3586 155.181 72.71 155.453C73.0613 155.714 73.5486 155.844 74.172 155.844C74.784 155.844 75.3166 155.708 75.77 155.436C76.2346 155.164 76.569 154.767 76.773 154.246L77.096 155.368C76.8806 155.901 76.501 156.326 75.957 156.643C75.413 156.949 74.7273 157.102 73.9 157.102ZM83.1287 157V148.993L83.5367 149.418H79.8307V147.99H88.0587V149.418H84.3697L84.7607 148.993V157H83.1287ZM94.5045 157.102C93.7565 157.102 93.0708 156.932 92.4475 156.592C91.8355 156.241 91.3425 155.725 90.9685 155.045C90.6058 154.365 90.4245 153.515 90.4245 152.495C90.4245 151.475 90.6002 150.625 90.9515 149.945C91.3142 149.265 91.8015 148.755 92.4135 148.415C93.0368 148.075 93.7338 147.905 94.5045 147.905C95.3885 147.905 96.1705 148.098 96.8505 148.483C97.5305 148.868 98.0688 149.407 98.4655 150.098C98.8622 150.778 99.0605 151.577 99.0605 152.495C99.0605 153.413 98.8622 154.218 98.4655 154.909C98.0688 155.6 97.5305 156.139 96.8505 156.524C96.1705 156.909 95.3885 157.102 94.5045 157.102ZM89.7275 160.298V147.99H91.2915V150.421L91.1895 152.512L91.3595 154.603V160.298H89.7275ZM94.3685 155.674C94.9465 155.674 95.4622 155.544 95.9155 155.283C96.3802 155.022 96.7428 154.654 97.0035 154.178C97.2755 153.691 97.4115 153.13 97.4115 152.495C97.4115 151.849 97.2755 151.294 97.0035 150.829C96.7428 150.353 96.3802 149.985 95.9155 149.724C95.4622 149.463 94.9465 149.333 94.3685 149.333C93.8018 149.333 93.2862 149.463 92.8215 149.724C92.3682 149.985 92.0055 150.353 91.7335 150.829C91.4728 151.294 91.3425 151.849 91.3425 152.495C91.3425 153.13 91.4728 153.691 91.7335 154.178C92.0055 154.654 92.3682 155.022 92.8215 155.283C93.2862 155.544 93.8018 155.674 94.3685 155.674ZM101.432 157V147.99H103.064V154.552L108.589 147.99H110.068V157H108.436V150.438L102.928 157H101.432ZM113.235 157V147.99H117.417C118.471 147.99 119.299 148.194 119.899 148.602C120.511 148.999 120.817 149.565 120.817 150.302C120.817 151.039 120.528 151.611 119.95 152.019C119.384 152.416 118.63 152.614 117.689 152.614L117.944 152.172C119.021 152.172 119.82 152.37 120.341 152.767C120.863 153.164 121.123 153.747 121.123 154.518C121.123 155.3 120.829 155.912 120.239 156.354C119.661 156.785 118.772 157 117.57 157H113.235ZM114.833 155.742H117.451C118.131 155.742 118.641 155.64 118.981 155.436C119.321 155.221 119.491 154.881 119.491 154.416C119.491 153.94 119.333 153.594 119.015 153.379C118.709 153.152 118.222 153.039 117.553 153.039H114.833V155.742ZM114.833 151.866H117.281C117.905 151.866 118.375 151.753 118.692 151.526C119.021 151.288 119.185 150.959 119.185 150.54C119.185 150.109 119.021 149.786 118.692 149.571C118.375 149.356 117.905 149.248 117.281 149.248H114.833V151.866ZM129.203 157V155.096L129.118 154.739V151.492C129.118 150.801 128.914 150.268 128.506 149.894C128.109 149.509 127.508 149.316 126.704 149.316C126.171 149.316 125.65 149.407 125.14 149.588C124.63 149.758 124.199 149.99 123.848 150.285L123.168 149.061C123.632 148.687 124.188 148.404 124.834 148.211C125.491 148.007 126.177 147.905 126.891 147.905C128.126 147.905 129.078 148.205 129.747 148.806C130.415 149.407 130.75 150.325 130.75 151.56V157H129.203ZM126.245 157.102C125.576 157.102 124.987 156.989 124.477 156.762C123.978 156.535 123.593 156.224 123.321 155.827C123.049 155.419 122.913 154.96 122.913 154.45C122.913 153.963 123.026 153.521 123.253 153.124C123.491 152.727 123.87 152.41 124.392 152.172C124.924 151.934 125.638 151.815 126.534 151.815H129.39V152.988H126.602C125.786 152.988 125.236 153.124 124.953 153.396C124.669 153.668 124.528 153.997 124.528 154.382C124.528 154.824 124.703 155.181 125.055 155.453C125.406 155.714 125.893 155.844 126.517 155.844C127.129 155.844 127.661 155.708 128.115 155.436C128.579 155.164 128.914 154.767 129.118 154.246L129.441 155.368C129.225 155.901 128.846 156.326 128.302 156.643C127.758 156.949 127.072 157.102 126.245 157.102ZM137.7 157.102C136.737 157.102 135.887 156.904 135.15 156.507C134.425 156.11 133.858 155.566 133.45 154.875C133.054 154.184 132.855 153.39 132.855 152.495C132.855 151.6 133.048 150.806 133.433 150.115C133.83 149.424 134.368 148.885 135.048 148.5C135.74 148.103 136.516 147.905 137.377 147.905C138.25 147.905 139.021 148.098 139.689 148.483C140.358 148.868 140.879 149.412 141.253 150.115C141.639 150.806 141.831 151.617 141.831 152.546C141.831 152.614 141.826 152.693 141.814 152.784C141.814 152.875 141.809 152.96 141.797 153.039H134.13V151.866H140.947L140.284 152.274C140.296 151.696 140.177 151.18 139.927 150.727C139.678 150.274 139.332 149.922 138.89 149.673C138.46 149.412 137.955 149.282 137.377 149.282C136.811 149.282 136.306 149.412 135.864 149.673C135.422 149.922 135.077 150.279 134.827 150.744C134.578 151.197 134.453 151.719 134.453 152.308V152.58C134.453 153.181 134.589 153.719 134.861 154.195C135.145 154.66 135.536 155.022 136.034 155.283C136.533 155.544 137.105 155.674 137.751 155.674C138.284 155.674 138.766 155.583 139.196 155.402C139.638 155.221 140.024 154.949 140.352 154.586L141.253 155.64C140.845 156.116 140.335 156.479 139.723 156.728C139.123 156.977 138.448 157.102 137.7 157.102ZM144.363 157V147.99H146.046L149.922 154.654H149.242L153.22 147.99H154.75V157H153.271V149.826L153.543 149.979L149.905 155.98H149.191L145.536 149.86L145.859 149.792V157H144.363ZM162.492 157V147.99H170.839V157H169.207V149.01L169.598 149.418H163.733L164.124 149.01V157H162.492ZM177.856 157.102C176.949 157.102 176.145 156.904 175.442 156.507C174.739 156.11 174.184 155.566 173.776 154.875C173.368 154.172 173.164 153.379 173.164 152.495C173.164 151.6 173.368 150.806 173.776 150.115C174.184 149.424 174.739 148.885 175.442 148.5C176.145 148.103 176.949 147.905 177.856 147.905C178.751 147.905 179.55 148.103 180.253 148.5C180.967 148.885 181.522 149.424 181.919 150.115C182.327 150.795 182.531 151.588 182.531 152.495C182.531 153.39 182.327 154.184 181.919 154.875C181.522 155.566 180.967 156.11 180.253 156.507C179.55 156.904 178.751 157.102 177.856 157.102ZM177.856 155.674C178.434 155.674 178.95 155.544 179.403 155.283C179.868 155.022 180.23 154.654 180.491 154.178C180.752 153.691 180.882 153.13 180.882 152.495C180.882 151.849 180.752 151.294 180.491 150.829C180.23 150.353 179.868 149.985 179.403 149.724C178.95 149.463 178.434 149.333 177.856 149.333C177.278 149.333 176.762 149.463 176.309 149.724C175.856 149.985 175.493 150.353 175.221 150.829C174.949 151.294 174.813 151.849 174.813 152.495C174.813 153.13 174.949 153.691 175.221 154.178C175.493 154.654 175.856 155.022 176.309 155.283C176.762 155.544 177.278 155.674 177.856 155.674ZM190.975 156.235V149.418H187.065L186.98 151.152C186.958 151.719 186.918 152.268 186.861 152.801C186.816 153.322 186.737 153.804 186.623 154.246C186.521 154.688 186.368 155.051 186.164 155.334C185.96 155.617 185.688 155.793 185.348 155.861L183.733 155.572C184.085 155.583 184.368 155.47 184.583 155.232C184.799 154.983 184.963 154.643 185.076 154.212C185.201 153.781 185.292 153.294 185.348 152.75C185.405 152.195 185.45 151.622 185.484 151.033L185.62 147.99H192.607V156.235H190.975ZM183.376 159.091V155.572H193.984V159.091H192.454V157H184.923V159.091H183.376ZM194.682 157L198.558 151.968L198.541 152.801L194.852 147.99H196.671L199.493 151.696H198.796L201.618 147.99H203.403L199.663 152.835L199.68 151.968L203.59 157H201.737L198.762 153.056L199.425 153.158L196.501 157H194.682ZM208.868 157.102C207.961 157.102 207.156 156.904 206.454 156.507C205.751 156.11 205.196 155.566 204.788 154.875C204.38 154.172 204.176 153.379 204.176 152.495C204.176 151.6 204.38 150.806 204.788 150.115C205.196 149.424 205.751 148.885 206.454 148.5C207.156 148.103 207.961 147.905 208.868 147.905C209.763 147.905 210.562 148.103 211.265 148.5C211.979 148.885 212.534 149.424 212.931 150.115C213.339 150.795 213.543 151.588 213.543 152.495C213.543 153.39 213.339 154.184 212.931 154.875C212.534 155.566 211.979 156.11 211.265 156.507C210.562 156.904 209.763 157.102 208.868 157.102ZM208.868 155.674C209.446 155.674 209.961 155.544 210.415 155.283C210.879 155.022 211.242 154.654 211.503 154.178C211.763 153.691 211.894 153.13 211.894 152.495C211.894 151.849 211.763 151.294 211.503 150.829C211.242 150.353 210.879 149.985 210.415 149.724C209.961 149.463 209.446 149.333 208.868 149.333C208.29 149.333 207.774 149.463 207.321 149.724C206.867 149.985 206.505 150.353 206.233 150.829C205.961 151.294 205.825 151.849 205.825 152.495C205.825 153.13 205.961 153.691 206.233 154.178C206.505 154.654 206.867 155.022 207.321 155.283C207.774 155.544 208.29 155.674 208.868 155.674ZM221.987 156.235V149.418H218.077L217.992 151.152C217.969 151.719 217.93 152.268 217.873 152.801C217.828 153.322 217.748 153.804 217.635 154.246C217.533 154.688 217.38 155.051 217.176 155.334C216.972 155.617 216.7 155.793 216.36 155.861L214.745 155.572C215.096 155.583 215.38 155.47 215.595 155.232C215.81 154.983 215.975 154.643 216.088 154.212C216.213 153.781 216.303 153.294 216.36 152.75C216.417 152.195 216.462 151.622 216.496 151.033L216.632 147.99H223.619V156.235H221.987ZM214.388 159.091V155.572H224.996V159.091H223.466V157H215.935V159.091H214.388ZM232.885 157V153.838L233.14 154.144H230.267C229.066 154.144 228.125 153.889 227.445 153.379C226.776 152.869 226.442 152.127 226.442 151.152C226.442 150.109 226.799 149.322 227.513 148.789C228.238 148.256 229.202 147.99 230.403 147.99H234.347V157H232.885ZM226.357 157L228.805 153.549H230.488L228.108 157H226.357ZM232.885 153.328V148.959L233.14 149.418H230.454C229.706 149.418 229.128 149.56 228.72 149.843C228.312 150.115 228.108 150.568 228.108 151.203C228.108 152.382 228.867 152.971 230.386 152.971H233.14L232.885 153.328ZM243.515 155.572L243.141 155.997V147.99H244.773V155.997L244.365 155.572H249.125L248.734 155.997V147.99H250.366V157H237.531V147.99H239.163V155.997L238.772 155.572H243.515ZM250.162 158.921V156.575L250.553 157H248.649V155.572H251.692V158.921H250.162ZM253.535 157V147.99H255.167V154.552L260.692 147.99H262.171V157H260.539V150.438L255.031 157H253.535ZM269.351 157.102C268.387 157.102 267.537 156.904 266.801 156.507C266.075 156.11 265.509 155.566 265.101 154.875C264.704 154.184 264.506 153.39 264.506 152.495C264.506 151.6 264.698 150.806 265.084 150.115C265.48 149.424 266.019 148.885 266.699 148.5C267.39 148.103 268.166 147.905 269.028 147.905C269.9 147.905 270.671 148.098 271.34 148.483C272.008 148.868 272.53 149.412 272.904 150.115C273.289 150.806 273.482 151.617 273.482 152.546C273.482 152.614 273.476 152.693 273.465 152.784C273.465 152.875 273.459 152.96 273.448 153.039H265.781V151.866H272.598L271.935 152.274C271.946 151.696 271.827 151.18 271.578 150.727C271.328 150.274 270.983 149.922 270.541 149.673C270.11 149.412 269.606 149.282 269.028 149.282C268.461 149.282 267.957 149.412 267.515 149.673C267.073 149.922 266.727 150.279 266.478 150.744C266.228 151.197 266.104 151.719 266.104 152.308V152.58C266.104 153.181 266.24 153.719 266.512 154.195C266.795 154.66 267.186 155.022 267.685 155.283C268.183 155.544 268.756 155.674 269.402 155.674C269.934 155.674 270.416 155.583 270.847 155.402C271.289 155.221 271.674 154.949 272.003 154.586L272.904 155.64C272.496 156.116 271.986 156.479 271.374 156.728C270.773 156.977 270.099 157.102 269.351 157.102ZM16.581 178V168.99H20.763C21.817 168.99 22.6443 169.194 23.245 169.602C23.857 169.999 24.163 170.565 24.163 171.302C24.163 172.039 23.874 172.611 23.296 173.019C22.7293 173.416 21.9757 173.614 21.035 173.614L21.29 173.172C22.3667 173.172 23.1657 173.37 23.687 173.767C24.2083 174.164 24.469 174.747 24.469 175.518C24.469 176.3 24.1743 176.912 23.585 177.354C23.007 177.785 22.1173 178 20.916 178H16.581ZM18.179 176.742H20.797C21.477 176.742 21.987 176.64 22.327 176.436C22.667 176.221 22.837 175.881 22.837 175.416C22.837 174.94 22.6783 174.594 22.361 174.379C22.055 174.152 21.5677 174.039 20.899 174.039H18.179V176.742ZM18.179 172.866H20.627C21.2503 172.866 21.7207 172.753 22.038 172.526C22.3667 172.288 22.531 171.959 22.531 171.54C22.531 171.109 22.3667 170.786 22.038 170.571C21.7207 170.356 21.2503 170.248 20.627 170.248H18.179V172.866ZM32.5484 178V176.096L32.4634 175.739V172.492C32.4634 171.801 32.2594 171.268 31.8514 170.894C31.4547 170.509 30.854 170.316 30.0494 170.316C29.5167 170.316 28.9954 170.407 28.4854 170.588C27.9754 170.758 27.5447 170.99 27.1934 171.285L26.5134 170.061C26.978 169.687 27.5334 169.404 28.1794 169.211C28.8367 169.007 29.5224 168.905 30.2364 168.905C31.4717 168.905 32.4237 169.205 33.0924 169.806C33.761 170.407 34.0954 171.325 34.0954 172.56V178H32.5484ZM29.5904 178.102C28.9217 178.102 28.3324 177.989 27.8224 177.762C27.3237 177.535 26.9384 177.224 26.6664 176.827C26.3944 176.419 26.2584 175.96 26.2584 175.45C26.2584 174.963 26.3717 174.521 26.5984 174.124C26.8364 173.727 27.216 173.41 27.7374 173.172C28.27 172.934 28.984 172.815 29.8794 172.815H32.7354V173.988H29.9474C29.1314 173.988 28.5817 174.124 28.2984 174.396C28.015 174.668 27.8734 174.997 27.8734 175.382C27.8734 175.824 28.049 176.181 28.4004 176.453C28.7517 176.714 29.239 176.844 29.8624 176.844C30.4744 176.844 31.007 176.708 31.4604 176.436C31.925 176.164 32.2594 175.767 32.4634 175.246L32.7864 176.368C32.571 176.901 32.1914 177.326 31.6474 177.643C31.1034 177.949 30.4177 178.102 29.5904 178.102ZM41.8111 178.102C41.0631 178.102 40.3775 177.932 39.7541 177.592C39.1421 177.241 38.6491 176.725 38.2751 176.045C37.9125 175.365 37.7311 174.515 37.7311 173.495C37.7311 172.475 37.9068 171.625 38.2581 170.945C38.6208 170.265 39.1081 169.755 39.7201 169.415C40.3435 169.075 41.0405 168.905 41.8111 168.905C42.6951 168.905 43.4771 169.098 44.1571 169.483C44.8371 169.868 45.3755 170.407 45.7721 171.098C46.1688 171.778 46.3671 172.577 46.3671 173.495C46.3671 174.413 46.1688 175.218 45.7721 175.909C45.3755 176.6 44.8371 177.139 44.1571 177.524C43.4771 177.909 42.6951 178.102 41.8111 178.102ZM37.0341 181.298V168.99H38.5981V171.421L38.4961 173.512L38.6661 175.603V181.298H37.0341ZM41.6751 176.674C42.2531 176.674 42.7688 176.544 43.2221 176.283C43.6868 176.022 44.0495 175.654 44.3101 175.178C44.5821 174.691 44.7181 174.13 44.7181 173.495C44.7181 172.849 44.5821 172.294 44.3101 171.829C44.0495 171.353 43.6868 170.985 43.2221 170.724C42.7688 170.463 42.2531 170.333 41.6751 170.333C41.1085 170.333 40.5928 170.463 40.1281 170.724C39.6748 170.985 39.3121 171.353 39.0401 171.829C38.7795 172.294 38.6491 172.849 38.6491 173.495C38.6491 174.13 38.7795 174.691 39.0401 175.178C39.3121 175.654 39.6748 176.022 40.1281 176.283C40.5928 176.544 41.1085 176.674 41.6751 176.674ZM48.7382 178V168.99H50.3702V175.552L55.8952 168.99H57.3742V178H55.7422V171.438L50.2342 178H48.7382ZM66.0669 178V176.096L65.9819 175.739V172.492C65.9819 171.801 65.7779 171.268 65.3699 170.894C64.9733 170.509 64.3726 170.316 63.5679 170.316C63.0353 170.316 62.5139 170.407 62.0039 170.588C61.4939 170.758 61.0633 170.99 60.7119 171.285L60.0319 170.061C60.4966 169.687 61.0519 169.404 61.6979 169.211C62.3553 169.007 63.0409 168.905 63.7549 168.905C64.9903 168.905 65.9423 169.205 66.6109 169.806C67.2796 170.407 67.6139 171.325 67.6139 172.56V178H66.0669ZM63.1089 178.102C62.4403 178.102 61.8509 177.989 61.3409 177.762C60.8423 177.535 60.4569 177.224 60.1849 176.827C59.9129 176.419 59.7769 175.96 59.7769 175.45C59.7769 174.963 59.8903 174.521 60.1169 174.124C60.3549 173.727 60.7346 173.41 61.2559 173.172C61.7886 172.934 62.5026 172.815 63.3979 172.815H66.2539V173.988H63.4659C62.6499 173.988 62.1003 174.124 61.8169 174.396C61.5336 174.668 61.3919 174.997 61.3919 175.382C61.3919 175.824 61.5676 176.181 61.9189 176.453C62.2703 176.714 62.7576 176.844 63.3809 176.844C63.9929 176.844 64.5256 176.708 64.9789 176.436C65.4436 176.164 65.7779 175.767 65.9819 175.246L66.3049 176.368C66.0896 176.901 65.7099 177.326 65.1659 177.643C64.6219 177.949 63.9363 178.102 63.1089 178.102ZM70.5527 178V168.99H72.1847V172.815H77.3187V168.99H78.9507V178H77.3187V174.226H72.1847V178H70.5527ZM83.909 178V169.993L84.317 170.418H80.611V168.99H88.839V170.418H85.15L85.541 169.993V178H83.909ZM99.4158 178V168.99H101.048V178H99.4158ZM94.5708 172.05C95.7154 172.061 96.5824 172.322 97.1718 172.832C97.7724 173.342 98.0728 174.062 98.0728 174.991C98.0728 175.966 97.7441 176.719 97.0868 177.252C96.4408 177.773 95.5114 178.028 94.2988 178.017L90.5078 178V168.99H92.1398V172.033L94.5708 172.05ZM94.1798 176.776C94.9051 176.787 95.4604 176.64 95.8458 176.334C96.2311 176.028 96.4238 175.575 96.4238 174.974C96.4238 174.385 96.2311 173.954 95.8458 173.682C95.4718 173.41 94.9164 173.268 94.1798 173.257L92.1398 173.223V176.759L94.1798 176.776ZM108.786 178V168.99H110.418V175.552L115.943 168.99H117.422V178H115.79V171.438L110.282 178H108.786ZM125.155 178V168.99H133.502V178H131.87V170.01L132.261 170.418H126.396L126.787 170.01V178H125.155ZM140.672 178.102C139.709 178.102 138.859 177.904 138.122 177.507C137.397 177.11 136.83 176.566 136.422 175.875C136.025 175.184 135.827 174.39 135.827 173.495C135.827 172.6 136.02 171.806 136.405 171.115C136.802 170.424 137.34 169.885 138.02 169.5C138.711 169.103 139.488 168.905 140.349 168.905C141.222 168.905 141.992 169.098 142.661 169.483C143.33 169.868 143.851 170.412 144.225 171.115C144.61 171.806 144.803 172.617 144.803 173.546C144.803 173.614 144.797 173.693 144.786 173.784C144.786 173.875 144.78 173.96 144.769 174.039H137.102V172.866H143.919L143.256 173.274C143.267 172.696 143.148 172.18 142.899 171.727C142.65 171.274 142.304 170.922 141.862 170.673C141.431 170.412 140.927 170.282 140.349 170.282C139.782 170.282 139.278 170.412 138.836 170.673C138.394 170.922 138.048 171.279 137.799 171.744C137.55 172.197 137.425 172.719 137.425 173.308V173.58C137.425 174.181 137.561 174.719 137.833 175.195C138.116 175.66 138.507 176.022 139.006 176.283C139.505 176.544 140.077 176.674 140.723 176.674C141.256 176.674 141.737 176.583 142.168 176.402C142.61 176.221 142.995 175.949 143.324 175.586L144.225 176.64C143.817 177.116 143.307 177.479 142.695 177.728C142.094 177.977 141.42 178.102 140.672 178.102ZM152.112 178.102C151.364 178.102 150.678 177.932 150.055 177.592C149.443 177.241 148.95 176.725 148.576 176.045C148.213 175.365 148.032 174.515 148.032 173.495C148.032 172.475 148.208 171.625 148.559 170.945C148.922 170.265 149.409 169.755 150.021 169.415C150.644 169.075 151.341 168.905 152.112 168.905C152.996 168.905 153.778 169.098 154.458 169.483C155.138 169.868 155.676 170.407 156.073 171.098C156.47 171.778 156.668 172.577 156.668 173.495C156.668 174.413 156.47 175.218 156.073 175.909C155.676 176.6 155.138 177.139 154.458 177.524C153.778 177.909 152.996 178.102 152.112 178.102ZM147.335 181.298V168.99H148.899V171.421L148.797 173.512L148.967 175.603V181.298H147.335ZM151.976 176.674C152.554 176.674 153.07 176.544 153.523 176.283C153.988 176.022 154.35 175.654 154.611 175.178C154.883 174.691 155.019 174.13 155.019 173.495C155.019 172.849 154.883 172.294 154.611 171.829C154.35 171.353 153.988 170.985 153.523 170.724C153.07 170.463 152.554 170.333 151.976 170.333C151.409 170.333 150.894 170.463 150.429 170.724C149.976 170.985 149.613 171.353 149.341 171.829C149.08 172.294 148.95 172.849 148.95 173.495C148.95 174.13 149.08 174.691 149.341 175.178C149.613 175.654 149.976 176.022 150.429 176.283C150.894 176.544 151.409 176.674 151.976 176.674ZM159.039 178V168.99H163.221C164.275 168.99 165.102 169.194 165.703 169.602C166.315 169.999 166.621 170.565 166.621 171.302C166.621 172.039 166.332 172.611 165.754 173.019C165.187 173.416 164.434 173.614 163.493 173.614L163.748 173.172C164.825 173.172 165.624 173.37 166.145 173.767C166.666 174.164 166.927 174.747 166.927 175.518C166.927 176.3 166.632 176.912 166.043 177.354C165.465 177.785 164.575 178 163.374 178H159.039ZM160.637 176.742H163.255C163.935 176.742 164.445 176.64 164.785 176.436C165.125 176.221 165.295 175.881 165.295 175.416C165.295 174.94 165.136 174.594 164.819 174.379C164.513 174.152 164.026 174.039 163.357 174.039H160.637V176.742ZM160.637 172.866H163.085C163.708 172.866 164.179 172.753 164.496 172.526C164.825 172.288 164.989 171.959 164.989 171.54C164.989 171.109 164.825 170.786 164.496 170.571C164.179 170.356 163.708 170.248 163.085 170.248H160.637V172.866ZM173.34 178.102C172.434 178.102 171.629 177.904 170.926 177.507C170.224 177.11 169.668 176.566 169.26 175.875C168.852 175.172 168.648 174.379 168.648 173.495C168.648 172.6 168.852 171.806 169.26 171.115C169.668 170.424 170.224 169.885 170.926 169.5C171.629 169.103 172.434 168.905 173.34 168.905C174.236 168.905 175.035 169.103 175.737 169.5C176.451 169.885 177.007 170.424 177.403 171.115C177.811 171.795 178.015 172.588 178.015 173.495C178.015 174.39 177.811 175.184 177.403 175.875C177.007 176.566 176.451 177.11 175.737 177.507C175.035 177.904 174.236 178.102 173.34 178.102ZM173.34 176.674C173.918 176.674 174.434 176.544 174.887 176.283C175.352 176.022 175.715 175.654 175.975 175.178C176.236 174.691 176.366 174.13 176.366 173.495C176.366 172.849 176.236 172.294 175.975 171.829C175.715 171.353 175.352 170.985 174.887 170.724C174.434 170.463 173.918 170.333 173.34 170.333C172.762 170.333 172.247 170.463 171.793 170.724C171.34 170.985 170.977 171.353 170.705 171.829C170.433 172.294 170.297 172.849 170.297 173.495C170.297 174.13 170.433 174.691 170.705 175.178C170.977 175.654 171.34 176.022 171.793 176.283C172.247 176.544 172.762 176.674 173.34 176.674ZM180.372 178V168.99H182.004V172.815H187.138V168.99H188.77V178H187.138V174.226H182.004V178H180.372ZM197.468 178V176.096L197.383 175.739V172.492C197.383 171.801 197.179 171.268 196.771 170.894C196.375 170.509 195.774 170.316 194.969 170.316C194.437 170.316 193.915 170.407 193.405 170.588C192.895 170.758 192.465 170.99 192.113 171.285L191.433 170.061C191.898 169.687 192.453 169.404 193.099 169.211C193.757 169.007 194.442 168.905 195.156 168.905C196.392 168.905 197.344 169.205 198.012 169.806C198.681 170.407 199.015 171.325 199.015 172.56V178H197.468ZM194.51 178.102C193.842 178.102 193.252 177.989 192.742 177.762C192.244 177.535 191.858 177.224 191.586 176.827C191.314 176.419 191.178 175.96 191.178 175.45C191.178 174.963 191.292 174.521 191.518 174.124C191.756 173.727 192.136 173.41 192.657 173.172C193.19 172.934 193.904 172.815 194.799 172.815H197.655V173.988H194.867C194.051 173.988 193.502 174.124 193.218 174.396C192.935 174.668 192.793 174.997 192.793 175.382C192.793 175.824 192.969 176.181 193.32 176.453C193.672 176.714 194.159 176.844 194.782 176.844C195.394 176.844 195.927 176.708 196.38 176.436C196.845 176.164 197.179 175.767 197.383 175.246L197.706 176.368C197.491 176.901 197.111 177.326 196.567 177.643C196.023 177.949 195.338 178.102 194.51 178.102ZM207.632 174.311C207.156 174.538 206.663 174.719 206.153 174.855C205.654 174.98 205.139 175.042 204.606 175.042C203.518 175.042 202.657 174.787 202.022 174.277C201.399 173.767 201.087 172.979 201.087 171.914V168.99H202.719V171.812C202.719 172.458 202.917 172.934 203.314 173.24C203.722 173.546 204.266 173.699 204.946 173.699C205.377 173.699 205.819 173.642 206.272 173.529C206.737 173.416 207.19 173.257 207.632 173.053V174.311ZM207.513 178V168.99H209.145V178H207.513ZM217.838 178V176.096L217.753 175.739V172.492C217.753 171.801 217.549 171.268 217.141 170.894C216.745 170.509 216.144 170.316 215.339 170.316C214.807 170.316 214.285 170.407 213.775 170.588C213.265 170.758 212.835 170.99 212.483 171.285L211.803 170.061C212.268 169.687 212.823 169.404 213.469 169.211C214.127 169.007 214.812 168.905 215.526 168.905C216.762 168.905 217.714 169.205 218.382 169.806C219.051 170.407 219.385 171.325 219.385 172.56V178H217.838ZM214.88 178.102C214.212 178.102 213.622 177.989 213.112 177.762C212.614 177.535 212.228 177.224 211.956 176.827C211.684 176.419 211.548 175.96 211.548 175.45C211.548 174.963 211.662 174.521 211.888 174.124C212.126 173.727 212.506 173.41 213.027 173.172C213.56 172.934 214.274 172.815 215.169 172.815H218.025V173.988H215.237C214.421 173.988 213.872 174.124 213.588 174.396C213.305 174.668 213.163 174.997 213.163 175.382C213.163 175.824 213.339 176.181 213.69 176.453C214.042 176.714 214.529 176.844 215.152 176.844C215.764 176.844 216.297 176.708 216.75 176.436C217.215 176.164 217.549 175.767 217.753 175.246L218.076 176.368C217.861 176.901 217.481 177.326 216.937 177.643C216.393 177.949 215.708 178.102 214.88 178.102ZM220.828 177.983L220.93 176.606C221.009 176.617 221.083 176.629 221.151 176.64C221.219 176.651 221.281 176.657 221.338 176.657C221.701 176.657 221.984 176.532 222.188 176.283C222.403 176.034 222.562 175.705 222.664 175.297C222.766 174.878 222.84 174.407 222.885 173.886C222.93 173.365 222.964 172.843 222.987 172.322L223.14 168.99H230.059V178H228.427V169.942L228.818 170.418H224.194L224.568 169.925L224.449 172.424C224.415 173.217 224.353 173.96 224.262 174.651C224.171 175.342 224.03 175.949 223.837 176.47C223.656 176.991 223.401 177.399 223.072 177.694C222.755 177.989 222.341 178.136 221.831 178.136C221.684 178.136 221.525 178.119 221.355 178.085C221.196 178.062 221.021 178.028 220.828 177.983ZM237.38 172.05C238.524 172.061 239.397 172.322 239.998 172.832C240.598 173.342 240.899 174.062 240.899 174.991C240.899 175.966 240.57 176.719 239.913 177.252C239.255 177.773 238.326 178.028 237.125 178.017L233.215 178V168.99H234.847V172.033L237.38 172.05ZM236.989 176.776C237.725 176.787 238.281 176.64 238.655 176.334C239.04 176.028 239.233 175.575 239.233 174.974C239.233 174.385 239.046 173.954 238.672 173.682C238.298 173.41 237.737 173.268 236.989 173.257L234.847 173.223V176.759L236.989 176.776ZM242.993 178V168.99H244.625V172.815H249.759V168.99H251.391V178H249.759V174.226H244.625V178H242.993ZM258.423 178.102C257.517 178.102 256.712 177.904 256.009 177.507C255.307 177.11 254.751 176.566 254.343 175.875C253.935 175.172 253.731 174.379 253.731 173.495C253.731 172.6 253.935 171.806 254.343 171.115C254.751 170.424 255.307 169.885 256.009 169.5C256.712 169.103 257.517 168.905 258.423 168.905C259.319 168.905 260.118 169.103 260.82 169.5C261.534 169.885 262.09 170.424 262.486 171.115C262.894 171.795 263.098 172.588 263.098 173.495C263.098 174.39 262.894 175.184 262.486 175.875C262.09 176.566 261.534 177.11 260.82 177.507C260.118 177.904 259.319 178.102 258.423 178.102ZM258.423 176.674C259.001 176.674 259.517 176.544 259.97 176.283C260.435 176.022 260.798 175.654 261.058 175.178C261.319 174.691 261.449 174.13 261.449 173.495C261.449 172.849 261.319 172.294 261.058 171.829C260.798 171.353 260.435 170.985 259.97 170.724C259.517 170.463 259.001 170.333 258.423 170.333C257.845 170.333 257.33 170.463 256.876 170.724C256.423 170.985 256.06 171.353 255.788 171.829C255.516 172.294 255.38 172.849 255.38 173.495C255.38 174.13 255.516 174.691 255.788 175.178C256.06 175.654 256.423 176.022 256.876 176.283C257.33 176.544 257.845 176.674 258.423 176.674ZM16.581 199V189.99H24.928V199H23.296V191.01L23.687 191.418H17.822L18.213 191.01V199H16.581ZM32.8629 199.102C32.1149 199.102 31.4292 198.932 30.8059 198.592C30.1939 198.241 29.7009 197.725 29.3269 197.045C28.9642 196.365 28.7829 195.515 28.7829 194.495C28.7829 193.475 28.9585 192.625 29.3099 191.945C29.6725 191.265 30.1599 190.755 30.7719 190.415C31.3952 190.075 32.0922 189.905 32.8629 189.905C33.7469 189.905 34.5289 190.098 35.2089 190.483C35.8889 190.868 36.4272 191.407 36.8239 192.098C37.2206 192.778 37.4189 193.577 37.4189 194.495C37.4189 195.413 37.2206 196.218 36.8239 196.909C36.4272 197.6 35.8889 198.139 35.2089 198.524C34.5289 198.909 33.7469 199.102 32.8629 199.102ZM28.0859 202.298V189.99H29.6499V192.421L29.5479 194.512L29.7179 196.603V202.298H28.0859ZM32.7269 197.674C33.3049 197.674 33.8205 197.544 34.2739 197.283C34.7385 197.022 35.1012 196.654 35.3619 196.178C35.6339 195.691 35.7699 195.13 35.7699 194.495C35.7699 193.849 35.6339 193.294 35.3619 192.829C35.1012 192.353 34.7385 191.985 34.2739 191.724C33.8205 191.463 33.3049 191.333 32.7269 191.333C32.1602 191.333 31.6445 191.463 31.1799 191.724C30.7265 191.985 30.3639 192.353 30.0919 192.829C29.8312 193.294 29.7009 193.849 29.7009 194.495C29.7009 195.13 29.8312 195.691 30.0919 196.178C30.3639 196.654 30.7265 197.022 31.1799 197.283C31.6445 197.544 32.1602 197.674 32.7269 197.674ZM43.649 199.102C42.7423 199.102 41.9377 198.904 41.235 198.507C40.5323 198.11 39.977 197.566 39.569 196.875C39.161 196.172 38.957 195.379 38.957 194.495C38.957 193.6 39.161 192.806 39.569 192.115C39.977 191.424 40.5323 190.885 41.235 190.5C41.9377 190.103 42.7423 189.905 43.649 189.905C44.5443 189.905 45.3433 190.103 46.046 190.5C46.76 190.885 47.3153 191.424 47.712 192.115C48.12 192.795 48.324 193.588 48.324 194.495C48.324 195.39 48.12 196.184 47.712 196.875C47.3153 197.566 46.76 198.11 46.046 198.507C45.3433 198.904 44.5443 199.102 43.649 199.102ZM43.649 197.674C44.227 197.674 44.7427 197.544 45.196 197.283C45.6607 197.022 46.0233 196.654 46.284 196.178C46.5447 195.691 46.675 195.13 46.675 194.495C46.675 193.849 46.5447 193.294 46.284 192.829C46.0233 192.353 45.6607 191.985 45.196 191.724C44.7427 191.463 44.227 191.333 43.649 191.333C43.071 191.333 42.5553 191.463 42.102 191.724C41.6487 191.985 41.286 192.353 41.014 192.829C40.742 193.294 40.606 193.849 40.606 194.495C40.606 195.13 40.742 195.691 41.014 196.178C41.286 196.654 41.6487 197.022 42.102 197.283C42.5553 197.544 43.071 197.674 43.649 197.674ZM50.6806 199V189.99H54.8626C55.9166 189.99 56.7439 190.194 57.3446 190.602C57.9566 190.999 58.2626 191.565 58.2626 192.302C58.2626 193.039 57.9736 193.611 57.3956 194.019C56.8289 194.416 56.0753 194.614 55.1346 194.614L55.3896 194.172C56.4663 194.172 57.2653 194.37 57.7866 194.767C58.3079 195.164 58.5686 195.747 58.5686 196.518C58.5686 197.3 58.2739 197.912 57.6846 198.354C57.1066 198.785 56.2169 199 55.0156 199H50.6806ZM52.2786 197.742H54.8966C55.5766 197.742 56.0866 197.64 56.4266 197.436C56.7666 197.221 56.9366 196.881 56.9366 196.416C56.9366 195.94 56.7779 195.594 56.4606 195.379C56.1546 195.152 55.6673 195.039 54.9986 195.039H52.2786V197.742ZM52.2786 193.866H54.7266C55.3499 193.866 55.8203 193.753 56.1376 193.526C56.4663 193.288 56.6306 192.959 56.6306 192.54C56.6306 192.109 56.4663 191.786 56.1376 191.571C55.8203 191.356 55.3499 191.248 54.7266 191.248H52.2786V193.866ZM65.135 199.102C64.1717 199.102 63.3217 198.904 62.585 198.507C61.8597 198.11 61.293 197.566 60.885 196.875C60.4883 196.184 60.29 195.39 60.29 194.495C60.29 193.6 60.4827 192.806 60.868 192.115C61.2647 191.424 61.803 190.885 62.483 190.5C63.1743 190.103 63.9507 189.905 64.812 189.905C65.6847 189.905 66.4553 190.098 67.124 190.483C67.7927 190.868 68.314 191.412 68.688 192.115C69.0733 192.806 69.266 193.617 69.266 194.546C69.266 194.614 69.2603 194.693 69.249 194.784C69.249 194.875 69.2433 194.96 69.232 195.039H61.565V193.866H68.382L67.719 194.274C67.7303 193.696 67.6113 193.18 67.362 192.727C67.1127 192.274 66.767 191.922 66.325 191.673C65.8943 191.412 65.39 191.282 64.812 191.282C64.2453 191.282 63.741 191.412 63.299 191.673C62.857 191.922 62.5113 192.279 62.262 192.744C62.0127 193.197 61.888 193.719 61.888 194.308V194.58C61.888 195.181 62.024 195.719 62.296 196.195C62.5793 196.66 62.9703 197.022 63.469 197.283C63.9677 197.544 64.54 197.674 65.186 197.674C65.7187 197.674 66.2003 197.583 66.631 197.402C67.073 197.221 67.4583 196.949 67.787 196.586L68.688 197.64C68.28 198.116 67.77 198.479 67.158 198.728C66.5573 198.977 65.883 199.102 65.135 199.102ZM76.5748 199.102C75.8268 199.102 75.1411 198.932 74.5178 198.592C73.9058 198.241 73.4128 197.725 73.0388 197.045C72.6761 196.365 72.4948 195.515 72.4948 194.495C72.4948 193.475 72.6705 192.625 73.0218 191.945C73.3845 191.265 73.8718 190.755 74.4838 190.415C75.1071 190.075 75.8041 189.905 76.5748 189.905C77.4588 189.905 78.2408 190.098 78.9208 190.483C79.6008 190.868 80.1391 191.407 80.5358 192.098C80.9325 192.778 81.1308 193.577 81.1308 194.495C81.1308 195.413 80.9325 196.218 80.5358 196.909C80.1391 197.6 79.6008 198.139 78.9208 198.524C78.2408 198.909 77.4588 199.102 76.5748 199.102ZM71.7978 202.298V189.99H73.3618V192.421L73.2598 194.512L73.4298 196.603V202.298H71.7978ZM76.4388 197.674C77.0168 197.674 77.5325 197.544 77.9858 197.283C78.4505 197.022 78.8131 196.654 79.0738 196.178C79.3458 195.691 79.4818 195.13 79.4818 194.495C79.4818 193.849 79.3458 193.294 79.0738 192.829C78.8131 192.353 78.4505 191.985 77.9858 191.724C77.5325 191.463 77.0168 191.333 76.4388 191.333C75.8721 191.333 75.3565 191.463 74.8918 191.724C74.4385 191.985 74.0758 192.353 73.8038 192.829C73.5431 193.294 73.4128 193.849 73.4128 194.495C73.4128 195.13 73.5431 195.691 73.8038 196.178C74.0758 196.654 74.4385 197.022 74.8918 197.283C75.3565 197.544 75.8721 197.674 76.4388 197.674ZM88.9661 199V195.838L89.2211 196.144H86.3481C85.1467 196.144 84.2061 195.889 83.5261 195.379C82.8574 194.869 82.5231 194.127 82.5231 193.152C82.5231 192.109 82.8801 191.322 83.5941 190.789C84.3194 190.256 85.2827 189.99 86.4841 189.99H90.4281V199H88.9661ZM82.4381 199L84.8861 195.549H86.5691L84.1891 199H82.4381ZM88.9661 195.328V190.959L89.2211 191.418H86.5351C85.7871 191.418 85.2091 191.56 84.8011 191.843C84.3931 192.115 84.1891 192.568 84.1891 193.203C84.1891 194.382 84.9484 194.971 86.4671 194.971H89.2211L88.9661 195.328ZM97.6243 199.102C96.6609 199.102 95.8109 198.904 95.0743 198.507C94.3489 198.11 93.7823 197.566 93.3743 196.875C92.9776 196.184 92.7793 195.39 92.7793 194.495C92.7793 193.6 92.9719 192.806 93.3573 192.115C93.7539 191.424 94.2923 190.885 94.9723 190.5C95.6636 190.103 96.4399 189.905 97.3013 189.905C98.1739 189.905 98.9446 190.098 99.6133 190.483C100.282 190.868 100.803 191.412 101.177 192.115C101.563 192.806 101.755 193.617 101.755 194.546C101.755 194.614 101.75 194.693 101.738 194.784C101.738 194.875 101.733 194.96 101.721 195.039H94.0543V193.866H100.871L100.208 194.274C100.22 193.696 100.101 193.18 99.8513 192.727C99.6019 192.274 99.2563 191.922 98.8143 191.673C98.3836 191.412 97.8793 191.282 97.3013 191.282C96.7346 191.282 96.2303 191.412 95.7883 191.673C95.3463 191.922 95.0006 192.279 94.7513 192.744C94.5019 193.197 94.3773 193.719 94.3773 194.308V194.58C94.3773 195.181 94.5133 195.719 94.7853 196.195C95.0686 196.66 95.4596 197.022 95.9583 197.283C96.4569 197.544 97.0293 197.674 97.6753 197.674C98.2079 197.674 98.6896 197.583 99.1203 197.402C99.5623 197.221 99.9476 196.949 100.276 196.586L101.177 197.64C100.769 198.116 100.259 198.479 99.6473 198.728C99.0466 198.977 98.3723 199.102 97.6243 199.102ZM104.287 199V189.99H105.97L109.846 196.654H109.166L113.144 189.99H114.674V199H113.195V191.826L113.467 191.979L109.829 197.98H109.115L105.46 191.86L105.783 191.792V199H104.287ZM122.688 199V187.1H124.371V192.2H127.448V193.73H124.371V199H122.688ZM132.548 199.136C131.687 199.136 130.888 198.989 130.151 198.694C129.414 198.388 128.774 197.963 128.23 197.419C127.686 196.864 127.261 196.218 126.955 195.481C126.66 194.744 126.513 193.934 126.513 193.05C126.513 192.166 126.66 191.356 126.955 190.619C127.261 189.882 127.686 189.242 128.23 188.698C128.774 188.143 129.414 187.718 130.151 187.423C130.888 187.117 131.687 186.964 132.548 186.964C133.409 186.964 134.208 187.117 134.945 187.423C135.693 187.718 136.339 188.143 136.883 188.698C137.427 189.242 137.846 189.882 138.141 190.619C138.447 191.356 138.6 192.166 138.6 193.05C138.6 193.934 138.447 194.744 138.141 195.481C137.846 196.218 137.427 196.864 136.883 197.419C136.339 197.963 135.693 198.388 134.945 198.694C134.208 198.989 133.409 199.136 132.548 199.136ZM132.548 197.606C133.171 197.606 133.744 197.498 134.265 197.283C134.798 197.056 135.257 196.739 135.642 196.331C136.039 195.923 136.345 195.441 136.56 194.886C136.787 194.331 136.9 193.719 136.9 193.05C136.9 192.381 136.787 191.769 136.56 191.214C136.345 190.659 136.039 190.177 135.642 189.769C135.257 189.361 134.798 189.049 134.265 188.834C133.744 188.607 133.177 188.494 132.565 188.494C131.953 188.494 131.381 188.607 130.848 188.834C130.327 189.049 129.868 189.361 129.471 189.769C129.086 190.177 128.78 190.659 128.553 191.214C128.338 191.769 128.23 192.381 128.23 193.05C128.23 193.719 128.338 194.331 128.553 194.886C128.78 195.441 129.086 195.923 129.471 196.331C129.868 196.739 130.327 197.056 130.848 197.283C131.381 197.498 131.947 197.606 132.548 197.606ZM145.87 199.102C145.122 199.102 144.436 198.932 143.813 198.592C143.201 198.241 142.708 197.725 142.334 197.045C141.971 196.365 141.79 195.515 141.79 194.495C141.79 193.475 141.965 192.625 142.317 191.945C142.679 191.265 143.167 190.755 143.779 190.415C144.402 190.075 145.099 189.905 145.87 189.905C146.754 189.905 147.536 190.098 148.216 190.483C148.896 190.868 149.434 191.407 149.831 192.098C150.227 192.778 150.426 193.577 150.426 194.495C150.426 195.413 150.227 196.218 149.831 196.909C149.434 197.6 148.896 198.139 148.216 198.524C147.536 198.909 146.754 199.102 145.87 199.102ZM141.093 202.298V189.99H142.657V192.421L142.555 194.512L142.725 196.603V202.298H141.093ZM145.734 197.674C146.312 197.674 146.827 197.544 147.281 197.283C147.745 197.022 148.108 196.654 148.369 196.178C148.641 195.691 148.777 195.13 148.777 194.495C148.777 193.849 148.641 193.294 148.369 192.829C148.108 192.353 147.745 191.985 147.281 191.724C146.827 191.463 146.312 191.333 145.734 191.333C145.167 191.333 144.651 191.463 144.187 191.724C143.733 191.985 143.371 192.353 143.099 192.829C142.838 193.294 142.708 193.849 142.708 194.495C142.708 195.13 142.838 195.691 143.099 196.178C143.371 196.654 143.733 197.022 144.187 197.283C144.651 197.544 145.167 197.674 145.734 197.674ZM152.797 199V189.99H154.429V196.552L159.954 189.99H161.433V199H159.801V192.438L154.293 199H152.797ZM170.755 198.235V191.418H166.845L166.76 193.152C166.737 193.719 166.697 194.268 166.641 194.801C166.595 195.322 166.516 195.804 166.403 196.246C166.301 196.688 166.148 197.051 165.944 197.334C165.74 197.617 165.468 197.793 165.128 197.861L163.513 197.572C163.864 197.583 164.147 197.47 164.363 197.232C164.578 196.983 164.742 196.643 164.856 196.212C164.98 195.781 165.071 195.294 165.128 194.75C165.184 194.195 165.23 193.622 165.264 193.033L165.4 189.99H172.387V198.235H170.755ZM163.156 201.091V197.572H173.764V201.091H172.234V199H164.703V201.091H163.156ZM175.89 199V189.99H177.522V196.552L183.047 189.99H184.526V199H182.894V192.438L177.386 199H175.89ZM193.371 195.311C192.895 195.538 192.402 195.719 191.892 195.855C191.394 195.98 190.878 196.042 190.345 196.042C189.257 196.042 188.396 195.787 187.761 195.277C187.138 194.767 186.826 193.979 186.826 192.914V189.99H188.458V192.812C188.458 193.458 188.657 193.934 189.053 194.24C189.461 194.546 190.005 194.699 190.685 194.699C191.116 194.699 191.558 194.642 192.011 194.529C192.476 194.416 192.929 194.257 193.371 194.053V195.311ZM193.252 199V189.99H194.884V199H193.252ZM202.065 199.102C201.101 199.102 200.251 198.904 199.515 198.507C198.789 198.11 198.223 197.566 197.815 196.875C197.418 196.184 197.22 195.39 197.22 194.495C197.22 193.6 197.412 192.806 197.798 192.115C198.194 191.424 198.733 190.885 199.413 190.5C200.104 190.103 200.88 189.905 201.742 189.905C202.614 189.905 203.385 190.098 204.054 190.483C204.722 190.868 205.244 191.412 205.618 192.115C206.003 192.806 206.196 193.617 206.196 194.546C206.196 194.614 206.19 194.693 206.179 194.784C206.179 194.875 206.173 194.96 206.162 195.039H198.495V193.866H205.312L204.649 194.274C204.66 193.696 204.541 193.18 204.292 192.727C204.042 192.274 203.697 191.922 203.255 191.673C202.824 191.412 202.32 191.282 201.742 191.282C201.175 191.282 200.671 191.412 200.229 191.673C199.787 191.922 199.441 192.279 199.192 192.744C198.942 193.197 198.818 193.719 198.818 194.308V194.58C198.818 195.181 198.954 195.719 199.226 196.195C199.509 196.66 199.9 197.022 200.399 197.283C200.897 197.544 201.47 197.674 202.116 197.674C202.648 197.674 203.13 197.583 203.561 197.402C204.003 197.221 204.388 196.949 204.717 196.586L205.618 197.64C205.21 198.116 204.7 198.479 204.088 198.728C203.487 198.977 202.813 199.102 202.065 199.102ZM212.654 199.102C211.736 199.102 210.915 198.904 210.189 198.507C209.475 198.11 208.914 197.566 208.506 196.875C208.098 196.184 207.894 195.39 207.894 194.495C207.894 193.6 208.098 192.806 208.506 192.115C208.914 191.424 209.475 190.885 210.189 190.5C210.915 190.103 211.736 189.905 212.654 189.905C213.47 189.905 214.196 190.069 214.83 190.398C215.476 190.715 215.975 191.191 216.326 191.826L215.085 192.625C214.791 192.183 214.428 191.86 213.997 191.656C213.578 191.441 213.125 191.333 212.637 191.333C212.048 191.333 211.521 191.463 211.056 191.724C210.592 191.985 210.223 192.353 209.951 192.829C209.679 193.294 209.543 193.849 209.543 194.495C209.543 195.141 209.679 195.702 209.951 196.178C210.223 196.654 210.592 197.022 211.056 197.283C211.521 197.544 212.048 197.674 212.637 197.674C213.125 197.674 213.578 197.572 213.997 197.368C214.428 197.153 214.791 196.824 215.085 196.382L216.326 197.164C215.975 197.787 215.476 198.269 214.83 198.609C214.196 198.938 213.47 199.102 212.654 199.102ZM224.967 199L221.482 194.614L222.825 193.798L226.888 199H224.967ZM218.439 199V189.99H220.071V199H218.439ZM219.578 195.192V193.798H222.553V195.192H219.578ZM222.961 194.682L221.448 194.478L224.899 189.99H226.65L222.961 194.682ZM228.544 202.4C228.113 202.4 227.694 202.326 227.286 202.179C226.878 202.043 226.527 201.839 226.232 201.567L226.929 200.343C227.156 200.558 227.405 200.723 227.677 200.836C227.949 200.949 228.238 201.006 228.544 201.006C228.941 201.006 229.269 200.904 229.53 200.7C229.791 200.496 230.034 200.133 230.261 199.612L230.822 198.371L230.992 198.167L234.528 189.99H236.126L231.757 199.901C231.496 200.536 231.202 201.034 230.873 201.397C230.556 201.76 230.204 202.015 229.819 202.162C229.434 202.321 229.009 202.4 228.544 202.4ZM230.686 199.289L226.572 189.99H228.272L231.774 198.014L230.686 199.289ZM237.797 199V189.99H239.429V193.679H242.149V195.192H239.429V199H237.797ZM245.77 199.102C244.886 199.102 244.098 198.904 243.407 198.507C242.727 198.11 242.188 197.566 241.792 196.875C241.395 196.172 241.197 195.379 241.197 194.495C241.197 193.6 241.395 192.806 241.792 192.115C242.188 191.412 242.727 190.868 243.407 190.483C244.098 190.098 244.886 189.905 245.77 189.905C246.642 189.905 247.424 190.098 248.116 190.483C248.807 190.868 249.351 191.412 249.748 192.115C250.144 192.806 250.343 193.6 250.343 194.495C250.343 195.39 250.144 196.184 249.748 196.875C249.351 197.566 248.807 198.11 248.116 198.507C247.424 198.904 246.642 199.102 245.77 199.102ZM245.77 197.674C246.336 197.674 246.841 197.544 247.283 197.283C247.725 197.011 248.076 196.643 248.337 196.178C248.597 195.702 248.728 195.141 248.728 194.495C248.728 193.849 248.597 193.294 248.337 192.829C248.076 192.353 247.725 191.985 247.283 191.724C246.841 191.463 246.336 191.333 245.77 191.333C245.214 191.333 244.71 191.463 244.257 191.724C243.815 191.985 243.463 192.353 243.203 192.829C242.942 193.294 242.812 193.849 242.812 194.495C242.812 195.141 242.942 195.702 243.203 196.178C243.463 196.643 243.815 197.011 244.257 197.283C244.71 197.544 245.214 197.674 245.77 197.674ZM22.259 216.311C21.783 216.538 21.29 216.719 20.78 216.855C20.2813 216.98 19.7657 217.042 19.233 217.042C18.145 217.042 17.2837 216.787 16.649 216.277C16.0257 215.767 15.714 214.979 15.714 213.914V210.99H17.346V213.812C17.346 214.458 17.5443 214.934 17.941 215.24C18.349 215.546 18.893 215.699 19.573 215.699C20.0037 215.699 20.4457 215.642 20.899 215.529C21.3637 215.416 21.817 215.257 22.259 215.053V216.311ZM22.14 220V210.99H23.772V220H22.14ZM26.9404 220V210.99H28.5724V217.552L34.0974 210.99H35.5764V220H33.9444V213.438L28.4364 220H26.9404ZM42.6711 220.102C41.7531 220.102 40.9314 219.904 40.2061 219.507C39.4921 219.11 38.9311 218.566 38.5231 217.875C38.1151 217.184 37.9111 216.39 37.9111 215.495C37.9111 214.6 38.1151 213.806 38.5231 213.115C38.9311 212.424 39.4921 211.885 40.2061 211.5C40.9314 211.103 41.7531 210.905 42.6711 210.905C43.4871 210.905 44.2124 211.069 44.8471 211.398C45.4931 211.715 45.9918 212.191 46.3431 212.826L45.1021 213.625C44.8074 213.183 44.4448 212.86 44.0141 212.656C43.5948 212.441 43.1414 212.333 42.6541 212.333C42.0648 212.333 41.5378 212.463 41.0731 212.724C40.6084 212.985 40.2401 213.353 39.9681 213.829C39.6961 214.294 39.5601 214.849 39.5601 215.495C39.5601 216.141 39.6961 216.702 39.9681 217.178C40.2401 217.654 40.6084 218.022 41.0731 218.283C41.5378 218.544 42.0648 218.674 42.6541 218.674C43.1414 218.674 43.5948 218.572 44.0141 218.368C44.4448 218.153 44.8074 217.824 45.1021 217.382L46.3431 218.164C45.9918 218.787 45.4931 219.269 44.8471 219.609C44.2124 219.938 43.4871 220.102 42.6711 220.102ZM50.1248 220V211.993L50.5328 212.418H46.8268V210.99H55.0548V212.418H51.3658L51.7568 211.993V220H50.1248ZM60.1841 220.102C59.2775 220.102 58.4728 219.904 57.7701 219.507C57.0675 219.11 56.5121 218.566 56.1041 217.875C55.6961 217.172 55.4921 216.379 55.4921 215.495C55.4921 214.6 55.6961 213.806 56.1041 213.115C56.5121 212.424 57.0675 211.885 57.7701 211.5C58.4728 211.103 59.2775 210.905 60.1841 210.905C61.0795 210.905 61.8785 211.103 62.5811 211.5C63.2951 211.885 63.8505 212.424 64.2471 213.115C64.6551 213.795 64.8591 214.588 64.8591 215.495C64.8591 216.39 64.6551 217.184 64.2471 217.875C63.8505 218.566 63.2951 219.11 62.5811 219.507C61.8785 219.904 61.0795 220.102 60.1841 220.102ZM60.1841 218.674C60.7621 218.674 61.2778 218.544 61.7311 218.283C62.1958 218.022 62.5585 217.654 62.8191 217.178C63.0798 216.691 63.2101 216.13 63.2101 215.495C63.2101 214.849 63.0798 214.294 62.8191 213.829C62.5585 213.353 62.1958 212.985 61.7311 212.724C61.2778 212.463 60.7621 212.333 60.1841 212.333C59.6061 212.333 59.0905 212.463 58.6371 212.724C58.1838 212.985 57.8211 213.353 57.5491 213.829C57.2771 214.294 57.1411 214.849 57.1411 215.495C57.1411 216.13 57.2771 216.691 57.5491 217.178C57.8211 217.654 58.1838 218.022 58.6371 218.283C59.0905 218.544 59.6061 218.674 60.1841 218.674ZM68.6687 220V211.993L69.0767 212.418H65.3707V210.99H73.5987V212.418H69.9097L70.3007 211.993V220H68.6687ZM75.7265 223.4C75.2959 223.4 74.8765 223.326 74.4685 223.179C74.0605 223.043 73.7092 222.839 73.4145 222.567L74.1115 221.343C74.3382 221.558 74.5875 221.723 74.8595 221.836C75.1315 221.949 75.4205 222.006 75.7265 222.006C76.1232 222.006 76.4519 221.904 76.7125 221.7C76.9732 221.496 77.2169 221.133 77.4435 220.612L78.0045 219.371L78.1745 219.167L81.7105 210.99H83.3085L78.9395 220.901C78.6789 221.536 78.3842 222.034 78.0555 222.397C77.7382 222.76 77.3869 223.015 77.0015 223.162C76.6162 223.321 76.1912 223.4 75.7265 223.4ZM77.8685 220.289L73.7545 210.99H75.4545L78.9565 219.014L77.8685 220.289ZM89.5449 220V210.99H93.7269C94.7809 210.99 95.6082 211.194 96.2089 211.602C96.8209 211.999 97.1269 212.565 97.1269 213.302C97.1269 214.039 96.8379 214.611 96.2599 215.019C95.6932 215.416 94.9395 215.614 93.9989 215.614L94.2539 215.172C95.3305 215.172 96.1295 215.37 96.6509 215.767C97.1722 216.164 97.4329 216.747 97.4329 217.518C97.4329 218.3 97.1382 218.912 96.5489 219.354C95.9709 219.785 95.0812 220 93.8799 220H89.5449ZM91.1429 218.742H93.7609C94.4409 218.742 94.9509 218.64 95.2909 218.436C95.6309 218.221 95.8009 217.881 95.8009 217.416C95.8009 216.94 95.6422 216.594 95.3249 216.379C95.0189 216.152 94.5315 216.039 93.8629 216.039H91.1429V218.742ZM91.1429 214.866H93.5909C94.2142 214.866 94.6845 214.753 95.0019 214.526C95.3305 214.288 95.4949 213.959 95.4949 213.54C95.4949 213.109 95.3305 212.786 95.0019 212.571C94.6845 212.356 94.2142 212.248 93.5909 212.248H91.1429V214.866ZM103.846 220.102C102.94 220.102 102.135 219.904 101.432 219.507C100.73 219.11 100.174 218.566 99.7663 217.875C99.3583 217.172 99.1543 216.379 99.1543 215.495C99.1543 214.6 99.3583 213.806 99.7663 213.115C100.174 212.424 100.73 211.885 101.432 211.5C102.135 211.103 102.94 210.905 103.846 210.905C104.742 210.905 105.541 211.103 106.243 211.5C106.957 211.885 107.513 212.424 107.909 213.115C108.317 213.795 108.521 214.588 108.521 215.495C108.521 216.39 108.317 217.184 107.909 217.875C107.513 218.566 106.957 219.11 106.243 219.507C105.541 219.904 104.742 220.102 103.846 220.102ZM103.846 218.674C104.424 218.674 104.94 218.544 105.393 218.283C105.858 218.022 106.221 217.654 106.481 217.178C106.742 216.691 106.872 216.13 106.872 215.495C106.872 214.849 106.742 214.294 106.481 213.829C106.221 213.353 105.858 212.985 105.393 212.724C104.94 212.463 104.424 212.333 103.846 212.333C103.268 212.333 102.753 212.463 102.299 212.724C101.846 212.985 101.483 213.353 101.211 213.829C100.939 214.294 100.803 214.849 100.803 215.495C100.803 216.13 100.939 216.691 101.211 217.178C101.483 217.654 101.846 218.022 102.299 218.283C102.753 218.544 103.268 218.674 103.846 218.674ZM113.413 220.119C114.207 220.119 114.909 220.006 115.521 219.779C116.145 219.541 116.638 219.218 117 218.81C117.363 218.391 117.544 217.909 117.544 217.365C117.544 216.685 117.255 216.147 116.677 215.75C116.099 215.353 115.306 215.155 114.297 215.155L114.229 215.546C114.819 215.546 115.34 215.45 115.793 215.257C116.247 215.064 116.609 214.804 116.881 214.475C117.153 214.135 117.289 213.75 117.289 213.319C117.289 212.809 117.108 212.367 116.745 211.993C116.394 211.619 115.912 211.336 115.3 211.143C114.688 210.939 113.991 210.848 113.209 210.871C112.688 210.882 112.161 210.962 111.628 211.109C111.107 211.245 110.574 211.443 110.03 211.704L110.472 212.979C110.96 212.741 111.436 212.565 111.9 212.452C112.376 212.339 112.841 212.276 113.294 212.265C113.759 212.265 114.161 212.316 114.501 212.418C114.853 212.52 115.125 212.667 115.317 212.86C115.51 213.053 115.606 213.285 115.606 213.557C115.606 213.806 115.521 214.027 115.351 214.22C115.193 214.401 114.966 214.537 114.671 214.628C114.377 214.719 114.031 214.764 113.634 214.764H112.104V215.937H113.736C114.405 215.937 114.926 216.05 115.3 216.277C115.674 216.504 115.861 216.827 115.861 217.246C115.861 217.541 115.759 217.801 115.555 218.028C115.351 218.243 115.057 218.413 114.671 218.538C114.297 218.663 113.85 218.725 113.328 218.725C112.762 218.725 112.201 218.651 111.645 218.504C111.09 218.345 110.597 218.13 110.166 217.858L109.673 219.099C110.183 219.428 110.761 219.683 111.407 219.864C112.065 220.034 112.733 220.119 113.413 220.119ZM120.025 220V210.99H121.708L125.584 217.654H124.904L128.882 210.99H130.412V220H128.933V212.826L129.205 212.979L125.567 218.98H124.853L121.198 212.86L121.521 212.792V220H120.025ZM137.448 220.102C136.541 220.102 135.736 219.904 135.034 219.507C134.331 219.11 133.776 218.566 133.368 217.875C132.96 217.172 132.756 216.379 132.756 215.495C132.756 214.6 132.96 213.806 133.368 213.115C133.776 212.424 134.331 211.885 135.034 211.5C135.736 211.103 136.541 210.905 137.448 210.905C138.343 210.905 139.142 211.103 139.845 211.5C140.559 211.885 141.114 212.424 141.511 213.115C141.919 213.795 142.123 214.588 142.123 215.495C142.123 216.39 141.919 217.184 141.511 217.875C141.114 218.566 140.559 219.11 139.845 219.507C139.142 219.904 138.343 220.102 137.448 220.102ZM137.448 218.674C138.026 218.674 138.541 218.544 138.995 218.283C139.459 218.022 139.822 217.654 140.083 217.178C140.343 216.691 140.474 216.13 140.474 215.495C140.474 214.849 140.343 214.294 140.083 213.829C139.822 213.353 139.459 212.985 138.995 212.724C138.541 212.463 138.026 212.333 137.448 212.333C136.87 212.333 136.354 212.463 135.901 212.724C135.447 212.985 135.085 213.353 134.813 213.829C134.541 214.294 134.405 214.849 134.405 215.495C134.405 216.13 134.541 216.691 134.813 217.178C135.085 217.654 135.447 218.022 135.901 218.283C136.354 218.544 136.87 218.674 137.448 218.674ZM154.874 220L152.001 215.614L153.344 214.798L156.812 220H154.874ZM150.131 216.192V214.798H153.055V216.192H150.131ZM153.497 215.682L151.95 215.478L154.823 210.99H156.574L153.497 215.682ZM144.759 220H142.821L146.272 214.798L147.615 215.614L144.759 220ZM150.624 220H148.992V210.99H150.624V220ZM149.485 216.192H146.578V214.798H149.485V216.192ZM146.136 215.682L143.059 210.99H144.793L147.666 215.478L146.136 215.682ZM158.607 220V210.99H160.239V214.815H165.373V210.99H167.005V220H165.373V216.226H160.239V220H158.607ZM174.038 220.102C173.131 220.102 172.326 219.904 171.624 219.507C170.921 219.11 170.366 218.566 169.958 217.875C169.55 217.172 169.346 216.379 169.346 215.495C169.346 214.6 169.55 213.806 169.958 213.115C170.366 212.424 170.921 211.885 171.624 211.5C172.326 211.103 173.131 210.905 174.038 210.905C174.933 210.905 175.732 211.103 176.435 211.5C177.149 211.885 177.704 212.424 178.101 213.115C178.509 213.795 178.713 214.588 178.713 215.495C178.713 216.39 178.509 217.184 178.101 217.875C177.704 218.566 177.149 219.11 176.435 219.507C175.732 219.904 174.933 220.102 174.038 220.102ZM174.038 218.674C174.616 218.674 175.131 218.544 175.585 218.283C176.049 218.022 176.412 217.654 176.673 217.178C176.933 216.691 177.064 216.13 177.064 215.495C177.064 214.849 176.933 214.294 176.673 213.829C176.412 213.353 176.049 212.985 175.585 212.724C175.131 212.463 174.616 212.333 174.038 212.333C173.46 212.333 172.944 212.463 172.491 212.724C172.037 212.985 171.675 213.353 171.403 213.829C171.131 214.294 170.995 214.849 170.995 215.495C170.995 216.13 171.131 216.691 171.403 217.178C171.675 217.654 172.037 218.022 172.491 218.283C172.944 218.544 173.46 218.674 174.038 218.674ZM181.069 220V210.99H182.701V217.552L188.226 210.99H189.705V220H188.073V213.438L182.565 220H181.069ZM185.285 209.817C184.458 209.817 183.806 209.619 183.33 209.222C182.866 208.814 182.628 208.23 182.616 207.471H183.721C183.733 207.902 183.874 208.242 184.146 208.491C184.43 208.74 184.804 208.865 185.268 208.865C185.733 208.865 186.107 208.74 186.39 208.491C186.674 208.242 186.821 207.902 186.832 207.471H187.971C187.96 208.23 187.716 208.814 187.24 209.222C186.764 209.619 186.113 209.817 185.285 209.817ZM201.365 220.102C200.447 220.102 199.626 219.904 198.9 219.507C198.186 219.11 197.625 218.566 197.217 217.875C196.809 217.184 196.605 216.39 196.605 215.495C196.605 214.6 196.809 213.806 197.217 213.115C197.625 212.424 198.186 211.885 198.9 211.5C199.626 211.103 200.447 210.905 201.365 210.905C202.181 210.905 202.907 211.069 203.541 211.398C204.187 211.715 204.686 212.191 205.037 212.826L203.796 213.625C203.502 213.183 203.139 212.86 202.708 212.656C202.289 212.441 201.836 212.333 201.348 212.333C200.759 212.333 200.232 212.463 199.767 212.724C199.303 212.985 198.934 213.353 198.662 213.829C198.39 214.294 198.254 214.849 198.254 215.495C198.254 216.141 198.39 216.702 198.662 217.178C198.934 217.654 199.303 218.022 199.767 218.283C200.232 218.544 200.759 218.674 201.348 218.674C201.836 218.674 202.289 218.572 202.708 218.368C203.139 218.153 203.502 217.824 203.796 217.382L205.037 218.164C204.686 218.787 204.187 219.269 203.541 219.609C202.907 219.938 202.181 220.102 201.365 220.102ZM213.039 219.235V212.418H209.129L209.044 214.152C209.021 214.719 208.981 215.268 208.925 215.801C208.879 216.322 208.8 216.804 208.687 217.246C208.585 217.688 208.432 218.051 208.228 218.334C208.024 218.617 207.752 218.793 207.412 218.861L205.797 218.572C206.148 218.583 206.431 218.47 206.647 218.232C206.862 217.983 207.026 217.643 207.14 217.212C207.264 216.781 207.355 216.294 207.412 215.75C207.468 215.195 207.514 214.622 207.548 214.033L207.684 210.99H214.671V219.235H213.039ZM205.44 222.091V218.572H216.048V222.091H214.518V220H206.987V222.091H205.44ZM222.186 220.102C221.222 220.102 220.372 219.904 219.636 219.507C218.91 219.11 218.344 218.566 217.936 217.875C217.539 217.184 217.341 216.39 217.341 215.495C217.341 214.6 217.533 213.806 217.919 213.115C218.315 212.424 218.854 211.885 219.534 211.5C220.225 211.103 221.001 210.905 221.863 210.905C222.735 210.905 223.506 211.098 224.175 211.483C224.843 211.868 225.365 212.412 225.739 213.115C226.124 213.806 226.317 214.617 226.317 215.546C226.317 215.614 226.311 215.693 226.3 215.784C226.3 215.875 226.294 215.96 226.283 216.039H218.616V214.866H225.433L224.77 215.274C224.781 214.696 224.662 214.18 224.413 213.727C224.163 213.274 223.818 212.922 223.376 212.673C222.945 212.412 222.441 212.282 221.863 212.282C221.296 212.282 220.792 212.412 220.35 212.673C219.908 212.922 219.562 213.279 219.313 213.744C219.063 214.197 218.939 214.719 218.939 215.308V215.58C218.939 216.181 219.075 216.719 219.347 217.195C219.63 217.66 220.021 218.022 220.52 218.283C221.018 218.544 221.591 218.674 222.237 218.674C222.769 218.674 223.251 218.583 223.682 218.402C224.124 218.221 224.509 217.949 224.838 217.586L225.739 218.64C225.331 219.116 224.821 219.479 224.209 219.728C223.608 219.977 222.934 220.102 222.186 220.102ZM227.203 219.983L227.305 218.606C227.384 218.617 227.458 218.629 227.526 218.64C227.594 218.651 227.656 218.657 227.713 218.657C228.076 218.657 228.359 218.532 228.563 218.283C228.778 218.034 228.937 217.705 229.039 217.297C229.141 216.878 229.215 216.407 229.26 215.886C229.305 215.365 229.339 214.843 229.362 214.322L229.515 210.99H236.434V220H234.802V211.942L235.193 212.418H230.569L230.943 211.925L230.824 214.424C230.79 215.217 230.728 215.96 230.637 216.651C230.546 217.342 230.405 217.949 230.212 218.47C230.031 218.991 229.776 219.399 229.447 219.694C229.13 219.989 228.716 220.136 228.206 220.136C228.059 220.136 227.9 220.119 227.73 220.085C227.571 220.062 227.396 220.028 227.203 219.983ZM246.118 220L242.633 215.614L243.976 214.798L248.039 220H246.118ZM239.59 220V210.99H241.222V220H239.59ZM240.729 216.192V214.798H243.704V216.192H240.729ZM244.112 215.682L242.599 215.478L246.05 210.99H247.801L244.112 215.682ZM249.75 220V210.99H251.382V217.552L256.907 210.99H258.386V220H256.754V213.438L251.246 220H249.75Z" fill="#434343"/>
</svg>
