<svg width="194" height="193" viewBox="0 0 194 193" fill="none" xmlns="http://www.w3.org/2000/svg">
<rect width="194" height="193" rx="35" fill="#00AAFF"/>
<path d="M66.1058 131.784L66.6658 130.6C67.1564 130.984 67.6951 131.272 68.2818 131.464C68.8791 131.656 69.4711 131.757 70.0578 131.768C70.6444 131.768 71.1831 131.688 71.6738 131.528C72.1751 131.368 72.5751 131.128 72.8738 130.808C73.1724 130.488 73.3218 130.093 73.3218 129.624C73.3218 129.048 73.0871 128.611 72.6178 128.312C72.1591 128.013 71.5191 127.864 70.6978 127.864H68.2018V126.568H70.5858C71.3004 126.568 71.8551 126.424 72.2498 126.136C72.6551 125.837 72.8578 125.427 72.8578 124.904C72.8578 124.509 72.7351 124.179 72.4898 123.912C72.2551 123.635 71.9298 123.427 71.5138 123.288C71.1084 123.149 70.6444 123.08 70.1218 123.08C69.6098 123.069 69.0818 123.139 68.5378 123.288C67.9938 123.427 67.4711 123.651 66.9698 123.96L66.4578 122.648C67.1404 122.264 67.8498 121.997 68.5858 121.848C69.3324 121.688 70.0524 121.64 70.7458 121.704C71.4391 121.757 72.0631 121.917 72.6178 122.184C73.1831 122.44 73.6311 122.781 73.9618 123.208C74.3031 123.624 74.4738 124.125 74.4738 124.712C74.4738 125.245 74.3351 125.72 74.0578 126.136C73.7804 126.541 73.3964 126.856 72.9058 127.08C72.4151 127.293 71.8444 127.4 71.1938 127.4L71.2578 126.968C72.0044 126.968 72.6498 127.091 73.1938 127.336C73.7484 127.571 74.1751 127.907 74.4738 128.344C74.7831 128.781 74.9378 129.288 74.9378 129.864C74.9378 130.408 74.7991 130.893 74.5218 131.32C74.2444 131.736 73.8658 132.088 73.3858 132.376C72.9164 132.653 72.3778 132.856 71.7698 132.984C71.1724 133.112 70.5431 133.155 69.8818 133.112C69.2204 133.069 68.5644 132.941 67.9138 132.728C67.2738 132.515 66.6711 132.2 66.1058 131.784ZM82.5474 133V131.208L82.4674 130.872V127.816C82.4674 127.165 82.2754 126.664 81.8914 126.312C81.518 125.949 80.9527 125.768 80.1954 125.768C79.694 125.768 79.2034 125.853 78.7234 126.024C78.2434 126.184 77.838 126.403 77.5074 126.68L76.8674 125.528C77.3047 125.176 77.8274 124.909 78.4354 124.728C79.054 124.536 79.6994 124.44 80.3714 124.44C81.534 124.44 82.43 124.723 83.0594 125.288C83.6887 125.853 84.0034 126.717 84.0034 127.88V133H82.5474ZM79.7634 133.096C79.134 133.096 78.5794 132.989 78.0994 132.776C77.63 132.563 77.2674 132.269 77.0114 131.896C76.7554 131.512 76.6274 131.08 76.6274 130.6C76.6274 130.141 76.734 129.725 76.9474 129.352C77.1714 128.979 77.5287 128.68 78.0194 128.456C78.5207 128.232 79.1927 128.12 80.0354 128.12H82.7234V129.224H80.0994C79.3314 129.224 78.814 129.352 78.5474 129.608C78.2807 129.864 78.1474 130.173 78.1474 130.536C78.1474 130.952 78.3127 131.288 78.6434 131.544C78.974 131.789 79.4327 131.912 80.0194 131.912C80.5954 131.912 81.0967 131.784 81.5234 131.528C81.9607 131.272 82.2754 130.899 82.4674 130.408L82.7714 131.464C82.5687 131.965 82.2114 132.365 81.6994 132.664C81.1874 132.952 80.542 133.096 79.7634 133.096ZM86.7693 133V124.52H88.3533L92.0013 130.792H91.3613L95.1053 124.52H96.5453V133H95.1533V126.248L95.4093 126.392L91.9853 132.04H91.3133L87.8733 126.28L88.1773 126.216V133H86.7693ZM103.311 133.096C102.404 133.096 101.604 132.909 100.911 132.536C100.228 132.163 99.6949 131.651 99.3109 131C98.9375 130.349 98.7509 129.603 98.7509 128.76C98.7509 127.917 98.9322 127.171 99.2949 126.52C99.6682 125.869 100.175 125.363 100.815 125C101.466 124.627 102.196 124.44 103.007 124.44C103.828 124.44 104.554 124.621 105.183 124.984C105.812 125.347 106.303 125.859 106.655 126.52C107.018 127.171 107.199 127.933 107.199 128.808C107.199 128.872 107.194 128.947 107.183 129.032C107.183 129.117 107.178 129.197 107.167 129.272H99.9509V128.168H106.367L105.743 128.552C105.754 128.008 105.642 127.523 105.407 127.096C105.172 126.669 104.847 126.339 104.431 126.104C104.026 125.859 103.551 125.736 103.007 125.736C102.474 125.736 101.999 125.859 101.583 126.104C101.167 126.339 100.842 126.675 100.607 127.112C100.372 127.539 100.255 128.029 100.255 128.584V128.84C100.255 129.405 100.383 129.912 100.639 130.36C100.906 130.797 101.274 131.139 101.743 131.384C102.212 131.629 102.751 131.752 103.359 131.752C103.86 131.752 104.314 131.667 104.719 131.496C105.135 131.325 105.498 131.069 105.807 130.728L106.655 131.72C106.271 132.168 105.791 132.509 105.215 132.744C104.65 132.979 104.015 133.096 103.311 133.096ZM109.582 133V124.52H111.118V128.12H115.95V124.52H117.486V133H115.95V129.448H111.118V133H109.582ZM125.672 133V131.208L125.592 130.872V127.816C125.592 127.165 125.4 126.664 125.016 126.312C124.643 125.949 124.078 125.768 123.32 125.768C122.819 125.768 122.328 125.853 121.848 126.024C121.368 126.184 120.963 126.403 120.632 126.68L119.992 125.528C120.43 125.176 120.952 124.909 121.56 124.728C122.179 124.536 122.824 124.44 123.496 124.44C124.659 124.44 125.555 124.723 126.184 125.288C126.814 125.853 127.128 126.717 127.128 127.88V133H125.672ZM122.888 133.096C122.259 133.096 121.704 132.989 121.224 132.776C120.755 132.563 120.392 132.269 120.136 131.896C119.88 131.512 119.752 131.08 119.752 130.6C119.752 130.141 119.859 129.725 120.072 129.352C120.296 128.979 120.654 128.68 121.144 128.456C121.646 128.232 122.318 128.12 123.16 128.12H125.848V129.224H123.224C122.456 129.224 121.939 129.352 121.672 129.608C121.406 129.864 121.272 130.173 121.272 130.536C121.272 130.952 121.438 131.288 121.768 131.544C122.099 131.789 122.558 131.912 123.144 131.912C123.72 131.912 124.222 131.784 124.648 131.528C125.086 131.272 125.4 130.899 125.592 130.408L125.896 131.464C125.694 131.965 125.336 132.365 124.824 132.664C124.312 132.952 123.667 133.096 122.888 133.096ZM45.2661 153V151.208L45.1861 150.872V147.816C45.1861 147.165 44.9941 146.664 44.6101 146.312C44.2368 145.949 43.6715 145.768 42.9141 145.768C42.4128 145.768 41.9221 145.853 41.4421 146.024C40.9621 146.184 40.5568 146.403 40.2261 146.68L39.5861 145.528C40.0235 145.176 40.5461 144.909 41.1541 144.728C41.7728 144.536 42.4181 144.44 43.0901 144.44C44.2528 144.44 45.1488 144.723 45.7781 145.288C46.4075 145.853 46.7221 146.717 46.7221 147.88V153H45.2661ZM42.4821 153.096C41.8528 153.096 41.2981 152.989 40.8181 152.776C40.3488 152.563 39.9861 152.269 39.7301 151.896C39.4741 151.512 39.3461 151.08 39.3461 150.6C39.3461 150.141 39.4528 149.725 39.6661 149.352C39.8901 148.979 40.2475 148.68 40.7381 148.456C41.2395 148.232 41.9115 148.12 42.7541 148.12H45.4421V149.224H42.8181C42.0501 149.224 41.5328 149.352 41.2661 149.608C40.9995 149.864 40.8661 150.173 40.8661 150.536C40.8661 150.952 41.0315 151.288 41.3621 151.544C41.6928 151.789 42.1515 151.912 42.7381 151.912C43.3141 151.912 43.8155 151.784 44.2421 151.528C44.6795 151.272 44.9941 150.899 45.1861 150.408L45.4901 151.464C45.2875 151.965 44.9301 152.365 44.4181 152.664C43.9061 152.952 43.2608 153.096 42.4821 153.096ZM55.632 153L52.352 148.872L53.616 148.104L57.44 153H55.632ZM49.488 153V144.52H51.024V153H49.488ZM50.56 149.416V148.104H53.36V149.416H50.56ZM53.744 148.936L52.32 148.744L55.568 144.52H57.216L53.744 148.936ZM65.1945 153L61.9145 148.872L63.1785 148.104L67.0025 153H65.1945ZM59.0505 153V144.52H60.5865V153H59.0505ZM60.1225 149.416V148.104H62.9225V149.416H60.1225ZM63.3065 148.936L61.8825 148.744L65.1305 144.52H66.7785L63.3065 148.936ZM68.5606 156.2C68.1553 156.2 67.7606 156.131 67.3766 155.992C66.9926 155.864 66.662 155.672 66.3846 155.416L67.0406 154.264C67.254 154.467 67.4886 154.621 67.7446 154.728C68.0006 154.835 68.2726 154.888 68.5606 154.888C68.934 154.888 69.2433 154.792 69.4886 154.6C69.734 154.408 69.9633 154.067 70.1766 153.576L70.7046 152.408L70.8646 152.216L74.1926 144.52H75.6966L71.5846 153.848C71.3393 154.445 71.062 154.915 70.7526 155.256C70.454 155.597 70.1233 155.837 69.7606 155.976C69.398 156.125 68.998 156.2 68.5606 156.2ZM70.5766 153.272L66.7046 144.52H68.3046L71.6006 152.072L70.5766 153.272ZM77.2693 153V144.52H78.8533L82.5013 150.792H81.8613L85.6053 144.52H87.0453V153H85.6533V146.248L85.9093 146.392L82.4853 152.04H81.8133L78.3733 146.28L78.6773 146.216V153H77.2693ZM90.4669 156.2C90.0615 156.2 89.6669 156.131 89.2829 155.992C88.8989 155.864 88.5682 155.672 88.2909 155.416L88.9469 154.264C89.1602 154.467 89.3949 154.621 89.6509 154.728C89.9069 154.835 90.1789 154.888 90.4669 154.888C90.8402 154.888 91.1495 154.792 91.3949 154.6C91.6402 154.408 91.8695 154.067 92.0829 153.576L92.6109 152.408L92.7709 152.216L96.0989 144.52H97.6029L93.4909 153.848C93.2455 154.445 92.9682 154.915 92.6589 155.256C92.3602 155.597 92.0295 155.837 91.6669 155.976C91.3042 156.125 90.9042 156.2 90.4669 156.2ZM92.4829 153.272L88.6109 144.52H90.2109L93.5069 152.072L92.4829 153.272ZM97.33 152.984L97.426 151.688C97.5007 151.699 97.57 151.709 97.634 151.72C97.698 151.731 97.7567 151.736 97.81 151.736C98.1513 151.736 98.418 151.619 98.61 151.384C98.8127 151.149 98.962 150.84 99.058 150.456C99.154 150.061 99.2233 149.619 99.266 149.128C99.3087 148.637 99.3407 148.147 99.362 147.656L99.506 144.52H106.018V153H104.482V145.416L104.85 145.864H100.498L100.85 145.4L100.738 147.752C100.706 148.499 100.647 149.197 100.562 149.848C100.477 150.499 100.343 151.069 100.162 151.56C99.9913 152.051 99.7513 152.435 99.442 152.712C99.1433 152.989 98.754 153.128 98.274 153.128C98.1353 153.128 97.986 153.112 97.826 153.08C97.6767 153.059 97.5113 153.027 97.33 152.984ZM114.412 153V150.024L114.652 150.312H111.948C110.817 150.312 109.932 150.072 109.292 149.592C108.663 149.112 108.348 148.413 108.348 147.496C108.348 146.515 108.684 145.773 109.356 145.272C110.039 144.771 110.945 144.52 112.076 144.52H115.788V153H114.412ZM108.268 153L110.572 149.752H112.156L109.916 153H108.268ZM114.412 149.544V145.432L114.652 145.864H112.124C111.42 145.864 110.876 145.997 110.492 146.264C110.108 146.52 109.916 146.947 109.916 147.544C109.916 148.653 110.631 149.208 112.06 149.208H114.652L114.412 149.544ZM120.465 153V145.464L120.849 145.864H117.361V144.52H125.105V145.864H121.633L122.001 145.464V153H120.465ZM129.933 153.096C129.079 153.096 128.322 152.909 127.661 152.536C126.999 152.163 126.477 151.651 126.093 151C125.709 150.339 125.517 149.592 125.517 148.76C125.517 147.917 125.709 147.171 126.093 146.52C126.477 145.869 126.999 145.363 127.661 145C128.322 144.627 129.079 144.44 129.933 144.44C130.775 144.44 131.527 144.627 132.189 145C132.861 145.363 133.383 145.869 133.757 146.52C134.141 147.16 134.333 147.907 134.333 148.76C134.333 149.603 134.141 150.349 133.757 151C133.383 151.651 132.861 152.163 132.189 152.536C131.527 152.909 130.775 153.096 129.933 153.096ZM129.933 151.752C130.477 151.752 130.962 151.629 131.389 151.384C131.826 151.139 132.167 150.792 132.413 150.344C132.658 149.885 132.781 149.357 132.781 148.76C132.781 148.152 132.658 147.629 132.413 147.192C132.167 146.744 131.826 146.397 131.389 146.152C130.962 145.907 130.477 145.784 129.933 145.784C129.389 145.784 128.903 145.907 128.477 146.152C128.05 146.397 127.709 146.744 127.453 147.192C127.197 147.629 127.069 148.152 127.069 148.76C127.069 149.357 127.197 149.885 127.453 150.344C127.709 150.792 128.05 151.139 128.477 151.384C128.903 151.629 129.389 151.752 129.933 151.752ZM141.047 153.096C140.343 153.096 139.697 152.936 139.111 152.616C138.535 152.285 138.071 151.8 137.719 151.16C137.377 150.52 137.207 149.72 137.207 148.76C137.207 147.8 137.372 147 137.703 146.36C138.044 145.72 138.503 145.24 139.079 144.92C139.665 144.6 140.321 144.44 141.047 144.44C141.879 144.44 142.615 144.621 143.255 144.984C143.895 145.347 144.401 145.853 144.775 146.504C145.148 147.144 145.335 147.896 145.335 148.76C145.335 149.624 145.148 150.381 144.775 151.032C144.401 151.683 143.895 152.189 143.255 152.552C142.615 152.915 141.879 153.096 141.047 153.096ZM136.551 156.104V144.52H138.023V146.808L137.927 148.776L138.087 150.744V156.104H136.551ZM140.919 151.752C141.463 151.752 141.948 151.629 142.375 151.384C142.812 151.139 143.153 150.792 143.399 150.344C143.655 149.885 143.783 149.357 143.783 148.76C143.783 148.152 143.655 147.629 143.399 147.192C143.153 146.744 142.812 146.397 142.375 146.152C141.948 145.907 141.463 145.784 140.919 145.784C140.385 145.784 139.9 145.907 139.463 146.152C139.036 146.397 138.695 146.744 138.439 147.192C138.193 147.629 138.071 148.152 138.071 148.76C138.071 149.357 138.193 149.885 138.439 150.344C138.695 150.792 139.036 151.139 139.463 151.384C139.9 151.629 140.385 151.752 140.919 151.752ZM152.688 153V151.208L152.608 150.872V147.816C152.608 147.165 152.416 146.664 152.032 146.312C151.659 145.949 151.093 145.768 150.336 145.768C149.835 145.768 149.344 145.853 148.864 146.024C148.384 146.184 147.979 146.403 147.648 146.68L147.008 145.528C147.445 145.176 147.968 144.909 148.576 144.728C149.195 144.536 149.84 144.44 150.512 144.44C151.675 144.44 152.571 144.723 153.2 145.288C153.829 145.853 154.144 146.717 154.144 147.88V153H152.688ZM149.904 153.096C149.275 153.096 148.72 152.989 148.24 152.776C147.771 152.563 147.408 152.269 147.152 151.896C146.896 151.512 146.768 151.08 146.768 150.6C146.768 150.141 146.875 149.725 147.088 149.352C147.312 148.979 147.669 148.68 148.16 148.456C148.661 148.232 149.333 148.12 150.176 148.12H152.864V149.224H150.24C149.472 149.224 148.955 149.352 148.688 149.608C148.421 149.864 148.288 150.173 148.288 150.536C148.288 150.952 148.453 151.288 148.784 151.544C149.115 151.789 149.573 151.912 150.16 151.912C150.736 151.912 151.237 151.784 151.664 151.528C152.101 151.272 152.416 150.899 152.608 150.408L152.912 151.464C152.709 151.965 152.352 152.365 151.84 152.664C151.328 152.952 150.683 153.096 149.904 153.096Z" fill="white"/>
<path d="M133.75 47.5H128.5V39.625C128.5 38.1747 127.325 37 125.875 37H110.125C108.675 37 107.5 38.1747 107.5 39.625V47.5H86.5V39.625C86.5 38.1747 85.3253 37 83.875 37H68.125C66.6747 37 65.5 38.1747 65.5 39.625V47.5H60.25C57.351 47.5 55 49.851 55 52.75V94.75C55 97.649 57.351 100 60.25 100H133.75C136.649 100 139 97.649 139 94.75V52.75C139 49.851 136.649 47.5 133.75 47.5ZM86.5 69.8125C86.5 70.5377 85.9127 71.125 85.1875 71.125H66.8125C66.0873 71.125 65.5 70.5377 65.5 69.8125V67.1875C65.5 66.4623 66.0873 65.875 66.8125 65.875H85.1875C85.9127 65.875 86.5 66.4623 86.5 67.1875V69.8125ZM128.5 69.8125C128.5 70.5377 127.913 71.125 127.188 71.125H120.625V77.6875C120.625 78.4127 120.038 79 119.312 79H116.688C115.962 79 115.375 78.4127 115.375 77.6875V71.125H108.812C108.087 71.125 107.5 70.5377 107.5 69.8125V67.1875C107.5 66.4623 108.087 65.875 108.812 65.875H115.375V59.3125C115.375 58.5873 115.962 58 116.688 58H119.312C120.038 58 120.625 58.5873 120.625 59.3125V65.875H127.188C127.913 65.875 128.5 66.4623 128.5 67.1875V69.8125Z" fill="white"/>
</svg>
