<svg width="160" height="160" viewBox="0 0 160 160" fill="none" xmlns="http://www.w3.org/2000/svg">
<rect width="160" height="160" rx="30" fill="#00AAFF"/>
<path d="M51.0366 98.86L51.5616 97.75C52.0216 98.11 52.5266 98.38 53.0766 98.56C53.6366 98.74 54.1916 98.835 54.7416 98.845C55.2916 98.845 55.7966 98.77 56.2566 98.62C56.7266 98.47 57.1016 98.245 57.3816 97.945C57.6616 97.645 57.8016 97.275 57.8016 96.835C57.8016 96.295 57.5816 95.885 57.1416 95.605C56.7116 95.325 56.1116 95.185 55.3416 95.185H53.0016V93.97H55.2366C55.9066 93.97 56.4266 93.835 56.7966 93.565C57.1766 93.285 57.3666 92.9 57.3666 92.41C57.3666 92.04 57.2516 91.73 57.0216 91.48C56.8016 91.22 56.4966 91.025 56.1066 90.895C55.7266 90.765 55.2916 90.7 54.8016 90.7C54.3216 90.69 53.8266 90.755 53.3166 90.895C52.8066 91.025 52.3166 91.235 51.8466 91.525L51.3666 90.295C52.0066 89.935 52.6716 89.685 53.3616 89.545C54.0616 89.395 54.7366 89.35 55.3866 89.41C56.0366 89.46 56.6216 89.61 57.1416 89.86C57.6716 90.1 58.0916 90.42 58.4016 90.82C58.7216 91.21 58.8816 91.68 58.8816 92.23C58.8816 92.73 58.7516 93.175 58.4916 93.565C58.2316 93.945 57.8716 94.24 57.4116 94.45C56.9516 94.65 56.4166 94.75 55.8066 94.75L55.8666 94.345C56.5666 94.345 57.1716 94.46 57.6816 94.69C58.2016 94.91 58.6016 95.225 58.8816 95.635C59.1716 96.045 59.3166 96.52 59.3166 97.06C59.3166 97.57 59.1866 98.025 58.9266 98.425C58.6666 98.815 58.3116 99.145 57.8616 99.415C57.4216 99.675 56.9166 99.865 56.3466 99.985C55.7866 100.105 55.1966 100.145 54.5766 100.105C53.9566 100.065 53.3416 99.945 52.7316 99.745C52.1316 99.545 51.5666 99.25 51.0366 98.86ZM66.4507 100V98.32L66.3757 98.005V95.14C66.3757 94.53 66.1957 94.06 65.8357 93.73C65.4857 93.39 64.9557 93.22 64.2457 93.22C63.7757 93.22 63.3157 93.3 62.8657 93.46C62.4157 93.61 62.0357 93.815 61.7257 94.075L61.1257 92.995C61.5357 92.665 62.0257 92.415 62.5957 92.245C63.1757 92.065 63.7807 91.975 64.4107 91.975C65.5007 91.975 66.3407 92.24 66.9307 92.77C67.5207 93.3 67.8157 94.11 67.8157 95.2V100H66.4507ZM63.8407 100.09C63.2507 100.09 62.7307 99.99 62.2807 99.79C61.8407 99.59 61.5007 99.315 61.2607 98.965C61.0207 98.605 60.9007 98.2 60.9007 97.75C60.9007 97.32 61.0007 96.93 61.2007 96.58C61.4107 96.23 61.7457 95.95 62.2057 95.74C62.6757 95.53 63.3057 95.425 64.0957 95.425H66.6157V96.46H64.1557C63.4357 96.46 62.9507 96.58 62.7007 96.82C62.4507 97.06 62.3257 97.35 62.3257 97.69C62.3257 98.08 62.4807 98.395 62.7907 98.635C63.1007 98.865 63.5307 98.98 64.0807 98.98C64.6207 98.98 65.0907 98.86 65.4907 98.62C65.9007 98.38 66.1957 98.03 66.3757 97.57L66.6607 98.56C66.4707 99.03 66.1357 99.405 65.6557 99.685C65.1757 99.955 64.5707 100.09 63.8407 100.09ZM70.4087 100V92.05H71.8937L75.3137 97.93H74.7137L78.2237 92.05H79.5737V100H78.2687V93.67L78.5087 93.805L75.2987 99.1H74.6687L71.4437 93.7L71.7287 93.64V100H70.4087ZM85.9164 100.09C85.0664 100.09 84.3164 99.915 83.6664 99.565C83.0264 99.215 82.5264 98.735 82.1664 98.125C81.8164 97.515 81.6414 96.815 81.6414 96.025C81.6414 95.235 81.8114 94.535 82.1514 93.925C82.5014 93.315 82.9764 92.84 83.5764 92.5C84.1864 92.15 84.8714 91.975 85.6314 91.975C86.4014 91.975 87.0814 92.145 87.6714 92.485C88.2614 92.825 88.7214 93.305 89.0514 93.925C89.3914 94.535 89.5614 95.25 89.5614 96.07C89.5614 96.13 89.5564 96.2 89.5464 96.28C89.5464 96.36 89.5414 96.435 89.5314 96.505H82.7664V95.47H88.7814L88.1964 95.83C88.2064 95.32 88.1014 94.865 87.8814 94.465C87.6614 94.065 87.3564 93.755 86.9664 93.535C86.5864 93.305 86.1414 93.19 85.6314 93.19C85.1314 93.19 84.6864 93.305 84.2964 93.535C83.9064 93.755 83.6014 94.07 83.3814 94.48C83.1614 94.88 83.0514 95.34 83.0514 95.86V96.1C83.0514 96.63 83.1714 97.105 83.4114 97.525C83.6614 97.935 84.0064 98.255 84.4464 98.485C84.8864 98.715 85.3914 98.83 85.9614 98.83C86.4314 98.83 86.8564 98.75 87.2364 98.59C87.6264 98.43 87.9664 98.19 88.2564 97.87L89.0514 98.8C88.6914 99.22 88.2414 99.54 87.7014 99.76C87.1714 99.98 86.5764 100.09 85.9164 100.09ZM91.7954 100V92.05H93.2354V95.425H97.7654V92.05H99.2054V100H97.7654V96.67H93.2354V100H91.7954ZM106.88 100V98.32L106.805 98.005V95.14C106.805 94.53 106.625 94.06 106.265 93.73C105.915 93.39 105.385 93.22 104.675 93.22C104.205 93.22 103.745 93.3 103.295 93.46C102.845 93.61 102.465 93.815 102.155 94.075L101.555 92.995C101.965 92.665 102.455 92.415 103.025 92.245C103.605 92.065 104.21 91.975 104.84 91.975C105.93 91.975 106.77 92.24 107.36 92.77C107.95 93.3 108.245 94.11 108.245 95.2V100H106.88ZM104.27 100.09C103.68 100.09 103.16 99.99 102.71 99.79C102.27 99.59 101.93 99.315 101.69 98.965C101.45 98.605 101.33 98.2 101.33 97.75C101.33 97.32 101.43 96.93 101.63 96.58C101.84 96.23 102.175 95.95 102.635 95.74C103.105 95.53 103.735 95.425 104.525 95.425H107.045V96.46H104.585C103.865 96.46 103.38 96.58 103.13 96.82C102.88 97.06 102.755 97.35 102.755 97.69C102.755 98.08 102.91 98.395 103.22 98.635C103.53 98.865 103.96 98.98 104.51 98.98C105.05 98.98 105.52 98.86 105.92 98.62C106.33 98.38 106.625 98.03 106.805 97.57L107.09 98.56C106.9 99.03 106.565 99.405 106.085 99.685C105.605 99.955 105 100.09 104.27 100.09ZM31.5068 118V116.32L31.4318 116.005V113.14C31.4318 112.53 31.2518 112.06 30.8918 111.73C30.5418 111.39 30.0118 111.22 29.3018 111.22C28.8318 111.22 28.3718 111.3 27.9218 111.46C27.4718 111.61 27.0918 111.815 26.7818 112.075L26.1818 110.995C26.5918 110.665 27.0818 110.415 27.6518 110.245C28.2318 110.065 28.8368 109.975 29.4668 109.975C30.5568 109.975 31.3968 110.24 31.9868 110.77C32.5768 111.3 32.8718 112.11 32.8718 113.2V118H31.5068ZM28.8968 118.09C28.3068 118.09 27.7868 117.99 27.3368 117.79C26.8968 117.59 26.5568 117.315 26.3168 116.965C26.0768 116.605 25.9568 116.2 25.9568 115.75C25.9568 115.32 26.0568 114.93 26.2568 114.58C26.4668 114.23 26.8018 113.95 27.2618 113.74C27.7318 113.53 28.3618 113.425 29.1518 113.425H31.6718V114.46H29.2118C28.4918 114.46 28.0068 114.58 27.7568 114.82C27.5068 115.06 27.3818 115.35 27.3818 115.69C27.3818 116.08 27.5368 116.395 27.8468 116.635C28.1568 116.865 28.5868 116.98 29.1368 116.98C29.6768 116.98 30.1468 116.86 30.5468 116.62C30.9568 116.38 31.2518 116.03 31.4318 115.57L31.7168 116.56C31.5268 117.03 31.1918 117.405 30.7118 117.685C30.2318 117.955 29.6268 118.09 28.8968 118.09ZM41.2248 118L38.1498 114.13L39.3348 113.41L42.9198 118H41.2248ZM35.4648 118V110.05H36.9048V118H35.4648ZM36.4698 114.64V113.41H39.0948V114.64H36.4698ZM39.4548 114.19L38.1198 114.01L41.1648 110.05H42.7098L39.4548 114.19ZM50.1897 118L47.1147 114.13L48.2997 113.41L51.8847 118H50.1897ZM44.4297 118V110.05H45.8697V118H44.4297ZM45.4347 114.64V113.41H48.0597V114.64H45.4347ZM48.4197 114.19L47.0847 114.01L50.1297 110.05H51.6747L48.4197 114.19ZM53.3454 121C52.9654 121 52.5954 120.935 52.2354 120.805C51.8754 120.685 51.5654 120.505 51.3054 120.265L51.9204 119.185C52.1204 119.375 52.3404 119.52 52.5804 119.62C52.8204 119.72 53.0754 119.77 53.3454 119.77C53.6954 119.77 53.9854 119.68 54.2154 119.5C54.4454 119.32 54.6604 119 54.8604 118.54L55.3554 117.445L55.5054 117.265L58.6254 110.05H60.0354L56.1804 118.795C55.9504 119.355 55.6904 119.795 55.4004 120.115C55.1204 120.435 54.8104 120.66 54.4704 120.79C54.1304 120.93 53.7554 121 53.3454 121ZM55.2354 118.255L51.6054 110.05H53.1054L56.1954 117.13L55.2354 118.255ZM61.5097 118V110.05H62.9947L66.4147 115.93H65.8147L69.3247 110.05H70.6747V118H69.3697V111.67L69.6097 111.805L66.3997 117.1H65.7697L62.5447 111.7L62.8297 111.64V118H61.5097ZM73.8825 121C73.5025 121 73.1325 120.935 72.7725 120.805C72.4125 120.685 72.1025 120.505 71.8425 120.265L72.4575 119.185C72.6575 119.375 72.8775 119.52 73.1175 119.62C73.3575 119.72 73.6125 119.77 73.8825 119.77C74.2325 119.77 74.5225 119.68 74.7525 119.5C74.9825 119.32 75.1975 119 75.3975 118.54L75.8925 117.445L76.0425 117.265L79.1625 110.05H80.5725L76.7175 118.795C76.4875 119.355 76.2275 119.795 75.9375 120.115C75.6575 120.435 75.3475 120.66 75.0075 120.79C74.6675 120.93 74.2925 121 73.8825 121ZM75.7725 118.255L72.1425 110.05H73.6425L76.7325 117.13L75.7725 118.255ZM80.3021 117.985L80.3921 116.77C80.4621 116.78 80.5271 116.79 80.5871 116.8C80.6471 116.81 80.7021 116.815 80.7521 116.815C81.0721 116.815 81.3221 116.705 81.5021 116.485C81.6921 116.265 81.8321 115.975 81.9221 115.615C82.0121 115.245 82.0771 114.83 82.1171 114.37C82.1571 113.91 82.1871 113.45 82.2071 112.99L82.3421 110.05H88.4471V118H87.0071V110.89L87.3521 111.31H83.2721L83.6021 110.875L83.4971 113.08C83.4671 113.78 83.4121 114.435 83.3321 115.045C83.2521 115.655 83.1271 116.19 82.9571 116.65C82.7971 117.11 82.5721 117.47 82.2821 117.73C82.0021 117.99 81.6371 118.12 81.1871 118.12C81.0571 118.12 80.9171 118.105 80.7671 118.075C80.6271 118.055 80.4721 118.025 80.3021 117.985ZM96.3164 118V115.21L96.5414 115.48H94.0064C92.9464 115.48 92.1164 115.255 91.5164 114.805C90.9264 114.355 90.6314 113.7 90.6314 112.84C90.6314 111.92 90.9464 111.225 91.5764 110.755C92.2164 110.285 93.0664 110.05 94.1264 110.05H97.6064V118H96.3164ZM90.5564 118L92.7164 114.955H94.2014L92.1014 118H90.5564ZM96.3164 114.76V110.905L96.5414 111.31H94.1714C93.5114 111.31 93.0014 111.435 92.6414 111.685C92.2814 111.925 92.1014 112.325 92.1014 112.885C92.1014 113.925 92.7714 114.445 94.1114 114.445H96.5414L96.3164 114.76ZM101.991 118V110.935L102.351 111.31H99.081V110.05H106.341V111.31H103.086L103.431 110.935V118H101.991ZM110.867 118.09C110.067 118.09 109.357 117.915 108.737 117.565C108.117 117.215 107.627 116.735 107.267 116.125C106.907 115.505 106.727 114.805 106.727 114.025C106.727 113.235 106.907 112.535 107.267 111.925C107.627 111.315 108.117 110.84 108.737 110.5C109.357 110.15 110.067 109.975 110.867 109.975C111.657 109.975 112.362 110.15 112.982 110.5C113.612 110.84 114.102 111.315 114.452 111.925C114.812 112.525 114.992 113.225 114.992 114.025C114.992 114.815 114.812 115.515 114.452 116.125C114.102 116.735 113.612 117.215 112.982 117.565C112.362 117.915 111.657 118.09 110.867 118.09ZM110.867 116.83C111.377 116.83 111.832 116.715 112.232 116.485C112.642 116.255 112.962 115.93 113.192 115.51C113.422 115.08 113.537 114.585 113.537 114.025C113.537 113.455 113.422 112.965 113.192 112.555C112.962 112.135 112.642 111.81 112.232 111.58C111.832 111.35 111.377 111.235 110.867 111.235C110.357 111.235 109.902 111.35 109.502 111.58C109.102 111.81 108.782 112.135 108.542 112.555C108.302 112.965 108.182 113.455 108.182 114.025C108.182 114.585 108.302 115.08 108.542 115.51C108.782 115.93 109.102 116.255 109.502 116.485C109.902 116.715 110.357 116.83 110.867 116.83ZM121.286 118.09C120.626 118.09 120.021 117.94 119.471 117.64C118.931 117.33 118.496 116.875 118.166 116.275C117.846 115.675 117.686 114.925 117.686 114.025C117.686 113.125 117.841 112.375 118.151 111.775C118.471 111.175 118.901 110.725 119.441 110.425C119.991 110.125 120.606 109.975 121.286 109.975C122.066 109.975 122.756 110.145 123.356 110.485C123.956 110.825 124.431 111.3 124.781 111.91C125.131 112.51 125.306 113.215 125.306 114.025C125.306 114.835 125.131 115.545 124.781 116.155C124.431 116.765 123.956 117.24 123.356 117.58C122.756 117.92 122.066 118.09 121.286 118.09ZM117.071 120.91V110.05H118.451V112.195L118.361 114.04L118.511 115.885V120.91H117.071ZM121.166 116.83C121.676 116.83 122.131 116.715 122.531 116.485C122.941 116.255 123.261 115.93 123.491 115.51C123.731 115.08 123.851 114.585 123.851 114.025C123.851 113.455 123.731 112.965 123.491 112.555C123.261 112.135 122.941 111.81 122.531 111.58C122.131 111.35 121.676 111.235 121.166 111.235C120.666 111.235 120.211 111.35 119.801 111.58C119.401 111.81 119.081 112.135 118.841 112.555C118.611 112.965 118.496 113.455 118.496 114.025C118.496 114.585 118.611 115.08 118.841 115.51C119.081 115.93 119.401 116.255 119.801 116.485C120.211 116.715 120.666 116.83 121.166 116.83ZM132.2 118V116.32L132.125 116.005V113.14C132.125 112.53 131.945 112.06 131.585 111.73C131.235 111.39 130.705 111.22 129.995 111.22C129.525 111.22 129.065 111.3 128.615 111.46C128.165 111.61 127.785 111.815 127.475 112.075L126.875 110.995C127.285 110.665 127.775 110.415 128.345 110.245C128.925 110.065 129.53 109.975 130.16 109.975C131.25 109.975 132.09 110.24 132.68 110.77C133.27 111.3 133.565 112.11 133.565 113.2V118H132.2ZM129.59 118.09C129 118.09 128.48 117.99 128.03 117.79C127.59 117.59 127.25 117.315 127.01 116.965C126.77 116.605 126.65 116.2 126.65 115.75C126.65 115.32 126.75 114.93 126.95 114.58C127.16 114.23 127.495 113.95 127.955 113.74C128.425 113.53 129.055 113.425 129.845 113.425H132.365V114.46H129.905C129.185 114.46 128.7 114.58 128.45 114.82C128.2 115.06 128.075 115.35 128.075 115.69C128.075 116.08 128.23 116.395 128.54 116.635C128.85 116.865 129.28 116.98 129.83 116.98C130.37 116.98 130.84 116.86 131.24 116.62C131.65 116.38 131.945 116.03 132.125 115.57L132.41 116.56C132.22 117.03 131.885 117.405 131.405 117.685C130.925 117.955 130.32 118.09 129.59 118.09Z" fill="white"/>
<path d="M102.75 43.5H99.5V38.625C99.5 37.7272 98.7728 37 97.875 37H88.125C87.2272 37 86.5 37.7272 86.5 38.625V43.5H73.5V38.625C73.5 37.7272 72.7728 37 71.875 37H62.125C61.2272 37 60.5 37.7272 60.5 38.625V43.5H57.25C55.4554 43.5 54 44.9554 54 46.75V72.75C54 74.5446 55.4554 76 57.25 76H102.75C104.545 76 106 74.5446 106 72.75V46.75C106 44.9554 104.545 43.5 102.75 43.5ZM73.5 57.3125C73.5 57.7614 73.1364 58.125 72.6875 58.125H61.3125C60.8636 58.125 60.5 57.7614 60.5 57.3125V55.6875C60.5 55.2386 60.8636 54.875 61.3125 54.875H72.6875C73.1364 54.875 73.5 55.2386 73.5 55.6875V57.3125ZM99.5 57.3125C99.5 57.7614 99.1364 58.125 98.6875 58.125H94.625V62.1875C94.625 62.6364 94.2614 63 93.8125 63H92.1875C91.7386 63 91.375 62.6364 91.375 62.1875V58.125H87.3125C86.8636 58.125 86.5 57.7614 86.5 57.3125V55.6875C86.5 55.2386 86.8636 54.875 87.3125 54.875H91.375V50.8125C91.375 50.3636 91.7386 50 92.1875 50H93.8125C94.2614 50 94.625 50.3636 94.625 50.8125V54.875H98.6875C99.1364 54.875 99.5 55.2386 99.5 55.6875V57.3125Z" fill="white"/>
</svg>
