<svg width="260" height="260" viewBox="0 0 260 260" fill="none" xmlns="http://www.w3.org/2000/svg">
<path d="M0 50C0 26.4298 0 14.6447 7.32233 7.32233C14.6447 0 26.4298 0 50 0H222.02C222.232 0 222.339 0 222.411 0.00263821C225.426 0.112163 227.239 3.39119 225.729 6.00223C225.693 6.06513 225.636 6.15524 225.523 6.33547C224.509 7.95089 224.002 8.75859 223.784 9.14281C214.265 25.9084 231.642 45.11 249.272 37.3059C249.676 37.127 250.53 36.7029 252.238 35.8545L253.875 35.0416C254.178 34.8911 254.33 34.8158 254.442 34.7684C256.984 33.6933 259.825 35.4547 259.993 38.2095C260 38.3309 260 38.5001 260 38.8385V210C260 233.57 260 245.355 252.678 252.678C245.355 260 233.57 260 210 260H50C26.4298 260 14.6447 260 7.32233 252.678C0 245.355 0 233.57 0 210V50Z" fill="#F3F5F7"/>
<mask id="mask0_103_16" style="mask-type:alpha" maskUnits="userSpaceOnUse" x="0" y="0" width="260" height="260">
<path d="M0 50C0 26.4298 0 14.6447 7.32233 7.32233C14.6447 0 26.4298 0 50 0H222.02C222.232 0 222.339 0 222.411 0.00263821C225.426 0.112163 227.239 3.39119 225.729 6.00223C225.693 6.06513 225.636 6.15524 225.523 6.33547C224.509 7.95089 224.002 8.75859 223.784 9.14281C214.265 25.9084 231.642 45.11 249.272 37.3059C249.676 37.127 250.53 36.7029 252.238 35.8545L253.875 35.0416C254.178 34.8911 254.33 34.8158 254.442 34.7684C256.984 33.6933 259.825 35.4547 259.993 38.2095C260 38.3309 260 38.5001 260 38.8385V210C260 233.57 260 245.355 252.678 252.678C245.355 260 233.57 260 210 260H50C26.4298 260 14.6447 260 7.32233 252.678C0 245.355 0 233.57 0 210V50Z" fill="#F3F5F7"/>
</mask>
<g mask="url(#mask0_103_16)">
<path d="M0.519981 105.92C-6.92002 105.92 -13.52 104.2 -19.28 100.76C-24.96 97.32 -29.44 92.32 -32.72 85.76C-35.92 79.2 -37.52 71.28 -37.52 62C-37.52 52.72 -35.92 44.8 -32.72 38.24C-29.44 31.68 -24.96 26.68 -19.28 23.24C-13.52 19.8 -6.92002 18.08 0.519981 18.08C7.95998 18.08 14.52 19.8 20.2 23.24C25.96 26.68 30.44 31.68 33.64 38.24C36.92 44.8 38.56 52.72 38.56 62C38.56 71.28 36.92 79.2 33.64 85.76C30.44 92.32 25.96 97.32 20.2 100.76C14.52 104.2 7.95998 105.92 0.519981 105.92ZM0.519981 83.24C2.35998 83.24 3.99998 82.6 5.43998 81.32C6.87998 80.04 7.99998 77.84 8.79998 74.72C9.67999 71.6 10.12 67.36 10.12 62C10.12 56.56 9.67999 52.32 8.79998 49.28C7.99998 46.16 6.87998 43.96 5.43998 42.68C3.99998 41.4 2.35998 40.76 0.519981 40.76C-1.32002 40.76 -2.96002 41.4 -4.40002 42.68C-5.84002 43.96 -7.00002 46.16 -7.88002 49.28C-8.68002 52.32 -9.08002 56.56 -9.08002 62C-9.08002 67.36 -8.68002 71.6 -7.88002 74.72C-7.00002 77.84 -5.84002 80.04 -4.40002 81.32C-2.96002 82.6 -1.32002 83.24 0.519981 83.24Z" fill="#00AAFF" fill-opacity="0.1"/>
<path d="M73.314 105.92C67.554 105.92 61.714 105.28 55.794 104C49.874 102.72 44.674 100.84 40.194 98.36L49.794 77.48C53.394 79.56 57.154 81.12 61.074 82.16C65.074 83.12 68.834 83.6 72.354 83.6C75.554 83.6 78.154 83.08 80.154 82.04C82.234 80.92 83.274 79.28 83.274 77.12C83.274 75.28 82.514 73.88 80.994 72.92C79.4741 71.88 76.914 71.36 73.314 71.36H62.154V53.96L83.874 31.88L86.394 41.36H44.514V20H107.154V37.4L85.434 59.48L71.874 51.8H79.314C89.874 51.8 97.914 54.16 103.434 58.88C108.954 63.6 111.714 69.68 111.714 77.12C111.714 81.92 110.354 86.52 107.634 90.92C104.994 95.32 100.834 98.92 95.1541 101.72C89.5541 104.52 82.274 105.92 73.314 105.92Z" fill="#00AAFF" fill-opacity="0.1"/>
</g>
<circle cx="242.5" cy="17.5" r="17.5" fill="#F3F5F7"/>
<path d="M235 18.25H250M250 18.25L243 11M250 18.25L243 25" stroke="#00AAFF" stroke-width="2" stroke-linecap="round" stroke-linejoin="round"/>
<path d="M16.853 157V145.1H21.97C23.262 145.1 24.2763 145.361 25.013 145.882C25.7497 146.403 26.118 147.163 26.118 148.16C26.118 149.135 25.7667 149.883 25.064 150.404C24.3613 150.914 23.4377 151.169 22.293 151.169L22.599 150.659C23.925 150.659 24.9393 150.925 25.642 151.458C26.356 151.979 26.713 152.744 26.713 153.753C26.713 154.773 26.339 155.572 25.591 156.15C24.8543 156.717 23.755 157 22.293 157H16.853ZM18.536 155.657H22.259C23.1657 155.657 23.8457 155.493 24.299 155.164C24.7637 154.824 24.996 154.308 24.996 153.617C24.996 152.926 24.7637 152.421 24.299 152.104C23.8457 151.787 23.1657 151.628 22.259 151.628H18.536V155.657ZM18.536 150.336H21.851C22.6783 150.336 23.3073 150.172 23.738 149.843C24.18 149.514 24.401 149.033 24.401 148.398C24.401 147.752 24.18 147.265 23.738 146.936C23.3073 146.607 22.6783 146.443 21.851 146.443H18.536V150.336ZM33.2082 157.102C32.2902 157.102 31.4685 156.904 30.7432 156.507C30.0292 156.11 29.4682 155.566 29.0602 154.875C28.6522 154.184 28.4482 153.39 28.4482 152.495C28.4482 151.6 28.6522 150.806 29.0602 150.115C29.4682 149.424 30.0292 148.885 30.7432 148.5C31.4685 148.103 32.2902 147.905 33.2082 147.905C34.0242 147.905 34.7495 148.069 35.3842 148.398C36.0302 148.715 36.5289 149.191 36.8802 149.826L35.6392 150.625C35.3445 150.183 34.9819 149.86 34.5512 149.656C34.1319 149.441 33.6785 149.333 33.1912 149.333C32.6019 149.333 32.0749 149.463 31.6102 149.724C31.1455 149.985 30.7772 150.353 30.5052 150.829C30.2332 151.294 30.0972 151.849 30.0972 152.495C30.0972 153.141 30.2332 153.702 30.5052 154.178C30.7772 154.654 31.1455 155.022 31.6102 155.283C32.0749 155.544 32.6019 155.674 33.1912 155.674C33.6785 155.674 34.1319 155.572 34.5512 155.368C34.9819 155.153 35.3445 154.824 35.6392 154.382L36.8802 155.164C36.5289 155.787 36.0302 156.269 35.3842 156.609C34.7495 156.938 34.0242 157.102 33.2082 157.102ZM40.6619 157V148.993L41.0699 149.418H37.3639V147.99H45.5919V149.418H41.9029L42.2939 148.993V157H40.6619ZM52.0377 157.102C51.2897 157.102 50.604 156.932 49.9807 156.592C49.3687 156.241 48.8757 155.725 48.5017 155.045C48.139 154.365 47.9577 153.515 47.9577 152.495C47.9577 151.475 48.1334 150.625 48.4847 149.945C48.8474 149.265 49.3347 148.755 49.9467 148.415C50.57 148.075 51.267 147.905 52.0377 147.905C52.9217 147.905 53.7037 148.098 54.3837 148.483C55.0637 148.868 55.602 149.407 55.9987 150.098C56.3954 150.778 56.5937 151.577 56.5937 152.495C56.5937 153.413 56.3954 154.218 55.9987 154.909C55.602 155.6 55.0637 156.139 54.3837 156.524C53.7037 156.909 52.9217 157.102 52.0377 157.102ZM47.2607 160.298V147.99H48.8247V150.421L48.7227 152.512L48.8927 154.603V160.298H47.2607ZM51.9017 155.674C52.4797 155.674 52.9954 155.544 53.4487 155.283C53.9134 155.022 54.276 154.654 54.5367 154.178C54.8087 153.691 54.9447 153.13 54.9447 152.495C54.9447 151.849 54.8087 151.294 54.5367 150.829C54.276 150.353 53.9134 149.985 53.4487 149.724C52.9954 149.463 52.4797 149.333 51.9017 149.333C51.335 149.333 50.8194 149.463 50.3547 149.724C49.9014 149.985 49.5387 150.353 49.2667 150.829C49.006 151.294 48.8757 151.849 48.8757 152.495C48.8757 153.13 49.006 153.691 49.2667 154.178C49.5387 154.654 49.9014 155.022 50.3547 155.283C50.8194 155.544 51.335 155.674 51.9017 155.674ZM62.9768 157.102C62.0135 157.102 61.1635 156.904 60.4268 156.507C59.7015 156.11 59.1348 155.566 58.7268 154.875C58.3301 154.184 58.1318 153.39 58.1318 152.495C58.1318 151.6 58.3245 150.806 58.7098 150.115C59.1065 149.424 59.6448 148.885 60.3248 148.5C61.0161 148.103 61.7925 147.905 62.6538 147.905C63.5265 147.905 64.2971 148.098 64.9658 148.483C65.6345 148.868 66.1558 149.412 66.5298 150.115C66.9151 150.806 67.1078 151.617 67.1078 152.546C67.1078 152.614 67.1021 152.693 67.0908 152.784C67.0908 152.875 67.0851 152.96 67.0738 153.039H59.4068V151.866H66.2238L65.5608 152.274C65.5721 151.696 65.4531 151.18 65.2038 150.727C64.9545 150.274 64.6088 149.922 64.1668 149.673C63.7361 149.412 63.2318 149.282 62.6538 149.282C62.0871 149.282 61.5828 149.412 61.1408 149.673C60.6988 149.922 60.3531 150.279 60.1038 150.744C59.8545 151.197 59.7298 151.719 59.7298 152.308V152.58C59.7298 153.181 59.8658 153.719 60.1378 154.195C60.4211 154.66 60.8121 155.022 61.3108 155.283C61.8095 155.544 62.3818 155.674 63.0278 155.674C63.5605 155.674 64.0421 155.583 64.4728 155.402C64.9148 155.221 65.3001 154.949 65.6288 154.586L66.5298 155.64C66.1218 156.116 65.6118 156.479 64.9998 156.728C64.3991 156.977 63.7248 157.102 62.9768 157.102ZM75.3176 153.311C74.8416 153.538 74.3486 153.719 73.8386 153.855C73.3399 153.98 72.8243 154.042 72.2916 154.042C71.2036 154.042 70.3423 153.787 69.7076 153.277C69.0843 152.767 68.7726 151.979 68.7726 150.914V147.99H70.4046V150.812C70.4046 151.458 70.6029 151.934 70.9996 152.24C71.4076 152.546 71.9516 152.699 72.6316 152.699C73.0623 152.699 73.5043 152.642 73.9576 152.529C74.4223 152.416 74.8756 152.257 75.3176 152.053V153.311ZM75.1986 157V147.99H76.8306V157H75.1986ZM85.524 157V155.096L85.439 154.739V151.492C85.439 150.801 85.235 150.268 84.827 149.894C84.4303 149.509 83.8296 149.316 83.025 149.316C82.4923 149.316 81.971 149.407 81.461 149.588C80.951 149.758 80.5203 149.99 80.169 150.285L79.489 149.061C79.9536 148.687 80.509 148.404 81.155 148.211C81.8123 148.007 82.498 147.905 83.212 147.905C84.4473 147.905 85.3993 148.205 86.068 148.806C86.7366 149.407 87.071 150.325 87.071 151.56V157H85.524ZM82.566 157.102C81.8973 157.102 81.308 156.989 80.798 156.762C80.2993 156.535 79.914 156.224 79.642 155.827C79.37 155.419 79.234 154.96 79.234 154.45C79.234 153.963 79.3473 153.521 79.574 153.124C79.812 152.727 80.1916 152.41 80.713 152.172C81.2456 151.934 81.9596 151.815 82.855 151.815H85.711V152.988H82.923C82.107 152.988 81.5573 153.124 81.274 153.396C80.9906 153.668 80.849 153.997 80.849 154.382C80.849 154.824 81.0246 155.181 81.376 155.453C81.7273 155.714 82.2146 155.844 82.838 155.844C83.45 155.844 83.9826 155.708 84.436 155.436C84.9006 155.164 85.235 154.767 85.439 154.246L85.762 155.368C85.5466 155.901 85.167 156.326 84.623 156.643C84.079 156.949 83.3933 157.102 82.566 157.102ZM98.5021 157.102C97.5841 157.102 96.7625 156.904 96.0371 156.507C95.3231 156.11 94.7621 155.566 94.3541 154.875C93.9461 154.184 93.7421 153.39 93.7421 152.495C93.7421 151.6 93.9461 150.806 94.3541 150.115C94.7621 149.424 95.3231 148.885 96.0371 148.5C96.7625 148.103 97.5841 147.905 98.5021 147.905C99.3181 147.905 100.043 148.069 100.678 148.398C101.324 148.715 101.823 149.191 102.174 149.826L100.933 150.625C100.638 150.183 100.276 149.86 99.8451 149.656C99.4258 149.441 98.9725 149.333 98.4851 149.333C97.8958 149.333 97.3688 149.463 96.9041 149.724C96.4395 149.985 96.0711 150.353 95.7991 150.829C95.5271 151.294 95.3911 151.849 95.3911 152.495C95.3911 153.141 95.5271 153.702 95.7991 154.178C96.0711 154.654 96.4395 155.022 96.9041 155.283C97.3688 155.544 97.8958 155.674 98.4851 155.674C98.9725 155.674 99.4258 155.572 99.8451 155.368C100.276 155.153 100.638 154.824 100.933 154.382L102.174 155.164C101.823 155.787 101.324 156.269 100.678 156.609C100.043 156.938 99.3181 157.102 98.5021 157.102ZM108.852 157V147.99H117.199V157H115.567V149.01L115.958 149.418H110.093L110.484 149.01V157H108.852ZM125.134 157.102C124.386 157.102 123.701 156.932 123.077 156.592C122.465 156.241 121.972 155.725 121.598 155.045C121.236 154.365 121.054 153.515 121.054 152.495C121.054 151.475 121.23 150.625 121.581 149.945C121.944 149.265 122.431 148.755 123.043 148.415C123.667 148.075 124.364 147.905 125.134 147.905C126.018 147.905 126.8 148.098 127.48 148.483C128.16 148.868 128.699 149.407 129.095 150.098C129.492 150.778 129.69 151.577 129.69 152.495C129.69 153.413 129.492 154.218 129.095 154.909C128.699 155.6 128.16 156.139 127.48 156.524C126.8 156.909 126.018 157.102 125.134 157.102ZM120.357 160.298V147.99H121.921V150.421L121.819 152.512L121.989 154.603V160.298H120.357ZM124.998 155.674C125.576 155.674 126.092 155.544 126.545 155.283C127.01 155.022 127.373 154.654 127.633 154.178C127.905 153.691 128.041 153.13 128.041 152.495C128.041 151.849 127.905 151.294 127.633 150.829C127.373 150.353 127.01 149.985 126.545 149.724C126.092 149.463 125.576 149.333 124.998 149.333C124.432 149.333 123.916 149.463 123.451 149.724C122.998 149.985 122.635 150.353 122.363 150.829C122.103 151.294 121.972 151.849 121.972 152.495C121.972 153.13 122.103 153.691 122.363 154.178C122.635 154.654 122.998 155.022 123.451 155.283C123.916 155.544 124.432 155.674 124.998 155.674ZM135.92 157.102C135.014 157.102 134.209 156.904 133.506 156.507C132.804 156.11 132.248 155.566 131.84 154.875C131.432 154.172 131.228 153.379 131.228 152.495C131.228 151.6 131.432 150.806 131.84 150.115C132.248 149.424 132.804 148.885 133.506 148.5C134.209 148.103 135.014 147.905 135.92 147.905C136.816 147.905 137.615 148.103 138.317 148.5C139.031 148.885 139.587 149.424 139.983 150.115C140.391 150.795 140.595 151.588 140.595 152.495C140.595 153.39 140.391 154.184 139.983 154.875C139.587 155.566 139.031 156.11 138.317 156.507C137.615 156.904 136.816 157.102 135.92 157.102ZM135.92 155.674C136.498 155.674 137.014 155.544 137.467 155.283C137.932 155.022 138.295 154.654 138.555 154.178C138.816 153.691 138.946 153.13 138.946 152.495C138.946 151.849 138.816 151.294 138.555 150.829C138.295 150.353 137.932 149.985 137.467 149.724C137.014 149.463 136.498 149.333 135.92 149.333C135.342 149.333 134.827 149.463 134.373 149.724C133.92 149.985 133.557 150.353 133.285 150.829C133.013 151.294 132.877 151.849 132.877 152.495C132.877 153.13 133.013 153.691 133.285 154.178C133.557 154.654 133.92 155.022 134.373 155.283C134.827 155.544 135.342 155.674 135.92 155.674ZM149.04 156.235V149.418H145.13L145.045 151.152C145.022 151.719 144.982 152.268 144.926 152.801C144.88 153.322 144.801 153.804 144.688 154.246C144.586 154.688 144.433 155.051 144.229 155.334C144.025 155.617 143.753 155.793 143.413 155.861L141.798 155.572C142.149 155.583 142.432 155.47 142.648 155.232C142.863 154.983 143.027 154.643 143.141 154.212C143.265 153.781 143.356 153.294 143.413 152.75C143.469 152.195 143.515 151.622 143.549 151.033L143.685 147.99H150.672V156.235H149.04ZM141.441 159.091V155.572H152.049V159.091H150.519V157H142.988V159.091H141.441ZM159.7 157V155.096L159.615 154.739V151.492C159.615 150.801 159.411 150.268 159.003 149.894C158.606 149.509 158.005 149.316 157.201 149.316C156.668 149.316 156.147 149.407 155.637 149.588C155.127 149.758 154.696 149.99 154.345 150.285L153.665 149.061C154.129 148.687 154.685 148.404 155.331 148.211C155.988 148.007 156.674 147.905 157.388 147.905C158.623 147.905 159.575 148.205 160.244 148.806C160.912 149.407 161.247 150.325 161.247 151.56V157H159.7ZM156.742 157.102C156.073 157.102 155.484 156.989 154.974 156.762C154.475 156.535 154.09 156.224 153.818 155.827C153.546 155.419 153.41 154.96 153.41 154.45C153.41 153.963 153.523 153.521 153.75 153.124C153.988 152.727 154.367 152.41 154.889 152.172C155.421 151.934 156.135 151.815 157.031 151.815H159.887V152.988H157.099C156.283 152.988 155.733 153.124 155.45 153.396C155.166 153.668 155.025 153.997 155.025 154.382C155.025 154.824 155.2 155.181 155.552 155.453C155.903 155.714 156.39 155.844 157.014 155.844C157.626 155.844 158.158 155.708 158.612 155.436C159.076 155.164 159.411 154.767 159.615 154.246L159.938 155.368C159.722 155.901 159.343 156.326 158.799 156.643C158.255 156.949 157.569 157.102 156.742 157.102ZM164.185 157V147.99H168.367C169.421 147.99 170.249 148.194 170.849 148.602C171.461 148.999 171.767 149.565 171.767 150.302C171.767 151.039 171.478 151.611 170.9 152.019C170.334 152.416 169.58 152.614 168.639 152.614L168.894 152.172C169.971 152.172 170.77 152.37 171.291 152.767C171.813 153.164 172.073 153.747 172.073 154.518C172.073 155.3 171.779 155.912 171.189 156.354C170.611 156.785 169.722 157 168.52 157H164.185ZM165.783 155.742H168.401C169.081 155.742 169.591 155.64 169.931 155.436C170.271 155.221 170.441 154.881 170.441 154.416C170.441 153.94 170.283 153.594 169.965 153.379C169.659 153.152 169.172 153.039 168.503 153.039H165.783V155.742ZM165.783 151.866H168.231C168.855 151.866 169.325 151.753 169.642 151.526C169.971 151.288 170.135 150.959 170.135 150.54C170.135 150.109 169.971 149.786 169.642 149.571C169.325 149.356 168.855 149.248 168.231 149.248H165.783V151.866ZM174.628 157V147.99H176.26V155.572H181.19V147.99H182.822V157H174.628ZM182.703 159.091V156.915L183.111 157H181.19V155.572H184.25V159.091H182.703ZM190.224 157.102C189.318 157.102 188.513 156.904 187.81 156.507C187.108 156.11 186.552 155.566 186.144 154.875C185.736 154.172 185.532 153.379 185.532 152.495C185.532 151.6 185.736 150.806 186.144 150.115C186.552 149.424 187.108 148.885 187.81 148.5C188.513 148.103 189.318 147.905 190.224 147.905C191.12 147.905 191.919 148.103 192.621 148.5C193.335 148.885 193.891 149.424 194.287 150.115C194.695 150.795 194.899 151.588 194.899 152.495C194.899 153.39 194.695 154.184 194.287 154.875C193.891 155.566 193.335 156.11 192.621 156.507C191.919 156.904 191.12 157.102 190.224 157.102ZM190.224 155.674C190.802 155.674 191.318 155.544 191.771 155.283C192.236 155.022 192.599 154.654 192.859 154.178C193.12 153.691 193.25 153.13 193.25 152.495C193.25 151.849 193.12 151.294 192.859 150.829C192.599 150.353 192.236 149.985 191.771 149.724C191.318 149.463 190.802 149.333 190.224 149.333C189.646 149.333 189.131 149.463 188.677 149.724C188.224 149.985 187.861 150.353 187.589 150.829C187.317 151.294 187.181 151.849 187.181 152.495C187.181 153.13 187.317 153.691 187.589 154.178C187.861 154.654 188.224 155.022 188.677 155.283C189.131 155.544 189.646 155.674 190.224 155.674ZM197.256 157V147.99H198.939L202.815 154.654H202.135L206.113 147.99H207.643V157H206.164V149.826L206.436 149.979L202.798 155.98H202.084L198.429 149.86L198.752 149.792V157H197.256ZM22.106 178V176.096L22.021 175.739V172.492C22.021 171.801 21.817 171.268 21.409 170.894C21.0123 170.509 20.4117 170.316 19.607 170.316C19.0743 170.316 18.553 170.407 18.043 170.588C17.533 170.758 17.1023 170.99 16.751 171.285L16.071 170.061C16.5357 169.687 17.091 169.404 17.737 169.211C18.3943 169.007 19.08 168.905 19.794 168.905C21.0293 168.905 21.9813 169.205 22.65 169.806C23.3187 170.407 23.653 171.325 23.653 172.56V178H22.106ZM19.148 178.102C18.4793 178.102 17.89 177.989 17.38 177.762C16.8813 177.535 16.496 177.224 16.224 176.827C15.952 176.419 15.816 175.96 15.816 175.45C15.816 174.963 15.9293 174.521 16.156 174.124C16.394 173.727 16.7737 173.41 17.295 173.172C17.8277 172.934 18.5417 172.815 19.437 172.815H22.293V173.988H19.505C18.689 173.988 18.1393 174.124 17.856 174.396C17.5727 174.668 17.431 174.997 17.431 175.382C17.431 175.824 17.6067 176.181 17.958 176.453C18.3093 176.714 18.7967 176.844 19.42 176.844C20.032 176.844 20.5647 176.708 21.018 176.436C21.4827 176.164 21.817 175.767 22.021 175.246L22.344 176.368C22.1287 176.901 21.749 177.326 21.205 177.643C20.661 177.949 19.9753 178.102 19.148 178.102ZM26.5917 178V168.99H30.7737C31.8277 168.99 32.6551 169.194 33.2557 169.602C33.8677 169.999 34.1737 170.565 34.1737 171.302C34.1737 172.039 33.8847 172.611 33.3067 173.019C32.7401 173.416 31.9864 173.614 31.0457 173.614L31.3007 173.172C32.3774 173.172 33.1764 173.37 33.6977 173.767C34.2191 174.164 34.4797 174.747 34.4797 175.518C34.4797 176.3 34.1851 176.912 33.5957 177.354C33.0177 177.785 32.1281 178 30.9267 178H26.5917ZM28.1897 176.742H30.8077C31.4877 176.742 31.9977 176.64 32.3377 176.436C32.6777 176.221 32.8477 175.881 32.8477 175.416C32.8477 174.94 32.6891 174.594 32.3717 174.379C32.0657 174.152 31.5784 174.039 30.9097 174.039H28.1897V176.742ZM28.1897 172.866H30.6377C31.2611 172.866 31.7314 172.753 32.0487 172.526C32.3774 172.288 32.5417 171.959 32.5417 171.54C32.5417 171.109 32.3774 170.786 32.0487 170.571C31.7314 170.356 31.2611 170.248 30.6377 170.248H28.1897V172.866ZM38.8191 178V169.993L39.2271 170.418H35.5211V168.99H43.7491V170.418H40.0601L40.4511 169.993V178H38.8191ZM48.8785 178.102C47.9718 178.102 47.1671 177.904 46.4645 177.507C45.7618 177.11 45.2065 176.566 44.7985 175.875C44.3905 175.172 44.1865 174.379 44.1865 173.495C44.1865 172.6 44.3905 171.806 44.7985 171.115C45.2065 170.424 45.7618 169.885 46.4645 169.5C47.1671 169.103 47.9718 168.905 48.8785 168.905C49.7738 168.905 50.5728 169.103 51.2755 169.5C51.9895 169.885 52.5448 170.424 52.9415 171.115C53.3495 171.795 53.5535 172.588 53.5535 173.495C53.5535 174.39 53.3495 175.184 52.9415 175.875C52.5448 176.566 51.9895 177.11 51.2755 177.507C50.5728 177.904 49.7738 178.102 48.8785 178.102ZM48.8785 176.674C49.4565 176.674 49.9721 176.544 50.4255 176.283C50.8901 176.022 51.2528 175.654 51.5135 175.178C51.7741 174.691 51.9045 174.13 51.9045 173.495C51.9045 172.849 51.7741 172.294 51.5135 171.829C51.2528 171.353 50.8901 170.985 50.4255 170.724C49.9721 170.463 49.4565 170.333 48.8785 170.333C48.3005 170.333 47.7848 170.463 47.3315 170.724C46.8781 170.985 46.5155 171.353 46.2435 171.829C45.9715 172.294 45.8355 172.849 45.8355 173.495C45.8355 174.13 45.9715 174.691 46.2435 175.178C46.5155 175.654 46.8781 176.022 47.3315 176.283C47.7848 176.544 48.3005 176.674 48.8785 176.674ZM55.9101 178V168.99H57.5931L61.4691 175.654H60.7891L64.7671 168.99H66.2971V178H64.8181V170.826L65.0901 170.979L61.4521 176.98H60.7381L57.0831 170.86L57.4061 170.792V178H55.9101ZM73.3326 178.102C72.4259 178.102 71.6212 177.904 70.9186 177.507C70.2159 177.11 69.6606 176.566 69.2526 175.875C68.8446 175.172 68.6406 174.379 68.6406 173.495C68.6406 172.6 68.8446 171.806 69.2526 171.115C69.6606 170.424 70.2159 169.885 70.9186 169.5C71.6212 169.103 72.4259 168.905 73.3326 168.905C74.2279 168.905 75.0269 169.103 75.7296 169.5C76.4436 169.885 76.9989 170.424 77.3956 171.115C77.8036 171.795 78.0076 172.588 78.0076 173.495C78.0076 174.39 77.8036 175.184 77.3956 175.875C76.9989 176.566 76.4436 177.11 75.7296 177.507C75.0269 177.904 74.2279 178.102 73.3326 178.102ZM73.3326 176.674C73.9106 176.674 74.4262 176.544 74.8796 176.283C75.3442 176.022 75.7069 175.654 75.9676 175.178C76.2282 174.691 76.3586 174.13 76.3586 173.495C76.3586 172.849 76.2282 172.294 75.9676 171.829C75.7069 171.353 75.3442 170.985 74.8796 170.724C74.4262 170.463 73.9106 170.333 73.3326 170.333C72.7546 170.333 72.2389 170.463 71.7856 170.724C71.3322 170.985 70.9696 171.353 70.6976 171.829C70.4256 172.294 70.2896 172.849 70.2896 173.495C70.2896 174.13 70.4256 174.691 70.6976 175.178C70.9696 175.654 71.3322 176.022 71.7856 176.283C72.2389 176.544 72.7546 176.674 73.3326 176.674ZM84.5292 178.136C83.7812 178.136 83.1182 178.017 82.5402 177.779C81.9735 177.541 81.4862 177.19 81.0782 176.725C80.6702 176.249 80.3585 175.654 80.1432 174.94C79.9392 174.215 79.8372 173.365 79.8372 172.39C79.8372 171.619 79.9052 170.928 80.0412 170.316C80.1772 169.704 80.3699 169.16 80.6192 168.684C80.8799 168.208 81.1972 167.794 81.5712 167.443C81.9565 167.092 82.3872 166.803 82.8632 166.576C83.3505 166.338 83.8832 166.157 84.4612 166.032L88.5752 165.114L88.8132 166.627L85.0222 167.443C84.7955 167.488 84.5235 167.556 84.2062 167.647C83.8889 167.738 83.5659 167.879 83.2372 168.072C82.9085 168.253 82.6025 168.508 82.3192 168.837C82.0359 169.166 81.8092 169.596 81.6392 170.129C81.4692 170.65 81.3842 171.296 81.3842 172.067C81.3842 172.282 81.3899 172.447 81.4012 172.56C81.4125 172.673 81.4239 172.787 81.4352 172.9C81.4579 173.013 81.4749 173.183 81.4862 173.41L80.8062 172.713C80.9875 172.09 81.2765 171.546 81.6732 171.081C82.0699 170.616 82.5459 170.259 83.1012 170.01C83.6679 169.749 84.2855 169.619 84.9542 169.619C85.7929 169.619 86.5352 169.8 87.1812 170.163C87.8385 170.526 88.3542 171.024 88.7282 171.659C89.1022 172.294 89.2892 173.019 89.2892 173.835C89.2892 174.662 89.0909 175.405 88.6942 176.062C88.3089 176.708 87.7592 177.218 87.0452 177.592C86.3312 177.955 85.4925 178.136 84.5292 178.136ZM84.6822 176.776C85.2602 176.776 85.7702 176.651 86.2122 176.402C86.6542 176.141 86.9999 175.796 87.2492 175.365C87.4985 174.923 87.6232 174.43 87.6232 173.886C87.6232 173.342 87.4985 172.86 87.2492 172.441C86.9999 172.022 86.6542 171.693 86.2122 171.455C85.7702 171.206 85.2489 171.081 84.6482 171.081C84.0815 171.081 83.5715 171.2 83.1182 171.438C82.6649 171.665 82.3135 171.988 82.0642 172.407C81.8149 172.815 81.6902 173.291 81.6902 173.835C81.6902 174.379 81.8149 174.878 82.0642 175.331C82.3249 175.773 82.6762 176.124 83.1182 176.385C83.5715 176.646 84.0929 176.776 84.6822 176.776ZM91.6201 178V168.99H93.2521V175.552L98.7771 168.99H100.256V178H98.6241V171.438L93.1161 178H91.6201ZM101.928 177.983L102.03 176.606C102.109 176.617 102.183 176.629 102.251 176.64C102.319 176.651 102.381 176.657 102.438 176.657C102.8 176.657 103.084 176.532 103.288 176.283C103.503 176.034 103.662 175.705 103.764 175.297C103.866 174.878 103.939 174.407 103.985 173.886C104.03 173.365 104.064 172.843 104.087 172.322L104.24 168.99H111.159V178H109.527V169.942L109.918 170.418H105.294L105.668 169.925L105.549 172.424C105.515 173.217 105.452 173.96 105.362 174.651C105.271 175.342 105.129 175.949 104.937 176.47C104.755 176.991 104.5 177.399 104.172 177.694C103.854 177.989 103.441 178.136 102.931 178.136C102.783 178.136 102.625 178.119 102.455 178.085C102.296 178.062 102.12 178.028 101.928 177.983ZM120.077 178V174.838L120.332 175.144H117.459C116.258 175.144 115.317 174.889 114.637 174.379C113.969 173.869 113.634 173.127 113.634 172.152C113.634 171.109 113.991 170.322 114.705 169.789C115.431 169.256 116.394 168.99 117.595 168.99H121.539V178H120.077ZM113.549 178L115.997 174.549H117.68L115.3 178H113.549ZM120.077 174.328V169.959L120.332 170.418H117.646C116.898 170.418 116.32 170.56 115.912 170.843C115.504 171.115 115.3 171.568 115.3 172.203C115.3 173.382 116.06 173.971 117.578 173.971H120.332L120.077 174.328ZM124.044 180.516L124.894 177.082L125.115 178.068C124.786 178.068 124.508 177.966 124.282 177.762C124.066 177.558 123.959 177.28 123.959 176.929C123.959 176.589 124.066 176.311 124.282 176.096C124.508 175.881 124.78 175.773 125.098 175.773C125.426 175.773 125.693 175.886 125.897 176.113C126.101 176.328 126.203 176.6 126.203 176.929C126.203 177.042 126.191 177.156 126.169 177.269C126.157 177.371 126.129 177.496 126.084 177.643C126.05 177.779 125.993 177.949 125.914 178.153L125.115 180.516H124.044ZM133.141 178V168.99H137.323C138.377 168.99 139.204 169.194 139.805 169.602C140.417 169.999 140.723 170.565 140.723 171.302C140.723 172.039 140.434 172.611 139.856 173.019C139.289 173.416 138.535 173.614 137.595 173.614L137.85 173.172C138.926 173.172 139.725 173.37 140.247 173.767C140.768 174.164 141.029 174.747 141.029 175.518C141.029 176.3 140.734 176.912 140.145 177.354C139.567 177.785 138.677 178 137.476 178H133.141ZM134.739 176.742H137.357C138.037 176.742 138.547 176.64 138.887 176.436C139.227 176.221 139.397 175.881 139.397 175.416C139.397 174.94 139.238 174.594 138.921 174.379C138.615 174.152 138.127 174.039 137.459 174.039H134.739V176.742ZM134.739 172.866H137.187C137.81 172.866 138.28 172.753 138.598 172.526C138.926 172.288 139.091 171.959 139.091 171.54C139.091 171.109 138.926 170.786 138.598 170.571C138.28 170.356 137.81 170.248 137.187 170.248H134.739V172.866ZM143.583 178V168.99H145.215V172.815H150.349V168.99H151.981V178H150.349V174.226H145.215V178H143.583ZM159.166 178.102C158.203 178.102 157.353 177.904 156.616 177.507C155.891 177.11 155.324 176.566 154.916 175.875C154.52 175.184 154.321 174.39 154.321 173.495C154.321 172.6 154.514 171.806 154.899 171.115C155.296 170.424 155.834 169.885 156.514 169.5C157.206 169.103 157.982 168.905 158.843 168.905C159.716 168.905 160.487 169.098 161.155 169.483C161.824 169.868 162.345 170.412 162.719 171.115C163.105 171.806 163.297 172.617 163.297 173.546C163.297 173.614 163.292 173.693 163.28 173.784C163.28 173.875 163.275 173.96 163.263 174.039H155.596V172.866H162.413L161.75 173.274C161.762 172.696 161.643 172.18 161.393 171.727C161.144 171.274 160.798 170.922 160.356 170.673C159.926 170.412 159.421 170.282 158.843 170.282C158.277 170.282 157.772 170.412 157.33 170.673C156.888 170.922 156.543 171.279 156.293 171.744C156.044 172.197 155.919 172.719 155.919 173.308V173.58C155.919 174.181 156.055 174.719 156.327 175.195C156.611 175.66 157.002 176.022 157.5 176.283C157.999 176.544 158.571 176.674 159.217 176.674C159.75 176.674 160.232 176.583 160.662 176.402C161.104 176.221 161.49 175.949 161.818 175.586L162.719 176.64C162.311 177.116 161.801 177.479 161.189 177.728C160.589 177.977 159.914 178.102 159.166 178.102ZM171.813 176.572L171.439 176.997V168.99H173.071V176.997L172.663 176.572H177.423L177.032 176.997V168.99H178.664V178H165.829V168.99H167.461V176.997L167.07 176.572H171.813ZM181.833 178V168.99H183.465V172.815H188.599V168.99H190.231V178H188.599V174.226H183.465V178H181.833ZM193.404 178V168.99H195.036V175.552L200.561 168.99H202.04V178H200.408V171.438L194.9 178H193.404ZM205.208 178V168.99H206.84V175.552L212.365 168.99H213.844V178H212.212V171.438L206.704 178H205.208ZM209.424 167.817C208.597 167.817 207.945 167.619 207.469 167.222C207.004 166.814 206.766 166.23 206.755 165.471H207.86C207.871 165.902 208.013 166.242 208.285 166.491C208.568 166.74 208.942 166.865 209.407 166.865C209.872 166.865 210.246 166.74 210.529 166.491C210.812 166.242 210.96 165.902 210.971 165.471H212.11C212.099 166.23 211.855 166.814 211.379 167.222C210.903 167.619 210.251 167.817 209.424 167.817ZM20.44 199.102C19.5333 199.102 18.7287 198.904 18.026 198.507C17.3233 198.11 16.768 197.566 16.36 196.875C15.952 196.172 15.748 195.379 15.748 194.495C15.748 193.6 15.952 192.806 16.36 192.115C16.768 191.424 17.3233 190.885 18.026 190.5C18.7287 190.103 19.5333 189.905 20.44 189.905C21.3353 189.905 22.1343 190.103 22.837 190.5C23.551 190.885 24.1063 191.424 24.503 192.115C24.911 192.795 25.115 193.588 25.115 194.495C25.115 195.39 24.911 196.184 24.503 196.875C24.1063 197.566 23.551 198.11 22.837 198.507C22.1343 198.904 21.3353 199.102 20.44 199.102ZM20.44 197.674C21.018 197.674 21.5337 197.544 21.987 197.283C22.4517 197.022 22.8143 196.654 23.075 196.178C23.3357 195.691 23.466 195.13 23.466 194.495C23.466 193.849 23.3357 193.294 23.075 192.829C22.8143 192.353 22.4517 191.985 21.987 191.724C21.5337 191.463 21.018 191.333 20.44 191.333C19.862 191.333 19.3463 191.463 18.893 191.724C18.4397 191.985 18.077 192.353 17.805 192.829C17.533 193.294 17.397 193.849 17.397 194.495C17.397 195.13 17.533 195.691 17.805 196.178C18.077 196.654 18.4397 197.022 18.893 197.283C19.3463 197.544 19.862 197.674 20.44 197.674ZM31.3986 199.102C30.4806 199.102 29.659 198.904 28.9336 198.507C28.2196 198.11 27.6586 197.566 27.2506 196.875C26.8426 196.184 26.6386 195.39 26.6386 194.495C26.6386 193.6 26.8426 192.806 27.2506 192.115C27.6586 191.424 28.2196 190.885 28.9336 190.5C29.659 190.103 30.4806 189.905 31.3986 189.905C32.2146 189.905 32.94 190.069 33.5746 190.398C34.2206 190.715 34.7193 191.191 35.0706 191.826L33.8296 192.625C33.535 192.183 33.1723 191.86 32.7416 191.656C32.3223 191.441 31.869 191.333 31.3816 191.333C30.7923 191.333 30.2653 191.463 29.8006 191.724C29.336 191.985 28.9676 192.353 28.6956 192.829C28.4236 193.294 28.2876 193.849 28.2876 194.495C28.2876 195.141 28.4236 195.702 28.6956 196.178C28.9676 196.654 29.336 197.022 29.8006 197.283C30.2653 197.544 30.7923 197.674 31.3816 197.674C31.869 197.674 32.3223 197.572 32.7416 197.368C33.1723 197.153 33.535 196.824 33.8296 196.382L35.0706 197.164C34.7193 197.787 34.2206 198.269 33.5746 198.609C32.94 198.938 32.2146 199.102 31.3986 199.102ZM37.1835 199V189.99H38.8665L42.7425 196.654H42.0625L46.0405 189.99H47.5705V199H46.0915V191.826L46.3635 191.979L42.7255 197.98H42.0115L38.3565 191.86L38.6795 191.792V199H37.1835ZM54.606 199.102C53.6993 199.102 52.8947 198.904 52.192 198.507C51.4893 198.11 50.934 197.566 50.526 196.875C50.118 196.172 49.914 195.379 49.914 194.495C49.914 193.6 50.118 192.806 50.526 192.115C50.934 191.424 51.4893 190.885 52.192 190.5C52.8947 190.103 53.6993 189.905 54.606 189.905C55.5013 189.905 56.3003 190.103 57.003 190.5C57.717 190.885 58.2723 191.424 58.669 192.115C59.077 192.795 59.281 193.588 59.281 194.495C59.281 195.39 59.077 196.184 58.669 196.875C58.2723 197.566 57.717 198.11 57.003 198.507C56.3003 198.904 55.5013 199.102 54.606 199.102ZM54.606 197.674C55.184 197.674 55.6997 197.544 56.153 197.283C56.6177 197.022 56.9803 196.654 57.241 196.178C57.5017 195.691 57.632 195.13 57.632 194.495C57.632 193.849 57.5017 193.294 57.241 192.829C56.9803 192.353 56.6177 191.985 56.153 191.724C55.6997 191.463 55.184 191.333 54.606 191.333C54.028 191.333 53.5123 191.463 53.059 191.724C52.6057 191.985 52.243 192.353 51.971 192.829C51.699 193.294 51.563 193.849 51.563 194.495C51.563 195.13 51.699 195.691 51.971 196.178C52.243 196.654 52.6057 197.022 53.059 197.283C53.5123 197.544 54.028 197.674 54.606 197.674ZM63.0906 199V190.993L63.4986 191.418H59.7926V189.99H68.0206V191.418H64.3316L64.7226 190.993V199H63.0906ZM74.4664 199.102C73.7184 199.102 73.0327 198.932 72.4094 198.592C71.7974 198.241 71.3044 197.725 70.9304 197.045C70.5677 196.365 70.3864 195.515 70.3864 194.495C70.3864 193.475 70.5621 192.625 70.9134 191.945C71.2761 191.265 71.7634 190.755 72.3754 190.415C72.9987 190.075 73.6957 189.905 74.4664 189.905C75.3504 189.905 76.1324 190.098 76.8124 190.483C77.4924 190.868 78.0307 191.407 78.4274 192.098C78.8241 192.778 79.0224 193.577 79.0224 194.495C79.0224 195.413 78.8241 196.218 78.4274 196.909C78.0307 197.6 77.4924 198.139 76.8124 198.524C76.1324 198.909 75.3504 199.102 74.4664 199.102ZM69.6894 202.298V189.99H71.2534V192.421L71.1514 194.512L71.3214 196.603V202.298H69.6894ZM74.3304 197.674C74.9084 197.674 75.4241 197.544 75.8774 197.283C76.3421 197.022 76.7047 196.654 76.9654 196.178C77.2374 195.691 77.3734 195.13 77.3734 194.495C77.3734 193.849 77.2374 193.294 76.9654 192.829C76.7047 192.353 76.3421 191.985 75.8774 191.724C75.4241 191.463 74.9084 191.333 74.3304 191.333C73.7637 191.333 73.2481 191.463 72.7834 191.724C72.3301 191.985 71.9674 192.353 71.6954 192.829C71.4347 193.294 71.3044 193.849 71.3044 194.495C71.3044 195.13 71.4347 195.691 71.6954 196.178C71.9674 196.654 72.3301 197.022 72.7834 197.283C73.2481 197.544 73.7637 197.674 74.3304 197.674ZM89.8859 199.102C88.9679 199.102 88.1463 198.904 87.4209 198.507C86.7069 198.11 86.1459 197.566 85.7379 196.875C85.3299 196.184 85.1259 195.39 85.1259 194.495C85.1259 193.6 85.3299 192.806 85.7379 192.115C86.1459 191.424 86.7069 190.885 87.4209 190.5C88.1463 190.103 88.9679 189.905 89.8859 189.905C90.7019 189.905 91.4273 190.069 92.0619 190.398C92.7079 190.715 93.2066 191.191 93.5579 191.826L92.3169 192.625C92.0223 192.183 91.6596 191.86 91.2289 191.656C90.8096 191.441 90.3563 191.333 89.8689 191.333C89.2796 191.333 88.7526 191.463 88.2879 191.724C87.8233 191.985 87.4549 192.353 87.1829 192.829C86.9109 193.294 86.7749 193.849 86.7749 194.495C86.7749 195.141 86.9109 195.702 87.1829 196.178C87.4549 196.654 87.8233 197.022 88.2879 197.283C88.7526 197.544 89.2796 197.674 89.8689 197.674C90.3563 197.674 90.8096 197.572 91.2289 197.368C91.6596 197.153 92.0223 196.824 92.3169 196.382L93.5579 197.164C93.2066 197.787 92.7079 198.269 92.0619 198.609C91.4273 198.938 90.7019 199.102 89.8859 199.102ZM102.021 199V190.993L102.429 191.418H98.7233V189.99H106.951V191.418H103.262L103.653 190.993V199H102.021ZM112.081 199.102C111.174 199.102 110.369 198.904 109.667 198.507C108.964 198.11 108.409 197.566 108.001 196.875C107.593 196.172 107.389 195.379 107.389 194.495C107.389 193.6 107.593 192.806 108.001 192.115C108.409 191.424 108.964 190.885 109.667 190.5C110.369 190.103 111.174 189.905 112.081 189.905C112.976 189.905 113.775 190.103 114.478 190.5C115.192 190.885 115.747 191.424 116.144 192.115C116.552 192.795 116.756 193.588 116.756 194.495C116.756 195.39 116.552 196.184 116.144 196.875C115.747 197.566 115.192 198.11 114.478 198.507C113.775 198.904 112.976 199.102 112.081 199.102ZM112.081 197.674C112.659 197.674 113.174 197.544 113.628 197.283C114.092 197.022 114.455 196.654 114.716 196.178C114.976 195.691 115.107 195.13 115.107 194.495C115.107 193.849 114.976 193.294 114.716 192.829C114.455 192.353 114.092 191.985 113.628 191.724C113.174 191.463 112.659 191.333 112.081 191.333C111.503 191.333 110.987 191.463 110.534 191.724C110.08 191.985 109.718 192.353 109.446 192.829C109.174 193.294 109.038 193.849 109.038 194.495C109.038 195.13 109.174 195.691 109.446 196.178C109.718 196.654 110.08 197.022 110.534 197.283C110.987 197.544 111.503 197.674 112.081 197.674ZM117.55 198.983L117.652 197.606C117.731 197.617 117.805 197.629 117.873 197.64C117.941 197.651 118.003 197.657 118.06 197.657C118.423 197.657 118.706 197.532 118.91 197.283C119.125 197.034 119.284 196.705 119.386 196.297C119.488 195.878 119.562 195.407 119.607 194.886C119.652 194.365 119.686 193.843 119.709 193.322L119.862 189.99H126.781V199H125.149V190.942L125.54 191.418H120.916L121.29 190.925L121.171 193.424C121.137 194.217 121.075 194.96 120.984 195.651C120.893 196.342 120.752 196.949 120.559 197.47C120.378 197.991 120.123 198.399 119.794 198.694C119.477 198.989 119.063 199.136 118.553 199.136C118.406 199.136 118.247 199.119 118.077 199.085C117.918 199.062 117.743 199.028 117.55 198.983ZM135.92 197.572L135.546 197.997V189.99H137.178V197.997L136.77 197.572H141.53L141.139 197.997V189.99H142.771V199H129.936V189.99H131.568V197.997L131.177 197.572H135.92ZM142.567 200.921V198.575L142.958 199H141.054V197.572H144.097V200.921H142.567ZM145.94 199V189.99H147.572V196.552L153.097 189.99H154.576V199H152.944V192.438L147.436 199H145.94ZM157.744 199V189.99H159.376V193.815H164.51V189.99H166.142V199H164.51V195.226H159.376V199H157.744ZM173.174 199.102C172.268 199.102 171.463 198.904 170.76 198.507C170.058 198.11 169.502 197.566 169.094 196.875C168.686 196.172 168.482 195.379 168.482 194.495C168.482 193.6 168.686 192.806 169.094 192.115C169.502 191.424 170.058 190.885 170.76 190.5C171.463 190.103 172.268 189.905 173.174 189.905C174.07 189.905 174.869 190.103 175.571 190.5C176.285 190.885 176.841 191.424 177.237 192.115C177.645 192.795 177.849 193.588 177.849 194.495C177.849 195.39 177.645 196.184 177.237 196.875C176.841 197.566 176.285 198.11 175.571 198.507C174.869 198.904 174.07 199.102 173.174 199.102ZM173.174 197.674C173.752 197.674 174.268 197.544 174.721 197.283C175.186 197.022 175.549 196.654 175.809 196.178C176.07 195.691 176.2 195.13 176.2 194.495C176.2 193.849 176.07 193.294 175.809 192.829C175.549 192.353 175.186 191.985 174.721 191.724C174.268 191.463 173.752 191.333 173.174 191.333C172.596 191.333 172.081 191.463 171.627 191.724C171.174 191.985 170.811 192.353 170.539 192.829C170.267 193.294 170.131 193.849 170.131 194.495C170.131 195.13 170.267 195.691 170.539 196.178C170.811 196.654 171.174 197.022 171.627 197.283C172.081 197.544 172.596 197.674 173.174 197.674ZM180.206 199V189.99H181.889L185.765 196.654H185.085L189.063 189.99H190.593V199H189.114V191.826L189.386 191.979L185.748 197.98H185.034L181.379 191.86L181.702 191.792V199H180.206ZM197.781 199.102C196.818 199.102 195.968 198.904 195.231 198.507C194.506 198.11 193.939 197.566 193.531 196.875C193.135 196.184 192.936 195.39 192.936 194.495C192.936 193.6 193.129 192.806 193.514 192.115C193.911 191.424 194.449 190.885 195.129 190.5C195.821 190.103 196.597 189.905 197.458 189.905C198.331 189.905 199.102 190.098 199.77 190.483C200.439 190.868 200.96 191.412 201.334 192.115C201.72 192.806 201.912 193.617 201.912 194.546C201.912 194.614 201.907 194.693 201.895 194.784C201.895 194.875 201.89 194.96 201.878 195.039H194.211V193.866H201.028L200.365 194.274C200.377 193.696 200.258 193.18 200.008 192.727C199.759 192.274 199.413 191.922 198.971 191.673C198.541 191.412 198.036 191.282 197.458 191.282C196.892 191.282 196.387 191.412 195.945 191.673C195.503 191.922 195.158 192.279 194.908 192.744C194.659 193.197 194.534 193.719 194.534 194.308V194.58C194.534 195.181 194.67 195.719 194.942 196.195C195.226 196.66 195.617 197.022 196.115 197.283C196.614 197.544 197.186 197.674 197.832 197.674C198.365 197.674 198.847 197.583 199.277 197.402C199.719 197.221 200.105 196.949 200.433 196.586L201.334 197.64C200.926 198.116 200.416 198.479 199.804 198.728C199.204 198.977 198.529 199.102 197.781 199.102ZM209.221 199.102C208.473 199.102 207.788 198.932 207.164 198.592C206.552 198.241 206.059 197.725 205.685 197.045C205.323 196.365 205.141 195.515 205.141 194.495C205.141 193.475 205.317 192.625 205.668 191.945C206.031 191.265 206.518 190.755 207.13 190.415C207.754 190.075 208.451 189.905 209.221 189.905C210.105 189.905 210.887 190.098 211.567 190.483C212.247 190.868 212.786 191.407 213.182 192.098C213.579 192.778 213.777 193.577 213.777 194.495C213.777 195.413 213.579 196.218 213.182 196.909C212.786 197.6 212.247 198.139 211.567 198.524C210.887 198.909 210.105 199.102 209.221 199.102ZM204.444 202.298V189.99H206.008V192.421L205.906 194.512L206.076 196.603V202.298H204.444ZM209.085 197.674C209.663 197.674 210.179 197.544 210.632 197.283C211.097 197.022 211.46 196.654 211.72 196.178C211.992 195.691 212.128 195.13 212.128 194.495C212.128 193.849 211.992 193.294 211.72 192.829C211.46 192.353 211.097 191.985 210.632 191.724C210.179 191.463 209.663 191.333 209.085 191.333C208.519 191.333 208.003 191.463 207.538 191.724C207.085 191.985 206.722 192.353 206.45 192.829C206.19 193.294 206.059 193.849 206.059 194.495C206.059 195.13 206.19 195.691 206.45 196.178C206.722 196.654 207.085 197.022 207.538 197.283C208.003 197.544 208.519 197.674 209.085 197.674ZM220.007 199.102C219.101 199.102 218.296 198.904 217.593 198.507C216.891 198.11 216.335 197.566 215.927 196.875C215.519 196.172 215.315 195.379 215.315 194.495C215.315 193.6 215.519 192.806 215.927 192.115C216.335 191.424 216.891 190.885 217.593 190.5C218.296 190.103 219.101 189.905 220.007 189.905C220.903 189.905 221.702 190.103 222.404 190.5C223.118 190.885 223.674 191.424 224.07 192.115C224.478 192.795 224.682 193.588 224.682 194.495C224.682 195.39 224.478 196.184 224.07 196.875C223.674 197.566 223.118 198.11 222.404 198.507C221.702 198.904 220.903 199.102 220.007 199.102ZM220.007 197.674C220.585 197.674 221.101 197.544 221.554 197.283C222.019 197.022 222.382 196.654 222.642 196.178C222.903 195.691 223.033 195.13 223.033 194.495C223.033 193.849 222.903 193.294 222.642 192.829C222.382 192.353 222.019 191.985 221.554 191.724C221.101 191.463 220.585 191.333 220.007 191.333C219.429 191.333 218.914 191.463 218.46 191.724C218.007 191.985 217.644 192.353 217.372 192.829C217.1 193.294 216.964 193.849 216.964 194.495C216.964 195.13 217.1 195.691 217.372 196.178C217.644 196.654 218.007 197.022 218.46 197.283C218.914 197.544 219.429 197.674 220.007 197.674ZM227.039 199V189.99H228.722L232.598 196.654H231.918L235.896 189.99H237.426V199H235.947V191.826L236.219 191.979L232.581 197.98H231.867L228.212 191.86L228.535 191.792V199H227.039ZM16.581 220V210.99H18.213V214.815H23.347V210.99H24.979V220H23.347V216.226H18.213V220H16.581ZM33.6773 220V218.096L33.5923 217.739V214.492C33.5923 213.801 33.3883 213.268 32.9803 212.894C32.5836 212.509 31.983 212.316 31.1783 212.316C30.6456 212.316 30.1243 212.407 29.6143 212.588C29.1043 212.758 28.6736 212.99 28.3223 213.285L27.6423 212.061C28.107 211.687 28.6623 211.404 29.3083 211.211C29.9656 211.007 30.6513 210.905 31.3653 210.905C32.6006 210.905 33.5526 211.205 34.2213 211.806C34.89 212.407 35.2243 213.325 35.2243 214.56V220H33.6773ZM30.7193 220.102C30.0506 220.102 29.4613 219.989 28.9513 219.762C28.4526 219.535 28.0673 219.224 27.7953 218.827C27.5233 218.419 27.3873 217.96 27.3873 217.45C27.3873 216.963 27.5006 216.521 27.7273 216.124C27.9653 215.727 28.345 215.41 28.8663 215.172C29.399 214.934 30.113 214.815 31.0083 214.815H33.8643V215.988H31.0763C30.2603 215.988 29.7106 216.124 29.4273 216.396C29.144 216.668 29.0023 216.997 29.0023 217.382C29.0023 217.824 29.178 218.181 29.5293 218.453C29.8806 218.714 30.368 218.844 30.9913 218.844C31.6033 218.844 32.136 218.708 32.5893 218.436C33.054 218.164 33.3883 217.767 33.5923 217.246L33.9153 218.368C33.7 218.901 33.3203 219.326 32.7763 219.643C32.2323 219.949 31.5466 220.102 30.7193 220.102ZM42.7285 220V210.99H51.0755V220H49.4435V212.01L49.8345 212.418H43.9695L44.3605 212.01V220H42.7285ZM59.0103 220.102C58.2623 220.102 57.5767 219.932 56.9533 219.592C56.3413 219.241 55.8483 218.725 55.4743 218.045C55.1117 217.365 54.9303 216.515 54.9303 215.495C54.9303 214.475 55.106 213.625 55.4573 212.945C55.82 212.265 56.3073 211.755 56.9193 211.415C57.5427 211.075 58.2397 210.905 59.0103 210.905C59.8943 210.905 60.6763 211.098 61.3563 211.483C62.0363 211.868 62.5747 212.407 62.9713 213.098C63.368 213.778 63.5663 214.577 63.5663 215.495C63.5663 216.413 63.368 217.218 62.9713 217.909C62.5747 218.6 62.0363 219.139 61.3563 219.524C60.6763 219.909 59.8943 220.102 59.0103 220.102ZM54.2333 223.298V210.99H55.7973V213.421L55.6953 215.512L55.8653 217.603V223.298H54.2333ZM58.8743 218.674C59.4523 218.674 59.968 218.544 60.4213 218.283C60.886 218.022 61.2487 217.654 61.5093 217.178C61.7813 216.691 61.9173 216.13 61.9173 215.495C61.9173 214.849 61.7813 214.294 61.5093 213.829C61.2487 213.353 60.886 212.985 60.4213 212.724C59.968 212.463 59.4523 212.333 58.8743 212.333C58.3077 212.333 57.792 212.463 57.3273 212.724C56.874 212.985 56.5113 213.353 56.2393 213.829C55.9787 214.294 55.8483 214.849 55.8483 215.495C55.8483 216.13 55.9787 216.691 56.2393 217.178C56.5113 217.654 56.874 218.022 57.3273 218.283C57.792 218.544 58.3077 218.674 58.8743 218.674ZM69.9494 220.102C68.9861 220.102 68.1361 219.904 67.3994 219.507C66.6741 219.11 66.1074 218.566 65.6994 217.875C65.3028 217.184 65.1044 216.39 65.1044 215.495C65.1044 214.6 65.2971 213.806 65.6824 213.115C66.0791 212.424 66.6174 211.885 67.2974 211.5C67.9888 211.103 68.7651 210.905 69.6264 210.905C70.4991 210.905 71.2698 211.098 71.9384 211.483C72.6071 211.868 73.1284 212.412 73.5024 213.115C73.8878 213.806 74.0804 214.617 74.0804 215.546C74.0804 215.614 74.0748 215.693 74.0634 215.784C74.0634 215.875 74.0578 215.96 74.0464 216.039H66.3794V214.866H73.1964L72.5334 215.274C72.5448 214.696 72.4258 214.18 72.1764 213.727C71.9271 213.274 71.5814 212.922 71.1394 212.673C70.7088 212.412 70.2044 212.282 69.6264 212.282C69.0598 212.282 68.5554 212.412 68.1134 212.673C67.6714 212.922 67.3258 213.279 67.0764 213.744C66.8271 214.197 66.7024 214.719 66.7024 215.308V215.58C66.7024 216.181 66.8384 216.719 67.1104 217.195C67.3938 217.66 67.7848 218.022 68.2834 218.283C68.7821 218.544 69.3544 218.674 70.0004 218.674C70.5331 218.674 71.0148 218.583 71.4454 218.402C71.8874 218.221 72.2728 217.949 72.6014 217.586L73.5024 218.64C73.0944 219.116 72.5844 219.479 71.9724 219.728C71.3718 219.977 70.6974 220.102 69.9494 220.102ZM82.6168 219.235V212.418H78.7068L78.6218 214.152C78.5992 214.719 78.5595 215.268 78.5028 215.801C78.4575 216.322 78.3782 216.804 78.2648 217.246C78.1628 217.688 78.0098 218.051 77.8058 218.334C77.6018 218.617 77.3298 218.793 76.9898 218.861L75.3748 218.572C75.7262 218.583 76.0095 218.47 76.2248 218.232C76.4402 217.983 76.6045 217.643 76.7178 217.212C76.8425 216.781 76.9332 216.294 76.9898 215.75C77.0465 215.195 77.0918 214.622 77.1258 214.033L77.2618 210.99H84.2488V219.235H82.6168ZM75.0178 222.091V218.572H85.6258V222.091H84.0958V220H76.5648V222.091H75.0178ZM87.7519 220V210.99H89.4349L93.3109 217.654H92.6309L96.6089 210.99H98.1389V220H96.6599V212.826L96.9319 212.979L93.2939 218.98H92.5799L88.9249 212.86L89.2479 212.792V220H87.7519ZM105.327 220.102C104.364 220.102 103.514 219.904 102.777 219.507C102.052 219.11 101.485 218.566 101.077 217.875C100.681 217.184 100.482 216.39 100.482 215.495C100.482 214.6 100.675 213.806 101.06 213.115C101.457 212.424 101.995 211.885 102.675 211.5C103.367 211.103 104.143 210.905 105.004 210.905C105.877 210.905 106.648 211.098 107.316 211.483C107.985 211.868 108.506 212.412 108.88 213.115C109.266 213.806 109.458 214.617 109.458 215.546C109.458 215.614 109.453 215.693 109.441 215.784C109.441 215.875 109.436 215.96 109.424 216.039H101.757V214.866H108.574L107.911 215.274C107.923 214.696 107.804 214.18 107.554 213.727C107.305 213.274 106.959 212.922 106.517 212.673C106.087 212.412 105.582 212.282 105.004 212.282C104.438 212.282 103.933 212.412 103.491 212.673C103.049 212.922 102.704 213.279 102.454 213.744C102.205 214.197 102.08 214.719 102.08 215.308V215.58C102.08 216.181 102.216 216.719 102.488 217.195C102.772 217.66 103.163 218.022 103.661 218.283C104.16 218.544 104.732 218.674 105.378 218.674C105.911 218.674 106.393 218.583 106.823 218.402C107.265 218.221 107.651 217.949 107.979 217.586L108.88 218.64C108.472 219.116 107.962 219.479 107.35 219.728C106.75 219.977 106.075 220.102 105.327 220.102ZM113.393 220V211.993L113.801 212.418H110.095V210.99H118.323V212.418H114.634L115.025 211.993V220H113.393ZM124.558 220V210.99H132.905V220H131.273V212.01L131.664 212.418H125.799L126.19 212.01V220H124.558ZM140.074 220.102C139.111 220.102 138.261 219.904 137.524 219.507C136.799 219.11 136.232 218.566 135.824 217.875C135.428 217.184 135.229 216.39 135.229 215.495C135.229 214.6 135.422 213.806 135.807 213.115C136.204 212.424 136.742 211.885 137.422 211.5C138.114 211.103 138.89 210.905 139.751 210.905C140.624 210.905 141.395 211.098 142.063 211.483C142.732 211.868 143.253 212.412 143.627 213.115C144.013 213.806 144.205 214.617 144.205 215.546C144.205 215.614 144.2 215.693 144.188 215.784C144.188 215.875 144.183 215.96 144.171 216.039H136.504V214.866H143.321L142.658 215.274C142.67 214.696 142.551 214.18 142.301 213.727C142.052 213.274 141.706 212.922 141.264 212.673C140.834 212.412 140.329 212.282 139.751 212.282C139.185 212.282 138.68 212.412 138.238 212.673C137.796 212.922 137.451 213.279 137.201 213.744C136.952 214.197 136.827 214.719 136.827 215.308V215.58C136.827 216.181 136.963 216.719 137.235 217.195C137.519 217.66 137.91 218.022 138.408 218.283C138.907 218.544 139.479 218.674 140.125 218.674C140.658 218.674 141.14 218.583 141.57 218.402C142.012 218.221 142.398 217.949 142.726 217.586L143.627 218.64C143.219 219.116 142.709 219.479 142.097 219.728C141.497 219.977 140.822 220.102 140.074 220.102ZM151.514 220.102C150.766 220.102 150.081 219.932 149.457 219.592C148.845 219.241 148.352 218.725 147.978 218.045C147.616 217.365 147.434 216.515 147.434 215.495C147.434 214.475 147.61 213.625 147.961 212.945C148.324 212.265 148.811 211.755 149.423 211.415C150.047 211.075 150.744 210.905 151.514 210.905C152.398 210.905 153.18 211.098 153.86 211.483C154.54 211.868 155.079 212.407 155.475 213.098C155.872 213.778 156.07 214.577 156.07 215.495C156.07 216.413 155.872 217.218 155.475 217.909C155.079 218.6 154.54 219.139 153.86 219.524C153.18 219.909 152.398 220.102 151.514 220.102ZM146.737 223.298V210.99H148.301V213.421L148.199 215.512L148.369 217.603V223.298H146.737ZM151.378 218.674C151.956 218.674 152.472 218.544 152.925 218.283C153.39 218.022 153.753 217.654 154.013 217.178C154.285 216.691 154.421 216.13 154.421 215.495C154.421 214.849 154.285 214.294 154.013 213.829C153.753 213.353 153.39 212.985 152.925 212.724C152.472 212.463 151.956 212.333 151.378 212.333C150.812 212.333 150.296 212.463 149.831 212.724C149.378 212.985 149.015 213.353 148.743 213.829C148.483 214.294 148.352 214.849 148.352 215.495C148.352 216.13 148.483 216.691 148.743 217.178C149.015 217.654 149.378 218.022 149.831 218.283C150.296 218.544 150.812 218.674 151.378 218.674ZM162.453 220.102C161.49 220.102 160.64 219.904 159.903 219.507C159.178 219.11 158.611 218.566 158.203 217.875C157.807 217.184 157.608 216.39 157.608 215.495C157.608 214.6 157.801 213.806 158.186 213.115C158.583 212.424 159.121 211.885 159.801 211.5C160.493 211.103 161.269 210.905 162.13 210.905C163.003 210.905 163.774 211.098 164.442 211.483C165.111 211.868 165.632 212.412 166.006 213.115C166.392 213.806 166.584 214.617 166.584 215.546C166.584 215.614 166.579 215.693 166.567 215.784C166.567 215.875 166.562 215.96 166.55 216.039H158.883V214.866H165.7L165.037 215.274C165.049 214.696 164.93 214.18 164.68 213.727C164.431 213.274 164.085 212.922 163.643 212.673C163.213 212.412 162.708 212.282 162.13 212.282C161.564 212.282 161.059 212.412 160.617 212.673C160.175 212.922 159.83 213.279 159.58 213.744C159.331 214.197 159.206 214.719 159.206 215.308V215.58C159.206 216.181 159.342 216.719 159.614 217.195C159.898 217.66 160.289 218.022 160.787 218.283C161.286 218.544 161.858 218.674 162.504 218.674C163.037 218.674 163.519 218.583 163.949 218.402C164.391 218.221 164.777 217.949 165.105 217.586L166.006 218.64C165.598 219.116 165.088 219.479 164.476 219.728C163.876 219.977 163.201 220.102 162.453 220.102ZM175.644 220L172.159 215.614L173.502 214.798L177.565 220H175.644ZM169.116 220V210.99H170.748V220H169.116ZM170.255 216.192V214.798H173.23V216.192H170.255ZM173.638 215.682L172.125 215.478L175.576 210.99H177.327L173.638 215.682ZM184.053 220.102C183.305 220.102 182.62 219.932 181.996 219.592C181.384 219.241 180.891 218.725 180.517 218.045C180.155 217.365 179.973 216.515 179.973 215.495C179.973 214.475 180.149 213.625 180.5 212.945C180.863 212.265 181.35 211.755 181.962 211.415C182.586 211.075 183.283 210.905 184.053 210.905C184.937 210.905 185.719 211.098 186.399 211.483C187.079 211.868 187.618 212.407 188.014 213.098C188.411 213.778 188.609 214.577 188.609 215.495C188.609 216.413 188.411 217.218 188.014 217.909C187.618 218.6 187.079 219.139 186.399 219.524C185.719 219.909 184.937 220.102 184.053 220.102ZM179.276 223.298V210.99H180.84V213.421L180.738 215.512L180.908 217.603V223.298H179.276ZM183.917 218.674C184.495 218.674 185.011 218.544 185.464 218.283C185.929 218.022 186.292 217.654 186.552 217.178C186.824 216.691 186.96 216.13 186.96 215.495C186.96 214.849 186.824 214.294 186.552 213.829C186.292 213.353 185.929 212.985 185.464 212.724C185.011 212.463 184.495 212.333 183.917 212.333C183.351 212.333 182.835 212.463 182.37 212.724C181.917 212.985 181.554 213.353 181.282 213.829C181.022 214.294 180.891 214.849 180.891 215.495C180.891 216.13 181.022 216.691 181.282 217.178C181.554 217.654 181.917 218.022 182.37 218.283C182.835 218.544 183.351 218.674 183.917 218.674ZM196.422 220V218.096L196.337 217.739V214.492C196.337 213.801 196.133 213.268 195.725 212.894C195.329 212.509 194.728 212.316 193.923 212.316C193.391 212.316 192.869 212.407 192.359 212.588C191.849 212.758 191.419 212.99 191.067 213.285L190.387 212.061C190.852 211.687 191.407 211.404 192.053 211.211C192.711 211.007 193.396 210.905 194.11 210.905C195.346 210.905 196.298 211.205 196.966 211.806C197.635 212.407 197.969 213.325 197.969 214.56V220H196.422ZM193.464 220.102C192.796 220.102 192.206 219.989 191.696 219.762C191.198 219.535 190.812 219.224 190.54 218.827C190.268 218.419 190.132 217.96 190.132 217.45C190.132 216.963 190.246 216.521 190.472 216.124C190.71 215.727 191.09 215.41 191.611 215.172C192.144 214.934 192.858 214.815 193.753 214.815H196.609V215.988H193.821C193.005 215.988 192.456 216.124 192.172 216.396C191.889 216.668 191.747 216.997 191.747 217.382C191.747 217.824 191.923 218.181 192.274 218.453C192.626 218.714 193.113 218.844 193.736 218.844C194.348 218.844 194.881 218.708 195.334 218.436C195.799 218.164 196.133 217.767 196.337 217.246L196.66 218.368C196.445 218.901 196.065 219.326 195.521 219.643C194.977 219.949 194.292 220.102 193.464 220.102ZM204.835 220.102C203.917 220.102 203.095 219.904 202.37 219.507C201.656 219.11 201.095 218.566 200.687 217.875C200.279 217.184 200.075 216.39 200.075 215.495C200.075 214.6 200.279 213.806 200.687 213.115C201.095 212.424 201.656 211.885 202.37 211.5C203.095 211.103 203.917 210.905 204.835 210.905C205.651 210.905 206.376 211.069 207.011 211.398C207.657 211.715 208.156 212.191 208.507 212.826L207.266 213.625C206.971 213.183 206.609 212.86 206.178 212.656C205.759 212.441 205.305 212.333 204.818 212.333C204.229 212.333 203.702 212.463 203.237 212.724C202.772 212.985 202.404 213.353 202.132 213.829C201.86 214.294 201.724 214.849 201.724 215.495C201.724 216.141 201.86 216.702 202.132 217.178C202.404 217.654 202.772 218.022 203.237 218.283C203.702 218.544 204.229 218.674 204.818 218.674C205.305 218.674 205.759 218.572 206.178 218.368C206.609 218.153 206.971 217.824 207.266 217.382L208.507 218.164C208.156 218.787 207.657 219.269 207.011 219.609C206.376 219.938 205.651 220.102 204.835 220.102ZM216.145 220V218.096L216.06 217.739V214.492C216.06 213.801 215.856 213.268 215.448 212.894C215.051 212.509 214.451 212.316 213.646 212.316C213.113 212.316 212.592 212.407 212.082 212.588C211.572 212.758 211.141 212.99 210.79 213.285L210.11 212.061C210.575 211.687 211.13 211.404 211.776 211.211C212.433 211.007 213.119 210.905 213.833 210.905C215.068 210.905 216.02 211.205 216.689 211.806C217.358 212.407 217.692 213.325 217.692 214.56V220H216.145ZM213.187 220.102C212.518 220.102 211.929 219.989 211.419 219.762C210.92 219.535 210.535 219.224 210.263 218.827C209.991 218.419 209.855 217.96 209.855 217.45C209.855 216.963 209.968 216.521 210.195 216.124C210.433 215.727 210.813 215.41 211.334 215.172C211.867 214.934 212.581 214.815 213.476 214.815H216.332V215.988H213.544C212.728 215.988 212.178 216.124 211.895 216.396C211.612 216.668 211.47 216.997 211.47 217.382C211.47 217.824 211.646 218.181 211.997 218.453C212.348 218.714 212.836 218.844 213.459 218.844C214.071 218.844 214.604 218.708 215.057 218.436C215.522 218.164 215.856 217.767 216.06 217.246L216.383 218.368C216.168 218.901 215.788 219.326 215.244 219.643C214.7 219.949 214.014 220.102 213.187 220.102ZM22.106 241V239.096L22.021 238.739V235.492C22.021 234.801 21.817 234.268 21.409 233.894C21.0123 233.509 20.4117 233.316 19.607 233.316C19.0743 233.316 18.553 233.407 18.043 233.588C17.533 233.758 17.1023 233.99 16.751 234.285L16.071 233.061C16.5357 232.687 17.091 232.404 17.737 232.211C18.3943 232.007 19.08 231.905 19.794 231.905C21.0293 231.905 21.9813 232.205 22.65 232.806C23.3187 233.407 23.653 234.325 23.653 235.56V241H22.106ZM19.148 241.102C18.4793 241.102 17.89 240.989 17.38 240.762C16.8813 240.535 16.496 240.224 16.224 239.827C15.952 239.419 15.816 238.96 15.816 238.45C15.816 237.963 15.9293 237.521 16.156 237.124C16.394 236.727 16.7737 236.41 17.295 236.172C17.8277 235.934 18.5417 235.815 19.437 235.815H22.293V236.988H19.505C18.689 236.988 18.1393 237.124 17.856 237.396C17.5727 237.668 17.431 237.997 17.431 238.382C17.431 238.824 17.6067 239.181 17.958 239.453C18.3093 239.714 18.7967 239.844 19.42 239.844C20.032 239.844 20.5647 239.708 21.018 239.436C21.4827 239.164 21.817 238.767 22.021 238.246L22.344 239.368C22.1287 239.901 21.749 240.326 21.205 240.643C20.661 240.949 19.9753 241.102 19.148 241.102ZM26.5917 241V231.99H30.7737C31.8277 231.99 32.6551 232.194 33.2557 232.602C33.8677 232.999 34.1737 233.565 34.1737 234.302C34.1737 235.039 33.8847 235.611 33.3067 236.019C32.7401 236.416 31.9864 236.614 31.0457 236.614L31.3007 236.172C32.3774 236.172 33.1764 236.37 33.6977 236.767C34.2191 237.164 34.4797 237.747 34.4797 238.518C34.4797 239.3 34.1851 239.912 33.5957 240.354C33.0177 240.785 32.1281 241 30.9267 241H26.5917ZM28.1897 239.742H30.8077C31.4877 239.742 31.9977 239.64 32.3377 239.436C32.6777 239.221 32.8477 238.881 32.8477 238.416C32.8477 237.94 32.6891 237.594 32.3717 237.379C32.0657 237.152 31.5784 237.039 30.9097 237.039H28.1897V239.742ZM28.1897 235.866H30.6377C31.2611 235.866 31.7314 235.753 32.0487 235.526C32.3774 235.288 32.5417 234.959 32.5417 234.54C32.5417 234.109 32.3774 233.786 32.0487 233.571C31.7314 233.356 31.2611 233.248 30.6377 233.248H28.1897V235.866ZM38.8191 241V232.993L39.2271 233.418H35.5211V231.99H43.7491V233.418H40.0601L40.4511 232.993V241H38.8191ZM48.8785 241.102C47.9718 241.102 47.1671 240.904 46.4645 240.507C45.7618 240.11 45.2065 239.566 44.7985 238.875C44.3905 238.172 44.1865 237.379 44.1865 236.495C44.1865 235.6 44.3905 234.806 44.7985 234.115C45.2065 233.424 45.7618 232.885 46.4645 232.5C47.1671 232.103 47.9718 231.905 48.8785 231.905C49.7738 231.905 50.5728 232.103 51.2755 232.5C51.9895 232.885 52.5448 233.424 52.9415 234.115C53.3495 234.795 53.5535 235.588 53.5535 236.495C53.5535 237.39 53.3495 238.184 52.9415 238.875C52.5448 239.566 51.9895 240.11 51.2755 240.507C50.5728 240.904 49.7738 241.102 48.8785 241.102ZM48.8785 239.674C49.4565 239.674 49.9721 239.544 50.4255 239.283C50.8901 239.022 51.2528 238.654 51.5135 238.178C51.7741 237.691 51.9045 237.13 51.9045 236.495C51.9045 235.849 51.7741 235.294 51.5135 234.829C51.2528 234.353 50.8901 233.985 50.4255 233.724C49.9721 233.463 49.4565 233.333 48.8785 233.333C48.3005 233.333 47.7848 233.463 47.3315 233.724C46.8781 233.985 46.5155 234.353 46.2435 234.829C45.9715 235.294 45.8355 235.849 45.8355 236.495C45.8355 237.13 45.9715 237.691 46.2435 238.178C46.5155 238.654 46.8781 239.022 47.3315 239.283C47.7848 239.544 48.3005 239.674 48.8785 239.674ZM55.9101 241V231.99H57.5931L61.4691 238.654H60.7891L64.7671 231.99H66.2971V241H64.8181V233.826L65.0901 233.979L61.4521 239.98H60.7381L57.0831 233.86L57.4061 233.792V241H55.9101ZM73.3326 241.102C72.4259 241.102 71.6212 240.904 70.9186 240.507C70.2159 240.11 69.6606 239.566 69.2526 238.875C68.8446 238.172 68.6406 237.379 68.6406 236.495C68.6406 235.6 68.8446 234.806 69.2526 234.115C69.6606 233.424 70.2159 232.885 70.9186 232.5C71.6212 232.103 72.4259 231.905 73.3326 231.905C74.2279 231.905 75.0269 232.103 75.7296 232.5C76.4436 232.885 76.9989 233.424 77.3956 234.115C77.8036 234.795 78.0076 235.588 78.0076 236.495C78.0076 237.39 77.8036 238.184 77.3956 238.875C76.9989 239.566 76.4436 240.11 75.7296 240.507C75.0269 240.904 74.2279 241.102 73.3326 241.102ZM73.3326 239.674C73.9106 239.674 74.4262 239.544 74.8796 239.283C75.3442 239.022 75.7069 238.654 75.9676 238.178C76.2282 237.691 76.3586 237.13 76.3586 236.495C76.3586 235.849 76.2282 235.294 75.9676 234.829C75.7069 234.353 75.3442 233.985 74.8796 233.724C74.4262 233.463 73.9106 233.333 73.3326 233.333C72.7546 233.333 72.2389 233.463 71.7856 233.724C71.3322 233.985 70.9696 234.353 70.6976 234.829C70.4256 235.294 70.2896 235.849 70.2896 236.495C70.2896 237.13 70.4256 237.691 70.6976 238.178C70.9696 238.654 71.3322 239.022 71.7856 239.283C72.2389 239.544 72.7546 239.674 73.3326 239.674ZM84.5292 241.136C83.7812 241.136 83.1182 241.017 82.5402 240.779C81.9735 240.541 81.4862 240.19 81.0782 239.725C80.6702 239.249 80.3585 238.654 80.1432 237.94C79.9392 237.215 79.8372 236.365 79.8372 235.39C79.8372 234.619 79.9052 233.928 80.0412 233.316C80.1772 232.704 80.3699 232.16 80.6192 231.684C80.8799 231.208 81.1972 230.794 81.5712 230.443C81.9565 230.092 82.3872 229.803 82.8632 229.576C83.3505 229.338 83.8832 229.157 84.4612 229.032L88.5752 228.114L88.8132 229.627L85.0222 230.443C84.7955 230.488 84.5235 230.556 84.2062 230.647C83.8889 230.738 83.5659 230.879 83.2372 231.072C82.9085 231.253 82.6025 231.508 82.3192 231.837C82.0359 232.166 81.8092 232.596 81.6392 233.129C81.4692 233.65 81.3842 234.296 81.3842 235.067C81.3842 235.282 81.3899 235.447 81.4012 235.56C81.4125 235.673 81.4239 235.787 81.4352 235.9C81.4579 236.013 81.4749 236.183 81.4862 236.41L80.8062 235.713C80.9875 235.09 81.2765 234.546 81.6732 234.081C82.0699 233.616 82.5459 233.259 83.1012 233.01C83.6679 232.749 84.2855 232.619 84.9542 232.619C85.7929 232.619 86.5352 232.8 87.1812 233.163C87.8385 233.526 88.3542 234.024 88.7282 234.659C89.1022 235.294 89.2892 236.019 89.2892 236.835C89.2892 237.662 89.0909 238.405 88.6942 239.062C88.3089 239.708 87.7592 240.218 87.0452 240.592C86.3312 240.955 85.4925 241.136 84.5292 241.136ZM84.6822 239.776C85.2602 239.776 85.7702 239.651 86.2122 239.402C86.6542 239.141 86.9999 238.796 87.2492 238.365C87.4985 237.923 87.6232 237.43 87.6232 236.886C87.6232 236.342 87.4985 235.86 87.2492 235.441C86.9999 235.022 86.6542 234.693 86.2122 234.455C85.7702 234.206 85.2489 234.081 84.6482 234.081C84.0815 234.081 83.5715 234.2 83.1182 234.438C82.6649 234.665 82.3135 234.988 82.0642 235.407C81.8149 235.815 81.6902 236.291 81.6902 236.835C81.6902 237.379 81.8149 237.878 82.0642 238.331C82.3249 238.773 82.6762 239.124 83.1182 239.385C83.5715 239.646 84.0929 239.776 84.6822 239.776ZM91.6201 241V231.99H93.2521V238.552L98.7771 231.99H100.256V241H98.6241V234.438L93.1161 241H91.6201ZM101.928 240.983L102.03 239.606C102.109 239.617 102.183 239.629 102.251 239.64C102.319 239.651 102.381 239.657 102.438 239.657C102.8 239.657 103.084 239.532 103.288 239.283C103.503 239.034 103.662 238.705 103.764 238.297C103.866 237.878 103.939 237.407 103.985 236.886C104.03 236.365 104.064 235.843 104.087 235.322L104.24 231.99H111.159V241H109.527V232.942L109.918 233.418H105.294L105.668 232.925L105.549 235.424C105.515 236.217 105.452 236.96 105.362 237.651C105.271 238.342 105.129 238.949 104.937 239.47C104.755 239.991 104.5 240.399 104.172 240.694C103.854 240.989 103.441 241.136 102.931 241.136C102.783 241.136 102.625 241.119 102.455 241.085C102.296 241.062 102.12 241.028 101.928 240.983ZM120.077 241V237.838L120.332 238.144H117.459C116.258 238.144 115.317 237.889 114.637 237.379C113.969 236.869 113.634 236.127 113.634 235.152C113.634 234.109 113.991 233.322 114.705 232.789C115.431 232.256 116.394 231.99 117.595 231.99H121.539V241H120.077ZM113.549 241L115.997 237.549H117.68L115.3 241H113.549ZM120.077 237.328V232.959L120.332 233.418H117.646C116.898 233.418 116.32 233.56 115.912 233.843C115.504 234.115 115.3 234.568 115.3 235.203C115.3 236.382 116.06 236.971 117.578 236.971H120.332L120.077 237.328Z" fill="#434343"/>
</svg>
