<svg width="300" height="239" viewBox="0 0 300 239" fill="none" xmlns="http://www.w3.org/2000/svg">
<path d="M0 50C0 26.4298 0 14.6447 7.32233 7.32233C14.6447 0 26.4298 0 50 0H258.544C258.796 0 258.922 0 259.016 0.00438307C261.703 0.130288 263.503 2.81976 262.594 5.35171C262.562 5.43986 262.514 5.55661 262.417 5.79013L259.867 11.9672C251.281 32.7641 276.444 51.0542 293.576 36.469C296.107 34.3144 300 36.1129 300 39.4366V189C300 212.57 300 224.355 292.678 231.678C285.355 239 273.57 239 250 239H50C26.4298 239 14.6447 239 7.32233 231.678C0 224.355 0 212.57 0 189V50Z" fill="#F3F5F7"/>
<circle cx="280.5" cy="19.5" r="19.5" fill="#F3F5F7"/>
<path d="M273 20.25H288M288 20.25L281 13M288 20.25L281 27" stroke="#00AAFF" stroke-width="2" stroke-linecap="round" stroke-linejoin="round"/>
<mask id="mask0_221_14" style="mask-type:alpha" maskUnits="userSpaceOnUse" x="0" y="0" width="298" height="239">
<path d="M0 50C0 26.4298 0 14.6447 7.32233 7.32233C14.6447 0 26.4298 0 50 0H255.06C258.302 0 260.12 3.73304 258.122 6.28568V6.28568C245.887 21.918 262.186 43.6793 280.629 36.3341L291.784 31.8913C292.437 31.631 292.764 31.5009 293.018 31.4365C295.339 30.8487 297.653 32.4179 297.966 34.7916C298 35.0517 298 35.4034 298 36.1067V189C298 212.57 298 224.355 290.678 231.678C283.355 239 271.57 239 248 239H50C26.4298 239 14.6447 239 7.32233 231.678C0 224.355 0 212.57 0 189V50Z" fill="#F3F5F7"/>
</mask>
<g mask="url(#mask0_221_14)">
<path d="M0.599979 122.215C-7.98463 122.215 -15.6 120.231 -22.2462 116.262C-28.8 112.292 -33.9692 106.523 -37.7539 98.9538C-41.4462 91.3846 -43.2923 82.2461 -43.2923 71.5384C-43.2923 60.8307 -41.4462 51.6923 -37.7539 44.123C-33.9692 36.5538 -28.8 30.7846 -22.2462 26.8154C-15.6 22.8461 -7.98463 20.8615 0.599979 20.8615C9.1846 20.8615 16.7538 22.8461 23.3077 26.8154C29.9538 30.7846 35.1231 36.5538 38.8154 44.123C42.6 51.6923 44.4923 60.8307 44.4923 71.5384C44.4923 82.2461 42.6 91.3846 38.8154 98.9538C35.1231 106.523 29.9538 112.292 23.3077 116.262C16.7538 120.231 9.1846 122.215 0.599979 122.215ZM0.599979 96.0461C2.72306 96.0461 4.61537 95.3077 6.27691 93.8307C7.93845 92.3538 9.23075 89.8154 10.1538 86.2154C11.1692 82.6154 11.6769 77.723 11.6769 71.5384C11.6769 65.2615 11.1692 60.3692 10.1538 56.8615C9.23075 53.2615 7.93845 50.723 6.27691 49.2461C4.61537 47.7692 2.72306 47.0307 0.599979 47.0307C-1.5231 47.0307 -3.41541 47.7692 -5.07695 49.2461C-6.73848 50.723 -8.07694 53.2615 -9.09232 56.8615C-10.0154 60.3692 -10.4769 65.2615 -10.4769 71.5384C-10.4769 77.723 -10.0154 82.6154 -9.09232 86.2154C-8.07694 89.8154 -6.73848 92.3538 -5.07695 93.8307C-3.41541 95.3077 -1.5231 96.0461 0.599979 96.0461Z" fill="#00AAFF" fill-opacity="0.1"/>
<path d="M84.5931 122.215C77.947 122.215 71.2085 121.477 64.3777 120C57.547 118.523 51.547 116.354 46.3777 113.492L57.4547 89.4C61.6085 91.8 65.947 93.6 70.4701 94.8C75.0854 95.9077 79.4239 96.4615 83.4854 96.4615C87.1777 96.4615 90.1777 95.8615 92.4854 94.6615C94.8854 93.3692 96.0854 91.4769 96.0854 88.9846C96.0854 86.8615 95.2085 85.2461 93.4547 84.1384C91.7008 82.9384 88.747 82.3384 84.5931 82.3384H71.7162V62.2615L96.7777 36.7846L99.6854 47.7231H51.3624V23.0769H123.639V43.1538L98.5777 68.6307L82.9316 59.7692H91.5162C103.701 59.7692 112.978 62.4923 119.347 67.9384C125.716 73.3846 128.901 80.4 128.901 88.9846C128.901 94.523 127.332 99.8307 124.193 104.908C121.147 109.985 116.347 114.138 109.793 117.369C103.332 120.6 94.9316 122.215 84.5931 122.215Z" fill="#00AAFF" fill-opacity="0.1"/>
</g>
<path d="M16.853 157V145.1H21.97C23.262 145.1 24.2763 145.361 25.013 145.882C25.7497 146.403 26.118 147.163 26.118 148.16C26.118 149.135 25.7667 149.883 25.064 150.404C24.3613 150.914 23.4377 151.169 22.293 151.169L22.599 150.659C23.925 150.659 24.9393 150.925 25.642 151.458C26.356 151.979 26.713 152.744 26.713 153.753C26.713 154.773 26.339 155.572 25.591 156.15C24.8543 156.717 23.755 157 22.293 157H16.853ZM18.536 155.657H22.259C23.1657 155.657 23.8457 155.493 24.299 155.164C24.7637 154.824 24.996 154.308 24.996 153.617C24.996 152.926 24.7637 152.421 24.299 152.104C23.8457 151.787 23.1657 151.628 22.259 151.628H18.536V155.657ZM18.536 150.336H21.851C22.6783 150.336 23.3073 150.172 23.738 149.843C24.18 149.514 24.401 149.033 24.401 148.398C24.401 147.752 24.18 147.265 23.738 146.936C23.3073 146.607 22.6783 146.443 21.851 146.443H18.536V150.336ZM33.2082 157.102C32.2902 157.102 31.4685 156.904 30.7432 156.507C30.0292 156.11 29.4682 155.566 29.0602 154.875C28.6522 154.184 28.4482 153.39 28.4482 152.495C28.4482 151.6 28.6522 150.806 29.0602 150.115C29.4682 149.424 30.0292 148.885 30.7432 148.5C31.4685 148.103 32.2902 147.905 33.2082 147.905C34.0242 147.905 34.7495 148.069 35.3842 148.398C36.0302 148.715 36.5289 149.191 36.8802 149.826L35.6392 150.625C35.3445 150.183 34.9819 149.86 34.5512 149.656C34.1319 149.441 33.6785 149.333 33.1912 149.333C32.6019 149.333 32.0749 149.463 31.6102 149.724C31.1455 149.985 30.7772 150.353 30.5052 150.829C30.2332 151.294 30.0972 151.849 30.0972 152.495C30.0972 153.141 30.2332 153.702 30.5052 154.178C30.7772 154.654 31.1455 155.022 31.6102 155.283C32.0749 155.544 32.6019 155.674 33.1912 155.674C33.6785 155.674 34.1319 155.572 34.5512 155.368C34.9819 155.153 35.3445 154.824 35.6392 154.382L36.8802 155.164C36.5289 155.787 36.0302 156.269 35.3842 156.609C34.7495 156.938 34.0242 157.102 33.2082 157.102ZM40.6619 157V148.993L41.0699 149.418H37.3639V147.99H45.5919V149.418H41.9029L42.2939 148.993V157H40.6619ZM52.0377 157.102C51.2897 157.102 50.604 156.932 49.9807 156.592C49.3687 156.241 48.8757 155.725 48.5017 155.045C48.139 154.365 47.9577 153.515 47.9577 152.495C47.9577 151.475 48.1334 150.625 48.4847 149.945C48.8474 149.265 49.3347 148.755 49.9467 148.415C50.57 148.075 51.267 147.905 52.0377 147.905C52.9217 147.905 53.7037 148.098 54.3837 148.483C55.0637 148.868 55.602 149.407 55.9987 150.098C56.3954 150.778 56.5937 151.577 56.5937 152.495C56.5937 153.413 56.3954 154.218 55.9987 154.909C55.602 155.6 55.0637 156.139 54.3837 156.524C53.7037 156.909 52.9217 157.102 52.0377 157.102ZM47.2607 160.298V147.99H48.8247V150.421L48.7227 152.512L48.8927 154.603V160.298H47.2607ZM51.9017 155.674C52.4797 155.674 52.9954 155.544 53.4487 155.283C53.9134 155.022 54.276 154.654 54.5367 154.178C54.8087 153.691 54.9447 153.13 54.9447 152.495C54.9447 151.849 54.8087 151.294 54.5367 150.829C54.276 150.353 53.9134 149.985 53.4487 149.724C52.9954 149.463 52.4797 149.333 51.9017 149.333C51.335 149.333 50.8194 149.463 50.3547 149.724C49.9014 149.985 49.5387 150.353 49.2667 150.829C49.006 151.294 48.8757 151.849 48.8757 152.495C48.8757 153.13 49.006 153.691 49.2667 154.178C49.5387 154.654 49.9014 155.022 50.3547 155.283C50.8194 155.544 51.335 155.674 51.9017 155.674ZM62.9768 157.102C62.0135 157.102 61.1635 156.904 60.4268 156.507C59.7015 156.11 59.1348 155.566 58.7268 154.875C58.3301 154.184 58.1318 153.39 58.1318 152.495C58.1318 151.6 58.3245 150.806 58.7098 150.115C59.1065 149.424 59.6448 148.885 60.3248 148.5C61.0161 148.103 61.7925 147.905 62.6538 147.905C63.5265 147.905 64.2971 148.098 64.9658 148.483C65.6345 148.868 66.1558 149.412 66.5298 150.115C66.9151 150.806 67.1078 151.617 67.1078 152.546C67.1078 152.614 67.1021 152.693 67.0908 152.784C67.0908 152.875 67.0851 152.96 67.0738 153.039H59.4068V151.866H66.2238L65.5608 152.274C65.5721 151.696 65.4531 151.18 65.2038 150.727C64.9545 150.274 64.6088 149.922 64.1668 149.673C63.7361 149.412 63.2318 149.282 62.6538 149.282C62.0871 149.282 61.5828 149.412 61.1408 149.673C60.6988 149.922 60.3531 150.279 60.1038 150.744C59.8545 151.197 59.7298 151.719 59.7298 152.308V152.58C59.7298 153.181 59.8658 153.719 60.1378 154.195C60.4211 154.66 60.8121 155.022 61.3108 155.283C61.8095 155.544 62.3818 155.674 63.0278 155.674C63.5605 155.674 64.0421 155.583 64.4728 155.402C64.9148 155.221 65.3001 154.949 65.6288 154.586L66.5298 155.64C66.1218 156.116 65.6118 156.479 64.9998 156.728C64.3991 156.977 63.7248 157.102 62.9768 157.102ZM75.3176 153.311C74.8416 153.538 74.3486 153.719 73.8386 153.855C73.3399 153.98 72.8243 154.042 72.2916 154.042C71.2036 154.042 70.3423 153.787 69.7076 153.277C69.0843 152.767 68.7726 151.979 68.7726 150.914V147.99H70.4046V150.812C70.4046 151.458 70.6029 151.934 70.9996 152.24C71.4076 152.546 71.9516 152.699 72.6316 152.699C73.0623 152.699 73.5043 152.642 73.9576 152.529C74.4223 152.416 74.8756 152.257 75.3176 152.053V153.311ZM75.1986 157V147.99H76.8306V157H75.1986ZM85.524 157V155.096L85.439 154.739V151.492C85.439 150.801 85.235 150.268 84.827 149.894C84.4303 149.509 83.8296 149.316 83.025 149.316C82.4923 149.316 81.971 149.407 81.461 149.588C80.951 149.758 80.5203 149.99 80.169 150.285L79.489 149.061C79.9536 148.687 80.509 148.404 81.155 148.211C81.8123 148.007 82.498 147.905 83.212 147.905C84.4473 147.905 85.3993 148.205 86.068 148.806C86.7366 149.407 87.071 150.325 87.071 151.56V157H85.524ZM82.566 157.102C81.8973 157.102 81.308 156.989 80.798 156.762C80.2993 156.535 79.914 156.224 79.642 155.827C79.37 155.419 79.234 154.96 79.234 154.45C79.234 153.963 79.3473 153.521 79.574 153.124C79.812 152.727 80.1916 152.41 80.713 152.172C81.2456 151.934 81.9596 151.815 82.855 151.815H85.711V152.988H82.923C82.107 152.988 81.5573 153.124 81.274 153.396C80.9906 153.668 80.849 153.997 80.849 154.382C80.849 154.824 81.0246 155.181 81.376 155.453C81.7273 155.714 82.2146 155.844 82.838 155.844C83.45 155.844 83.9826 155.708 84.436 155.436C84.9006 155.164 85.235 154.767 85.439 154.246L85.762 155.368C85.5466 155.901 85.167 156.326 84.623 156.643C84.079 156.949 83.3933 157.102 82.566 157.102ZM98.5021 157.102C97.5841 157.102 96.7625 156.904 96.0371 156.507C95.3231 156.11 94.7621 155.566 94.3541 154.875C93.9461 154.184 93.7421 153.39 93.7421 152.495C93.7421 151.6 93.9461 150.806 94.3541 150.115C94.7621 149.424 95.3231 148.885 96.0371 148.5C96.7625 148.103 97.5841 147.905 98.5021 147.905C99.3181 147.905 100.043 148.069 100.678 148.398C101.324 148.715 101.823 149.191 102.174 149.826L100.933 150.625C100.638 150.183 100.276 149.86 99.8451 149.656C99.4258 149.441 98.9725 149.333 98.4851 149.333C97.8958 149.333 97.3688 149.463 96.9041 149.724C96.4395 149.985 96.0711 150.353 95.7991 150.829C95.5271 151.294 95.3911 151.849 95.3911 152.495C95.3911 153.141 95.5271 153.702 95.7991 154.178C96.0711 154.654 96.4395 155.022 96.9041 155.283C97.3688 155.544 97.8958 155.674 98.4851 155.674C98.9725 155.674 99.4258 155.572 99.8451 155.368C100.276 155.153 100.638 154.824 100.933 154.382L102.174 155.164C101.823 155.787 101.324 156.269 100.678 156.609C100.043 156.938 99.3181 157.102 98.5021 157.102ZM108.852 157V147.99H117.199V157H115.567V149.01L115.958 149.418H110.093L110.484 149.01V157H108.852ZM125.134 157.102C124.386 157.102 123.701 156.932 123.077 156.592C122.465 156.241 121.972 155.725 121.598 155.045C121.236 154.365 121.054 153.515 121.054 152.495C121.054 151.475 121.23 150.625 121.581 149.945C121.944 149.265 122.431 148.755 123.043 148.415C123.667 148.075 124.364 147.905 125.134 147.905C126.018 147.905 126.8 148.098 127.48 148.483C128.16 148.868 128.699 149.407 129.095 150.098C129.492 150.778 129.69 151.577 129.69 152.495C129.69 153.413 129.492 154.218 129.095 154.909C128.699 155.6 128.16 156.139 127.48 156.524C126.8 156.909 126.018 157.102 125.134 157.102ZM120.357 160.298V147.99H121.921V150.421L121.819 152.512L121.989 154.603V160.298H120.357ZM124.998 155.674C125.576 155.674 126.092 155.544 126.545 155.283C127.01 155.022 127.373 154.654 127.633 154.178C127.905 153.691 128.041 153.13 128.041 152.495C128.041 151.849 127.905 151.294 127.633 150.829C127.373 150.353 127.01 149.985 126.545 149.724C126.092 149.463 125.576 149.333 124.998 149.333C124.432 149.333 123.916 149.463 123.451 149.724C122.998 149.985 122.635 150.353 122.363 150.829C122.103 151.294 121.972 151.849 121.972 152.495C121.972 153.13 122.103 153.691 122.363 154.178C122.635 154.654 122.998 155.022 123.451 155.283C123.916 155.544 124.432 155.674 124.998 155.674ZM135.92 157.102C135.014 157.102 134.209 156.904 133.506 156.507C132.804 156.11 132.248 155.566 131.84 154.875C131.432 154.172 131.228 153.379 131.228 152.495C131.228 151.6 131.432 150.806 131.84 150.115C132.248 149.424 132.804 148.885 133.506 148.5C134.209 148.103 135.014 147.905 135.92 147.905C136.816 147.905 137.615 148.103 138.317 148.5C139.031 148.885 139.587 149.424 139.983 150.115C140.391 150.795 140.595 151.588 140.595 152.495C140.595 153.39 140.391 154.184 139.983 154.875C139.587 155.566 139.031 156.11 138.317 156.507C137.615 156.904 136.816 157.102 135.92 157.102ZM135.92 155.674C136.498 155.674 137.014 155.544 137.467 155.283C137.932 155.022 138.295 154.654 138.555 154.178C138.816 153.691 138.946 153.13 138.946 152.495C138.946 151.849 138.816 151.294 138.555 150.829C138.295 150.353 137.932 149.985 137.467 149.724C137.014 149.463 136.498 149.333 135.92 149.333C135.342 149.333 134.827 149.463 134.373 149.724C133.92 149.985 133.557 150.353 133.285 150.829C133.013 151.294 132.877 151.849 132.877 152.495C132.877 153.13 133.013 153.691 133.285 154.178C133.557 154.654 133.92 155.022 134.373 155.283C134.827 155.544 135.342 155.674 135.92 155.674ZM149.04 156.235V149.418H145.13L145.045 151.152C145.022 151.719 144.982 152.268 144.926 152.801C144.88 153.322 144.801 153.804 144.688 154.246C144.586 154.688 144.433 155.051 144.229 155.334C144.025 155.617 143.753 155.793 143.413 155.861L141.798 155.572C142.149 155.583 142.432 155.47 142.648 155.232C142.863 154.983 143.027 154.643 143.141 154.212C143.265 153.781 143.356 153.294 143.413 152.75C143.469 152.195 143.515 151.622 143.549 151.033L143.685 147.99H150.672V156.235H149.04ZM141.441 159.091V155.572H152.049V159.091H150.519V157H142.988V159.091H141.441ZM159.7 157V155.096L159.615 154.739V151.492C159.615 150.801 159.411 150.268 159.003 149.894C158.606 149.509 158.005 149.316 157.201 149.316C156.668 149.316 156.147 149.407 155.637 149.588C155.127 149.758 154.696 149.99 154.345 150.285L153.665 149.061C154.129 148.687 154.685 148.404 155.331 148.211C155.988 148.007 156.674 147.905 157.388 147.905C158.623 147.905 159.575 148.205 160.244 148.806C160.912 149.407 161.247 150.325 161.247 151.56V157H159.7ZM156.742 157.102C156.073 157.102 155.484 156.989 154.974 156.762C154.475 156.535 154.09 156.224 153.818 155.827C153.546 155.419 153.41 154.96 153.41 154.45C153.41 153.963 153.523 153.521 153.75 153.124C153.988 152.727 154.367 152.41 154.889 152.172C155.421 151.934 156.135 151.815 157.031 151.815H159.887V152.988H157.099C156.283 152.988 155.733 153.124 155.45 153.396C155.166 153.668 155.025 153.997 155.025 154.382C155.025 154.824 155.2 155.181 155.552 155.453C155.903 155.714 156.39 155.844 157.014 155.844C157.626 155.844 158.158 155.708 158.612 155.436C159.076 155.164 159.411 154.767 159.615 154.246L159.938 155.368C159.722 155.901 159.343 156.326 158.799 156.643C158.255 156.949 157.569 157.102 156.742 157.102ZM164.185 157V147.99H168.367C169.421 147.99 170.249 148.194 170.849 148.602C171.461 148.999 171.767 149.565 171.767 150.302C171.767 151.039 171.478 151.611 170.9 152.019C170.334 152.416 169.58 152.614 168.639 152.614L168.894 152.172C169.971 152.172 170.77 152.37 171.291 152.767C171.813 153.164 172.073 153.747 172.073 154.518C172.073 155.3 171.779 155.912 171.189 156.354C170.611 156.785 169.722 157 168.52 157H164.185ZM165.783 155.742H168.401C169.081 155.742 169.591 155.64 169.931 155.436C170.271 155.221 170.441 154.881 170.441 154.416C170.441 153.94 170.283 153.594 169.965 153.379C169.659 153.152 169.172 153.039 168.503 153.039H165.783V155.742ZM165.783 151.866H168.231C168.855 151.866 169.325 151.753 169.642 151.526C169.971 151.288 170.135 150.959 170.135 150.54C170.135 150.109 169.971 149.786 169.642 149.571C169.325 149.356 168.855 149.248 168.231 149.248H165.783V151.866ZM174.628 157V147.99H176.26V155.572H181.19V147.99H182.822V157H174.628ZM182.703 159.091V156.915L183.111 157H181.19V155.572H184.25V159.091H182.703ZM190.224 157.102C189.318 157.102 188.513 156.904 187.81 156.507C187.108 156.11 186.552 155.566 186.144 154.875C185.736 154.172 185.532 153.379 185.532 152.495C185.532 151.6 185.736 150.806 186.144 150.115C186.552 149.424 187.108 148.885 187.81 148.5C188.513 148.103 189.318 147.905 190.224 147.905C191.12 147.905 191.919 148.103 192.621 148.5C193.335 148.885 193.891 149.424 194.287 150.115C194.695 150.795 194.899 151.588 194.899 152.495C194.899 153.39 194.695 154.184 194.287 154.875C193.891 155.566 193.335 156.11 192.621 156.507C191.919 156.904 191.12 157.102 190.224 157.102ZM190.224 155.674C190.802 155.674 191.318 155.544 191.771 155.283C192.236 155.022 192.599 154.654 192.859 154.178C193.12 153.691 193.25 153.13 193.25 152.495C193.25 151.849 193.12 151.294 192.859 150.829C192.599 150.353 192.236 149.985 191.771 149.724C191.318 149.463 190.802 149.333 190.224 149.333C189.646 149.333 189.131 149.463 188.677 149.724C188.224 149.985 187.861 150.353 187.589 150.829C187.317 151.294 187.181 151.849 187.181 152.495C187.181 153.13 187.317 153.691 187.589 154.178C187.861 154.654 188.224 155.022 188.677 155.283C189.131 155.544 189.646 155.674 190.224 155.674ZM197.256 157V147.99H198.939L202.815 154.654H202.135L206.113 147.99H207.643V157H206.164V149.826L206.436 149.979L202.798 155.98H202.084L198.429 149.86L198.752 149.792V157H197.256ZM22.106 178V176.096L22.021 175.739V172.492C22.021 171.801 21.817 171.268 21.409 170.894C21.0123 170.509 20.4117 170.316 19.607 170.316C19.0743 170.316 18.553 170.407 18.043 170.588C17.533 170.758 17.1023 170.99 16.751 171.285L16.071 170.061C16.5357 169.687 17.091 169.404 17.737 169.211C18.3943 169.007 19.08 168.905 19.794 168.905C21.0293 168.905 21.9813 169.205 22.65 169.806C23.3187 170.407 23.653 171.325 23.653 172.56V178H22.106ZM19.148 178.102C18.4793 178.102 17.89 177.989 17.38 177.762C16.8813 177.535 16.496 177.224 16.224 176.827C15.952 176.419 15.816 175.96 15.816 175.45C15.816 174.963 15.9293 174.521 16.156 174.124C16.394 173.727 16.7737 173.41 17.295 173.172C17.8277 172.934 18.5417 172.815 19.437 172.815H22.293V173.988H19.505C18.689 173.988 18.1393 174.124 17.856 174.396C17.5727 174.668 17.431 174.997 17.431 175.382C17.431 175.824 17.6067 176.181 17.958 176.453C18.3093 176.714 18.7967 176.844 19.42 176.844C20.032 176.844 20.5647 176.708 21.018 176.436C21.4827 176.164 21.817 175.767 22.021 175.246L22.344 176.368C22.1287 176.901 21.749 177.326 21.205 177.643C20.661 177.949 19.9753 178.102 19.148 178.102ZM26.5917 178V168.99H30.7737C31.8277 168.99 32.6551 169.194 33.2557 169.602C33.8677 169.999 34.1737 170.565 34.1737 171.302C34.1737 172.039 33.8847 172.611 33.3067 173.019C32.7401 173.416 31.9864 173.614 31.0457 173.614L31.3007 173.172C32.3774 173.172 33.1764 173.37 33.6977 173.767C34.2191 174.164 34.4797 174.747 34.4797 175.518C34.4797 176.3 34.1851 176.912 33.5957 177.354C33.0177 177.785 32.1281 178 30.9267 178H26.5917ZM28.1897 176.742H30.8077C31.4877 176.742 31.9977 176.64 32.3377 176.436C32.6777 176.221 32.8477 175.881 32.8477 175.416C32.8477 174.94 32.6891 174.594 32.3717 174.379C32.0657 174.152 31.5784 174.039 30.9097 174.039H28.1897V176.742ZM28.1897 172.866H30.6377C31.2611 172.866 31.7314 172.753 32.0487 172.526C32.3774 172.288 32.5417 171.959 32.5417 171.54C32.5417 171.109 32.3774 170.786 32.0487 170.571C31.7314 170.356 31.2611 170.248 30.6377 170.248H28.1897V172.866ZM38.8191 178V169.993L39.2271 170.418H35.5211V168.99H43.7491V170.418H40.0601L40.4511 169.993V178H38.8191ZM48.8785 178.102C47.9718 178.102 47.1671 177.904 46.4645 177.507C45.7618 177.11 45.2065 176.566 44.7985 175.875C44.3905 175.172 44.1865 174.379 44.1865 173.495C44.1865 172.6 44.3905 171.806 44.7985 171.115C45.2065 170.424 45.7618 169.885 46.4645 169.5C47.1671 169.103 47.9718 168.905 48.8785 168.905C49.7738 168.905 50.5728 169.103 51.2755 169.5C51.9895 169.885 52.5448 170.424 52.9415 171.115C53.3495 171.795 53.5535 172.588 53.5535 173.495C53.5535 174.39 53.3495 175.184 52.9415 175.875C52.5448 176.566 51.9895 177.11 51.2755 177.507C50.5728 177.904 49.7738 178.102 48.8785 178.102ZM48.8785 176.674C49.4565 176.674 49.9721 176.544 50.4255 176.283C50.8901 176.022 51.2528 175.654 51.5135 175.178C51.7741 174.691 51.9045 174.13 51.9045 173.495C51.9045 172.849 51.7741 172.294 51.5135 171.829C51.2528 171.353 50.8901 170.985 50.4255 170.724C49.9721 170.463 49.4565 170.333 48.8785 170.333C48.3005 170.333 47.7848 170.463 47.3315 170.724C46.8781 170.985 46.5155 171.353 46.2435 171.829C45.9715 172.294 45.8355 172.849 45.8355 173.495C45.8355 174.13 45.9715 174.691 46.2435 175.178C46.5155 175.654 46.8781 176.022 47.3315 176.283C47.7848 176.544 48.3005 176.674 48.8785 176.674ZM55.9101 178V168.99H57.5931L61.4691 175.654H60.7891L64.7671 168.99H66.2971V178H64.8181V170.826L65.0901 170.979L61.4521 176.98H60.7381L57.0831 170.86L57.4061 170.792V178H55.9101ZM73.3326 178.102C72.4259 178.102 71.6212 177.904 70.9186 177.507C70.2159 177.11 69.6606 176.566 69.2526 175.875C68.8446 175.172 68.6406 174.379 68.6406 173.495C68.6406 172.6 68.8446 171.806 69.2526 171.115C69.6606 170.424 70.2159 169.885 70.9186 169.5C71.6212 169.103 72.4259 168.905 73.3326 168.905C74.2279 168.905 75.0269 169.103 75.7296 169.5C76.4436 169.885 76.9989 170.424 77.3956 171.115C77.8036 171.795 78.0076 172.588 78.0076 173.495C78.0076 174.39 77.8036 175.184 77.3956 175.875C76.9989 176.566 76.4436 177.11 75.7296 177.507C75.0269 177.904 74.2279 178.102 73.3326 178.102ZM73.3326 176.674C73.9106 176.674 74.4262 176.544 74.8796 176.283C75.3442 176.022 75.7069 175.654 75.9676 175.178C76.2282 174.691 76.3586 174.13 76.3586 173.495C76.3586 172.849 76.2282 172.294 75.9676 171.829C75.7069 171.353 75.3442 170.985 74.8796 170.724C74.4262 170.463 73.9106 170.333 73.3326 170.333C72.7546 170.333 72.2389 170.463 71.7856 170.724C71.3322 170.985 70.9696 171.353 70.6976 171.829C70.4256 172.294 70.2896 172.849 70.2896 173.495C70.2896 174.13 70.4256 174.691 70.6976 175.178C70.9696 175.654 71.3322 176.022 71.7856 176.283C72.2389 176.544 72.7546 176.674 73.3326 176.674ZM84.5292 178.136C83.7812 178.136 83.1182 178.017 82.5402 177.779C81.9735 177.541 81.4862 177.19 81.0782 176.725C80.6702 176.249 80.3585 175.654 80.1432 174.94C79.9392 174.215 79.8372 173.365 79.8372 172.39C79.8372 171.619 79.9052 170.928 80.0412 170.316C80.1772 169.704 80.3699 169.16 80.6192 168.684C80.8799 168.208 81.1972 167.794 81.5712 167.443C81.9565 167.092 82.3872 166.803 82.8632 166.576C83.3505 166.338 83.8832 166.157 84.4612 166.032L88.5752 165.114L88.8132 166.627L85.0222 167.443C84.7955 167.488 84.5235 167.556 84.2062 167.647C83.8889 167.738 83.5659 167.879 83.2372 168.072C82.9085 168.253 82.6025 168.508 82.3192 168.837C82.0359 169.166 81.8092 169.596 81.6392 170.129C81.4692 170.65 81.3842 171.296 81.3842 172.067C81.3842 172.282 81.3899 172.447 81.4012 172.56C81.4125 172.673 81.4239 172.787 81.4352 172.9C81.4579 173.013 81.4749 173.183 81.4862 173.41L80.8062 172.713C80.9875 172.09 81.2765 171.546 81.6732 171.081C82.0699 170.616 82.5459 170.259 83.1012 170.01C83.6679 169.749 84.2855 169.619 84.9542 169.619C85.7929 169.619 86.5352 169.8 87.1812 170.163C87.8385 170.526 88.3542 171.024 88.7282 171.659C89.1022 172.294 89.2892 173.019 89.2892 173.835C89.2892 174.662 89.0909 175.405 88.6942 176.062C88.3089 176.708 87.7592 177.218 87.0452 177.592C86.3312 177.955 85.4925 178.136 84.5292 178.136ZM84.6822 176.776C85.2602 176.776 85.7702 176.651 86.2122 176.402C86.6542 176.141 86.9999 175.796 87.2492 175.365C87.4985 174.923 87.6232 174.43 87.6232 173.886C87.6232 173.342 87.4985 172.86 87.2492 172.441C86.9999 172.022 86.6542 171.693 86.2122 171.455C85.7702 171.206 85.2489 171.081 84.6482 171.081C84.0815 171.081 83.5715 171.2 83.1182 171.438C82.6649 171.665 82.3135 171.988 82.0642 172.407C81.8149 172.815 81.6902 173.291 81.6902 173.835C81.6902 174.379 81.8149 174.878 82.0642 175.331C82.3249 175.773 82.6762 176.124 83.1182 176.385C83.5715 176.646 84.0929 176.776 84.6822 176.776ZM91.6201 178V168.99H93.2521V175.552L98.7771 168.99H100.256V178H98.6241V171.438L93.1161 178H91.6201ZM101.928 177.983L102.03 176.606C102.109 176.617 102.183 176.629 102.251 176.64C102.319 176.651 102.381 176.657 102.438 176.657C102.8 176.657 103.084 176.532 103.288 176.283C103.503 176.034 103.662 175.705 103.764 175.297C103.866 174.878 103.939 174.407 103.985 173.886C104.03 173.365 104.064 172.843 104.087 172.322L104.24 168.99H111.159V178H109.527V169.942L109.918 170.418H105.294L105.668 169.925L105.549 172.424C105.515 173.217 105.452 173.96 105.362 174.651C105.271 175.342 105.129 175.949 104.937 176.47C104.755 176.991 104.5 177.399 104.172 177.694C103.854 177.989 103.441 178.136 102.931 178.136C102.783 178.136 102.625 178.119 102.455 178.085C102.296 178.062 102.12 178.028 101.928 177.983ZM120.077 178V174.838L120.332 175.144H117.459C116.258 175.144 115.317 174.889 114.637 174.379C113.969 173.869 113.634 173.127 113.634 172.152C113.634 171.109 113.991 170.322 114.705 169.789C115.431 169.256 116.394 168.99 117.595 168.99H121.539V178H120.077ZM113.549 178L115.997 174.549H117.68L115.3 178H113.549ZM120.077 174.328V169.959L120.332 170.418H117.646C116.898 170.418 116.32 170.56 115.912 170.843C115.504 171.115 115.3 171.568 115.3 172.203C115.3 173.382 116.06 173.971 117.578 173.971H120.332L120.077 174.328ZM124.044 180.516L124.894 177.082L125.115 178.068C124.786 178.068 124.508 177.966 124.282 177.762C124.066 177.558 123.959 177.28 123.959 176.929C123.959 176.589 124.066 176.311 124.282 176.096C124.508 175.881 124.78 175.773 125.098 175.773C125.426 175.773 125.693 175.886 125.897 176.113C126.101 176.328 126.203 176.6 126.203 176.929C126.203 177.042 126.191 177.156 126.169 177.269C126.157 177.371 126.129 177.496 126.084 177.643C126.05 177.779 125.993 177.949 125.914 178.153L125.115 180.516H124.044ZM133.141 178V168.99H137.323C138.377 168.99 139.204 169.194 139.805 169.602C140.417 169.999 140.723 170.565 140.723 171.302C140.723 172.039 140.434 172.611 139.856 173.019C139.289 173.416 138.535 173.614 137.595 173.614L137.85 173.172C138.926 173.172 139.725 173.37 140.247 173.767C140.768 174.164 141.029 174.747 141.029 175.518C141.029 176.3 140.734 176.912 140.145 177.354C139.567 177.785 138.677 178 137.476 178H133.141ZM134.739 176.742H137.357C138.037 176.742 138.547 176.64 138.887 176.436C139.227 176.221 139.397 175.881 139.397 175.416C139.397 174.94 139.238 174.594 138.921 174.379C138.615 174.152 138.127 174.039 137.459 174.039H134.739V176.742ZM134.739 172.866H137.187C137.81 172.866 138.28 172.753 138.598 172.526C138.926 172.288 139.091 171.959 139.091 171.54C139.091 171.109 138.926 170.786 138.598 170.571C138.28 170.356 137.81 170.248 137.187 170.248H134.739V172.866ZM143.583 178V168.99H145.215V172.815H150.349V168.99H151.981V178H150.349V174.226H145.215V178H143.583ZM159.166 178.102C158.203 178.102 157.353 177.904 156.616 177.507C155.891 177.11 155.324 176.566 154.916 175.875C154.52 175.184 154.321 174.39 154.321 173.495C154.321 172.6 154.514 171.806 154.899 171.115C155.296 170.424 155.834 169.885 156.514 169.5C157.206 169.103 157.982 168.905 158.843 168.905C159.716 168.905 160.487 169.098 161.155 169.483C161.824 169.868 162.345 170.412 162.719 171.115C163.105 171.806 163.297 172.617 163.297 173.546C163.297 173.614 163.292 173.693 163.28 173.784C163.28 173.875 163.275 173.96 163.263 174.039H155.596V172.866H162.413L161.75 173.274C161.762 172.696 161.643 172.18 161.393 171.727C161.144 171.274 160.798 170.922 160.356 170.673C159.926 170.412 159.421 170.282 158.843 170.282C158.277 170.282 157.772 170.412 157.33 170.673C156.888 170.922 156.543 171.279 156.293 171.744C156.044 172.197 155.919 172.719 155.919 173.308V173.58C155.919 174.181 156.055 174.719 156.327 175.195C156.611 175.66 157.002 176.022 157.5 176.283C157.999 176.544 158.571 176.674 159.217 176.674C159.75 176.674 160.232 176.583 160.662 176.402C161.104 176.221 161.49 175.949 161.818 175.586L162.719 176.64C162.311 177.116 161.801 177.479 161.189 177.728C160.589 177.977 159.914 178.102 159.166 178.102ZM171.813 176.572L171.439 176.997V168.99H173.071V176.997L172.663 176.572H177.423L177.032 176.997V168.99H178.664V178H165.829V168.99H167.461V176.997L167.07 176.572H171.813ZM181.833 178V168.99H183.465V172.815H188.599V168.99H190.231V178H188.599V174.226H183.465V178H181.833ZM193.404 178V168.99H195.036V175.552L200.561 168.99H202.04V178H200.408V171.438L194.9 178H193.404ZM205.208 178V168.99H206.84V175.552L212.365 168.99H213.844V178H212.212V171.438L206.704 178H205.208ZM209.424 167.817C208.597 167.817 207.945 167.619 207.469 167.222C207.004 166.814 206.766 166.23 206.755 165.471H207.86C207.871 165.902 208.013 166.242 208.285 166.491C208.568 166.74 208.942 166.865 209.407 166.865C209.872 166.865 210.246 166.74 210.529 166.491C210.812 166.242 210.96 165.902 210.971 165.471H212.11C212.099 166.23 211.855 166.814 211.379 167.222C210.903 167.619 210.251 167.817 209.424 167.817ZM225.436 178.102C224.529 178.102 223.725 177.904 223.022 177.507C222.319 177.11 221.764 176.566 221.356 175.875C220.948 175.172 220.744 174.379 220.744 173.495C220.744 172.6 220.948 171.806 221.356 171.115C221.764 170.424 222.319 169.885 223.022 169.5C223.725 169.103 224.529 168.905 225.436 168.905C226.331 168.905 227.13 169.103 227.833 169.5C228.547 169.885 229.102 170.424 229.499 171.115C229.907 171.795 230.111 172.588 230.111 173.495C230.111 174.39 229.907 175.184 229.499 175.875C229.102 176.566 228.547 177.11 227.833 177.507C227.13 177.904 226.331 178.102 225.436 178.102ZM225.436 176.674C226.014 176.674 226.53 176.544 226.983 176.283C227.448 176.022 227.81 175.654 228.071 175.178C228.332 174.691 228.462 174.13 228.462 173.495C228.462 172.849 228.332 172.294 228.071 171.829C227.81 171.353 227.448 170.985 226.983 170.724C226.53 170.463 226.014 170.333 225.436 170.333C224.858 170.333 224.342 170.463 223.889 170.724C223.436 170.985 223.073 171.353 222.801 171.829C222.529 172.294 222.393 172.849 222.393 173.495C222.393 174.13 222.529 174.691 222.801 175.178C223.073 175.654 223.436 176.022 223.889 176.283C224.342 176.544 224.858 176.674 225.436 176.674ZM236.395 178.102C235.477 178.102 234.655 177.904 233.93 177.507C233.216 177.11 232.655 176.566 232.247 175.875C231.839 175.184 231.635 174.39 231.635 173.495C231.635 172.6 231.839 171.806 232.247 171.115C232.655 170.424 233.216 169.885 233.93 169.5C234.655 169.103 235.477 168.905 236.395 168.905C237.211 168.905 237.936 169.069 238.571 169.398C239.217 169.715 239.715 170.191 240.067 170.826L238.826 171.625C238.531 171.183 238.168 170.86 237.738 170.656C237.318 170.441 236.865 170.333 236.378 170.333C235.788 170.333 235.261 170.463 234.797 170.724C234.332 170.985 233.964 171.353 233.692 171.829C233.42 172.294 233.284 172.849 233.284 173.495C233.284 174.141 233.42 174.702 233.692 175.178C233.964 175.654 234.332 176.022 234.797 176.283C235.261 176.544 235.788 176.674 236.378 176.674C236.865 176.674 237.318 176.572 237.738 176.368C238.168 176.153 238.531 175.824 238.826 175.382L240.067 176.164C239.715 176.787 239.217 177.269 238.571 177.609C237.936 177.938 237.211 178.102 236.395 178.102ZM242.18 178V168.99H243.863L247.739 175.654H247.059L251.037 168.99H252.567V178H251.088V170.826L251.36 170.979L247.722 176.98H247.008L243.353 170.86L243.676 170.792V178H242.18ZM259.602 178.102C258.695 178.102 257.891 177.904 257.188 177.507C256.485 177.11 255.93 176.566 255.522 175.875C255.114 175.172 254.91 174.379 254.91 173.495C254.91 172.6 255.114 171.806 255.522 171.115C255.93 170.424 256.485 169.885 257.188 169.5C257.891 169.103 258.695 168.905 259.602 168.905C260.497 168.905 261.296 169.103 261.999 169.5C262.713 169.885 263.268 170.424 263.665 171.115C264.073 171.795 264.277 172.588 264.277 173.495C264.277 174.39 264.073 175.184 263.665 175.875C263.268 176.566 262.713 177.11 261.999 177.507C261.296 177.904 260.497 178.102 259.602 178.102ZM259.602 176.674C260.18 176.674 260.696 176.544 261.149 176.283C261.614 176.022 261.976 175.654 262.237 175.178C262.498 174.691 262.628 174.13 262.628 173.495C262.628 172.849 262.498 172.294 262.237 171.829C261.976 171.353 261.614 170.985 261.149 170.724C260.696 170.463 260.18 170.333 259.602 170.333C259.024 170.333 258.508 170.463 258.055 170.724C257.602 170.985 257.239 171.353 256.967 171.829C256.695 172.294 256.559 172.849 256.559 173.495C256.559 174.13 256.695 174.691 256.967 175.178C257.239 175.654 257.602 176.022 258.055 176.283C258.508 176.544 259.024 176.674 259.602 176.674ZM268.087 178V169.993L268.495 170.418H264.789V168.99H273.017V170.418H269.328L269.719 169.993V178H268.087ZM279.462 178.102C278.714 178.102 278.029 177.932 277.405 177.592C276.793 177.241 276.3 176.725 275.926 176.045C275.564 175.365 275.382 174.515 275.382 173.495C275.382 172.475 275.558 171.625 275.909 170.945C276.272 170.265 276.759 169.755 277.371 169.415C277.995 169.075 278.692 168.905 279.462 168.905C280.346 168.905 281.128 169.098 281.808 169.483C282.488 169.868 283.027 170.407 283.423 171.098C283.82 171.778 284.018 172.577 284.018 173.495C284.018 174.413 283.82 175.218 283.423 175.909C283.027 176.6 282.488 177.139 281.808 177.524C281.128 177.909 280.346 178.102 279.462 178.102ZM274.685 181.298V168.99H276.249V171.421L276.147 173.512L276.317 175.603V181.298H274.685ZM279.326 176.674C279.904 176.674 280.42 176.544 280.873 176.283C281.338 176.022 281.701 175.654 281.961 175.178C282.233 174.691 282.369 174.13 282.369 173.495C282.369 172.849 282.233 172.294 281.961 171.829C281.701 171.353 281.338 170.985 280.873 170.724C280.42 170.463 279.904 170.333 279.326 170.333C278.76 170.333 278.244 170.463 277.779 170.724C277.326 170.985 276.963 171.353 276.691 171.829C276.431 172.294 276.3 172.849 276.3 173.495C276.3 174.13 276.431 174.691 276.691 175.178C276.963 175.654 277.326 176.022 277.779 176.283C278.244 176.544 278.76 176.674 279.326 176.674ZM20.508 199.102C19.59 199.102 18.7683 198.904 18.043 198.507C17.329 198.11 16.768 197.566 16.36 196.875C15.952 196.184 15.748 195.39 15.748 194.495C15.748 193.6 15.952 192.806 16.36 192.115C16.768 191.424 17.329 190.885 18.043 190.5C18.7683 190.103 19.59 189.905 20.508 189.905C21.324 189.905 22.0493 190.069 22.684 190.398C23.33 190.715 23.8287 191.191 24.18 191.826L22.939 192.625C22.6443 192.183 22.2817 191.86 21.851 191.656C21.4317 191.441 20.9783 191.333 20.491 191.333C19.9017 191.333 19.3747 191.463 18.91 191.724C18.4453 191.985 18.077 192.353 17.805 192.829C17.533 193.294 17.397 193.849 17.397 194.495C17.397 195.141 17.533 195.702 17.805 196.178C18.077 196.654 18.4453 197.022 18.91 197.283C19.3747 197.544 19.9017 197.674 20.491 197.674C20.9783 197.674 21.4317 197.572 21.851 197.368C22.2817 197.153 22.6443 196.824 22.939 196.382L24.18 197.164C23.8287 197.787 23.33 198.269 22.684 198.609C22.0493 198.938 21.324 199.102 20.508 199.102ZM32.6433 199V190.993L33.0513 191.418H29.3453V189.99H37.5733V191.418H33.8843L34.2753 190.993V199H32.6433ZM42.7027 199.102C41.796 199.102 40.9914 198.904 40.2887 198.507C39.586 198.11 39.0307 197.566 38.6227 196.875C38.2147 196.172 38.0107 195.379 38.0107 194.495C38.0107 193.6 38.2147 192.806 38.6227 192.115C39.0307 191.424 39.586 190.885 40.2887 190.5C40.9914 190.103 41.796 189.905 42.7027 189.905C43.598 189.905 44.397 190.103 45.0997 190.5C45.8137 190.885 46.369 191.424 46.7657 192.115C47.1737 192.795 47.3777 193.588 47.3777 194.495C47.3777 195.39 47.1737 196.184 46.7657 196.875C46.369 197.566 45.8137 198.11 45.0997 198.507C44.397 198.904 43.598 199.102 42.7027 199.102ZM42.7027 197.674C43.2807 197.674 43.7964 197.544 44.2497 197.283C44.7144 197.022 45.077 196.654 45.3377 196.178C45.5984 195.691 45.7287 195.13 45.7287 194.495C45.7287 193.849 45.5984 193.294 45.3377 192.829C45.077 192.353 44.7144 191.985 44.2497 191.724C43.7964 191.463 43.2807 191.333 42.7027 191.333C42.1247 191.333 41.609 191.463 41.1557 191.724C40.7024 191.985 40.3397 192.353 40.0677 192.829C39.7957 193.294 39.6597 193.849 39.6597 194.495C39.6597 195.13 39.7957 195.691 40.0677 196.178C40.3397 196.654 40.7024 197.022 41.1557 197.283C41.609 197.544 42.1247 197.674 42.7027 197.674ZM48.1719 198.983L48.2739 197.606C48.3532 197.617 48.4269 197.629 48.4949 197.64C48.5629 197.651 48.6252 197.657 48.6819 197.657C49.0446 197.657 49.3279 197.532 49.5319 197.283C49.7472 197.034 49.9059 196.705 50.0079 196.297C50.1099 195.878 50.1836 195.407 50.2289 194.886C50.2742 194.365 50.3082 193.843 50.3309 193.322L50.4839 189.99H57.4029V199H55.7709V190.942L56.1619 191.418H51.5379L51.9119 190.925L51.7929 193.424C51.7589 194.217 51.6966 194.96 51.6059 195.651C51.5152 196.342 51.3736 196.949 51.1809 197.47C50.9996 197.991 50.7446 198.399 50.4159 198.694C50.0986 198.989 49.6849 199.136 49.1749 199.136C49.0276 199.136 48.8689 199.119 48.6989 199.085C48.5402 199.062 48.3646 199.028 48.1719 198.983ZM66.5425 197.572L66.1685 197.997V189.99H67.8005V197.997L67.3925 197.572H72.1525L71.7615 197.997V189.99H73.3935V199H60.5585V189.99H62.1905V197.997L61.7995 197.572H66.5425ZM73.1895 200.921V198.575L73.5805 199H71.6765V197.572H74.7195V200.921H73.1895ZM76.5624 199V189.99H78.1944V196.552L83.7194 189.99H85.1984V199H83.5664V192.438L78.0584 199H76.5624ZM88.3662 199V189.99H89.9982V193.815H95.1322V189.99H96.7642V199H95.1322V195.226H89.9982V199H88.3662ZM103.796 199.102C102.89 199.102 102.085 198.904 101.382 198.507C100.68 198.11 100.124 197.566 99.7164 196.875C99.3084 196.172 99.1044 195.379 99.1044 194.495C99.1044 193.6 99.3084 192.806 99.7164 192.115C100.124 191.424 100.68 190.885 101.382 190.5C102.085 190.103 102.89 189.905 103.796 189.905C104.692 189.905 105.491 190.103 106.193 190.5C106.907 190.885 107.463 191.424 107.859 192.115C108.267 192.795 108.471 193.588 108.471 194.495C108.471 195.39 108.267 196.184 107.859 196.875C107.463 197.566 106.907 198.11 106.193 198.507C105.491 198.904 104.692 199.102 103.796 199.102ZM103.796 197.674C104.374 197.674 104.89 197.544 105.343 197.283C105.808 197.022 106.171 196.654 106.431 196.178C106.692 195.691 106.822 195.13 106.822 194.495C106.822 193.849 106.692 193.294 106.431 192.829C106.171 192.353 105.808 191.985 105.343 191.724C104.89 191.463 104.374 191.333 103.796 191.333C103.218 191.333 102.703 191.463 102.249 191.724C101.796 191.985 101.433 192.353 101.161 192.829C100.889 193.294 100.753 193.849 100.753 194.495C100.753 195.13 100.889 195.691 101.161 196.178C101.433 196.654 101.796 197.022 102.249 197.283C102.703 197.544 103.218 197.674 103.796 197.674ZM110.828 199V189.99H112.511L116.387 196.654H115.707L119.685 189.99H121.215V199H119.736V191.826L120.008 191.979L116.37 197.98H115.656L112.001 191.86L112.324 191.792V199H110.828ZM128.404 199.102C127.44 199.102 126.59 198.904 125.854 198.507C125.128 198.11 124.562 197.566 124.154 196.875C123.757 196.184 123.559 195.39 123.559 194.495C123.559 193.6 123.751 192.806 124.137 192.115C124.533 191.424 125.072 190.885 125.752 190.5C126.443 190.103 127.219 189.905 128.081 189.905C128.953 189.905 129.724 190.098 130.393 190.483C131.061 190.868 131.583 191.412 131.957 192.115C132.342 192.806 132.535 193.617 132.535 194.546C132.535 194.614 132.529 194.693 132.518 194.784C132.518 194.875 132.512 194.96 132.501 195.039H124.834V193.866H131.651L130.988 194.274C130.999 193.696 130.88 193.18 130.631 192.727C130.381 192.274 130.036 191.922 129.594 191.673C129.163 191.412 128.659 191.282 128.081 191.282C127.514 191.282 127.01 191.412 126.568 191.673C126.126 191.922 125.78 192.279 125.531 192.744C125.281 193.197 125.157 193.719 125.157 194.308V194.58C125.157 195.181 125.293 195.719 125.565 196.195C125.848 196.66 126.239 197.022 126.738 197.283C127.236 197.544 127.809 197.674 128.455 197.674C128.987 197.674 129.469 197.583 129.9 197.402C130.342 197.221 130.727 196.949 131.056 196.586L131.957 197.64C131.549 198.116 131.039 198.479 130.427 198.728C129.826 198.977 129.152 199.102 128.404 199.102ZM139.843 199.102C139.095 199.102 138.41 198.932 137.786 198.592C137.174 198.241 136.681 197.725 136.307 197.045C135.945 196.365 135.763 195.515 135.763 194.495C135.763 193.475 135.939 192.625 136.29 191.945C136.653 191.265 137.14 190.755 137.752 190.415C138.376 190.075 139.073 189.905 139.843 189.905C140.727 189.905 141.509 190.098 142.189 190.483C142.869 190.868 143.408 191.407 143.804 192.098C144.201 192.778 144.399 193.577 144.399 194.495C144.399 195.413 144.201 196.218 143.804 196.909C143.408 197.6 142.869 198.139 142.189 198.524C141.509 198.909 140.727 199.102 139.843 199.102ZM135.066 202.298V189.99H136.63V192.421L136.528 194.512L136.698 196.603V202.298H135.066ZM139.707 197.674C140.285 197.674 140.801 197.544 141.254 197.283C141.719 197.022 142.082 196.654 142.342 196.178C142.614 195.691 142.75 195.13 142.75 194.495C142.75 193.849 142.614 193.294 142.342 192.829C142.082 192.353 141.719 191.985 141.254 191.724C140.801 191.463 140.285 191.333 139.707 191.333C139.141 191.333 138.625 191.463 138.16 191.724C137.707 191.985 137.344 192.353 137.072 192.829C136.812 193.294 136.681 193.849 136.681 194.495C136.681 195.13 136.812 195.691 137.072 196.178C137.344 196.654 137.707 197.022 138.16 197.283C138.625 197.544 139.141 197.674 139.707 197.674ZM150.629 199.102C149.723 199.102 148.918 198.904 148.215 198.507C147.513 198.11 146.957 197.566 146.549 196.875C146.141 196.172 145.937 195.379 145.937 194.495C145.937 193.6 146.141 192.806 146.549 192.115C146.957 191.424 147.513 190.885 148.215 190.5C148.918 190.103 149.723 189.905 150.629 189.905C151.525 189.905 152.324 190.103 153.026 190.5C153.74 190.885 154.296 191.424 154.692 192.115C155.1 192.795 155.304 193.588 155.304 194.495C155.304 195.39 155.1 196.184 154.692 196.875C154.296 197.566 153.74 198.11 153.026 198.507C152.324 198.904 151.525 199.102 150.629 199.102ZM150.629 197.674C151.207 197.674 151.723 197.544 152.176 197.283C152.641 197.022 153.004 196.654 153.264 196.178C153.525 195.691 153.655 195.13 153.655 194.495C153.655 193.849 153.525 193.294 153.264 192.829C153.004 192.353 152.641 191.985 152.176 191.724C151.723 191.463 151.207 191.333 150.629 191.333C150.051 191.333 149.536 191.463 149.082 191.724C148.629 191.985 148.266 192.353 147.994 192.829C147.722 193.294 147.586 193.849 147.586 194.495C147.586 195.13 147.722 195.691 147.994 196.178C148.266 196.654 148.629 197.022 149.082 197.283C149.536 197.544 150.051 197.674 150.629 197.674ZM157.661 199V189.99H159.344L163.22 196.654H162.54L166.518 189.99H168.048V199H166.569V191.826L166.841 191.979L163.203 197.98H162.489L158.834 191.86L159.157 191.792V199H157.661ZM175.79 199V189.99H177.422V193.815H182.556V189.99H184.188V199H182.556V195.226H177.422V199H175.79ZM192.886 199V197.096L192.801 196.739V193.492C192.801 192.801 192.597 192.268 192.189 191.894C191.793 191.509 191.192 191.316 190.387 191.316C189.855 191.316 189.333 191.407 188.823 191.588C188.313 191.758 187.883 191.99 187.531 192.285L186.851 191.061C187.316 190.687 187.871 190.404 188.517 190.211C189.175 190.007 189.86 189.905 190.574 189.905C191.81 189.905 192.762 190.205 193.43 190.806C194.099 191.407 194.433 192.325 194.433 193.56V199H192.886ZM189.928 199.102C189.26 199.102 188.67 198.989 188.16 198.762C187.662 198.535 187.276 198.224 187.004 197.827C186.732 197.419 186.596 196.96 186.596 196.45C186.596 195.963 186.71 195.521 186.936 195.124C187.174 194.727 187.554 194.41 188.075 194.172C188.608 193.934 189.322 193.815 190.217 193.815H193.073V194.988H190.285C189.469 194.988 188.92 195.124 188.636 195.396C188.353 195.668 188.211 195.997 188.211 196.382C188.211 196.824 188.387 197.181 188.738 197.453C189.09 197.714 189.577 197.844 190.2 197.844C190.812 197.844 191.345 197.708 191.798 197.436C192.263 197.164 192.597 196.767 192.801 196.246L193.124 197.368C192.909 197.901 192.529 198.326 191.985 198.643C191.441 198.949 190.756 199.102 189.928 199.102ZM201.937 199V189.99H210.284V199H208.652V191.01L209.043 191.418H203.178L203.569 191.01V199H201.937ZM218.219 199.102C217.471 199.102 216.786 198.932 216.162 198.592C215.55 198.241 215.057 197.725 214.683 197.045C214.321 196.365 214.139 195.515 214.139 194.495C214.139 193.475 214.315 192.625 214.666 191.945C215.029 191.265 215.516 190.755 216.128 190.415C216.752 190.075 217.449 189.905 218.219 189.905C219.103 189.905 219.885 190.098 220.565 190.483C221.245 190.868 221.784 191.407 222.18 192.098C222.577 192.778 222.775 193.577 222.775 194.495C222.775 195.413 222.577 196.218 222.18 196.909C221.784 197.6 221.245 198.139 220.565 198.524C219.885 198.909 219.103 199.102 218.219 199.102ZM213.442 202.298V189.99H215.006V192.421L214.904 194.512L215.074 196.603V202.298H213.442ZM218.083 197.674C218.661 197.674 219.177 197.544 219.63 197.283C220.095 197.022 220.458 196.654 220.718 196.178C220.99 195.691 221.126 195.13 221.126 194.495C221.126 193.849 220.99 193.294 220.718 192.829C220.458 192.353 220.095 191.985 219.63 191.724C219.177 191.463 218.661 191.333 218.083 191.333C217.517 191.333 217.001 191.463 216.536 191.724C216.083 191.985 215.72 192.353 215.448 192.829C215.188 193.294 215.057 193.849 215.057 194.495C215.057 195.13 215.188 195.691 215.448 196.178C215.72 196.654 216.083 197.022 216.536 197.283C217.001 197.544 217.517 197.674 218.083 197.674ZM229.158 199.102C228.195 199.102 227.345 198.904 226.608 198.507C225.883 198.11 225.316 197.566 224.908 196.875C224.512 196.184 224.313 195.39 224.313 194.495C224.313 193.6 224.506 192.806 224.891 192.115C225.288 191.424 225.826 190.885 226.506 190.5C227.198 190.103 227.974 189.905 228.835 189.905C229.708 189.905 230.479 190.098 231.147 190.483C231.816 190.868 232.337 191.412 232.711 192.115C233.097 192.806 233.289 193.617 233.289 194.546C233.289 194.614 233.284 194.693 233.272 194.784C233.272 194.875 233.267 194.96 233.255 195.039H225.588V193.866H232.405L231.742 194.274C231.754 193.696 231.635 193.18 231.385 192.727C231.136 192.274 230.79 191.922 230.348 191.673C229.918 191.412 229.413 191.282 228.835 191.282C228.269 191.282 227.764 191.412 227.322 191.673C226.88 191.922 226.535 192.279 226.285 192.744C226.036 193.197 225.911 193.719 225.911 194.308V194.58C225.911 195.181 226.047 195.719 226.319 196.195C226.603 196.66 226.994 197.022 227.492 197.283C227.991 197.544 228.563 197.674 229.209 197.674C229.742 197.674 230.224 197.583 230.654 197.402C231.096 197.221 231.482 196.949 231.81 196.586L232.711 197.64C232.303 198.116 231.793 198.479 231.181 198.728C230.581 198.977 229.906 199.102 229.158 199.102ZM241.826 198.235V191.418H237.916L237.831 193.152C237.808 193.719 237.768 194.268 237.712 194.801C237.666 195.322 237.587 195.804 237.474 196.246C237.372 196.688 237.219 197.051 237.015 197.334C236.811 197.617 236.539 197.793 236.199 197.861L234.584 197.572C234.935 197.583 235.218 197.47 235.434 197.232C235.649 196.983 235.813 196.643 235.927 196.212C236.051 195.781 236.142 195.294 236.199 194.75C236.255 194.195 236.301 193.622 236.335 193.033L236.471 189.99H243.458V198.235H241.826ZM234.227 201.091V197.572H244.835V201.091H243.305V199H235.774V201.091H234.227ZM246.961 199V189.99H248.644L252.52 196.654H251.84L255.818 189.99H257.348V199H255.869V191.826L256.141 191.979L252.503 197.98H251.789L248.134 191.86L248.457 191.792V199H246.961ZM264.536 199.102C263.573 199.102 262.723 198.904 261.986 198.507C261.261 198.11 260.694 197.566 260.286 196.875C259.89 196.184 259.691 195.39 259.691 194.495C259.691 193.6 259.884 192.806 260.269 192.115C260.666 191.424 261.204 190.885 261.884 190.5C262.576 190.103 263.352 189.905 264.213 189.905C265.086 189.905 265.857 190.098 266.525 190.483C267.194 190.868 267.715 191.412 268.089 192.115C268.475 192.806 268.667 193.617 268.667 194.546C268.667 194.614 268.662 194.693 268.65 194.784C268.65 194.875 268.645 194.96 268.633 195.039H260.966V193.866H267.783L267.12 194.274C267.132 193.696 267.013 193.18 266.763 192.727C266.514 192.274 266.168 191.922 265.726 191.673C265.296 191.412 264.791 191.282 264.213 191.282C263.647 191.282 263.142 191.412 262.7 191.673C262.258 191.922 261.913 192.279 261.663 192.744C261.414 193.197 261.289 193.719 261.289 194.308V194.58C261.289 195.181 261.425 195.719 261.697 196.195C261.981 196.66 262.372 197.022 262.87 197.283C263.369 197.544 263.941 197.674 264.587 197.674C265.12 197.674 265.602 197.583 266.032 197.402C266.474 197.221 266.86 196.949 267.188 196.586L268.089 197.64C267.681 198.116 267.171 198.479 266.559 198.728C265.959 198.977 265.284 199.102 264.536 199.102ZM272.602 199V190.993L273.01 191.418H269.304V189.99H277.532V191.418H273.843L274.234 190.993V199H272.602ZM16.581 220V210.99H24.928V220H23.296V212.01L23.687 212.418H17.822L18.213 212.01V220H16.581ZM32.0979 220.102C31.1345 220.102 30.2845 219.904 29.5479 219.507C28.8225 219.11 28.2559 218.566 27.8479 217.875C27.4512 217.184 27.2529 216.39 27.2529 215.495C27.2529 214.6 27.4455 213.806 27.8309 213.115C28.2275 212.424 28.7659 211.885 29.4459 211.5C30.1372 211.103 30.9135 210.905 31.7749 210.905C32.6475 210.905 33.4182 211.098 34.0869 211.483C34.7555 211.868 35.2769 212.412 35.6509 213.115C36.0362 213.806 36.2289 214.617 36.2289 215.546C36.2289 215.614 36.2232 215.693 36.2119 215.784C36.2119 215.875 36.2062 215.96 36.1949 216.039H28.5279V214.866H35.3449L34.6819 215.274C34.6932 214.696 34.5742 214.18 34.3249 213.727C34.0755 213.274 33.7299 212.922 33.2879 212.673C32.8572 212.412 32.3529 212.282 31.7749 212.282C31.2082 212.282 30.7039 212.412 30.2619 212.673C29.8199 212.922 29.4742 213.279 29.2249 213.744C28.9755 214.197 28.8509 214.719 28.8509 215.308V215.58C28.8509 216.181 28.9869 216.719 29.2589 217.195C29.5422 217.66 29.9332 218.022 30.4319 218.283C30.9305 218.544 31.5029 218.674 32.1489 218.674C32.6815 218.674 33.1632 218.583 33.5939 218.402C34.0359 218.221 34.4212 217.949 34.7499 217.586L35.6509 218.64C35.2429 219.116 34.7329 219.479 34.1209 219.728C33.5202 219.977 32.8459 220.102 32.0979 220.102ZM43.5377 220.102C42.7897 220.102 42.104 219.932 41.4807 219.592C40.8687 219.241 40.3757 218.725 40.0017 218.045C39.639 217.365 39.4577 216.515 39.4577 215.495C39.4577 214.475 39.6334 213.625 39.9847 212.945C40.3474 212.265 40.8347 211.755 41.4467 211.415C42.07 211.075 42.767 210.905 43.5377 210.905C44.4217 210.905 45.2037 211.098 45.8837 211.483C46.5637 211.868 47.102 212.407 47.4987 213.098C47.8954 213.778 48.0937 214.577 48.0937 215.495C48.0937 216.413 47.8954 217.218 47.4987 217.909C47.102 218.6 46.5637 219.139 45.8837 219.524C45.2037 219.909 44.4217 220.102 43.5377 220.102ZM38.7607 223.298V210.99H40.3247V213.421L40.2227 215.512L40.3927 217.603V223.298H38.7607ZM43.4017 218.674C43.9797 218.674 44.4954 218.544 44.9487 218.283C45.4134 218.022 45.776 217.654 46.0367 217.178C46.3087 216.691 46.4447 216.13 46.4447 215.495C46.4447 214.849 46.3087 214.294 46.0367 213.829C45.776 213.353 45.4134 212.985 44.9487 212.724C44.4954 212.463 43.9797 212.333 43.4017 212.333C42.835 212.333 42.3194 212.463 41.8547 212.724C41.4014 212.985 41.0387 213.353 40.7667 213.829C40.506 214.294 40.3757 214.849 40.3757 215.495C40.3757 216.13 40.506 216.691 40.7667 217.178C41.0387 217.654 41.4014 218.022 41.8547 218.283C42.3194 218.544 42.835 218.674 43.4017 218.674ZM54.4768 220.102C53.5135 220.102 52.6635 219.904 51.9268 219.507C51.2015 219.11 50.6348 218.566 50.2268 217.875C49.8301 217.184 49.6318 216.39 49.6318 215.495C49.6318 214.6 49.8245 213.806 50.2098 213.115C50.6065 212.424 51.1448 211.885 51.8248 211.5C52.5161 211.103 53.2925 210.905 54.1538 210.905C55.0265 210.905 55.7971 211.098 56.4658 211.483C57.1345 211.868 57.6558 212.412 58.0298 213.115C58.4151 213.806 58.6078 214.617 58.6078 215.546C58.6078 215.614 58.6021 215.693 58.5908 215.784C58.5908 215.875 58.5851 215.96 58.5738 216.039H50.9068V214.866H57.7238L57.0608 215.274C57.0721 214.696 56.9531 214.18 56.7038 213.727C56.4545 213.274 56.1088 212.922 55.6668 212.673C55.2361 212.412 54.7318 212.282 54.1538 212.282C53.5871 212.282 53.0828 212.412 52.6408 212.673C52.1988 212.922 51.8531 213.279 51.6038 213.744C51.3545 214.197 51.2298 214.719 51.2298 215.308V215.58C51.2298 216.181 51.3658 216.719 51.6378 217.195C51.9211 217.66 52.3121 218.022 52.8108 218.283C53.3095 218.544 53.8818 218.674 54.5278 218.674C55.0605 218.674 55.5421 218.583 55.9728 218.402C56.4148 218.221 56.8001 217.949 57.1288 217.586L58.0298 218.64C57.6218 219.116 57.1118 219.479 56.4998 219.728C55.8991 219.977 55.2248 220.102 54.4768 220.102ZM67.6676 220L64.1826 215.614L65.5256 214.798L69.5886 220H67.6676ZM61.1396 220V210.99H62.7716V220H61.1396ZM62.2786 216.192V214.798H65.2536V216.192H62.2786ZM65.6616 215.682L64.1486 215.478L67.5996 210.99H69.3506L65.6616 215.682ZM76.0768 220.102C75.3288 220.102 74.6431 219.932 74.0198 219.592C73.4078 219.241 72.9148 218.725 72.5408 218.045C72.1781 217.365 71.9968 216.515 71.9968 215.495C71.9968 214.475 72.1724 213.625 72.5238 212.945C72.8864 212.265 73.3738 211.755 73.9858 211.415C74.6091 211.075 75.3061 210.905 76.0768 210.905C76.9608 210.905 77.7428 211.098 78.4228 211.483C79.1028 211.868 79.6411 212.407 80.0378 213.098C80.4344 213.778 80.6328 214.577 80.6328 215.495C80.6328 216.413 80.4344 217.218 80.0378 217.909C79.6411 218.6 79.1028 219.139 78.4228 219.524C77.7428 219.909 76.9608 220.102 76.0768 220.102ZM71.2998 223.298V210.99H72.8638V213.421L72.7618 215.512L72.9318 217.603V223.298H71.2998ZM75.9408 218.674C76.5188 218.674 77.0344 218.544 77.4878 218.283C77.9524 218.022 78.3151 217.654 78.5758 217.178C78.8478 216.691 78.9838 216.13 78.9838 215.495C78.9838 214.849 78.8478 214.294 78.5758 213.829C78.3151 213.353 77.9524 212.985 77.4878 212.724C77.0344 212.463 76.5188 212.333 75.9408 212.333C75.3741 212.333 74.8584 212.463 74.3938 212.724C73.9404 212.985 73.5778 213.353 73.3058 213.829C73.0451 214.294 72.9148 214.849 72.9148 215.495C72.9148 216.13 73.0451 216.691 73.3058 217.178C73.5778 217.654 73.9404 218.022 74.3938 218.283C74.8584 218.544 75.3741 218.674 75.9408 218.674ZM88.4458 220V218.096L88.3608 217.739V214.492C88.3608 213.801 88.1568 213.268 87.7488 212.894C87.3522 212.509 86.7515 212.316 85.9468 212.316C85.4142 212.316 84.8928 212.407 84.3828 212.588C83.8728 212.758 83.4422 212.99 83.0908 213.285L82.4108 212.061C82.8755 211.687 83.4308 211.404 84.0768 211.211C84.7342 211.007 85.4198 210.905 86.1338 210.905C87.3692 210.905 88.3212 211.205 88.9898 211.806C89.6585 212.407 89.9928 213.325 89.9928 214.56V220H88.4458ZM85.4878 220.102C84.8192 220.102 84.2298 219.989 83.7198 219.762C83.2212 219.535 82.8358 219.224 82.5638 218.827C82.2918 218.419 82.1558 217.96 82.1558 217.45C82.1558 216.963 82.2692 216.521 82.4958 216.124C82.7338 215.727 83.1135 215.41 83.6348 215.172C84.1675 214.934 84.8815 214.815 85.7768 214.815H88.6328V215.988H85.8448C85.0288 215.988 84.4792 216.124 84.1958 216.396C83.9125 216.668 83.7708 216.997 83.7708 217.382C83.7708 217.824 83.9465 218.181 84.2978 218.453C84.6492 218.714 85.1365 218.844 85.7598 218.844C86.3718 218.844 86.9045 218.708 87.3578 218.436C87.8225 218.164 88.1568 217.767 88.3608 217.246L88.6838 218.368C88.4685 218.901 88.0888 219.326 87.5448 219.643C87.0008 219.949 86.3152 220.102 85.4878 220.102ZM96.8586 220.102C95.9406 220.102 95.1189 219.904 94.3936 219.507C93.6796 219.11 93.1186 218.566 92.7106 217.875C92.3026 217.184 92.0986 216.39 92.0986 215.495C92.0986 214.6 92.3026 213.806 92.7106 213.115C93.1186 212.424 93.6796 211.885 94.3936 211.5C95.1189 211.103 95.9406 210.905 96.8586 210.905C97.6746 210.905 98.3999 211.069 99.0346 211.398C99.6806 211.715 100.179 212.191 100.531 212.826L99.2896 213.625C98.9949 213.183 98.6323 212.86 98.2016 212.656C97.7823 212.441 97.3289 212.333 96.8416 212.333C96.2523 212.333 95.7253 212.463 95.2606 212.724C94.7959 212.985 94.4276 213.353 94.1556 213.829C93.8836 214.294 93.7476 214.849 93.7476 215.495C93.7476 216.141 93.8836 216.702 94.1556 217.178C94.4276 217.654 94.7959 218.022 95.2606 218.283C95.7253 218.544 96.2523 218.674 96.8416 218.674C97.3289 218.674 97.7823 218.572 98.2016 218.368C98.6323 218.153 98.9949 217.824 99.2896 217.382L100.531 218.164C100.179 218.787 99.6806 219.269 99.0346 219.609C98.3999 219.938 97.6746 220.102 96.8586 220.102ZM108.169 220V218.096L108.084 217.739V214.492C108.084 213.801 107.88 213.268 107.472 212.894C107.075 212.509 106.474 212.316 105.67 212.316C105.137 212.316 104.616 212.407 104.106 212.588C103.596 212.758 103.165 212.99 102.814 213.285L102.134 212.061C102.598 211.687 103.154 211.404 103.8 211.211C104.457 211.007 105.143 210.905 105.857 210.905C107.092 210.905 108.044 211.205 108.713 211.806C109.381 212.407 109.716 213.325 109.716 214.56V220H108.169ZM105.211 220.102C104.542 220.102 103.953 219.989 103.443 219.762C102.944 219.535 102.559 219.224 102.287 218.827C102.015 218.419 101.879 217.96 101.879 217.45C101.879 216.963 101.992 216.521 102.219 216.124C102.457 215.727 102.836 215.41 103.358 215.172C103.89 214.934 104.604 214.815 105.5 214.815H108.356V215.988H105.568C104.752 215.988 104.202 216.124 103.919 216.396C103.635 216.668 103.494 216.997 103.494 217.382C103.494 217.824 103.669 218.181 104.021 218.453C104.372 218.714 104.859 218.844 105.483 218.844C106.095 218.844 106.627 218.708 107.081 218.436C107.545 218.164 107.88 217.767 108.084 217.246L108.407 218.368C108.191 218.901 107.812 219.326 107.268 219.643C106.724 219.949 106.038 220.102 105.211 220.102ZM122.745 220V218.096L122.66 217.739V214.492C122.66 213.801 122.456 213.268 122.048 212.894C121.651 212.509 121.05 212.316 120.246 212.316C119.713 212.316 119.192 212.407 118.682 212.588C118.172 212.758 117.741 212.99 117.39 213.285L116.71 212.061C117.174 211.687 117.73 211.404 118.376 211.211C119.033 211.007 119.719 210.905 120.433 210.905C121.668 210.905 122.62 211.205 123.289 211.806C123.957 212.407 124.292 213.325 124.292 214.56V220H122.745ZM119.787 220.102C119.118 220.102 118.529 219.989 118.019 219.762C117.52 219.535 117.135 219.224 116.863 218.827C116.591 218.419 116.455 217.96 116.455 217.45C116.455 216.963 116.568 216.521 116.795 216.124C117.033 215.727 117.412 215.41 117.934 215.172C118.466 214.934 119.18 214.815 120.076 214.815H122.932V215.988H120.144C119.328 215.988 118.778 216.124 118.495 216.396C118.211 216.668 118.07 216.997 118.07 217.382C118.07 217.824 118.245 218.181 118.597 218.453C118.948 218.714 119.435 218.844 120.059 218.844C120.671 218.844 121.203 218.708 121.657 218.436C122.121 218.164 122.456 217.767 122.66 217.246L122.983 218.368C122.767 218.901 122.388 219.326 121.844 219.643C121.3 219.949 120.614 220.102 119.787 220.102ZM127.23 220V210.99H131.412C132.466 210.99 133.294 211.194 133.894 211.602C134.506 211.999 134.812 212.565 134.812 213.302C134.812 214.039 134.523 214.611 133.945 215.019C133.379 215.416 132.625 215.614 131.684 215.614L131.939 215.172C133.016 215.172 133.815 215.37 134.336 215.767C134.858 216.164 135.118 216.747 135.118 217.518C135.118 218.3 134.824 218.912 134.234 219.354C133.656 219.785 132.767 220 131.565 220H127.23ZM128.828 218.742H131.446C132.126 218.742 132.636 218.64 132.976 218.436C133.316 218.221 133.486 217.881 133.486 217.416C133.486 216.94 133.328 216.594 133.01 216.379C132.704 216.152 132.217 216.039 131.548 216.039H128.828V218.742ZM128.828 214.866H131.276C131.9 214.866 132.37 214.753 132.687 214.526C133.016 214.288 133.18 213.959 133.18 213.54C133.18 213.109 133.016 212.786 132.687 212.571C132.37 212.356 131.9 212.248 131.276 212.248H128.828V214.866ZM139.458 220V211.993L139.866 212.418H136.16V210.99H144.388V212.418H140.699L141.09 211.993V220H139.458ZM149.517 220.102C148.61 220.102 147.806 219.904 147.103 219.507C146.4 219.11 145.845 218.566 145.437 217.875C145.029 217.172 144.825 216.379 144.825 215.495C144.825 214.6 145.029 213.806 145.437 213.115C145.845 212.424 146.4 211.885 147.103 211.5C147.806 211.103 148.61 210.905 149.517 210.905C150.412 210.905 151.211 211.103 151.914 211.5C152.628 211.885 153.183 212.424 153.58 213.115C153.988 213.795 154.192 214.588 154.192 215.495C154.192 216.39 153.988 217.184 153.58 217.875C153.183 218.566 152.628 219.11 151.914 219.507C151.211 219.904 150.412 220.102 149.517 220.102ZM149.517 218.674C150.095 218.674 150.611 218.544 151.064 218.283C151.529 218.022 151.891 217.654 152.152 217.178C152.413 216.691 152.543 216.13 152.543 215.495C152.543 214.849 152.413 214.294 152.152 213.829C151.891 213.353 151.529 212.985 151.064 212.724C150.611 212.463 150.095 212.333 149.517 212.333C148.939 212.333 148.423 212.463 147.97 212.724C147.517 212.985 147.154 213.353 146.882 213.829C146.61 214.294 146.474 214.849 146.474 215.495C146.474 216.13 146.61 216.691 146.882 217.178C147.154 217.654 147.517 218.022 147.97 218.283C148.423 218.544 148.939 218.674 149.517 218.674ZM156.549 220V210.99H158.232L162.108 217.654H161.428L165.406 210.99H166.936V220H165.457V212.826L165.729 212.979L162.091 218.98H161.377L157.722 212.86L158.045 212.792V220H156.549ZM173.971 220.102C173.065 220.102 172.26 219.904 171.557 219.507C170.855 219.11 170.299 218.566 169.891 217.875C169.483 217.172 169.279 216.379 169.279 215.495C169.279 214.6 169.483 213.806 169.891 213.115C170.299 212.424 170.855 211.885 171.557 211.5C172.26 211.103 173.065 210.905 173.971 210.905C174.867 210.905 175.666 211.103 176.368 211.5C177.082 211.885 177.638 212.424 178.034 213.115C178.442 213.795 178.646 214.588 178.646 215.495C178.646 216.39 178.442 217.184 178.034 217.875C177.638 218.566 177.082 219.11 176.368 219.507C175.666 219.904 174.867 220.102 173.971 220.102ZM173.971 218.674C174.549 218.674 175.065 218.544 175.518 218.283C175.983 218.022 176.346 217.654 176.606 217.178C176.867 216.691 176.997 216.13 176.997 215.495C176.997 214.849 176.867 214.294 176.606 213.829C176.346 213.353 175.983 212.985 175.518 212.724C175.065 212.463 174.549 212.333 173.971 212.333C173.393 212.333 172.878 212.463 172.424 212.724C171.971 212.985 171.608 213.353 171.336 213.829C171.064 214.294 170.928 214.849 170.928 215.495C170.928 216.13 171.064 216.691 171.336 217.178C171.608 217.654 171.971 218.022 172.424 218.283C172.878 218.544 173.393 218.674 173.971 218.674ZM185.168 220.136C184.42 220.136 183.757 220.017 183.179 219.779C182.612 219.541 182.125 219.19 181.717 218.725C181.309 218.249 180.997 217.654 180.782 216.94C180.578 216.215 180.476 215.365 180.476 214.39C180.476 213.619 180.544 212.928 180.68 212.316C180.816 211.704 181.009 211.16 181.258 210.684C181.519 210.208 181.836 209.794 182.21 209.443C182.595 209.092 183.026 208.803 183.502 208.576C183.989 208.338 184.522 208.157 185.1 208.032L189.214 207.114L189.452 208.627L185.661 209.443C185.434 209.488 185.162 209.556 184.845 209.647C184.528 209.738 184.205 209.879 183.876 210.072C183.547 210.253 183.241 210.508 182.958 210.837C182.675 211.166 182.448 211.596 182.278 212.129C182.108 212.65 182.023 213.296 182.023 214.067C182.023 214.282 182.029 214.447 182.04 214.56C182.051 214.673 182.063 214.787 182.074 214.9C182.097 215.013 182.114 215.183 182.125 215.41L181.445 214.713C181.626 214.09 181.915 213.546 182.312 213.081C182.709 212.616 183.185 212.259 183.74 212.01C184.307 211.749 184.924 211.619 185.593 211.619C186.432 211.619 187.174 211.8 187.82 212.163C188.477 212.526 188.993 213.024 189.367 213.659C189.741 214.294 189.928 215.019 189.928 215.835C189.928 216.662 189.73 217.405 189.333 218.062C188.948 218.708 188.398 219.218 187.684 219.592C186.97 219.955 186.131 220.136 185.168 220.136ZM185.321 218.776C185.899 218.776 186.409 218.651 186.851 218.402C187.293 218.141 187.639 217.796 187.888 217.365C188.137 216.923 188.262 216.43 188.262 215.886C188.262 215.342 188.137 214.86 187.888 214.441C187.639 214.022 187.293 213.693 186.851 213.455C186.409 213.206 185.888 213.081 185.287 213.081C184.72 213.081 184.21 213.2 183.757 213.438C183.304 213.665 182.952 213.988 182.703 214.407C182.454 214.815 182.329 215.291 182.329 215.835C182.329 216.379 182.454 216.878 182.703 217.331C182.964 217.773 183.315 218.124 183.757 218.385C184.21 218.646 184.732 218.776 185.321 218.776ZM192.259 220V210.99H193.891V217.552L199.416 210.99H200.895V220H199.263V213.438L193.755 220H192.259ZM202.566 219.983L202.668 218.606C202.748 218.617 202.821 218.629 202.889 218.64C202.957 218.651 203.02 218.657 203.076 218.657C203.439 218.657 203.722 218.532 203.926 218.283C204.142 218.034 204.3 217.705 204.402 217.297C204.504 216.878 204.578 216.407 204.623 215.886C204.669 215.365 204.703 214.843 204.725 214.322L204.878 210.99H211.797V220H210.165V211.942L210.556 212.418H205.932L206.306 211.925L206.187 214.424C206.153 215.217 206.091 215.96 206 216.651C205.91 217.342 205.768 217.949 205.575 218.47C205.394 218.991 205.139 219.399 204.81 219.694C204.493 219.989 204.079 220.136 203.569 220.136C203.422 220.136 203.263 220.119 203.093 220.085C202.935 220.062 202.759 220.028 202.566 219.983ZM220.716 220V216.838L220.971 217.144H218.098C216.897 217.144 215.956 216.889 215.276 216.379C214.607 215.869 214.273 215.127 214.273 214.152C214.273 213.109 214.63 212.322 215.344 211.789C216.069 211.256 217.033 210.99 218.234 210.99H222.178V220H220.716ZM214.188 220L216.636 216.549H218.319L215.939 220H214.188ZM220.716 216.328V211.959L220.971 212.418H218.285C217.537 212.418 216.959 212.56 216.551 212.843C216.143 213.115 215.939 213.568 215.939 214.203C215.939 215.382 216.698 215.971 218.217 215.971H220.971L220.716 216.328Z" fill="#434343"/>
</svg>
