<svg width="193" height="193" viewBox="0 0 193 193" fill="none" xmlns="http://www.w3.org/2000/svg">
<rect width="193" height="193" rx="35" fill="#00AAFF"/>
<path d="M23.1604 131.784L23.7204 130.6C24.2111 130.984 24.7498 131.272 25.3364 131.464C25.9338 131.656 26.5258 131.757 27.1124 131.768C27.6991 131.768 28.2378 131.688 28.7284 131.528C29.2298 131.368 29.6298 131.128 29.9284 130.808C30.2271 130.488 30.3764 130.093 30.3764 129.624C30.3764 129.048 30.1418 128.611 29.6724 128.312C29.2138 128.013 28.5738 127.864 27.7524 127.864H25.2564V126.568H27.6404C28.3551 126.568 28.9098 126.424 29.3044 126.136C29.7098 125.837 29.9124 125.427 29.9124 124.904C29.9124 124.509 29.7898 124.179 29.5444 123.912C29.3098 123.635 28.9844 123.427 28.5684 123.288C28.1631 123.149 27.6991 123.08 27.1764 123.08C26.6644 123.069 26.1364 123.139 25.5924 123.288C25.0484 123.427 24.5258 123.651 24.0244 123.96L23.5124 122.648C24.1951 122.264 24.9044 121.997 25.6404 121.848C26.3871 121.688 27.1071 121.64 27.8004 121.704C28.4938 121.757 29.1178 121.917 29.6724 122.184C30.2378 122.44 30.6858 122.781 31.0164 123.208C31.3578 123.624 31.5284 124.125 31.5284 124.712C31.5284 125.245 31.3898 125.72 31.1124 126.136C30.8351 126.541 30.4511 126.856 29.9604 127.08C29.4698 127.293 28.8991 127.4 28.2484 127.4L28.3124 126.968C29.0591 126.968 29.7044 127.091 30.2484 127.336C30.8031 127.571 31.2298 127.907 31.5284 128.344C31.8378 128.781 31.9924 129.288 31.9924 129.864C31.9924 130.408 31.8538 130.893 31.5764 131.32C31.2991 131.736 30.9204 132.088 30.4404 132.376C29.9711 132.653 29.4324 132.856 28.8244 132.984C28.2271 133.112 27.5978 133.155 26.9364 133.112C26.2751 133.069 25.6191 132.941 24.9684 132.728C24.3284 132.515 23.7258 132.2 23.1604 131.784ZM39.6021 133V131.208L39.5221 130.872V127.816C39.5221 127.165 39.3301 126.664 38.9461 126.312C38.5727 125.949 38.0074 125.768 37.2501 125.768C36.7487 125.768 36.2581 125.853 35.7781 126.024C35.2981 126.184 34.8927 126.403 34.5621 126.68L33.9221 125.528C34.3594 125.176 34.8821 124.909 35.4901 124.728C36.1087 124.536 36.7541 124.44 37.4261 124.44C38.5887 124.44 39.4847 124.723 40.1141 125.288C40.7434 125.853 41.0581 126.717 41.0581 127.88V133H39.6021ZM36.8181 133.096C36.1887 133.096 35.6341 132.989 35.1541 132.776C34.6847 132.563 34.3221 132.269 34.0661 131.896C33.8101 131.512 33.6821 131.08 33.6821 130.6C33.6821 130.141 33.7887 129.725 34.0021 129.352C34.2261 128.979 34.5834 128.68 35.0741 128.456C35.5754 128.232 36.2474 128.12 37.0901 128.12H39.7781V129.224H37.1541C36.3861 129.224 35.8687 129.352 35.6021 129.608C35.3354 129.864 35.2021 130.173 35.2021 130.536C35.2021 130.952 35.3674 131.288 35.6981 131.544C36.0287 131.789 36.4874 131.912 37.0741 131.912C37.6501 131.912 38.1514 131.784 38.5781 131.528C39.0154 131.272 39.3301 130.899 39.5221 130.408L39.8261 131.464C39.6234 131.965 39.2661 132.365 38.7541 132.664C38.2421 132.952 37.5967 133.096 36.8181 133.096ZM43.8239 133V124.52H45.4079L49.0559 130.792H48.4159L52.1599 124.52H53.5999V133H52.2079V126.248L52.4639 126.392L49.0399 132.04H48.3679L44.9279 126.28L45.2319 126.216V133H43.8239ZM60.3656 133.096C59.4589 133.096 58.6589 132.909 57.9656 132.536C57.2829 132.163 56.7496 131.651 56.3656 131C55.9922 130.349 55.8056 129.603 55.8056 128.76C55.8056 127.917 55.9869 127.171 56.3496 126.52C56.7229 125.869 57.2296 125.363 57.8696 125C58.5202 124.627 59.2509 124.44 60.0616 124.44C60.8829 124.44 61.6082 124.621 62.2376 124.984C62.8669 125.347 63.3576 125.859 63.7096 126.52C64.0722 127.171 64.2536 127.933 64.2536 128.808C64.2536 128.872 64.2482 128.947 64.2376 129.032C64.2376 129.117 64.2322 129.197 64.2216 129.272H57.0056V128.168H63.4216L62.7976 128.552C62.8082 128.008 62.6962 127.523 62.4616 127.096C62.2269 126.669 61.9016 126.339 61.4856 126.104C61.0802 125.859 60.6056 125.736 60.0616 125.736C59.5282 125.736 59.0536 125.859 58.6376 126.104C58.2216 126.339 57.8962 126.675 57.6616 127.112C57.4269 127.539 57.3096 128.029 57.3096 128.584V128.84C57.3096 129.405 57.4376 129.912 57.6936 130.36C57.9602 130.797 58.3282 131.139 58.7976 131.384C59.2669 131.629 59.8056 131.752 60.4136 131.752C60.9149 131.752 61.3682 131.667 61.7736 131.496C62.1896 131.325 62.5522 131.069 62.8616 130.728L63.7096 131.72C63.3256 132.168 62.8456 132.509 62.2696 132.744C61.7042 132.979 61.0696 133.096 60.3656 133.096ZM66.6364 133V124.52H68.1724V128.12H73.0044V124.52H74.5404V133H73.0044V129.448H68.1724V133H66.6364ZM82.7271 133V131.208L82.6471 130.872V127.816C82.6471 127.165 82.4551 126.664 82.0711 126.312C81.6977 125.949 81.1324 125.768 80.3751 125.768C79.8737 125.768 79.3831 125.853 78.9031 126.024C78.4231 126.184 78.0177 126.403 77.6871 126.68L77.0471 125.528C77.4844 125.176 78.0071 124.909 78.6151 124.728C79.2337 124.536 79.8791 124.44 80.5511 124.44C81.7137 124.44 82.6097 124.723 83.2391 125.288C83.8684 125.853 84.1831 126.717 84.1831 127.88V133H82.7271ZM79.9431 133.096C79.3137 133.096 78.7591 132.989 78.2791 132.776C77.8097 132.563 77.4471 132.269 77.1911 131.896C76.9351 131.512 76.8071 131.08 76.8071 130.6C76.8071 130.141 76.9137 129.725 77.1271 129.352C77.3511 128.979 77.7084 128.68 78.1991 128.456C78.7004 128.232 79.3724 128.12 80.2151 128.12H82.9031V129.224H80.2791C79.5111 129.224 78.9937 129.352 78.7271 129.608C78.4604 129.864 78.3271 130.173 78.3271 130.536C78.3271 130.952 78.4924 131.288 78.8231 131.544C79.1537 131.789 79.6124 131.912 80.1991 131.912C80.7751 131.912 81.2764 131.784 81.7031 131.528C82.1404 131.272 82.4551 130.899 82.6471 130.408L82.9511 131.464C82.7484 131.965 82.3911 132.365 81.8791 132.664C81.3671 132.952 80.7217 133.096 79.9431 133.096ZM96.3018 133.128C96.2911 133.128 96.2538 133.128 96.1898 133.128C96.1365 133.128 96.0831 133.128 96.0298 133.128C95.9765 133.128 95.9445 133.128 95.9338 133.128C94.1951 133.107 92.8458 132.723 91.8858 131.976C90.9258 131.219 90.4458 130.141 90.4458 128.744C90.4458 127.357 90.9258 126.296 91.8858 125.56C92.8565 124.813 94.2218 124.435 95.9818 124.424C96.0031 124.424 96.0351 124.424 96.0778 124.424C96.1311 124.424 96.1791 124.424 96.2218 124.424C96.2751 124.424 96.3071 124.424 96.3178 124.424C98.0991 124.424 99.4805 124.797 100.462 125.544C101.454 126.291 101.95 127.357 101.95 128.744C101.95 130.152 101.454 131.235 100.462 131.992C99.4698 132.749 98.0831 133.128 96.3018 133.128ZM96.2698 131.784C97.1978 131.784 97.9658 131.667 98.5738 131.432C99.1925 131.197 99.6565 130.856 99.9658 130.408C100.275 129.96 100.43 129.405 100.43 128.744C100.43 128.093 100.275 127.549 99.9658 127.112C99.6565 126.675 99.1925 126.344 98.5738 126.12C97.9658 125.896 97.1978 125.784 96.2698 125.784C96.2485 125.784 96.2058 125.784 96.1418 125.784C96.0778 125.784 96.0405 125.784 96.0298 125.784C95.1231 125.784 94.3658 125.901 93.7578 126.136C93.1605 126.36 92.7125 126.691 92.4138 127.128C92.1151 127.565 91.9658 128.104 91.9658 128.744C91.9658 129.395 92.1151 129.944 92.4138 130.392C92.7231 130.84 93.1765 131.181 93.7738 131.416C94.3818 131.651 95.1338 131.773 96.0298 131.784C96.0511 131.784 96.0885 131.784 96.1418 131.784C96.2058 131.784 96.2485 131.784 96.2698 131.784ZM95.4378 136.104V121.128H96.9418V136.104H95.4378ZM104.121 133V124.52H105.657V130.696L110.857 124.52H112.249V133H110.713V126.824L105.529 133H104.121ZM113.822 132.984L113.918 131.688C113.993 131.699 114.062 131.709 114.126 131.72C114.19 131.731 114.249 131.736 114.302 131.736C114.644 131.736 114.91 131.619 115.102 131.384C115.305 131.149 115.454 130.84 115.55 130.456C115.646 130.061 115.716 129.619 115.758 129.128C115.801 128.637 115.833 128.147 115.854 127.656L115.998 124.52H122.51V133H120.974V125.416L121.342 125.864H116.99L117.342 125.4L117.23 127.752C117.198 128.499 117.14 129.197 117.054 129.848C116.969 130.499 116.836 131.069 116.654 131.56C116.484 132.051 116.244 132.435 115.934 132.712C115.636 132.989 115.246 133.128 114.766 133.128C114.628 133.128 114.478 133.112 114.318 133.08C114.169 133.059 114.004 133.027 113.822 132.984ZM129.4 127.4C130.478 127.411 131.299 127.656 131.864 128.136C132.43 128.616 132.712 129.293 132.712 130.168C132.712 131.085 132.403 131.795 131.784 132.296C131.166 132.787 130.291 133.027 129.16 133.016L125.48 133V124.52H127.016V127.384L129.4 127.4ZM129.032 131.848C129.726 131.859 130.248 131.72 130.6 131.432C130.963 131.144 131.144 130.717 131.144 130.152C131.144 129.597 130.968 129.192 130.616 128.936C130.264 128.68 129.736 128.547 129.032 128.536L127.016 128.504V131.832L129.032 131.848ZM135.535 133V125.464L135.919 125.864H132.431V124.52H140.175V125.864H136.703L137.071 125.464V133H135.535ZM146.242 133.096C145.538 133.096 144.892 132.936 144.306 132.616C143.73 132.285 143.266 131.8 142.914 131.16C142.572 130.52 142.402 129.72 142.402 128.76C142.402 127.8 142.567 127 142.898 126.36C143.239 125.72 143.698 125.24 144.274 124.92C144.86 124.6 145.516 124.44 146.242 124.44C147.074 124.44 147.81 124.621 148.45 124.984C149.09 125.347 149.596 125.853 149.97 126.504C150.343 127.144 150.53 127.896 150.53 128.76C150.53 129.624 150.343 130.381 149.97 131.032C149.596 131.683 149.09 132.189 148.45 132.552C147.81 132.915 147.074 133.096 146.242 133.096ZM141.746 136.104V124.52H143.218V126.808L143.122 128.776L143.282 130.744V136.104H141.746ZM146.114 131.752C146.658 131.752 147.143 131.629 147.57 131.384C148.007 131.139 148.348 130.792 148.594 130.344C148.85 129.885 148.978 129.357 148.978 128.76C148.978 128.152 148.85 127.629 148.594 127.192C148.348 126.744 148.007 126.397 147.57 126.152C147.143 125.907 146.658 125.784 146.114 125.784C145.58 125.784 145.095 125.907 144.658 126.152C144.231 126.397 143.89 126.744 143.634 127.192C143.388 127.629 143.266 128.152 143.266 128.76C143.266 129.357 143.388 129.885 143.634 130.344C143.89 130.792 144.231 131.139 144.658 131.384C145.095 131.629 145.58 131.752 146.114 131.752ZM156.393 133.096C155.54 133.096 154.783 132.909 154.121 132.536C153.46 132.163 152.937 131.651 152.553 131C152.169 130.339 151.977 129.592 151.977 128.76C151.977 127.917 152.169 127.171 152.553 126.52C152.937 125.869 153.46 125.363 154.121 125C154.783 124.627 155.54 124.44 156.393 124.44C157.236 124.44 157.988 124.627 158.649 125C159.321 125.363 159.844 125.869 160.217 126.52C160.601 127.16 160.793 127.907 160.793 128.76C160.793 129.603 160.601 130.349 160.217 131C159.844 131.651 159.321 132.163 158.649 132.536C157.988 132.909 157.236 133.096 156.393 133.096ZM156.393 131.752C156.937 131.752 157.423 131.629 157.849 131.384C158.287 131.139 158.628 130.792 158.873 130.344C159.119 129.885 159.241 129.357 159.241 128.76C159.241 128.152 159.119 127.629 158.873 127.192C158.628 126.744 158.287 126.397 157.849 126.152C157.423 125.907 156.937 125.784 156.393 125.784C155.849 125.784 155.364 125.907 154.937 126.152C154.511 126.397 154.169 126.744 153.913 127.192C153.657 127.629 153.529 128.152 153.529 128.76C153.529 129.357 153.657 129.885 153.913 130.344C154.169 130.792 154.511 131.139 154.937 131.384C155.364 131.629 155.849 131.752 156.393 131.752ZM163.011 133V124.52H166.947C167.939 124.52 168.718 124.712 169.283 125.096C169.859 125.469 170.147 126.003 170.147 126.696C170.147 127.389 169.875 127.928 169.331 128.312C168.798 128.685 168.089 128.872 167.203 128.872L167.443 128.456C168.457 128.456 169.209 128.643 169.699 129.016C170.19 129.389 170.435 129.939 170.435 130.664C170.435 131.4 170.158 131.976 169.603 132.392C169.059 132.797 168.222 133 167.091 133H163.011ZM164.515 131.816H166.979C167.619 131.816 168.099 131.72 168.419 131.528C168.739 131.325 168.899 131.005 168.899 130.568C168.899 130.12 168.75 129.795 168.451 129.592C168.163 129.379 167.705 129.272 167.075 129.272H164.515V131.816ZM164.515 128.168H166.819C167.406 128.168 167.849 128.061 168.147 127.848C168.457 127.624 168.611 127.315 168.611 126.92C168.611 126.515 168.457 126.211 168.147 126.008C167.849 125.805 167.406 125.704 166.819 125.704H164.515V128.168ZM49.3474 153V144.52H50.8834V150.696L56.0834 144.52H57.4754V153H55.9394V146.824L50.7554 153H49.3474ZM63.3456 152.984L63.4416 151.688C63.5163 151.699 63.5856 151.709 63.6496 151.72C63.7136 151.731 63.7723 151.736 63.8256 151.736C64.167 151.736 64.4336 151.619 64.6256 151.384C64.8283 151.149 64.9776 150.84 65.0736 150.456C65.1696 150.061 65.239 149.619 65.2816 149.128C65.3243 148.637 65.3563 148.147 65.3776 147.656L65.5216 144.52H72.0336V153H70.4976V145.416L70.8656 145.864H66.5136L66.8656 145.4L66.7536 147.752C66.7216 148.499 66.663 149.197 66.5776 149.848C66.4923 150.499 66.359 151.069 66.1776 151.56C66.007 152.051 65.767 152.435 65.4576 152.712C65.159 152.989 64.7696 153.128 64.2896 153.128C64.151 153.128 64.0016 153.112 63.8416 153.08C63.6923 153.059 63.527 153.027 63.3456 152.984ZM80.2036 153V151.208L80.1236 150.872V147.816C80.1236 147.165 79.9316 146.664 79.5476 146.312C79.1743 145.949 78.609 145.768 77.8516 145.768C77.3503 145.768 76.8596 145.853 76.3796 146.024C75.8996 146.184 75.4943 146.403 75.1636 146.68L74.5236 145.528C74.961 145.176 75.4836 144.909 76.0916 144.728C76.7103 144.536 77.3556 144.44 78.0276 144.44C79.1903 144.44 80.0863 144.723 80.7156 145.288C81.345 145.853 81.6596 146.717 81.6596 147.88V153H80.2036ZM77.4196 153.096C76.7903 153.096 76.2356 152.989 75.7556 152.776C75.2863 152.563 74.9236 152.269 74.6676 151.896C74.4116 151.512 74.2836 151.08 74.2836 150.6C74.2836 150.141 74.3903 149.725 74.6036 149.352C74.8276 148.979 75.185 148.68 75.6756 148.456C76.177 148.232 76.849 148.12 77.6916 148.12H80.3796V149.224H77.7556C76.9876 149.224 76.4703 149.352 76.2036 149.608C75.937 149.864 75.8036 150.173 75.8036 150.536C75.8036 150.952 75.969 151.288 76.2996 151.544C76.6303 151.789 77.089 151.912 77.6756 151.912C78.2516 151.912 78.753 151.784 79.1796 151.528C79.617 151.272 79.9316 150.899 80.1236 150.408L80.4276 151.464C80.225 151.965 79.8676 152.365 79.3556 152.664C78.8436 152.952 78.1983 153.096 77.4196 153.096ZM84.4255 153V144.52H86.0095L89.6575 150.792H89.0175L92.7615 144.52H94.2015V153H92.8095V146.248L93.0655 146.392L89.6415 152.04H88.9695L85.5295 146.28L85.8335 146.216V153H84.4255ZM97.1911 153V144.52H105.047V153H103.511V145.48L103.879 145.864H98.3591L98.7271 145.48V153H97.1911ZM111.651 153.096C110.798 153.096 110.041 152.909 109.379 152.536C108.718 152.163 108.195 151.651 107.811 151C107.427 150.339 107.235 149.592 107.235 148.76C107.235 147.917 107.427 147.171 107.811 146.52C108.195 145.869 108.718 145.363 109.379 145C110.041 144.627 110.798 144.44 111.651 144.44C112.494 144.44 113.246 144.627 113.907 145C114.579 145.363 115.102 145.869 115.475 146.52C115.859 147.16 116.051 147.907 116.051 148.76C116.051 149.603 115.859 150.349 115.475 151C115.102 151.651 114.579 152.163 113.907 152.536C113.246 152.909 112.494 153.096 111.651 153.096ZM111.651 151.752C112.195 151.752 112.681 151.629 113.107 151.384C113.545 151.139 113.886 150.792 114.131 150.344C114.377 149.885 114.499 149.357 114.499 148.76C114.499 148.152 114.377 147.629 114.131 147.192C113.886 146.744 113.545 146.397 113.107 146.152C112.681 145.907 112.195 145.784 111.651 145.784C111.107 145.784 110.622 145.907 110.195 146.152C109.769 146.397 109.427 146.744 109.171 147.192C108.915 147.629 108.787 148.152 108.787 148.76C108.787 149.357 108.915 149.885 109.171 150.344C109.427 150.792 109.769 151.139 110.195 151.384C110.622 151.629 111.107 151.752 111.651 151.752ZM123.613 149.528C123.165 149.741 122.701 149.912 122.221 150.04C121.752 150.157 121.267 150.216 120.765 150.216C119.741 150.216 118.931 149.976 118.333 149.496C117.747 149.016 117.453 148.275 117.453 147.272V144.52H118.989V147.176C118.989 147.784 119.176 148.232 119.549 148.52C119.933 148.808 120.445 148.952 121.085 148.952C121.491 148.952 121.907 148.899 122.333 148.792C122.771 148.685 123.197 148.536 123.613 148.344V149.528ZM123.501 153V144.52H125.037V153H123.501ZM131.795 153.096C130.889 153.096 130.089 152.909 129.395 152.536C128.713 152.163 128.179 151.651 127.795 151C127.422 150.349 127.235 149.603 127.235 148.76C127.235 147.917 127.417 147.171 127.779 146.52C128.153 145.869 128.659 145.363 129.299 145C129.95 144.627 130.681 144.44 131.491 144.44C132.313 144.44 133.038 144.621 133.667 144.984C134.297 145.347 134.787 145.859 135.139 146.52C135.502 147.171 135.683 147.933 135.683 148.808C135.683 148.872 135.678 148.947 135.667 149.032C135.667 149.117 135.662 149.197 135.651 149.272H128.435V148.168H134.851L134.227 148.552C134.238 148.008 134.126 147.523 133.891 147.096C133.657 146.669 133.331 146.339 132.915 146.104C132.51 145.859 132.035 145.736 131.491 145.736C130.958 145.736 130.483 145.859 130.067 146.104C129.651 146.339 129.326 146.675 129.091 147.112C128.857 147.539 128.739 148.029 128.739 148.584V148.84C128.739 149.405 128.867 149.912 129.123 150.36C129.39 150.797 129.758 151.139 130.227 151.384C130.697 151.629 131.235 151.752 131.843 151.752C132.345 151.752 132.798 151.667 133.203 151.496C133.619 151.325 133.982 151.069 134.291 150.728L135.139 151.72C134.755 152.168 134.275 152.509 133.699 152.744C133.134 152.979 132.499 153.096 131.795 153.096ZM144.21 153L140.93 148.872L142.194 148.104L146.018 153H144.21ZM138.066 153V144.52H139.602V153H138.066ZM139.138 149.416V148.104H141.938V149.416H139.138ZM142.322 148.936L140.898 148.744L144.146 144.52H145.794L142.322 148.936Z" fill="white"/>
<path d="M97.2517 37C92.4106 36.9989 87.7042 38.5947 83.8621 41.5401C80.02 44.4855 77.2567 48.6159 76.0005 53.2913C74.7444 57.9667 75.0654 62.9258 76.914 67.4002C78.7625 71.8746 82.0354 75.6142 86.2252 78.0396C88.0545 79.1009 89.1985 80.7276 89.2492 82.3676C89.2631 82.8068 89.4214 83.2292 89.6995 83.5695C89.9777 83.9098 90.3601 84.149 90.7878 84.2502C91.7265 84.4715 92.6811 84.6449 93.6518 84.7702C94.5131 84.8795 95.2518 84.1889 95.2518 83.3195V70.8903C94.4091 70.7977 93.5742 70.6453 92.7531 70.4343C92.4987 70.3689 92.2597 70.2539 92.0497 70.096C91.8397 69.9382 91.6629 69.7405 91.5293 69.5143C91.3957 69.2881 91.308 69.0378 91.2711 68.7777C91.2342 68.5176 91.249 68.2528 91.3145 67.9984C91.38 67.7439 91.4949 67.5049 91.6528 67.2949C91.8106 67.085 92.0083 66.9081 92.2345 66.7745C92.4607 66.6409 92.711 66.5532 92.9711 66.5163C93.2312 66.4795 93.496 66.4942 93.7504 66.5597C96.0471 67.1516 98.4564 67.1516 100.753 66.5597C101.01 66.4857 101.279 66.4639 101.545 66.4957C101.81 66.5275 102.067 66.6123 102.299 66.745C102.531 66.8776 102.734 67.0555 102.897 67.2681C103.059 67.4807 103.177 67.7237 103.244 67.9826C103.31 68.2416 103.324 68.5113 103.285 68.7759C103.246 69.0404 103.154 69.2943 103.014 69.5226C102.875 69.751 102.692 69.9491 102.474 70.1052C102.257 70.2613 102.011 70.3724 101.75 70.4317C100.929 70.6435 100.094 70.7968 99.2517 70.8903V83.3169C99.2486 83.5213 99.289 83.7241 99.3703 83.9118C99.4516 84.0994 99.572 84.2676 99.7233 84.405C99.8747 84.5425 100.054 84.6462 100.248 84.7092C100.443 84.7721 100.648 84.7929 100.852 84.7702C101.815 84.6463 102.771 84.4727 103.716 84.2502C104.143 84.149 104.526 83.9098 104.804 83.5695C105.082 83.2292 105.24 82.8068 105.254 82.3676C105.308 80.7276 106.449 79.1009 108.278 78.0396C112.468 75.6142 115.741 71.8746 117.59 67.4002C119.438 62.9258 119.759 57.9667 118.503 53.2913C117.247 48.6159 114.483 44.4855 110.641 41.5401C106.799 38.5947 102.093 36.9989 97.2517 37Z" fill="white"/>
<path fill-rule="evenodd" clip-rule="evenodd" d="M89.2865 88.0658C89.3355 87.8076 89.4348 87.5617 89.5789 87.342C89.7229 87.1223 89.9088 86.9331 90.126 86.7852C90.3432 86.6374 90.5874 86.5338 90.8446 86.4804C91.1018 86.4269 91.3671 86.4247 91.6252 86.4738C95.3431 87.1792 99.1605 87.1792 102.878 86.4738C103.14 86.4163 103.41 86.4117 103.673 86.4605C103.936 86.5092 104.186 86.6102 104.41 86.7575C104.633 86.9048 104.824 87.0954 104.973 87.318C105.121 87.5406 105.223 87.7907 105.273 88.0535C105.323 88.3163 105.32 88.5864 105.264 88.8479C105.207 89.1094 105.099 89.357 104.945 89.5759C104.792 89.7949 104.596 89.9808 104.369 90.1226C104.142 90.2645 103.889 90.3594 103.625 90.4017C99.4138 91.2009 95.0898 91.2009 90.8785 90.4017C90.3578 90.3028 89.8976 90.0012 89.5991 89.5632C89.3006 89.1252 89.1882 88.5866 89.2865 88.0658ZM91.2625 94.583C91.2898 94.3218 91.3683 94.0685 91.4935 93.8375C91.6187 93.6066 91.7881 93.4026 91.9922 93.2372C92.1962 93.0718 92.4309 92.9482 92.6827 92.8735C92.9345 92.7988 93.1986 92.7744 93.4598 92.8017C95.9809 93.0652 98.5226 93.0652 101.044 92.8017C101.305 92.7744 101.569 92.7988 101.821 92.8735C102.073 92.9483 102.307 93.0719 102.511 93.2373C102.715 93.4027 102.885 93.6067 103.01 93.8376C103.135 94.0685 103.214 94.3218 103.241 94.583C103.268 94.8443 103.244 95.1083 103.169 95.3601C103.094 95.6119 102.971 95.8466 102.805 96.0506C102.64 96.2546 102.436 96.4241 102.205 96.5493C101.974 96.6745 101.721 96.753 101.46 96.7803C98.6621 97.0732 95.8415 97.0732 93.0438 96.7803C92.7826 96.753 92.5292 96.6746 92.2983 96.5494C92.0674 96.4242 91.8634 96.2547 91.698 96.0507C91.5326 95.8466 91.409 95.612 91.3343 95.3602C91.2596 95.1083 91.2352 94.8443 91.2625 94.583Z" fill="white"/>
</svg>
