<svg width="160" height="160" viewBox="0 0 160 160" fill="none" xmlns="http://www.w3.org/2000/svg">
<rect width="160" height="160" rx="30" fill="#00AAFF"/>
<path d="M51.0366 89.86L51.5616 88.75C52.0216 89.11 52.5266 89.38 53.0766 89.56C53.6366 89.74 54.1916 89.835 54.7416 89.845C55.2916 89.845 55.7966 89.77 56.2566 89.62C56.7266 89.47 57.1016 89.245 57.3816 88.945C57.6616 88.645 57.8016 88.275 57.8016 87.835C57.8016 87.295 57.5816 86.885 57.1416 86.605C56.7116 86.325 56.1116 86.185 55.3416 86.185H53.0016V84.97H55.2366C55.9066 84.97 56.4266 84.835 56.7966 84.565C57.1766 84.285 57.3666 83.9 57.3666 83.41C57.3666 83.04 57.2516 82.73 57.0216 82.48C56.8016 82.22 56.4966 82.025 56.1066 81.895C55.7266 81.765 55.2916 81.7 54.8016 81.7C54.3216 81.69 53.8266 81.755 53.3166 81.895C52.8066 82.025 52.3166 82.235 51.8466 82.525L51.3666 81.295C52.0066 80.935 52.6716 80.685 53.3616 80.545C54.0616 80.395 54.7366 80.35 55.3866 80.41C56.0366 80.46 56.6216 80.61 57.1416 80.86C57.6716 81.1 58.0916 81.42 58.4016 81.82C58.7216 82.21 58.8816 82.68 58.8816 83.23C58.8816 83.73 58.7516 84.175 58.4916 84.565C58.2316 84.945 57.8716 85.24 57.4116 85.45C56.9516 85.65 56.4166 85.75 55.8066 85.75L55.8666 85.345C56.5666 85.345 57.1716 85.46 57.6816 85.69C58.2016 85.91 58.6016 86.225 58.8816 86.635C59.1716 87.045 59.3166 87.52 59.3166 88.06C59.3166 88.57 59.1866 89.025 58.9266 89.425C58.6666 89.815 58.3116 90.145 57.8616 90.415C57.4216 90.675 56.9166 90.865 56.3466 90.985C55.7866 91.105 55.1966 91.145 54.5766 91.105C53.9566 91.065 53.3416 90.945 52.7316 90.745C52.1316 90.545 51.5666 90.25 51.0366 89.86ZM66.4507 91V89.32L66.3757 89.005V86.14C66.3757 85.53 66.1957 85.06 65.8357 84.73C65.4857 84.39 64.9557 84.22 64.2457 84.22C63.7757 84.22 63.3157 84.3 62.8657 84.46C62.4157 84.61 62.0357 84.815 61.7257 85.075L61.1257 83.995C61.5357 83.665 62.0257 83.415 62.5957 83.245C63.1757 83.065 63.7807 82.975 64.4107 82.975C65.5007 82.975 66.3407 83.24 66.9307 83.77C67.5207 84.3 67.8157 85.11 67.8157 86.2V91H66.4507ZM63.8407 91.09C63.2507 91.09 62.7307 90.99 62.2807 90.79C61.8407 90.59 61.5007 90.315 61.2607 89.965C61.0207 89.605 60.9007 89.2 60.9007 88.75C60.9007 88.32 61.0007 87.93 61.2007 87.58C61.4107 87.23 61.7457 86.95 62.2057 86.74C62.6757 86.53 63.3057 86.425 64.0957 86.425H66.6157V87.46H64.1557C63.4357 87.46 62.9507 87.58 62.7007 87.82C62.4507 88.06 62.3257 88.35 62.3257 88.69C62.3257 89.08 62.4807 89.395 62.7907 89.635C63.1007 89.865 63.5307 89.98 64.0807 89.98C64.6207 89.98 65.0907 89.86 65.4907 89.62C65.9007 89.38 66.1957 89.03 66.3757 88.57L66.6607 89.56C66.4707 90.03 66.1357 90.405 65.6557 90.685C65.1757 90.955 64.5707 91.09 63.8407 91.09ZM70.4087 91V83.05H71.8937L75.3137 88.93H74.7137L78.2237 83.05H79.5737V91H78.2687V84.67L78.5087 84.805L75.2987 90.1H74.6687L71.4437 84.7L71.7287 84.64V91H70.4087ZM85.9164 91.09C85.0664 91.09 84.3164 90.915 83.6664 90.565C83.0264 90.215 82.5264 89.735 82.1664 89.125C81.8164 88.515 81.6414 87.815 81.6414 87.025C81.6414 86.235 81.8114 85.535 82.1514 84.925C82.5014 84.315 82.9764 83.84 83.5764 83.5C84.1864 83.15 84.8714 82.975 85.6314 82.975C86.4014 82.975 87.0814 83.145 87.6714 83.485C88.2614 83.825 88.7214 84.305 89.0514 84.925C89.3914 85.535 89.5614 86.25 89.5614 87.07C89.5614 87.13 89.5564 87.2 89.5464 87.28C89.5464 87.36 89.5414 87.435 89.5314 87.505H82.7664V86.47H88.7814L88.1964 86.83C88.2064 86.32 88.1014 85.865 87.8814 85.465C87.6614 85.065 87.3564 84.755 86.9664 84.535C86.5864 84.305 86.1414 84.19 85.6314 84.19C85.1314 84.19 84.6864 84.305 84.2964 84.535C83.9064 84.755 83.6014 85.07 83.3814 85.48C83.1614 85.88 83.0514 86.34 83.0514 86.86V87.1C83.0514 87.63 83.1714 88.105 83.4114 88.525C83.6614 88.935 84.0064 89.255 84.4464 89.485C84.8864 89.715 85.3914 89.83 85.9614 89.83C86.4314 89.83 86.8564 89.75 87.2364 89.59C87.6264 89.43 87.9664 89.19 88.2564 88.87L89.0514 89.8C88.6914 90.22 88.2414 90.54 87.7014 90.76C87.1714 90.98 86.5764 91.09 85.9164 91.09ZM91.7954 91V83.05H93.2354V86.425H97.7654V83.05H99.2054V91H97.7654V87.67H93.2354V91H91.7954ZM106.88 91V89.32L106.805 89.005V86.14C106.805 85.53 106.625 85.06 106.265 84.73C105.915 84.39 105.385 84.22 104.675 84.22C104.205 84.22 103.745 84.3 103.295 84.46C102.845 84.61 102.465 84.815 102.155 85.075L101.555 83.995C101.965 83.665 102.455 83.415 103.025 83.245C103.605 83.065 104.21 82.975 104.84 82.975C105.93 82.975 106.77 83.24 107.36 83.77C107.95 84.3 108.245 85.11 108.245 86.2V91H106.88ZM104.27 91.09C103.68 91.09 103.16 90.99 102.71 90.79C102.27 90.59 101.93 90.315 101.69 89.965C101.45 89.605 101.33 89.2 101.33 88.75C101.33 88.32 101.43 87.93 101.63 87.58C101.84 87.23 102.175 86.95 102.635 86.74C103.105 86.53 103.735 86.425 104.525 86.425H107.045V87.46H104.585C103.865 87.46 103.38 87.58 103.13 87.82C102.88 88.06 102.755 88.35 102.755 88.69C102.755 89.08 102.91 89.395 103.22 89.635C103.53 89.865 103.96 89.98 104.51 89.98C105.05 89.98 105.52 89.86 105.92 89.62C106.33 89.38 106.625 89.03 106.805 88.57L107.09 89.56C106.9 90.03 106.565 90.405 106.085 90.685C105.605 90.955 105 91.09 104.27 91.09ZM40.6663 109.12C40.6563 109.12 40.6213 109.12 40.5613 109.12C40.5113 109.12 40.4613 109.12 40.4113 109.12C40.3613 109.12 40.3313 109.12 40.3213 109.12C38.6913 109.1 37.4263 108.74 36.5263 108.04C35.6263 107.33 35.1763 106.32 35.1763 105.01C35.1763 103.71 35.6263 102.715 36.5263 102.025C37.4363 101.325 38.7163 100.97 40.3663 100.96C40.3863 100.96 40.4163 100.96 40.4563 100.96C40.5063 100.96 40.5513 100.96 40.5913 100.96C40.6413 100.96 40.6713 100.96 40.6813 100.96C42.3513 100.96 43.6463 101.31 44.5663 102.01C45.4963 102.71 45.9613 103.71 45.9613 105.01C45.9613 106.33 45.4963 107.345 44.5663 108.055C43.6363 108.765 42.3363 109.12 40.6663 109.12ZM40.6363 107.86C41.5063 107.86 42.2263 107.75 42.7962 107.53C43.3763 107.31 43.8113 106.99 44.1013 106.57C44.3913 106.15 44.5363 105.63 44.5363 105.01C44.5363 104.4 44.3913 103.89 44.1013 103.48C43.8113 103.07 43.3763 102.76 42.7962 102.55C42.2263 102.34 41.5063 102.235 40.6363 102.235C40.6163 102.235 40.5763 102.235 40.5163 102.235C40.4563 102.235 40.4213 102.235 40.4113 102.235C39.5613 102.235 38.8513 102.345 38.2812 102.565C37.7213 102.775 37.3013 103.085 37.0213 103.495C36.7413 103.905 36.6013 104.41 36.6013 105.01C36.6013 105.62 36.7413 106.135 37.0213 106.555C37.3113 106.975 37.7363 107.295 38.2963 107.515C38.8663 107.735 39.5713 107.85 40.4113 107.86C40.4313 107.86 40.4663 107.86 40.5163 107.86C40.5763 107.86 40.6163 107.86 40.6363 107.86ZM39.8563 111.91V97.87H41.2663V111.91H39.8563ZM47.9966 109V101.05H49.4366V106.84L54.3116 101.05H55.6166V109H54.1766V103.21L49.3166 109H47.9966ZM57.0916 108.985L57.1816 107.77C57.2516 107.78 57.3166 107.79 57.3766 107.8C57.4366 107.81 57.4916 107.815 57.5416 107.815C57.8616 107.815 58.1116 107.705 58.2916 107.485C58.4816 107.265 58.6216 106.975 58.7116 106.615C58.8016 106.245 58.8666 105.83 58.9066 105.37C58.9466 104.91 58.9766 104.45 58.9966 103.99L59.1316 101.05H65.2366V109H63.7966V101.89L64.1416 102.31H60.0616L60.3916 101.875L60.2866 104.08C60.2566 104.78 60.2016 105.435 60.1216 106.045C60.0416 106.655 59.9166 107.19 59.7466 107.65C59.5866 108.11 59.3616 108.47 59.0716 108.73C58.7916 108.99 58.4266 109.12 57.9766 109.12C57.8466 109.12 57.7066 109.105 57.5566 109.075C57.4166 109.055 57.2616 109.025 57.0916 108.985ZM71.696 103.75C72.706 103.76 73.476 103.99 74.006 104.44C74.536 104.89 74.801 105.525 74.801 106.345C74.801 107.205 74.511 107.87 73.931 108.34C73.351 108.8 72.531 109.025 71.471 109.015L68.021 109V101.05H69.461V103.735L71.696 103.75ZM71.351 107.92C72.001 107.93 72.491 107.8 72.821 107.53C73.161 107.26 73.331 106.86 73.331 106.33C73.331 105.81 73.166 105.43 72.836 105.19C72.506 104.95 72.011 104.825 71.351 104.815L69.461 104.785V107.905L71.351 107.92ZM77.4475 109V101.935L77.8075 102.31H74.5375V101.05H81.7975V102.31H78.5425L78.8875 101.935V109H77.4475ZM87.485 109.09C86.825 109.09 86.22 108.94 85.67 108.64C85.13 108.33 84.695 107.875 84.365 107.275C84.045 106.675 83.885 105.925 83.885 105.025C83.885 104.125 84.04 103.375 84.35 102.775C84.67 102.175 85.1 101.725 85.64 101.425C86.19 101.125 86.805 100.975 87.485 100.975C88.265 100.975 88.955 101.145 89.555 101.485C90.155 101.825 90.63 102.3 90.98 102.91C91.33 103.51 91.505 104.215 91.505 105.025C91.505 105.835 91.33 106.545 90.98 107.155C90.63 107.765 90.155 108.24 89.555 108.58C88.955 108.92 88.265 109.09 87.485 109.09ZM83.27 111.91V101.05H84.65V103.195L84.56 105.04L84.71 106.885V111.91H83.27ZM87.365 107.83C87.875 107.83 88.33 107.715 88.73 107.485C89.14 107.255 89.46 106.93 89.69 106.51C89.93 106.08 90.05 105.585 90.05 105.025C90.05 104.455 89.93 103.965 89.69 103.555C89.46 103.135 89.14 102.81 88.73 102.58C88.33 102.35 87.875 102.235 87.365 102.235C86.865 102.235 86.41 102.35 86 102.58C85.6 102.81 85.28 103.135 85.04 103.555C84.81 103.965 84.695 104.455 84.695 105.025C84.695 105.585 84.81 106.08 85.04 106.51C85.28 106.93 85.6 107.255 86 107.485C86.41 107.715 86.865 107.83 87.365 107.83ZM97.0021 109.09C96.2021 109.09 95.4921 108.915 94.8721 108.565C94.2521 108.215 93.7621 107.735 93.4021 107.125C93.0421 106.505 92.8621 105.805 92.8621 105.025C92.8621 104.235 93.0421 103.535 93.4021 102.925C93.7621 102.315 94.2521 101.84 94.8721 101.5C95.4921 101.15 96.2021 100.975 97.0021 100.975C97.7921 100.975 98.4971 101.15 99.1171 101.5C99.7471 101.84 100.237 102.315 100.587 102.925C100.947 103.525 101.127 104.225 101.127 105.025C101.127 105.815 100.947 106.515 100.587 107.125C100.237 107.735 99.7471 108.215 99.1171 108.565C98.4971 108.915 97.7921 109.09 97.0021 109.09ZM97.0021 107.83C97.5121 107.83 97.9671 107.715 98.3671 107.485C98.7771 107.255 99.0971 106.93 99.3271 106.51C99.5571 106.08 99.6721 105.585 99.6721 105.025C99.6721 104.455 99.5571 103.965 99.3271 103.555C99.0971 103.135 98.7771 102.81 98.3671 102.58C97.9671 102.35 97.5121 102.235 97.0021 102.235C96.4921 102.235 96.0371 102.35 95.6371 102.58C95.2371 102.81 94.9171 103.135 94.6771 103.555C94.4371 103.965 94.3171 104.455 94.3171 105.025C94.3171 105.585 94.4371 106.08 94.6771 106.51C94.9171 106.93 95.2371 107.255 95.6371 107.485C96.0371 107.715 96.4921 107.83 97.0021 107.83ZM103.207 109V101.05H106.897C107.827 101.05 108.557 101.23 109.087 101.59C109.627 101.94 109.897 102.44 109.897 103.09C109.897 103.74 109.642 104.245 109.132 104.605C108.632 104.955 107.967 105.13 107.137 105.13L107.362 104.74C108.312 104.74 109.017 104.915 109.477 105.265C109.937 105.615 110.167 106.13 110.167 106.81C110.167 107.5 109.907 108.04 109.387 108.43C108.877 108.81 108.092 109 107.032 109H103.207ZM104.617 107.89H106.927C107.527 107.89 107.977 107.8 108.277 107.62C108.577 107.43 108.727 107.13 108.727 106.72C108.727 106.3 108.587 105.995 108.307 105.805C108.037 105.605 107.607 105.505 107.017 105.505H104.617V107.89ZM104.617 104.47H106.777C107.327 104.47 107.742 104.37 108.022 104.17C108.312 103.96 108.457 103.67 108.457 103.3C108.457 102.92 108.312 102.635 108.022 102.445C107.742 102.255 107.327 102.16 106.777 102.16H104.617V104.47ZM116.449 109V101.05H117.889V106.84L122.764 101.05H124.069V109H122.629V103.21L117.769 109H116.449ZM41.2273 126.985L41.3173 125.77C41.3873 125.78 41.4523 125.79 41.5123 125.8C41.5723 125.81 41.6273 125.815 41.6773 125.815C41.9973 125.815 42.2473 125.705 42.4273 125.485C42.6173 125.265 42.7573 124.975 42.8473 124.615C42.9373 124.245 43.0023 123.83 43.0423 123.37C43.0823 122.91 43.1123 122.45 43.1323 121.99L43.2673 119.05H49.3723V127H47.9323V119.89L48.2773 120.31H44.1973L44.5273 119.875L44.4223 122.08C44.3923 122.78 44.3373 123.435 44.2573 124.045C44.1773 124.655 44.0523 125.19 43.8823 125.65C43.7223 126.11 43.4973 126.47 43.2073 126.73C42.9273 126.99 42.5623 127.12 42.1123 127.12C41.9823 127.12 41.8423 127.105 41.6923 127.075C41.5523 127.055 41.3973 127.025 41.2273 126.985ZM57.0317 127V125.32L56.9567 125.005V122.14C56.9567 121.53 56.7767 121.06 56.4167 120.73C56.0667 120.39 55.5367 120.22 54.8267 120.22C54.3567 120.22 53.8967 120.3 53.4467 120.46C52.9967 120.61 52.6167 120.815 52.3067 121.075L51.7067 119.995C52.1167 119.665 52.6067 119.415 53.1767 119.245C53.7567 119.065 54.3617 118.975 54.9917 118.975C56.0817 118.975 56.9217 119.24 57.5117 119.77C58.1017 120.3 58.3967 121.11 58.3967 122.2V127H57.0317ZM54.4217 127.09C53.8317 127.09 53.3117 126.99 52.8617 126.79C52.4217 126.59 52.0817 126.315 51.8417 125.965C51.6017 125.605 51.4817 125.2 51.4817 124.75C51.4817 124.32 51.5817 123.93 51.7817 123.58C51.9917 123.23 52.3267 122.95 52.7867 122.74C53.2567 122.53 53.8867 122.425 54.6767 122.425H57.1967V123.46H54.7367C54.0167 123.46 53.5317 123.58 53.2817 123.82C53.0317 124.06 52.9067 124.35 52.9067 124.69C52.9067 125.08 53.0617 125.395 53.3717 125.635C53.6817 125.865 54.1117 125.98 54.6617 125.98C55.2017 125.98 55.6717 125.86 56.0717 125.62C56.4817 125.38 56.7767 125.03 56.9567 124.57L57.2417 125.56C57.0517 126.03 56.7167 126.405 56.2367 126.685C55.7567 126.955 55.1517 127.09 54.4217 127.09ZM60.9897 127V119.05H62.4747L65.8947 124.93H65.2947L68.8047 119.05H70.1547V127H68.8497V120.67L69.0897 120.805L65.8797 126.1H65.2497L62.0247 120.7L62.3097 120.64V127H60.9897ZM72.9575 127V119.05H80.3225V127H78.8825V119.95L79.2275 120.31H74.0525L74.3975 119.95V127H72.9575ZM86.5139 127.09C85.7139 127.09 85.0039 126.915 84.3839 126.565C83.7639 126.215 83.2739 125.735 82.9139 125.125C82.5539 124.505 82.3739 123.805 82.3739 123.025C82.3739 122.235 82.5539 121.535 82.9139 120.925C83.2739 120.315 83.7639 119.84 84.3839 119.5C85.0039 119.15 85.7139 118.975 86.5139 118.975C87.3039 118.975 88.0089 119.15 88.6289 119.5C89.2589 119.84 89.7489 120.315 90.0989 120.925C90.4589 121.525 90.6389 122.225 90.6389 123.025C90.6389 123.815 90.4589 124.515 90.0989 125.125C89.7489 125.735 89.2589 126.215 88.6289 126.565C88.0089 126.915 87.3039 127.09 86.5139 127.09ZM86.5139 125.83C87.0239 125.83 87.4789 125.715 87.8789 125.485C88.2889 125.255 88.6089 124.93 88.8389 124.51C89.0689 124.08 89.1839 123.585 89.1839 123.025C89.1839 122.455 89.0689 121.965 88.8389 121.555C88.6089 121.135 88.2889 120.81 87.8789 120.58C87.4789 120.35 87.0239 120.235 86.5139 120.235C86.0039 120.235 85.5489 120.35 85.1489 120.58C84.7489 120.81 84.4289 121.135 84.1889 121.555C83.9489 121.965 83.8289 122.455 83.8289 123.025C83.8289 123.585 83.9489 124.08 84.1889 124.51C84.4289 124.93 84.7489 125.255 85.1489 125.485C85.5489 125.715 86.0039 125.83 86.5139 125.83ZM97.7282 123.745C97.3082 123.945 96.8732 124.105 96.4232 124.225C95.9832 124.335 95.5282 124.39 95.0582 124.39C94.0982 124.39 93.3382 124.165 92.7782 123.715C92.2282 123.265 91.9532 122.57 91.9532 121.63V119.05H93.3932V121.54C93.3932 122.11 93.5682 122.53 93.9182 122.8C94.2782 123.07 94.7582 123.205 95.3582 123.205C95.7382 123.205 96.1282 123.155 96.5282 123.055C96.9382 122.955 97.3382 122.815 97.7282 122.635V123.745ZM97.6232 127V119.05H99.0632V127H97.6232ZM105.399 127.09C104.549 127.09 103.799 126.915 103.149 126.565C102.509 126.215 102.009 125.735 101.649 125.125C101.299 124.515 101.124 123.815 101.124 123.025C101.124 122.235 101.294 121.535 101.634 120.925C101.984 120.315 102.459 119.84 103.059 119.5C103.669 119.15 104.354 118.975 105.114 118.975C105.884 118.975 106.564 119.145 107.154 119.485C107.744 119.825 108.204 120.305 108.534 120.925C108.874 121.535 109.044 122.25 109.044 123.07C109.044 123.13 109.039 123.2 109.029 123.28C109.029 123.36 109.024 123.435 109.014 123.505H102.249V122.47H108.264L107.679 122.83C107.689 122.32 107.584 121.865 107.364 121.465C107.144 121.065 106.839 120.755 106.449 120.535C106.069 120.305 105.624 120.19 105.114 120.19C104.614 120.19 104.169 120.305 103.779 120.535C103.389 120.755 103.084 121.07 102.864 121.48C102.644 121.88 102.534 122.34 102.534 122.86V123.1C102.534 123.63 102.654 124.105 102.894 124.525C103.144 124.935 103.489 125.255 103.929 125.485C104.369 125.715 104.874 125.83 105.444 125.83C105.914 125.83 106.339 125.75 106.719 125.59C107.109 125.43 107.449 125.19 107.739 124.87L108.534 125.8C108.174 126.22 107.724 126.54 107.184 126.76C106.654 126.98 106.059 127.09 105.399 127.09ZM117.038 127L113.963 123.13L115.148 122.41L118.733 127H117.038ZM111.278 127V119.05H112.718V127H111.278ZM112.283 123.64V122.41H114.908V123.64H112.283ZM115.268 123.19L113.933 123.01L116.978 119.05H118.523L115.268 123.19Z" fill="white"/>
<path d="M80.2518 28C77.105 27.9993 74.0459 29.0366 71.5485 30.9511C69.0512 32.8655 67.255 35.5503 66.4385 38.5893C65.622 41.6283 65.8307 44.8517 67.0323 47.7601C68.2338 50.6684 70.3611 53.0992 73.0845 54.6756C74.2736 55.3655 75.0172 56.4228 75.0501 57.4888C75.0592 57.7743 75.1621 58.0489 75.3428 58.2701C75.5236 58.4913 75.7722 58.6468 76.0502 58.7125C76.6603 58.8564 77.2809 58.969 77.9118 59.0505C78.4716 59.1216 78.9518 58.6727 78.9518 58.1076V50.0286C78.4041 49.9684 77.8613 49.8694 77.3277 49.7322C77.1623 49.6897 77.0069 49.615 76.8704 49.5123C76.734 49.4097 76.619 49.2812 76.5322 49.1342C76.4453 48.9872 76.3883 48.8245 76.3644 48.6554C76.3404 48.4864 76.35 48.3142 76.3925 48.1489C76.4351 47.9835 76.5098 47.8281 76.6124 47.6916C76.715 47.5551 76.8435 47.4402 76.9906 47.3534C77.1376 47.2665 77.3003 47.2095 77.4694 47.1856C77.6384 47.1616 77.8106 47.1712 77.9759 47.2137C79.4688 47.5985 81.0348 47.5985 82.5276 47.2137C82.6946 47.1656 82.8696 47.1515 83.0422 47.1722C83.2148 47.1928 83.3815 47.2479 83.5324 47.3342C83.6834 47.4204 83.8155 47.536 83.9209 47.6742C84.0264 47.8124 84.1031 47.9703 84.1464 48.1386C84.1898 48.307 84.1989 48.4823 84.1734 48.6542C84.1478 48.8262 84.088 48.9912 83.9975 49.1396C83.907 49.2881 83.7876 49.4168 83.6465 49.5183C83.5054 49.6198 83.3454 49.692 83.1758 49.7305C82.6422 49.8682 82.0995 49.9679 81.5517 50.0286V58.1059C81.5497 58.2388 81.576 58.3706 81.6288 58.4925C81.6817 58.6145 81.7599 58.7238 81.8583 58.8132C81.9567 58.9025 82.073 58.9699 82.1994 59.0109C82.3259 59.0518 82.4596 59.0653 82.5917 59.0505C83.2177 58.97 83.839 58.8571 84.4533 58.7125C84.7313 58.6468 84.9799 58.4913 85.1607 58.2701C85.3414 58.0489 85.4443 57.7743 85.4534 57.4888C85.4881 56.4228 86.2299 55.3655 87.419 54.6756C90.1424 53.0992 92.2697 50.6684 93.4713 47.7601C94.6728 44.8517 94.8815 41.6283 94.065 38.5893C93.2485 35.5503 91.4524 32.8655 88.955 30.9511C86.4576 29.0366 83.3985 27.9993 80.2518 28Z" fill="white"/>
<path fill-rule="evenodd" clip-rule="evenodd" d="M75.0743 61.1926C75.1062 61.0249 75.1707 60.865 75.2644 60.7222C75.358 60.5794 75.4789 60.4564 75.62 60.3603C75.7612 60.2642 75.9199 60.1969 76.0871 60.1621C76.2543 60.1274 76.4267 60.1259 76.5945 60.1578C79.0111 60.6164 81.4924 60.6164 83.909 60.1578C84.0788 60.1205 84.2544 60.1175 84.4254 60.1492C84.5963 60.1809 84.7592 60.2465 84.9043 60.3423C85.0495 60.438 85.1739 60.5619 85.2703 60.7066C85.3668 60.8513 85.4332 61.0138 85.4656 61.1847C85.4981 61.3555 85.496 61.5311 85.4594 61.701C85.4228 61.871 85.3525 62.0319 85.2526 62.1742C85.1527 62.3166 85.0253 62.4374 84.8779 62.5296C84.7304 62.6218 84.566 62.6835 84.3944 62.711C81.657 63.2305 78.8464 63.2305 76.1091 62.711C75.7706 62.6467 75.4715 62.4507 75.2775 62.166C75.0835 61.8813 75.0104 61.5312 75.0743 61.1926ZM76.3587 65.4288C76.3765 65.259 76.4275 65.0944 76.5089 64.9443C76.5902 64.7942 76.7004 64.6616 76.833 64.5541C76.9656 64.4466 77.1182 64.3662 77.2818 64.3176C77.4455 64.2691 77.6172 64.2532 77.787 64.271C79.4257 64.4422 81.0778 64.4422 82.7165 64.271C82.8863 64.2532 83.058 64.2691 83.2216 64.3177C83.3853 64.3663 83.5378 64.4466 83.6704 64.5541C83.8031 64.6616 83.9132 64.7942 83.9946 64.9443C84.076 65.0944 84.127 65.259 84.1448 65.4288C84.1625 65.5986 84.1466 65.7703 84.0981 65.934C84.0495 66.0976 83.9691 66.2501 83.8616 66.3828C83.7541 66.5154 83.6215 66.6255 83.4714 66.7069C83.3214 66.7883 83.1567 66.8393 82.9869 66.8571C81.1684 67.0475 79.3351 67.0475 77.5166 66.8571C77.3468 66.8393 77.1821 66.7883 77.032 66.7069C76.8819 66.6256 76.7493 66.5154 76.6418 66.3828C76.5343 66.2502 76.454 66.0977 76.4054 65.934C76.3568 65.7703 76.341 65.5986 76.3587 65.4288Z" fill="white"/>
</svg>
