<svg width="260" height="260" viewBox="0 0 260 260" fill="none" xmlns="http://www.w3.org/2000/svg">
<path d="M0 50C0 26.4298 0 14.6447 7.32233 7.32233C14.6447 0 26.4298 0 50 0H222.02C222.232 0 222.339 0 222.411 0.00263821C225.426 0.112163 227.239 3.39119 225.729 6.00223C225.693 6.06513 225.636 6.15524 225.523 6.33547C224.509 7.95089 224.002 8.75859 223.784 9.14281C214.265 25.9084 231.642 45.11 249.272 37.3059C249.676 37.127 250.53 36.7029 252.238 35.8545L253.875 35.0416C254.178 34.8911 254.33 34.8158 254.442 34.7684C256.984 33.6933 259.825 35.4547 259.993 38.2095C260 38.3309 260 38.5001 260 38.8385V210C260 233.57 260 245.355 252.678 252.678C245.355 260 233.57 260 210 260H50C26.4298 260 14.6447 260 7.32233 252.678C0 245.355 0 233.57 0 210V50Z" fill="#F3F5F7"/>
<mask id="mask0_103_36" style="mask-type:alpha" maskUnits="userSpaceOnUse" x="0" y="0" width="260" height="260">
<path d="M0 50C0 26.4298 0 14.6447 7.32233 7.32233C14.6447 0 26.4298 0 50 0H222.02C222.232 0 222.339 0 222.411 0.00263821C225.426 0.112163 227.239 3.39119 225.729 6.00223C225.693 6.06513 225.636 6.15524 225.523 6.33547C224.509 7.95089 224.002 8.75859 223.784 9.14281C214.265 25.9084 231.642 45.11 249.272 37.3059C249.676 37.127 250.53 36.7029 252.238 35.8545L253.875 35.0416C254.178 34.8911 254.33 34.8158 254.442 34.7684C256.984 33.6933 259.825 35.4547 259.993 38.2095C260 38.3309 260 38.5001 260 38.8385V210C260 233.57 260 245.355 252.678 252.678C245.355 260 233.57 260 210 260H50C26.4298 260 14.6447 260 7.32233 252.678C0 245.355 0 233.57 0 210V50Z" fill="#F3F5F7"/>
</mask>
<g mask="url(#mask0_103_36)">
<path d="M0.519981 105.92C-6.92002 105.92 -13.52 104.2 -19.28 100.76C-24.96 97.32 -29.44 92.32 -32.72 85.76C-35.92 79.2 -37.52 71.28 -37.52 62C-37.52 52.72 -35.92 44.8 -32.72 38.24C-29.44 31.68 -24.96 26.68 -19.28 23.24C-13.52 19.8 -6.92002 18.08 0.519981 18.08C7.95998 18.08 14.52 19.8 20.2 23.24C25.96 26.68 30.44 31.68 33.64 38.24C36.92 44.8 38.56 52.72 38.56 62C38.56 71.28 36.92 79.2 33.64 85.76C30.44 92.32 25.96 97.32 20.2 100.76C14.52 104.2 7.95998 105.92 0.519981 105.92ZM0.519981 83.24C2.35998 83.24 3.99998 82.6 5.43998 81.32C6.87998 80.04 7.99998 77.84 8.79998 74.72C9.67999 71.6 10.12 67.36 10.12 62C10.12 56.56 9.67999 52.32 8.79998 49.28C7.99998 46.16 6.87998 43.96 5.43998 42.68C3.99998 41.4 2.35998 40.76 0.519981 40.76C-1.32002 40.76 -2.96002 41.4 -4.40002 42.68C-5.84002 43.96 -7.00002 46.16 -7.88002 49.28C-8.68002 52.32 -9.08002 56.56 -9.08002 62C-9.08002 67.36 -8.68002 71.6 -7.88002 74.72C-7.00002 77.84 -5.84002 80.04 -4.40002 81.32C-2.96002 82.6 -1.32002 83.24 0.519981 83.24Z" fill="#00AAFF" fill-opacity="0.1"/>
<path d="M44.8459 89.6V71.6L80.4859 20H109.526L75.2059 71.6L62.0059 67.64H127.046V89.6H44.8459ZM88.4059 104V89.6L89.2459 67.64V54.8H115.886V104H88.4059Z" fill="#00AAFF" fill-opacity="0.1"/>
</g>
<circle cx="242.5" cy="17.5" r="17.5" fill="#F3F5F7"/>
<path d="M235 18.25H250M250 18.25L243 11M250 18.25L243 25" stroke="#00AAFF" stroke-width="2" stroke-linecap="round" stroke-linejoin="round"/>
<path d="M22.174 157.136C21.2673 157.136 20.4287 156.989 19.658 156.694C18.8987 156.388 18.2357 155.963 17.669 155.419C17.1137 154.864 16.6773 154.218 16.36 153.481C16.0427 152.744 15.884 151.934 15.884 151.05C15.884 150.166 16.0427 149.356 16.36 148.619C16.6773 147.882 17.1193 147.242 17.686 146.698C18.2527 146.143 18.9157 145.718 19.675 145.423C20.4457 145.117 21.2843 144.964 22.191 144.964C23.109 144.964 23.9533 145.123 24.724 145.44C25.506 145.746 26.169 146.205 26.713 146.817L25.608 147.888C25.1547 147.412 24.6447 147.061 24.078 146.834C23.5113 146.596 22.905 146.477 22.259 146.477C21.5903 146.477 20.967 146.59 20.389 146.817C19.8223 147.044 19.3293 147.361 18.91 147.769C18.4907 148.177 18.162 148.664 17.924 149.231C17.6973 149.786 17.584 150.393 17.584 151.05C17.584 151.707 17.6973 152.319 17.924 152.886C18.162 153.441 18.4907 153.923 18.91 154.331C19.3293 154.739 19.8223 155.056 20.389 155.283C20.967 155.51 21.5903 155.623 22.259 155.623C22.905 155.623 23.5113 155.51 24.078 155.283C24.6447 155.045 25.1547 154.682 25.608 154.195L26.713 155.266C26.169 155.878 25.506 156.343 24.724 156.66C23.9533 156.977 23.1033 157.136 22.174 157.136ZM28.7831 157V147.99H32.9651C34.0191 147.99 34.8465 148.194 35.4471 148.602C36.0591 148.999 36.3651 149.565 36.3651 150.302C36.3651 151.039 36.0761 151.611 35.4981 152.019C34.9315 152.416 34.1778 152.614 33.2371 152.614L33.4921 152.172C34.5688 152.172 35.3678 152.37 35.8891 152.767C36.4105 153.164 36.6711 153.747 36.6711 154.518C36.6711 155.3 36.3765 155.912 35.7871 156.354C35.2091 156.785 34.3195 157 33.1181 157H28.7831ZM30.3811 155.742H32.9991C33.6791 155.742 34.1891 155.64 34.5291 155.436C34.8691 155.221 35.0391 154.881 35.0391 154.416C35.0391 153.94 34.8805 153.594 34.5631 153.379C34.2571 153.152 33.7698 153.039 33.1011 153.039H30.3811V155.742ZM30.3811 151.866H32.8291C33.4525 151.866 33.9228 151.753 34.2401 151.526C34.5688 151.288 34.7331 150.959 34.7331 150.54C34.7331 150.109 34.5688 149.786 34.2401 149.571C33.9228 149.356 33.4525 149.248 32.8291 149.248H30.3811V151.866ZM43.2375 157.102C42.2742 157.102 41.4242 156.904 40.6875 156.507C39.9622 156.11 39.3955 155.566 38.9875 154.875C38.5909 154.184 38.3925 153.39 38.3925 152.495C38.3925 151.6 38.5852 150.806 38.9705 150.115C39.3672 149.424 39.9055 148.885 40.5855 148.5C41.2769 148.103 42.0532 147.905 42.9145 147.905C43.7872 147.905 44.5579 148.098 45.2265 148.483C45.8952 148.868 46.4165 149.412 46.7905 150.115C47.1759 150.806 47.3685 151.617 47.3685 152.546C47.3685 152.614 47.3629 152.693 47.3515 152.784C47.3515 152.875 47.3459 152.96 47.3345 153.039H39.6675V151.866H46.4845L45.8215 152.274C45.8329 151.696 45.7139 151.18 45.4645 150.727C45.2152 150.274 44.8695 149.922 44.4275 149.673C43.9969 149.412 43.4925 149.282 42.9145 149.282C42.3479 149.282 41.8435 149.412 41.4015 149.673C40.9595 149.922 40.6139 150.279 40.3645 150.744C40.1152 151.197 39.9905 151.719 39.9905 152.308V152.58C39.9905 153.181 40.1265 153.719 40.3985 154.195C40.6819 154.66 41.0729 155.022 41.5715 155.283C42.0702 155.544 42.6425 155.674 43.2885 155.674C43.8212 155.674 44.3029 155.583 44.7335 155.402C45.1755 155.221 45.5609 154.949 45.8895 154.586L46.7905 155.64C46.3825 156.116 45.8725 156.479 45.2605 156.728C44.6599 156.977 43.9855 157.102 43.2375 157.102ZM54.6773 157.102C53.9293 157.102 53.2437 156.932 52.6203 156.592C52.0083 156.241 51.5153 155.725 51.1413 155.045C50.7787 154.365 50.5973 153.515 50.5973 152.495C50.5973 151.475 50.773 150.625 51.1243 149.945C51.487 149.265 51.9743 148.755 52.5863 148.415C53.2097 148.075 53.9067 147.905 54.6773 147.905C55.5613 147.905 56.3433 148.098 57.0233 148.483C57.7033 148.868 58.2417 149.407 58.6383 150.098C59.035 150.778 59.2333 151.577 59.2333 152.495C59.2333 153.413 59.035 154.218 58.6383 154.909C58.2417 155.6 57.7033 156.139 57.0233 156.524C56.3433 156.909 55.5613 157.102 54.6773 157.102ZM49.9003 160.298V147.99H51.4643V150.421L51.3623 152.512L51.5323 154.603V160.298H49.9003ZM54.5413 155.674C55.1193 155.674 55.635 155.544 56.0883 155.283C56.553 155.022 56.9157 154.654 57.1763 154.178C57.4483 153.691 57.5843 153.13 57.5843 152.495C57.5843 151.849 57.4483 151.294 57.1763 150.829C56.9157 150.353 56.553 149.985 56.0883 149.724C55.635 149.463 55.1193 149.333 54.5413 149.333C53.9747 149.333 53.459 149.463 52.9943 149.724C52.541 149.985 52.1783 150.353 51.9063 150.829C51.6457 151.294 51.5153 151.849 51.5153 152.495C51.5153 153.13 51.6457 153.691 51.9063 154.178C52.1783 154.654 52.541 155.022 52.9943 155.283C53.459 155.544 53.9747 155.674 54.5413 155.674ZM68.1324 157L64.6474 152.614L65.9904 151.798L70.0534 157H68.1324ZM61.6044 157V147.99H63.2364V157H61.6044ZM62.7434 153.192V151.798H65.7184V153.192H62.7434ZM66.1264 152.682L64.6134 152.478L68.0644 147.99H69.8154L66.1264 152.682ZM77.1236 157V155.096L77.0386 154.739V151.492C77.0386 150.801 76.8346 150.268 76.4266 149.894C76.0299 149.509 75.4292 149.316 74.6246 149.316C74.0919 149.316 73.5706 149.407 73.0606 149.588C72.5506 149.758 72.1199 149.99 71.7686 150.285L71.0886 149.061C71.5532 148.687 72.1086 148.404 72.7546 148.211C73.4119 148.007 74.0976 147.905 74.8116 147.905C76.0469 147.905 76.9989 148.205 77.6676 148.806C78.3362 149.407 78.6706 150.325 78.6706 151.56V157H77.1236ZM74.1656 157.102C73.4969 157.102 72.9076 156.989 72.3976 156.762C71.8989 156.535 71.5136 156.224 71.2416 155.827C70.9696 155.419 70.8336 154.96 70.8336 154.45C70.8336 153.963 70.9469 153.521 71.1736 153.124C71.4116 152.727 71.7912 152.41 72.3126 152.172C72.8452 151.934 73.5592 151.815 74.4546 151.815H77.3106V152.988H74.5226C73.7066 152.988 73.1569 153.124 72.8736 153.396C72.5902 153.668 72.4486 153.997 72.4486 154.382C72.4486 154.824 72.6242 155.181 72.9756 155.453C73.3269 155.714 73.8142 155.844 74.4376 155.844C75.0496 155.844 75.5822 155.708 76.0356 155.436C76.5002 155.164 76.8346 154.767 77.0386 154.246L77.3616 155.368C77.1462 155.901 76.7666 156.326 76.2226 156.643C75.6786 156.949 74.9929 157.102 74.1656 157.102ZM86.1748 157V147.99H87.8068V151.815H92.9408V147.99H94.5728V157H92.9408V153.226H87.8068V157H86.1748ZM101.605 157.102C100.698 157.102 99.8937 156.904 99.191 156.507C98.4884 156.11 97.933 155.566 97.525 154.875C97.117 154.172 96.913 153.379 96.913 152.495C96.913 151.6 97.117 150.806 97.525 150.115C97.933 149.424 98.4884 148.885 99.191 148.5C99.8937 148.103 100.698 147.905 101.605 147.905C102.5 147.905 103.299 148.103 104.002 148.5C104.716 148.885 105.271 149.424 105.668 150.115C106.076 150.795 106.28 151.588 106.28 152.495C106.28 153.39 106.076 154.184 105.668 154.875C105.271 155.566 104.716 156.11 104.002 156.507C103.299 156.904 102.5 157.102 101.605 157.102ZM101.605 155.674C102.183 155.674 102.699 155.544 103.152 155.283C103.617 155.022 103.979 154.654 104.24 154.178C104.501 153.691 104.631 153.13 104.631 152.495C104.631 151.849 104.501 151.294 104.24 150.829C103.979 150.353 103.617 149.985 103.152 149.724C102.699 149.463 102.183 149.333 101.605 149.333C101.027 149.333 100.511 149.463 100.058 149.724C99.6047 149.985 99.242 150.353 98.97 150.829C98.698 151.294 98.562 151.849 98.562 152.495C98.562 153.13 98.698 153.691 98.97 154.178C99.242 154.654 99.6047 155.022 100.058 155.283C100.511 155.544 101.027 155.674 101.605 155.674ZM108.637 157V147.99H110.32L114.196 154.654H113.516L117.494 147.99H119.024V157H117.545V149.826L117.817 149.979L114.179 155.98H113.465L109.81 149.86L110.133 149.792V157H108.637ZM126.212 157.102C125.249 157.102 124.399 156.904 123.662 156.507C122.937 156.11 122.37 155.566 121.962 154.875C121.565 154.184 121.367 153.39 121.367 152.495C121.367 151.6 121.56 150.806 121.945 150.115C122.342 149.424 122.88 148.885 123.56 148.5C124.251 148.103 125.028 147.905 125.889 147.905C126.762 147.905 127.532 148.098 128.201 148.483C128.87 148.868 129.391 149.412 129.765 150.115C130.15 150.806 130.343 151.617 130.343 152.546C130.343 152.614 130.337 152.693 130.326 152.784C130.326 152.875 130.32 152.96 130.309 153.039H122.642V151.866H129.459L128.796 152.274C128.807 151.696 128.688 151.18 128.439 150.727C128.19 150.274 127.844 149.922 127.402 149.673C126.971 149.412 126.467 149.282 125.889 149.282C125.322 149.282 124.818 149.412 124.376 149.673C123.934 149.922 123.588 150.279 123.339 150.744C123.09 151.197 122.965 151.719 122.965 152.308V152.58C122.965 153.181 123.101 153.719 123.373 154.195C123.656 154.66 124.047 155.022 124.546 155.283C125.045 155.544 125.617 155.674 126.263 155.674C126.796 155.674 127.277 155.583 127.708 155.402C128.15 155.221 128.535 154.949 128.864 154.586L129.765 155.64C129.357 156.116 128.847 156.479 128.235 156.728C127.634 156.977 126.96 157.102 126.212 157.102ZM137.652 157.102C136.904 157.102 136.218 156.932 135.595 156.592C134.983 156.241 134.49 155.725 134.116 155.045C133.753 154.365 133.572 153.515 133.572 152.495C133.572 151.475 133.748 150.625 134.099 149.945C134.462 149.265 134.949 148.755 135.561 148.415C136.184 148.075 136.881 147.905 137.652 147.905C138.536 147.905 139.318 148.098 139.998 148.483C140.678 148.868 141.216 149.407 141.613 150.098C142.01 150.778 142.208 151.577 142.208 152.495C142.208 153.413 142.01 154.218 141.613 154.909C141.216 155.6 140.678 156.139 139.998 156.524C139.318 156.909 138.536 157.102 137.652 157.102ZM132.875 160.298V147.99H134.439V150.421L134.337 152.512L134.507 154.603V160.298H132.875ZM137.516 155.674C138.094 155.674 138.61 155.544 139.063 155.283C139.528 155.022 139.89 154.654 140.151 154.178C140.423 153.691 140.559 153.13 140.559 152.495C140.559 151.849 140.423 151.294 140.151 150.829C139.89 150.353 139.528 149.985 139.063 149.724C138.61 149.463 138.094 149.333 137.516 149.333C136.949 149.333 136.434 149.463 135.969 149.724C135.516 149.985 135.153 150.353 134.881 150.829C134.62 151.294 134.49 151.849 134.49 152.495C134.49 153.13 134.62 153.691 134.881 154.178C135.153 154.654 135.516 155.022 135.969 155.283C136.434 155.544 136.949 155.674 137.516 155.674ZM148.438 157.102C147.531 157.102 146.727 156.904 146.024 156.507C145.321 156.11 144.766 155.566 144.358 154.875C143.95 154.172 143.746 153.379 143.746 152.495C143.746 151.6 143.95 150.806 144.358 150.115C144.766 149.424 145.321 148.885 146.024 148.5C146.727 148.103 147.531 147.905 148.438 147.905C149.333 147.905 150.132 148.103 150.835 148.5C151.549 148.885 152.104 149.424 152.501 150.115C152.909 150.795 153.113 151.588 153.113 152.495C153.113 153.39 152.909 154.184 152.501 154.875C152.104 155.566 151.549 156.11 150.835 156.507C150.132 156.904 149.333 157.102 148.438 157.102ZM148.438 155.674C149.016 155.674 149.532 155.544 149.985 155.283C150.45 155.022 150.812 154.654 151.073 154.178C151.334 153.691 151.464 153.13 151.464 152.495C151.464 151.849 151.334 151.294 151.073 150.829C150.812 150.353 150.45 149.985 149.985 149.724C149.532 149.463 149.016 149.333 148.438 149.333C147.86 149.333 147.344 149.463 146.891 149.724C146.438 149.985 146.075 150.353 145.803 150.829C145.531 151.294 145.395 151.849 145.395 152.495C145.395 153.13 145.531 153.691 145.803 154.178C146.075 154.654 146.438 155.022 146.891 155.283C147.344 155.544 147.86 155.674 148.438 155.674ZM155.47 157V147.99H159.652C160.706 147.99 161.533 148.194 162.134 148.602C162.746 148.999 163.052 149.565 163.052 150.302C163.052 151.039 162.763 151.611 162.185 152.019C161.618 152.416 160.864 152.614 159.924 152.614L160.179 152.172C161.255 152.172 162.054 152.37 162.576 152.767C163.097 153.164 163.358 153.747 163.358 154.518C163.358 155.3 163.063 155.912 162.474 156.354C161.896 156.785 161.006 157 159.805 157H155.47ZM157.068 155.742H159.686C160.366 155.742 160.876 155.64 161.216 155.436C161.556 155.221 161.726 154.881 161.726 154.416C161.726 153.94 161.567 153.594 161.25 153.379C160.944 153.152 160.456 153.039 159.788 153.039H157.068V155.742ZM157.068 151.866H159.516C160.139 151.866 160.609 151.753 160.927 151.526C161.255 151.288 161.42 150.959 161.42 150.54C161.42 150.109 161.255 149.786 160.927 149.571C160.609 149.356 160.139 149.248 159.516 149.248H157.068V151.866ZM172.534 160.298C171.888 159.267 171.39 158.077 171.038 156.728C170.687 155.368 170.511 153.906 170.511 152.342C170.511 150.778 170.687 149.316 171.038 147.956C171.39 146.585 171.888 145.395 172.534 144.386H174.081C173.401 145.587 172.903 146.845 172.585 148.16C172.268 149.463 172.109 150.857 172.109 152.342C172.109 153.827 172.268 155.226 172.585 156.541C172.903 157.844 173.401 159.097 174.081 160.298H172.534ZM179.843 157L174.607 145.1H176.443L181.254 156.082H180.2L185.045 145.1H186.745L181.526 157H179.843ZM188.263 157V145.1H189.963V157H188.263ZM193.525 157V145.1H194.919L202.79 154.875H202.059V145.1H203.759V157H202.365L194.494 147.225H195.225V157H193.525ZM207.627 160.298H206.08C206.771 159.097 207.276 157.844 207.593 156.541C207.91 155.226 208.069 153.827 208.069 152.342C208.069 150.857 207.91 149.463 207.593 148.16C207.276 146.845 206.771 145.587 206.08 144.386H207.627C208.296 145.395 208.8 146.585 209.14 147.956C209.491 149.316 209.667 150.778 209.667 152.342C209.667 153.906 209.491 155.368 209.14 156.728C208.8 158.077 208.296 159.267 207.627 160.298ZM217.427 157V147.99H219.059V154.552L224.584 147.99H226.063V157H224.431V150.438L218.923 157H217.427ZM16.581 178V168.99H24.928V178H23.296V170.01L23.687 170.418H17.822L18.213 170.01V178H16.581ZM31.9449 178.102C31.0382 178.102 30.2335 177.904 29.5309 177.507C28.8282 177.11 28.2729 176.566 27.8649 175.875C27.4569 175.172 27.2529 174.379 27.2529 173.495C27.2529 172.6 27.4569 171.806 27.8649 171.115C28.2729 170.424 28.8282 169.885 29.5309 169.5C30.2335 169.103 31.0382 168.905 31.9449 168.905C32.8402 168.905 33.6392 169.103 34.3419 169.5C35.0559 169.885 35.6112 170.424 36.0079 171.115C36.4159 171.795 36.6199 172.588 36.6199 173.495C36.6199 174.39 36.4159 175.184 36.0079 175.875C35.6112 176.566 35.0559 177.11 34.3419 177.507C33.6392 177.904 32.8402 178.102 31.9449 178.102ZM31.9449 176.674C32.5229 176.674 33.0385 176.544 33.4919 176.283C33.9565 176.022 34.3192 175.654 34.5799 175.178C34.8405 174.691 34.9709 174.13 34.9709 173.495C34.9709 172.849 34.8405 172.294 34.5799 171.829C34.3192 171.353 33.9565 170.985 33.4919 170.724C33.0385 170.463 32.5229 170.333 31.9449 170.333C31.3669 170.333 30.8512 170.463 30.3979 170.724C29.9445 170.985 29.5819 171.353 29.3099 171.829C29.0379 172.294 28.9019 172.849 28.9019 173.495C28.9019 174.13 29.0379 174.691 29.3099 175.178C29.5819 175.654 29.9445 176.022 30.3979 176.283C30.8512 176.544 31.3669 176.674 31.9449 176.674ZM45.0641 177.235V170.418H41.1541L41.0691 172.152C41.0464 172.719 41.0068 173.268 40.9501 173.801C40.9048 174.322 40.8254 174.804 40.7121 175.246C40.6101 175.688 40.4571 176.051 40.2531 176.334C40.0491 176.617 39.7771 176.793 39.4371 176.861L37.8221 176.572C38.1734 176.583 38.4568 176.47 38.6721 176.232C38.8874 175.983 39.0518 175.643 39.1651 175.212C39.2898 174.781 39.3804 174.294 39.4371 173.75C39.4938 173.195 39.5391 172.622 39.5731 172.033L39.7091 168.99H46.6961V177.235H45.0641ZM37.4651 180.091V176.572H48.0731V180.091H46.5431V178H39.0121V180.091H37.4651ZM56.7272 178L53.2422 173.614L54.5852 172.798L58.6482 178H56.7272ZM50.1992 178V168.99H51.8312V178H50.1992ZM51.3382 174.192V172.798H54.3132V174.192H51.3382ZM54.7212 173.682L53.2082 173.478L56.6592 168.99H58.4102L54.7212 173.682ZM65.7183 178V176.096L65.6333 175.739V172.492C65.6333 171.801 65.4293 171.268 65.0213 170.894C64.6246 170.509 64.024 170.316 63.2193 170.316C62.6866 170.316 62.1653 170.407 61.6553 170.588C61.1453 170.758 60.7146 170.99 60.3633 171.285L59.6833 170.061C60.148 169.687 60.7033 169.404 61.3493 169.211C62.0066 169.007 62.6923 168.905 63.4063 168.905C64.6416 168.905 65.5936 169.205 66.2623 169.806C66.931 170.407 67.2653 171.325 67.2653 172.56V178H65.7183ZM62.7603 178.102C62.0916 178.102 61.5023 177.989 60.9923 177.762C60.4936 177.535 60.1083 177.224 59.8363 176.827C59.5643 176.419 59.4283 175.96 59.4283 175.45C59.4283 174.963 59.5416 174.521 59.7683 174.124C60.0063 173.727 60.386 173.41 60.9073 173.172C61.44 172.934 62.154 172.815 63.0493 172.815H65.9053V173.988H63.1173C62.3013 173.988 61.7516 174.124 61.4683 174.396C61.185 174.668 61.0433 174.997 61.0433 175.382C61.0433 175.824 61.219 176.181 61.5703 176.453C61.9216 176.714 62.409 176.844 63.0323 176.844C63.6443 176.844 64.177 176.708 64.6303 176.436C65.095 176.164 65.4293 175.767 65.6333 175.246L65.9563 176.368C65.741 176.901 65.3613 177.326 64.8173 177.643C64.2733 177.949 63.5876 178.102 62.7603 178.102ZM70.204 178V168.99H78.551V178H76.919V170.01L77.31 170.418H71.445L71.836 170.01V178H70.204ZM85.5679 178.102C84.6613 178.102 83.8566 177.904 83.1539 177.507C82.4513 177.11 81.8959 176.566 81.4879 175.875C81.0799 175.172 80.8759 174.379 80.8759 173.495C80.8759 172.6 81.0799 171.806 81.4879 171.115C81.8959 170.424 82.4513 169.885 83.1539 169.5C83.8566 169.103 84.6613 168.905 85.5679 168.905C86.4633 168.905 87.2623 169.103 87.9649 169.5C88.6789 169.885 89.2343 170.424 89.6309 171.115C90.0389 171.795 90.2429 172.588 90.2429 173.495C90.2429 174.39 90.0389 175.184 89.6309 175.875C89.2343 176.566 88.6789 177.11 87.9649 177.507C87.2623 177.904 86.4633 178.102 85.5679 178.102ZM85.5679 176.674C86.1459 176.674 86.6616 176.544 87.1149 176.283C87.5796 176.022 87.9423 175.654 88.2029 175.178C88.4636 174.691 88.5939 174.13 88.5939 173.495C88.5939 172.849 88.4636 172.294 88.2029 171.829C87.9423 171.353 87.5796 170.985 87.1149 170.724C86.6616 170.463 86.1459 170.333 85.5679 170.333C84.9899 170.333 84.4743 170.463 84.0209 170.724C83.5676 170.985 83.2049 171.353 82.9329 171.829C82.6609 172.294 82.5249 172.849 82.5249 173.495C82.5249 174.13 82.6609 174.691 82.9329 175.178C83.2049 175.654 83.5676 176.022 84.0209 176.283C84.4743 176.544 84.9899 176.674 85.5679 176.674ZM94.0525 178V169.993L94.4605 170.418H90.7545V168.99H98.9825V170.418H95.2935L95.6845 169.993V178H94.0525ZM100.651 178V168.99H102.283V172.815H107.417V168.99H109.049V178H107.417V174.226H102.283V178H100.651ZM121.131 178V168.99H122.763V178H121.131ZM116.286 172.05C117.43 172.061 118.297 172.322 118.887 172.832C119.487 173.342 119.788 174.062 119.788 174.991C119.788 175.966 119.459 176.719 118.802 177.252C118.156 177.773 117.226 178.028 116.014 178.017L112.223 178V168.99H113.855V172.033L116.286 172.05ZM115.895 176.776C116.62 176.787 117.175 176.64 117.561 176.334C117.946 176.028 118.139 175.575 118.139 174.974C118.139 174.385 117.946 173.954 117.561 173.682C117.187 173.41 116.631 173.268 115.895 173.257L113.855 173.223V176.759L115.895 176.776ZM124.507 178L128.383 172.968L128.366 173.801L124.677 168.99H126.496L129.318 172.696H128.621L131.443 168.99H133.228L129.488 173.835L129.505 172.968L133.415 178H131.562L128.587 174.056L129.25 174.158L126.326 178H124.507ZM18.638 202.298C17.992 201.267 17.4933 200.077 17.142 198.728C16.7907 197.368 16.615 195.906 16.615 194.342C16.615 192.778 16.7907 191.316 17.142 189.956C17.4933 188.585 17.992 187.395 18.638 186.386H20.185C19.505 187.587 19.0063 188.845 18.689 190.16C18.3717 191.463 18.213 192.857 18.213 194.342C18.213 195.827 18.3717 197.226 18.689 198.541C19.0063 199.844 19.505 201.097 20.185 202.298H18.638ZM28.2467 198.235V191.418H24.3367L24.2517 193.152C24.2291 193.719 24.1894 194.268 24.1327 194.801C24.0874 195.322 24.0081 195.804 23.8947 196.246C23.7927 196.688 23.6397 197.051 23.4357 197.334C23.2317 197.617 22.9597 197.793 22.6197 197.861L21.0047 197.572C21.3561 197.583 21.6394 197.47 21.8547 197.232C22.0701 196.983 22.2344 196.643 22.3477 196.212C22.4724 195.781 22.5631 195.294 22.6197 194.75C22.6764 194.195 22.7217 193.622 22.7557 193.033L22.8917 189.99H29.8787V198.235H28.2467ZM20.6477 201.091V197.572H31.2557V201.091H29.7257V199H22.1947V201.091H20.6477ZM33.8408 202.4C33.4101 202.4 32.9908 202.326 32.5828 202.179C32.1748 202.043 31.8234 201.839 31.5288 201.567L32.2258 200.343C32.4524 200.558 32.7018 200.723 32.9738 200.836C33.2458 200.949 33.5348 201.006 33.8408 201.006C34.2374 201.006 34.5661 200.904 34.8268 200.7C35.0874 200.496 35.3311 200.133 35.5578 199.612L36.1188 198.371L36.2888 198.167L39.8248 189.99H41.4228L37.0538 199.901C36.7931 200.536 36.4984 201.034 36.1698 201.397C35.8524 201.76 35.5011 202.015 35.1158 202.162C34.7304 202.321 34.3054 202.4 33.8408 202.4ZM35.9828 199.289L31.8688 189.99H33.5688L37.0708 198.014L35.9828 199.289ZM47.1425 199.136C46.3945 199.136 45.7315 199.017 45.1535 198.779C44.5868 198.541 44.0995 198.19 43.6915 197.725C43.2835 197.249 42.9718 196.654 42.7565 195.94C42.5525 195.215 42.4505 194.365 42.4505 193.39C42.4505 192.619 42.5185 191.928 42.6545 191.316C42.7905 190.704 42.9832 190.16 43.2325 189.684C43.4932 189.208 43.8105 188.794 44.1845 188.443C44.5698 188.092 45.0005 187.803 45.4765 187.576C45.9638 187.338 46.4965 187.157 47.0745 187.032L51.1885 186.114L51.4265 187.627L47.6355 188.443C47.4088 188.488 47.1368 188.556 46.8195 188.647C46.5022 188.738 46.1792 188.879 45.8505 189.072C45.5218 189.253 45.2158 189.508 44.9325 189.837C44.6492 190.166 44.4225 190.596 44.2525 191.129C44.0825 191.65 43.9975 192.296 43.9975 193.067C43.9975 193.282 44.0032 193.447 44.0145 193.56C44.0258 193.673 44.0372 193.787 44.0485 193.9C44.0712 194.013 44.0882 194.183 44.0995 194.41L43.4195 193.713C43.6008 193.09 43.8898 192.546 44.2865 192.081C44.6832 191.616 45.1592 191.259 45.7145 191.01C46.2812 190.749 46.8988 190.619 47.5675 190.619C48.4062 190.619 49.1485 190.8 49.7945 191.163C50.4518 191.526 50.9675 192.024 51.3415 192.659C51.7155 193.294 51.9025 194.019 51.9025 194.835C51.9025 195.662 51.7042 196.405 51.3075 197.062C50.9222 197.708 50.3725 198.218 49.6585 198.592C48.9445 198.955 48.1058 199.136 47.1425 199.136ZM47.2955 197.776C47.8735 197.776 48.3835 197.651 48.8255 197.402C49.2675 197.141 49.6132 196.796 49.8625 196.365C50.1118 195.923 50.2365 195.43 50.2365 194.886C50.2365 194.342 50.1118 193.86 49.8625 193.441C49.6132 193.022 49.2675 192.693 48.8255 192.455C48.3835 192.206 47.8622 192.081 47.2615 192.081C46.6948 192.081 46.1848 192.2 45.7315 192.438C45.2782 192.665 44.9268 192.988 44.6775 193.407C44.4282 193.815 44.3035 194.291 44.3035 194.835C44.3035 195.379 44.4282 195.878 44.6775 196.331C44.9382 196.773 45.2895 197.124 45.7315 197.385C46.1848 197.646 46.7062 197.776 47.2955 197.776ZM52.6709 198.983L52.7729 197.606C52.8523 197.617 52.9259 197.629 52.9939 197.64C53.0619 197.651 53.1243 197.657 53.1809 197.657C53.5436 197.657 53.8269 197.532 54.0309 197.283C54.2463 197.034 54.4049 196.705 54.5069 196.297C54.6089 195.878 54.6826 195.407 54.7279 194.886C54.7733 194.365 54.8073 193.843 54.8299 193.322L54.9829 189.99H61.9019V199H60.2699V190.942L60.6609 191.418H56.0369L56.4109 190.925L56.2919 193.424C56.2579 194.217 56.1956 194.96 56.1049 195.651C56.0143 196.342 55.8726 196.949 55.6799 197.47C55.4986 197.991 55.2436 198.399 54.9149 198.694C54.5976 198.989 54.1839 199.136 53.6739 199.136C53.5266 199.136 53.3679 199.119 53.1979 199.085C53.0393 199.062 52.8636 199.028 52.6709 198.983ZM65.0576 199V189.99H66.6896V196.552L72.2146 189.99H73.6936V199H72.0616V192.438L66.5536 199H65.0576ZM81.6383 199.102C80.8903 199.102 80.2046 198.932 79.5813 198.592C78.9693 198.241 78.4763 197.725 78.1023 197.045C77.7396 196.365 77.5583 195.515 77.5583 194.495C77.5583 193.475 77.7339 192.625 78.0853 191.945C78.4479 191.265 78.9353 190.755 79.5473 190.415C80.1706 190.075 80.8676 189.905 81.6383 189.905C82.5223 189.905 83.3043 190.098 83.9843 190.483C84.6643 190.868 85.2026 191.407 85.5993 192.098C85.9959 192.778 86.1943 193.577 86.1943 194.495C86.1943 195.413 85.9959 196.218 85.5993 196.909C85.2026 197.6 84.6643 198.139 83.9843 198.524C83.3043 198.909 82.5223 199.102 81.6383 199.102ZM76.8613 202.298V189.99H78.4253V192.421L78.3233 194.512L78.4933 196.603V202.298H76.8613ZM81.5023 197.674C82.0803 197.674 82.5959 197.544 83.0493 197.283C83.5139 197.022 83.8766 196.654 84.1373 196.178C84.4093 195.691 84.5453 195.13 84.5453 194.495C84.5453 193.849 84.4093 193.294 84.1373 192.829C83.8766 192.353 83.5139 191.985 83.0493 191.724C82.5959 191.463 82.0803 191.333 81.5023 191.333C80.9356 191.333 80.4199 191.463 79.9553 191.724C79.5019 191.985 79.1393 192.353 78.8673 192.829C78.6066 193.294 78.4763 193.849 78.4763 194.495C78.4763 195.13 78.6066 195.691 78.8673 196.178C79.1393 196.654 79.5019 197.022 79.9553 197.283C80.4199 197.544 80.9356 197.674 81.5023 197.674ZM88.7754 202.4C88.3447 202.4 87.9254 202.326 87.5174 202.179C87.1094 202.043 86.758 201.839 86.4634 201.567L87.1604 200.343C87.387 200.558 87.6364 200.723 87.9084 200.836C88.1804 200.949 88.4694 201.006 88.7754 201.006C89.172 201.006 89.5007 200.904 89.7614 200.7C90.022 200.496 90.2657 200.133 90.4924 199.612L91.0534 198.371L91.2234 198.167L94.7594 189.99H96.3574L91.9884 199.901C91.7277 200.536 91.433 201.034 91.1044 201.397C90.787 201.76 90.4357 202.015 90.0504 202.162C89.665 202.321 89.24 202.4 88.7754 202.4ZM90.9174 199.289L86.8034 189.99H88.5034L92.0054 198.014L90.9174 199.289ZM98.0283 199V189.99H99.6603V193.679H102.38V195.192H99.6603V199H98.0283ZM106.001 199.102C105.117 199.102 104.33 198.904 103.638 198.507C102.958 198.11 102.42 197.566 102.023 196.875C101.627 196.172 101.428 195.379 101.428 194.495C101.428 193.6 101.627 192.806 102.023 192.115C102.42 191.412 102.958 190.868 103.638 190.483C104.33 190.098 105.117 189.905 106.001 189.905C106.874 189.905 107.656 190.098 108.347 190.483C109.039 190.868 109.583 191.412 109.979 192.115C110.376 192.806 110.574 193.6 110.574 194.495C110.574 195.39 110.376 196.184 109.979 196.875C109.583 197.566 109.039 198.11 108.347 198.507C107.656 198.904 106.874 199.102 106.001 199.102ZM106.001 197.674C106.568 197.674 107.072 197.544 107.514 197.283C107.956 197.011 108.308 196.643 108.568 196.178C108.829 195.702 108.959 195.141 108.959 194.495C108.959 193.849 108.829 193.294 108.568 192.829C108.308 192.353 107.956 191.985 107.514 191.724C107.072 191.463 106.568 191.333 106.001 191.333C105.446 191.333 104.942 191.463 104.488 191.724C104.046 191.985 103.695 192.353 103.434 192.829C103.174 193.294 103.043 193.849 103.043 194.495C103.043 195.141 103.174 195.702 103.434 196.178C103.695 196.643 104.046 197.011 104.488 197.283C104.942 197.544 105.446 197.674 106.001 197.674ZM118.904 197.572L118.53 197.997V189.99H120.162V197.997L119.754 197.572H124.514L124.123 197.997V189.99H125.755V199H112.92V189.99H114.552V197.997L114.161 197.572H118.904ZM125.551 200.921V198.575L125.942 199H124.038V197.572H127.081V200.921H125.551ZM128.924 199V189.99H130.556V196.552L136.081 189.99H137.56V199H135.928V192.438L130.42 199H128.924ZM139.299 199L143.175 193.968L143.158 194.801L139.469 189.99H141.288L144.11 193.696H143.413L146.235 189.99H148.02L144.28 194.835L144.297 193.968L148.207 199H146.354L143.379 195.056L144.042 195.158L141.118 199H139.299ZM150.435 202.298H148.888C149.579 201.097 150.083 199.844 150.401 198.541C150.718 197.226 150.877 195.827 150.877 194.342C150.877 192.857 150.718 191.463 150.401 190.16C150.083 188.845 149.579 187.587 148.888 186.386H150.435C151.103 187.395 151.608 188.585 151.948 189.956C152.299 191.316 152.475 192.778 152.475 194.342C152.475 195.906 152.299 197.368 151.948 198.728C151.608 200.077 151.103 201.267 150.435 202.298ZM162.019 199V190.993L162.427 191.418H158.721V189.99H166.949V191.418H163.26L163.651 190.993V199H162.019ZM174.143 199V197.096L174.058 196.739V193.492C174.058 192.801 173.854 192.268 173.446 191.894C173.049 191.509 172.449 191.316 171.644 191.316C171.111 191.316 170.59 191.407 170.08 191.588C169.57 191.758 169.139 191.99 168.788 192.285L168.108 191.061C168.573 190.687 169.128 190.404 169.774 190.211C170.431 190.007 171.117 189.905 171.831 189.905C173.066 189.905 174.018 190.205 174.687 190.806C175.356 191.407 175.69 192.325 175.69 193.56V199H174.143ZM171.185 199.102C170.516 199.102 169.927 198.989 169.417 198.762C168.918 198.535 168.533 198.224 168.261 197.827C167.989 197.419 167.853 196.96 167.853 196.45C167.853 195.963 167.966 195.521 168.193 195.124C168.431 194.727 168.811 194.41 169.332 194.172C169.865 193.934 170.579 193.815 171.474 193.815H174.33V194.988H171.542C170.726 194.988 170.176 195.124 169.893 195.396C169.61 195.668 169.468 195.997 169.468 196.382C169.468 196.824 169.644 197.181 169.995 197.453C170.346 197.714 170.834 197.844 171.457 197.844C172.069 197.844 172.602 197.708 173.055 197.436C173.52 197.164 173.854 196.767 174.058 196.246L174.381 197.368C174.166 197.901 173.786 198.326 173.242 198.643C172.698 198.949 172.012 199.102 171.185 199.102ZM182.794 199.136C182.046 199.136 181.383 199.017 180.805 198.779C180.238 198.541 179.751 198.19 179.343 197.725C178.935 197.249 178.623 196.654 178.408 195.94C178.204 195.215 178.102 194.365 178.102 193.39C178.102 192.619 178.17 191.928 178.306 191.316C178.442 190.704 178.635 190.16 178.884 189.684C179.145 189.208 179.462 188.794 179.836 188.443C180.221 188.092 180.652 187.803 181.128 187.576C181.615 187.338 182.148 187.157 182.726 187.032L186.84 186.114L187.078 187.627L183.287 188.443C183.06 188.488 182.788 188.556 182.471 188.647C182.154 188.738 181.831 188.879 181.502 189.072C181.173 189.253 180.867 189.508 180.584 189.837C180.301 190.166 180.074 190.596 179.904 191.129C179.734 191.65 179.649 192.296 179.649 193.067C179.649 193.282 179.655 193.447 179.666 193.56C179.677 193.673 179.689 193.787 179.7 193.9C179.723 194.013 179.74 194.183 179.751 194.41L179.071 193.713C179.252 193.09 179.541 192.546 179.938 192.081C180.335 191.616 180.811 191.259 181.366 191.01C181.933 190.749 182.55 190.619 183.219 190.619C184.058 190.619 184.8 190.8 185.446 191.163C186.103 191.526 186.619 192.024 186.993 192.659C187.367 193.294 187.554 194.019 187.554 194.835C187.554 195.662 187.356 196.405 186.959 197.062C186.574 197.708 186.024 198.218 185.31 198.592C184.596 198.955 183.757 199.136 182.794 199.136ZM182.947 197.776C183.525 197.776 184.035 197.651 184.477 197.402C184.919 197.141 185.265 196.796 185.514 196.365C185.763 195.923 185.888 195.43 185.888 194.886C185.888 194.342 185.763 193.86 185.514 193.441C185.265 193.022 184.919 192.693 184.477 192.455C184.035 192.206 183.514 192.081 182.913 192.081C182.346 192.081 181.836 192.2 181.383 192.438C180.93 192.665 180.578 192.988 180.329 193.407C180.08 193.815 179.955 194.291 179.955 194.835C179.955 195.379 180.08 195.878 180.329 196.331C180.59 196.773 180.941 197.124 181.383 197.385C181.836 197.646 182.358 197.776 182.947 197.776ZM188.322 198.983L188.424 197.606C188.504 197.617 188.577 197.629 188.645 197.64C188.713 197.651 188.776 197.657 188.832 197.657C189.195 197.657 189.478 197.532 189.682 197.283C189.898 197.034 190.056 196.705 190.158 196.297C190.26 195.878 190.334 195.407 190.379 194.886C190.425 194.365 190.459 193.843 190.481 193.322L190.634 189.99H197.553V199H195.921V190.942L196.312 191.418H191.688L192.062 190.925L191.943 193.424C191.909 194.217 191.847 194.96 191.756 195.651C191.666 196.342 191.524 196.949 191.331 197.47C191.15 197.991 190.895 198.399 190.566 198.694C190.249 198.989 189.835 199.136 189.325 199.136C189.178 199.136 189.019 199.119 188.849 199.085C188.691 199.062 188.515 199.028 188.322 198.983ZM200.709 199V189.99H202.341V196.552L207.866 189.99H209.345V199H207.713V192.438L202.205 199H200.709ZM218.191 195.311C217.715 195.538 217.222 195.719 216.712 195.855C216.213 195.98 215.697 196.042 215.165 196.042C214.077 196.042 213.215 195.787 212.581 195.277C211.957 194.767 211.646 193.979 211.646 192.914V189.99H213.278V192.812C213.278 193.458 213.476 193.934 213.873 194.24C214.281 194.546 214.825 194.699 215.505 194.699C215.935 194.699 216.377 194.642 216.831 194.529C217.295 194.416 217.749 194.257 218.191 194.053V195.311ZM218.072 199V189.99H219.704V199H218.072ZM226.884 199.102C225.921 199.102 225.071 198.904 224.334 198.507C223.609 198.11 223.042 197.566 222.634 196.875C222.237 196.184 222.039 195.39 222.039 194.495C222.039 193.6 222.232 192.806 222.617 192.115C223.014 191.424 223.552 190.885 224.232 190.5C224.923 190.103 225.7 189.905 226.561 189.905C227.434 189.905 228.204 190.098 228.873 190.483C229.542 190.868 230.063 191.412 230.437 192.115C230.822 192.806 231.015 193.617 231.015 194.546C231.015 194.614 231.009 194.693 230.998 194.784C230.998 194.875 230.992 194.96 230.981 195.039H223.314V193.866H230.131L229.468 194.274C229.479 193.696 229.36 193.18 229.111 192.727C228.862 192.274 228.516 191.922 228.074 191.673C227.643 191.412 227.139 191.282 226.561 191.282C225.994 191.282 225.49 191.412 225.048 191.673C224.606 191.922 224.26 192.279 224.011 192.744C223.762 193.197 223.637 193.719 223.637 194.308V194.58C223.637 195.181 223.773 195.719 224.045 196.195C224.328 196.66 224.719 197.022 225.218 197.283C225.717 197.544 226.289 197.674 226.935 197.674C227.468 197.674 227.949 197.583 228.38 197.402C228.822 197.221 229.207 196.949 229.536 196.586L230.437 197.64C230.029 198.116 229.519 198.479 228.907 198.728C228.306 198.977 227.632 199.102 226.884 199.102ZM240.075 199L236.59 194.614L237.933 193.798L241.996 199H240.075ZM233.547 199V189.99H235.179V199H233.547ZM234.686 195.192V193.798H237.661V195.192H234.686ZM238.069 194.682L236.556 194.478L240.007 189.99H241.758L238.069 194.682ZM16.581 220V210.99H24.928V220H23.296V212.01L23.687 212.418H17.822L18.213 212.01V220H16.581ZM32.8629 220.102C32.1149 220.102 31.4292 219.932 30.8059 219.592C30.1939 219.241 29.7009 218.725 29.3269 218.045C28.9642 217.365 28.7829 216.515 28.7829 215.495C28.7829 214.475 28.9585 213.625 29.3099 212.945C29.6725 212.265 30.1599 211.755 30.7719 211.415C31.3952 211.075 32.0922 210.905 32.8629 210.905C33.7469 210.905 34.5289 211.098 35.2089 211.483C35.8889 211.868 36.4272 212.407 36.8239 213.098C37.2206 213.778 37.4189 214.577 37.4189 215.495C37.4189 216.413 37.2206 217.218 36.8239 217.909C36.4272 218.6 35.8889 219.139 35.2089 219.524C34.5289 219.909 33.7469 220.102 32.8629 220.102ZM28.0859 223.298V210.99H29.6499V213.421L29.5479 215.512L29.7179 217.603V223.298H28.0859ZM32.7269 218.674C33.3049 218.674 33.8205 218.544 34.2739 218.283C34.7385 218.022 35.1012 217.654 35.3619 217.178C35.6339 216.691 35.7699 216.13 35.7699 215.495C35.7699 214.849 35.6339 214.294 35.3619 213.829C35.1012 213.353 34.7385 212.985 34.2739 212.724C33.8205 212.463 33.3049 212.333 32.7269 212.333C32.1602 212.333 31.6445 212.463 31.1799 212.724C30.7265 212.985 30.3639 213.353 30.0919 213.829C29.8312 214.294 29.7009 214.849 29.7009 215.495C29.7009 216.13 29.8312 216.691 30.0919 217.178C30.3639 217.654 30.7265 218.022 31.1799 218.283C31.6445 218.544 32.1602 218.674 32.7269 218.674ZM43.649 220.102C42.7423 220.102 41.9377 219.904 41.235 219.507C40.5323 219.11 39.977 218.566 39.569 217.875C39.161 217.172 38.957 216.379 38.957 215.495C38.957 214.6 39.161 213.806 39.569 213.115C39.977 212.424 40.5323 211.885 41.235 211.5C41.9377 211.103 42.7423 210.905 43.649 210.905C44.5443 210.905 45.3433 211.103 46.046 211.5C46.76 211.885 47.3153 212.424 47.712 213.115C48.12 213.795 48.324 214.588 48.324 215.495C48.324 216.39 48.12 217.184 47.712 217.875C47.3153 218.566 46.76 219.11 46.046 219.507C45.3433 219.904 44.5443 220.102 43.649 220.102ZM43.649 218.674C44.227 218.674 44.7427 218.544 45.196 218.283C45.6607 218.022 46.0233 217.654 46.284 217.178C46.5447 216.691 46.675 216.13 46.675 215.495C46.675 214.849 46.5447 214.294 46.284 213.829C46.0233 213.353 45.6607 212.985 45.196 212.724C44.7427 212.463 44.227 212.333 43.649 212.333C43.071 212.333 42.5553 212.463 42.102 212.724C41.6487 212.985 41.286 213.353 41.014 213.829C40.742 214.294 40.606 214.849 40.606 215.495C40.606 216.13 40.742 216.691 41.014 217.178C41.286 217.654 41.6487 218.022 42.102 218.283C42.5553 218.544 43.071 218.674 43.649 218.674ZM50.6806 220V210.99H54.8626C55.9166 210.99 56.7439 211.194 57.3446 211.602C57.9566 211.999 58.2626 212.565 58.2626 213.302C58.2626 214.039 57.9736 214.611 57.3956 215.019C56.8289 215.416 56.0753 215.614 55.1346 215.614L55.3896 215.172C56.4663 215.172 57.2653 215.37 57.7866 215.767C58.3079 216.164 58.5686 216.747 58.5686 217.518C58.5686 218.3 58.2739 218.912 57.6846 219.354C57.1066 219.785 56.2169 220 55.0156 220H50.6806ZM52.2786 218.742H54.8966C55.5766 218.742 56.0866 218.64 56.4266 218.436C56.7666 218.221 56.9366 217.881 56.9366 217.416C56.9366 216.94 56.7779 216.594 56.4606 216.379C56.1546 216.152 55.6673 216.039 54.9986 216.039H52.2786V218.742ZM52.2786 214.866H54.7266C55.3499 214.866 55.8203 214.753 56.1376 214.526C56.4663 214.288 56.6306 213.959 56.6306 213.54C56.6306 213.109 56.4663 212.786 56.1376 212.571C55.8203 212.356 55.3499 212.248 54.7266 212.248H52.2786V214.866ZM65.135 220.102C64.1717 220.102 63.3217 219.904 62.585 219.507C61.8597 219.11 61.293 218.566 60.885 217.875C60.4883 217.184 60.29 216.39 60.29 215.495C60.29 214.6 60.4827 213.806 60.868 213.115C61.2647 212.424 61.803 211.885 62.483 211.5C63.1743 211.103 63.9507 210.905 64.812 210.905C65.6847 210.905 66.4553 211.098 67.124 211.483C67.7927 211.868 68.314 212.412 68.688 213.115C69.0733 213.806 69.266 214.617 69.266 215.546C69.266 215.614 69.2603 215.693 69.249 215.784C69.249 215.875 69.2433 215.96 69.232 216.039H61.565V214.866H68.382L67.719 215.274C67.7303 214.696 67.6113 214.18 67.362 213.727C67.1127 213.274 66.767 212.922 66.325 212.673C65.8943 212.412 65.39 212.282 64.812 212.282C64.2453 212.282 63.741 212.412 63.299 212.673C62.857 212.922 62.5113 213.279 62.262 213.744C62.0127 214.197 61.888 214.719 61.888 215.308V215.58C61.888 216.181 62.024 216.719 62.296 217.195C62.5793 217.66 62.9703 218.022 63.469 218.283C63.9677 218.544 64.54 218.674 65.186 218.674C65.7187 218.674 66.2003 218.583 66.631 218.402C67.073 218.221 67.4583 217.949 67.787 217.586L68.688 218.64C68.28 219.116 67.77 219.479 67.158 219.728C66.5573 219.977 65.883 220.102 65.135 220.102ZM76.5748 220.102C75.8268 220.102 75.1411 219.932 74.5178 219.592C73.9058 219.241 73.4128 218.725 73.0388 218.045C72.6761 217.365 72.4948 216.515 72.4948 215.495C72.4948 214.475 72.6705 213.625 73.0218 212.945C73.3845 212.265 73.8718 211.755 74.4838 211.415C75.1071 211.075 75.8041 210.905 76.5748 210.905C77.4588 210.905 78.2408 211.098 78.9208 211.483C79.6008 211.868 80.1391 212.407 80.5358 213.098C80.9325 213.778 81.1308 214.577 81.1308 215.495C81.1308 216.413 80.9325 217.218 80.5358 217.909C80.1391 218.6 79.6008 219.139 78.9208 219.524C78.2408 219.909 77.4588 220.102 76.5748 220.102ZM71.7978 223.298V210.99H73.3618V213.421L73.2598 215.512L73.4298 217.603V223.298H71.7978ZM76.4388 218.674C77.0168 218.674 77.5325 218.544 77.9858 218.283C78.4505 218.022 78.8131 217.654 79.0738 217.178C79.3458 216.691 79.4818 216.13 79.4818 215.495C79.4818 214.849 79.3458 214.294 79.0738 213.829C78.8131 213.353 78.4505 212.985 77.9858 212.724C77.5325 212.463 77.0168 212.333 76.4388 212.333C75.8721 212.333 75.3565 212.463 74.8918 212.724C74.4385 212.985 74.0758 213.353 73.8038 213.829C73.5431 214.294 73.4128 214.849 73.4128 215.495C73.4128 216.13 73.5431 216.691 73.8038 217.178C74.0758 217.654 74.4385 218.022 74.8918 218.283C75.3565 218.544 75.8721 218.674 76.4388 218.674ZM90.0299 220L86.5449 215.614L87.8879 214.798L91.9509 220H90.0299ZM83.5019 220V210.99H85.1339V220H83.5019ZM84.6409 216.192V214.798H87.6159V216.192H84.6409ZM88.0239 215.682L86.5109 215.478L89.9619 210.99H91.7129L88.0239 215.682ZM99.021 220V218.096L98.936 217.739V214.492C98.936 213.801 98.732 213.268 98.324 212.894C97.9274 212.509 97.3267 212.316 96.522 212.316C95.9894 212.316 95.468 212.407 94.958 212.588C94.448 212.758 94.0174 212.99 93.666 213.285L92.986 212.061C93.4507 211.687 94.006 211.404 94.652 211.211C95.3094 211.007 95.995 210.905 96.709 210.905C97.9444 210.905 98.8964 211.205 99.565 211.806C100.234 212.407 100.568 213.325 100.568 214.56V220H99.021ZM96.063 220.102C95.3944 220.102 94.805 219.989 94.295 219.762C93.7964 219.535 93.411 219.224 93.139 218.827C92.867 218.419 92.731 217.96 92.731 217.45C92.731 216.963 92.8444 216.521 93.071 216.124C93.309 215.727 93.6887 215.41 94.21 215.172C94.7427 214.934 95.4567 214.815 96.352 214.815H99.208V215.988H96.42C95.604 215.988 95.0544 216.124 94.771 216.396C94.4877 216.668 94.346 216.997 94.346 217.382C94.346 217.824 94.5217 218.181 94.873 218.453C95.2244 218.714 95.7117 218.844 96.335 218.844C96.947 218.844 97.4797 218.708 97.933 218.436C98.3977 218.164 98.732 217.767 98.936 217.246L99.259 218.368C99.0437 218.901 98.664 219.326 98.12 219.643C97.576 219.949 96.8904 220.102 96.063 220.102ZM108.072 220V210.99H109.704V214.815H114.838V210.99H116.47V220H114.838V216.226H109.704V220H108.072ZM123.503 220.102C122.596 220.102 121.791 219.904 121.089 219.507C120.386 219.11 119.831 218.566 119.423 217.875C119.015 217.172 118.811 216.379 118.811 215.495C118.811 214.6 119.015 213.806 119.423 213.115C119.831 212.424 120.386 211.885 121.089 211.5C121.791 211.103 122.596 210.905 123.503 210.905C124.398 210.905 125.197 211.103 125.9 211.5C126.614 211.885 127.169 212.424 127.566 213.115C127.974 213.795 128.178 214.588 128.178 215.495C128.178 216.39 127.974 217.184 127.566 217.875C127.169 218.566 126.614 219.11 125.9 219.507C125.197 219.904 124.398 220.102 123.503 220.102ZM123.503 218.674C124.081 218.674 124.596 218.544 125.05 218.283C125.514 218.022 125.877 217.654 126.138 217.178C126.398 216.691 126.529 216.13 126.529 215.495C126.529 214.849 126.398 214.294 126.138 213.829C125.877 213.353 125.514 212.985 125.05 212.724C124.596 212.463 124.081 212.333 123.503 212.333C122.925 212.333 122.409 212.463 121.956 212.724C121.502 212.985 121.14 213.353 120.868 213.829C120.596 214.294 120.46 214.849 120.46 215.495C120.46 216.13 120.596 216.691 120.868 217.178C121.14 217.654 121.502 218.022 121.956 218.283C122.409 218.544 122.925 218.674 123.503 218.674ZM130.534 220V210.99H132.217L136.093 217.654H135.413L139.391 210.99H140.921V220H139.442V212.826L139.714 212.979L136.076 218.98H135.362L131.707 212.86L132.03 212.792V220H130.534ZM148.11 220.102C147.146 220.102 146.296 219.904 145.56 219.507C144.834 219.11 144.268 218.566 143.86 217.875C143.463 217.184 143.265 216.39 143.265 215.495C143.265 214.6 143.457 213.806 143.843 213.115C144.239 212.424 144.778 211.885 145.458 211.5C146.149 211.103 146.925 210.905 147.787 210.905C148.659 210.905 149.43 211.098 150.099 211.483C150.767 211.868 151.289 212.412 151.663 213.115C152.048 213.806 152.241 214.617 152.241 215.546C152.241 215.614 152.235 215.693 152.224 215.784C152.224 215.875 152.218 215.96 152.207 216.039H144.54V214.866H151.357L150.694 215.274C150.705 214.696 150.586 214.18 150.337 213.727C150.087 213.274 149.742 212.922 149.3 212.673C148.869 212.412 148.365 212.282 147.787 212.282C147.22 212.282 146.716 212.412 146.274 212.673C145.832 212.922 145.486 213.279 145.237 213.744C144.987 214.197 144.863 214.719 144.863 215.308V215.58C144.863 216.181 144.999 216.719 145.271 217.195C145.554 217.66 145.945 218.022 146.444 218.283C146.942 218.544 147.515 218.674 148.161 218.674C148.693 218.674 149.175 218.583 149.606 218.402C150.048 218.221 150.433 217.949 150.762 217.586L151.663 218.64C151.255 219.116 150.745 219.479 150.133 219.728C149.532 219.977 148.858 220.102 148.11 220.102ZM159.549 220.102C158.801 220.102 158.116 219.932 157.492 219.592C156.88 219.241 156.387 218.725 156.013 218.045C155.651 217.365 155.469 216.515 155.469 215.495C155.469 214.475 155.645 213.625 155.996 212.945C156.359 212.265 156.846 211.755 157.458 211.415C158.082 211.075 158.779 210.905 159.549 210.905C160.433 210.905 161.215 211.098 161.895 211.483C162.575 211.868 163.114 212.407 163.51 213.098C163.907 213.778 164.105 214.577 164.105 215.495C164.105 216.413 163.907 217.218 163.51 217.909C163.114 218.6 162.575 219.139 161.895 219.524C161.215 219.909 160.433 220.102 159.549 220.102ZM154.772 223.298V210.99H156.336V213.421L156.234 215.512L156.404 217.603V223.298H154.772ZM159.413 218.674C159.991 218.674 160.507 218.544 160.96 218.283C161.425 218.022 161.788 217.654 162.048 217.178C162.32 216.691 162.456 216.13 162.456 215.495C162.456 214.849 162.32 214.294 162.048 213.829C161.788 213.353 161.425 212.985 160.96 212.724C160.507 212.463 159.991 212.333 159.413 212.333C158.847 212.333 158.331 212.463 157.866 212.724C157.413 212.985 157.05 213.353 156.778 213.829C156.518 214.294 156.387 214.849 156.387 215.495C156.387 216.13 156.518 216.691 156.778 217.178C157.05 217.654 157.413 218.022 157.866 218.283C158.331 218.544 158.847 218.674 159.413 218.674ZM171.919 220V218.096L171.834 217.739V214.492C171.834 213.801 171.63 213.268 171.222 212.894C170.825 212.509 170.224 212.316 169.42 212.316C168.887 212.316 168.366 212.407 167.856 212.588C167.346 212.758 166.915 212.99 166.564 213.285L165.884 212.061C166.348 211.687 166.904 211.404 167.55 211.211C168.207 211.007 168.893 210.905 169.607 210.905C170.842 210.905 171.794 211.205 172.463 211.806C173.131 212.407 173.466 213.325 173.466 214.56V220H171.919ZM168.961 220.102C168.292 220.102 167.703 219.989 167.193 219.762C166.694 219.535 166.309 219.224 166.037 218.827C165.765 218.419 165.629 217.96 165.629 217.45C165.629 216.963 165.742 216.521 165.969 216.124C166.207 215.727 166.586 215.41 167.108 215.172C167.64 214.934 168.354 214.815 169.25 214.815H172.106V215.988H169.318C168.502 215.988 167.952 216.124 167.669 216.396C167.385 216.668 167.244 216.997 167.244 217.382C167.244 217.824 167.419 218.181 167.771 218.453C168.122 218.714 168.609 218.844 169.233 218.844C169.845 218.844 170.377 218.708 170.831 218.436C171.295 218.164 171.63 217.767 171.834 217.246L172.157 218.368C171.941 218.901 171.562 219.326 171.018 219.643C170.474 219.949 169.788 220.102 168.961 220.102ZM185.747 220.102C184.999 220.102 184.313 219.932 183.69 219.592C183.078 219.241 182.585 218.725 182.211 218.045C181.848 217.365 181.667 216.515 181.667 215.495C181.667 214.475 181.842 213.625 182.194 212.945C182.556 212.265 183.044 211.755 183.656 211.415C184.279 211.075 184.976 210.905 185.747 210.905C186.631 210.905 187.413 211.098 188.093 211.483C188.773 211.868 189.311 212.407 189.708 213.098C190.104 213.778 190.303 214.577 190.303 215.495C190.303 216.413 190.104 217.218 189.708 217.909C189.311 218.6 188.773 219.139 188.093 219.524C187.413 219.909 186.631 220.102 185.747 220.102ZM180.97 223.298V210.99H182.534V213.421L182.432 215.512L182.602 217.603V223.298H180.97ZM185.611 218.674C186.189 218.674 186.704 218.544 187.158 218.283C187.622 218.022 187.985 217.654 188.246 217.178C188.518 216.691 188.654 216.13 188.654 215.495C188.654 214.849 188.518 214.294 188.246 213.829C187.985 213.353 187.622 212.985 187.158 212.724C186.704 212.463 186.189 212.333 185.611 212.333C185.044 212.333 184.528 212.463 184.064 212.724C183.61 212.985 183.248 213.353 182.976 213.829C182.715 214.294 182.585 214.849 182.585 215.495C182.585 216.13 182.715 216.691 182.976 217.178C183.248 217.654 183.61 218.022 184.064 218.283C184.528 218.544 185.044 218.674 185.611 218.674ZM198.116 220V218.096L198.031 217.739V214.492C198.031 213.801 197.827 213.268 197.419 212.894C197.022 212.509 196.421 212.316 195.617 212.316C195.084 212.316 194.563 212.407 194.053 212.588C193.543 212.758 193.112 212.99 192.761 213.285L192.081 212.061C192.545 211.687 193.101 211.404 193.747 211.211C194.404 211.007 195.09 210.905 195.804 210.905C197.039 210.905 197.991 211.205 198.66 211.806C199.328 212.407 199.663 213.325 199.663 214.56V220H198.116ZM195.158 220.102C194.489 220.102 193.9 219.989 193.39 219.762C192.891 219.535 192.506 219.224 192.234 218.827C191.962 218.419 191.826 217.96 191.826 217.45C191.826 216.963 191.939 216.521 192.166 216.124C192.404 215.727 192.783 215.41 193.305 215.172C193.837 214.934 194.551 214.815 195.447 214.815H198.303V215.988H195.515C194.699 215.988 194.149 216.124 193.866 216.396C193.582 216.668 193.441 216.997 193.441 217.382C193.441 217.824 193.616 218.181 193.968 218.453C194.319 218.714 194.806 218.844 195.43 218.844C196.042 218.844 196.574 218.708 197.028 218.436C197.492 218.164 197.827 217.767 198.031 217.246L198.354 218.368C198.138 218.901 197.759 219.326 197.215 219.643C196.671 219.949 195.985 220.102 195.158 220.102ZM202.602 220V210.99H204.285L208.161 217.654H207.481L211.459 210.99H212.989V220H211.51V212.826L211.782 212.979L208.144 218.98H207.43L203.775 212.86L204.098 212.792V220H202.602ZM225.073 220V210.99H226.705V220H225.073ZM220.228 214.05C221.373 214.061 222.24 214.322 222.829 214.832C223.43 215.342 223.73 216.062 223.73 216.991C223.73 217.966 223.401 218.719 222.744 219.252C222.098 219.773 221.169 220.028 219.956 220.017L216.165 220V210.99H217.797V214.033L220.228 214.05ZM219.837 218.776C220.562 218.787 221.118 218.64 221.503 218.334C221.888 218.028 222.081 217.575 222.081 216.974C222.081 216.385 221.888 215.954 221.503 215.682C221.129 215.41 220.574 215.268 219.837 215.257L217.797 215.223V218.759L219.837 218.776ZM18.638 244.298C17.992 243.267 17.4933 242.077 17.142 240.728C16.7907 239.368 16.615 237.906 16.615 236.342C16.615 234.778 16.7907 233.316 17.142 231.956C17.4933 230.585 17.992 229.395 18.638 228.386H20.185C19.505 229.587 19.0063 230.845 18.689 232.16C18.3717 233.463 18.213 234.857 18.213 236.342C18.213 237.827 18.3717 239.226 18.689 240.541C19.0063 241.844 19.505 243.097 20.185 244.298H18.638ZM22.3085 241V231.99H26.4905C27.5445 231.99 28.3719 232.194 28.9725 232.602C29.5845 232.999 29.8905 233.565 29.8905 234.302C29.8905 235.039 29.6015 235.611 29.0235 236.019C28.4569 236.416 27.7032 236.614 26.7625 236.614L27.0175 236.172C28.0942 236.172 28.8932 236.37 29.4145 236.767C29.9359 237.164 30.1965 237.747 30.1965 238.518C30.1965 239.3 29.9019 239.912 29.3125 240.354C28.7345 240.785 27.8449 241 26.6435 241H22.3085ZM23.9065 239.742H26.5245C27.2045 239.742 27.7145 239.64 28.0545 239.436C28.3945 239.221 28.5645 238.881 28.5645 238.416C28.5645 237.94 28.4059 237.594 28.0885 237.379C27.7825 237.152 27.2952 237.039 26.6265 237.039H23.9065V239.742ZM23.9065 235.866H26.3545C26.9779 235.866 27.4482 235.753 27.7655 235.526C28.0942 235.288 28.2585 234.959 28.2585 234.54C28.2585 234.109 28.0942 233.786 27.7655 233.571C27.4482 233.356 26.9779 233.248 26.3545 233.248H23.9065V235.866ZM32.7509 241V231.99H34.3829V235.815H39.5169V231.99H41.1489V241H39.5169V237.226H34.3829V241H32.7509ZM48.3342 241.102C47.3709 241.102 46.5209 240.904 45.7842 240.507C45.0589 240.11 44.4922 239.566 44.0842 238.875C43.6875 238.184 43.4892 237.39 43.4892 236.495C43.4892 235.6 43.6819 234.806 44.0672 234.115C44.4639 233.424 45.0022 232.885 45.6822 232.5C46.3735 232.103 47.1499 231.905 48.0112 231.905C48.8839 231.905 49.6545 232.098 50.3232 232.483C50.9919 232.868 51.5132 233.412 51.8872 234.115C52.2725 234.806 52.4652 235.617 52.4652 236.546C52.4652 236.614 52.4595 236.693 52.4482 236.784C52.4482 236.875 52.4425 236.96 52.4312 237.039H44.7642V235.866H51.5812L50.9182 236.274C50.9295 235.696 50.8105 235.18 50.5612 234.727C50.3119 234.274 49.9662 233.922 49.5242 233.673C49.0935 233.412 48.5892 233.282 48.0112 233.282C47.4445 233.282 46.9402 233.412 46.4982 233.673C46.0562 233.922 45.7105 234.279 45.4612 234.744C45.2119 235.197 45.0872 235.719 45.0872 236.308V236.58C45.0872 237.181 45.2232 237.719 45.4952 238.195C45.7785 238.66 46.1695 239.022 46.6682 239.283C47.1669 239.544 47.7392 239.674 48.3852 239.674C48.9179 239.674 49.3995 239.583 49.8302 239.402C50.2722 239.221 50.6575 238.949 50.9862 238.586L51.8872 239.64C51.4792 240.116 50.9692 240.479 50.3572 240.728C49.7565 240.977 49.0822 241.102 48.3342 241.102ZM61.0016 240.235V233.418H57.0916L57.0066 235.152C56.9839 235.719 56.9443 236.268 56.8876 236.801C56.8423 237.322 56.7629 237.804 56.6496 238.246C56.5476 238.688 56.3946 239.051 56.1906 239.334C55.9866 239.617 55.7146 239.793 55.3746 239.861L53.7596 239.572C54.1109 239.583 54.3943 239.47 54.6096 239.232C54.8249 238.983 54.9893 238.643 55.1026 238.212C55.2273 237.781 55.3179 237.294 55.3746 236.75C55.4313 236.195 55.4766 235.622 55.5106 235.033L55.6466 231.99H62.6336V240.235H61.0016ZM53.4026 243.091V239.572H64.0106V243.091H62.4806V241H54.9496V243.091H53.4026ZM69.9957 241.102C69.089 241.102 68.2843 240.904 67.5817 240.507C66.879 240.11 66.3237 239.566 65.9157 238.875C65.5077 238.172 65.3037 237.379 65.3037 236.495C65.3037 235.6 65.5077 234.806 65.9157 234.115C66.3237 233.424 66.879 232.885 67.5817 232.5C68.2843 232.103 69.089 231.905 69.9957 231.905C70.891 231.905 71.69 232.103 72.3927 232.5C73.1067 232.885 73.662 233.424 74.0587 234.115C74.4667 234.795 74.6707 235.588 74.6707 236.495C74.6707 237.39 74.4667 238.184 74.0587 238.875C73.662 239.566 73.1067 240.11 72.3927 240.507C71.69 240.904 70.891 241.102 69.9957 241.102ZM69.9957 239.674C70.5737 239.674 71.0893 239.544 71.5427 239.283C72.0073 239.022 72.37 238.654 72.6307 238.178C72.8913 237.691 73.0217 237.13 73.0217 236.495C73.0217 235.849 72.8913 235.294 72.6307 234.829C72.37 234.353 72.0073 233.985 71.5427 233.724C71.0893 233.463 70.5737 233.333 69.9957 233.333C69.4177 233.333 68.902 233.463 68.4487 233.724C67.9953 233.985 67.6327 234.353 67.3607 234.829C67.0887 235.294 66.9527 235.849 66.9527 236.495C66.9527 237.13 67.0887 237.691 67.3607 238.178C67.6327 238.654 67.9953 239.022 68.4487 239.283C68.902 239.544 69.4177 239.674 69.9957 239.674ZM81.8043 241.102C81.0563 241.102 80.3706 240.932 79.7473 240.592C79.1353 240.241 78.6423 239.725 78.2683 239.045C77.9056 238.365 77.7243 237.515 77.7243 236.495C77.7243 235.475 77.9 234.625 78.2513 233.945C78.614 233.265 79.1013 232.755 79.7133 232.415C80.3366 232.075 81.0336 231.905 81.8043 231.905C82.6883 231.905 83.4703 232.098 84.1503 232.483C84.8303 232.868 85.3686 233.407 85.7653 234.098C86.162 234.778 86.3603 235.577 86.3603 236.495C86.3603 237.413 86.162 238.218 85.7653 238.909C85.3686 239.6 84.8303 240.139 84.1503 240.524C83.4703 240.909 82.6883 241.102 81.8043 241.102ZM77.0273 244.298V231.99H78.5913V234.421L78.4893 236.512L78.6593 238.603V244.298H77.0273ZM81.6683 239.674C82.2463 239.674 82.762 239.544 83.2153 239.283C83.68 239.022 84.0426 238.654 84.3033 238.178C84.5753 237.691 84.7113 237.13 84.7113 236.495C84.7113 235.849 84.5753 235.294 84.3033 234.829C84.0426 234.353 83.68 233.985 83.2153 233.724C82.762 233.463 82.2463 233.333 81.6683 233.333C81.1016 233.333 80.586 233.463 80.1213 233.724C79.668 233.985 79.3053 234.353 79.0333 234.829C78.7726 235.294 78.6423 235.849 78.6423 236.495C78.6423 237.13 78.7726 237.691 79.0333 238.178C79.3053 238.654 79.668 239.022 80.1213 239.283C80.586 239.544 81.1016 239.674 81.6683 239.674ZM92.5904 241.102C91.6837 241.102 90.8791 240.904 90.1764 240.507C89.4737 240.11 88.9184 239.566 88.5104 238.875C88.1024 238.172 87.8984 237.379 87.8984 236.495C87.8984 235.6 88.1024 234.806 88.5104 234.115C88.9184 233.424 89.4737 232.885 90.1764 232.5C90.8791 232.103 91.6837 231.905 92.5904 231.905C93.4857 231.905 94.2847 232.103 94.9874 232.5C95.7014 232.885 96.2567 233.424 96.6534 234.115C97.0614 234.795 97.2654 235.588 97.2654 236.495C97.2654 237.39 97.0614 238.184 96.6534 238.875C96.2567 239.566 95.7014 240.11 94.9874 240.507C94.2847 240.904 93.4857 241.102 92.5904 241.102ZM92.5904 239.674C93.1684 239.674 93.6841 239.544 94.1374 239.283C94.6021 239.022 94.9647 238.654 95.2254 238.178C95.4861 237.691 95.6164 237.13 95.6164 236.495C95.6164 235.849 95.4861 235.294 95.2254 234.829C94.9647 234.353 94.6021 233.985 94.1374 233.724C93.6841 233.463 93.1684 233.333 92.5904 233.333C92.0124 233.333 91.4967 233.463 91.0434 233.724C90.5901 233.985 90.2274 234.353 89.9554 234.829C89.6834 235.294 89.5474 235.849 89.5474 236.495C89.5474 237.13 89.6834 237.691 89.9554 238.178C90.2274 238.654 90.5901 239.022 91.0434 239.283C91.4967 239.544 92.0124 239.674 92.5904 239.674ZM110.016 241L107.143 236.614L108.486 235.798L111.954 241H110.016ZM105.273 237.192V235.798H108.197V237.192H105.273ZM108.639 236.682L107.092 236.478L109.965 231.99H111.716L108.639 236.682ZM99.9012 241H97.9632L101.414 235.798L102.757 236.614L99.9012 241ZM105.766 241H104.134V231.99H105.766V241ZM104.627 237.192H101.72V235.798H104.627V237.192ZM101.278 236.682L98.2012 231.99H99.9352L102.808 236.478L101.278 236.682ZM113.75 241V231.99H115.382V235.815H120.516V231.99H122.148V241H120.516V237.226H115.382V241H113.75ZM125.321 241V231.99H126.953V238.552L132.478 231.99H133.957V241H132.325V234.438L126.817 241H125.321ZM143.653 241L140.168 236.614L141.511 235.798L145.574 241H143.653ZM137.125 241V231.99H138.757V241H137.125ZM138.264 237.192V235.798H141.239V237.192H138.264ZM141.647 236.682L140.134 236.478L143.585 231.99H145.336L141.647 236.682ZM147.795 244.298H146.248C146.939 243.097 147.444 241.844 147.761 240.541C148.078 239.226 148.237 237.827 148.237 236.342C148.237 234.857 148.078 233.463 147.761 232.16C147.444 230.845 146.939 229.587 146.248 228.386H147.795C148.464 229.395 148.968 230.585 149.308 231.956C149.659 233.316 149.835 234.778 149.835 236.342C149.835 237.906 149.659 239.368 149.308 240.728C148.968 242.077 148.464 243.267 147.795 244.298Z" fill="#434343"/>
</svg>
