<svg width="300" height="239" viewBox="0 0 300 239" fill="none" xmlns="http://www.w3.org/2000/svg">
<path d="M0 50C0 26.4298 0 14.6447 7.32233 7.32233C14.6447 0 26.4298 0 50 0H258.544C258.796 0 258.922 0 259.016 0.00438307C261.703 0.130288 263.503 2.81976 262.594 5.35171C262.562 5.43986 262.514 5.55661 262.417 5.79013L259.867 11.9672C251.281 32.7641 276.444 51.0542 293.576 36.469C296.107 34.3144 300 36.1129 300 39.4366V189C300 212.57 300 224.355 292.678 231.678C285.355 239 273.57 239 250 239H50C26.4298 239 14.6447 239 7.32233 231.678C0 224.355 0 212.57 0 189V50Z" fill="#F3F5F7"/>
<circle cx="280.5" cy="19.5" r="19.5" fill="#F3F5F7"/>
<path d="M273 20.25H288M288 20.25L281 13M288 20.25L281 27" stroke="#00AAFF" stroke-width="2" stroke-linecap="round" stroke-linejoin="round"/>
<mask id="mask0_221_6" style="mask-type:alpha" maskUnits="userSpaceOnUse" x="0" y="0" width="300" height="236">
<path d="M0 50C0 26.4298 0 14.6447 7.32233 7.32233C14.6447 0 26.4298 0 50 0H256.177C257.384 0 257.987 0 258.392 0.0844582C260.785 0.584321 262.174 3.09608 261.325 5.38925C261.181 5.77671 260.861 6.28786 260.219 7.31016C254.467 16.4731 251.591 21.0546 250.823 23.4514C246.131 38.0884 259.017 52.3268 274.048 49.1145C276.509 48.5885 281.354 46.1825 291.044 41.3706L292.933 40.4326C294.063 39.8713 294.628 39.5907 295.071 39.485C297.232 38.9688 299.399 40.3125 299.898 42.4776C300 42.9208 300 43.5517 300 44.8137V186C300 209.57 300 221.355 292.678 228.678C285.355 236 273.57 236 250 236H50C26.4298 236 14.6447 236 7.32233 228.678C0 221.355 0 209.57 0 186V50Z" fill="#F3F5F7"/>
</mask>
<g mask="url(#mask0_221_6)">
<path d="M0.599979 122.215C-7.98463 122.215 -15.6 120.231 -22.2462 116.262C-28.8 112.292 -33.9692 106.523 -37.7539 98.9538C-41.4462 91.3846 -43.2923 82.2461 -43.2923 71.5384C-43.2923 60.8307 -41.4462 51.6923 -37.7539 44.123C-33.9692 36.5538 -28.8 30.7846 -22.2462 26.8154C-15.6 22.8461 -7.98463 20.8615 0.599979 20.8615C9.1846 20.8615 16.7538 22.8461 23.3077 26.8154C29.9538 30.7846 35.1231 36.5538 38.8154 44.123C42.6 51.6923 44.4923 60.8307 44.4923 71.5384C44.4923 82.2461 42.6 91.3846 38.8154 98.9538C35.1231 106.523 29.9538 112.292 23.3077 116.262C16.7538 120.231 9.1846 122.215 0.599979 122.215ZM0.599979 96.0461C2.72306 96.0461 4.61537 95.3077 6.27691 93.8307C7.93845 92.3538 9.23075 89.8154 10.1538 86.2154C11.1692 82.6154 11.6769 77.723 11.6769 71.5384C11.6769 65.2615 11.1692 60.3692 10.1538 56.8615C9.23075 53.2615 7.93845 50.723 6.27691 49.2461C4.61537 47.7692 2.72306 47.0307 0.599979 47.0307C-1.5231 47.0307 -3.41541 47.7692 -5.07695 49.2461C-6.73848 50.723 -8.07694 53.2615 -9.09232 56.8615C-10.0154 60.3692 -10.4769 65.2615 -10.4769 71.5384C-10.4769 77.723 -10.0154 82.6154 -9.09232 86.2154C-8.07694 89.8154 -6.73848 92.3538 -5.07695 93.8307C-3.41541 95.3077 -1.5231 96.0461 0.599979 96.0461Z" fill="#00AAFF" fill-opacity="0.1"/>
<path d="M51.7453 103.385V82.6154L92.8684 23.0769H126.376L86.7761 82.6154L71.5453 78.0461H146.591V103.385H51.7453ZM102.007 120V103.385L102.976 78.0461V63.2307H133.715V120H102.007Z" fill="#00AAFF" fill-opacity="0.1"/>
</g>
<path d="M22.174 157.136C21.2673 157.136 20.4287 156.989 19.658 156.694C18.8987 156.388 18.2357 155.963 17.669 155.419C17.1137 154.864 16.6773 154.218 16.36 153.481C16.0427 152.744 15.884 151.934 15.884 151.05C15.884 150.166 16.0427 149.356 16.36 148.619C16.6773 147.882 17.1193 147.242 17.686 146.698C18.2527 146.143 18.9157 145.718 19.675 145.423C20.4457 145.117 21.2843 144.964 22.191 144.964C23.109 144.964 23.9533 145.123 24.724 145.44C25.506 145.746 26.169 146.205 26.713 146.817L25.608 147.888C25.1547 147.412 24.6447 147.061 24.078 146.834C23.5113 146.596 22.905 146.477 22.259 146.477C21.5903 146.477 20.967 146.59 20.389 146.817C19.8223 147.044 19.3293 147.361 18.91 147.769C18.4907 148.177 18.162 148.664 17.924 149.231C17.6973 149.786 17.584 150.393 17.584 151.05C17.584 151.707 17.6973 152.319 17.924 152.886C18.162 153.441 18.4907 153.923 18.91 154.331C19.3293 154.739 19.8223 155.056 20.389 155.283C20.967 155.51 21.5903 155.623 22.259 155.623C22.905 155.623 23.5113 155.51 24.078 155.283C24.6447 155.045 25.1547 154.682 25.608 154.195L26.713 155.266C26.169 155.878 25.506 156.343 24.724 156.66C23.9533 156.977 23.1033 157.136 22.174 157.136ZM28.7831 157V147.99H32.9651C34.0191 147.99 34.8465 148.194 35.4471 148.602C36.0591 148.999 36.3651 149.565 36.3651 150.302C36.3651 151.039 36.0761 151.611 35.4981 152.019C34.9315 152.416 34.1778 152.614 33.2371 152.614L33.4921 152.172C34.5688 152.172 35.3678 152.37 35.8891 152.767C36.4105 153.164 36.6711 153.747 36.6711 154.518C36.6711 155.3 36.3765 155.912 35.7871 156.354C35.2091 156.785 34.3195 157 33.1181 157H28.7831ZM30.3811 155.742H32.9991C33.6791 155.742 34.1891 155.64 34.5291 155.436C34.8691 155.221 35.0391 154.881 35.0391 154.416C35.0391 153.94 34.8805 153.594 34.5631 153.379C34.2571 153.152 33.7698 153.039 33.1011 153.039H30.3811V155.742ZM30.3811 151.866H32.8291C33.4525 151.866 33.9228 151.753 34.2401 151.526C34.5688 151.288 34.7331 150.959 34.7331 150.54C34.7331 150.109 34.5688 149.786 34.2401 149.571C33.9228 149.356 33.4525 149.248 32.8291 149.248H30.3811V151.866ZM43.2375 157.102C42.2742 157.102 41.4242 156.904 40.6875 156.507C39.9622 156.11 39.3955 155.566 38.9875 154.875C38.5909 154.184 38.3925 153.39 38.3925 152.495C38.3925 151.6 38.5852 150.806 38.9705 150.115C39.3672 149.424 39.9055 148.885 40.5855 148.5C41.2769 148.103 42.0532 147.905 42.9145 147.905C43.7872 147.905 44.5579 148.098 45.2265 148.483C45.8952 148.868 46.4165 149.412 46.7905 150.115C47.1759 150.806 47.3685 151.617 47.3685 152.546C47.3685 152.614 47.3629 152.693 47.3515 152.784C47.3515 152.875 47.3459 152.96 47.3345 153.039H39.6675V151.866H46.4845L45.8215 152.274C45.8329 151.696 45.7139 151.18 45.4645 150.727C45.2152 150.274 44.8695 149.922 44.4275 149.673C43.9969 149.412 43.4925 149.282 42.9145 149.282C42.3479 149.282 41.8435 149.412 41.4015 149.673C40.9595 149.922 40.6139 150.279 40.3645 150.744C40.1152 151.197 39.9905 151.719 39.9905 152.308V152.58C39.9905 153.181 40.1265 153.719 40.3985 154.195C40.6819 154.66 41.0729 155.022 41.5715 155.283C42.0702 155.544 42.6425 155.674 43.2885 155.674C43.8212 155.674 44.3029 155.583 44.7335 155.402C45.1755 155.221 45.5609 154.949 45.8895 154.586L46.7905 155.64C46.3825 156.116 45.8725 156.479 45.2605 156.728C44.6599 156.977 43.9855 157.102 43.2375 157.102ZM54.6773 157.102C53.9293 157.102 53.2437 156.932 52.6203 156.592C52.0083 156.241 51.5153 155.725 51.1413 155.045C50.7787 154.365 50.5973 153.515 50.5973 152.495C50.5973 151.475 50.773 150.625 51.1243 149.945C51.487 149.265 51.9743 148.755 52.5863 148.415C53.2097 148.075 53.9067 147.905 54.6773 147.905C55.5613 147.905 56.3433 148.098 57.0233 148.483C57.7033 148.868 58.2417 149.407 58.6383 150.098C59.035 150.778 59.2333 151.577 59.2333 152.495C59.2333 153.413 59.035 154.218 58.6383 154.909C58.2417 155.6 57.7033 156.139 57.0233 156.524C56.3433 156.909 55.5613 157.102 54.6773 157.102ZM49.9003 160.298V147.99H51.4643V150.421L51.3623 152.512L51.5323 154.603V160.298H49.9003ZM54.5413 155.674C55.1193 155.674 55.635 155.544 56.0883 155.283C56.553 155.022 56.9157 154.654 57.1763 154.178C57.4483 153.691 57.5843 153.13 57.5843 152.495C57.5843 151.849 57.4483 151.294 57.1763 150.829C56.9157 150.353 56.553 149.985 56.0883 149.724C55.635 149.463 55.1193 149.333 54.5413 149.333C53.9747 149.333 53.459 149.463 52.9943 149.724C52.541 149.985 52.1783 150.353 51.9063 150.829C51.6457 151.294 51.5153 151.849 51.5153 152.495C51.5153 153.13 51.6457 153.691 51.9063 154.178C52.1783 154.654 52.541 155.022 52.9943 155.283C53.459 155.544 53.9747 155.674 54.5413 155.674ZM68.1324 157L64.6474 152.614L65.9904 151.798L70.0534 157H68.1324ZM61.6044 157V147.99H63.2364V157H61.6044ZM62.7434 153.192V151.798H65.7184V153.192H62.7434ZM66.1264 152.682L64.6134 152.478L68.0644 147.99H69.8154L66.1264 152.682ZM77.1236 157V155.096L77.0386 154.739V151.492C77.0386 150.801 76.8346 150.268 76.4266 149.894C76.0299 149.509 75.4292 149.316 74.6246 149.316C74.0919 149.316 73.5706 149.407 73.0606 149.588C72.5506 149.758 72.1199 149.99 71.7686 150.285L71.0886 149.061C71.5532 148.687 72.1086 148.404 72.7546 148.211C73.4119 148.007 74.0976 147.905 74.8116 147.905C76.0469 147.905 76.9989 148.205 77.6676 148.806C78.3362 149.407 78.6706 150.325 78.6706 151.56V157H77.1236ZM74.1656 157.102C73.4969 157.102 72.9076 156.989 72.3976 156.762C71.8989 156.535 71.5136 156.224 71.2416 155.827C70.9696 155.419 70.8336 154.96 70.8336 154.45C70.8336 153.963 70.9469 153.521 71.1736 153.124C71.4116 152.727 71.7912 152.41 72.3126 152.172C72.8452 151.934 73.5592 151.815 74.4546 151.815H77.3106V152.988H74.5226C73.7066 152.988 73.1569 153.124 72.8736 153.396C72.5902 153.668 72.4486 153.997 72.4486 154.382C72.4486 154.824 72.6242 155.181 72.9756 155.453C73.3269 155.714 73.8142 155.844 74.4376 155.844C75.0496 155.844 75.5822 155.708 76.0356 155.436C76.5002 155.164 76.8346 154.767 77.0386 154.246L77.3616 155.368C77.1462 155.901 76.7666 156.326 76.2226 156.643C75.6786 156.949 74.9929 157.102 74.1656 157.102ZM86.1748 157V147.99H87.8068V151.815H92.9408V147.99H94.5728V157H92.9408V153.226H87.8068V157H86.1748ZM101.605 157.102C100.698 157.102 99.8937 156.904 99.191 156.507C98.4884 156.11 97.933 155.566 97.525 154.875C97.117 154.172 96.913 153.379 96.913 152.495C96.913 151.6 97.117 150.806 97.525 150.115C97.933 149.424 98.4884 148.885 99.191 148.5C99.8937 148.103 100.698 147.905 101.605 147.905C102.5 147.905 103.299 148.103 104.002 148.5C104.716 148.885 105.271 149.424 105.668 150.115C106.076 150.795 106.28 151.588 106.28 152.495C106.28 153.39 106.076 154.184 105.668 154.875C105.271 155.566 104.716 156.11 104.002 156.507C103.299 156.904 102.5 157.102 101.605 157.102ZM101.605 155.674C102.183 155.674 102.699 155.544 103.152 155.283C103.617 155.022 103.979 154.654 104.24 154.178C104.501 153.691 104.631 153.13 104.631 152.495C104.631 151.849 104.501 151.294 104.24 150.829C103.979 150.353 103.617 149.985 103.152 149.724C102.699 149.463 102.183 149.333 101.605 149.333C101.027 149.333 100.511 149.463 100.058 149.724C99.6047 149.985 99.242 150.353 98.97 150.829C98.698 151.294 98.562 151.849 98.562 152.495C98.562 153.13 98.698 153.691 98.97 154.178C99.242 154.654 99.6047 155.022 100.058 155.283C100.511 155.544 101.027 155.674 101.605 155.674ZM108.637 157V147.99H110.32L114.196 154.654H113.516L117.494 147.99H119.024V157H117.545V149.826L117.817 149.979L114.179 155.98H113.465L109.81 149.86L110.133 149.792V157H108.637ZM126.212 157.102C125.249 157.102 124.399 156.904 123.662 156.507C122.937 156.11 122.37 155.566 121.962 154.875C121.565 154.184 121.367 153.39 121.367 152.495C121.367 151.6 121.56 150.806 121.945 150.115C122.342 149.424 122.88 148.885 123.56 148.5C124.251 148.103 125.028 147.905 125.889 147.905C126.762 147.905 127.532 148.098 128.201 148.483C128.87 148.868 129.391 149.412 129.765 150.115C130.15 150.806 130.343 151.617 130.343 152.546C130.343 152.614 130.337 152.693 130.326 152.784C130.326 152.875 130.32 152.96 130.309 153.039H122.642V151.866H129.459L128.796 152.274C128.807 151.696 128.688 151.18 128.439 150.727C128.19 150.274 127.844 149.922 127.402 149.673C126.971 149.412 126.467 149.282 125.889 149.282C125.322 149.282 124.818 149.412 124.376 149.673C123.934 149.922 123.588 150.279 123.339 150.744C123.09 151.197 122.965 151.719 122.965 152.308V152.58C122.965 153.181 123.101 153.719 123.373 154.195C123.656 154.66 124.047 155.022 124.546 155.283C125.045 155.544 125.617 155.674 126.263 155.674C126.796 155.674 127.277 155.583 127.708 155.402C128.15 155.221 128.535 154.949 128.864 154.586L129.765 155.64C129.357 156.116 128.847 156.479 128.235 156.728C127.634 156.977 126.96 157.102 126.212 157.102ZM137.652 157.102C136.904 157.102 136.218 156.932 135.595 156.592C134.983 156.241 134.49 155.725 134.116 155.045C133.753 154.365 133.572 153.515 133.572 152.495C133.572 151.475 133.748 150.625 134.099 149.945C134.462 149.265 134.949 148.755 135.561 148.415C136.184 148.075 136.881 147.905 137.652 147.905C138.536 147.905 139.318 148.098 139.998 148.483C140.678 148.868 141.216 149.407 141.613 150.098C142.01 150.778 142.208 151.577 142.208 152.495C142.208 153.413 142.01 154.218 141.613 154.909C141.216 155.6 140.678 156.139 139.998 156.524C139.318 156.909 138.536 157.102 137.652 157.102ZM132.875 160.298V147.99H134.439V150.421L134.337 152.512L134.507 154.603V160.298H132.875ZM137.516 155.674C138.094 155.674 138.61 155.544 139.063 155.283C139.528 155.022 139.89 154.654 140.151 154.178C140.423 153.691 140.559 153.13 140.559 152.495C140.559 151.849 140.423 151.294 140.151 150.829C139.89 150.353 139.528 149.985 139.063 149.724C138.61 149.463 138.094 149.333 137.516 149.333C136.949 149.333 136.434 149.463 135.969 149.724C135.516 149.985 135.153 150.353 134.881 150.829C134.62 151.294 134.49 151.849 134.49 152.495C134.49 153.13 134.62 153.691 134.881 154.178C135.153 154.654 135.516 155.022 135.969 155.283C136.434 155.544 136.949 155.674 137.516 155.674ZM148.438 157.102C147.531 157.102 146.727 156.904 146.024 156.507C145.321 156.11 144.766 155.566 144.358 154.875C143.95 154.172 143.746 153.379 143.746 152.495C143.746 151.6 143.95 150.806 144.358 150.115C144.766 149.424 145.321 148.885 146.024 148.5C146.727 148.103 147.531 147.905 148.438 147.905C149.333 147.905 150.132 148.103 150.835 148.5C151.549 148.885 152.104 149.424 152.501 150.115C152.909 150.795 153.113 151.588 153.113 152.495C153.113 153.39 152.909 154.184 152.501 154.875C152.104 155.566 151.549 156.11 150.835 156.507C150.132 156.904 149.333 157.102 148.438 157.102ZM148.438 155.674C149.016 155.674 149.532 155.544 149.985 155.283C150.45 155.022 150.812 154.654 151.073 154.178C151.334 153.691 151.464 153.13 151.464 152.495C151.464 151.849 151.334 151.294 151.073 150.829C150.812 150.353 150.45 149.985 149.985 149.724C149.532 149.463 149.016 149.333 148.438 149.333C147.86 149.333 147.344 149.463 146.891 149.724C146.438 149.985 146.075 150.353 145.803 150.829C145.531 151.294 145.395 151.849 145.395 152.495C145.395 153.13 145.531 153.691 145.803 154.178C146.075 154.654 146.438 155.022 146.891 155.283C147.344 155.544 147.86 155.674 148.438 155.674ZM155.47 157V147.99H159.652C160.706 147.99 161.533 148.194 162.134 148.602C162.746 148.999 163.052 149.565 163.052 150.302C163.052 151.039 162.763 151.611 162.185 152.019C161.618 152.416 160.864 152.614 159.924 152.614L160.179 152.172C161.255 152.172 162.054 152.37 162.576 152.767C163.097 153.164 163.358 153.747 163.358 154.518C163.358 155.3 163.063 155.912 162.474 156.354C161.896 156.785 161.006 157 159.805 157H155.47ZM157.068 155.742H159.686C160.366 155.742 160.876 155.64 161.216 155.436C161.556 155.221 161.726 154.881 161.726 154.416C161.726 153.94 161.567 153.594 161.25 153.379C160.944 153.152 160.456 153.039 159.788 153.039H157.068V155.742ZM157.068 151.866H159.516C160.139 151.866 160.609 151.753 160.927 151.526C161.255 151.288 161.42 150.959 161.42 150.54C161.42 150.109 161.255 149.786 160.927 149.571C160.609 149.356 160.139 149.248 159.516 149.248H157.068V151.866ZM172.534 160.298C171.888 159.267 171.39 158.077 171.038 156.728C170.687 155.368 170.511 153.906 170.511 152.342C170.511 150.778 170.687 149.316 171.038 147.956C171.39 146.585 171.888 145.395 172.534 144.386H174.081C173.401 145.587 172.903 146.845 172.585 148.16C172.268 149.463 172.109 150.857 172.109 152.342C172.109 153.827 172.268 155.226 172.585 156.541C172.903 157.844 173.401 159.097 174.081 160.298H172.534ZM179.843 157L174.607 145.1H176.443L181.254 156.082H180.2L185.045 145.1H186.745L181.526 157H179.843ZM188.263 157V145.1H189.963V157H188.263ZM193.525 157V145.1H194.919L202.79 154.875H202.059V145.1H203.759V157H202.365L194.494 147.225H195.225V157H193.525ZM207.627 160.298H206.08C206.771 159.097 207.276 157.844 207.593 156.541C207.91 155.226 208.069 153.827 208.069 152.342C208.069 150.857 207.91 149.463 207.593 148.16C207.276 146.845 206.771 145.587 206.08 144.386H207.627C208.296 145.395 208.8 146.585 209.14 147.956C209.491 149.316 209.667 150.778 209.667 152.342C209.667 153.906 209.491 155.368 209.14 156.728C208.8 158.077 208.296 159.267 207.627 160.298ZM217.427 157V147.99H219.059V154.552L224.584 147.99H226.063V157H224.431V150.438L218.923 157H217.427ZM16.581 178V168.99H24.928V178H23.296V170.01L23.687 170.418H17.822L18.213 170.01V178H16.581ZM31.9449 178.102C31.0382 178.102 30.2335 177.904 29.5309 177.507C28.8282 177.11 28.2729 176.566 27.8649 175.875C27.4569 175.172 27.2529 174.379 27.2529 173.495C27.2529 172.6 27.4569 171.806 27.8649 171.115C28.2729 170.424 28.8282 169.885 29.5309 169.5C30.2335 169.103 31.0382 168.905 31.9449 168.905C32.8402 168.905 33.6392 169.103 34.3419 169.5C35.0559 169.885 35.6112 170.424 36.0079 171.115C36.4159 171.795 36.6199 172.588 36.6199 173.495C36.6199 174.39 36.4159 175.184 36.0079 175.875C35.6112 176.566 35.0559 177.11 34.3419 177.507C33.6392 177.904 32.8402 178.102 31.9449 178.102ZM31.9449 176.674C32.5229 176.674 33.0385 176.544 33.4919 176.283C33.9565 176.022 34.3192 175.654 34.5799 175.178C34.8405 174.691 34.9709 174.13 34.9709 173.495C34.9709 172.849 34.8405 172.294 34.5799 171.829C34.3192 171.353 33.9565 170.985 33.4919 170.724C33.0385 170.463 32.5229 170.333 31.9449 170.333C31.3669 170.333 30.8512 170.463 30.3979 170.724C29.9445 170.985 29.5819 171.353 29.3099 171.829C29.0379 172.294 28.9019 172.849 28.9019 173.495C28.9019 174.13 29.0379 174.691 29.3099 175.178C29.5819 175.654 29.9445 176.022 30.3979 176.283C30.8512 176.544 31.3669 176.674 31.9449 176.674ZM45.0641 177.235V170.418H41.1541L41.0691 172.152C41.0464 172.719 41.0068 173.268 40.9501 173.801C40.9048 174.322 40.8254 174.804 40.7121 175.246C40.6101 175.688 40.4571 176.051 40.2531 176.334C40.0491 176.617 39.7771 176.793 39.4371 176.861L37.8221 176.572C38.1734 176.583 38.4568 176.47 38.6721 176.232C38.8874 175.983 39.0518 175.643 39.1651 175.212C39.2898 174.781 39.3804 174.294 39.4371 173.75C39.4938 173.195 39.5391 172.622 39.5731 172.033L39.7091 168.99H46.6961V177.235H45.0641ZM37.4651 180.091V176.572H48.0731V180.091H46.5431V178H39.0121V180.091H37.4651ZM56.7272 178L53.2422 173.614L54.5852 172.798L58.6482 178H56.7272ZM50.1992 178V168.99H51.8312V178H50.1992ZM51.3382 174.192V172.798H54.3132V174.192H51.3382ZM54.7212 173.682L53.2082 173.478L56.6592 168.99H58.4102L54.7212 173.682ZM65.7183 178V176.096L65.6333 175.739V172.492C65.6333 171.801 65.4293 171.268 65.0213 170.894C64.6246 170.509 64.024 170.316 63.2193 170.316C62.6866 170.316 62.1653 170.407 61.6553 170.588C61.1453 170.758 60.7146 170.99 60.3633 171.285L59.6833 170.061C60.148 169.687 60.7033 169.404 61.3493 169.211C62.0066 169.007 62.6923 168.905 63.4063 168.905C64.6416 168.905 65.5936 169.205 66.2623 169.806C66.931 170.407 67.2653 171.325 67.2653 172.56V178H65.7183ZM62.7603 178.102C62.0916 178.102 61.5023 177.989 60.9923 177.762C60.4936 177.535 60.1083 177.224 59.8363 176.827C59.5643 176.419 59.4283 175.96 59.4283 175.45C59.4283 174.963 59.5416 174.521 59.7683 174.124C60.0063 173.727 60.386 173.41 60.9073 173.172C61.44 172.934 62.154 172.815 63.0493 172.815H65.9053V173.988H63.1173C62.3013 173.988 61.7516 174.124 61.4683 174.396C61.185 174.668 61.0433 174.997 61.0433 175.382C61.0433 175.824 61.219 176.181 61.5703 176.453C61.9216 176.714 62.409 176.844 63.0323 176.844C63.6443 176.844 64.177 176.708 64.6303 176.436C65.095 176.164 65.4293 175.767 65.6333 175.246L65.9563 176.368C65.741 176.901 65.3613 177.326 64.8173 177.643C64.2733 177.949 63.5876 178.102 62.7603 178.102ZM70.204 178V168.99H78.551V178H76.919V170.01L77.31 170.418H71.445L71.836 170.01V178H70.204ZM85.5679 178.102C84.6613 178.102 83.8566 177.904 83.1539 177.507C82.4513 177.11 81.8959 176.566 81.4879 175.875C81.0799 175.172 80.8759 174.379 80.8759 173.495C80.8759 172.6 81.0799 171.806 81.4879 171.115C81.8959 170.424 82.4513 169.885 83.1539 169.5C83.8566 169.103 84.6613 168.905 85.5679 168.905C86.4633 168.905 87.2623 169.103 87.9649 169.5C88.6789 169.885 89.2343 170.424 89.6309 171.115C90.0389 171.795 90.2429 172.588 90.2429 173.495C90.2429 174.39 90.0389 175.184 89.6309 175.875C89.2343 176.566 88.6789 177.11 87.9649 177.507C87.2623 177.904 86.4633 178.102 85.5679 178.102ZM85.5679 176.674C86.1459 176.674 86.6616 176.544 87.1149 176.283C87.5796 176.022 87.9423 175.654 88.2029 175.178C88.4636 174.691 88.5939 174.13 88.5939 173.495C88.5939 172.849 88.4636 172.294 88.2029 171.829C87.9423 171.353 87.5796 170.985 87.1149 170.724C86.6616 170.463 86.1459 170.333 85.5679 170.333C84.9899 170.333 84.4743 170.463 84.0209 170.724C83.5676 170.985 83.2049 171.353 82.9329 171.829C82.6609 172.294 82.5249 172.849 82.5249 173.495C82.5249 174.13 82.6609 174.691 82.9329 175.178C83.2049 175.654 83.5676 176.022 84.0209 176.283C84.4743 176.544 84.9899 176.674 85.5679 176.674ZM94.0525 178V169.993L94.4605 170.418H90.7545V168.99H98.9825V170.418H95.2935L95.6845 169.993V178H94.0525ZM100.651 178V168.99H102.283V172.815H107.417V168.99H109.049V178H107.417V174.226H102.283V178H100.651ZM121.131 178V168.99H122.763V178H121.131ZM116.286 172.05C117.43 172.061 118.297 172.322 118.887 172.832C119.487 173.342 119.788 174.062 119.788 174.991C119.788 175.966 119.459 176.719 118.802 177.252C118.156 177.773 117.226 178.028 116.014 178.017L112.223 178V168.99H113.855V172.033L116.286 172.05ZM115.895 176.776C116.62 176.787 117.175 176.64 117.561 176.334C117.946 176.028 118.139 175.575 118.139 174.974C118.139 174.385 117.946 173.954 117.561 173.682C117.187 173.41 116.631 173.268 115.895 173.257L113.855 173.223V176.759L115.895 176.776ZM124.507 178L128.383 172.968L128.366 173.801L124.677 168.99H126.496L129.318 172.696H128.621L131.443 168.99H133.228L129.488 173.835L129.505 172.968L133.415 178H131.562L128.587 174.056L129.25 174.158L126.326 178H124.507ZM141.755 181.298C141.109 180.267 140.611 179.077 140.259 177.728C139.908 176.368 139.732 174.906 139.732 173.342C139.732 171.778 139.908 170.316 140.259 168.956C140.611 167.585 141.109 166.395 141.755 165.386H143.302C142.622 166.587 142.124 167.845 141.806 169.16C141.489 170.463 141.33 171.857 141.33 173.342C141.33 174.827 141.489 176.226 141.806 177.541C142.124 178.844 142.622 180.097 143.302 181.298H141.755ZM151.364 177.235V170.418H147.454L147.369 172.152C147.346 172.719 147.307 173.268 147.25 173.801C147.205 174.322 147.125 174.804 147.012 175.246C146.91 175.688 146.757 176.051 146.553 176.334C146.349 176.617 146.077 176.793 145.737 176.861L144.122 176.572C144.473 176.583 144.757 176.47 144.972 176.232C145.187 175.983 145.352 175.643 145.465 175.212C145.59 174.781 145.68 174.294 145.737 173.75C145.794 173.195 145.839 172.622 145.873 172.033L146.009 168.99H152.996V177.235H151.364ZM143.765 180.091V176.572H154.373V180.091H152.843V178H145.312V180.091H143.765ZM156.958 181.4C156.527 181.4 156.108 181.326 155.7 181.179C155.292 181.043 154.941 180.839 154.646 180.567L155.343 179.343C155.57 179.558 155.819 179.723 156.091 179.836C156.363 179.949 156.652 180.006 156.958 180.006C157.355 180.006 157.683 179.904 157.944 179.7C158.205 179.496 158.448 179.133 158.675 178.612L159.236 177.371L159.406 177.167L162.942 168.99H164.54L160.171 178.901C159.91 179.536 159.616 180.034 159.287 180.397C158.97 180.76 158.618 181.015 158.233 181.162C157.848 181.321 157.423 181.4 156.958 181.4ZM159.1 178.289L154.986 168.99H156.686L160.188 177.014L159.1 178.289ZM170.26 178.136C169.512 178.136 168.849 178.017 168.271 177.779C167.704 177.541 167.217 177.19 166.809 176.725C166.401 176.249 166.089 175.654 165.874 174.94C165.67 174.215 165.568 173.365 165.568 172.39C165.568 171.619 165.636 170.928 165.772 170.316C165.908 169.704 166.1 169.16 166.35 168.684C166.61 168.208 166.928 167.794 167.302 167.443C167.687 167.092 168.118 166.803 168.594 166.576C169.081 166.338 169.614 166.157 170.192 166.032L174.306 165.114L174.544 166.627L170.753 167.443C170.526 167.488 170.254 167.556 169.937 167.647C169.619 167.738 169.296 167.879 168.968 168.072C168.639 168.253 168.333 168.508 168.05 168.837C167.766 169.166 167.54 169.596 167.37 170.129C167.2 170.65 167.115 171.296 167.115 172.067C167.115 172.282 167.12 172.447 167.132 172.56C167.143 172.673 167.154 172.787 167.166 172.9C167.188 173.013 167.205 173.183 167.217 173.41L166.537 172.713C166.718 172.09 167.007 171.546 167.404 171.081C167.8 170.616 168.276 170.259 168.832 170.01C169.398 169.749 170.016 169.619 170.685 169.619C171.523 169.619 172.266 169.8 172.912 170.163C173.569 170.526 174.085 171.024 174.459 171.659C174.833 172.294 175.02 173.019 175.02 173.835C175.02 174.662 174.821 175.405 174.425 176.062C174.039 176.708 173.49 177.218 172.776 177.592C172.062 177.955 171.223 178.136 170.26 178.136ZM170.413 176.776C170.991 176.776 171.501 176.651 171.943 176.402C172.385 176.141 172.73 175.796 172.98 175.365C173.229 174.923 173.354 174.43 173.354 173.886C173.354 173.342 173.229 172.86 172.98 172.441C172.73 172.022 172.385 171.693 171.943 171.455C171.501 171.206 170.979 171.081 170.379 171.081C169.812 171.081 169.302 171.2 168.849 171.438C168.395 171.665 168.044 171.988 167.795 172.407C167.545 172.815 167.421 173.291 167.421 173.835C167.421 174.379 167.545 174.878 167.795 175.331C168.055 175.773 168.407 176.124 168.849 176.385C169.302 176.646 169.823 176.776 170.413 176.776ZM175.788 177.983L175.89 176.606C175.969 176.617 176.043 176.629 176.111 176.64C176.179 176.651 176.241 176.657 176.298 176.657C176.661 176.657 176.944 176.532 177.148 176.283C177.363 176.034 177.522 175.705 177.624 175.297C177.726 174.878 177.8 174.407 177.845 173.886C177.89 173.365 177.924 172.843 177.947 172.322L178.1 168.99H185.019V178H183.387V169.942L183.778 170.418H179.154L179.528 169.925L179.409 172.424C179.375 173.217 179.313 173.96 179.222 174.651C179.131 175.342 178.99 175.949 178.797 176.47C178.616 176.991 178.361 177.399 178.032 177.694C177.715 177.989 177.301 178.136 176.791 178.136C176.644 178.136 176.485 178.119 176.315 178.085C176.156 178.062 175.981 178.028 175.788 177.983ZM188.175 178V168.99H189.807V175.552L195.332 168.99H196.811V178H195.179V171.438L189.671 178H188.175ZM204.755 178.102C204.007 178.102 203.322 177.932 202.698 177.592C202.086 177.241 201.593 176.725 201.219 176.045C200.857 175.365 200.675 174.515 200.675 173.495C200.675 172.475 200.851 171.625 201.202 170.945C201.565 170.265 202.052 169.755 202.664 169.415C203.288 169.075 203.985 168.905 204.755 168.905C205.639 168.905 206.421 169.098 207.101 169.483C207.781 169.868 208.32 170.407 208.716 171.098C209.113 171.778 209.311 172.577 209.311 173.495C209.311 174.413 209.113 175.218 208.716 175.909C208.32 176.6 207.781 177.139 207.101 177.524C206.421 177.909 205.639 178.102 204.755 178.102ZM199.978 181.298V168.99H201.542V171.421L201.44 173.512L201.61 175.603V181.298H199.978ZM204.619 176.674C205.197 176.674 205.713 176.544 206.166 176.283C206.631 176.022 206.994 175.654 207.254 175.178C207.526 174.691 207.662 174.13 207.662 173.495C207.662 172.849 207.526 172.294 207.254 171.829C206.994 171.353 206.631 170.985 206.166 170.724C205.713 170.463 205.197 170.333 204.619 170.333C204.053 170.333 203.537 170.463 203.072 170.724C202.619 170.985 202.256 171.353 201.984 171.829C201.724 172.294 201.593 172.849 201.593 173.495C201.593 174.13 201.724 174.691 201.984 175.178C202.256 175.654 202.619 176.022 203.072 176.283C203.537 176.544 204.053 176.674 204.619 176.674ZM211.893 181.4C211.462 181.4 211.043 181.326 210.635 181.179C210.227 181.043 209.875 180.839 209.581 180.567L210.278 179.343C210.504 179.558 210.754 179.723 211.026 179.836C211.298 179.949 211.587 180.006 211.893 180.006C212.289 180.006 212.618 179.904 212.879 179.7C213.139 179.496 213.383 179.133 213.61 178.612L214.171 177.371L214.341 177.167L217.877 168.99H219.475L215.106 178.901C214.845 179.536 214.55 180.034 214.222 180.397C213.904 180.76 213.553 181.015 213.168 181.162C212.782 181.321 212.357 181.4 211.893 181.4ZM214.035 178.289L209.921 168.99H211.621L215.123 177.014L214.035 178.289ZM221.145 178V168.99H222.777V172.679H225.497V174.192H222.777V178H221.145ZM229.118 178.102C228.234 178.102 227.447 177.904 226.755 177.507C226.075 177.11 225.537 176.566 225.14 175.875C224.744 175.172 224.545 174.379 224.545 173.495C224.545 172.6 224.744 171.806 225.14 171.115C225.537 170.412 226.075 169.868 226.755 169.483C227.447 169.098 228.234 168.905 229.118 168.905C229.991 168.905 230.773 169.098 231.464 169.483C232.156 169.868 232.7 170.412 233.096 171.115C233.493 171.806 233.691 172.6 233.691 173.495C233.691 174.39 233.493 175.184 233.096 175.875C232.7 176.566 232.156 177.11 231.464 177.507C230.773 177.904 229.991 178.102 229.118 178.102ZM229.118 176.674C229.685 176.674 230.189 176.544 230.631 176.283C231.073 176.011 231.425 175.643 231.685 175.178C231.946 174.702 232.076 174.141 232.076 173.495C232.076 172.849 231.946 172.294 231.685 171.829C231.425 171.353 231.073 170.985 230.631 170.724C230.189 170.463 229.685 170.333 229.118 170.333C228.563 170.333 228.059 170.463 227.605 170.724C227.163 170.985 226.812 171.353 226.551 171.829C226.291 172.294 226.16 172.849 226.16 173.495C226.16 174.141 226.291 174.702 226.551 175.178C226.812 175.643 227.163 176.011 227.605 176.283C228.059 176.544 228.563 176.674 229.118 176.674ZM242.021 176.572L241.647 176.997V168.99H243.279V176.997L242.871 176.572H247.631L247.24 176.997V168.99H248.872V178H236.037V168.99H237.669V176.997L237.278 176.572H242.021ZM248.668 179.921V177.575L249.059 178H247.155V176.572H250.198V179.921H248.668ZM252.041 178V168.99H253.673V175.552L259.198 168.99H260.677V178H259.045V171.438L253.537 178H252.041ZM262.417 178L266.293 172.968L266.276 173.801L262.587 168.99H264.406L267.228 172.696H266.531L269.353 168.99H271.138L267.398 173.835L267.415 172.968L271.325 178H269.472L266.497 174.056L267.16 174.158L264.236 178H262.417ZM273.552 181.298H272.005C272.696 180.097 273.201 178.844 273.518 177.541C273.835 176.226 273.994 174.827 273.994 173.342C273.994 171.857 273.835 170.463 273.518 169.16C273.201 167.845 272.696 166.587 272.005 165.386H273.552C274.221 166.395 274.725 167.585 275.065 168.956C275.416 170.316 275.592 171.778 275.592 173.342C275.592 174.906 275.416 176.368 275.065 177.728C274.725 179.077 274.221 180.267 273.552 181.298ZM18.366 199V190.993L18.774 191.418H15.068V189.99H23.296V191.418H19.607L19.998 190.993V199H18.366ZM30.4898 199V197.096L30.4048 196.739V193.492C30.4048 192.801 30.2008 192.268 29.7928 191.894C29.3961 191.509 28.7955 191.316 27.9908 191.316C27.4581 191.316 26.9368 191.407 26.4268 191.588C25.9168 191.758 25.4861 191.99 25.1348 192.285L24.4548 191.061C24.9195 190.687 25.4748 190.404 26.1208 190.211C26.7781 190.007 27.4638 189.905 28.1778 189.905C29.4131 189.905 30.3651 190.205 31.0338 190.806C31.7025 191.407 32.0368 192.325 32.0368 193.56V199H30.4898ZM27.5318 199.102C26.8631 199.102 26.2738 198.989 25.7638 198.762C25.2651 198.535 24.8798 198.224 24.6078 197.827C24.3358 197.419 24.1998 196.96 24.1998 196.45C24.1998 195.963 24.3131 195.521 24.5398 195.124C24.7778 194.727 25.1575 194.41 25.6788 194.172C26.2115 193.934 26.9255 193.815 27.8208 193.815H30.6768V194.988H27.8888C27.0728 194.988 26.5231 195.124 26.2398 195.396C25.9565 195.668 25.8148 195.997 25.8148 196.382C25.8148 196.824 25.9905 197.181 26.3418 197.453C26.6931 197.714 27.1805 197.844 27.8038 197.844C28.4158 197.844 28.9485 197.708 29.4018 197.436C29.8665 197.164 30.2008 196.767 30.4048 196.246L30.7278 197.368C30.5125 197.901 30.1328 198.326 29.5888 198.643C29.0448 198.949 28.3591 199.102 27.5318 199.102ZM39.1405 199.136C38.3925 199.136 37.7295 199.017 37.1515 198.779C36.5849 198.541 36.0975 198.19 35.6895 197.725C35.2815 197.249 34.9699 196.654 34.7545 195.94C34.5505 195.215 34.4485 194.365 34.4485 193.39C34.4485 192.619 34.5165 191.928 34.6525 191.316C34.7885 190.704 34.9812 190.16 35.2305 189.684C35.4912 189.208 35.8085 188.794 36.1825 188.443C36.5679 188.092 36.9985 187.803 37.4745 187.576C37.9619 187.338 38.4945 187.157 39.0725 187.032L43.1865 186.114L43.4245 187.627L39.6335 188.443C39.4069 188.488 39.1349 188.556 38.8175 188.647C38.5002 188.738 38.1772 188.879 37.8485 189.072C37.5199 189.253 37.2139 189.508 36.9305 189.837C36.6472 190.166 36.4205 190.596 36.2505 191.129C36.0805 191.65 35.9955 192.296 35.9955 193.067C35.9955 193.282 36.0012 193.447 36.0125 193.56C36.0239 193.673 36.0352 193.787 36.0465 193.9C36.0692 194.013 36.0862 194.183 36.0975 194.41L35.4175 193.713C35.5989 193.09 35.8879 192.546 36.2845 192.081C36.6812 191.616 37.1572 191.259 37.7125 191.01C38.2792 190.749 38.8969 190.619 39.5655 190.619C40.4042 190.619 41.1465 190.8 41.7925 191.163C42.4499 191.526 42.9655 192.024 43.3395 192.659C43.7135 193.294 43.9005 194.019 43.9005 194.835C43.9005 195.662 43.7022 196.405 43.3055 197.062C42.9202 197.708 42.3705 198.218 41.6565 198.592C40.9425 198.955 40.1039 199.136 39.1405 199.136ZM39.2935 197.776C39.8715 197.776 40.3815 197.651 40.8235 197.402C41.2655 197.141 41.6112 196.796 41.8605 196.365C42.1099 195.923 42.2345 195.43 42.2345 194.886C42.2345 194.342 42.1099 193.86 41.8605 193.441C41.6112 193.022 41.2655 192.693 40.8235 192.455C40.3815 192.206 39.8602 192.081 39.2595 192.081C38.6929 192.081 38.1829 192.2 37.7295 192.438C37.2762 192.665 36.9249 192.988 36.6755 193.407C36.4262 193.815 36.3015 194.291 36.3015 194.835C36.3015 195.379 36.4262 195.878 36.6755 196.331C36.9362 196.773 37.2875 197.124 37.7295 197.385C38.1829 197.646 38.7042 197.776 39.2935 197.776ZM44.669 198.983L44.771 197.606C44.8503 197.617 44.924 197.629 44.992 197.64C45.06 197.651 45.1223 197.657 45.179 197.657C45.5417 197.657 45.825 197.532 46.029 197.283C46.2443 197.034 46.403 196.705 46.505 196.297C46.607 195.878 46.6807 195.407 46.726 194.886C46.7713 194.365 46.8053 193.843 46.828 193.322L46.981 189.99H53.9V199H52.268V190.942L52.659 191.418H48.035L48.409 190.925L48.29 193.424C48.256 194.217 48.1937 194.96 48.103 195.651C48.0123 196.342 47.8707 196.949 47.678 197.47C47.4967 197.991 47.2417 198.399 46.913 198.694C46.5957 198.989 46.182 199.136 45.672 199.136C45.5247 199.136 45.366 199.119 45.196 199.085C45.0373 199.062 44.8617 199.028 44.669 198.983ZM57.0556 199V189.99H58.6876V196.552L64.2126 189.99H65.6916V199H64.0596V192.438L58.5516 199H57.0556ZM74.5373 195.311C74.0613 195.538 73.5683 195.719 73.0583 195.855C72.5597 195.98 72.044 196.042 71.5113 196.042C70.4233 196.042 69.562 195.787 68.9273 195.277C68.304 194.767 67.9923 193.979 67.9923 192.914V189.99H69.6243V192.812C69.6243 193.458 69.8227 193.934 70.2193 194.24C70.6273 194.546 71.1713 194.699 71.8513 194.699C72.282 194.699 72.724 194.642 73.1773 194.529C73.642 194.416 74.0953 194.257 74.5373 194.053V195.311ZM74.4183 199V189.99H76.0503V199H74.4183ZM83.2307 199.102C82.2674 199.102 81.4174 198.904 80.6807 198.507C79.9554 198.11 79.3887 197.566 78.9807 196.875C78.584 196.184 78.3857 195.39 78.3857 194.495C78.3857 193.6 78.5784 192.806 78.9637 192.115C79.3604 191.424 79.8987 190.885 80.5787 190.5C81.27 190.103 82.0464 189.905 82.9077 189.905C83.7804 189.905 84.551 190.098 85.2197 190.483C85.8884 190.868 86.4097 191.412 86.7837 192.115C87.169 192.806 87.3617 193.617 87.3617 194.546C87.3617 194.614 87.356 194.693 87.3447 194.784C87.3447 194.875 87.339 194.96 87.3277 195.039H79.6607V193.866H86.4777L85.8147 194.274C85.826 193.696 85.707 193.18 85.4577 192.727C85.2084 192.274 84.8627 191.922 84.4207 191.673C83.99 191.412 83.4857 191.282 82.9077 191.282C82.341 191.282 81.8367 191.412 81.3947 191.673C80.9527 191.922 80.607 192.279 80.3577 192.744C80.1084 193.197 79.9837 193.719 79.9837 194.308V194.58C79.9837 195.181 80.1197 195.719 80.3917 196.195C80.675 196.66 81.066 197.022 81.5647 197.283C82.0634 197.544 82.6357 197.674 83.2817 197.674C83.8144 197.674 84.296 197.583 84.7267 197.402C85.1687 197.221 85.554 196.949 85.8827 196.586L86.7837 197.64C86.3757 198.116 85.8657 198.479 85.2537 198.728C84.653 198.977 83.9787 199.102 83.2307 199.102ZM96.4215 199L92.9365 194.614L94.2795 193.798L98.3425 199H96.4215ZM89.8935 199V189.99H91.5255V199H89.8935ZM91.0325 195.192V193.798H94.0075V195.192H91.0325ZM94.4155 194.682L92.9025 194.478L96.3535 189.99H98.1045L94.4155 194.682ZM109.185 199V189.99H117.532V199H115.9V191.01L116.291 191.418H110.426L110.817 191.01V199H109.185ZM125.466 199.102C124.718 199.102 124.033 198.932 123.409 198.592C122.797 198.241 122.304 197.725 121.93 197.045C121.568 196.365 121.386 195.515 121.386 194.495C121.386 193.475 121.562 192.625 121.913 191.945C122.276 191.265 122.763 190.755 123.375 190.415C123.999 190.075 124.696 189.905 125.466 189.905C126.35 189.905 127.132 190.098 127.812 190.483C128.492 190.868 129.031 191.407 129.427 192.098C129.824 192.778 130.022 193.577 130.022 194.495C130.022 195.413 129.824 196.218 129.427 196.909C129.031 197.6 128.492 198.139 127.812 198.524C127.132 198.909 126.35 199.102 125.466 199.102ZM120.689 202.298V189.99H122.253V192.421L122.151 194.512L122.321 196.603V202.298H120.689ZM125.33 197.674C125.908 197.674 126.424 197.544 126.877 197.283C127.342 197.022 127.705 196.654 127.965 196.178C128.237 195.691 128.373 195.13 128.373 194.495C128.373 193.849 128.237 193.294 127.965 192.829C127.705 192.353 127.342 191.985 126.877 191.724C126.424 191.463 125.908 191.333 125.33 191.333C124.764 191.333 124.248 191.463 123.783 191.724C123.33 191.985 122.967 192.353 122.695 192.829C122.435 193.294 122.304 193.849 122.304 194.495C122.304 195.13 122.435 195.691 122.695 196.178C122.967 196.654 123.33 197.022 123.783 197.283C124.248 197.544 124.764 197.674 125.33 197.674ZM136.253 199.102C135.346 199.102 134.541 198.904 133.839 198.507C133.136 198.11 132.581 197.566 132.173 196.875C131.765 196.172 131.561 195.379 131.561 194.495C131.561 193.6 131.765 192.806 132.173 192.115C132.581 191.424 133.136 190.885 133.839 190.5C134.541 190.103 135.346 189.905 136.253 189.905C137.148 189.905 137.947 190.103 138.65 190.5C139.364 190.885 139.919 191.424 140.316 192.115C140.724 192.795 140.928 193.588 140.928 194.495C140.928 195.39 140.724 196.184 140.316 196.875C139.919 197.566 139.364 198.11 138.65 198.507C137.947 198.904 137.148 199.102 136.253 199.102ZM136.253 197.674C136.831 197.674 137.346 197.544 137.8 197.283C138.264 197.022 138.627 196.654 138.888 196.178C139.148 195.691 139.279 195.13 139.279 194.495C139.279 193.849 139.148 193.294 138.888 192.829C138.627 192.353 138.264 191.985 137.8 191.724C137.346 191.463 136.831 191.333 136.253 191.333C135.675 191.333 135.159 191.463 134.706 191.724C134.252 191.985 133.89 192.353 133.618 192.829C133.346 193.294 133.21 193.849 133.21 194.495C133.21 195.13 133.346 195.691 133.618 196.178C133.89 196.654 134.252 197.022 134.706 197.283C135.159 197.544 135.675 197.674 136.253 197.674ZM143.284 199V189.99H147.466C148.52 189.99 149.347 190.194 149.948 190.602C150.56 190.999 150.866 191.565 150.866 192.302C150.866 193.039 150.577 193.611 149.999 194.019C149.432 194.416 148.679 194.614 147.738 194.614L147.993 194.172C149.07 194.172 149.869 194.37 150.39 194.767C150.911 195.164 151.172 195.747 151.172 196.518C151.172 197.3 150.877 197.912 150.288 198.354C149.71 198.785 148.82 199 147.619 199H143.284ZM144.882 197.742H147.5C148.18 197.742 148.69 197.64 149.03 197.436C149.37 197.221 149.54 196.881 149.54 196.416C149.54 195.94 149.381 195.594 149.064 195.379C148.758 195.152 148.271 195.039 147.602 195.039H144.882V197.742ZM144.882 193.866H147.33C147.953 193.866 148.424 193.753 148.741 193.526C149.07 193.288 149.234 192.959 149.234 192.54C149.234 192.109 149.07 191.786 148.741 191.571C148.424 191.356 147.953 191.248 147.33 191.248H144.882V193.866ZM157.739 199.102C156.775 199.102 155.925 198.904 155.189 198.507C154.463 198.11 153.897 197.566 153.489 196.875C153.092 196.184 152.894 195.39 152.894 194.495C152.894 193.6 153.086 192.806 153.472 192.115C153.868 191.424 154.407 190.885 155.087 190.5C155.778 190.103 156.554 189.905 157.416 189.905C158.288 189.905 159.059 190.098 159.728 190.483C160.396 190.868 160.918 191.412 161.292 192.115C161.677 192.806 161.87 193.617 161.87 194.546C161.87 194.614 161.864 194.693 161.853 194.784C161.853 194.875 161.847 194.96 161.836 195.039H154.169V193.866H160.986L160.323 194.274C160.334 193.696 160.215 193.18 159.966 192.727C159.716 192.274 159.371 191.922 158.929 191.673C158.498 191.412 157.994 191.282 157.416 191.282C156.849 191.282 156.345 191.412 155.903 191.673C155.461 191.922 155.115 192.279 154.866 192.744C154.616 193.197 154.492 193.719 154.492 194.308V194.58C154.492 195.181 154.628 195.719 154.9 196.195C155.183 196.66 155.574 197.022 156.073 197.283C156.571 197.544 157.144 197.674 157.79 197.674C158.322 197.674 158.804 197.583 159.235 197.402C159.677 197.221 160.062 196.949 160.391 196.586L161.292 197.64C160.884 198.116 160.374 198.479 159.762 198.728C159.161 198.977 158.487 199.102 157.739 199.102ZM169.178 199.102C168.43 199.102 167.745 198.932 167.121 198.592C166.509 198.241 166.016 197.725 165.642 197.045C165.28 196.365 165.098 195.515 165.098 194.495C165.098 193.475 165.274 192.625 165.625 191.945C165.988 191.265 166.475 190.755 167.087 190.415C167.711 190.075 168.408 189.905 169.178 189.905C170.062 189.905 170.844 190.098 171.524 190.483C172.204 190.868 172.743 191.407 173.139 192.098C173.536 192.778 173.734 193.577 173.734 194.495C173.734 195.413 173.536 196.218 173.139 196.909C172.743 197.6 172.204 198.139 171.524 198.524C170.844 198.909 170.062 199.102 169.178 199.102ZM164.401 202.298V189.99H165.965V192.421L165.863 194.512L166.033 196.603V202.298H164.401ZM169.042 197.674C169.62 197.674 170.136 197.544 170.589 197.283C171.054 197.022 171.417 196.654 171.677 196.178C171.949 195.691 172.085 195.13 172.085 194.495C172.085 193.849 171.949 193.294 171.677 192.829C171.417 192.353 171.054 191.985 170.589 191.724C170.136 191.463 169.62 191.333 169.042 191.333C168.476 191.333 167.96 191.463 167.495 191.724C167.042 191.985 166.679 192.353 166.407 192.829C166.147 193.294 166.016 193.849 166.016 194.495C166.016 195.13 166.147 195.691 166.407 196.178C166.679 196.654 167.042 197.022 167.495 197.283C167.96 197.544 168.476 197.674 169.042 197.674ZM182.633 199L179.148 194.614L180.491 193.798L184.554 199H182.633ZM176.105 199V189.99H177.737V199H176.105ZM177.244 195.192V193.798H180.219V195.192H177.244ZM180.627 194.682L179.114 194.478L182.565 189.99H184.316L180.627 194.682ZM191.625 199V197.096L191.54 196.739V193.492C191.54 192.801 191.336 192.268 190.928 191.894C190.531 191.509 189.93 191.316 189.126 191.316C188.593 191.316 188.072 191.407 187.562 191.588C187.052 191.758 186.621 191.99 186.27 192.285L185.59 191.061C186.054 190.687 186.61 190.404 187.256 190.211C187.913 190.007 188.599 189.905 189.313 189.905C190.548 189.905 191.5 190.205 192.169 190.806C192.837 191.407 193.172 192.325 193.172 193.56V199H191.625ZM188.667 199.102C187.998 199.102 187.409 198.989 186.899 198.762C186.4 198.535 186.015 198.224 185.743 197.827C185.471 197.419 185.335 196.96 185.335 196.45C185.335 195.963 185.448 195.521 185.675 195.124C185.913 194.727 186.292 194.41 186.814 194.172C187.346 193.934 188.06 193.815 188.956 193.815H191.812V194.988H189.024C188.208 194.988 187.658 195.124 187.375 195.396C187.091 195.668 186.95 195.997 186.95 196.382C186.95 196.824 187.125 197.181 187.477 197.453C187.828 197.714 188.315 197.844 188.939 197.844C189.551 197.844 190.083 197.708 190.537 197.436C191.001 197.164 191.336 196.767 191.54 196.246L191.863 197.368C191.647 197.901 191.268 198.326 190.724 198.643C190.18 198.949 189.494 199.102 188.667 199.102ZM200.676 199V189.99H202.308V193.815H207.442V189.99H209.074V199H207.442V195.226H202.308V199H200.676ZM216.106 199.102C215.199 199.102 214.395 198.904 213.692 198.507C212.989 198.11 212.434 197.566 212.026 196.875C211.618 196.172 211.414 195.379 211.414 194.495C211.414 193.6 211.618 192.806 212.026 192.115C212.434 191.424 212.989 190.885 213.692 190.5C214.395 190.103 215.199 189.905 216.106 189.905C217.001 189.905 217.8 190.103 218.503 190.5C219.217 190.885 219.772 191.424 220.169 192.115C220.577 192.795 220.781 193.588 220.781 194.495C220.781 195.39 220.577 196.184 220.169 196.875C219.772 197.566 219.217 198.11 218.503 198.507C217.8 198.904 217.001 199.102 216.106 199.102ZM216.106 197.674C216.684 197.674 217.2 197.544 217.653 197.283C218.118 197.022 218.48 196.654 218.741 196.178C219.002 195.691 219.132 195.13 219.132 194.495C219.132 193.849 219.002 193.294 218.741 192.829C218.48 192.353 218.118 191.985 217.653 191.724C217.2 191.463 216.684 191.333 216.106 191.333C215.528 191.333 215.012 191.463 214.559 191.724C214.106 191.985 213.743 192.353 213.471 192.829C213.199 193.294 213.063 193.849 213.063 194.495C213.063 195.13 213.199 195.691 213.471 196.178C213.743 196.654 214.106 197.022 214.559 197.283C215.012 197.544 215.528 197.674 216.106 197.674ZM223.138 199V189.99H224.821L228.697 196.654H228.017L231.995 189.99H233.525V199H232.046V191.826L232.318 191.979L228.68 197.98H227.966L224.311 191.86L224.634 191.792V199H223.138ZM240.713 199.102C239.75 199.102 238.9 198.904 238.163 198.507C237.438 198.11 236.871 197.566 236.463 196.875C236.066 196.184 235.868 195.39 235.868 194.495C235.868 193.6 236.061 192.806 236.446 192.115C236.843 191.424 237.381 190.885 238.061 190.5C238.752 190.103 239.529 189.905 240.39 189.905C241.263 189.905 242.033 190.098 242.702 190.483C243.371 190.868 243.892 191.412 244.266 192.115C244.651 192.806 244.844 193.617 244.844 194.546C244.844 194.614 244.838 194.693 244.827 194.784C244.827 194.875 244.821 194.96 244.81 195.039H237.143V193.866H243.96L243.297 194.274C243.308 193.696 243.189 193.18 242.94 192.727C242.691 192.274 242.345 191.922 241.903 191.673C241.472 191.412 240.968 191.282 240.39 191.282C239.823 191.282 239.319 191.412 238.877 191.673C238.435 191.922 238.089 192.279 237.84 192.744C237.591 193.197 237.466 193.719 237.466 194.308V194.58C237.466 195.181 237.602 195.719 237.874 196.195C238.157 196.66 238.548 197.022 239.047 197.283C239.546 197.544 240.118 197.674 240.764 197.674C241.297 197.674 241.778 197.583 242.209 197.402C242.651 197.221 243.036 196.949 243.365 196.586L244.266 197.64C243.858 198.116 243.348 198.479 242.736 198.728C242.135 198.977 241.461 199.102 240.713 199.102ZM252.153 199.102C251.405 199.102 250.719 198.932 250.096 198.592C249.484 198.241 248.991 197.725 248.617 197.045C248.254 196.365 248.073 195.515 248.073 194.495C248.073 193.475 248.249 192.625 248.6 191.945C248.963 191.265 249.45 190.755 250.062 190.415C250.685 190.075 251.382 189.905 252.153 189.905C253.037 189.905 253.819 190.098 254.499 190.483C255.179 190.868 255.717 191.407 256.114 192.098C256.511 192.778 256.709 193.577 256.709 194.495C256.709 195.413 256.511 196.218 256.114 196.909C255.717 197.6 255.179 198.139 254.499 198.524C253.819 198.909 253.037 199.102 252.153 199.102ZM247.376 202.298V189.99H248.94V192.421L248.838 194.512L249.008 196.603V202.298H247.376ZM252.017 197.674C252.595 197.674 253.111 197.544 253.564 197.283C254.029 197.022 254.391 196.654 254.652 196.178C254.924 195.691 255.06 195.13 255.06 194.495C255.06 193.849 254.924 193.294 254.652 192.829C254.391 192.353 254.029 191.985 253.564 191.724C253.111 191.463 252.595 191.333 252.017 191.333C251.45 191.333 250.935 191.463 250.47 191.724C250.017 191.985 249.654 192.353 249.382 192.829C249.121 193.294 248.991 193.849 248.991 194.495C248.991 195.13 249.121 195.691 249.382 196.178C249.654 196.654 250.017 197.022 250.47 197.283C250.935 197.544 251.45 197.674 252.017 197.674ZM264.522 199V197.096L264.437 196.739V193.492C264.437 192.801 264.233 192.268 263.825 191.894C263.428 191.509 262.828 191.316 262.023 191.316C261.49 191.316 260.969 191.407 260.459 191.588C259.949 191.758 259.518 191.99 259.167 192.285L258.487 191.061C258.952 190.687 259.507 190.404 260.153 190.211C260.81 190.007 261.496 189.905 262.21 189.905C263.445 189.905 264.397 190.205 265.066 190.806C265.735 191.407 266.069 192.325 266.069 193.56V199H264.522ZM261.564 199.102C260.895 199.102 260.306 198.989 259.796 198.762C259.297 198.535 258.912 198.224 258.64 197.827C258.368 197.419 258.232 196.96 258.232 196.45C258.232 195.963 258.345 195.521 258.572 195.124C258.81 194.727 259.19 194.41 259.711 194.172C260.244 193.934 260.958 193.815 261.853 193.815H264.709V194.988H261.921C261.105 194.988 260.555 195.124 260.272 195.396C259.989 195.668 259.847 195.997 259.847 196.382C259.847 196.824 260.023 197.181 260.374 197.453C260.725 197.714 261.213 197.844 261.836 197.844C262.448 197.844 262.981 197.708 263.434 197.436C263.899 197.164 264.233 196.767 264.437 196.246L264.76 197.368C264.545 197.901 264.165 198.326 263.621 198.643C263.077 198.949 262.391 199.102 261.564 199.102ZM21.358 220.102C20.61 220.102 19.9243 219.932 19.301 219.592C18.689 219.241 18.196 218.725 17.822 218.045C17.4593 217.365 17.278 216.515 17.278 215.495C17.278 214.475 17.4537 213.625 17.805 212.945C18.1677 212.265 18.655 211.755 19.267 211.415C19.8903 211.075 20.5873 210.905 21.358 210.905C22.242 210.905 23.024 211.098 23.704 211.483C24.384 211.868 24.9223 212.407 25.319 213.098C25.7157 213.778 25.914 214.577 25.914 215.495C25.914 216.413 25.7157 217.218 25.319 217.909C24.9223 218.6 24.384 219.139 23.704 219.524C23.024 219.909 22.242 220.102 21.358 220.102ZM16.581 223.298V210.99H18.145V213.421L18.043 215.512L18.213 217.603V223.298H16.581ZM21.222 218.674C21.8 218.674 22.3157 218.544 22.769 218.283C23.2337 218.022 23.5963 217.654 23.857 217.178C24.129 216.691 24.265 216.13 24.265 215.495C24.265 214.849 24.129 214.294 23.857 213.829C23.5963 213.353 23.2337 212.985 22.769 212.724C22.3157 212.463 21.8 212.333 21.222 212.333C20.6553 212.333 20.1397 212.463 19.675 212.724C19.2217 212.985 18.859 213.353 18.587 213.829C18.3263 214.294 18.196 214.849 18.196 215.495C18.196 216.13 18.3263 216.691 18.587 217.178C18.859 217.654 19.2217 218.022 19.675 218.283C20.1397 218.544 20.6553 218.674 21.222 218.674ZM33.7271 220V218.096L33.6421 217.739V214.492C33.6421 213.801 33.4381 213.268 33.0301 212.894C32.6334 212.509 32.0328 212.316 31.2281 212.316C30.6954 212.316 30.1741 212.407 29.6641 212.588C29.1541 212.758 28.7234 212.99 28.3721 213.285L27.6921 212.061C28.1568 211.687 28.7121 211.404 29.3581 211.211C30.0154 211.007 30.7011 210.905 31.4151 210.905C32.6504 210.905 33.6024 211.205 34.2711 211.806C34.9398 212.407 35.2741 213.325 35.2741 214.56V220H33.7271ZM30.7691 220.102C30.1004 220.102 29.5111 219.989 29.0011 219.762C28.5024 219.535 28.1171 219.224 27.8451 218.827C27.5731 218.419 27.4371 217.96 27.4371 217.45C27.4371 216.963 27.5504 216.521 27.7771 216.124C28.0151 215.727 28.3948 215.41 28.9161 215.172C29.4488 214.934 30.1628 214.815 31.0581 214.815H33.9141V215.988H31.1261C30.3101 215.988 29.7604 216.124 29.4771 216.396C29.1938 216.668 29.0521 216.997 29.0521 217.382C29.0521 217.824 29.2278 218.181 29.5791 218.453C29.9304 218.714 30.4178 218.844 31.0411 218.844C31.6531 218.844 32.1858 218.708 32.6391 218.436C33.1038 218.164 33.4381 217.767 33.6421 217.246L33.9651 218.368C33.7498 218.901 33.3701 219.326 32.8261 219.643C32.2821 219.949 31.5964 220.102 30.7691 220.102ZM38.2128 220V210.99H39.8958L43.7718 217.654H43.0918L47.0698 210.99H48.5998V220H47.1208V212.826L47.3928 212.979L43.7548 218.98H43.0408L39.3858 212.86L39.7088 212.792V220H38.2128ZM60.6843 220V210.99H62.3163V220H60.6843ZM55.8393 214.05C56.984 214.061 57.851 214.322 58.4403 214.832C59.041 215.342 59.3413 216.062 59.3413 216.991C59.3413 217.966 59.0126 218.719 58.3553 219.252C57.7093 219.773 56.78 220.028 55.5673 220.017L51.7763 220V210.99H53.4083V214.033L55.8393 214.05ZM55.4483 218.776C56.1736 218.787 56.729 218.64 57.1143 218.334C57.4996 218.028 57.6923 217.575 57.6923 216.974C57.6923 216.385 57.4996 215.954 57.1143 215.682C56.7403 215.41 56.185 215.268 55.4483 215.257L53.4083 215.223V218.759L55.4483 218.776ZM72.1116 223.298C71.4656 222.267 70.967 221.077 70.6156 219.728C70.2643 218.368 70.0886 216.906 70.0886 215.342C70.0886 213.778 70.2643 212.316 70.6156 210.956C70.967 209.585 71.4656 208.395 72.1116 207.386H73.6586C72.9786 208.587 72.48 209.845 72.1626 211.16C71.8453 212.463 71.6866 213.857 71.6866 215.342C71.6866 216.827 71.8453 218.226 72.1626 219.541C72.48 220.844 72.9786 222.097 73.6586 223.298H72.1116ZM75.7822 220V210.99H79.9642C81.0182 210.99 81.8455 211.194 82.4462 211.602C83.0582 211.999 83.3642 212.565 83.3642 213.302C83.3642 214.039 83.0752 214.611 82.4972 215.019C81.9305 215.416 81.1768 215.614 80.2362 215.614L80.4912 215.172C81.5678 215.172 82.3668 215.37 82.8882 215.767C83.4095 216.164 83.6702 216.747 83.6702 217.518C83.6702 218.3 83.3755 218.912 82.7862 219.354C82.2082 219.785 81.3185 220 80.1172 220H75.7822ZM77.3802 218.742H79.9982C80.6782 218.742 81.1882 218.64 81.5282 218.436C81.8682 218.221 82.0382 217.881 82.0382 217.416C82.0382 216.94 81.8795 216.594 81.5622 216.379C81.2562 216.152 80.7688 216.039 80.1002 216.039H77.3802V218.742ZM77.3802 214.866H79.8282C80.4515 214.866 80.9218 214.753 81.2392 214.526C81.5678 214.288 81.7322 213.959 81.7322 213.54C81.7322 213.109 81.5678 212.786 81.2392 212.571C80.9218 212.356 80.4515 212.248 79.8282 212.248H77.3802V214.866ZM86.2246 220V210.99H87.8566V214.815H92.9906V210.99H94.6226V220H92.9906V216.226H87.8566V220H86.2246ZM101.808 220.102C100.845 220.102 99.9945 219.904 99.2578 219.507C98.5325 219.11 97.9658 218.566 97.5578 217.875C97.1612 217.184 96.9628 216.39 96.9628 215.495C96.9628 214.6 97.1555 213.806 97.5408 213.115C97.9375 212.424 98.4758 211.885 99.1558 211.5C99.8472 211.103 100.624 210.905 101.485 210.905C102.358 210.905 103.128 211.098 103.797 211.483C104.466 211.868 104.987 212.412 105.361 213.115C105.746 213.806 105.939 214.617 105.939 215.546C105.939 215.614 105.933 215.693 105.922 215.784C105.922 215.875 105.916 215.96 105.905 216.039H98.2378V214.866H105.055L104.392 215.274C104.403 214.696 104.284 214.18 104.035 213.727C103.786 213.274 103.44 212.922 102.998 212.673C102.567 212.412 102.063 212.282 101.485 212.282C100.918 212.282 100.414 212.412 99.9718 212.673C99.5298 212.922 99.1842 213.279 98.9348 213.744C98.6855 214.197 98.5608 214.719 98.5608 215.308V215.58C98.5608 216.181 98.6968 216.719 98.9688 217.195C99.2522 217.66 99.6432 218.022 100.142 218.283C100.641 218.544 101.213 218.674 101.859 218.674C102.392 218.674 102.873 218.583 103.304 218.402C103.746 218.221 104.131 217.949 104.46 217.586L105.361 218.64C104.953 219.116 104.443 219.479 103.831 219.728C103.23 219.977 102.556 220.102 101.808 220.102ZM114.475 219.235V212.418H110.565L110.48 214.152C110.458 214.719 110.418 215.268 110.361 215.801C110.316 216.322 110.237 216.804 110.123 217.246C110.021 217.688 109.868 218.051 109.664 218.334C109.46 218.617 109.188 218.793 108.848 218.861L107.233 218.572C107.585 218.583 107.868 218.47 108.083 218.232C108.299 217.983 108.463 217.643 108.576 217.212C108.701 216.781 108.792 216.294 108.848 215.75C108.905 215.195 108.95 214.622 108.984 214.033L109.12 210.99H116.107V219.235H114.475ZM106.876 222.091V218.572H117.484V222.091H115.954V220H108.423V222.091H106.876ZM123.469 220.102C122.563 220.102 121.758 219.904 121.055 219.507C120.353 219.11 119.797 218.566 119.389 217.875C118.981 217.172 118.777 216.379 118.777 215.495C118.777 214.6 118.981 213.806 119.389 213.115C119.797 212.424 120.353 211.885 121.055 211.5C121.758 211.103 122.563 210.905 123.469 210.905C124.365 210.905 125.164 211.103 125.866 211.5C126.58 211.885 127.136 212.424 127.532 213.115C127.94 213.795 128.144 214.588 128.144 215.495C128.144 216.39 127.94 217.184 127.532 217.875C127.136 218.566 126.58 219.11 125.866 219.507C125.164 219.904 124.365 220.102 123.469 220.102ZM123.469 218.674C124.047 218.674 124.563 218.544 125.016 218.283C125.481 218.022 125.844 217.654 126.104 217.178C126.365 216.691 126.495 216.13 126.495 215.495C126.495 214.849 126.365 214.294 126.104 213.829C125.844 213.353 125.481 212.985 125.016 212.724C124.563 212.463 124.047 212.333 123.469 212.333C122.891 212.333 122.376 212.463 121.922 212.724C121.469 212.985 121.106 213.353 120.834 213.829C120.562 214.294 120.426 214.849 120.426 215.495C120.426 216.13 120.562 216.691 120.834 217.178C121.106 217.654 121.469 218.022 121.922 218.283C122.376 218.544 122.891 218.674 123.469 218.674ZM135.278 220.102C134.53 220.102 133.844 219.932 133.221 219.592C132.609 219.241 132.116 218.725 131.742 218.045C131.379 217.365 131.198 216.515 131.198 215.495C131.198 214.475 131.374 213.625 131.725 212.945C132.088 212.265 132.575 211.755 133.187 211.415C133.81 211.075 134.507 210.905 135.278 210.905C136.162 210.905 136.944 211.098 137.624 211.483C138.304 211.868 138.842 212.407 139.239 213.098C139.636 213.778 139.834 214.577 139.834 215.495C139.834 216.413 139.636 217.218 139.239 217.909C138.842 218.6 138.304 219.139 137.624 219.524C136.944 219.909 136.162 220.102 135.278 220.102ZM130.501 223.298V210.99H132.065V213.421L131.963 215.512L132.133 217.603V223.298H130.501ZM135.142 218.674C135.72 218.674 136.236 218.544 136.689 218.283C137.154 218.022 137.516 217.654 137.777 217.178C138.049 216.691 138.185 216.13 138.185 215.495C138.185 214.849 138.049 214.294 137.777 213.829C137.516 213.353 137.154 212.985 136.689 212.724C136.236 212.463 135.72 212.333 135.142 212.333C134.575 212.333 134.06 212.463 133.595 212.724C133.142 212.985 132.779 213.353 132.507 213.829C132.246 214.294 132.116 214.849 132.116 215.495C132.116 216.13 132.246 216.691 132.507 217.178C132.779 217.654 133.142 218.022 133.595 218.283C134.06 218.544 134.575 218.674 135.142 218.674ZM146.064 220.102C145.157 220.102 144.353 219.904 143.65 219.507C142.947 219.11 142.392 218.566 141.984 217.875C141.576 217.172 141.372 216.379 141.372 215.495C141.372 214.6 141.576 213.806 141.984 213.115C142.392 212.424 142.947 211.885 143.65 211.5C144.353 211.103 145.157 210.905 146.064 210.905C146.959 210.905 147.758 211.103 148.461 211.5C149.175 211.885 149.73 212.424 150.127 213.115C150.535 213.795 150.739 214.588 150.739 215.495C150.739 216.39 150.535 217.184 150.127 217.875C149.73 218.566 149.175 219.11 148.461 219.507C147.758 219.904 146.959 220.102 146.064 220.102ZM146.064 218.674C146.642 218.674 147.158 218.544 147.611 218.283C148.076 218.022 148.438 217.654 148.699 217.178C148.96 216.691 149.09 216.13 149.09 215.495C149.09 214.849 148.96 214.294 148.699 213.829C148.438 213.353 148.076 212.985 147.611 212.724C147.158 212.463 146.642 212.333 146.064 212.333C145.486 212.333 144.97 212.463 144.517 212.724C144.064 212.985 143.701 213.353 143.429 213.829C143.157 214.294 143.021 214.849 143.021 215.495C143.021 216.13 143.157 216.691 143.429 217.178C143.701 217.654 144.064 218.022 144.517 218.283C144.97 218.544 145.486 218.674 146.064 218.674ZM163.49 220L160.617 215.614L161.96 214.798L165.428 220H163.49ZM158.747 216.192V214.798H161.671V216.192H158.747ZM162.113 215.682L160.566 215.478L163.439 210.99H165.19L162.113 215.682ZM153.375 220H151.437L154.888 214.798L156.231 215.614L153.375 220ZM159.24 220H157.608V210.99H159.24V220ZM158.101 216.192H155.194V214.798H158.101V216.192ZM154.752 215.682L151.675 210.99H153.409L156.282 215.478L154.752 215.682ZM167.224 220V210.99H168.856V214.815H173.99V210.99H175.622V220H173.99V216.226H168.856V220H167.224ZM178.795 220V210.99H180.427V217.552L185.952 210.99H187.431V220H185.799V213.438L180.291 220H178.795ZM197.127 220L193.642 215.614L194.985 214.798L199.048 220H197.127ZM190.599 220V210.99H192.231V220H190.599ZM191.738 216.192V214.798H194.713V216.192H191.738ZM195.121 215.682L193.608 215.478L197.059 210.99H198.81L195.121 215.682ZM201.269 223.298H199.722C200.413 222.097 200.917 220.844 201.235 219.541C201.552 218.226 201.711 216.827 201.711 215.342C201.711 213.857 201.552 212.463 201.235 211.16C200.917 209.845 200.413 208.587 199.722 207.386H201.269C201.937 208.395 202.442 209.585 202.782 210.956C203.133 212.316 203.309 213.778 203.309 215.342C203.309 216.906 203.133 218.368 202.782 219.728C202.442 221.077 201.937 222.267 201.269 223.298Z" fill="#434343"/>
</svg>
