<svg width="193" height="193" viewBox="0 0 193 193" fill="none" xmlns="http://www.w3.org/2000/svg">
<rect width="193" height="193" rx="35" fill="#00AAFF"/>
<path d="M35.1911 133V124.52H43.0471V133H41.5111V125.48L41.8791 125.864H36.3591L36.7271 125.48V133H35.1911ZM50.5153 133.096C49.8113 133.096 49.1659 132.936 48.5793 132.616C48.0033 132.285 47.5393 131.8 47.1873 131.16C46.8459 130.52 46.6753 129.72 46.6753 128.76C46.6753 127.8 46.8406 127 47.1713 126.36C47.5126 125.72 47.9713 125.24 48.5473 124.92C49.1339 124.6 49.7899 124.44 50.5153 124.44C51.3473 124.44 52.0833 124.621 52.7233 124.984C53.3633 125.347 53.8699 125.853 54.2433 126.504C54.6166 127.144 54.8033 127.896 54.8033 128.76C54.8033 129.624 54.6166 130.381 54.2433 131.032C53.8699 131.683 53.3633 132.189 52.7233 132.552C52.0833 132.915 51.3473 133.096 50.5153 133.096ZM46.0193 136.104V124.52H47.4913V126.808L47.3953 128.776L47.5553 130.744V136.104H46.0193ZM50.3873 131.752C50.9313 131.752 51.4166 131.629 51.8433 131.384C52.2806 131.139 52.6219 130.792 52.8673 130.344C53.1233 129.885 53.2513 129.357 53.2513 128.76C53.2513 128.152 53.1233 127.629 52.8673 127.192C52.6219 126.744 52.2806 126.397 51.8433 126.152C51.4166 125.907 50.9313 125.784 50.3873 125.784C49.8539 125.784 49.3686 125.907 48.9313 126.152C48.5046 126.397 48.1633 126.744 47.9073 127.192C47.6619 127.629 47.5393 128.152 47.5393 128.76C47.5393 129.357 47.6619 129.885 47.9073 130.344C48.1633 130.792 48.5046 131.139 48.9313 131.384C49.3686 131.629 49.8539 131.752 50.3873 131.752ZM57.0349 133V124.52H58.5709V130.696L63.7709 124.52H65.1629V133H63.6269V126.824L58.4429 133H57.0349ZM74.2883 133L71.0083 128.872L72.2723 128.104L76.0963 133H74.2883ZM68.1443 133V124.52H69.6803V133H68.1443ZM69.2163 129.416V128.104H72.0163V129.416H69.2163ZM72.4003 128.936L70.9763 128.744L74.2243 124.52H75.8723L72.4003 128.936ZM77.6544 136.2C77.249 136.2 76.8544 136.131 76.4704 135.992C76.0864 135.864 75.7557 135.672 75.4784 135.416L76.1344 134.264C76.3477 134.467 76.5824 134.621 76.8384 134.728C77.0944 134.835 77.3664 134.888 77.6544 134.888C78.0277 134.888 78.337 134.792 78.5824 134.6C78.8277 134.408 79.057 134.067 79.2704 133.576L79.7984 132.408L79.9584 132.216L83.2864 124.52H84.7904L80.6784 133.848C80.433 134.445 80.1557 134.915 79.8464 135.256C79.5477 135.597 79.217 135.837 78.8544 135.976C78.4917 136.125 78.0917 136.2 77.6544 136.2ZM79.6704 133.272L75.7984 124.52H77.3984L80.6944 132.072L79.6704 133.272ZM90.859 133.096C90.155 133.096 89.5097 132.936 88.923 132.616C88.347 132.285 87.883 131.8 87.531 131.16C87.1897 130.52 87.019 129.72 87.019 128.76C87.019 127.8 87.1843 127 87.515 126.36C87.8563 125.72 88.315 125.24 88.891 124.92C89.4777 124.6 90.1337 124.44 90.859 124.44C91.691 124.44 92.427 124.621 93.067 124.984C93.707 125.347 94.2137 125.853 94.587 126.504C94.9603 127.144 95.147 127.896 95.147 128.76C95.147 129.624 94.9603 130.381 94.587 131.032C94.2137 131.683 93.707 132.189 93.067 132.552C92.427 132.915 91.691 133.096 90.859 133.096ZM86.363 136.104V124.52H87.835V126.808L87.739 128.776L87.899 130.744V136.104H86.363ZM90.731 131.752C91.275 131.752 91.7603 131.629 92.187 131.384C92.6243 131.139 92.9657 130.792 93.211 130.344C93.467 129.885 93.595 129.357 93.595 128.76C93.595 128.152 93.467 127.629 93.211 127.192C92.9657 126.744 92.6243 126.397 92.187 126.152C91.7603 125.907 91.275 125.784 90.731 125.784C90.1977 125.784 89.7123 125.907 89.275 126.152C88.8483 126.397 88.507 126.744 88.251 127.192C88.0057 127.629 87.883 128.152 87.883 128.76C87.883 129.357 88.0057 129.885 88.251 130.344C88.507 130.792 88.8483 131.139 89.275 131.384C89.7123 131.629 90.1977 131.752 90.731 131.752ZM97.3786 133V124.52H98.9146V130.696L104.115 124.52H105.507V133H103.971V126.824L98.7866 133H97.3786ZM108.488 133V124.52H112.424C113.416 124.52 114.195 124.712 114.76 125.096C115.336 125.469 115.624 126.003 115.624 126.696C115.624 127.389 115.352 127.928 114.808 128.312C114.275 128.685 113.565 128.872 112.68 128.872L112.92 128.456C113.933 128.456 114.685 128.643 115.176 129.016C115.667 129.389 115.912 129.939 115.912 130.664C115.912 131.4 115.635 131.976 115.08 132.392C114.536 132.797 113.699 133 112.568 133H108.488ZM109.992 131.816H112.456C113.096 131.816 113.576 131.72 113.896 131.528C114.216 131.325 114.376 131.005 114.376 130.568C114.376 130.12 114.227 129.795 113.928 129.592C113.64 129.379 113.181 129.272 112.552 129.272H109.992V131.816ZM109.992 128.168H112.296C112.883 128.168 113.325 128.061 113.624 127.848C113.933 127.624 114.088 127.315 114.088 126.92C114.088 126.515 113.933 126.211 113.624 126.008C113.325 125.805 112.883 125.704 112.296 125.704H109.992V128.168ZM123.516 133V131.208L123.436 130.872V127.816C123.436 127.165 123.244 126.664 122.86 126.312C122.487 125.949 121.921 125.768 121.164 125.768C120.663 125.768 120.172 125.853 119.692 126.024C119.212 126.184 118.807 126.403 118.476 126.68L117.836 125.528C118.273 125.176 118.796 124.909 119.404 124.728C120.023 124.536 120.668 124.44 121.34 124.44C122.503 124.44 123.399 124.723 124.028 125.288C124.657 125.853 124.972 126.717 124.972 127.88V133H123.516ZM120.732 133.096C120.103 133.096 119.548 132.989 119.068 132.776C118.599 132.563 118.236 132.269 117.98 131.896C117.724 131.512 117.596 131.08 117.596 130.6C117.596 130.141 117.703 129.725 117.916 129.352C118.14 128.979 118.497 128.68 118.988 128.456C119.489 128.232 120.161 128.12 121.004 128.12H123.692V129.224H121.068C120.3 129.224 119.783 129.352 119.516 129.608C119.249 129.864 119.116 130.173 119.116 130.536C119.116 130.952 119.281 131.288 119.612 131.544C119.943 131.789 120.401 131.912 120.988 131.912C121.564 131.912 122.065 131.784 122.492 131.528C122.929 131.272 123.244 130.899 123.436 130.408L123.74 131.464C123.537 131.965 123.18 132.365 122.668 132.664C122.156 132.952 121.511 133.096 120.732 133.096ZM127.738 133V124.52H129.274V128.12H134.106V124.52H135.642V133H134.106V129.448H129.274V133H127.738ZM138.629 133V124.52H140.165V130.696L145.365 124.52H146.757V133H145.221V126.824L140.037 133H138.629ZM153.514 133.096C152.607 133.096 151.807 132.909 151.114 132.536C150.431 132.163 149.898 131.651 149.514 131C149.141 130.349 148.954 129.603 148.954 128.76C148.954 127.917 149.135 127.171 149.498 126.52C149.871 125.869 150.378 125.363 151.018 125C151.669 124.627 152.399 124.44 153.21 124.44C154.031 124.44 154.757 124.621 155.386 124.984C156.015 125.347 156.506 125.859 156.858 126.52C157.221 127.171 157.402 127.933 157.402 128.808C157.402 128.872 157.397 128.947 157.386 129.032C157.386 129.117 157.381 129.197 157.37 129.272H150.154V128.168H156.57L155.946 128.552C155.957 128.008 155.845 127.523 155.61 127.096C155.375 126.669 155.05 126.339 154.634 126.104C154.229 125.859 153.754 125.736 153.21 125.736C152.677 125.736 152.202 125.859 151.786 126.104C151.37 126.339 151.045 126.675 150.81 127.112C150.575 127.539 150.458 128.029 150.458 128.584V128.84C150.458 129.405 150.586 129.912 150.842 130.36C151.109 130.797 151.477 131.139 151.946 131.384C152.415 131.629 152.954 131.752 153.562 131.752C154.063 131.752 154.517 131.667 154.922 131.496C155.338 131.325 155.701 131.069 156.01 130.728L156.858 131.72C156.474 132.168 155.994 132.509 155.418 132.744C154.853 132.979 154.218 133.096 153.514 133.096ZM51.7974 153V151.208L51.7174 150.872V147.816C51.7174 147.165 51.5254 146.664 51.1414 146.312C50.768 145.949 50.2027 145.768 49.4454 145.768C48.944 145.768 48.4534 145.853 47.9734 146.024C47.4934 146.184 47.088 146.403 46.7574 146.68L46.1174 145.528C46.5547 145.176 47.0774 144.909 47.6854 144.728C48.304 144.536 48.9494 144.44 49.6214 144.44C50.784 144.44 51.68 144.723 52.3094 145.288C52.9387 145.853 53.2534 146.717 53.2534 147.88V153H51.7974ZM49.0134 153.096C48.384 153.096 47.8294 152.989 47.3494 152.776C46.88 152.563 46.5174 152.269 46.2614 151.896C46.0054 151.512 45.8774 151.08 45.8774 150.6C45.8774 150.141 45.984 149.725 46.1974 149.352C46.4214 148.979 46.7787 148.68 47.2694 148.456C47.7707 148.232 48.4427 148.12 49.2854 148.12H51.9734V149.224H49.3494C48.5814 149.224 48.064 149.352 47.7974 149.608C47.5307 149.864 47.3974 150.173 47.3974 150.536C47.3974 150.952 47.5627 151.288 47.8934 151.544C48.224 151.789 48.6827 151.912 49.2694 151.912C49.8454 151.912 50.3467 151.784 50.7734 151.528C51.2107 151.272 51.5254 150.899 51.7174 150.408L52.0214 151.464C51.8187 151.965 51.4614 152.365 50.9494 152.664C50.4374 152.952 49.792 153.096 49.0134 153.096ZM56.0193 153V144.52H59.9553C60.9473 144.52 61.7259 144.712 62.2913 145.096C62.8673 145.469 63.1553 146.003 63.1553 146.696C63.1553 147.389 62.8833 147.928 62.3393 148.312C61.8059 148.685 61.0966 148.872 60.2113 148.872L60.4513 148.456C61.4646 148.456 62.2166 148.643 62.7073 149.016C63.1979 149.389 63.4433 149.939 63.4433 150.664C63.4433 151.4 63.1659 151.976 62.6112 152.392C62.0673 152.797 61.2299 153 60.0993 153H56.0193ZM57.5233 151.816H59.9873C60.6273 151.816 61.1073 151.72 61.4273 151.528C61.7473 151.325 61.9073 151.005 61.9073 150.568C61.9073 150.12 61.7579 149.795 61.4593 149.592C61.1713 149.379 60.7126 149.272 60.0833 149.272H57.5233V151.816ZM57.5233 148.168H59.8273C60.4139 148.168 60.8566 148.061 61.1553 147.848C61.4646 147.624 61.6193 147.315 61.6193 146.92C61.6193 146.515 61.4646 146.211 61.1553 146.008C60.8566 145.805 60.4139 145.704 59.8273 145.704H57.5233V148.168ZM67.5274 153V145.464L67.9114 145.864H64.4234V144.52H72.1674V145.864H68.6954L69.0634 145.464V153H67.5274ZM76.995 153.096C76.1417 153.096 75.3843 152.909 74.723 152.536C74.0617 152.163 73.539 151.651 73.155 151C72.771 150.339 72.579 149.592 72.579 148.76C72.579 147.917 72.771 147.171 73.155 146.52C73.539 145.869 74.0617 145.363 74.723 145C75.3843 144.627 76.1417 144.44 76.995 144.44C77.8377 144.44 78.5897 144.627 79.251 145C79.923 145.363 80.4457 145.869 80.819 146.52C81.203 147.16 81.395 147.907 81.395 148.76C81.395 149.603 81.203 150.349 80.819 151C80.4457 151.651 79.923 152.163 79.251 152.536C78.5897 152.909 77.8377 153.096 76.995 153.096ZM76.995 151.752C77.539 151.752 78.0243 151.629 78.451 151.384C78.8883 151.139 79.2297 150.792 79.475 150.344C79.7203 149.885 79.843 149.357 79.843 148.76C79.843 148.152 79.7203 147.629 79.475 147.192C79.2297 146.744 78.8883 146.397 78.451 146.152C78.0243 145.907 77.539 145.784 76.995 145.784C76.451 145.784 75.9657 145.907 75.539 146.152C75.1123 146.397 74.771 146.744 74.515 147.192C74.259 147.629 74.131 148.152 74.131 148.76C74.131 149.357 74.259 149.885 74.515 150.344C74.771 150.792 75.1123 151.139 75.539 151.384C75.9657 151.629 76.451 151.752 76.995 151.752ZM83.613 153V144.52H85.197L88.845 150.792H88.205L91.949 144.52H93.389V153H91.997V146.248L92.253 146.392L88.829 152.04H88.157L84.717 146.28L85.021 146.216V153H83.613ZM100.011 153.096C99.1573 153.096 98.4 152.909 97.7386 152.536C97.0773 152.163 96.5546 151.651 96.1706 151C95.7866 150.339 95.5946 149.592 95.5946 148.76C95.5946 147.917 95.7866 147.171 96.1706 146.52C96.5546 145.869 97.0773 145.363 97.7386 145C98.4 144.627 99.1573 144.44 100.011 144.44C100.853 144.44 101.605 144.627 102.267 145C102.939 145.363 103.461 145.869 103.835 146.52C104.219 147.16 104.411 147.907 104.411 148.76C104.411 149.603 104.219 150.349 103.835 151C103.461 151.651 102.939 152.163 102.267 152.536C101.605 152.909 100.853 153.096 100.011 153.096ZM100.011 151.752C100.555 151.752 101.04 151.629 101.467 151.384C101.904 151.139 102.245 150.792 102.491 150.344C102.736 149.885 102.859 149.357 102.859 148.76C102.859 148.152 102.736 147.629 102.491 147.192C102.245 146.744 101.904 146.397 101.467 146.152C101.04 145.907 100.555 145.784 100.011 145.784C99.4666 145.784 98.9813 145.907 98.5546 146.152C98.128 146.397 97.7866 146.744 97.5306 147.192C97.2746 147.629 97.1466 148.152 97.1466 148.76C97.1466 149.357 97.2746 149.885 97.5306 150.344C97.7866 150.792 98.128 151.139 98.5546 151.384C98.9813 151.629 99.4666 151.752 100.011 151.752ZM110.549 153.128C109.845 153.128 109.221 153.016 108.677 152.792C108.143 152.568 107.685 152.237 107.301 151.8C106.917 151.352 106.623 150.792 106.421 150.12C106.229 149.437 106.133 148.637 106.133 147.72C106.133 146.995 106.197 146.344 106.325 145.768C106.453 145.192 106.634 144.68 106.869 144.232C107.114 143.784 107.413 143.395 107.765 143.064C108.127 142.733 108.533 142.461 108.981 142.248C109.439 142.024 109.941 141.853 110.485 141.736L114.357 140.872L114.581 142.296L111.013 143.064C110.799 143.107 110.543 143.171 110.245 143.256C109.946 143.341 109.642 143.475 109.333 143.656C109.023 143.827 108.735 144.067 108.469 144.376C108.202 144.685 107.989 145.091 107.829 145.592C107.669 146.083 107.589 146.691 107.589 147.416C107.589 147.619 107.594 147.773 107.605 147.88C107.615 147.987 107.626 148.093 107.637 148.2C107.658 148.307 107.674 148.467 107.685 148.68L107.045 148.024C107.215 147.437 107.487 146.925 107.861 146.488C108.234 146.051 108.682 145.715 109.205 145.48C109.738 145.235 110.319 145.112 110.949 145.112C111.738 145.112 112.437 145.283 113.045 145.624C113.663 145.965 114.149 146.435 114.501 147.032C114.853 147.629 115.029 148.312 115.029 149.08C115.029 149.859 114.842 150.557 114.469 151.176C114.106 151.784 113.589 152.264 112.917 152.616C112.245 152.957 111.455 153.128 110.549 153.128ZM110.693 151.848C111.237 151.848 111.717 151.731 112.133 151.496C112.549 151.251 112.874 150.925 113.109 150.52C113.343 150.104 113.461 149.64 113.461 149.128C113.461 148.616 113.343 148.163 113.109 147.768C112.874 147.373 112.549 147.064 112.133 146.84C111.717 146.605 111.226 146.488 110.661 146.488C110.127 146.488 109.647 146.6 109.221 146.824C108.794 147.037 108.463 147.341 108.229 147.736C107.994 148.12 107.877 148.568 107.877 149.08C107.877 149.592 107.994 150.061 108.229 150.488C108.474 150.904 108.805 151.235 109.221 151.48C109.647 151.725 110.138 151.848 110.693 151.848ZM117.222 153V144.52H118.758V150.696L123.958 144.52H125.35V153H123.814V146.824L118.63 153H117.222ZM126.924 152.984L127.02 151.688C127.094 151.699 127.164 151.709 127.228 151.72C127.292 151.731 127.35 151.736 127.404 151.736C127.745 151.736 128.012 151.619 128.204 151.384C128.406 151.149 128.556 150.84 128.652 150.456C128.748 150.061 128.817 149.619 128.86 149.128C128.902 148.637 128.934 148.147 128.956 147.656L129.1 144.52H135.612V153H134.076V145.416L134.444 145.864H130.092L130.444 145.4L130.332 147.752C130.3 148.499 130.241 149.197 130.156 149.848C130.07 150.499 129.937 151.069 129.756 151.56C129.585 152.051 129.345 152.435 129.036 152.712C128.737 152.989 128.348 153.128 127.868 153.128C127.729 153.128 127.58 153.112 127.42 153.08C127.27 153.059 127.105 153.027 126.924 152.984ZM144.006 153V150.024L144.246 150.312H141.542C140.411 150.312 139.526 150.072 138.886 149.592C138.256 149.112 137.942 148.413 137.942 147.496C137.942 146.515 138.278 145.773 138.95 145.272C139.632 144.771 140.539 144.52 141.67 144.52H145.382V153H144.006ZM137.862 153L140.166 149.752H141.75L139.51 153H137.862ZM144.006 149.544V145.432L144.246 145.864H141.718C141.014 145.864 140.47 145.997 140.086 146.264C139.702 146.52 139.51 146.947 139.51 147.544C139.51 148.653 140.224 149.208 141.654 149.208H144.246L144.006 149.544Z" fill="white"/>
<path d="M90.402 37.826C88.6967 38.8471 86.9908 40.3489 83.3986 44.0287C80.6214 46.8521 80.5763 46.8976 80.1084 46.7623C79.1574 46.4917 78.8554 46.7324 74.7651 50.7725C72.622 52.9052 70.7657 54.8277 70.6448 55.0527C70.4036 55.5035 70.3729 56.3444 70.5696 56.6598C70.6755 56.825 70.5396 57.0657 70.1017 57.5613C68.5474 59.3186 67.1886 61.7816 66.6304 63.8693C66.2232 65.3711 66.1925 67.9095 66.5552 69.291C67.0983 71.3039 68.2912 73.3611 69.9663 75.1633L70.8873 76.1694L70.9173 84.5497L70.9624 92.9449L71.3703 93.8008C71.9285 94.9871 72.8494 95.9334 74.0416 96.5194L75.0377 97H95.6393H116.241L117.102 96.5942C118.309 96.0387 119.35 95.017 119.879 93.8756L120.317 92.9442L120.362 85.9305L120.407 78.9317L121.66 78.0303C124.029 76.3028 125.961 74.1104 126.867 72.113C127.501 70.7017 127.712 69.68 127.697 68.013C127.682 66.7363 127.607 66.3012 127.199 65.0843C126.384 62.6812 124.633 60.0978 122.43 58.0406C121.48 57.1698 121.419 57.0794 121.585 56.734C121.811 56.2235 121.796 55.5327 121.54 55.0521C121.419 54.8271 119.563 52.9045 117.419 50.7719C113.359 46.7467 113.027 46.4917 112.106 46.7617C111.669 46.882 111.533 46.7617 108.288 43.5026C104.545 39.7479 103.488 38.8321 101.662 37.7356L100.409 37L100.062 37.3304C99.8361 37.5405 99.7152 37.826 99.7152 38.1564C99.7152 38.6071 99.7603 38.652 100.153 38.652C100.621 38.652 100.772 38.8621 100.772 39.5684C100.772 39.9892 100.802 40.0041 101.436 40.0041H102.115L102.16 40.7098L102.205 41.4304L102.884 41.5052C103.564 41.58 103.564 41.58 103.609 42.2109L103.654 42.8567H104.318H104.983L105.028 43.5624C105.073 44.2831 105.073 44.2831 105.647 44.3286C106.024 44.3585 106.205 44.4489 106.16 44.5536C106.13 44.659 106.009 44.9894 105.903 45.2898C105.737 45.7405 105.616 45.8453 105.163 45.9357C104.861 45.9806 104.439 46.056 104.212 46.1009C103.835 46.1757 103.82 46.1607 103.895 45.5903C103.97 45.0043 103.97 44.9894 103.397 44.8541C102.808 44.7188 102.808 44.7188 102.839 44.0131L102.854 43.3075L102.22 43.1423C101.586 42.992 101.586 42.992 101.586 42.2863C101.601 41.6106 101.586 41.5956 101.028 41.4604C100.454 41.3251 100.454 41.3251 100.5 40.6344C100.545 39.9436 100.545 39.9436 99.9407 39.7635C99.3975 39.6133 99.3368 39.5534 99.3825 39.1476C99.4276 38.7573 99.3675 38.6819 99.0054 38.6071C98.7792 38.5622 98.4772 38.5921 98.3563 38.6669C97.7223 39.0273 97.7223 38.9973 98.2204 40.3944C98.9145 42.3618 99.2616 42.9627 102.416 47.6481C105.238 51.8685 105.283 51.9283 105.057 52.3341C104.589 53.2356 104.68 53.4157 108 58.3866C109.736 60.97 111.321 63.2073 111.502 63.3426C112.121 63.7783 112.996 63.658 114.023 62.9972C115.079 62.3065 115.442 61.6002 115.14 60.7592C114.883 60.023 108.951 51.2974 108.514 51.0119C108.273 50.8467 107.82 50.7414 107.382 50.7414C106.672 50.7414 106.657 50.7264 106.114 49.8705L105.571 48.9996L106.129 48.3239C106.491 47.8881 107.049 47.468 107.699 47.1376L108.725 46.627L109.48 47.4081C110.189 48.1443 110.219 48.2191 110.084 48.6699C109.752 49.7359 109.858 49.8861 114.249 54.2267C117.012 56.9753 118.491 58.3417 118.793 58.4172C119.019 58.477 119.457 58.4471 119.729 58.3573C120.257 58.2071 120.257 58.2071 121.57 59.4988C126.158 64.0495 127.29 68.435 124.89 72.4148C124.271 73.4209 122.747 75.0879 121.464 76.1545L120.483 76.9505L120.212 75.854C120.046 75.1932 119.729 74.457 119.396 73.9919C118.717 73.0157 117.359 72.0694 116.272 71.8444C115.713 71.724 109.843 71.6941 95.1876 71.724L74.8873 71.7689L74.0272 72.1897C73.469 72.4603 72.865 72.9409 72.3219 73.5412L71.4768 74.4726L70.9487 73.8716C69.7264 72.4752 68.7754 70.8681 68.2316 69.291C68.0055 68.6601 67.9447 68.0442 67.9447 66.6627C67.9597 65.0407 68.0049 64.7253 68.4277 63.5389C68.9408 62.0671 69.967 60.2799 71.0689 58.9284C71.7781 58.0575 71.7932 58.0425 72.201 58.2676C72.7291 58.5381 73.2121 58.5381 73.7252 58.2676C73.9514 58.1472 75.9442 56.2403 78.1776 54.0173C82.192 49.9921 82.2077 49.9771 82.2077 49.3313C82.2077 48.9859 82.1475 48.5801 82.0717 48.4299C81.9508 48.2198 82.0717 48.0091 82.7057 47.3938L83.5057 46.6127L84.5169 47.1531C85.392 47.6039 86.5849 48.7303 86.5849 49.0757C86.5849 49.1355 86.3437 49.5264 86.0567 49.9615C85.5437 50.7277 85.4985 50.7426 84.8038 50.7426C84.3659 50.7426 83.9129 50.848 83.6717 51.0132C83.1587 51.3436 77.2272 60.1745 77.0311 60.8802C76.805 61.6912 77.2122 62.4119 78.2534 63.0577C79.2044 63.6437 80.0946 63.7484 80.6835 63.3432C80.8645 63.2079 82.4495 60.9706 84.1848 58.3872C87.5202 53.4014 87.611 53.2056 87.128 52.2899C86.9319 51.9146 86.9921 51.7793 89.7843 47.6338C92.9235 42.9633 93.2706 42.3624 93.9647 40.395C94.4628 38.998 94.4628 39.0285 93.8288 38.6676C93.7079 38.5928 93.4059 38.5622 93.1798 38.6077C92.8177 38.6825 92.7569 38.758 92.8026 39.1482C92.8477 39.554 92.7876 39.6139 92.2444 39.7641C91.6405 39.9443 91.6405 39.9443 91.6862 40.635C91.7313 41.3257 91.7314 41.3257 91.1581 41.461C90.5849 41.5963 90.5849 41.6112 90.615 42.287L90.63 42.9777L89.981 43.1429L89.332 43.3081L89.347 44.0138C89.3771 44.7194 89.3771 44.7194 88.7888 44.8547C88.2149 44.99 88.2149 45.0049 88.2908 45.5909C88.3659 46.1613 88.3509 46.1769 87.9738 46.1015C87.7476 46.0566 87.3247 45.9812 87.0228 45.9213C86.5548 45.8465 86.4495 45.7561 86.2986 45.2905C86.1927 44.975 86.0724 44.6596 86.0417 44.5542C85.9966 44.4339 86.1626 44.3591 86.5398 44.3292C87.0979 44.2843 87.113 44.2693 87.1888 43.6086C87.264 42.9328 87.264 42.9328 87.913 42.8879C88.5169 42.843 88.547 42.8131 88.547 42.3624C88.547 41.6866 88.698 41.5364 89.3771 41.4766L89.981 41.4317L90.0261 40.711L90.0712 40.0054H90.7503C91.3392 40.0054 91.4144 39.9605 91.4144 39.66C91.4144 38.9238 91.5804 38.6539 92.0333 38.6539C92.4255 38.6539 92.4712 38.609 92.4712 38.1583C92.4712 37.8279 92.3503 37.5424 92.1242 37.3323L91.7771 37.0168L90.402 37.826ZM107.834 76.6039C107.713 76.7542 105.555 79.4422 103.035 82.581C100.53 85.7198 98.3413 88.4234 98.1903 88.5736C97.9341 88.8592 97.9034 88.8143 97.1942 87.4173C96.802 86.6062 96.4243 85.9604 96.3641 85.9604C96.289 85.9604 93.3 87.4173 89.7235 89.2045C86.1307 90.9918 83.2783 92.3582 83.3535 92.2529C85.1646 89.9401 93.3 79.9528 93.3602 79.9528C93.4203 79.9528 93.768 80.5687 94.1301 81.3193C94.5073 82.0704 94.8393 82.7013 94.885 82.7312C94.9308 82.7612 97.8583 81.3342 101.375 79.5775C104.907 77.8052 107.849 76.3633 107.925 76.3484C108 76.3484 107.955 76.4687 107.834 76.6039Z" fill="white"/>
</svg>
