<svg width="160" height="160" viewBox="0 0 160 160" fill="none" xmlns="http://www.w3.org/2000/svg">
<rect width="160" height="160" rx="30" fill="#00AAFF"/>
<path d="M22.9917 101V93.05H30.3567V101H28.9167V93.95L29.2617 94.31H24.0867L24.4317 93.95V101H22.9917ZM37.358 101.09C36.698 101.09 36.093 100.94 35.543 100.64C35.003 100.33 34.568 99.875 34.238 99.275C33.918 98.675 33.758 97.925 33.758 97.025C33.758 96.125 33.913 95.375 34.223 94.775C34.543 94.175 34.973 93.725 35.513 93.425C36.063 93.125 36.678 92.975 37.358 92.975C38.138 92.975 38.828 93.145 39.428 93.485C40.028 93.825 40.503 94.3 40.853 94.91C41.203 95.51 41.378 96.215 41.378 97.025C41.378 97.835 41.203 98.545 40.853 99.155C40.503 99.765 40.028 100.24 39.428 100.58C38.828 100.92 38.138 101.09 37.358 101.09ZM33.143 103.91V93.05H34.523V95.195L34.433 97.04L34.583 98.885V103.91H33.143ZM37.238 99.83C37.748 99.83 38.203 99.715 38.603 99.485C39.013 99.255 39.333 98.93 39.563 98.51C39.803 98.08 39.923 97.585 39.923 97.025C39.923 96.455 39.803 95.965 39.563 95.555C39.333 95.135 39.013 94.81 38.603 94.58C38.203 94.35 37.748 94.235 37.238 94.235C36.738 94.235 36.283 94.35 35.873 94.58C35.473 94.81 35.153 95.135 34.913 95.555C34.683 95.965 34.568 96.455 34.568 97.025C34.568 97.585 34.683 98.08 34.913 98.51C35.153 98.93 35.473 99.255 35.873 99.485C36.283 99.715 36.738 99.83 37.238 99.83ZM43.4702 101V93.05H44.9102V98.84L49.7852 93.05H51.0902V101H49.6502V95.21L44.7902 101H43.4702ZM59.6452 101L56.5702 97.13L57.7552 96.41L61.3402 101H59.6452ZM53.8852 101V93.05H55.3252V101H53.8852ZM54.8902 97.64V96.41H57.5152V97.64H54.8902ZM57.8752 97.19L56.5402 97.01L59.5852 93.05H61.1302L57.8752 97.19ZM62.801 104C62.421 104 62.051 103.935 61.691 103.805C61.331 103.685 61.021 103.505 60.761 103.265L61.376 102.185C61.576 102.375 61.796 102.52 62.036 102.62C62.276 102.72 62.531 102.77 62.801 102.77C63.151 102.77 63.441 102.68 63.671 102.5C63.901 102.32 64.116 102 64.316 101.54L64.811 100.445L64.961 100.265L68.081 93.05H69.491L65.636 101.795C65.406 102.355 65.146 102.795 64.856 103.115C64.576 103.435 64.266 103.66 63.926 103.79C63.586 103.93 63.211 104 62.801 104ZM64.691 101.255L61.061 93.05H62.561L65.651 100.13L64.691 101.255ZM75.1803 101.09C74.5203 101.09 73.9153 100.94 73.3653 100.64C72.8253 100.33 72.3903 99.875 72.0603 99.275C71.7403 98.675 71.5803 97.925 71.5803 97.025C71.5803 96.125 71.7353 95.375 72.0453 94.775C72.3653 94.175 72.7953 93.725 73.3353 93.425C73.8853 93.125 74.5003 92.975 75.1803 92.975C75.9603 92.975 76.6503 93.145 77.2503 93.485C77.8503 93.825 78.3253 94.3 78.6753 94.91C79.0253 95.51 79.2003 96.215 79.2003 97.025C79.2003 97.835 79.0253 98.545 78.6753 99.155C78.3253 99.765 77.8503 100.24 77.2503 100.58C76.6503 100.92 75.9603 101.09 75.1803 101.09ZM70.9653 103.91V93.05H72.3453V95.195L72.2553 97.04L72.4053 98.885V103.91H70.9653ZM75.0603 99.83C75.5703 99.83 76.0253 99.715 76.4253 99.485C76.8353 99.255 77.1553 98.93 77.3853 98.51C77.6253 98.08 77.7453 97.585 77.7453 97.025C77.7453 96.455 77.6253 95.965 77.3853 95.555C77.1553 95.135 76.8353 94.81 76.4253 94.58C76.0253 94.35 75.5703 94.235 75.0603 94.235C74.5603 94.235 74.1053 94.35 73.6953 94.58C73.2953 94.81 72.9753 95.135 72.7353 95.555C72.5053 95.965 72.3903 96.455 72.3903 97.025C72.3903 97.585 72.5053 98.08 72.7353 98.51C72.9753 98.93 73.2953 99.255 73.6953 99.485C74.1053 99.715 74.5603 99.83 75.0603 99.83ZM81.2925 101V93.05H82.7325V98.84L87.6075 93.05H88.9125V101H87.4725V95.21L82.6125 101H81.2925ZM91.7075 101V93.05H95.3975C96.3275 93.05 97.0575 93.23 97.5875 93.59C98.1275 93.94 98.3975 94.44 98.3975 95.09C98.3975 95.74 98.1425 96.245 97.6325 96.605C97.1325 96.955 96.4675 97.13 95.6375 97.13L95.8625 96.74C96.8125 96.74 97.5175 96.915 97.9775 97.265C98.4375 97.615 98.6675 98.13 98.6675 98.81C98.6675 99.5 98.4075 100.04 97.8875 100.43C97.3775 100.81 96.5925 101 95.5325 101H91.7075ZM93.1175 99.89H95.4275C96.0275 99.89 96.4775 99.8 96.7775 99.62C97.0775 99.43 97.2275 99.13 97.2275 98.72C97.2275 98.3 97.0875 97.995 96.8075 97.805C96.5375 97.605 96.1075 97.505 95.5175 97.505H93.1175V99.89ZM93.1175 96.47H95.2775C95.8275 96.47 96.2425 96.37 96.5225 96.17C96.8125 95.96 96.9575 95.67 96.9575 95.3C96.9575 94.92 96.8125 94.635 96.5225 94.445C96.2425 94.255 95.8275 94.16 95.2775 94.16H93.1175V96.47ZM105.796 101V99.32L105.721 99.005V96.14C105.721 95.53 105.541 95.06 105.181 94.73C104.831 94.39 104.301 94.22 103.591 94.22C103.121 94.22 102.661 94.3 102.211 94.46C101.761 94.61 101.381 94.815 101.071 95.075L100.471 93.995C100.881 93.665 101.371 93.415 101.941 93.245C102.521 93.065 103.126 92.975 103.756 92.975C104.846 92.975 105.686 93.24 106.276 93.77C106.866 94.3 107.161 95.11 107.161 96.2V101H105.796ZM103.186 101.09C102.596 101.09 102.076 100.99 101.626 100.79C101.186 100.59 100.846 100.315 100.606 99.965C100.366 99.605 100.246 99.2 100.246 98.75C100.246 98.32 100.346 97.93 100.546 97.58C100.756 97.23 101.091 96.95 101.551 96.74C102.021 96.53 102.651 96.425 103.441 96.425H105.961V97.46H103.501C102.781 97.46 102.296 97.58 102.046 97.82C101.796 98.06 101.671 98.35 101.671 98.69C101.671 99.08 101.826 99.395 102.136 99.635C102.446 99.865 102.876 99.98 103.426 99.98C103.966 99.98 104.436 99.86 104.836 99.62C105.246 99.38 105.541 99.03 105.721 98.57L106.006 99.56C105.816 100.03 105.481 100.405 105.001 100.685C104.521 100.955 103.916 101.09 103.186 101.09ZM109.754 101V93.05H111.194V96.425H115.724V93.05H117.164V101H115.724V97.67H111.194V101H109.754ZM119.964 101V93.05H121.404V98.84L126.279 93.05H127.584V101H126.144V95.21L121.284 101H119.964ZM133.919 101.09C133.069 101.09 132.319 100.915 131.669 100.565C131.029 100.215 130.529 99.735 130.169 99.125C129.819 98.515 129.644 97.815 129.644 97.025C129.644 96.235 129.814 95.535 130.154 94.925C130.504 94.315 130.979 93.84 131.579 93.5C132.189 93.15 132.874 92.975 133.634 92.975C134.404 92.975 135.084 93.145 135.674 93.485C136.264 93.825 136.724 94.305 137.054 94.925C137.394 95.535 137.564 96.25 137.564 97.07C137.564 97.13 137.559 97.2 137.549 97.28C137.549 97.36 137.544 97.435 137.534 97.505H130.769V96.47H136.784L136.199 96.83C136.209 96.32 136.104 95.865 135.884 95.465C135.664 95.065 135.359 94.755 134.969 94.535C134.589 94.305 134.144 94.19 133.634 94.19C133.134 94.19 132.689 94.305 132.299 94.535C131.909 94.755 131.604 95.07 131.384 95.48C131.164 95.88 131.054 96.34 131.054 96.86V97.1C131.054 97.63 131.174 98.105 131.414 98.525C131.664 98.935 132.009 99.255 132.449 99.485C132.889 99.715 133.394 99.83 133.964 99.83C134.434 99.83 134.859 99.75 135.239 99.59C135.629 99.43 135.969 99.19 136.259 98.87L137.054 99.8C136.694 100.22 136.244 100.54 135.704 100.76C135.174 100.98 134.579 101.09 133.919 101.09ZM38.56 119V117.32L38.485 117.005V114.14C38.485 113.53 38.305 113.06 37.945 112.73C37.595 112.39 37.065 112.22 36.355 112.22C35.885 112.22 35.425 112.3 34.975 112.46C34.525 112.61 34.145 112.815 33.835 113.075L33.235 111.995C33.645 111.665 34.135 111.415 34.705 111.245C35.285 111.065 35.89 110.975 36.52 110.975C37.61 110.975 38.45 111.24 39.04 111.77C39.63 112.3 39.925 113.11 39.925 114.2V119H38.56ZM35.95 119.09C35.36 119.09 34.84 118.99 34.39 118.79C33.95 118.59 33.61 118.315 33.37 117.965C33.13 117.605 33.01 117.2 33.01 116.75C33.01 116.32 33.11 115.93 33.31 115.58C33.52 115.23 33.855 114.95 34.315 114.74C34.785 114.53 35.415 114.425 36.205 114.425H38.725V115.46H36.265C35.545 115.46 35.06 115.58 34.81 115.82C34.56 116.06 34.435 116.35 34.435 116.69C34.435 117.08 34.59 117.395 34.9 117.635C35.21 117.865 35.64 117.98 36.19 117.98C36.73 117.98 37.2 117.86 37.6 117.62C38.01 117.38 38.305 117.03 38.485 116.57L38.77 117.56C38.58 118.03 38.245 118.405 37.765 118.685C37.285 118.955 36.68 119.09 35.95 119.09ZM42.518 119V111.05H46.208C47.138 111.05 47.868 111.23 48.398 111.59C48.938 111.94 49.208 112.44 49.208 113.09C49.208 113.74 48.953 114.245 48.443 114.605C47.943 114.955 47.278 115.13 46.448 115.13L46.673 114.74C47.623 114.74 48.328 114.915 48.788 115.265C49.248 115.615 49.478 116.13 49.478 116.81C49.478 117.5 49.218 118.04 48.698 118.43C48.188 118.81 47.403 119 46.343 119H42.518ZM43.928 117.89H46.238C46.838 117.89 47.288 117.8 47.588 117.62C47.888 117.43 48.038 117.13 48.038 116.72C48.038 116.3 47.898 115.995 47.618 115.805C47.348 115.605 46.918 115.505 46.328 115.505H43.928V117.89ZM43.928 114.47H46.088C46.638 114.47 47.053 114.37 47.333 114.17C47.623 113.96 47.768 113.67 47.768 113.3C47.768 112.92 47.623 112.635 47.333 112.445C47.053 112.255 46.638 112.16 46.088 112.16H43.928V114.47ZM53.3069 119V111.935L53.6669 112.31H50.3969V111.05H57.6569V112.31H54.4019L54.7469 111.935V119H53.3069ZM62.1828 119.09C61.3828 119.09 60.6728 118.915 60.0528 118.565C59.4328 118.215 58.9428 117.735 58.5828 117.125C58.2228 116.505 58.0428 115.805 58.0428 115.025C58.0428 114.235 58.2228 113.535 58.5828 112.925C58.9428 112.315 59.4328 111.84 60.0528 111.5C60.6728 111.15 61.3828 110.975 62.1828 110.975C62.9728 110.975 63.6778 111.15 64.2978 111.5C64.9278 111.84 65.4178 112.315 65.7678 112.925C66.1278 113.525 66.3078 114.225 66.3078 115.025C66.3078 115.815 66.1278 116.515 65.7678 117.125C65.4178 117.735 64.9278 118.215 64.2978 118.565C63.6778 118.915 62.9728 119.09 62.1828 119.09ZM62.1828 117.83C62.6928 117.83 63.1478 117.715 63.5478 117.485C63.9578 117.255 64.2778 116.93 64.5078 116.51C64.7378 116.08 64.8528 115.585 64.8528 115.025C64.8528 114.455 64.7378 113.965 64.5078 113.555C64.2778 113.135 63.9578 112.81 63.5478 112.58C63.1478 112.35 62.6928 112.235 62.1828 112.235C61.6728 112.235 61.2178 112.35 60.8178 112.58C60.4178 112.81 60.0978 113.135 59.8578 113.555C59.6178 113.965 59.4978 114.455 59.4978 115.025C59.4978 115.585 59.6178 116.08 59.8578 116.51C60.0978 116.93 60.4178 117.255 60.8178 117.485C61.2178 117.715 61.6728 117.83 62.1828 117.83ZM68.3872 119V111.05H69.8722L73.2922 116.93H72.6922L76.2022 111.05H77.5522V119H76.2472V112.67L76.4872 112.805L73.2772 118.1H72.6472L69.4222 112.7L69.7072 112.64V119H68.3872ZM83.76 119.09C82.96 119.09 82.25 118.915 81.63 118.565C81.01 118.215 80.52 117.735 80.16 117.125C79.8 116.505 79.62 115.805 79.62 115.025C79.62 114.235 79.8 113.535 80.16 112.925C80.52 112.315 81.01 111.84 81.63 111.5C82.25 111.15 82.96 110.975 83.76 110.975C84.55 110.975 85.255 111.15 85.875 111.5C86.505 111.84 86.995 112.315 87.345 112.925C87.705 113.525 87.885 114.225 87.885 115.025C87.885 115.815 87.705 116.515 87.345 117.125C86.995 117.735 86.505 118.215 85.875 118.565C85.255 118.915 84.55 119.09 83.76 119.09ZM83.76 117.83C84.27 117.83 84.725 117.715 85.125 117.485C85.535 117.255 85.855 116.93 86.085 116.51C86.315 116.08 86.43 115.585 86.43 115.025C86.43 114.455 86.315 113.965 86.085 113.555C85.855 113.135 85.535 112.81 85.125 112.58C84.725 112.35 84.27 112.235 83.76 112.235C83.25 112.235 82.795 112.35 82.395 112.58C81.995 112.81 81.675 113.135 81.435 113.555C81.195 113.965 81.075 114.455 81.075 115.025C81.075 115.585 81.195 116.08 81.435 116.51C81.675 116.93 81.995 117.255 82.395 117.485C82.795 117.715 83.25 117.83 83.76 117.83ZM93.6393 119.12C92.9793 119.12 92.3943 119.015 91.8843 118.805C91.3843 118.595 90.9543 118.285 90.5943 117.875C90.2343 117.455 89.9593 116.93 89.7693 116.3C89.5893 115.66 89.4993 114.91 89.4993 114.05C89.4993 113.37 89.5593 112.76 89.6793 112.22C89.7993 111.68 89.9693 111.2 90.1893 110.78C90.4193 110.36 90.6993 109.995 91.0293 109.685C91.3693 109.375 91.7493 109.12 92.1693 108.92C92.5993 108.71 93.0693 108.55 93.5793 108.44L97.2093 107.63L97.4193 108.965L94.0743 109.685C93.8743 109.725 93.6343 109.785 93.3543 109.865C93.0743 109.945 92.7893 110.07 92.4993 110.24C92.2093 110.4 91.9393 110.625 91.6893 110.915C91.4393 111.205 91.2393 111.585 91.0893 112.055C90.9393 112.515 90.8643 113.085 90.8643 113.765C90.8643 113.955 90.8693 114.1 90.8793 114.2C90.8893 114.3 90.8993 114.4 90.9093 114.5C90.9293 114.6 90.9443 114.75 90.9543 114.95L90.3543 114.335C90.5143 113.785 90.7693 113.305 91.1193 112.895C91.4693 112.485 91.8893 112.17 92.3793 111.95C92.8793 111.72 93.4243 111.605 94.0143 111.605C94.7543 111.605 95.4093 111.765 95.9793 112.085C96.5593 112.405 97.0143 112.845 97.3443 113.405C97.6743 113.965 97.8393 114.605 97.8393 115.325C97.8393 116.055 97.6643 116.71 97.3143 117.29C96.9743 117.86 96.4893 118.31 95.8593 118.64C95.2293 118.96 94.4893 119.12 93.6393 119.12ZM93.7743 117.92C94.2843 117.92 94.7343 117.81 95.1243 117.59C95.5143 117.36 95.8193 117.055 96.0393 116.675C96.2593 116.285 96.3693 115.85 96.3693 115.37C96.3693 114.89 96.2593 114.465 96.0393 114.095C95.8193 113.725 95.5143 113.435 95.1243 113.225C94.7343 113.005 94.2743 112.895 93.7443 112.895C93.2443 112.895 92.7943 113 92.3943 113.21C91.9943 113.41 91.6843 113.695 91.4643 114.065C91.2443 114.425 91.1343 114.845 91.1343 115.325C91.1343 115.805 91.2443 116.245 91.4643 116.645C91.6943 117.035 92.0043 117.345 92.3943 117.575C92.7943 117.805 93.2543 117.92 93.7743 117.92ZM99.896 119V111.05H101.336V116.84L106.211 111.05H107.516V119H106.076V113.21L101.216 119H99.896ZM108.991 118.985L109.081 117.77C109.151 117.78 109.216 117.79 109.276 117.8C109.336 117.81 109.391 117.815 109.441 117.815C109.761 117.815 110.011 117.705 110.191 117.485C110.381 117.265 110.521 116.975 110.611 116.615C110.701 116.245 110.766 115.83 110.806 115.37C110.846 114.91 110.876 114.45 110.896 113.99L111.031 111.05H117.136V119H115.696V111.89L116.041 112.31H111.961L112.291 111.875L112.186 114.08C112.156 114.78 112.101 115.435 112.021 116.045C111.941 116.655 111.816 117.19 111.646 117.65C111.486 118.11 111.261 118.47 110.971 118.73C110.691 118.99 110.326 119.12 109.876 119.12C109.746 119.12 109.606 119.105 109.456 119.075C109.316 119.055 109.161 119.025 108.991 118.985ZM125.005 119V116.21L125.23 116.48H122.695C121.635 116.48 120.805 116.255 120.205 115.805C119.615 115.355 119.32 114.7 119.32 113.84C119.32 112.92 119.635 112.225 120.265 111.755C120.905 111.285 121.755 111.05 122.815 111.05H126.295V119H125.005ZM119.245 119L121.405 115.955H122.89L120.79 119H119.245ZM125.005 115.76V111.905L125.23 112.31H122.86C122.2 112.31 121.69 112.435 121.33 112.685C120.97 112.925 120.79 113.325 120.79 113.885C120.79 114.925 121.46 115.445 122.8 115.445H125.23L125.005 115.76Z" fill="white"/>
<path d="M75.7114 38.5369C74.603 39.2006 73.4942 40.1768 71.1592 42.5687C69.3541 44.4038 69.3247 44.4334 69.0206 44.3455C68.4024 44.1696 68.2061 44.326 65.5475 46.9522C64.1544 48.3384 62.9479 49.588 62.8693 49.7343C62.7125 50.0272 62.6925 50.5739 62.8204 50.7789C62.8892 50.8863 62.8009 51.0427 62.5162 51.3648C61.5059 52.5071 60.6227 54.108 60.2599 55.4651C59.9952 56.4412 59.9752 58.0912 60.211 58.9891C60.5641 60.2975 61.3394 61.6347 62.4283 62.8061L63.0269 63.4601L63.0464 68.9073L63.0757 74.3642L63.3408 74.9205C63.7036 75.6916 64.3022 76.3067 65.0771 76.6876L65.7246 77H79.1157H92.5067L93.0662 76.7362C93.8509 76.3752 94.5277 75.711 94.8714 74.9691L95.156 74.3637L95.1854 69.8048L95.2147 65.2556L96.0291 64.6697C97.5692 63.5468 98.825 62.1217 99.4138 60.8235C99.8259 59.9061 99.9631 59.242 99.9534 58.1585C99.9436 57.3286 99.8947 57.0458 99.6296 56.2548C99.0999 54.6928 97.9617 53.0136 96.5296 51.6764C95.9118 51.1103 95.8723 51.0516 95.9802 50.8271C96.1272 50.4953 96.1175 50.0463 95.9509 49.7339C95.8727 49.5876 94.6658 48.3379 93.2727 46.9517C90.6336 44.3354 90.4178 44.1696 89.8192 44.3451C89.5349 44.4233 89.4466 44.3451 87.3372 42.2267C84.9041 39.7861 84.2176 39.1909 83.0306 38.4781L82.2162 38L81.9906 38.2148C81.8436 38.3513 81.765 38.5369 81.765 38.7517C81.765 39.0446 81.7943 39.0738 82.0496 39.0738C82.3538 39.0738 82.4519 39.2103 82.4519 39.6694C82.4519 39.943 82.4715 39.9527 82.8836 39.9527H83.325L83.3543 40.4114L83.3836 40.8798L83.825 40.9284C84.2665 40.977 84.2665 40.977 84.2962 41.3871L84.3255 41.8069H84.7571H85.1888L85.2181 42.2656C85.2474 42.734 85.2474 42.734 85.6204 42.7636C85.8656 42.783 85.9833 42.8418 85.9539 42.9098C85.9344 42.9783 85.8558 43.1931 85.787 43.3884C85.6791 43.6814 85.6005 43.7494 85.3061 43.8082C85.1098 43.8374 84.8353 43.8864 84.6879 43.9156C84.4428 43.9642 84.433 43.9545 84.4819 43.5837C84.5307 43.2028 84.5307 43.1931 84.1581 43.1052C83.7754 43.0172 83.7754 43.0172 83.7953 42.5585L83.8051 42.0998L83.393 41.9925C82.9809 41.8948 82.9809 41.8948 82.9809 41.4361C82.9907 40.9969 82.9809 40.9872 82.6181 40.8992C82.2451 40.8113 82.2451 40.8113 82.2748 40.3623C82.3041 39.9134 82.3041 39.9134 81.9116 39.7963C81.5585 39.6986 81.519 39.6597 81.5487 39.3959C81.5781 39.1423 81.539 39.0932 81.3036 39.0446C81.1566 39.0154 80.9603 39.0349 80.8817 39.0835C80.4696 39.3177 80.4696 39.2983 80.7934 40.2063C81.2446 41.4852 81.4702 41.8758 83.5205 44.9213C85.3549 47.6645 85.3842 47.7034 85.2372 47.9672C84.9331 48.5531 84.9921 48.6702 87.1503 51.9013C88.2787 53.5805 89.3085 55.0347 89.4262 55.1227C89.8285 55.4059 90.3974 55.3277 91.0648 54.8982C91.7514 54.4492 91.9871 53.9901 91.7909 53.4435C91.6239 52.965 87.7685 47.2933 87.4842 47.1078C87.3274 47.0004 87.033 46.9319 86.7484 46.9319C86.287 46.9319 86.2773 46.9222 85.9242 46.3658L85.5712 45.7998L85.934 45.3605C86.1693 45.0773 86.5322 44.8042 86.9544 44.5894L87.6215 44.2576L88.1121 44.7653C88.5731 45.2438 88.5926 45.2924 88.5047 45.5854C88.2889 46.2783 88.3577 46.376 91.2122 49.1974C93.0076 50.9839 93.969 51.8721 94.1653 51.9212C94.3123 51.9601 94.5969 51.9406 94.7737 51.8823C95.1169 51.7846 95.1169 51.7846 95.9705 52.6242C98.9529 55.5822 99.6887 58.4328 98.1287 61.0196C97.7263 61.6736 96.7356 62.7571 95.9016 63.4504L95.264 63.9679L95.0876 63.2551C94.9797 62.8256 94.7737 62.347 94.5578 62.0448C94.1164 61.4102 93.2336 60.7951 92.5271 60.6488C92.1639 60.5706 88.3479 60.5512 78.8221 60.5706L65.6269 60.5998L65.0678 60.8733C64.705 61.0492 64.3124 61.3616 63.9594 61.7518L63.41 62.3572L63.0668 61.9666C62.2723 61.0589 61.6541 60.0143 61.3007 58.9891C61.1537 58.5791 61.1142 58.1787 61.1142 57.2808C61.124 56.2264 61.1533 56.0214 61.4281 55.2503C61.7617 54.2936 62.4287 53.1319 63.1449 52.2534C63.6059 51.6874 63.6157 51.6776 63.8808 51.8239C64.224 51.9998 64.538 51.9998 64.8715 51.8239C65.0185 51.7457 66.3138 50.5062 67.7655 49.0612C70.3749 46.4448 70.3851 46.4351 70.3851 46.0153C70.3851 45.7908 70.346 45.5271 70.2968 45.4294C70.2182 45.2928 70.2968 45.1559 70.7088 44.756L71.2289 44.2482L71.8861 44.5995C72.455 44.8925 73.2303 45.6247 73.2303 45.8492C73.2303 45.8881 73.0735 46.1422 72.887 46.425C72.5535 46.923 72.5242 46.9327 72.0726 46.9327C71.788 46.9327 71.4935 47.0012 71.3368 47.1086C71.0033 47.3233 67.1478 53.0634 67.0203 53.5221C66.8733 54.0493 67.138 54.5177 67.8148 54.9375C68.433 55.3184 69.0116 55.3865 69.3944 55.1231C69.5121 55.0351 70.5423 53.5809 71.6703 51.9017C73.8382 48.6609 73.8973 48.5337 73.5833 47.9384C73.4559 47.6945 73.495 47.6066 75.3099 44.912C77.3504 41.8762 77.576 41.4856 78.0272 40.2067C78.3509 39.2987 78.3509 39.3185 77.9388 39.0839C77.8602 39.0353 77.664 39.0154 77.517 39.045C77.2816 39.0936 77.2421 39.1427 77.2718 39.3963C77.3012 39.6601 77.2621 39.699 76.909 39.7967C76.5165 39.9138 76.5165 39.9138 76.5462 40.3627C76.5755 40.8117 76.5755 40.8117 76.2029 40.8996C75.8303 40.9876 75.8303 40.9973 75.8499 41.4365L75.8596 41.8855L75.4378 41.9929L75.0159 42.1003L75.0257 42.5589C75.0452 43.0176 75.0452 43.0176 74.6628 43.1056C74.2898 43.1935 74.2898 43.2032 74.3391 43.5841C74.388 43.9549 74.3782 43.965 74.1331 43.916C73.9861 43.8868 73.7112 43.8378 73.5149 43.7989C73.2107 43.7502 73.1423 43.6915 73.0442 43.3888C72.9754 43.1838 72.8972 42.9787 72.8772 42.9103C72.8479 42.8321 72.9558 42.7834 73.201 42.764C73.5638 42.7348 73.5736 42.7251 73.6228 42.2956C73.6717 41.8563 73.6717 41.8563 74.0936 41.8271C74.4861 41.798 74.5057 41.7785 74.5057 41.4856C74.5057 41.0463 74.6038 40.9487 75.0452 40.9098L75.4378 40.8806L75.4671 40.4122L75.4964 39.9535H75.9378C76.3206 39.9535 76.3695 39.9243 76.3695 39.729C76.3695 39.2505 76.4774 39.075 76.7718 39.075C77.0267 39.075 77.0564 39.0458 77.0564 38.7529C77.0564 38.5381 76.9778 38.3525 76.8308 38.216L76.6052 38.0109L75.7114 38.5369ZM87.0424 63.7426C86.9638 63.8402 85.561 65.5875 83.9228 67.6276C82.2943 69.6678 80.872 71.4252 80.7738 71.5229C80.6073 71.7085 80.5873 71.6793 80.1264 70.7712C79.8715 70.244 79.6259 69.8243 79.5868 69.8243C79.538 69.8243 77.5952 70.7712 75.2704 71.9329C72.9351 73.0947 71.081 73.9829 71.1299 73.9144C72.3071 72.4111 77.5952 65.9193 77.6342 65.9193C77.6733 65.9193 77.8993 66.3197 78.1347 66.8075C78.3798 67.2958 78.5957 67.7059 78.6254 67.7253C78.6551 67.7448 80.558 66.8172 82.8437 65.6754C85.1395 64.5234 87.0522 63.5862 87.1014 63.5764C87.1503 63.5764 87.1206 63.6546 87.0424 63.7426Z" fill="white"/>
</svg>
