<svg width="260" height="260" viewBox="0 0 260 260" fill="none" xmlns="http://www.w3.org/2000/svg">
<path d="M0 50C0 26.4298 0 14.6447 7.32233 7.32233C14.6447 0 26.4298 0 50 0H222.02C222.232 0 222.339 0 222.411 0.00263821C225.426 0.112163 227.239 3.39119 225.729 6.00223C225.693 6.06513 225.636 6.15524 225.523 6.33547C224.509 7.95089 224.002 8.75859 223.784 9.14281C214.265 25.9084 231.642 45.11 249.272 37.3059C249.676 37.127 250.53 36.7029 252.238 35.8545L253.875 35.0416C254.178 34.8911 254.33 34.8158 254.442 34.7684C256.984 33.6933 259.825 35.4547 259.993 38.2095C260 38.3309 260 38.5001 260 38.8385V210C260 233.57 260 245.355 252.678 252.678C245.355 260 233.57 260 210 260H50C26.4298 260 14.6447 260 7.32233 252.678C0 245.355 0 233.57 0 210V50Z" fill="#F3F5F7"/>
<mask id="mask0_103_39" style="mask-type:alpha" maskUnits="userSpaceOnUse" x="0" y="0" width="260" height="260">
<path d="M0 60C0 31.7157 0 17.5736 8.7868 8.7868C17.5736 0 31.7157 0 60 0H222.429C222.529 0 222.58 0 222.613 0.000571758C225.743 0.053489 227.602 3.51781 225.916 6.15473C225.898 6.18322 225.87 6.22508 225.814 6.3088L224.912 7.66935C224.838 7.77972 224.802 7.8349 224.79 7.85282C212.449 26.5404 235.453 48.2883 253.419 34.9191C253.436 34.9063 253.489 34.8666 253.595 34.7873C253.604 34.7811 253.608 34.7779 253.611 34.7759C256.247 32.8125 259.994 34.6901 260 37.9771C260 37.9804 260 37.9857 260 37.9961V200C260 228.284 260 242.426 251.213 251.213C242.426 260 228.284 260 200 260H60C31.7157 260 17.5736 260 8.7868 251.213C0 242.426 0 228.284 0 200V60Z" fill="#F3F5F7"/>
</mask>
<g mask="url(#mask0_103_39)">
<path d="M-0.480019 110.92C-7.92002 110.92 -14.52 109.2 -20.28 105.76C-25.96 102.32 -30.44 97.32 -33.72 90.76C-36.92 84.2 -38.52 76.28 -38.52 67C-38.52 57.72 -36.92 49.8 -33.72 43.24C-30.44 36.68 -25.96 31.68 -20.28 28.24C-14.52 24.8 -7.92002 23.08 -0.480019 23.08C6.95998 23.08 13.52 24.8 19.2 28.24C24.96 31.68 29.44 36.68 32.64 43.24C35.92 49.8 37.56 57.72 37.56 67C37.56 76.28 35.92 84.2 32.64 90.76C29.44 97.32 24.96 102.32 19.2 105.76C13.52 109.2 6.95998 110.92 -0.480019 110.92ZM-0.480019 88.24C1.35998 88.24 2.99998 87.6 4.43998 86.32C5.87998 85.04 6.99998 82.84 7.79998 79.72C8.67999 76.6 9.11998 72.36 9.11998 67C9.11998 61.56 8.67999 57.32 7.79998 54.28C6.99998 51.16 5.87998 48.96 4.43998 47.68C2.99998 46.4 1.35998 45.76 -0.480019 45.76C-2.32002 45.76 -3.96002 46.4 -5.40002 47.68C-6.84002 48.96 -8.00002 51.16 -8.88002 54.28C-9.68002 57.32 -10.08 61.56 -10.08 67C-10.08 72.36 -9.68002 76.6 -8.88002 79.72C-8.00002 82.84 -6.84002 85.04 -5.40002 86.32C-3.96002 87.6 -2.32002 88.24 -0.480019 88.24Z" fill="#00AAFF" fill-opacity="0.1"/>
<path d="M74.8059 110.92C69.0459 110.92 63.2059 110.28 57.2859 109C51.3659 107.72 46.1659 105.84 41.6859 103.36L51.2859 82.48C54.8859 84.56 58.6459 86.12 62.5659 87.16C66.4859 88.12 70.2059 88.6 73.7259 88.6C76.9259 88.6 79.5659 88.04 81.6459 86.92C83.7259 85.8 84.7659 84.16 84.7659 82C84.7659 80.8 84.4059 79.76 83.6859 78.88C82.9659 77.92 81.6859 77.2 79.8459 76.72C78.0859 76.24 75.4859 76 72.0459 76H47.6859L51.8859 25H107.686V46.36H61.8459L76.1259 34.24L73.6059 66.76L59.3259 54.64H78.8859C87.2059 54.64 93.8459 55.84 98.8059 58.24C103.846 60.64 107.486 63.88 109.726 67.96C112.046 71.96 113.206 76.44 113.206 81.4C113.206 86.36 111.846 91.12 109.126 95.68C106.486 100.16 102.326 103.84 96.6459 106.72C91.0459 109.52 83.7659 110.92 74.8059 110.92Z" fill="#00AAFF" fill-opacity="0.1"/>
</g>
<circle cx="242.5" cy="17.5" r="17.5" fill="#F3F5F7"/>
<path d="M235 18.25H250M250 18.25L243 11M250 18.25L243 25" stroke="#00AAFF" stroke-width="2" stroke-linecap="round" stroke-linejoin="round"/>
<path d="M16.635 151V140.5H25.68V151H24.21V141.415L24.57 141.805H17.745L18.12 141.415V151H16.635ZM32.9293 151.09C32.2693 151.09 31.6643 150.94 31.1143 150.64C30.5743 150.33 30.1393 149.875 29.8093 149.275C29.4893 148.675 29.3293 147.925 29.3293 147.025C29.3293 146.125 29.4843 145.375 29.7943 144.775C30.1143 144.175 30.5443 143.725 31.0843 143.425C31.6343 143.125 32.2493 142.975 32.9293 142.975C33.7093 142.975 34.3993 143.145 34.9993 143.485C35.5993 143.825 36.0743 144.3 36.4243 144.91C36.7743 145.51 36.9493 146.215 36.9493 147.025C36.9493 147.835 36.7743 148.545 36.4243 149.155C36.0743 149.765 35.5993 150.24 34.9993 150.58C34.3993 150.92 33.7093 151.09 32.9293 151.09ZM28.7143 153.91V143.05H30.0943V145.195L30.0043 147.04L30.1543 148.885V153.91H28.7143ZM32.8093 149.83C33.3193 149.83 33.7743 149.715 34.1743 149.485C34.5843 149.255 34.9043 148.93 35.1343 148.51C35.3743 148.08 35.4943 147.585 35.4943 147.025C35.4943 146.455 35.3743 145.965 35.1343 145.555C34.9043 145.135 34.5843 144.81 34.1743 144.58C33.7743 144.35 33.3193 144.235 32.8093 144.235C32.3093 144.235 31.8543 144.35 31.4443 144.58C31.0443 144.81 30.7243 145.135 30.4843 145.555C30.2543 145.965 30.1393 146.455 30.1393 147.025C30.1393 147.585 30.2543 148.08 30.4843 148.51C30.7243 148.93 31.0443 149.255 31.4443 149.485C31.8543 149.715 32.3093 149.83 32.8093 149.83ZM42.4465 151.09C41.6465 151.09 40.9365 150.915 40.3165 150.565C39.6965 150.215 39.2065 149.735 38.8465 149.125C38.4865 148.505 38.3065 147.805 38.3065 147.025C38.3065 146.235 38.4865 145.535 38.8465 144.925C39.2065 144.315 39.6965 143.84 40.3165 143.5C40.9365 143.15 41.6465 142.975 42.4465 142.975C43.2365 142.975 43.9415 143.15 44.5615 143.5C45.1915 143.84 45.6815 144.315 46.0315 144.925C46.3915 145.525 46.5715 146.225 46.5715 147.025C46.5715 147.815 46.3915 148.515 46.0315 149.125C45.6815 149.735 45.1915 150.215 44.5615 150.565C43.9415 150.915 43.2365 151.09 42.4465 151.09ZM42.4465 149.83C42.9565 149.83 43.4115 149.715 43.8115 149.485C44.2215 149.255 44.5415 148.93 44.7715 148.51C45.0015 148.08 45.1165 147.585 45.1165 147.025C45.1165 146.455 45.0015 145.965 44.7715 145.555C44.5415 145.135 44.2215 144.81 43.8115 144.58C43.4115 144.35 42.9565 144.235 42.4465 144.235C41.9365 144.235 41.4815 144.35 41.0815 144.58C40.6815 144.81 40.3615 145.135 40.1215 145.555C39.8815 145.965 39.7615 146.455 39.7615 147.025C39.7615 147.585 39.8815 148.08 40.1215 148.51C40.3615 148.93 40.6815 149.255 41.0815 149.485C41.4815 149.715 41.9365 149.83 42.4465 149.83ZM48.6509 151V143.05H52.3409C53.2709 143.05 54.0009 143.23 54.5309 143.59C55.0709 143.94 55.3409 144.44 55.3409 145.09C55.3409 145.74 55.0859 146.245 54.5759 146.605C54.0759 146.955 53.4109 147.13 52.5809 147.13L52.8059 146.74C53.7559 146.74 54.4609 146.915 54.9209 147.265C55.3809 147.615 55.6109 148.13 55.6109 148.81C55.6109 149.5 55.3509 150.04 54.8309 150.43C54.3209 150.81 53.5359 151 52.4759 151H48.6509ZM50.0609 149.89H52.3709C52.9709 149.89 53.4209 149.8 53.7209 149.62C54.0209 149.43 54.1709 149.13 54.1709 148.72C54.1709 148.3 54.0309 147.995 53.7509 147.805C53.4809 147.605 53.0509 147.505 52.4609 147.505H50.0609V149.89ZM50.0609 146.47H52.2209C52.7709 146.47 53.1859 146.37 53.4659 146.17C53.7559 145.96 53.9009 145.67 53.9009 145.3C53.9009 144.92 53.7559 144.635 53.4659 144.445C53.1859 144.255 52.7709 144.16 52.2209 144.16H50.0609V146.47ZM61.4047 151.09C60.5547 151.09 59.8047 150.915 59.1547 150.565C58.5147 150.215 58.0147 149.735 57.6547 149.125C57.3047 148.515 57.1297 147.815 57.1297 147.025C57.1297 146.235 57.2997 145.535 57.6397 144.925C57.9897 144.315 58.4647 143.84 59.0647 143.5C59.6747 143.15 60.3597 142.975 61.1197 142.975C61.8897 142.975 62.5697 143.145 63.1597 143.485C63.7497 143.825 64.2097 144.305 64.5397 144.925C64.8797 145.535 65.0497 146.25 65.0497 147.07C65.0497 147.13 65.0447 147.2 65.0347 147.28C65.0347 147.36 65.0297 147.435 65.0197 147.505H58.2547V146.47H64.2697L63.6847 146.83C63.6947 146.32 63.5897 145.865 63.3697 145.465C63.1497 145.065 62.8447 144.755 62.4547 144.535C62.0747 144.305 61.6297 144.19 61.1197 144.19C60.6197 144.19 60.1747 144.305 59.7847 144.535C59.3947 144.755 59.0897 145.07 58.8697 145.48C58.6497 145.88 58.5397 146.34 58.5397 146.86V147.1C58.5397 147.63 58.6597 148.105 58.8997 148.525C59.1497 148.935 59.4947 149.255 59.9347 149.485C60.3747 149.715 60.8797 149.83 61.4497 149.83C61.9197 149.83 62.3447 149.75 62.7247 149.59C63.1147 149.43 63.4547 149.19 63.7447 148.87L64.5397 149.8C64.1797 150.22 63.7297 150.54 63.1897 150.76C62.6597 150.98 62.0647 151.09 61.4047 151.09ZM71.4987 151.09C70.8387 151.09 70.2337 150.94 69.6837 150.64C69.1437 150.33 68.7087 149.875 68.3787 149.275C68.0587 148.675 67.8987 147.925 67.8987 147.025C67.8987 146.125 68.0537 145.375 68.3637 144.775C68.6837 144.175 69.1137 143.725 69.6537 143.425C70.2037 143.125 70.8187 142.975 71.4987 142.975C72.2787 142.975 72.9687 143.145 73.5687 143.485C74.1687 143.825 74.6437 144.3 74.9937 144.91C75.3437 145.51 75.5187 146.215 75.5187 147.025C75.5187 147.835 75.3437 148.545 74.9937 149.155C74.6437 149.765 74.1687 150.24 73.5687 150.58C72.9687 150.92 72.2787 151.09 71.4987 151.09ZM67.2837 153.91V143.05H68.6637V145.195L68.5737 147.04L68.7237 148.885V153.91H67.2837ZM71.3787 149.83C71.8887 149.83 72.3437 149.715 72.7437 149.485C73.1537 149.255 73.4737 148.93 73.7037 148.51C73.9437 148.08 74.0637 147.585 74.0637 147.025C74.0637 146.455 73.9437 145.965 73.7037 145.555C73.4737 145.135 73.1537 144.81 72.7437 144.58C72.3437 144.35 71.8887 144.235 71.3787 144.235C70.8787 144.235 70.4237 144.35 70.0137 144.58C69.6137 144.81 69.2937 145.135 69.0537 145.555C68.8237 145.965 68.7087 146.455 68.7087 147.025C68.7087 147.585 68.8237 148.08 69.0537 148.51C69.2937 148.93 69.6137 149.255 70.0137 149.485C70.4237 149.715 70.8787 149.83 71.3787 149.83ZM83.3708 151L80.2958 147.13L81.4808 146.41L85.0658 151H83.3708ZM77.6108 151V143.05H79.0508V151H77.6108ZM78.6158 147.64V146.41H81.2408V147.64H78.6158ZM81.6008 147.19L80.2658 147.01L83.3108 143.05H84.8558L81.6008 147.19ZM91.3042 151V149.32L91.2292 149.005V146.14C91.2292 145.53 91.0492 145.06 90.6892 144.73C90.3392 144.39 89.8092 144.22 89.0992 144.22C88.6292 144.22 88.1692 144.3 87.7192 144.46C87.2692 144.61 86.8892 144.815 86.5792 145.075L85.9792 143.995C86.3892 143.665 86.8792 143.415 87.4492 143.245C88.0292 143.065 88.6342 142.975 89.2642 142.975C90.3542 142.975 91.1942 143.24 91.7842 143.77C92.3742 144.3 92.6692 145.11 92.6692 146.2V151H91.3042ZM88.6942 151.09C88.1042 151.09 87.5842 150.99 87.1342 150.79C86.6942 150.59 86.3542 150.315 86.1142 149.965C85.8742 149.605 85.7542 149.2 85.7542 148.75C85.7542 148.32 85.8542 147.93 86.0542 147.58C86.2642 147.23 86.5992 146.95 87.0592 146.74C87.5292 146.53 88.1592 146.425 88.9492 146.425H91.4692V147.46H89.0092C88.2892 147.46 87.8042 147.58 87.5542 147.82C87.3042 148.06 87.1792 148.35 87.1792 148.69C87.1792 149.08 87.3342 149.395 87.6442 149.635C87.9542 149.865 88.3842 149.98 88.9342 149.98C89.4742 149.98 89.9442 149.86 90.3442 149.62C90.7542 149.38 91.0492 149.03 91.2292 148.57L91.5142 149.56C91.3242 150.03 90.9892 150.405 90.5092 150.685C90.0292 150.955 89.4242 151.09 88.6942 151.09ZM104.166 151V149.32L104.091 149.005V146.14C104.091 145.53 103.911 145.06 103.551 144.73C103.201 144.39 102.671 144.22 101.961 144.22C101.491 144.22 101.031 144.3 100.581 144.46C100.131 144.61 99.7505 144.815 99.4405 145.075L98.8405 143.995C99.2505 143.665 99.7405 143.415 100.311 143.245C100.891 143.065 101.496 142.975 102.126 142.975C103.216 142.975 104.056 143.24 104.646 143.77C105.236 144.3 105.531 145.11 105.531 146.2V151H104.166ZM101.556 151.09C100.966 151.09 100.446 150.99 99.9955 150.79C99.5555 150.59 99.2155 150.315 98.9755 149.965C98.7355 149.605 98.6155 149.2 98.6155 148.75C98.6155 148.32 98.7155 147.93 98.9155 147.58C99.1255 147.23 99.4605 146.95 99.9205 146.74C100.391 146.53 101.021 146.425 101.811 146.425H104.331V147.46H101.871C101.151 147.46 100.666 147.58 100.416 147.82C100.166 148.06 100.041 148.35 100.041 148.69C100.041 149.08 100.196 149.395 100.506 149.635C100.816 149.865 101.246 149.98 101.796 149.98C102.336 149.98 102.806 149.86 103.206 149.62C103.616 149.38 103.911 149.03 104.091 148.57L104.376 149.56C104.186 150.03 103.851 150.405 103.371 150.685C102.891 150.955 102.286 151.09 101.556 151.09ZM108.124 151V143.05H111.814C112.744 143.05 113.474 143.23 114.004 143.59C114.544 143.94 114.814 144.44 114.814 145.09C114.814 145.74 114.559 146.245 114.049 146.605C113.549 146.955 112.884 147.13 112.054 147.13L112.279 146.74C113.229 146.74 113.934 146.915 114.394 147.265C114.854 147.615 115.084 148.13 115.084 148.81C115.084 149.5 114.824 150.04 114.304 150.43C113.794 150.81 113.009 151 111.949 151H108.124ZM109.534 149.89H111.844C112.444 149.89 112.894 149.8 113.194 149.62C113.494 149.43 113.644 149.13 113.644 148.72C113.644 148.3 113.504 147.995 113.224 147.805C112.954 147.605 112.524 147.505 111.934 147.505H109.534V149.89ZM109.534 146.47H111.694C112.244 146.47 112.659 146.37 112.939 146.17C113.229 145.96 113.374 145.67 113.374 145.3C113.374 144.92 113.229 144.635 112.939 144.445C112.659 144.255 112.244 144.16 111.694 144.16H109.534V146.47ZM118.912 151V143.935L119.272 144.31H116.002V143.05H123.262V144.31H120.007L120.352 143.935V151H118.912ZM127.788 151.09C126.988 151.09 126.278 150.915 125.658 150.565C125.038 150.215 124.548 149.735 124.188 149.125C123.828 148.505 123.648 147.805 123.648 147.025C123.648 146.235 123.828 145.535 124.188 144.925C124.548 144.315 125.038 143.84 125.658 143.5C126.278 143.15 126.988 142.975 127.788 142.975C128.578 142.975 129.283 143.15 129.903 143.5C130.533 143.84 131.023 144.315 131.373 144.925C131.733 145.525 131.913 146.225 131.913 147.025C131.913 147.815 131.733 148.515 131.373 149.125C131.023 149.735 130.533 150.215 129.903 150.565C129.283 150.915 128.578 151.09 127.788 151.09ZM127.788 149.83C128.298 149.83 128.753 149.715 129.153 149.485C129.563 149.255 129.883 148.93 130.113 148.51C130.343 148.08 130.458 147.585 130.458 147.025C130.458 146.455 130.343 145.965 130.113 145.555C129.883 145.135 129.563 144.81 129.153 144.58C128.753 144.35 128.298 144.235 127.788 144.235C127.278 144.235 126.823 144.35 126.423 144.58C126.023 144.81 125.703 145.135 125.463 145.555C125.223 145.965 125.103 146.455 125.103 147.025C125.103 147.585 125.223 148.08 125.463 148.51C125.703 148.93 126.023 149.255 126.423 149.485C126.823 149.715 127.278 149.83 127.788 149.83ZM133.993 151V143.05H135.478L138.898 148.93H138.298L141.808 143.05H143.158V151H141.853V144.67L142.093 144.805L138.883 150.1H138.253L135.028 144.7L135.313 144.64V151H133.993ZM149.365 151.09C148.565 151.09 147.855 150.915 147.235 150.565C146.615 150.215 146.125 149.735 145.765 149.125C145.405 148.505 145.225 147.805 145.225 147.025C145.225 146.235 145.405 145.535 145.765 144.925C146.125 144.315 146.615 143.84 147.235 143.5C147.855 143.15 148.565 142.975 149.365 142.975C150.155 142.975 150.86 143.15 151.48 143.5C152.11 143.84 152.6 144.315 152.95 144.925C153.31 145.525 153.49 146.225 153.49 147.025C153.49 147.815 153.31 148.515 152.95 149.125C152.6 149.735 152.11 150.215 151.48 150.565C150.86 150.915 150.155 151.09 149.365 151.09ZM149.365 149.83C149.875 149.83 150.33 149.715 150.73 149.485C151.14 149.255 151.46 148.93 151.69 148.51C151.92 148.08 152.035 147.585 152.035 147.025C152.035 146.455 151.92 145.965 151.69 145.555C151.46 145.135 151.14 144.81 150.73 144.58C150.33 144.35 149.875 144.235 149.365 144.235C148.855 144.235 148.4 144.35 148 144.58C147.6 144.81 147.28 145.135 147.04 145.555C146.8 145.965 146.68 146.455 146.68 147.025C146.68 147.585 146.8 148.08 147.04 148.51C147.28 148.93 147.6 149.255 148 149.485C148.4 149.715 148.855 149.83 149.365 149.83ZM159.245 151.12C158.585 151.12 158 151.015 157.49 150.805C156.99 150.595 156.56 150.285 156.2 149.875C155.84 149.455 155.565 148.93 155.375 148.3C155.195 147.66 155.105 146.91 155.105 146.05C155.105 145.37 155.165 144.76 155.285 144.22C155.405 143.68 155.575 143.2 155.795 142.78C156.025 142.36 156.305 141.995 156.635 141.685C156.975 141.375 157.355 141.12 157.775 140.92C158.205 140.71 158.675 140.55 159.185 140.44L162.815 139.63L163.025 140.965L159.68 141.685C159.48 141.725 159.24 141.785 158.96 141.865C158.68 141.945 158.395 142.07 158.105 142.24C157.815 142.4 157.545 142.625 157.295 142.915C157.045 143.205 156.845 143.585 156.695 144.055C156.545 144.515 156.47 145.085 156.47 145.765C156.47 145.955 156.475 146.1 156.485 146.2C156.495 146.3 156.505 146.4 156.515 146.5C156.535 146.6 156.55 146.75 156.56 146.95L155.96 146.335C156.12 145.785 156.375 145.305 156.725 144.895C157.075 144.485 157.495 144.17 157.985 143.95C158.485 143.72 159.03 143.605 159.62 143.605C160.36 143.605 161.015 143.765 161.585 144.085C162.165 144.405 162.62 144.845 162.95 145.405C163.28 145.965 163.445 146.605 163.445 147.325C163.445 148.055 163.27 148.71 162.92 149.29C162.58 149.86 162.095 150.31 161.465 150.64C160.835 150.96 160.095 151.12 159.245 151.12ZM159.38 149.92C159.89 149.92 160.34 149.81 160.73 149.59C161.12 149.36 161.425 149.055 161.645 148.675C161.865 148.285 161.975 147.85 161.975 147.37C161.975 146.89 161.865 146.465 161.645 146.095C161.425 145.725 161.12 145.435 160.73 145.225C160.34 145.005 159.88 144.895 159.35 144.895C158.85 144.895 158.4 145 158 145.21C157.6 145.41 157.29 145.695 157.07 146.065C156.85 146.425 156.74 146.845 156.74 147.325C156.74 147.805 156.85 148.245 157.07 148.645C157.3 149.035 157.61 149.345 158 149.575C158.4 149.805 158.86 149.92 159.38 149.92ZM165.501 151V143.05H166.941V148.84L171.816 143.05H173.121V151H171.681V145.21L166.821 151H165.501ZM174.596 150.985L174.686 149.77C174.756 149.78 174.821 149.79 174.881 149.8C174.941 149.81 174.996 149.815 175.046 149.815C175.366 149.815 175.616 149.705 175.796 149.485C175.986 149.265 176.126 148.975 176.216 148.615C176.306 148.245 176.371 147.83 176.411 147.37C176.451 146.91 176.481 146.45 176.501 145.99L176.636 143.05H182.741V151H181.301V143.89L181.646 144.31H177.566L177.896 143.875L177.791 146.08C177.761 146.78 177.706 147.435 177.626 148.045C177.546 148.655 177.421 149.19 177.251 149.65C177.091 150.11 176.866 150.47 176.576 150.73C176.296 150.99 175.931 151.12 175.481 151.12C175.351 151.12 175.211 151.105 175.061 151.075C174.921 151.055 174.766 151.025 174.596 150.985ZM190.611 151V148.21L190.836 148.48H188.301C187.241 148.48 186.411 148.255 185.811 147.805C185.221 147.355 184.926 146.7 184.926 145.84C184.926 144.92 185.241 144.225 185.871 143.755C186.511 143.285 187.361 143.05 188.421 143.05H191.901V151H190.611ZM184.851 151L187.011 147.955H188.496L186.396 151H184.851ZM190.611 147.76V143.905L190.836 144.31H188.466C187.806 144.31 187.296 144.435 186.936 144.685C186.576 144.925 186.396 145.325 186.396 145.885C186.396 146.925 187.066 147.445 188.406 147.445H190.836L190.611 147.76ZM19.86 169.09C19.05 169.09 18.325 168.915 17.685 168.565C17.055 168.215 16.56 167.735 16.2 167.125C15.84 166.515 15.66 165.815 15.66 165.025C15.66 164.235 15.84 163.535 16.2 162.925C16.56 162.315 17.055 161.84 17.685 161.5C18.325 161.15 19.05 160.975 19.86 160.975C20.58 160.975 21.22 161.12 21.78 161.41C22.35 161.69 22.79 162.11 23.1 162.67L22.005 163.375C21.745 162.985 21.425 162.7 21.045 162.52C20.675 162.33 20.275 162.235 19.845 162.235C19.325 162.235 18.86 162.35 18.45 162.58C18.04 162.81 17.715 163.135 17.475 163.555C17.235 163.965 17.115 164.455 17.115 165.025C17.115 165.595 17.235 166.09 17.475 166.51C17.715 166.93 18.04 167.255 18.45 167.485C18.86 167.715 19.325 167.83 19.845 167.83C20.275 167.83 20.675 167.74 21.045 167.56C21.425 167.37 21.745 167.08 22.005 166.69L23.1 167.38C22.79 167.93 22.35 168.355 21.78 168.655C21.22 168.945 20.58 169.09 19.86 169.09ZM30.7243 169L27.6493 165.13L28.8343 164.41L32.4193 169H30.7243ZM24.9643 169V161.05H26.4043V169H24.9643ZM25.9693 165.64V164.41H28.5943V165.64H25.9693ZM28.9543 165.19L27.6193 165.01L30.6643 161.05H32.2093L28.9543 165.19ZM38.6577 169V167.32L38.5827 167.005V164.14C38.5827 163.53 38.4027 163.06 38.0427 162.73C37.6927 162.39 37.1627 162.22 36.4527 162.22C35.9827 162.22 35.5227 162.3 35.0727 162.46C34.6227 162.61 34.2427 162.815 33.9327 163.075L33.3327 161.995C33.7427 161.665 34.2327 161.415 34.8027 161.245C35.3827 161.065 35.9877 160.975 36.6177 160.975C37.7077 160.975 38.5477 161.24 39.1377 161.77C39.7277 162.3 40.0227 163.11 40.0227 164.2V169H38.6577ZM36.0477 169.09C35.4577 169.09 34.9377 168.99 34.4877 168.79C34.0477 168.59 33.7077 168.315 33.4677 167.965C33.2277 167.605 33.1077 167.2 33.1077 166.75C33.1077 166.32 33.2077 165.93 33.4077 165.58C33.6177 165.23 33.9527 164.95 34.4127 164.74C34.8827 164.53 35.5127 164.425 36.3027 164.425H38.8227V165.46H36.3627C35.6427 165.46 35.1577 165.58 34.9077 165.82C34.6577 166.06 34.5327 166.35 34.5327 166.69C34.5327 167.08 34.6877 167.395 34.9977 167.635C35.3077 167.865 35.7377 167.98 36.2877 167.98C36.8277 167.98 37.2977 167.86 37.6977 167.62C38.1077 167.38 38.4027 167.03 38.5827 166.57L38.8677 167.56C38.6777 168.03 38.3427 168.405 37.8627 168.685C37.3827 168.955 36.7777 169.09 36.0477 169.09ZM42.6157 169V161.05H44.0557V164.425H48.5857V161.05H50.0257V169H48.5857V165.67H44.0557V169H42.6157ZM56.3657 169.09C55.5157 169.09 54.7657 168.915 54.1157 168.565C53.4757 168.215 52.9757 167.735 52.6157 167.125C52.2657 166.515 52.0907 165.815 52.0907 165.025C52.0907 164.235 52.2607 163.535 52.6007 162.925C52.9507 162.315 53.4257 161.84 54.0257 161.5C54.6357 161.15 55.3207 160.975 56.0807 160.975C56.8507 160.975 57.5307 161.145 58.1207 161.485C58.7107 161.825 59.1707 162.305 59.5007 162.925C59.8407 163.535 60.0107 164.25 60.0107 165.07C60.0107 165.13 60.0057 165.2 59.9957 165.28C59.9957 165.36 59.9907 165.435 59.9807 165.505H53.2157V164.47H59.2307L58.6457 164.83C58.6557 164.32 58.5507 163.865 58.3307 163.465C58.1107 163.065 57.8057 162.755 57.4157 162.535C57.0357 162.305 56.5907 162.19 56.0807 162.19C55.5807 162.19 55.1357 162.305 54.7457 162.535C54.3557 162.755 54.0507 163.07 53.8307 163.48C53.6107 163.88 53.5007 164.34 53.5007 164.86V165.1C53.5007 165.63 53.6207 166.105 53.8607 166.525C54.1107 166.935 54.4557 167.255 54.8957 167.485C55.3357 167.715 55.8407 167.83 56.4107 167.83C56.8807 167.83 57.3057 167.75 57.6857 167.59C58.0757 167.43 58.4157 167.19 58.7057 166.87L59.5007 167.8C59.1407 168.22 58.6907 168.54 58.1507 168.76C57.6207 168.98 57.0257 169.09 56.3657 169.09ZM66.4596 169.09C65.7996 169.09 65.1946 168.94 64.6446 168.64C64.1046 168.33 63.6696 167.875 63.3396 167.275C63.0196 166.675 62.8596 165.925 62.8596 165.025C62.8596 164.125 63.0146 163.375 63.3246 162.775C63.6446 162.175 64.0746 161.725 64.6146 161.425C65.1646 161.125 65.7796 160.975 66.4596 160.975C67.2396 160.975 67.9296 161.145 68.5296 161.485C69.1296 161.825 69.6046 162.3 69.9546 162.91C70.3046 163.51 70.4796 164.215 70.4796 165.025C70.4796 165.835 70.3046 166.545 69.9546 167.155C69.6046 167.765 69.1296 168.24 68.5296 168.58C67.9296 168.92 67.2396 169.09 66.4596 169.09ZM62.2446 171.91V161.05H63.6246V163.195L63.5346 165.04L63.6846 166.885V171.91H62.2446ZM66.3396 167.83C66.8496 167.83 67.3046 167.715 67.7046 167.485C68.1146 167.255 68.4346 166.93 68.6646 166.51C68.9046 166.08 69.0246 165.585 69.0246 165.025C69.0246 164.455 68.9046 163.965 68.6646 163.555C68.4346 163.135 68.1146 162.81 67.7046 162.58C67.3046 162.35 66.8496 162.235 66.3396 162.235C65.8396 162.235 65.3846 162.35 64.9746 162.58C64.5746 162.81 64.2546 163.135 64.0146 163.555C63.7846 163.965 63.6696 164.455 63.6696 165.025C63.6696 165.585 63.7846 166.08 64.0146 166.51C64.2546 166.93 64.5746 167.255 64.9746 167.485C65.3846 167.715 65.8396 167.83 66.3396 167.83ZM75.9768 169.09C75.1768 169.09 74.4668 168.915 73.8468 168.565C73.2268 168.215 72.7368 167.735 72.3768 167.125C72.0168 166.505 71.8368 165.805 71.8368 165.025C71.8368 164.235 72.0168 163.535 72.3768 162.925C72.7368 162.315 73.2268 161.84 73.8468 161.5C74.4668 161.15 75.1768 160.975 75.9768 160.975C76.7668 160.975 77.4718 161.15 78.0918 161.5C78.7218 161.84 79.2118 162.315 79.5618 162.925C79.9218 163.525 80.1018 164.225 80.1018 165.025C80.1018 165.815 79.9218 166.515 79.5618 167.125C79.2118 167.735 78.7218 168.215 78.0918 168.565C77.4718 168.915 76.7668 169.09 75.9768 169.09ZM75.9768 167.83C76.4868 167.83 76.9418 167.715 77.3418 167.485C77.7518 167.255 78.0718 166.93 78.3018 166.51C78.5318 166.08 78.6468 165.585 78.6468 165.025C78.6468 164.455 78.5318 163.965 78.3018 163.555C78.0718 163.135 77.7518 162.81 77.3418 162.58C76.9418 162.35 76.4868 162.235 75.9768 162.235C75.4668 162.235 75.0118 162.35 74.6118 162.58C74.2118 162.81 73.8918 163.135 73.6518 163.555C73.4118 163.965 73.2918 164.455 73.2918 165.025C73.2918 165.585 73.4118 166.08 73.6518 166.51C73.8918 166.93 74.2118 167.255 74.6118 167.485C75.0118 167.715 75.4668 167.83 75.9768 167.83ZM82.1811 169V161.05H83.6661L87.0861 166.93H86.4861L89.9961 161.05H91.3461V169H90.0411V162.67L90.2811 162.805L87.0711 168.1H86.4411L83.2161 162.7L83.5011 162.64V169H82.1811ZM93.5489 171.22L94.2989 168.19L94.4939 169.06C94.2039 169.06 93.9589 168.97 93.7589 168.79C93.5689 168.61 93.4739 168.365 93.4739 168.055C93.4739 167.755 93.5689 167.51 93.7589 167.32C93.9589 167.13 94.1989 167.035 94.4789 167.035C94.7689 167.035 95.0039 167.135 95.1839 167.335C95.3639 167.525 95.4539 167.765 95.4539 168.055C95.4539 168.155 95.4439 168.255 95.4239 168.355C95.4139 168.445 95.3889 168.555 95.3489 168.685C95.3189 168.805 95.2689 168.955 95.1989 169.135L94.4939 171.22H93.5489ZM103.151 169V161.935L103.511 162.31H100.241V161.05H107.501V162.31H104.246L104.591 161.935V169H103.151ZM113.848 169V167.32L113.773 167.005V164.14C113.773 163.53 113.593 163.06 113.233 162.73C112.883 162.39 112.353 162.22 111.643 162.22C111.173 162.22 110.713 162.3 110.263 162.46C109.813 162.61 109.433 162.815 109.123 163.075L108.523 161.995C108.933 161.665 109.423 161.415 109.993 161.245C110.573 161.065 111.178 160.975 111.808 160.975C112.898 160.975 113.738 161.24 114.328 161.77C114.918 162.3 115.213 163.11 115.213 164.2V169H113.848ZM111.238 169.09C110.648 169.09 110.128 168.99 109.678 168.79C109.238 168.59 108.898 168.315 108.658 167.965C108.418 167.605 108.298 167.2 108.298 166.75C108.298 166.32 108.398 165.93 108.598 165.58C108.808 165.23 109.143 164.95 109.603 164.74C110.073 164.53 110.703 164.425 111.493 164.425H114.013V165.46H111.553C110.833 165.46 110.348 165.58 110.098 165.82C109.848 166.06 109.723 166.35 109.723 166.69C109.723 167.08 109.878 167.395 110.188 167.635C110.498 167.865 110.928 167.98 111.478 167.98C112.018 167.98 112.488 167.86 112.888 167.62C113.298 167.38 113.593 167.03 113.773 166.57L114.058 167.56C113.868 168.03 113.533 168.405 113.053 168.685C112.573 168.955 111.968 169.09 111.238 169.09ZM123.566 169L120.491 165.13L121.676 164.41L125.261 169H123.566ZM117.806 169V161.05H119.246V169H117.806ZM118.811 165.64V164.41H121.436V165.64H118.811ZM121.796 165.19L120.461 165.01L123.506 161.05H125.051L121.796 165.19ZM140.234 169L137.699 165.13L138.884 164.41L141.944 169H140.234ZM136.049 165.64V164.41H138.629V165.64H136.049ZM139.019 165.19L137.654 165.01L140.189 161.05H141.734L139.019 165.19ZM131.309 169H129.599L132.644 164.41L133.829 165.13L131.309 169ZM136.484 169H135.044V161.05H136.484V169ZM135.479 165.64H132.914V164.41H135.479V165.64ZM132.524 165.19L129.809 161.05H131.339L133.874 165.01L132.524 165.19ZM146.805 169.09C145.955 169.09 145.205 168.915 144.555 168.565C143.915 168.215 143.415 167.735 143.055 167.125C142.705 166.515 142.53 165.815 142.53 165.025C142.53 164.235 142.7 163.535 143.04 162.925C143.39 162.315 143.865 161.84 144.465 161.5C145.075 161.15 145.76 160.975 146.52 160.975C147.29 160.975 147.97 161.145 148.56 161.485C149.15 161.825 149.61 162.305 149.94 162.925C150.28 163.535 150.45 164.25 150.45 165.07C150.45 165.13 150.445 165.2 150.435 165.28C150.435 165.36 150.43 165.435 150.42 165.505H143.655V164.47H149.67L149.085 164.83C149.095 164.32 148.99 163.865 148.77 163.465C148.55 163.065 148.245 162.755 147.855 162.535C147.475 162.305 147.03 162.19 146.52 162.19C146.02 162.19 145.575 162.305 145.185 162.535C144.795 162.755 144.49 163.07 144.27 163.48C144.05 163.88 143.94 164.34 143.94 164.86V165.1C143.94 165.63 144.06 166.105 144.3 166.525C144.55 166.935 144.895 167.255 145.335 167.485C145.775 167.715 146.28 167.83 146.85 167.83C147.32 167.83 147.745 167.75 148.125 167.59C148.515 167.43 148.855 167.19 149.145 166.87L149.94 167.8C149.58 168.22 149.13 168.54 148.59 168.76C148.06 168.98 147.465 169.09 146.805 169.09ZM156.712 169V161.05H160.402C161.332 161.05 162.062 161.23 162.592 161.59C163.132 161.94 163.402 162.44 163.402 163.09C163.402 163.74 163.147 164.245 162.637 164.605C162.137 164.955 161.472 165.13 160.642 165.13L160.867 164.74C161.817 164.74 162.522 164.915 162.982 165.265C163.442 165.615 163.672 166.13 163.672 166.81C163.672 167.5 163.412 168.04 162.892 168.43C162.382 168.81 161.597 169 160.537 169H156.712ZM158.122 167.89H160.432C161.032 167.89 161.482 167.8 161.782 167.62C162.082 167.43 162.232 167.13 162.232 166.72C162.232 166.3 162.092 165.995 161.812 165.805C161.542 165.605 161.112 165.505 160.522 165.505H158.122V167.89ZM158.122 164.47H160.282C160.832 164.47 161.247 164.37 161.527 164.17C161.817 163.96 161.962 163.67 161.962 163.3C161.962 162.92 161.817 162.635 161.527 162.445C161.247 162.255 160.832 162.16 160.282 162.16H158.122V164.47ZM169.331 169.09C168.531 169.09 167.821 168.915 167.201 168.565C166.581 168.215 166.091 167.735 165.731 167.125C165.371 166.505 165.191 165.805 165.191 165.025C165.191 164.235 165.371 163.535 165.731 162.925C166.091 162.315 166.581 161.84 167.201 161.5C167.821 161.15 168.531 160.975 169.331 160.975C170.121 160.975 170.826 161.15 171.446 161.5C172.076 161.84 172.566 162.315 172.916 162.925C173.276 163.525 173.456 164.225 173.456 165.025C173.456 165.815 173.276 166.515 172.916 167.125C172.566 167.735 172.076 168.215 171.446 168.565C170.826 168.915 170.121 169.09 169.331 169.09ZM169.331 167.83C169.841 167.83 170.296 167.715 170.696 167.485C171.106 167.255 171.426 166.93 171.656 166.51C171.886 166.08 172.001 165.585 172.001 165.025C172.001 164.455 171.886 163.965 171.656 163.555C171.426 163.135 171.106 162.81 170.696 162.58C170.296 162.35 169.841 162.235 169.331 162.235C168.821 162.235 168.366 162.35 167.966 162.58C167.566 162.81 167.246 163.135 167.006 163.555C166.766 163.965 166.646 164.455 166.646 165.025C166.646 165.585 166.766 166.08 167.006 166.51C167.246 166.93 167.566 167.255 167.966 167.485C168.366 167.715 168.821 167.83 169.331 167.83ZM177.773 169.105C178.473 169.105 179.093 169.005 179.633 168.805C180.183 168.595 180.618 168.31 180.938 167.95C181.258 167.58 181.418 167.155 181.418 166.675C181.418 166.075 181.163 165.6 180.653 165.25C180.143 164.9 179.443 164.725 178.553 164.725L178.493 165.07C179.013 165.07 179.473 164.985 179.873 164.815C180.273 164.645 180.593 164.415 180.833 164.125C181.073 163.825 181.193 163.485 181.193 163.105C181.193 162.655 181.033 162.265 180.713 161.935C180.403 161.605 179.978 161.355 179.438 161.185C178.898 161.005 178.283 160.925 177.593 160.945C177.133 160.955 176.668 161.025 176.198 161.155C175.738 161.275 175.268 161.45 174.788 161.68L175.178 162.805C175.608 162.595 176.028 162.44 176.438 162.34C176.858 162.24 177.268 162.185 177.668 162.175C178.078 162.175 178.433 162.22 178.733 162.31C179.043 162.4 179.283 162.53 179.453 162.7C179.623 162.87 179.708 163.075 179.708 163.315C179.708 163.535 179.633 163.73 179.483 163.9C179.343 164.06 179.143 164.18 178.883 164.26C178.623 164.34 178.318 164.38 177.968 164.38H176.618V165.415H178.058C178.648 165.415 179.108 165.515 179.438 165.715C179.768 165.915 179.933 166.2 179.933 166.57C179.933 166.83 179.843 167.06 179.663 167.26C179.483 167.45 179.223 167.6 178.883 167.71C178.553 167.82 178.158 167.875 177.698 167.875C177.198 167.875 176.703 167.81 176.213 167.68C175.723 167.54 175.288 167.35 174.908 167.11L174.473 168.205C174.923 168.495 175.433 168.72 176.003 168.88C176.583 169.03 177.173 169.105 177.773 169.105ZM183.607 169V161.05H185.092L188.512 166.93H187.912L191.422 161.05H192.772V169H191.467V162.67L191.707 162.805L188.497 168.1H187.867L184.642 162.7L184.927 162.64V169H183.607ZM198.98 169.09C198.18 169.09 197.47 168.915 196.85 168.565C196.23 168.215 195.74 167.735 195.38 167.125C195.02 166.505 194.84 165.805 194.84 165.025C194.84 164.235 195.02 163.535 195.38 162.925C195.74 162.315 196.23 161.84 196.85 161.5C197.47 161.15 198.18 160.975 198.98 160.975C199.77 160.975 200.475 161.15 201.095 161.5C201.725 161.84 202.215 162.315 202.565 162.925C202.925 163.525 203.105 164.225 203.105 165.025C203.105 165.815 202.925 166.515 202.565 167.125C202.215 167.735 201.725 168.215 201.095 168.565C200.475 168.915 199.77 169.09 198.98 169.09ZM198.98 167.83C199.49 167.83 199.945 167.715 200.345 167.485C200.755 167.255 201.075 166.93 201.305 166.51C201.535 166.08 201.65 165.585 201.65 165.025C201.65 164.455 201.535 163.965 201.305 163.555C201.075 163.135 200.755 162.81 200.345 162.58C199.945 162.35 199.49 162.235 198.98 162.235C198.47 162.235 198.015 162.35 197.615 162.58C197.215 162.81 196.895 163.135 196.655 163.555C196.415 163.965 196.295 164.455 196.295 165.025C196.295 165.585 196.415 166.08 196.655 166.51C196.895 166.93 197.215 167.255 197.615 167.485C198.015 167.715 198.47 167.83 198.98 167.83ZM214.355 169L211.82 165.13L213.005 164.41L216.065 169H214.355ZM210.17 165.64V164.41H212.75V165.64H210.17ZM213.14 165.19L211.775 165.01L214.31 161.05H215.855L213.14 165.19ZM205.43 169H203.72L206.765 164.41L207.95 165.13L205.43 169ZM210.605 169H209.165V161.05H210.605V169ZM209.6 165.64H207.035V164.41H209.6V165.64ZM206.645 165.19L203.93 161.05H205.46L207.995 165.01L206.645 165.19ZM217.65 169V161.05H219.09V164.425H223.62V161.05H225.06V169H223.62V165.67H219.09V169H217.65ZM232.735 169V167.32L232.66 167.005V164.14C232.66 163.53 232.48 163.06 232.12 162.73C231.77 162.39 231.24 162.22 230.53 162.22C230.06 162.22 229.6 162.3 229.15 162.46C228.7 162.61 228.32 162.815 228.01 163.075L227.41 161.995C227.82 161.665 228.31 161.415 228.88 161.245C229.46 161.065 230.065 160.975 230.695 160.975C231.785 160.975 232.625 161.24 233.215 161.77C233.805 162.3 234.1 163.11 234.1 164.2V169H232.735ZM230.125 169.09C229.535 169.09 229.015 168.99 228.565 168.79C228.125 168.59 227.785 168.315 227.545 167.965C227.305 167.605 227.185 167.2 227.185 166.75C227.185 166.32 227.285 165.93 227.485 165.58C227.695 165.23 228.03 164.95 228.49 164.74C228.96 164.53 229.59 164.425 230.38 164.425H232.9V165.46H230.44C229.72 165.46 229.235 165.58 228.985 165.82C228.735 166.06 228.61 166.35 228.61 166.69C228.61 167.08 228.765 167.395 229.075 167.635C229.385 167.865 229.815 167.98 230.365 167.98C230.905 167.98 231.375 167.86 231.775 167.62C232.185 167.38 232.48 167.03 232.66 166.57L232.945 167.56C232.755 168.03 232.42 168.405 231.94 168.685C231.46 168.955 230.855 169.09 230.125 169.09ZM16.395 187V179.05H23.76V187H22.32V179.95L22.665 180.31H17.49L17.835 179.95V187H16.395ZM30.7614 187.09C30.1014 187.09 29.4964 186.94 28.9464 186.64C28.4064 186.33 27.9714 185.875 27.6414 185.275C27.3214 184.675 27.1614 183.925 27.1614 183.025C27.1614 182.125 27.3164 181.375 27.6264 180.775C27.9464 180.175 28.3764 179.725 28.9164 179.425C29.4664 179.125 30.0814 178.975 30.7614 178.975C31.5414 178.975 32.2314 179.145 32.8314 179.485C33.4314 179.825 33.9064 180.3 34.2564 180.91C34.6064 181.51 34.7814 182.215 34.7814 183.025C34.7814 183.835 34.6064 184.545 34.2564 185.155C33.9064 185.765 33.4314 186.24 32.8314 186.58C32.2314 186.92 31.5414 187.09 30.7614 187.09ZM26.5464 189.91V179.05H27.9264V181.195L27.8364 183.04L27.9864 184.885V189.91H26.5464ZM30.6414 185.83C31.1514 185.83 31.6064 185.715 32.0064 185.485C32.4164 185.255 32.7364 184.93 32.9664 184.51C33.2064 184.08 33.3264 183.585 33.3264 183.025C33.3264 182.455 33.2064 181.965 32.9664 181.555C32.7364 181.135 32.4164 180.81 32.0064 180.58C31.6064 180.35 31.1514 180.235 30.6414 180.235C30.1414 180.235 29.6864 180.35 29.2764 180.58C28.8764 180.81 28.5564 181.135 28.3164 181.555C28.0864 181.965 27.9714 182.455 27.9714 183.025C27.9714 183.585 28.0864 184.08 28.3164 184.51C28.5564 184.93 28.8764 185.255 29.2764 185.485C29.6864 185.715 30.1414 185.83 30.6414 185.83ZM40.2785 187.09C39.4785 187.09 38.7685 186.915 38.1485 186.565C37.5285 186.215 37.0385 185.735 36.6785 185.125C36.3185 184.505 36.1385 183.805 36.1385 183.025C36.1385 182.235 36.3185 181.535 36.6785 180.925C37.0385 180.315 37.5285 179.84 38.1485 179.5C38.7685 179.15 39.4785 178.975 40.2785 178.975C41.0685 178.975 41.7735 179.15 42.3935 179.5C43.0235 179.84 43.5135 180.315 43.8635 180.925C44.2235 181.525 44.4035 182.225 44.4035 183.025C44.4035 183.815 44.2235 184.515 43.8635 185.125C43.5135 185.735 43.0235 186.215 42.3935 186.565C41.7735 186.915 41.0685 187.09 40.2785 187.09ZM40.2785 185.83C40.7885 185.83 41.2435 185.715 41.6435 185.485C42.0535 185.255 42.3735 184.93 42.6035 184.51C42.8335 184.08 42.9485 183.585 42.9485 183.025C42.9485 182.455 42.8335 181.965 42.6035 181.555C42.3735 181.135 42.0535 180.81 41.6435 180.58C41.2435 180.35 40.7885 180.235 40.2785 180.235C39.7685 180.235 39.3135 180.35 38.9135 180.58C38.5135 180.81 38.1935 181.135 37.9535 181.555C37.7135 181.965 37.5935 182.455 37.5935 183.025C37.5935 183.585 37.7135 184.08 37.9535 184.51C38.1935 184.93 38.5135 185.255 38.9135 185.485C39.3135 185.715 39.7685 185.83 40.2785 185.83ZM46.4829 187V179.05H50.1729C51.1029 179.05 51.8329 179.23 52.3629 179.59C52.9029 179.94 53.1729 180.44 53.1729 181.09C53.1729 181.74 52.9179 182.245 52.4079 182.605C51.9079 182.955 51.2429 183.13 50.4129 183.13L50.6379 182.74C51.5879 182.74 52.2929 182.915 52.7529 183.265C53.2129 183.615 53.4429 184.13 53.4429 184.81C53.4429 185.5 53.1829 186.04 52.6629 186.43C52.1529 186.81 51.3679 187 50.3079 187H46.4829ZM47.8929 185.89H50.2029C50.8029 185.89 51.2529 185.8 51.5529 185.62C51.8529 185.43 52.0029 185.13 52.0029 184.72C52.0029 184.3 51.8629 183.995 51.5829 183.805C51.3129 183.605 50.8829 183.505 50.2929 183.505H47.8929V185.89ZM47.8929 182.47H50.0529C50.6029 182.47 51.0179 182.37 51.2979 182.17C51.5879 181.96 51.7329 181.67 51.7329 181.3C51.7329 180.92 51.5879 180.635 51.2979 180.445C51.0179 180.255 50.6029 180.16 50.0529 180.16H47.8929V182.47ZM59.2368 187.09C58.3868 187.09 57.6368 186.915 56.9868 186.565C56.3468 186.215 55.8468 185.735 55.4868 185.125C55.1368 184.515 54.9618 183.815 54.9618 183.025C54.9618 182.235 55.1318 181.535 55.4718 180.925C55.8218 180.315 56.2968 179.84 56.8968 179.5C57.5068 179.15 58.1918 178.975 58.9518 178.975C59.7218 178.975 60.4018 179.145 60.9918 179.485C61.5818 179.825 62.0418 180.305 62.3718 180.925C62.7118 181.535 62.8818 182.25 62.8818 183.07C62.8818 183.13 62.8768 183.2 62.8668 183.28C62.8668 183.36 62.8618 183.435 62.8518 183.505H56.0868V182.47H62.1018L61.5168 182.83C61.5268 182.32 61.4218 181.865 61.2018 181.465C60.9818 181.065 60.6768 180.755 60.2868 180.535C59.9068 180.305 59.4618 180.19 58.9518 180.19C58.4518 180.19 58.0068 180.305 57.6168 180.535C57.2268 180.755 56.9218 181.07 56.7018 181.48C56.4818 181.88 56.3718 182.34 56.3718 182.86V183.1C56.3718 183.63 56.4918 184.105 56.7318 184.525C56.9818 184.935 57.3268 185.255 57.7668 185.485C58.2068 185.715 58.7118 185.83 59.2818 185.83C59.7518 185.83 60.1768 185.75 60.5568 185.59C60.9468 185.43 61.2868 185.19 61.5768 184.87L62.3718 185.8C62.0118 186.22 61.5618 186.54 61.0218 186.76C60.4918 186.98 59.8968 187.09 59.2368 187.09ZM69.3307 187.09C68.6707 187.09 68.0657 186.94 67.5157 186.64C66.9757 186.33 66.5407 185.875 66.2107 185.275C65.8907 184.675 65.7307 183.925 65.7307 183.025C65.7307 182.125 65.8857 181.375 66.1957 180.775C66.5157 180.175 66.9457 179.725 67.4857 179.425C68.0357 179.125 68.6507 178.975 69.3307 178.975C70.1107 178.975 70.8007 179.145 71.4007 179.485C72.0007 179.825 72.4757 180.3 72.8257 180.91C73.1757 181.51 73.3507 182.215 73.3507 183.025C73.3507 183.835 73.1757 184.545 72.8257 185.155C72.4757 185.765 72.0007 186.24 71.4007 186.58C70.8007 186.92 70.1107 187.09 69.3307 187.09ZM65.1157 189.91V179.05H66.4957V181.195L66.4057 183.04L66.5557 184.885V189.91H65.1157ZM69.2107 185.83C69.7207 185.83 70.1757 185.715 70.5757 185.485C70.9857 185.255 71.3057 184.93 71.5357 184.51C71.7757 184.08 71.8957 183.585 71.8957 183.025C71.8957 182.455 71.7757 181.965 71.5357 181.555C71.3057 181.135 70.9857 180.81 70.5757 180.58C70.1757 180.35 69.7207 180.235 69.2107 180.235C68.7107 180.235 68.2557 180.35 67.8457 180.58C67.4457 180.81 67.1257 181.135 66.8857 181.555C66.6557 181.965 66.5407 182.455 66.5407 183.025C66.5407 183.585 66.6557 184.08 66.8857 184.51C67.1257 184.93 67.4457 185.255 67.8457 185.485C68.2557 185.715 68.7107 185.83 69.2107 185.83ZM81.2029 187L78.1279 183.13L79.3129 182.41L82.8979 187H81.2029ZM75.4429 187V179.05H76.8829V187H75.4429ZM76.4479 183.64V182.41H79.0729V183.64H76.4479ZM79.4329 183.19L78.0979 183.01L81.1429 179.05H82.6879L79.4329 183.19ZM89.1362 187V185.32L89.0612 185.005V182.14C89.0612 181.53 88.8812 181.06 88.5212 180.73C88.1712 180.39 87.6412 180.22 86.9312 180.22C86.4612 180.22 86.0012 180.3 85.5512 180.46C85.1012 180.61 84.7212 180.815 84.4112 181.075L83.8112 179.995C84.2212 179.665 84.7112 179.415 85.2812 179.245C85.8612 179.065 86.4662 178.975 87.0962 178.975C88.1862 178.975 89.0262 179.24 89.6162 179.77C90.2062 180.3 90.5012 181.11 90.5012 182.2V187H89.1362ZM86.5262 187.09C85.9362 187.09 85.4162 186.99 84.9662 186.79C84.5262 186.59 84.1862 186.315 83.9462 185.965C83.7062 185.605 83.5862 185.2 83.5862 184.75C83.5862 184.32 83.6862 183.93 83.8862 183.58C84.0962 183.23 84.4312 182.95 84.8912 182.74C85.3612 182.53 85.9912 182.425 86.7812 182.425H89.3012V183.46H86.8412C86.1212 183.46 85.6362 183.58 85.3862 183.82C85.1362 184.06 85.0112 184.35 85.0112 184.69C85.0112 185.08 85.1662 185.395 85.4762 185.635C85.7862 185.865 86.2162 185.98 86.7662 185.98C87.3062 185.98 87.7762 185.86 88.1762 185.62C88.5862 185.38 88.8812 185.03 89.0612 184.57L89.3462 185.56C89.1562 186.03 88.8212 186.405 88.3412 186.685C87.8612 186.955 87.2562 187.09 86.5262 187.09ZM102.883 187L99.8075 183.13L100.993 182.41L104.578 187H102.883ZM97.1225 187V179.05H98.5625V187H97.1225ZM98.1275 183.64V182.41H100.753V183.64H98.1275ZM101.113 183.19L99.7775 183.01L102.823 179.05H104.368L101.113 183.19ZM109.229 187.09C108.429 187.09 107.719 186.915 107.099 186.565C106.479 186.215 105.989 185.735 105.629 185.125C105.269 184.505 105.089 183.805 105.089 183.025C105.089 182.235 105.269 181.535 105.629 180.925C105.989 180.315 106.479 179.84 107.099 179.5C107.719 179.15 108.429 178.975 109.229 178.975C110.019 178.975 110.724 179.15 111.344 179.5C111.974 179.84 112.464 180.315 112.814 180.925C113.174 181.525 113.354 182.225 113.354 183.025C113.354 183.815 113.174 184.515 112.814 185.125C112.464 185.735 111.974 186.215 111.344 186.565C110.724 186.915 110.019 187.09 109.229 187.09ZM109.229 185.83C109.739 185.83 110.194 185.715 110.594 185.485C111.004 185.255 111.324 184.93 111.554 184.51C111.784 184.08 111.899 183.585 111.899 183.025C111.899 182.455 111.784 181.965 111.554 181.555C111.324 181.135 111.004 180.81 110.594 180.58C110.194 180.35 109.739 180.235 109.229 180.235C108.719 180.235 108.264 180.35 107.864 180.58C107.464 180.81 107.144 181.135 106.904 181.555C106.664 181.965 106.544 182.455 106.544 183.025C106.544 183.585 106.664 184.08 106.904 184.51C107.144 184.93 107.464 185.255 107.864 185.485C108.264 185.715 108.719 185.83 109.229 185.83ZM115.433 187V179.05H116.918L120.338 184.93H119.738L123.248 179.05H124.598V187H123.293V180.67L123.533 180.805L120.323 186.1H119.693L116.468 180.7L116.753 180.64V187H115.433ZM127.401 187V179.05H134.766V187H133.326V179.95L133.671 180.31H128.496L128.841 179.95V187H127.401ZM141.767 187.09C141.107 187.09 140.502 186.94 139.952 186.64C139.412 186.33 138.977 185.875 138.647 185.275C138.327 184.675 138.167 183.925 138.167 183.025C138.167 182.125 138.322 181.375 138.632 180.775C138.952 180.175 139.382 179.725 139.922 179.425C140.472 179.125 141.087 178.975 141.767 178.975C142.547 178.975 143.237 179.145 143.837 179.485C144.437 179.825 144.912 180.3 145.262 180.91C145.612 181.51 145.787 182.215 145.787 183.025C145.787 183.835 145.612 184.545 145.262 185.155C144.912 185.765 144.437 186.24 143.837 186.58C143.237 186.92 142.547 187.09 141.767 187.09ZM137.552 189.91V179.05H138.932V181.195L138.842 183.04L138.992 184.885V189.91H137.552ZM141.647 185.83C142.157 185.83 142.612 185.715 143.012 185.485C143.422 185.255 143.742 184.93 143.972 184.51C144.212 184.08 144.332 183.585 144.332 183.025C144.332 182.455 144.212 181.965 143.972 181.555C143.742 181.135 143.422 180.81 143.012 180.58C142.612 180.35 142.157 180.235 141.647 180.235C141.147 180.235 140.692 180.35 140.282 180.58C139.882 180.81 139.562 181.135 139.322 181.555C139.092 181.965 138.977 182.455 138.977 183.025C138.977 183.585 139.092 184.08 139.322 184.51C139.562 184.93 139.882 185.255 140.282 185.485C140.692 185.715 141.147 185.83 141.647 185.83ZM151.419 187.09C150.569 187.09 149.819 186.915 149.169 186.565C148.529 186.215 148.029 185.735 147.669 185.125C147.319 184.515 147.144 183.815 147.144 183.025C147.144 182.235 147.314 181.535 147.654 180.925C148.004 180.315 148.479 179.84 149.079 179.5C149.689 179.15 150.374 178.975 151.134 178.975C151.904 178.975 152.584 179.145 153.174 179.485C153.764 179.825 154.224 180.305 154.554 180.925C154.894 181.535 155.064 182.25 155.064 183.07C155.064 183.13 155.059 183.2 155.049 183.28C155.049 183.36 155.044 183.435 155.034 183.505H148.269V182.47H154.284L153.699 182.83C153.709 182.32 153.604 181.865 153.384 181.465C153.164 181.065 152.859 180.755 152.469 180.535C152.089 180.305 151.644 180.19 151.134 180.19C150.634 180.19 150.189 180.305 149.799 180.535C149.409 180.755 149.104 181.07 148.884 181.48C148.664 181.88 148.554 182.34 148.554 182.86V183.1C148.554 183.63 148.674 184.105 148.914 184.525C149.164 184.935 149.509 185.255 149.949 185.485C150.389 185.715 150.894 185.83 151.464 185.83C151.934 185.83 152.359 185.75 152.739 185.59C153.129 185.43 153.469 185.19 153.759 184.87L154.554 185.8C154.194 186.22 153.744 186.54 153.204 186.76C152.674 186.98 152.079 187.09 151.419 187.09ZM160.763 187.09C159.953 187.09 159.228 186.915 158.588 186.565C157.958 186.215 157.463 185.735 157.103 185.125C156.743 184.515 156.563 183.815 156.563 183.025C156.563 182.235 156.743 181.535 157.103 180.925C157.463 180.315 157.958 179.84 158.588 179.5C159.228 179.15 159.953 178.975 160.763 178.975C161.483 178.975 162.123 179.12 162.683 179.41C163.253 179.69 163.693 180.11 164.003 180.67L162.908 181.375C162.648 180.985 162.328 180.7 161.948 180.52C161.578 180.33 161.178 180.235 160.748 180.235C160.228 180.235 159.763 180.35 159.353 180.58C158.943 180.81 158.618 181.135 158.378 181.555C158.138 181.965 158.018 182.455 158.018 183.025C158.018 183.595 158.138 184.09 158.378 184.51C158.618 184.93 158.943 185.255 159.353 185.485C159.763 185.715 160.228 185.83 160.748 185.83C161.178 185.83 161.578 185.74 161.948 185.56C162.328 185.37 162.648 185.08 162.908 184.69L164.003 185.38C163.693 185.93 163.253 186.355 162.683 186.655C162.123 186.945 161.483 187.09 160.763 187.09ZM165.868 187V179.05H167.308V184.84L172.183 179.05H173.488V187H172.048V181.21L167.188 187H165.868ZM176.283 187V179.05H177.723V184.84L182.598 179.05H183.903V187H182.463V181.21L177.603 187H176.283ZM197.941 186.295V177.805H193.336L193.261 180.01C193.231 180.75 193.181 181.46 193.111 182.14C193.051 182.82 192.961 183.435 192.841 183.985C192.721 184.525 192.551 184.97 192.331 185.32C192.121 185.67 191.851 185.885 191.521 185.965L189.901 185.695C190.291 185.725 190.611 185.595 190.861 185.305C191.121 185.005 191.321 184.59 191.461 184.06C191.611 183.52 191.721 182.895 191.791 182.185C191.861 181.465 191.911 180.695 191.941 179.875L192.046 176.5H199.426V186.295H197.941ZM189.526 189.295L189.541 185.695H200.971V189.295H199.576V187H190.936L190.921 189.295H189.526ZM203.022 187V176.5H207.537C208.677 176.5 209.572 176.73 210.222 177.19C210.872 177.65 211.197 178.32 211.197 179.2C211.197 180.06 210.887 180.72 210.267 181.18C209.647 181.63 208.832 181.855 207.822 181.855L208.092 181.405C209.262 181.405 210.157 181.64 210.777 182.11C211.407 182.57 211.722 183.245 211.722 184.135C211.722 185.035 211.392 185.74 210.732 186.25C210.082 186.75 209.112 187 207.822 187H203.022ZM204.507 185.815H207.792C208.592 185.815 209.192 185.67 209.592 185.38C210.002 185.08 210.207 184.625 210.207 184.015C210.207 183.405 210.002 182.96 209.592 182.68C209.192 182.4 208.592 182.26 207.792 182.26H204.507V185.815ZM204.507 181.12H207.432C208.162 181.12 208.717 180.975 209.097 180.685C209.487 180.395 209.682 179.97 209.682 179.41C209.682 178.84 209.487 178.41 209.097 178.12C208.717 177.83 208.162 177.685 207.432 177.685H204.507V181.12ZM218.923 187.12C218.123 187.12 217.383 186.99 216.703 186.73C216.033 186.46 215.448 186.085 214.948 185.605C214.458 185.115 214.073 184.545 213.793 183.895C213.513 183.245 213.373 182.53 213.373 181.75C213.373 180.97 213.513 180.255 213.793 179.605C214.073 178.955 214.463 178.39 214.963 177.91C215.463 177.42 216.048 177.045 216.718 176.785C217.398 176.515 218.138 176.38 218.938 176.38C219.748 176.38 220.493 176.52 221.173 176.8C221.863 177.07 222.448 177.475 222.928 178.015L221.953 178.96C221.553 178.54 221.103 178.23 220.603 178.03C220.103 177.82 219.568 177.715 218.998 177.715C218.408 177.715 217.858 177.815 217.348 178.015C216.848 178.215 216.413 178.495 216.043 178.855C215.673 179.215 215.383 179.645 215.173 180.145C214.973 180.635 214.873 181.17 214.873 181.75C214.873 182.33 214.973 182.87 215.173 183.37C215.383 183.86 215.673 184.285 216.043 184.645C216.413 185.005 216.848 185.285 217.348 185.485C217.858 185.685 218.408 185.785 218.998 185.785C219.568 185.785 220.103 185.685 220.603 185.485C221.103 185.275 221.553 184.955 221.953 184.525L222.928 185.47C222.448 186.01 221.863 186.42 221.173 186.7C220.493 186.98 219.743 187.12 218.923 187.12ZM16.635 205V194.5H25.68V205H24.21V195.415L24.57 195.805H17.745L18.12 195.415V205H16.635ZM32.9293 205.09C32.2693 205.09 31.6643 204.94 31.1143 204.64C30.5743 204.33 30.1393 203.875 29.8093 203.275C29.4893 202.675 29.3293 201.925 29.3293 201.025C29.3293 200.125 29.4843 199.375 29.7943 198.775C30.1143 198.175 30.5443 197.725 31.0843 197.425C31.6343 197.125 32.2493 196.975 32.9293 196.975C33.7093 196.975 34.3993 197.145 34.9993 197.485C35.5993 197.825 36.0743 198.3 36.4243 198.91C36.7743 199.51 36.9493 200.215 36.9493 201.025C36.9493 201.835 36.7743 202.545 36.4243 203.155C36.0743 203.765 35.5993 204.24 34.9993 204.58C34.3993 204.92 33.7093 205.09 32.9293 205.09ZM28.7143 207.91V197.05H30.0943V199.195L30.0043 201.04L30.1543 202.885V207.91H28.7143ZM32.8093 203.83C33.3193 203.83 33.7743 203.715 34.1743 203.485C34.5843 203.255 34.9043 202.93 35.1343 202.51C35.3743 202.08 35.4943 201.585 35.4943 201.025C35.4943 200.455 35.3743 199.965 35.1343 199.555C34.9043 199.135 34.5843 198.81 34.1743 198.58C33.7743 198.35 33.3193 198.235 32.8093 198.235C32.3093 198.235 31.8543 198.35 31.4443 198.58C31.0443 198.81 30.7243 199.135 30.4843 199.555C30.2543 199.965 30.1393 200.455 30.1393 201.025C30.1393 201.585 30.2543 202.08 30.4843 202.51C30.7243 202.93 31.0443 203.255 31.4443 203.485C31.8543 203.715 32.3093 203.83 32.8093 203.83ZM42.4465 205.09C41.6465 205.09 40.9365 204.915 40.3165 204.565C39.6965 204.215 39.2065 203.735 38.8465 203.125C38.4865 202.505 38.3065 201.805 38.3065 201.025C38.3065 200.235 38.4865 199.535 38.8465 198.925C39.2065 198.315 39.6965 197.84 40.3165 197.5C40.9365 197.15 41.6465 196.975 42.4465 196.975C43.2365 196.975 43.9415 197.15 44.5615 197.5C45.1915 197.84 45.6815 198.315 46.0315 198.925C46.3915 199.525 46.5715 200.225 46.5715 201.025C46.5715 201.815 46.3915 202.515 46.0315 203.125C45.6815 203.735 45.1915 204.215 44.5615 204.565C43.9415 204.915 43.2365 205.09 42.4465 205.09ZM42.4465 203.83C42.9565 203.83 43.4115 203.715 43.8115 203.485C44.2215 203.255 44.5415 202.93 44.7715 202.51C45.0015 202.08 45.1165 201.585 45.1165 201.025C45.1165 200.455 45.0015 199.965 44.7715 199.555C44.5415 199.135 44.2215 198.81 43.8115 198.58C43.4115 198.35 42.9565 198.235 42.4465 198.235C41.9365 198.235 41.4815 198.35 41.0815 198.58C40.6815 198.81 40.3615 199.135 40.1215 199.555C39.8815 199.965 39.7615 200.455 39.7615 201.025C39.7615 201.585 39.8815 202.08 40.1215 202.51C40.3615 202.93 40.6815 203.255 41.0815 203.485C41.4815 203.715 41.9365 203.83 42.4465 203.83ZM48.6509 205V197.05H52.3409C53.2709 197.05 54.0009 197.23 54.5309 197.59C55.0709 197.94 55.3409 198.44 55.3409 199.09C55.3409 199.74 55.0859 200.245 54.5759 200.605C54.0759 200.955 53.4109 201.13 52.5809 201.13L52.8059 200.74C53.7559 200.74 54.4609 200.915 54.9209 201.265C55.3809 201.615 55.6109 202.13 55.6109 202.81C55.6109 203.5 55.3509 204.04 54.8309 204.43C54.3209 204.81 53.5359 205 52.4759 205H48.6509ZM50.0609 203.89H52.3709C52.9709 203.89 53.4209 203.8 53.7209 203.62C54.0209 203.43 54.1709 203.13 54.1709 202.72C54.1709 202.3 54.0309 201.995 53.7509 201.805C53.4809 201.605 53.0509 201.505 52.4609 201.505H50.0609V203.89ZM50.0609 200.47H52.2209C52.7709 200.47 53.1859 200.37 53.4659 200.17C53.7559 199.96 53.9009 199.67 53.9009 199.3C53.9009 198.92 53.7559 198.635 53.4659 198.445C53.1859 198.255 52.7709 198.16 52.2209 198.16H50.0609V200.47ZM61.4047 205.09C60.5547 205.09 59.8047 204.915 59.1547 204.565C58.5147 204.215 58.0147 203.735 57.6547 203.125C57.3047 202.515 57.1297 201.815 57.1297 201.025C57.1297 200.235 57.2997 199.535 57.6397 198.925C57.9897 198.315 58.4647 197.84 59.0647 197.5C59.6747 197.15 60.3597 196.975 61.1197 196.975C61.8897 196.975 62.5697 197.145 63.1597 197.485C63.7497 197.825 64.2097 198.305 64.5397 198.925C64.8797 199.535 65.0497 200.25 65.0497 201.07C65.0497 201.13 65.0447 201.2 65.0347 201.28C65.0347 201.36 65.0297 201.435 65.0197 201.505H58.2547V200.47H64.2697L63.6847 200.83C63.6947 200.32 63.5897 199.865 63.3697 199.465C63.1497 199.065 62.8447 198.755 62.4547 198.535C62.0747 198.305 61.6297 198.19 61.1197 198.19C60.6197 198.19 60.1747 198.305 59.7847 198.535C59.3947 198.755 59.0897 199.07 58.8697 199.48C58.6497 199.88 58.5397 200.34 58.5397 200.86V201.1C58.5397 201.63 58.6597 202.105 58.8997 202.525C59.1497 202.935 59.4947 203.255 59.9347 203.485C60.3747 203.715 60.8797 203.83 61.4497 203.83C61.9197 203.83 62.3447 203.75 62.7247 203.59C63.1147 203.43 63.4547 203.19 63.7447 202.87L64.5397 203.8C64.1797 204.22 63.7297 204.54 63.1897 204.76C62.6597 204.98 62.0647 205.09 61.4047 205.09ZM71.4987 205.09C70.8387 205.09 70.2337 204.94 69.6837 204.64C69.1437 204.33 68.7087 203.875 68.3787 203.275C68.0587 202.675 67.8987 201.925 67.8987 201.025C67.8987 200.125 68.0537 199.375 68.3637 198.775C68.6837 198.175 69.1137 197.725 69.6537 197.425C70.2037 197.125 70.8187 196.975 71.4987 196.975C72.2787 196.975 72.9687 197.145 73.5687 197.485C74.1687 197.825 74.6437 198.3 74.9937 198.91C75.3437 199.51 75.5187 200.215 75.5187 201.025C75.5187 201.835 75.3437 202.545 74.9937 203.155C74.6437 203.765 74.1687 204.24 73.5687 204.58C72.9687 204.92 72.2787 205.09 71.4987 205.09ZM67.2837 207.91V197.05H68.6637V199.195L68.5737 201.04L68.7237 202.885V207.91H67.2837ZM71.3787 203.83C71.8887 203.83 72.3437 203.715 72.7437 203.485C73.1537 203.255 73.4737 202.93 73.7037 202.51C73.9437 202.08 74.0637 201.585 74.0637 201.025C74.0637 200.455 73.9437 199.965 73.7037 199.555C73.4737 199.135 73.1537 198.81 72.7437 198.58C72.3437 198.35 71.8887 198.235 71.3787 198.235C70.8787 198.235 70.4237 198.35 70.0137 198.58C69.6137 198.81 69.2937 199.135 69.0537 199.555C68.8237 199.965 68.7087 200.455 68.7087 201.025C68.7087 201.585 68.8237 202.08 69.0537 202.51C69.2937 202.93 69.6137 203.255 70.0137 203.485C70.4237 203.715 70.8787 203.83 71.3787 203.83ZM83.3708 205L80.2958 201.13L81.4808 200.41L85.0658 205H83.3708ZM77.6108 205V197.05H79.0508V205H77.6108ZM78.6158 201.64V200.41H81.2408V201.64H78.6158ZM81.6008 201.19L80.2658 201.01L83.3108 197.05H84.8558L81.6008 201.19ZM91.3042 205V203.32L91.2292 203.005V200.14C91.2292 199.53 91.0492 199.06 90.6892 198.73C90.3392 198.39 89.8092 198.22 89.0992 198.22C88.6292 198.22 88.1692 198.3 87.7192 198.46C87.2692 198.61 86.8892 198.815 86.5792 199.075L85.9792 197.995C86.3892 197.665 86.8792 197.415 87.4492 197.245C88.0292 197.065 88.6342 196.975 89.2642 196.975C90.3542 196.975 91.1942 197.24 91.7842 197.77C92.3742 198.3 92.6692 199.11 92.6692 200.2V205H91.3042ZM88.6942 205.09C88.1042 205.09 87.5842 204.99 87.1342 204.79C86.6942 204.59 86.3542 204.315 86.1142 203.965C85.8742 203.605 85.7542 203.2 85.7542 202.75C85.7542 202.32 85.8542 201.93 86.0542 201.58C86.2642 201.23 86.5992 200.95 87.0592 200.74C87.5292 200.53 88.1592 200.425 88.9492 200.425H91.4692V201.46H89.0092C88.2892 201.46 87.8042 201.58 87.5542 201.82C87.3042 202.06 87.1792 202.35 87.1792 202.69C87.1792 203.08 87.3342 203.395 87.6442 203.635C87.9542 203.865 88.3842 203.98 88.9342 203.98C89.4742 203.98 89.9442 203.86 90.3442 203.62C90.7542 203.38 91.0492 203.03 91.2292 202.57L91.5142 203.56C91.3242 204.03 90.9892 204.405 90.5092 204.685C90.0292 204.955 89.4242 205.09 88.6942 205.09ZM102.756 205.09C101.946 205.09 101.221 204.915 100.581 204.565C99.9505 204.215 99.4555 203.735 99.0955 203.125C98.7355 202.515 98.5555 201.815 98.5555 201.025C98.5555 200.235 98.7355 199.535 99.0955 198.925C99.4555 198.315 99.9505 197.84 100.581 197.5C101.221 197.15 101.946 196.975 102.756 196.975C103.476 196.975 104.116 197.12 104.676 197.41C105.246 197.69 105.686 198.11 105.996 198.67L104.901 199.375C104.641 198.985 104.321 198.7 103.941 198.52C103.571 198.33 103.171 198.235 102.741 198.235C102.221 198.235 101.756 198.35 101.346 198.58C100.936 198.81 100.611 199.135 100.371 199.555C100.131 199.965 100.011 200.455 100.011 201.025C100.011 201.595 100.131 202.09 100.371 202.51C100.611 202.93 100.936 203.255 101.346 203.485C101.756 203.715 102.221 203.83 102.741 203.83C103.171 203.83 103.571 203.74 103.941 203.56C104.321 203.37 104.641 203.08 104.901 202.69L105.996 203.38C105.686 203.93 105.246 204.355 104.676 204.655C104.116 204.945 103.476 205.09 102.756 205.09ZM111.148 205.09C110.348 205.09 109.638 204.915 109.018 204.565C108.398 204.215 107.908 203.735 107.548 203.125C107.188 202.505 107.008 201.805 107.008 201.025C107.008 200.235 107.188 199.535 107.548 198.925C107.908 198.315 108.398 197.84 109.018 197.5C109.638 197.15 110.348 196.975 111.148 196.975C111.938 196.975 112.643 197.15 113.263 197.5C113.893 197.84 114.383 198.315 114.733 198.925C115.093 199.525 115.273 200.225 115.273 201.025C115.273 201.815 115.093 202.515 114.733 203.125C114.383 203.735 113.893 204.215 113.263 204.565C112.643 204.915 111.938 205.09 111.148 205.09ZM111.148 203.83C111.658 203.83 112.113 203.715 112.513 203.485C112.923 203.255 113.243 202.93 113.473 202.51C113.703 202.08 113.818 201.585 113.818 201.025C113.818 200.455 113.703 199.965 113.473 199.555C113.243 199.135 112.923 198.81 112.513 198.58C112.113 198.35 111.658 198.235 111.148 198.235C110.638 198.235 110.183 198.35 109.783 198.58C109.383 198.81 109.063 199.135 108.823 199.555C108.583 199.965 108.463 200.455 108.463 201.025C108.463 201.585 108.583 202.08 108.823 202.51C109.063 202.93 109.383 203.255 109.783 203.485C110.183 203.715 110.638 203.83 111.148 203.83ZM120.817 205.09C120.007 205.09 119.282 204.915 118.642 204.565C118.012 204.215 117.517 203.735 117.157 203.125C116.797 202.515 116.617 201.815 116.617 201.025C116.617 200.235 116.797 199.535 117.157 198.925C117.517 198.315 118.012 197.84 118.642 197.5C119.282 197.15 120.007 196.975 120.817 196.975C121.537 196.975 122.177 197.12 122.737 197.41C123.307 197.69 123.747 198.11 124.057 198.67L122.962 199.375C122.702 198.985 122.382 198.7 122.002 198.52C121.632 198.33 121.232 198.235 120.802 198.235C120.282 198.235 119.817 198.35 119.407 198.58C118.997 198.81 118.672 199.135 118.432 199.555C118.192 199.965 118.072 200.455 118.072 201.025C118.072 201.595 118.192 202.09 118.432 202.51C118.672 202.93 118.997 203.255 119.407 203.485C119.817 203.715 120.282 203.83 120.802 203.83C121.232 203.83 121.632 203.74 122.002 203.56C122.382 203.37 122.702 203.08 122.962 202.69L124.057 203.38C123.747 203.93 123.307 204.355 122.737 204.655C122.177 204.945 121.537 205.09 120.817 205.09ZM127.394 205V197.935L127.754 198.31H124.484V197.05H131.744V198.31H128.489L128.834 197.935V205H127.394ZM136.27 205.09C135.47 205.09 134.76 204.915 134.14 204.565C133.52 204.215 133.03 203.735 132.67 203.125C132.31 202.505 132.13 201.805 132.13 201.025C132.13 200.235 132.31 199.535 132.67 198.925C133.03 198.315 133.52 197.84 134.14 197.5C134.76 197.15 135.47 196.975 136.27 196.975C137.06 196.975 137.765 197.15 138.385 197.5C139.015 197.84 139.505 198.315 139.855 198.925C140.215 199.525 140.395 200.225 140.395 201.025C140.395 201.815 140.215 202.515 139.855 203.125C139.505 203.735 139.015 204.215 138.385 204.565C137.765 204.915 137.06 205.09 136.27 205.09ZM136.27 203.83C136.78 203.83 137.235 203.715 137.635 203.485C138.045 203.255 138.365 202.93 138.595 202.51C138.825 202.08 138.94 201.585 138.94 201.025C138.94 200.455 138.825 199.965 138.595 199.555C138.365 199.135 138.045 198.81 137.635 198.58C137.235 198.35 136.78 198.235 136.27 198.235C135.76 198.235 135.305 198.35 134.905 198.58C134.505 198.81 134.185 199.135 133.945 199.555C133.705 199.965 133.585 200.455 133.585 201.025C133.585 201.585 133.705 202.08 133.945 202.51C134.185 202.93 134.505 203.255 134.905 203.485C135.305 203.715 135.76 203.83 136.27 203.83ZM147.295 205V202.21L147.52 202.48H144.985C143.925 202.48 143.095 202.255 142.495 201.805C141.905 201.355 141.61 200.7 141.61 199.84C141.61 198.92 141.925 198.225 142.555 197.755C143.195 197.285 144.045 197.05 145.105 197.05H148.585V205H147.295ZM141.535 205L143.695 201.955H145.18L143.08 205H141.535ZM147.295 201.76V197.905L147.52 198.31H145.15C144.49 198.31 143.98 198.435 143.62 198.685C143.26 198.925 143.08 199.325 143.08 199.885C143.08 200.925 143.75 201.445 145.09 201.445H147.52L147.295 201.76ZM151.395 205V197.05H152.835V200.425H157.365V197.05H158.805V205H157.365V201.67H152.835V205H151.395ZM161.605 205V197.05H163.045V202.84L167.92 197.05H169.225V205H167.785V199.21L162.925 205H161.605ZM177.105 205V202.21L177.33 202.48H174.795C173.735 202.48 172.905 202.255 172.305 201.805C171.715 201.355 171.42 200.7 171.42 199.84C171.42 198.92 171.735 198.225 172.365 197.755C173.005 197.285 173.855 197.05 174.915 197.05H178.395V205H177.105ZM171.345 205L173.505 201.955H174.99L172.89 205H171.345ZM177.105 201.76V197.905L177.33 198.31H174.96C174.3 198.31 173.79 198.435 173.43 198.685C173.07 198.925 172.89 199.325 172.89 199.885C172.89 200.925 173.56 201.445 174.9 201.445H177.33L177.105 201.76ZM16.395 223V215.05H23.76V223H22.32V215.95L22.665 216.31H17.49L17.835 215.95V223H16.395ZM29.9514 223.09C29.1514 223.09 28.4414 222.915 27.8214 222.565C27.2014 222.215 26.7114 221.735 26.3514 221.125C25.9914 220.505 25.8114 219.805 25.8114 219.025C25.8114 218.235 25.9914 217.535 26.3514 216.925C26.7114 216.315 27.2014 215.84 27.8214 215.5C28.4414 215.15 29.1514 214.975 29.9514 214.975C30.7414 214.975 31.4464 215.15 32.0664 215.5C32.6964 215.84 33.1864 216.315 33.5364 216.925C33.8964 217.525 34.0764 218.225 34.0764 219.025C34.0764 219.815 33.8964 220.515 33.5364 221.125C33.1864 221.735 32.6964 222.215 32.0664 222.565C31.4464 222.915 30.7414 223.09 29.9514 223.09ZM29.9514 221.83C30.4614 221.83 30.9164 221.715 31.3164 221.485C31.7264 221.255 32.0464 220.93 32.2764 220.51C32.5064 220.08 32.6214 219.585 32.6214 219.025C32.6214 218.455 32.5064 217.965 32.2764 217.555C32.0464 217.135 31.7264 216.81 31.3164 216.58C30.9164 216.35 30.4614 216.235 29.9514 216.235C29.4414 216.235 28.9864 216.35 28.5864 216.58C28.1864 216.81 27.8664 217.135 27.6264 217.555C27.3864 217.965 27.2664 218.455 27.2664 219.025C27.2664 219.585 27.3864 220.08 27.6264 220.51C27.8664 220.93 28.1864 221.255 28.5864 221.485C28.9864 221.715 29.4414 221.83 29.9514 221.83ZM40.3707 223.09C39.7107 223.09 39.1057 222.94 38.5557 222.64C38.0157 222.33 37.5807 221.875 37.2507 221.275C36.9307 220.675 36.7707 219.925 36.7707 219.025C36.7707 218.125 36.9257 217.375 37.2357 216.775C37.5557 216.175 37.9857 215.725 38.5257 215.425C39.0757 215.125 39.6907 214.975 40.3707 214.975C41.1507 214.975 41.8407 215.145 42.4407 215.485C43.0407 215.825 43.5157 216.3 43.8657 216.91C44.2157 217.51 44.3907 218.215 44.3907 219.025C44.3907 219.835 44.2157 220.545 43.8657 221.155C43.5157 221.765 43.0407 222.24 42.4407 222.58C41.8407 222.92 41.1507 223.09 40.3707 223.09ZM36.1557 225.91V215.05H37.5357V217.195L37.4457 219.04L37.5957 220.885V225.91H36.1557ZM40.2507 221.83C40.7607 221.83 41.2157 221.715 41.6157 221.485C42.0257 221.255 42.3457 220.93 42.5757 220.51C42.8157 220.08 42.9357 219.585 42.9357 219.025C42.9357 218.455 42.8157 217.965 42.5757 217.555C42.3457 217.135 42.0257 216.81 41.6157 216.58C41.2157 216.35 40.7607 216.235 40.2507 216.235C39.7507 216.235 39.2957 216.35 38.8857 216.58C38.4857 216.81 38.1657 217.135 37.9257 217.555C37.6957 217.965 37.5807 218.455 37.5807 219.025C37.5807 219.585 37.6957 220.08 37.9257 220.51C38.1657 220.93 38.4857 221.255 38.8857 221.485C39.2957 221.715 39.7507 221.83 40.2507 221.83ZM51.7629 221.74L51.4329 222.115V215.05H52.8729V222.115L52.5129 221.74H56.7129L56.3679 222.115V215.05H57.8079V223H46.4829V215.05H47.9229V222.115L47.5779 221.74H51.7629ZM60.604 223V215.05H62.044V218.425H66.574V215.05H68.014V223H66.574V219.67H62.044V223H60.604ZM74.3539 223.09C73.5039 223.09 72.7539 222.915 72.1039 222.565C71.4639 222.215 70.9639 221.735 70.6039 221.125C70.2539 220.515 70.0789 219.815 70.0789 219.025C70.0789 218.235 70.2489 217.535 70.5889 216.925C70.9389 216.315 71.4139 215.84 72.0139 215.5C72.6239 215.15 73.3089 214.975 74.0689 214.975C74.8389 214.975 75.5189 215.145 76.1089 215.485C76.6989 215.825 77.1589 216.305 77.4889 216.925C77.8289 217.535 77.9989 218.25 77.9989 219.07C77.9989 219.13 77.9939 219.2 77.9839 219.28C77.9839 219.36 77.9789 219.435 77.9689 219.505H71.2039V218.47H77.2189L76.6339 218.83C76.6439 218.32 76.5389 217.865 76.3189 217.465C76.0989 217.065 75.7939 216.755 75.4039 216.535C75.0239 216.305 74.5789 216.19 74.0689 216.19C73.5689 216.19 73.1239 216.305 72.7339 216.535C72.3439 216.755 72.0389 217.07 71.8189 217.48C71.5989 217.88 71.4889 218.34 71.4889 218.86V219.1C71.4889 219.63 71.6089 220.105 71.8489 220.525C72.0989 220.935 72.4439 221.255 72.8839 221.485C73.3239 221.715 73.8289 221.83 74.3989 221.83C74.8689 221.83 75.2939 221.75 75.6739 221.59C76.0639 221.43 76.4039 221.19 76.6939 220.87L77.4889 221.8C77.1289 222.22 76.6789 222.54 76.1389 222.76C75.6089 222.98 75.0139 223.09 74.3539 223.09ZM80.2329 223V215.05H83.9229C84.8529 215.05 85.5829 215.23 86.1129 215.59C86.6529 215.94 86.9229 216.44 86.9229 217.09C86.9229 217.74 86.6679 218.245 86.1579 218.605C85.6579 218.955 84.9929 219.13 84.1629 219.13L84.3879 218.74C85.3379 218.74 86.0429 218.915 86.5029 219.265C86.9629 219.615 87.1929 220.13 87.1929 220.81C87.1929 221.5 86.9329 222.04 86.4129 222.43C85.9029 222.81 85.1179 223 84.0579 223H80.2329ZM81.6429 221.89H83.9529C84.5529 221.89 85.0029 221.8 85.3029 221.62C85.6029 221.43 85.7529 221.13 85.7529 220.72C85.7529 220.3 85.6129 219.995 85.3329 219.805C85.0629 219.605 84.6329 219.505 84.0429 219.505H81.6429V221.89ZM81.6429 218.47H83.8029C84.3529 218.47 84.7679 218.37 85.0479 218.17C85.3379 217.96 85.4829 217.67 85.4829 217.3C85.4829 216.92 85.3379 216.635 85.0479 216.445C84.7679 216.255 84.3529 216.16 83.8029 216.16H81.6429V218.47ZM92.8518 223.09C92.0518 223.09 91.3418 222.915 90.7218 222.565C90.1018 222.215 89.6118 221.735 89.2518 221.125C88.8918 220.505 88.7118 219.805 88.7118 219.025C88.7118 218.235 88.8918 217.535 89.2518 216.925C89.6118 216.315 90.1018 215.84 90.7218 215.5C91.3418 215.15 92.0518 214.975 92.8518 214.975C93.6418 214.975 94.3468 215.15 94.9668 215.5C95.5968 215.84 96.0868 216.315 96.4368 216.925C96.7968 217.525 96.9768 218.225 96.9768 219.025C96.9768 219.815 96.7968 220.515 96.4368 221.125C96.0868 221.735 95.5968 222.215 94.9668 222.565C94.3468 222.915 93.6418 223.09 92.8518 223.09ZM92.8518 221.83C93.3618 221.83 93.8168 221.715 94.2168 221.485C94.6268 221.255 94.9468 220.93 95.1768 220.51C95.4068 220.08 95.5218 219.585 95.5218 219.025C95.5218 218.455 95.4068 217.965 95.1768 217.555C94.9468 217.135 94.6268 216.81 94.2168 216.58C93.8168 216.35 93.3618 216.235 92.8518 216.235C92.3418 216.235 91.8868 216.35 91.4868 216.58C91.0868 216.81 90.7668 217.135 90.5268 217.555C90.2868 217.965 90.1668 218.455 90.1668 219.025C90.1668 219.585 90.2868 220.08 90.5268 220.51C90.7668 220.93 91.0868 221.255 91.4868 221.485C91.8868 221.715 92.3418 221.83 92.8518 221.83ZM99.0561 223V215.05H100.496V220.84L105.371 215.05H106.676V223H105.236V217.21L100.376 223H99.0561ZM102.776 214.015C102.046 214.015 101.471 213.84 101.051 213.49C100.641 213.13 100.431 212.615 100.421 211.945H101.396C101.406 212.325 101.531 212.625 101.771 212.845C102.021 213.065 102.351 213.175 102.761 213.175C103.171 213.175 103.501 213.065 103.751 212.845C104.001 212.625 104.131 212.325 104.141 211.945H105.146C105.136 212.615 104.921 213.13 104.501 213.49C104.081 213.84 103.506 214.015 102.776 214.015ZM113.499 223V215.05H119.349V216.31H114.594L114.939 215.98V223H113.499ZM125.039 223.09C124.379 223.09 123.774 222.94 123.224 222.64C122.684 222.33 122.249 221.875 121.919 221.275C121.599 220.675 121.439 219.925 121.439 219.025C121.439 218.125 121.594 217.375 121.904 216.775C122.224 216.175 122.654 215.725 123.194 215.425C123.744 215.125 124.359 214.975 125.039 214.975C125.819 214.975 126.509 215.145 127.109 215.485C127.709 215.825 128.184 216.3 128.534 216.91C128.884 217.51 129.059 218.215 129.059 219.025C129.059 219.835 128.884 220.545 128.534 221.155C128.184 221.765 127.709 222.24 127.109 222.58C126.509 222.92 125.819 223.09 125.039 223.09ZM120.824 225.91V215.05H122.204V217.195L122.114 219.04L122.264 220.885V225.91H120.824ZM124.919 221.83C125.429 221.83 125.884 221.715 126.284 221.485C126.694 221.255 127.014 220.93 127.244 220.51C127.484 220.08 127.604 219.585 127.604 219.025C127.604 218.455 127.484 217.965 127.244 217.555C127.014 217.135 126.694 216.81 126.284 216.58C125.884 216.35 125.429 216.235 124.919 216.235C124.419 216.235 123.964 216.35 123.554 216.58C123.154 216.81 122.834 217.135 122.594 217.555C122.364 217.965 122.249 218.455 122.249 219.025C122.249 219.585 122.364 220.08 122.594 220.51C122.834 220.93 123.154 221.255 123.554 221.485C123.964 221.715 124.419 221.83 124.919 221.83ZM131.336 226C130.956 226 130.586 225.935 130.226 225.805C129.866 225.685 129.556 225.505 129.296 225.265L129.911 224.185C130.111 224.375 130.331 224.52 130.571 224.62C130.811 224.72 131.066 224.77 131.336 224.77C131.686 224.77 131.976 224.68 132.206 224.5C132.436 224.32 132.651 224 132.851 223.54L133.346 222.445L133.496 222.265L136.616 215.05H138.026L134.171 223.795C133.941 224.355 133.681 224.795 133.391 225.115C133.111 225.435 132.801 225.66 132.461 225.79C132.121 225.93 131.746 226 131.336 226ZM133.226 223.255L129.596 215.05H131.096L134.186 222.13L133.226 223.255ZM139.5 223V215.05H146.865V223H145.425V215.95L145.77 216.31H140.595L140.94 215.95V223H139.5ZM149.652 223V215.05H157.017V223H155.577V215.95L155.922 216.31H150.747L151.092 215.95V223H149.652ZM167.663 223V215.05H169.103V223H167.663ZM163.388 217.75C164.398 217.76 165.163 217.99 165.683 218.44C166.213 218.89 166.478 219.525 166.478 220.345C166.478 221.205 166.188 221.87 165.608 222.34C165.038 222.8 164.218 223.025 163.148 223.015L159.803 223V215.05H161.243V217.735L163.388 217.75ZM163.043 221.92C163.683 221.93 164.173 221.8 164.513 221.53C164.853 221.26 165.023 220.86 165.023 220.33C165.023 219.81 164.853 219.43 164.513 219.19C164.183 218.95 163.693 218.825 163.043 218.815L161.243 218.785V221.905L163.043 221.92ZM17.625 237.505V236.44H22.08V237.505H17.625ZM18.69 232.96C19.51 232.96 20.245 233.135 20.895 233.485C21.545 233.835 22.055 234.315 22.425 234.925C22.795 235.535 22.98 236.235 22.98 237.025C22.98 237.805 22.795 238.505 22.425 239.125C22.055 239.745 21.545 240.23 20.895 240.58C20.245 240.93 19.51 241.105 18.69 241.105C18.01 241.105 17.38 240.995 16.8 240.775C16.23 240.555 15.75 240.235 15.36 239.815L16.2 238.975C16.53 239.295 16.895 239.535 17.295 239.695C17.705 239.845 18.15 239.92 18.63 239.92C19.21 239.92 19.725 239.8 20.175 239.56C20.625 239.31 20.98 238.965 21.24 238.525C21.51 238.085 21.645 237.585 21.645 237.025C21.645 236.465 21.51 235.97 21.24 235.54C20.98 235.1 20.625 234.755 20.175 234.505C19.725 234.255 19.21 234.13 18.63 234.13C18.15 234.13 17.705 234.21 17.295 234.37C16.895 234.53 16.53 234.77 16.2 235.09L15.36 234.265C15.75 233.835 16.23 233.51 16.8 233.29C17.38 233.07 18.01 232.96 18.69 232.96ZM25.0229 241V233.05H26.4629V236.425H30.9929V233.05H32.4329V241H30.9929V237.67H26.4629V241H25.0229ZM40.6629 240.325V234.31H37.2129L37.1379 235.84C37.1179 236.34 37.0829 236.825 37.0329 237.295C36.9929 237.755 36.9229 238.18 36.8229 238.57C36.7329 238.96 36.5979 239.28 36.4179 239.53C36.2379 239.78 35.9979 239.935 35.6979 239.995L34.2729 239.74C34.5829 239.75 34.8329 239.65 35.0229 239.44C35.2129 239.22 35.3579 238.92 35.4579 238.54C35.5679 238.16 35.6479 237.73 35.6979 237.25C35.7479 236.76 35.7879 236.255 35.8179 235.735L35.9379 233.05H42.1029V240.325H40.6629ZM33.9579 242.845V239.74H43.3179V242.845H41.9679V241H35.3229V242.845H33.9579ZM48.5988 241.09C47.7988 241.09 47.0888 240.915 46.4688 240.565C45.8488 240.215 45.3588 239.735 44.9988 239.125C44.6388 238.505 44.4588 237.805 44.4588 237.025C44.4588 236.235 44.6388 235.535 44.9988 234.925C45.3588 234.315 45.8488 233.84 46.4688 233.5C47.0888 233.15 47.7988 232.975 48.5988 232.975C49.3888 232.975 50.0938 233.15 50.7138 233.5C51.3438 233.84 51.8338 234.315 52.1838 234.925C52.5438 235.525 52.7238 236.225 52.7238 237.025C52.7238 237.815 52.5438 238.515 52.1838 239.125C51.8338 239.735 51.3438 240.215 50.7138 240.565C50.0938 240.915 49.3888 241.09 48.5988 241.09ZM48.5988 239.83C49.1088 239.83 49.5638 239.715 49.9638 239.485C50.3738 239.255 50.6938 238.93 50.9238 238.51C51.1538 238.08 51.2688 237.585 51.2688 237.025C51.2688 236.455 51.1538 235.965 50.9238 235.555C50.6938 235.135 50.3738 234.81 49.9638 234.58C49.5638 234.35 49.1088 234.235 48.5988 234.235C48.0888 234.235 47.6338 234.35 47.2338 234.58C46.8338 234.81 46.5138 235.135 46.2738 235.555C46.0338 235.965 45.9138 236.455 45.9138 237.025C45.9138 237.585 46.0338 238.08 46.2738 238.51C46.5138 238.93 46.8338 239.255 47.2338 239.485C47.6338 239.715 48.0888 239.83 48.5988 239.83ZM58.2682 241.09C57.4582 241.09 56.7332 240.915 56.0932 240.565C55.4632 240.215 54.9682 239.735 54.6082 239.125C54.2482 238.515 54.0682 237.815 54.0682 237.025C54.0682 236.235 54.2482 235.535 54.6082 234.925C54.9682 234.315 55.4632 233.84 56.0932 233.5C56.7332 233.15 57.4582 232.975 58.2682 232.975C58.9882 232.975 59.6282 233.12 60.1882 233.41C60.7582 233.69 61.1982 234.11 61.5082 234.67L60.4132 235.375C60.1532 234.985 59.8332 234.7 59.4532 234.52C59.0832 234.33 58.6832 234.235 58.2532 234.235C57.7332 234.235 57.2682 234.35 56.8582 234.58C56.4482 234.81 56.1232 235.135 55.8832 235.555C55.6432 235.965 55.5232 236.455 55.5232 237.025C55.5232 237.595 55.6432 238.09 55.8832 238.51C56.1232 238.93 56.4482 239.255 56.8582 239.485C57.2682 239.715 57.7332 239.83 58.2532 239.83C58.6832 239.83 59.0832 239.74 59.4532 239.56C59.8332 239.37 60.1532 239.08 60.4132 238.69L61.5082 239.38C61.1982 239.93 60.7582 240.355 60.1882 240.655C59.6282 240.945 58.9882 241.09 58.2682 241.09ZM69.1325 241L66.0575 237.13L67.2425 236.41L70.8275 241H69.1325ZM63.3725 241V233.05H64.8125V241H63.3725ZM64.3775 237.64V236.41H67.0025V237.64H64.3775ZM67.3625 237.19L66.0275 237.01L69.0725 233.05H70.6175L67.3625 237.19ZM75.4787 241.09C74.6787 241.09 73.9687 240.915 73.3487 240.565C72.7287 240.215 72.2387 239.735 71.8787 239.125C71.5187 238.505 71.3387 237.805 71.3387 237.025C71.3387 236.235 71.5187 235.535 71.8787 234.925C72.2387 234.315 72.7287 233.84 73.3487 233.5C73.9687 233.15 74.6787 232.975 75.4787 232.975C76.2687 232.975 76.9737 233.15 77.5937 233.5C78.2237 233.84 78.7137 234.315 79.0637 234.925C79.4237 235.525 79.6037 236.225 79.6037 237.025C79.6037 237.815 79.4237 238.515 79.0637 239.125C78.7137 239.735 78.2237 240.215 77.5937 240.565C76.9737 240.915 76.2687 241.09 75.4787 241.09ZM75.4787 239.83C75.9887 239.83 76.4437 239.715 76.8437 239.485C77.2537 239.255 77.5737 238.93 77.8037 238.51C78.0337 238.08 78.1487 237.585 78.1487 237.025C78.1487 236.455 78.0337 235.965 77.8037 235.555C77.5737 235.135 77.2537 234.81 76.8437 234.58C76.4437 234.35 75.9887 234.235 75.4787 234.235C74.9687 234.235 74.5137 234.35 74.1137 234.58C73.7137 234.81 73.3937 235.135 73.1537 235.555C72.9137 235.965 72.7937 236.455 72.7937 237.025C72.7937 237.585 72.9137 238.08 73.1537 238.51C73.3937 238.93 73.7137 239.255 74.1137 239.485C74.5137 239.715 74.9687 239.83 75.4787 239.83ZM81.6831 241V233.05H89.0481V241H87.6081V233.95L87.9531 234.31H82.7781L83.1231 233.95V241H81.6831ZM95.2395 241.09C94.4395 241.09 93.7295 240.915 93.1095 240.565C92.4895 240.215 91.9995 239.735 91.6395 239.125C91.2795 238.505 91.0995 237.805 91.0995 237.025C91.0995 236.235 91.2795 235.535 91.6395 234.925C91.9995 234.315 92.4895 233.84 93.1095 233.5C93.7295 233.15 94.4395 232.975 95.2395 232.975C96.0295 232.975 96.7345 233.15 97.3545 233.5C97.9845 233.84 98.4745 234.315 98.8245 234.925C99.1845 235.525 99.3645 236.225 99.3645 237.025C99.3645 237.815 99.1845 238.515 98.8245 239.125C98.4745 239.735 97.9845 240.215 97.3545 240.565C96.7345 240.915 96.0295 241.09 95.2395 241.09ZM95.2395 239.83C95.7495 239.83 96.2045 239.715 96.6045 239.485C97.0145 239.255 97.3345 238.93 97.5645 238.51C97.7945 238.08 97.9095 237.585 97.9095 237.025C97.9095 236.455 97.7945 235.965 97.5645 235.555C97.3345 235.135 97.0145 234.81 96.6045 234.58C96.2045 234.35 95.7495 234.235 95.2395 234.235C94.7295 234.235 94.2745 234.35 93.8745 234.58C93.4745 234.81 93.1545 235.135 92.9145 235.555C92.6745 235.965 92.5545 236.455 92.5545 237.025C92.5545 237.585 92.6745 238.08 92.9145 238.51C93.1545 238.93 93.4745 239.255 93.8745 239.485C94.2745 239.715 94.7295 239.83 95.2395 239.83ZM101.444 241V233.05H102.929L106.349 238.93H105.749L109.259 233.05H110.609V241H109.304V234.67L109.544 234.805L106.334 240.1H105.704L102.479 234.7L102.764 234.64V241H101.444ZM120.905 241.09C120.095 241.09 119.37 240.915 118.73 240.565C118.1 240.215 117.605 239.735 117.245 239.125C116.885 238.515 116.705 237.815 116.705 237.025C116.705 236.235 116.885 235.535 117.245 234.925C117.605 234.315 118.1 233.84 118.73 233.5C119.37 233.15 120.095 232.975 120.905 232.975C121.625 232.975 122.265 233.12 122.825 233.41C123.395 233.69 123.835 234.11 124.145 234.67L123.05 235.375C122.79 234.985 122.47 234.7 122.09 234.52C121.72 234.33 121.32 234.235 120.89 234.235C120.37 234.235 119.905 234.35 119.495 234.58C119.085 234.81 118.76 235.135 118.52 235.555C118.28 235.965 118.16 236.455 118.16 237.025C118.16 237.595 118.28 238.09 118.52 238.51C118.76 238.93 119.085 239.255 119.495 239.485C119.905 239.715 120.37 239.83 120.89 239.83C121.32 239.83 121.72 239.74 122.09 239.56C122.47 239.37 122.79 239.08 123.05 238.69L124.145 239.38C123.835 239.93 123.395 240.355 122.825 240.655C122.265 240.945 121.625 241.09 120.905 241.09ZM134.778 241.12C134.768 241.12 134.733 241.12 134.673 241.12C134.623 241.12 134.573 241.12 134.523 241.12C134.473 241.12 134.443 241.12 134.433 241.12C132.803 241.1 131.538 240.74 130.638 240.04C129.738 239.33 129.288 238.32 129.288 237.01C129.288 235.71 129.738 234.715 130.638 234.025C131.548 233.325 132.828 232.97 134.478 232.96C134.498 232.96 134.528 232.96 134.568 232.96C134.618 232.96 134.663 232.96 134.703 232.96C134.753 232.96 134.783 232.96 134.793 232.96C136.463 232.96 137.758 233.31 138.678 234.01C139.608 234.71 140.073 235.71 140.073 237.01C140.073 238.33 139.608 239.345 138.678 240.055C137.748 240.765 136.448 241.12 134.778 241.12ZM134.748 239.86C135.618 239.86 136.338 239.75 136.908 239.53C137.488 239.31 137.923 238.99 138.213 238.57C138.503 238.15 138.648 237.63 138.648 237.01C138.648 236.4 138.503 235.89 138.213 235.48C137.923 235.07 137.488 234.76 136.908 234.55C136.338 234.34 135.618 234.235 134.748 234.235C134.728 234.235 134.688 234.235 134.628 234.235C134.568 234.235 134.533 234.235 134.523 234.235C133.673 234.235 132.963 234.345 132.393 234.565C131.833 234.775 131.413 235.085 131.133 235.495C130.853 235.905 130.713 236.41 130.713 237.01C130.713 237.62 130.853 238.135 131.133 238.555C131.423 238.975 131.848 239.295 132.408 239.515C132.978 239.735 133.683 239.85 134.523 239.86C134.543 239.86 134.578 239.86 134.628 239.86C134.688 239.86 134.728 239.86 134.748 239.86ZM133.968 243.91V229.87H135.378V243.91H133.968ZM145.513 241.09C144.713 241.09 144.003 240.915 143.383 240.565C142.763 240.215 142.273 239.735 141.913 239.125C141.553 238.505 141.373 237.805 141.373 237.025C141.373 236.235 141.553 235.535 141.913 234.925C142.273 234.315 142.763 233.84 143.383 233.5C144.003 233.15 144.713 232.975 145.513 232.975C146.303 232.975 147.008 233.15 147.628 233.5C148.258 233.84 148.748 234.315 149.098 234.925C149.458 235.525 149.638 236.225 149.638 237.025C149.638 237.815 149.458 238.515 149.098 239.125C148.748 239.735 148.258 240.215 147.628 240.565C147.008 240.915 146.303 241.09 145.513 241.09ZM145.513 239.83C146.023 239.83 146.478 239.715 146.878 239.485C147.288 239.255 147.608 238.93 147.838 238.51C148.068 238.08 148.183 237.585 148.183 237.025C148.183 236.455 148.068 235.965 147.838 235.555C147.608 235.135 147.288 234.81 146.878 234.58C146.478 234.35 146.023 234.235 145.513 234.235C145.003 234.235 144.548 234.35 144.148 234.58C143.748 234.81 143.428 235.135 143.188 235.555C142.948 235.965 142.828 236.455 142.828 237.025C142.828 237.585 142.948 238.08 143.188 238.51C143.428 238.93 143.748 239.255 144.148 239.485C144.548 239.715 145.003 239.83 145.513 239.83ZM152.999 241V233.935L153.359 234.31H150.089V233.05H157.349V234.31H154.094L154.439 233.935V241H152.999ZM161.875 241.09C161.075 241.09 160.365 240.915 159.745 240.565C159.125 240.215 158.635 239.735 158.275 239.125C157.915 238.505 157.735 237.805 157.735 237.025C157.735 236.235 157.915 235.535 158.275 234.925C158.635 234.315 159.125 233.84 159.745 233.5C160.365 233.15 161.075 232.975 161.875 232.975C162.665 232.975 163.37 233.15 163.99 233.5C164.62 233.84 165.11 234.315 165.46 234.925C165.82 235.525 166 236.225 166 237.025C166 237.815 165.82 238.515 165.46 239.125C165.11 239.735 164.62 240.215 163.99 240.565C163.37 240.915 162.665 241.09 161.875 241.09ZM161.875 239.83C162.385 239.83 162.84 239.715 163.24 239.485C163.65 239.255 163.97 238.93 164.2 238.51C164.43 238.08 164.545 237.585 164.545 237.025C164.545 236.455 164.43 235.965 164.2 235.555C163.97 235.135 163.65 234.81 163.24 234.58C162.84 234.35 162.385 234.235 161.875 234.235C161.365 234.235 160.91 234.35 160.51 234.58C160.11 234.81 159.79 235.135 159.55 235.555C159.31 235.965 159.19 236.455 159.19 237.025C159.19 237.585 159.31 238.08 159.55 238.51C159.79 238.93 160.11 239.255 160.51 239.485C160.91 239.715 161.365 239.83 161.875 239.83ZM172.108 241V233.05H173.548V238.84L178.423 233.05H179.728V241H178.288V235.21L173.428 241H172.108ZM186.551 241V233.05H190.241C191.171 233.05 191.901 233.23 192.431 233.59C192.971 233.94 193.241 234.44 193.241 235.09C193.241 235.74 192.986 236.245 192.476 236.605C191.976 236.955 191.311 237.13 190.481 237.13L190.706 236.74C191.656 236.74 192.361 236.915 192.821 237.265C193.281 237.615 193.511 238.13 193.511 238.81C193.511 239.5 193.251 240.04 192.731 240.43C192.221 240.81 191.436 241 190.376 241H186.551ZM187.961 239.89H190.271C190.871 239.89 191.321 239.8 191.621 239.62C191.921 239.43 192.071 239.13 192.071 238.72C192.071 238.3 191.931 237.995 191.651 237.805C191.381 237.605 190.951 237.505 190.361 237.505H187.961V239.89ZM187.961 236.47H190.121C190.671 236.47 191.086 236.37 191.366 236.17C191.656 235.96 191.801 235.67 191.801 235.3C191.801 234.92 191.656 234.635 191.366 234.445C191.086 234.255 190.671 234.16 190.121 234.16H187.961V236.47ZM195.765 241V233.05H197.205V238.84L202.08 233.05H203.385V241H201.945V235.21L197.085 241H195.765ZM211.61 240.325V234.31H208.16L208.085 235.84C208.065 236.34 208.03 236.825 207.98 237.295C207.94 237.755 207.87 238.18 207.77 238.57C207.68 238.96 207.545 239.28 207.365 239.53C207.185 239.78 206.945 239.935 206.645 239.995L205.22 239.74C205.53 239.75 205.78 239.65 205.97 239.44C206.16 239.22 206.305 238.92 206.405 238.54C206.515 238.16 206.595 237.73 206.645 237.25C206.695 236.76 206.735 236.255 206.765 235.735L206.885 233.05H213.05V240.325H211.61ZM204.905 242.845V239.74H214.265V242.845H212.915V241H206.27V242.845H204.905ZM219.681 241.09C218.831 241.09 218.081 240.915 217.431 240.565C216.791 240.215 216.291 239.735 215.931 239.125C215.581 238.515 215.406 237.815 215.406 237.025C215.406 236.235 215.576 235.535 215.916 234.925C216.266 234.315 216.741 233.84 217.341 233.5C217.951 233.15 218.636 232.975 219.396 232.975C220.166 232.975 220.846 233.145 221.436 233.485C222.026 233.825 222.486 234.305 222.816 234.925C223.156 235.535 223.326 236.25 223.326 237.07C223.326 237.13 223.321 237.2 223.311 237.28C223.311 237.36 223.306 237.435 223.296 237.505H216.531V236.47H222.546L221.961 236.83C221.971 236.32 221.866 235.865 221.646 235.465C221.426 235.065 221.121 234.755 220.731 234.535C220.351 234.305 219.906 234.19 219.396 234.19C218.896 234.19 218.451 234.305 218.061 234.535C217.671 234.755 217.366 235.07 217.146 235.48C216.926 235.88 216.816 236.34 216.816 236.86V237.1C216.816 237.63 216.936 238.105 217.176 238.525C217.426 238.935 217.771 239.255 218.211 239.485C218.651 239.715 219.156 239.83 219.726 239.83C220.196 239.83 220.621 239.75 221.001 239.59C221.391 239.43 221.731 239.19 222.021 238.87L222.816 239.8C222.456 240.22 222.006 240.54 221.466 240.76C220.936 240.98 220.341 241.09 219.681 241.09ZM228.965 241.09C228.165 241.09 227.455 240.915 226.835 240.565C226.215 240.215 225.725 239.735 225.365 239.125C225.005 238.505 224.825 237.805 224.825 237.025C224.825 236.235 225.005 235.535 225.365 234.925C225.725 234.315 226.215 233.84 226.835 233.5C227.455 233.15 228.165 232.975 228.965 232.975C229.755 232.975 230.46 233.15 231.08 233.5C231.71 233.84 232.2 234.315 232.55 234.925C232.91 235.525 233.09 236.225 233.09 237.025C233.09 237.815 232.91 238.515 232.55 239.125C232.2 239.735 231.71 240.215 231.08 240.565C230.46 240.915 229.755 241.09 228.965 241.09ZM228.965 239.83C229.475 239.83 229.93 239.715 230.33 239.485C230.74 239.255 231.06 238.93 231.29 238.51C231.52 238.08 231.635 237.585 231.635 237.025C231.635 236.455 231.52 235.965 231.29 235.555C231.06 235.135 230.74 234.81 230.33 234.58C229.93 234.35 229.475 234.235 228.965 234.235C228.455 234.235 228 234.35 227.6 234.58C227.2 234.81 226.88 235.135 226.64 235.555C226.4 235.965 226.28 236.455 226.28 237.025C226.28 237.585 226.4 238.08 226.64 238.51C226.88 238.93 227.2 239.255 227.6 239.485C228 239.715 228.455 239.83 228.965 239.83Z" fill="#434343"/>
</svg>
