<svg width="300" height="239" viewBox="0 0 300 239" fill="none" xmlns="http://www.w3.org/2000/svg">
<path d="M0 50C0 26.4298 0 14.6447 7.32233 7.32233C14.6447 0 26.4298 0 50 0H258.544C258.796 0 258.922 0 259.016 0.00438307C261.703 0.130288 263.503 2.81976 262.594 5.35171C262.562 5.43986 262.514 5.55661 262.417 5.79013L259.867 11.9672C251.281 32.7641 276.444 51.0542 293.576 36.469C296.107 34.3144 300 36.1129 300 39.4366V189C300 212.57 300 224.355 292.678 231.678C285.355 239 273.57 239 250 239H50C26.4298 239 14.6447 239 7.32233 231.678C0 224.355 0 212.57 0 189V50Z" fill="#F3F5F7"/>
<circle cx="280.5" cy="19.5" r="19.5" fill="#F3F5F7"/>
<path d="M273 20.25H288M288 20.25L281 13M288 20.25L281 27" stroke="#00AAFF" stroke-width="2" stroke-linecap="round" stroke-linejoin="round"/>
<mask id="mask0_221_15" style="mask-type:alpha" maskUnits="userSpaceOnUse" x="0" y="0" width="260" height="238">
<path d="M0 60C0 31.7157 0 17.5736 8.7868 8.7868C17.5736 0 31.7157 0 60 0H222.448C222.458 0 222.462 0 222.465 4.68505e-06C225.668 0.00490642 227.566 3.58398 225.774 6.23828C225.772 6.24081 225.763 6.25545 225.743 6.28473V6.28473C213.209 24.7868 235.632 47.2227 253.663 34.0218V34.0218C256.295 32.0952 260 33.9746 260 37.236V178C260 206.284 260 220.426 251.213 229.213C242.426 238 228.284 238 200 238H60C31.7157 238 17.5736 238 8.7868 229.213C0 220.426 0 206.284 0 178V60Z" fill="#F3F5F7"/>
</mask>
<g mask="url(#mask0_221_15)">
<path d="M-0.480019 105.92C-7.92002 105.92 -14.52 104.2 -20.28 100.76C-25.96 97.32 -30.44 92.32 -33.72 85.76C-36.92 79.2 -38.52 71.28 -38.52 62C-38.52 52.72 -36.92 44.8 -33.72 38.24C-30.44 31.68 -25.96 26.68 -20.28 23.24C-14.52 19.8 -7.92002 18.08 -0.480019 18.08C6.95998 18.08 13.52 19.8 19.2 23.24C24.96 26.68 29.44 31.68 32.64 38.24C35.92 44.8 37.56 52.72 37.56 62C37.56 71.28 35.92 79.2 32.64 85.76C29.44 92.32 24.96 97.32 19.2 100.76C13.52 104.2 6.95998 105.92 -0.480019 105.92ZM-0.480019 83.24C1.35998 83.24 2.99998 82.6 4.43998 81.32C5.87998 80.04 6.99998 77.84 7.79998 74.72C8.67999 71.6 9.11998 67.36 9.11998 62C9.11998 56.56 8.67999 52.32 7.79998 49.28C6.99998 46.16 5.87998 43.96 4.43998 42.68C2.99998 41.4 1.35998 40.76 -0.480019 40.76C-2.32002 40.76 -3.96002 41.4 -5.40002 42.68C-6.84002 43.96 -8.00002 46.16 -8.88002 49.28C-9.68002 52.32 -10.08 56.56 -10.08 62C-10.08 67.36 -9.68002 71.6 -8.88002 74.72C-8.00002 77.84 -6.84002 80.04 -5.40002 81.32C-3.96002 82.6 -2.32002 83.24 -0.480019 83.24Z" fill="#00AAFF" fill-opacity="0.1"/>
<path d="M74.8059 105.92C69.0459 105.92 63.2059 105.28 57.2859 104C51.3659 102.72 46.1659 100.84 41.6859 98.36L51.2859 77.48C54.8859 79.56 58.6459 81.12 62.5659 82.16C66.4859 83.12 70.2059 83.6 73.7259 83.6C76.9259 83.6 79.5659 83.04 81.6459 81.92C83.7259 80.8 84.7659 79.16 84.7659 77C84.7659 75.8 84.4059 74.76 83.6859 73.88C82.9659 72.92 81.6859 72.2 79.8459 71.72C78.0859 71.24 75.4859 71 72.0459 71H47.6859L51.8859 20H107.686V41.36H61.8459L76.1259 29.24L73.6059 61.76L59.3259 49.64H78.8859C87.2059 49.64 93.8459 50.84 98.8059 53.24C103.846 55.64 107.486 58.88 109.726 62.96C112.046 66.96 113.206 71.44 113.206 76.4C113.206 81.36 111.846 86.12 109.126 90.68C106.486 95.16 102.326 98.84 96.6459 101.72C91.0459 104.52 83.7659 105.92 74.8059 105.92Z" fill="#00AAFF" fill-opacity="0.1"/>
</g>
<path d="M16.635 148V137.5H25.68V148H24.21V138.415L24.57 138.805H17.745L18.12 138.415V148H16.635ZM32.9293 148.09C32.2693 148.09 31.6643 147.94 31.1143 147.64C30.5743 147.33 30.1393 146.875 29.8093 146.275C29.4893 145.675 29.3293 144.925 29.3293 144.025C29.3293 143.125 29.4843 142.375 29.7943 141.775C30.1143 141.175 30.5443 140.725 31.0843 140.425C31.6343 140.125 32.2493 139.975 32.9293 139.975C33.7093 139.975 34.3993 140.145 34.9993 140.485C35.5993 140.825 36.0743 141.3 36.4243 141.91C36.7743 142.51 36.9493 143.215 36.9493 144.025C36.9493 144.835 36.7743 145.545 36.4243 146.155C36.0743 146.765 35.5993 147.24 34.9993 147.58C34.3993 147.92 33.7093 148.09 32.9293 148.09ZM28.7143 150.91V140.05H30.0943V142.195L30.0043 144.04L30.1543 145.885V150.91H28.7143ZM32.8093 146.83C33.3193 146.83 33.7743 146.715 34.1743 146.485C34.5843 146.255 34.9043 145.93 35.1343 145.51C35.3743 145.08 35.4943 144.585 35.4943 144.025C35.4943 143.455 35.3743 142.965 35.1343 142.555C34.9043 142.135 34.5843 141.81 34.1743 141.58C33.7743 141.35 33.3193 141.235 32.8093 141.235C32.3093 141.235 31.8543 141.35 31.4443 141.58C31.0443 141.81 30.7243 142.135 30.4843 142.555C30.2543 142.965 30.1393 143.455 30.1393 144.025C30.1393 144.585 30.2543 145.08 30.4843 145.51C30.7243 145.93 31.0443 146.255 31.4443 146.485C31.8543 146.715 32.3093 146.83 32.8093 146.83ZM42.4465 148.09C41.6465 148.09 40.9365 147.915 40.3165 147.565C39.6965 147.215 39.2065 146.735 38.8465 146.125C38.4865 145.505 38.3065 144.805 38.3065 144.025C38.3065 143.235 38.4865 142.535 38.8465 141.925C39.2065 141.315 39.6965 140.84 40.3165 140.5C40.9365 140.15 41.6465 139.975 42.4465 139.975C43.2365 139.975 43.9415 140.15 44.5615 140.5C45.1915 140.84 45.6815 141.315 46.0315 141.925C46.3915 142.525 46.5715 143.225 46.5715 144.025C46.5715 144.815 46.3915 145.515 46.0315 146.125C45.6815 146.735 45.1915 147.215 44.5615 147.565C43.9415 147.915 43.2365 148.09 42.4465 148.09ZM42.4465 146.83C42.9565 146.83 43.4115 146.715 43.8115 146.485C44.2215 146.255 44.5415 145.93 44.7715 145.51C45.0015 145.08 45.1165 144.585 45.1165 144.025C45.1165 143.455 45.0015 142.965 44.7715 142.555C44.5415 142.135 44.2215 141.81 43.8115 141.58C43.4115 141.35 42.9565 141.235 42.4465 141.235C41.9365 141.235 41.4815 141.35 41.0815 141.58C40.6815 141.81 40.3615 142.135 40.1215 142.555C39.8815 142.965 39.7615 143.455 39.7615 144.025C39.7615 144.585 39.8815 145.08 40.1215 145.51C40.3615 145.93 40.6815 146.255 41.0815 146.485C41.4815 146.715 41.9365 146.83 42.4465 146.83ZM48.6509 148V140.05H52.3409C53.2709 140.05 54.0009 140.23 54.5309 140.59C55.0709 140.94 55.3409 141.44 55.3409 142.09C55.3409 142.74 55.0859 143.245 54.5759 143.605C54.0759 143.955 53.4109 144.13 52.5809 144.13L52.8059 143.74C53.7559 143.74 54.4609 143.915 54.9209 144.265C55.3809 144.615 55.6109 145.13 55.6109 145.81C55.6109 146.5 55.3509 147.04 54.8309 147.43C54.3209 147.81 53.5359 148 52.4759 148H48.6509ZM50.0609 146.89H52.3709C52.9709 146.89 53.4209 146.8 53.7209 146.62C54.0209 146.43 54.1709 146.13 54.1709 145.72C54.1709 145.3 54.0309 144.995 53.7509 144.805C53.4809 144.605 53.0509 144.505 52.4609 144.505H50.0609V146.89ZM50.0609 143.47H52.2209C52.7709 143.47 53.1859 143.37 53.4659 143.17C53.7559 142.96 53.9009 142.67 53.9009 142.3C53.9009 141.92 53.7559 141.635 53.4659 141.445C53.1859 141.255 52.7709 141.16 52.2209 141.16H50.0609V143.47ZM61.4047 148.09C60.5547 148.09 59.8047 147.915 59.1547 147.565C58.5147 147.215 58.0147 146.735 57.6547 146.125C57.3047 145.515 57.1297 144.815 57.1297 144.025C57.1297 143.235 57.2997 142.535 57.6397 141.925C57.9897 141.315 58.4647 140.84 59.0647 140.5C59.6747 140.15 60.3597 139.975 61.1197 139.975C61.8897 139.975 62.5697 140.145 63.1597 140.485C63.7497 140.825 64.2097 141.305 64.5397 141.925C64.8797 142.535 65.0497 143.25 65.0497 144.07C65.0497 144.13 65.0447 144.2 65.0347 144.28C65.0347 144.36 65.0297 144.435 65.0197 144.505H58.2547V143.47H64.2697L63.6847 143.83C63.6947 143.32 63.5897 142.865 63.3697 142.465C63.1497 142.065 62.8447 141.755 62.4547 141.535C62.0747 141.305 61.6297 141.19 61.1197 141.19C60.6197 141.19 60.1747 141.305 59.7847 141.535C59.3947 141.755 59.0897 142.07 58.8697 142.48C58.6497 142.88 58.5397 143.34 58.5397 143.86V144.1C58.5397 144.63 58.6597 145.105 58.8997 145.525C59.1497 145.935 59.4947 146.255 59.9347 146.485C60.3747 146.715 60.8797 146.83 61.4497 146.83C61.9197 146.83 62.3447 146.75 62.7247 146.59C63.1147 146.43 63.4547 146.19 63.7447 145.87L64.5397 146.8C64.1797 147.22 63.7297 147.54 63.1897 147.76C62.6597 147.98 62.0647 148.09 61.4047 148.09ZM71.4987 148.09C70.8387 148.09 70.2337 147.94 69.6837 147.64C69.1437 147.33 68.7087 146.875 68.3787 146.275C68.0587 145.675 67.8987 144.925 67.8987 144.025C67.8987 143.125 68.0537 142.375 68.3637 141.775C68.6837 141.175 69.1137 140.725 69.6537 140.425C70.2037 140.125 70.8187 139.975 71.4987 139.975C72.2787 139.975 72.9687 140.145 73.5687 140.485C74.1687 140.825 74.6437 141.3 74.9937 141.91C75.3437 142.51 75.5187 143.215 75.5187 144.025C75.5187 144.835 75.3437 145.545 74.9937 146.155C74.6437 146.765 74.1687 147.24 73.5687 147.58C72.9687 147.92 72.2787 148.09 71.4987 148.09ZM67.2837 150.91V140.05H68.6637V142.195L68.5737 144.04L68.7237 145.885V150.91H67.2837ZM71.3787 146.83C71.8887 146.83 72.3437 146.715 72.7437 146.485C73.1537 146.255 73.4737 145.93 73.7037 145.51C73.9437 145.08 74.0637 144.585 74.0637 144.025C74.0637 143.455 73.9437 142.965 73.7037 142.555C73.4737 142.135 73.1537 141.81 72.7437 141.58C72.3437 141.35 71.8887 141.235 71.3787 141.235C70.8787 141.235 70.4237 141.35 70.0137 141.58C69.6137 141.81 69.2937 142.135 69.0537 142.555C68.8237 142.965 68.7087 143.455 68.7087 144.025C68.7087 144.585 68.8237 145.08 69.0537 145.51C69.2937 145.93 69.6137 146.255 70.0137 146.485C70.4237 146.715 70.8787 146.83 71.3787 146.83ZM83.3708 148L80.2958 144.13L81.4808 143.41L85.0658 148H83.3708ZM77.6108 148V140.05H79.0508V148H77.6108ZM78.6158 144.64V143.41H81.2408V144.64H78.6158ZM81.6008 144.19L80.2658 144.01L83.3108 140.05H84.8558L81.6008 144.19ZM91.3042 148V146.32L91.2292 146.005V143.14C91.2292 142.53 91.0492 142.06 90.6892 141.73C90.3392 141.39 89.8092 141.22 89.0992 141.22C88.6292 141.22 88.1692 141.3 87.7192 141.46C87.2692 141.61 86.8892 141.815 86.5792 142.075L85.9792 140.995C86.3892 140.665 86.8792 140.415 87.4492 140.245C88.0292 140.065 88.6342 139.975 89.2642 139.975C90.3542 139.975 91.1942 140.24 91.7842 140.77C92.3742 141.3 92.6692 142.11 92.6692 143.2V148H91.3042ZM88.6942 148.09C88.1042 148.09 87.5842 147.99 87.1342 147.79C86.6942 147.59 86.3542 147.315 86.1142 146.965C85.8742 146.605 85.7542 146.2 85.7542 145.75C85.7542 145.32 85.8542 144.93 86.0542 144.58C86.2642 144.23 86.5992 143.95 87.0592 143.74C87.5292 143.53 88.1592 143.425 88.9492 143.425H91.4692V144.46H89.0092C88.2892 144.46 87.8042 144.58 87.5542 144.82C87.3042 145.06 87.1792 145.35 87.1792 145.69C87.1792 146.08 87.3342 146.395 87.6442 146.635C87.9542 146.865 88.3842 146.98 88.9342 146.98C89.4742 146.98 89.9442 146.86 90.3442 146.62C90.7542 146.38 91.0492 146.03 91.2292 145.57L91.5142 146.56C91.3242 147.03 90.9892 147.405 90.5092 147.685C90.0292 147.955 89.4242 148.09 88.6942 148.09ZM104.166 148V146.32L104.091 146.005V143.14C104.091 142.53 103.911 142.06 103.551 141.73C103.201 141.39 102.671 141.22 101.961 141.22C101.491 141.22 101.031 141.3 100.581 141.46C100.131 141.61 99.7505 141.815 99.4405 142.075L98.8405 140.995C99.2505 140.665 99.7405 140.415 100.311 140.245C100.891 140.065 101.496 139.975 102.126 139.975C103.216 139.975 104.056 140.24 104.646 140.77C105.236 141.3 105.531 142.11 105.531 143.2V148H104.166ZM101.556 148.09C100.966 148.09 100.446 147.99 99.9955 147.79C99.5555 147.59 99.2155 147.315 98.9755 146.965C98.7355 146.605 98.6155 146.2 98.6155 145.75C98.6155 145.32 98.7155 144.93 98.9155 144.58C99.1255 144.23 99.4605 143.95 99.9205 143.74C100.391 143.53 101.021 143.425 101.811 143.425H104.331V144.46H101.871C101.151 144.46 100.666 144.58 100.416 144.82C100.166 145.06 100.041 145.35 100.041 145.69C100.041 146.08 100.196 146.395 100.506 146.635C100.816 146.865 101.246 146.98 101.796 146.98C102.336 146.98 102.806 146.86 103.206 146.62C103.616 146.38 103.911 146.03 104.091 145.57L104.376 146.56C104.186 147.03 103.851 147.405 103.371 147.685C102.891 147.955 102.286 148.09 101.556 148.09ZM108.124 148V140.05H111.814C112.744 140.05 113.474 140.23 114.004 140.59C114.544 140.94 114.814 141.44 114.814 142.09C114.814 142.74 114.559 143.245 114.049 143.605C113.549 143.955 112.884 144.13 112.054 144.13L112.279 143.74C113.229 143.74 113.934 143.915 114.394 144.265C114.854 144.615 115.084 145.13 115.084 145.81C115.084 146.5 114.824 147.04 114.304 147.43C113.794 147.81 113.009 148 111.949 148H108.124ZM109.534 146.89H111.844C112.444 146.89 112.894 146.8 113.194 146.62C113.494 146.43 113.644 146.13 113.644 145.72C113.644 145.3 113.504 144.995 113.224 144.805C112.954 144.605 112.524 144.505 111.934 144.505H109.534V146.89ZM109.534 143.47H111.694C112.244 143.47 112.659 143.37 112.939 143.17C113.229 142.96 113.374 142.67 113.374 142.3C113.374 141.92 113.229 141.635 112.939 141.445C112.659 141.255 112.244 141.16 111.694 141.16H109.534V143.47ZM118.912 148V140.935L119.272 141.31H116.002V140.05H123.262V141.31H120.007L120.352 140.935V148H118.912ZM127.788 148.09C126.988 148.09 126.278 147.915 125.658 147.565C125.038 147.215 124.548 146.735 124.188 146.125C123.828 145.505 123.648 144.805 123.648 144.025C123.648 143.235 123.828 142.535 124.188 141.925C124.548 141.315 125.038 140.84 125.658 140.5C126.278 140.15 126.988 139.975 127.788 139.975C128.578 139.975 129.283 140.15 129.903 140.5C130.533 140.84 131.023 141.315 131.373 141.925C131.733 142.525 131.913 143.225 131.913 144.025C131.913 144.815 131.733 145.515 131.373 146.125C131.023 146.735 130.533 147.215 129.903 147.565C129.283 147.915 128.578 148.09 127.788 148.09ZM127.788 146.83C128.298 146.83 128.753 146.715 129.153 146.485C129.563 146.255 129.883 145.93 130.113 145.51C130.343 145.08 130.458 144.585 130.458 144.025C130.458 143.455 130.343 142.965 130.113 142.555C129.883 142.135 129.563 141.81 129.153 141.58C128.753 141.35 128.298 141.235 127.788 141.235C127.278 141.235 126.823 141.35 126.423 141.58C126.023 141.81 125.703 142.135 125.463 142.555C125.223 142.965 125.103 143.455 125.103 144.025C125.103 144.585 125.223 145.08 125.463 145.51C125.703 145.93 126.023 146.255 126.423 146.485C126.823 146.715 127.278 146.83 127.788 146.83ZM133.993 148V140.05H135.478L138.898 145.93H138.298L141.808 140.05H143.158V148H141.853V141.67L142.093 141.805L138.883 147.1H138.253L135.028 141.7L135.313 141.64V148H133.993ZM149.365 148.09C148.565 148.09 147.855 147.915 147.235 147.565C146.615 147.215 146.125 146.735 145.765 146.125C145.405 145.505 145.225 144.805 145.225 144.025C145.225 143.235 145.405 142.535 145.765 141.925C146.125 141.315 146.615 140.84 147.235 140.5C147.855 140.15 148.565 139.975 149.365 139.975C150.155 139.975 150.86 140.15 151.48 140.5C152.11 140.84 152.6 141.315 152.95 141.925C153.31 142.525 153.49 143.225 153.49 144.025C153.49 144.815 153.31 145.515 152.95 146.125C152.6 146.735 152.11 147.215 151.48 147.565C150.86 147.915 150.155 148.09 149.365 148.09ZM149.365 146.83C149.875 146.83 150.33 146.715 150.73 146.485C151.14 146.255 151.46 145.93 151.69 145.51C151.92 145.08 152.035 144.585 152.035 144.025C152.035 143.455 151.92 142.965 151.69 142.555C151.46 142.135 151.14 141.81 150.73 141.58C150.33 141.35 149.875 141.235 149.365 141.235C148.855 141.235 148.4 141.35 148 141.58C147.6 141.81 147.28 142.135 147.04 142.555C146.8 142.965 146.68 143.455 146.68 144.025C146.68 144.585 146.8 145.08 147.04 145.51C147.28 145.93 147.6 146.255 148 146.485C148.4 146.715 148.855 146.83 149.365 146.83ZM159.245 148.12C158.585 148.12 158 148.015 157.49 147.805C156.99 147.595 156.56 147.285 156.2 146.875C155.84 146.455 155.565 145.93 155.375 145.3C155.195 144.66 155.105 143.91 155.105 143.05C155.105 142.37 155.165 141.76 155.285 141.22C155.405 140.68 155.575 140.2 155.795 139.78C156.025 139.36 156.305 138.995 156.635 138.685C156.975 138.375 157.355 138.12 157.775 137.92C158.205 137.71 158.675 137.55 159.185 137.44L162.815 136.63L163.025 137.965L159.68 138.685C159.48 138.725 159.24 138.785 158.96 138.865C158.68 138.945 158.395 139.07 158.105 139.24C157.815 139.4 157.545 139.625 157.295 139.915C157.045 140.205 156.845 140.585 156.695 141.055C156.545 141.515 156.47 142.085 156.47 142.765C156.47 142.955 156.475 143.1 156.485 143.2C156.495 143.3 156.505 143.4 156.515 143.5C156.535 143.6 156.55 143.75 156.56 143.95L155.96 143.335C156.12 142.785 156.375 142.305 156.725 141.895C157.075 141.485 157.495 141.17 157.985 140.95C158.485 140.72 159.03 140.605 159.62 140.605C160.36 140.605 161.015 140.765 161.585 141.085C162.165 141.405 162.62 141.845 162.95 142.405C163.28 142.965 163.445 143.605 163.445 144.325C163.445 145.055 163.27 145.71 162.92 146.29C162.58 146.86 162.095 147.31 161.465 147.64C160.835 147.96 160.095 148.12 159.245 148.12ZM159.38 146.92C159.89 146.92 160.34 146.81 160.73 146.59C161.12 146.36 161.425 146.055 161.645 145.675C161.865 145.285 161.975 144.85 161.975 144.37C161.975 143.89 161.865 143.465 161.645 143.095C161.425 142.725 161.12 142.435 160.73 142.225C160.34 142.005 159.88 141.895 159.35 141.895C158.85 141.895 158.4 142 158 142.21C157.6 142.41 157.29 142.695 157.07 143.065C156.85 143.425 156.74 143.845 156.74 144.325C156.74 144.805 156.85 145.245 157.07 145.645C157.3 146.035 157.61 146.345 158 146.575C158.4 146.805 158.86 146.92 159.38 146.92ZM165.501 148V140.05H166.941V145.84L171.816 140.05H173.121V148H171.681V142.21L166.821 148H165.501ZM174.596 147.985L174.686 146.77C174.756 146.78 174.821 146.79 174.881 146.8C174.941 146.81 174.996 146.815 175.046 146.815C175.366 146.815 175.616 146.705 175.796 146.485C175.986 146.265 176.126 145.975 176.216 145.615C176.306 145.245 176.371 144.83 176.411 144.37C176.451 143.91 176.481 143.45 176.501 142.99L176.636 140.05H182.741V148H181.301V140.89L181.646 141.31H177.566L177.896 140.875L177.791 143.08C177.761 143.78 177.706 144.435 177.626 145.045C177.546 145.655 177.421 146.19 177.251 146.65C177.091 147.11 176.866 147.47 176.576 147.73C176.296 147.99 175.931 148.12 175.481 148.12C175.351 148.12 175.211 148.105 175.061 148.075C174.921 148.055 174.766 148.025 174.596 147.985ZM190.611 148V145.21L190.836 145.48H188.301C187.241 145.48 186.411 145.255 185.811 144.805C185.221 144.355 184.926 143.7 184.926 142.84C184.926 141.92 185.241 141.225 185.871 140.755C186.511 140.285 187.361 140.05 188.421 140.05H191.901V148H190.611ZM184.851 148L187.011 144.955H188.496L186.396 148H184.851ZM190.611 144.76V140.905L190.836 141.31H188.466C187.806 141.31 187.296 141.435 186.936 141.685C186.576 141.925 186.396 142.325 186.396 142.885C186.396 143.925 187.066 144.445 188.406 144.445H190.836L190.611 144.76ZM202.204 148.09C201.394 148.09 200.669 147.915 200.029 147.565C199.399 147.215 198.904 146.735 198.544 146.125C198.184 145.515 198.004 144.815 198.004 144.025C198.004 143.235 198.184 142.535 198.544 141.925C198.904 141.315 199.399 140.84 200.029 140.5C200.669 140.15 201.394 139.975 202.204 139.975C202.924 139.975 203.564 140.12 204.124 140.41C204.694 140.69 205.134 141.11 205.444 141.67L204.349 142.375C204.089 141.985 203.769 141.7 203.389 141.52C203.019 141.33 202.619 141.235 202.189 141.235C201.669 141.235 201.204 141.35 200.794 141.58C200.384 141.81 200.059 142.135 199.819 142.555C199.579 142.965 199.459 143.455 199.459 144.025C199.459 144.595 199.579 145.09 199.819 145.51C200.059 145.93 200.384 146.255 200.794 146.485C201.204 146.715 201.669 146.83 202.189 146.83C202.619 146.83 203.019 146.74 203.389 146.56C203.769 146.37 204.089 146.08 204.349 145.69L205.444 146.38C205.134 146.93 204.694 147.355 204.124 147.655C203.564 147.945 202.924 148.09 202.204 148.09ZM213.068 148L209.993 144.13L211.178 143.41L214.763 148H213.068ZM207.308 148V140.05H208.748V148H207.308ZM208.313 144.64V143.41H210.938V144.64H208.313ZM211.298 144.19L209.963 144.01L213.008 140.05H214.553L211.298 144.19ZM221.001 148V146.32L220.926 146.005V143.14C220.926 142.53 220.746 142.06 220.386 141.73C220.036 141.39 219.506 141.22 218.796 141.22C218.326 141.22 217.866 141.3 217.416 141.46C216.966 141.61 216.586 141.815 216.276 142.075L215.676 140.995C216.086 140.665 216.576 140.415 217.146 140.245C217.726 140.065 218.331 139.975 218.961 139.975C220.051 139.975 220.891 140.24 221.481 140.77C222.071 141.3 222.366 142.11 222.366 143.2V148H221.001ZM218.391 148.09C217.801 148.09 217.281 147.99 216.831 147.79C216.391 147.59 216.051 147.315 215.811 146.965C215.571 146.605 215.451 146.2 215.451 145.75C215.451 145.32 215.551 144.93 215.751 144.58C215.961 144.23 216.296 143.95 216.756 143.74C217.226 143.53 217.856 143.425 218.646 143.425H221.166V144.46H218.706C217.986 144.46 217.501 144.58 217.251 144.82C217.001 145.06 216.876 145.35 216.876 145.69C216.876 146.08 217.031 146.395 217.341 146.635C217.651 146.865 218.081 146.98 218.631 146.98C219.171 146.98 219.641 146.86 220.041 146.62C220.451 146.38 220.746 146.03 220.926 145.57L221.211 146.56C221.021 147.03 220.686 147.405 220.206 147.685C219.726 147.955 219.121 148.09 218.391 148.09ZM224.959 148V140.05H226.399V143.425H230.929V140.05H232.369V148H230.929V144.67H226.399V148H224.959ZM238.709 148.09C237.859 148.09 237.109 147.915 236.459 147.565C235.819 147.215 235.319 146.735 234.959 146.125C234.609 145.515 234.434 144.815 234.434 144.025C234.434 143.235 234.604 142.535 234.944 141.925C235.294 141.315 235.769 140.84 236.369 140.5C236.979 140.15 237.664 139.975 238.424 139.975C239.194 139.975 239.874 140.145 240.464 140.485C241.054 140.825 241.514 141.305 241.844 141.925C242.184 142.535 242.354 143.25 242.354 144.07C242.354 144.13 242.349 144.2 242.339 144.28C242.339 144.36 242.334 144.435 242.324 144.505H235.559V143.47H241.574L240.989 143.83C240.999 143.32 240.894 142.865 240.674 142.465C240.454 142.065 240.149 141.755 239.759 141.535C239.379 141.305 238.934 141.19 238.424 141.19C237.924 141.19 237.479 141.305 237.089 141.535C236.699 141.755 236.394 142.07 236.174 142.48C235.954 142.88 235.844 143.34 235.844 143.86V144.1C235.844 144.63 235.964 145.105 236.204 145.525C236.454 145.935 236.799 146.255 237.239 146.485C237.679 146.715 238.184 146.83 238.754 146.83C239.224 146.83 239.649 146.75 240.029 146.59C240.419 146.43 240.759 146.19 241.049 145.87L241.844 146.8C241.484 147.22 241.034 147.54 240.494 147.76C239.964 147.98 239.369 148.09 238.709 148.09ZM248.803 148.09C248.143 148.09 247.538 147.94 246.988 147.64C246.448 147.33 246.013 146.875 245.683 146.275C245.363 145.675 245.203 144.925 245.203 144.025C245.203 143.125 245.358 142.375 245.668 141.775C245.988 141.175 246.418 140.725 246.958 140.425C247.508 140.125 248.123 139.975 248.803 139.975C249.583 139.975 250.273 140.145 250.873 140.485C251.473 140.825 251.948 141.3 252.298 141.91C252.648 142.51 252.823 143.215 252.823 144.025C252.823 144.835 252.648 145.545 252.298 146.155C251.948 146.765 251.473 147.24 250.873 147.58C250.273 147.92 249.583 148.09 248.803 148.09ZM244.588 150.91V140.05H245.968V142.195L245.878 144.04L246.028 145.885V150.91H244.588ZM248.683 146.83C249.193 146.83 249.648 146.715 250.048 146.485C250.458 146.255 250.778 145.93 251.008 145.51C251.248 145.08 251.368 144.585 251.368 144.025C251.368 143.455 251.248 142.965 251.008 142.555C250.778 142.135 250.458 141.81 250.048 141.58C249.648 141.35 249.193 141.235 248.683 141.235C248.183 141.235 247.728 141.35 247.318 141.58C246.918 141.81 246.598 142.135 246.358 142.555C246.128 142.965 246.013 143.455 246.013 144.025C246.013 144.585 246.128 145.08 246.358 145.51C246.598 145.93 246.918 146.255 247.318 146.485C247.728 146.715 248.183 146.83 248.683 146.83ZM258.321 148.09C257.521 148.09 256.811 147.915 256.191 147.565C255.571 147.215 255.081 146.735 254.721 146.125C254.361 145.505 254.181 144.805 254.181 144.025C254.181 143.235 254.361 142.535 254.721 141.925C255.081 141.315 255.571 140.84 256.191 140.5C256.811 140.15 257.521 139.975 258.321 139.975C259.111 139.975 259.816 140.15 260.436 140.5C261.066 140.84 261.556 141.315 261.906 141.925C262.266 142.525 262.446 143.225 262.446 144.025C262.446 144.815 262.266 145.515 261.906 146.125C261.556 146.735 261.066 147.215 260.436 147.565C259.816 147.915 259.111 148.09 258.321 148.09ZM258.321 146.83C258.831 146.83 259.286 146.715 259.686 146.485C260.096 146.255 260.416 145.93 260.646 145.51C260.876 145.08 260.991 144.585 260.991 144.025C260.991 143.455 260.876 142.965 260.646 142.555C260.416 142.135 260.096 141.81 259.686 141.58C259.286 141.35 258.831 141.235 258.321 141.235C257.811 141.235 257.356 141.35 256.956 141.58C256.556 141.81 256.236 142.135 255.996 142.555C255.756 142.965 255.636 143.455 255.636 144.025C255.636 144.585 255.756 145.08 255.996 145.51C256.236 145.93 256.556 146.255 256.956 146.485C257.356 146.715 257.811 146.83 258.321 146.83ZM264.525 148V140.05H266.01L269.43 145.93H268.83L272.34 140.05H273.69V148H272.385V141.67L272.625 141.805L269.415 147.1H268.785L265.56 141.7L265.845 141.64V148H264.525ZM275.893 150.22L276.643 147.19L276.838 148.06C276.548 148.06 276.303 147.97 276.103 147.79C275.913 147.61 275.818 147.365 275.818 147.055C275.818 146.755 275.913 146.51 276.103 146.32C276.303 146.13 276.543 146.035 276.823 146.035C277.113 146.035 277.348 146.135 277.528 146.335C277.708 146.525 277.798 146.765 277.798 147.055C277.798 147.155 277.788 147.255 277.768 147.355C277.758 147.445 277.733 147.555 277.693 147.685C277.663 147.805 277.613 147.955 277.543 148.135L276.838 150.22H275.893ZM17.97 166V158.935L18.33 159.31H15.06V158.05H22.32V159.31H19.065L19.41 158.935V166H17.97ZM28.6675 166V164.32L28.5925 164.005V161.14C28.5925 160.53 28.4125 160.06 28.0525 159.73C27.7025 159.39 27.1725 159.22 26.4625 159.22C25.9925 159.22 25.5325 159.3 25.0825 159.46C24.6325 159.61 24.2525 159.815 23.9425 160.075L23.3425 158.995C23.7525 158.665 24.2425 158.415 24.8125 158.245C25.3925 158.065 25.9975 157.975 26.6275 157.975C27.7175 157.975 28.5575 158.24 29.1475 158.77C29.7375 159.3 30.0325 160.11 30.0325 161.2V166H28.6675ZM26.0575 166.09C25.4675 166.09 24.9475 165.99 24.4975 165.79C24.0575 165.59 23.7175 165.315 23.4775 164.965C23.2375 164.605 23.1175 164.2 23.1175 163.75C23.1175 163.32 23.2175 162.93 23.4175 162.58C23.6275 162.23 23.9625 161.95 24.4225 161.74C24.8925 161.53 25.5225 161.425 26.3125 161.425H28.8325V162.46H26.3725C25.6525 162.46 25.1675 162.58 24.9175 162.82C24.6675 163.06 24.5425 163.35 24.5425 163.69C24.5425 164.08 24.6975 164.395 25.0075 164.635C25.3175 164.865 25.7475 164.98 26.2975 164.98C26.8375 164.98 27.3075 164.86 27.7075 164.62C28.1175 164.38 28.4125 164.03 28.5925 163.57L28.8775 164.56C28.6875 165.03 28.3525 165.405 27.8725 165.685C27.3925 165.955 26.7875 166.09 26.0575 166.09ZM38.3855 166L35.3105 162.13L36.4955 161.41L40.0805 166H38.3855ZM32.6255 166V158.05H34.0655V166H32.6255ZM33.6305 162.64V161.41H36.2555V162.64H33.6305ZM36.6155 162.19L35.2805 162.01L38.3255 158.05H39.8705L36.6155 162.19ZM55.0536 166L52.5186 162.13L53.7036 161.41L56.7636 166H55.0536ZM50.8686 162.64V161.41H53.4486V162.64H50.8686ZM53.8386 162.19L52.4736 162.01L55.0086 158.05H56.5536L53.8386 162.19ZM46.1286 166H44.4186L47.4636 161.41L48.6486 162.13L46.1286 166ZM51.3036 166H49.8636V158.05H51.3036V166ZM50.2986 162.64H47.7336V161.41H50.2986V162.64ZM47.3436 162.19L44.6286 158.05H46.1586L48.6936 162.01L47.3436 162.19ZM61.6245 166.09C60.7745 166.09 60.0245 165.915 59.3745 165.565C58.7345 165.215 58.2345 164.735 57.8745 164.125C57.5245 163.515 57.3495 162.815 57.3495 162.025C57.3495 161.235 57.5195 160.535 57.8595 159.925C58.2095 159.315 58.6845 158.84 59.2845 158.5C59.8945 158.15 60.5795 157.975 61.3395 157.975C62.1095 157.975 62.7895 158.145 63.3795 158.485C63.9695 158.825 64.4295 159.305 64.7595 159.925C65.0995 160.535 65.2695 161.25 65.2695 162.07C65.2695 162.13 65.2645 162.2 65.2545 162.28C65.2545 162.36 65.2495 162.435 65.2395 162.505H58.4745V161.47H64.4895L63.9045 161.83C63.9145 161.32 63.8095 160.865 63.5895 160.465C63.3695 160.065 63.0645 159.755 62.6745 159.535C62.2945 159.305 61.8495 159.19 61.3395 159.19C60.8395 159.19 60.3945 159.305 60.0045 159.535C59.6145 159.755 59.3095 160.07 59.0895 160.48C58.8695 160.88 58.7595 161.34 58.7595 161.86V162.1C58.7595 162.63 58.8795 163.105 59.1195 163.525C59.3695 163.935 59.7145 164.255 60.1545 164.485C60.5945 164.715 61.0995 164.83 61.6695 164.83C62.1395 164.83 62.5645 164.75 62.9445 164.59C63.3345 164.43 63.6745 164.19 63.9645 163.87L64.7595 164.8C64.3995 165.22 63.9495 165.54 63.4095 165.76C62.8795 165.98 62.2845 166.09 61.6245 166.09ZM71.5317 166V158.05H75.2217C76.1517 158.05 76.8817 158.23 77.4117 158.59C77.9517 158.94 78.2217 159.44 78.2217 160.09C78.2217 160.74 77.9667 161.245 77.4567 161.605C76.9567 161.955 76.2917 162.13 75.4617 162.13L75.6867 161.74C76.6367 161.74 77.3417 161.915 77.8017 162.265C78.2617 162.615 78.4917 163.13 78.4917 163.81C78.4917 164.5 78.2317 165.04 77.7117 165.43C77.2017 165.81 76.4167 166 75.3567 166H71.5317ZM72.9417 164.89H75.2517C75.8517 164.89 76.3017 164.8 76.6017 164.62C76.9017 164.43 77.0517 164.13 77.0517 163.72C77.0517 163.3 76.9117 162.995 76.6317 162.805C76.3617 162.605 75.9317 162.505 75.3417 162.505H72.9417V164.89ZM72.9417 161.47H75.1017C75.6517 161.47 76.0667 161.37 76.3467 161.17C76.6367 160.96 76.7817 160.67 76.7817 160.3C76.7817 159.92 76.6367 159.635 76.3467 159.445C76.0667 159.255 75.6517 159.16 75.1017 159.16H72.9417V161.47ZM84.1506 166.09C83.3506 166.09 82.6406 165.915 82.0206 165.565C81.4006 165.215 80.9106 164.735 80.5506 164.125C80.1906 163.505 80.0106 162.805 80.0106 162.025C80.0106 161.235 80.1906 160.535 80.5506 159.925C80.9106 159.315 81.4006 158.84 82.0206 158.5C82.6406 158.15 83.3506 157.975 84.1506 157.975C84.9406 157.975 85.6456 158.15 86.2656 158.5C86.8956 158.84 87.3856 159.315 87.7356 159.925C88.0956 160.525 88.2756 161.225 88.2756 162.025C88.2756 162.815 88.0956 163.515 87.7356 164.125C87.3856 164.735 86.8956 165.215 86.2656 165.565C85.6456 165.915 84.9406 166.09 84.1506 166.09ZM84.1506 164.83C84.6606 164.83 85.1156 164.715 85.5156 164.485C85.9256 164.255 86.2456 163.93 86.4756 163.51C86.7056 163.08 86.8206 162.585 86.8206 162.025C86.8206 161.455 86.7056 160.965 86.4756 160.555C86.2456 160.135 85.9256 159.81 85.5156 159.58C85.1156 159.35 84.6606 159.235 84.1506 159.235C83.6406 159.235 83.1856 159.35 82.7856 159.58C82.3856 159.81 82.0656 160.135 81.8256 160.555C81.5856 160.965 81.4656 161.455 81.4656 162.025C81.4656 162.585 81.5856 163.08 81.8256 163.51C82.0656 163.93 82.3856 164.255 82.7856 164.485C83.1856 164.715 83.6406 164.83 84.1506 164.83ZM92.5921 166.105C93.2921 166.105 93.9121 166.005 94.4521 165.805C95.0021 165.595 95.4371 165.31 95.7571 164.95C96.0771 164.58 96.2371 164.155 96.2371 163.675C96.2371 163.075 95.9821 162.6 95.4721 162.25C94.9621 161.9 94.2621 161.725 93.3721 161.725L93.3121 162.07C93.8321 162.07 94.2921 161.985 94.6921 161.815C95.0921 161.645 95.4121 161.415 95.6521 161.125C95.8921 160.825 96.0121 160.485 96.0121 160.105C96.0121 159.655 95.8521 159.265 95.5321 158.935C95.2221 158.605 94.7971 158.355 94.2571 158.185C93.7171 158.005 93.1021 157.925 92.4121 157.945C91.9521 157.955 91.4871 158.025 91.0171 158.155C90.5571 158.275 90.0871 158.45 89.6071 158.68L89.9971 159.805C90.4271 159.595 90.8471 159.44 91.2571 159.34C91.6771 159.24 92.0871 159.185 92.4871 159.175C92.8971 159.175 93.2521 159.22 93.5521 159.31C93.8621 159.4 94.1021 159.53 94.2721 159.7C94.4421 159.87 94.5271 160.075 94.5271 160.315C94.5271 160.535 94.4521 160.73 94.3021 160.9C94.1621 161.06 93.9621 161.18 93.7021 161.26C93.4421 161.34 93.1371 161.38 92.7871 161.38H91.4371V162.415H92.8771C93.4671 162.415 93.9271 162.515 94.2571 162.715C94.5871 162.915 94.7521 163.2 94.7521 163.57C94.7521 163.83 94.6621 164.06 94.4821 164.26C94.3021 164.45 94.0421 164.6 93.7021 164.71C93.3721 164.82 92.9771 164.875 92.5171 164.875C92.0171 164.875 91.5221 164.81 91.0321 164.68C90.5421 164.54 90.1071 164.35 89.7271 164.11L89.2921 165.205C89.7421 165.495 90.2521 165.72 90.8221 165.88C91.4021 166.03 91.9921 166.105 92.5921 166.105ZM98.4263 166V158.05H99.9113L103.331 163.93H102.731L106.241 158.05H107.591V166H106.286V159.67L106.526 159.805L103.316 165.1H102.686L99.4613 159.7L99.7463 159.64V166H98.4263ZM113.799 166.09C112.999 166.09 112.289 165.915 111.669 165.565C111.049 165.215 110.559 164.735 110.199 164.125C109.839 163.505 109.659 162.805 109.659 162.025C109.659 161.235 109.839 160.535 110.199 159.925C110.559 159.315 111.049 158.84 111.669 158.5C112.289 158.15 112.999 157.975 113.799 157.975C114.589 157.975 115.294 158.15 115.914 158.5C116.544 158.84 117.034 159.315 117.384 159.925C117.744 160.525 117.924 161.225 117.924 162.025C117.924 162.815 117.744 163.515 117.384 164.125C117.034 164.735 116.544 165.215 115.914 165.565C115.294 165.915 114.589 166.09 113.799 166.09ZM113.799 164.83C114.309 164.83 114.764 164.715 115.164 164.485C115.574 164.255 115.894 163.93 116.124 163.51C116.354 163.08 116.469 162.585 116.469 162.025C116.469 161.455 116.354 160.965 116.124 160.555C115.894 160.135 115.574 159.81 115.164 159.58C114.764 159.35 114.309 159.235 113.799 159.235C113.289 159.235 112.834 159.35 112.434 159.58C112.034 159.81 111.714 160.135 111.474 160.555C111.234 160.965 111.114 161.455 111.114 162.025C111.114 162.585 111.234 163.08 111.474 163.51C111.714 163.93 112.034 164.255 112.434 164.485C112.834 164.715 113.289 164.83 113.799 164.83ZM129.175 166L126.64 162.13L127.825 161.41L130.885 166H129.175ZM124.99 162.64V161.41H127.57V162.64H124.99ZM127.96 162.19L126.595 162.01L129.13 158.05H130.675L127.96 162.19ZM120.25 166H118.54L121.585 161.41L122.77 162.13L120.25 166ZM125.425 166H123.985V158.05H125.425V166ZM124.42 162.64H121.855V161.41H124.42V162.64ZM121.465 162.19L118.75 158.05H120.28L122.815 162.01L121.465 162.19ZM132.469 166V158.05H133.909V161.425H138.439V158.05H139.879V166H138.439V162.67H133.909V166H132.469ZM147.554 166V164.32L147.479 164.005V161.14C147.479 160.53 147.299 160.06 146.939 159.73C146.589 159.39 146.059 159.22 145.349 159.22C144.879 159.22 144.419 159.3 143.969 159.46C143.519 159.61 143.139 159.815 142.829 160.075L142.229 158.995C142.639 158.665 143.129 158.415 143.699 158.245C144.279 158.065 144.884 157.975 145.514 157.975C146.604 157.975 147.444 158.24 148.034 158.77C148.624 159.3 148.919 160.11 148.919 161.2V166H147.554ZM144.944 166.09C144.354 166.09 143.834 165.99 143.384 165.79C142.944 165.59 142.604 165.315 142.364 164.965C142.124 164.605 142.004 164.2 142.004 163.75C142.004 163.32 142.104 162.93 142.304 162.58C142.514 162.23 142.849 161.95 143.309 161.74C143.779 161.53 144.409 161.425 145.199 161.425H147.719V162.46H145.259C144.539 162.46 144.054 162.58 143.804 162.82C143.554 163.06 143.429 163.35 143.429 163.69C143.429 164.08 143.584 164.395 143.894 164.635C144.204 164.865 144.634 164.98 145.184 164.98C145.724 164.98 146.194 164.86 146.594 164.62C147.004 164.38 147.299 164.03 147.479 163.57L147.764 164.56C147.574 165.03 147.239 165.405 146.759 165.685C146.279 165.955 145.674 166.09 144.944 166.09ZM155.541 166V158.05H162.906V166H161.466V158.95L161.811 159.31H156.636L156.981 158.95V166H155.541ZM169.907 166.09C169.247 166.09 168.642 165.94 168.092 165.64C167.552 165.33 167.117 164.875 166.787 164.275C166.467 163.675 166.307 162.925 166.307 162.025C166.307 161.125 166.462 160.375 166.772 159.775C167.092 159.175 167.522 158.725 168.062 158.425C168.612 158.125 169.227 157.975 169.907 157.975C170.687 157.975 171.377 158.145 171.977 158.485C172.577 158.825 173.052 159.3 173.402 159.91C173.752 160.51 173.927 161.215 173.927 162.025C173.927 162.835 173.752 163.545 173.402 164.155C173.052 164.765 172.577 165.24 171.977 165.58C171.377 165.92 170.687 166.09 169.907 166.09ZM165.692 168.91V158.05H167.072V160.195L166.982 162.04L167.132 163.885V168.91H165.692ZM169.787 164.83C170.297 164.83 170.752 164.715 171.152 164.485C171.562 164.255 171.882 163.93 172.112 163.51C172.352 163.08 172.472 162.585 172.472 162.025C172.472 161.455 172.352 160.965 172.112 160.555C171.882 160.135 171.562 159.81 171.152 159.58C170.752 159.35 170.297 159.235 169.787 159.235C169.287 159.235 168.832 159.35 168.422 159.58C168.022 159.81 167.702 160.135 167.462 160.555C167.232 160.965 167.117 161.455 167.117 162.025C167.117 162.585 167.232 163.08 167.462 163.51C167.702 163.93 168.022 164.255 168.422 164.485C168.832 164.715 169.287 164.83 169.787 164.83ZM179.424 166.09C178.624 166.09 177.914 165.915 177.294 165.565C176.674 165.215 176.184 164.735 175.824 164.125C175.464 163.505 175.284 162.805 175.284 162.025C175.284 161.235 175.464 160.535 175.824 159.925C176.184 159.315 176.674 158.84 177.294 158.5C177.914 158.15 178.624 157.975 179.424 157.975C180.214 157.975 180.919 158.15 181.539 158.5C182.169 158.84 182.659 159.315 183.009 159.925C183.369 160.525 183.549 161.225 183.549 162.025C183.549 162.815 183.369 163.515 183.009 164.125C182.659 164.735 182.169 165.215 181.539 165.565C180.919 165.915 180.214 166.09 179.424 166.09ZM179.424 164.83C179.934 164.83 180.389 164.715 180.789 164.485C181.199 164.255 181.519 163.93 181.749 163.51C181.979 163.08 182.094 162.585 182.094 162.025C182.094 161.455 181.979 160.965 181.749 160.555C181.519 160.135 181.199 159.81 180.789 159.58C180.389 159.35 179.934 159.235 179.424 159.235C178.914 159.235 178.459 159.35 178.059 159.58C177.659 159.81 177.339 160.135 177.099 160.555C176.859 160.965 176.739 161.455 176.739 162.025C176.739 162.585 176.859 163.08 177.099 163.51C177.339 163.93 177.659 164.255 178.059 164.485C178.459 164.715 178.914 164.83 179.424 164.83ZM185.628 166V158.05H189.318C190.248 158.05 190.978 158.23 191.508 158.59C192.048 158.94 192.318 159.44 192.318 160.09C192.318 160.74 192.063 161.245 191.553 161.605C191.053 161.955 190.388 162.13 189.558 162.13L189.783 161.74C190.733 161.74 191.438 161.915 191.898 162.265C192.358 162.615 192.588 163.13 192.588 163.81C192.588 164.5 192.328 165.04 191.808 165.43C191.298 165.81 190.513 166 189.453 166H185.628ZM187.038 164.89H189.348C189.948 164.89 190.398 164.8 190.698 164.62C190.998 164.43 191.148 164.13 191.148 163.72C191.148 163.3 191.008 162.995 190.728 162.805C190.458 162.605 190.028 162.505 189.438 162.505H187.038V164.89ZM187.038 161.47H189.198C189.748 161.47 190.163 161.37 190.443 161.17C190.733 160.96 190.878 160.67 190.878 160.3C190.878 159.92 190.733 159.635 190.443 159.445C190.163 159.255 189.748 159.16 189.198 159.16H187.038V161.47ZM198.382 166.09C197.532 166.09 196.782 165.915 196.132 165.565C195.492 165.215 194.992 164.735 194.632 164.125C194.282 163.515 194.107 162.815 194.107 162.025C194.107 161.235 194.277 160.535 194.617 159.925C194.967 159.315 195.442 158.84 196.042 158.5C196.652 158.15 197.337 157.975 198.097 157.975C198.867 157.975 199.547 158.145 200.137 158.485C200.727 158.825 201.187 159.305 201.517 159.925C201.857 160.535 202.027 161.25 202.027 162.07C202.027 162.13 202.022 162.2 202.012 162.28C202.012 162.36 202.007 162.435 201.997 162.505H195.232V161.47H201.247L200.662 161.83C200.672 161.32 200.567 160.865 200.347 160.465C200.127 160.065 199.822 159.755 199.432 159.535C199.052 159.305 198.607 159.19 198.097 159.19C197.597 159.19 197.152 159.305 196.762 159.535C196.372 159.755 196.067 160.07 195.847 160.48C195.627 160.88 195.517 161.34 195.517 161.86V162.1C195.517 162.63 195.637 163.105 195.877 163.525C196.127 163.935 196.472 164.255 196.912 164.485C197.352 164.715 197.857 164.83 198.427 164.83C198.897 164.83 199.322 164.75 199.702 164.59C200.092 164.43 200.432 164.19 200.722 163.87L201.517 164.8C201.157 165.22 200.707 165.54 200.167 165.76C199.637 165.98 199.042 166.09 198.382 166.09ZM208.476 166.09C207.816 166.09 207.211 165.94 206.661 165.64C206.121 165.33 205.686 164.875 205.356 164.275C205.036 163.675 204.876 162.925 204.876 162.025C204.876 161.125 205.031 160.375 205.341 159.775C205.661 159.175 206.091 158.725 206.631 158.425C207.181 158.125 207.796 157.975 208.476 157.975C209.256 157.975 209.946 158.145 210.546 158.485C211.146 158.825 211.621 159.3 211.971 159.91C212.321 160.51 212.496 161.215 212.496 162.025C212.496 162.835 212.321 163.545 211.971 164.155C211.621 164.765 211.146 165.24 210.546 165.58C209.946 165.92 209.256 166.09 208.476 166.09ZM204.261 168.91V158.05H205.641V160.195L205.551 162.04L205.701 163.885V168.91H204.261ZM208.356 164.83C208.866 164.83 209.321 164.715 209.721 164.485C210.131 164.255 210.451 163.93 210.681 163.51C210.921 163.08 211.041 162.585 211.041 162.025C211.041 161.455 210.921 160.965 210.681 160.555C210.451 160.135 210.131 159.81 209.721 159.58C209.321 159.35 208.866 159.235 208.356 159.235C207.856 159.235 207.401 159.35 206.991 159.58C206.591 159.81 206.271 160.135 206.031 160.555C205.801 160.965 205.686 161.455 205.686 162.025C205.686 162.585 205.801 163.08 206.031 163.51C206.271 163.93 206.591 164.255 206.991 164.485C207.401 164.715 207.856 164.83 208.356 164.83ZM220.348 166L217.273 162.13L218.458 161.41L222.043 166H220.348ZM214.588 166V158.05H216.028V166H214.588ZM215.593 162.64V161.41H218.218V162.64H215.593ZM218.578 162.19L217.243 162.01L220.288 158.05H221.833L218.578 162.19ZM228.282 166V164.32L228.207 164.005V161.14C228.207 160.53 228.027 160.06 227.667 159.73C227.317 159.39 226.787 159.22 226.077 159.22C225.607 159.22 225.147 159.3 224.697 159.46C224.247 159.61 223.867 159.815 223.557 160.075L222.957 158.995C223.367 158.665 223.857 158.415 224.427 158.245C225.007 158.065 225.612 157.975 226.242 157.975C227.332 157.975 228.172 158.24 228.762 158.77C229.352 159.3 229.647 160.11 229.647 161.2V166H228.282ZM225.672 166.09C225.082 166.09 224.562 165.99 224.112 165.79C223.672 165.59 223.332 165.315 223.092 164.965C222.852 164.605 222.732 164.2 222.732 163.75C222.732 163.32 222.832 162.93 223.032 162.58C223.242 162.23 223.577 161.95 224.037 161.74C224.507 161.53 225.137 161.425 225.927 161.425H228.447V162.46H225.987C225.267 162.46 224.782 162.58 224.532 162.82C224.282 163.06 224.157 163.35 224.157 163.69C224.157 164.08 224.312 164.395 224.622 164.635C224.932 164.865 225.362 164.98 225.912 164.98C226.452 164.98 226.922 164.86 227.322 164.62C227.732 164.38 228.027 164.03 228.207 163.57L228.492 164.56C228.302 165.03 227.967 165.405 227.487 165.685C227.007 165.955 226.402 166.09 225.672 166.09ZM22.155 184L19.08 180.13L20.265 179.41L23.85 184H22.155ZM16.395 184V176.05H17.835V184H16.395ZM17.4 180.64V179.41H20.025V180.64H17.4ZM20.385 180.19L19.05 180.01L22.095 176.05H23.64L20.385 180.19ZM28.5012 184.09C27.7012 184.09 26.9912 183.915 26.3712 183.565C25.7512 183.215 25.2612 182.735 24.9012 182.125C24.5412 181.505 24.3612 180.805 24.3612 180.025C24.3612 179.235 24.5412 178.535 24.9012 177.925C25.2612 177.315 25.7512 176.84 26.3712 176.5C26.9912 176.15 27.7012 175.975 28.5012 175.975C29.2912 175.975 29.9962 176.15 30.6162 176.5C31.2462 176.84 31.7362 177.315 32.0862 177.925C32.4462 178.525 32.6262 179.225 32.6262 180.025C32.6262 180.815 32.4462 181.515 32.0862 182.125C31.7362 182.735 31.2462 183.215 30.6162 183.565C29.9962 183.915 29.2912 184.09 28.5012 184.09ZM28.5012 182.83C29.0112 182.83 29.4662 182.715 29.8662 182.485C30.2762 182.255 30.5962 181.93 30.8262 181.51C31.0562 181.08 31.1712 180.585 31.1712 180.025C31.1712 179.455 31.0562 178.965 30.8262 178.555C30.5962 178.135 30.2762 177.81 29.8662 177.58C29.4662 177.35 29.0112 177.235 28.5012 177.235C27.9912 177.235 27.5362 177.35 27.1362 177.58C26.7362 177.81 26.4162 178.135 26.1762 178.555C25.9362 178.965 25.8162 179.455 25.8162 180.025C25.8162 180.585 25.9362 181.08 26.1762 181.51C26.4162 181.93 26.7362 182.255 27.1362 182.485C27.5362 182.715 27.9912 182.83 28.5012 182.83ZM34.7055 184V176.05H36.1905L39.6105 181.93H39.0105L42.5205 176.05H43.8705V184H42.5655V177.67L42.8055 177.805L39.5955 183.1H38.9655L35.7405 177.7L36.0255 177.64V184H34.7055ZM46.6733 184V176.05H54.0383V184H52.5983V176.95L52.9433 177.31H47.7683L48.1133 176.95V184H46.6733ZM61.0397 184.09C60.3797 184.09 59.7747 183.94 59.2247 183.64C58.6847 183.33 58.2497 182.875 57.9197 182.275C57.5997 181.675 57.4397 180.925 57.4397 180.025C57.4397 179.125 57.5947 178.375 57.9047 177.775C58.2247 177.175 58.6547 176.725 59.1947 176.425C59.7447 176.125 60.3597 175.975 61.0397 175.975C61.8197 175.975 62.5097 176.145 63.1097 176.485C63.7097 176.825 64.1847 177.3 64.5347 177.91C64.8847 178.51 65.0597 179.215 65.0597 180.025C65.0597 180.835 64.8847 181.545 64.5347 182.155C64.1847 182.765 63.7097 183.24 63.1097 183.58C62.5097 183.92 61.8197 184.09 61.0397 184.09ZM56.8247 186.91V176.05H58.2047V178.195L58.1147 180.04L58.2647 181.885V186.91H56.8247ZM60.9197 182.83C61.4297 182.83 61.8847 182.715 62.2847 182.485C62.6947 182.255 63.0147 181.93 63.2447 181.51C63.4847 181.08 63.6047 180.585 63.6047 180.025C63.6047 179.455 63.4847 178.965 63.2447 178.555C63.0147 178.135 62.6947 177.81 62.2847 177.58C61.8847 177.35 61.4297 177.235 60.9197 177.235C60.4197 177.235 59.9647 177.35 59.5547 177.58C59.1547 177.81 58.8347 178.135 58.5947 178.555C58.3647 178.965 58.2497 179.455 58.2497 180.025C58.2497 180.585 58.3647 181.08 58.5947 181.51C58.8347 181.93 59.1547 182.255 59.5547 182.485C59.9647 182.715 60.4197 182.83 60.9197 182.83ZM70.6918 184.09C69.8418 184.09 69.0918 183.915 68.4418 183.565C67.8018 183.215 67.3018 182.735 66.9418 182.125C66.5918 181.515 66.4168 180.815 66.4168 180.025C66.4168 179.235 66.5868 178.535 66.9268 177.925C67.2768 177.315 67.7518 176.84 68.3518 176.5C68.9618 176.15 69.6468 175.975 70.4068 175.975C71.1768 175.975 71.8568 176.145 72.4468 176.485C73.0368 176.825 73.4968 177.305 73.8268 177.925C74.1668 178.535 74.3368 179.25 74.3368 180.07C74.3368 180.13 74.3318 180.2 74.3218 180.28C74.3218 180.36 74.3168 180.435 74.3068 180.505H67.5418V179.47H73.5568L72.9718 179.83C72.9818 179.32 72.8768 178.865 72.6568 178.465C72.4368 178.065 72.1318 177.755 71.7418 177.535C71.3618 177.305 70.9168 177.19 70.4068 177.19C69.9068 177.19 69.4618 177.305 69.0718 177.535C68.6818 177.755 68.3768 178.07 68.1568 178.48C67.9368 178.88 67.8268 179.34 67.8268 179.86V180.1C67.8268 180.63 67.9468 181.105 68.1868 181.525C68.4368 181.935 68.7818 182.255 69.2218 182.485C69.6618 182.715 70.1668 182.83 70.7368 182.83C71.2068 182.83 71.6318 182.75 72.0118 182.59C72.4018 182.43 72.7418 182.19 73.0318 181.87L73.8268 182.8C73.4668 183.22 73.0168 183.54 72.4768 183.76C71.9468 183.98 71.3518 184.09 70.6918 184.09ZM80.0358 184.09C79.2258 184.09 78.5008 183.915 77.8608 183.565C77.2308 183.215 76.7358 182.735 76.3758 182.125C76.0158 181.515 75.8358 180.815 75.8358 180.025C75.8358 179.235 76.0158 178.535 76.3758 177.925C76.7358 177.315 77.2308 176.84 77.8608 176.5C78.5008 176.15 79.2258 175.975 80.0358 175.975C80.7558 175.975 81.3958 176.12 81.9558 176.41C82.5258 176.69 82.9658 177.11 83.2758 177.67L82.1808 178.375C81.9208 177.985 81.6008 177.7 81.2208 177.52C80.8508 177.33 80.4508 177.235 80.0208 177.235C79.5008 177.235 79.0358 177.35 78.6258 177.58C78.2158 177.81 77.8908 178.135 77.6508 178.555C77.4108 178.965 77.2908 179.455 77.2908 180.025C77.2908 180.595 77.4108 181.09 77.6508 181.51C77.8908 181.93 78.2158 182.255 78.6258 182.485C79.0358 182.715 79.5008 182.83 80.0208 182.83C80.4508 182.83 80.8508 182.74 81.2208 182.56C81.6008 182.37 81.9208 182.08 82.1808 181.69L83.2758 182.38C82.9658 182.93 82.5258 183.355 81.9558 183.655C81.3958 183.945 80.7558 184.09 80.0358 184.09ZM85.1401 184V176.05H86.5801V181.84L91.4551 176.05H92.7601V184H91.3201V178.21L86.4601 184H85.1401ZM95.5552 184V176.05H96.9952V181.84L101.87 176.05H103.175V184H101.735V178.21L96.8752 184H95.5552ZM117.214 183.295V174.805H112.609L112.534 177.01C112.504 177.75 112.454 178.46 112.384 179.14C112.324 179.82 112.234 180.435 112.114 180.985C111.994 181.525 111.824 181.97 111.604 182.32C111.394 182.67 111.124 182.885 110.794 182.965L109.174 182.695C109.564 182.725 109.884 182.595 110.134 182.305C110.394 182.005 110.594 181.59 110.734 181.06C110.884 180.52 110.994 179.895 111.064 179.185C111.134 178.465 111.184 177.695 111.214 176.875L111.319 173.5H118.699V183.295H117.214ZM108.799 186.295L108.814 182.695H120.244V186.295H118.849V184H110.209L110.194 186.295H108.799ZM122.294 184V173.5H126.809C127.949 173.5 128.844 173.73 129.494 174.19C130.144 174.65 130.469 175.32 130.469 176.2C130.469 177.06 130.159 177.72 129.539 178.18C128.919 178.63 128.104 178.855 127.094 178.855L127.364 178.405C128.534 178.405 129.429 178.64 130.049 179.11C130.679 179.57 130.994 180.245 130.994 181.135C130.994 182.035 130.664 182.74 130.004 183.25C129.354 183.75 128.384 184 127.094 184H122.294ZM123.779 182.815H127.064C127.864 182.815 128.464 182.67 128.864 182.38C129.274 182.08 129.479 181.625 129.479 181.015C129.479 180.405 129.274 179.96 128.864 179.68C128.464 179.4 127.864 179.26 127.064 179.26H123.779V182.815ZM123.779 178.12H126.704C127.434 178.12 127.989 177.975 128.369 177.685C128.759 177.395 128.954 176.97 128.954 176.41C128.954 175.84 128.759 175.41 128.369 175.12C127.989 174.83 127.434 174.685 126.704 174.685H123.779V178.12ZM138.195 184.12C137.395 184.12 136.655 183.99 135.975 183.73C135.305 183.46 134.72 183.085 134.22 182.605C133.73 182.115 133.345 181.545 133.065 180.895C132.785 180.245 132.645 179.53 132.645 178.75C132.645 177.97 132.785 177.255 133.065 176.605C133.345 175.955 133.735 175.39 134.235 174.91C134.735 174.42 135.32 174.045 135.99 173.785C136.67 173.515 137.41 173.38 138.21 173.38C139.02 173.38 139.765 173.52 140.445 173.8C141.135 174.07 141.72 174.475 142.2 175.015L141.225 175.96C140.825 175.54 140.375 175.23 139.875 175.03C139.375 174.82 138.84 174.715 138.27 174.715C137.68 174.715 137.13 174.815 136.62 175.015C136.12 175.215 135.685 175.495 135.315 175.855C134.945 176.215 134.655 176.645 134.445 177.145C134.245 177.635 134.145 178.17 134.145 178.75C134.145 179.33 134.245 179.87 134.445 180.37C134.655 180.86 134.945 181.285 135.315 181.645C135.685 182.005 136.12 182.285 136.62 182.485C137.13 182.685 137.68 182.785 138.27 182.785C138.84 182.785 139.375 182.685 139.875 182.485C140.375 182.275 140.825 181.955 141.225 181.525L142.2 182.47C141.72 183.01 141.135 183.42 140.445 183.7C139.765 183.98 139.015 184.12 138.195 184.12ZM148.295 184V173.5H157.34V184H155.87V174.415L156.23 174.805H149.405L149.78 174.415V184H148.295ZM164.589 184.09C163.929 184.09 163.324 183.94 162.774 183.64C162.234 183.33 161.799 182.875 161.469 182.275C161.149 181.675 160.989 180.925 160.989 180.025C160.989 179.125 161.144 178.375 161.454 177.775C161.774 177.175 162.204 176.725 162.744 176.425C163.294 176.125 163.909 175.975 164.589 175.975C165.369 175.975 166.059 176.145 166.659 176.485C167.259 176.825 167.734 177.3 168.084 177.91C168.434 178.51 168.609 179.215 168.609 180.025C168.609 180.835 168.434 181.545 168.084 182.155C167.734 182.765 167.259 183.24 166.659 183.58C166.059 183.92 165.369 184.09 164.589 184.09ZM160.374 186.91V176.05H161.754V178.195L161.664 180.04L161.814 181.885V186.91H160.374ZM164.469 182.83C164.979 182.83 165.434 182.715 165.834 182.485C166.244 182.255 166.564 181.93 166.794 181.51C167.034 181.08 167.154 180.585 167.154 180.025C167.154 179.455 167.034 178.965 166.794 178.555C166.564 178.135 166.244 177.81 165.834 177.58C165.434 177.35 164.979 177.235 164.469 177.235C163.969 177.235 163.514 177.35 163.104 177.58C162.704 177.81 162.384 178.135 162.144 178.555C161.914 178.965 161.799 179.455 161.799 180.025C161.799 180.585 161.914 181.08 162.144 181.51C162.384 181.93 162.704 182.255 163.104 182.485C163.514 182.715 163.969 182.83 164.469 182.83ZM174.107 184.09C173.307 184.09 172.597 183.915 171.977 183.565C171.357 183.215 170.867 182.735 170.507 182.125C170.147 181.505 169.967 180.805 169.967 180.025C169.967 179.235 170.147 178.535 170.507 177.925C170.867 177.315 171.357 176.84 171.977 176.5C172.597 176.15 173.307 175.975 174.107 175.975C174.897 175.975 175.602 176.15 176.222 176.5C176.852 176.84 177.342 177.315 177.692 177.925C178.052 178.525 178.232 179.225 178.232 180.025C178.232 180.815 178.052 181.515 177.692 182.125C177.342 182.735 176.852 183.215 176.222 183.565C175.602 183.915 174.897 184.09 174.107 184.09ZM174.107 182.83C174.617 182.83 175.072 182.715 175.472 182.485C175.882 182.255 176.202 181.93 176.432 181.51C176.662 181.08 176.777 180.585 176.777 180.025C176.777 179.455 176.662 178.965 176.432 178.555C176.202 178.135 175.882 177.81 175.472 177.58C175.072 177.35 174.617 177.235 174.107 177.235C173.597 177.235 173.142 177.35 172.742 177.58C172.342 177.81 172.022 178.135 171.782 178.555C171.542 178.965 171.422 179.455 171.422 180.025C171.422 180.585 171.542 181.08 171.782 181.51C172.022 181.93 172.342 182.255 172.742 182.485C173.142 182.715 173.597 182.83 174.107 182.83ZM180.311 184V176.05H184.001C184.931 176.05 185.661 176.23 186.191 176.59C186.731 176.94 187.001 177.44 187.001 178.09C187.001 178.74 186.746 179.245 186.236 179.605C185.736 179.955 185.071 180.13 184.241 180.13L184.466 179.74C185.416 179.74 186.121 179.915 186.581 180.265C187.041 180.615 187.271 181.13 187.271 181.81C187.271 182.5 187.011 183.04 186.491 183.43C185.981 183.81 185.196 184 184.136 184H180.311ZM181.721 182.89H184.031C184.631 182.89 185.081 182.8 185.381 182.62C185.681 182.43 185.831 182.13 185.831 181.72C185.831 181.3 185.691 180.995 185.411 180.805C185.141 180.605 184.711 180.505 184.121 180.505H181.721V182.89ZM181.721 179.47H183.881C184.431 179.47 184.846 179.37 185.126 179.17C185.416 178.96 185.561 178.67 185.561 178.3C185.561 177.92 185.416 177.635 185.126 177.445C184.846 177.255 184.431 177.16 183.881 177.16H181.721V179.47ZM193.065 184.09C192.215 184.09 191.465 183.915 190.815 183.565C190.175 183.215 189.675 182.735 189.315 182.125C188.965 181.515 188.79 180.815 188.79 180.025C188.79 179.235 188.96 178.535 189.3 177.925C189.65 177.315 190.125 176.84 190.725 176.5C191.335 176.15 192.02 175.975 192.78 175.975C193.55 175.975 194.23 176.145 194.82 176.485C195.41 176.825 195.87 177.305 196.2 177.925C196.54 178.535 196.71 179.25 196.71 180.07C196.71 180.13 196.705 180.2 196.695 180.28C196.695 180.36 196.69 180.435 196.68 180.505H189.915V179.47H195.93L195.345 179.83C195.355 179.32 195.25 178.865 195.03 178.465C194.81 178.065 194.505 177.755 194.115 177.535C193.735 177.305 193.29 177.19 192.78 177.19C192.28 177.19 191.835 177.305 191.445 177.535C191.055 177.755 190.75 178.07 190.53 178.48C190.31 178.88 190.2 179.34 190.2 179.86V180.1C190.2 180.63 190.32 181.105 190.56 181.525C190.81 181.935 191.155 182.255 191.595 182.485C192.035 182.715 192.54 182.83 193.11 182.83C193.58 182.83 194.005 182.75 194.385 182.59C194.775 182.43 195.115 182.19 195.405 181.87L196.2 182.8C195.84 183.22 195.39 183.54 194.85 183.76C194.32 183.98 193.725 184.09 193.065 184.09ZM203.159 184.09C202.499 184.09 201.894 183.94 201.344 183.64C200.804 183.33 200.369 182.875 200.039 182.275C199.719 181.675 199.559 180.925 199.559 180.025C199.559 179.125 199.714 178.375 200.024 177.775C200.344 177.175 200.774 176.725 201.314 176.425C201.864 176.125 202.479 175.975 203.159 175.975C203.939 175.975 204.629 176.145 205.229 176.485C205.829 176.825 206.304 177.3 206.654 177.91C207.004 178.51 207.179 179.215 207.179 180.025C207.179 180.835 207.004 181.545 206.654 182.155C206.304 182.765 205.829 183.24 205.229 183.58C204.629 183.92 203.939 184.09 203.159 184.09ZM198.944 186.91V176.05H200.324V178.195L200.234 180.04L200.384 181.885V186.91H198.944ZM203.039 182.83C203.549 182.83 204.004 182.715 204.404 182.485C204.814 182.255 205.134 181.93 205.364 181.51C205.604 181.08 205.724 180.585 205.724 180.025C205.724 179.455 205.604 178.965 205.364 178.555C205.134 178.135 204.814 177.81 204.404 177.58C204.004 177.35 203.549 177.235 203.039 177.235C202.539 177.235 202.084 177.35 201.674 177.58C201.274 177.81 200.954 178.135 200.714 178.555C200.484 178.965 200.369 179.455 200.369 180.025C200.369 180.585 200.484 181.08 200.714 181.51C200.954 181.93 201.274 182.255 201.674 182.485C202.084 182.715 202.539 182.83 203.039 182.83ZM215.031 184L211.956 180.13L213.141 179.41L216.726 184H215.031ZM209.271 184V176.05H210.711V184H209.271ZM210.276 180.64V179.41H212.901V180.64H210.276ZM213.261 180.19L211.926 180.01L214.971 176.05H216.516L213.261 180.19ZM222.964 184V182.32L222.889 182.005V179.14C222.889 178.53 222.709 178.06 222.349 177.73C221.999 177.39 221.469 177.22 220.759 177.22C220.289 177.22 219.829 177.3 219.379 177.46C218.929 177.61 218.549 177.815 218.239 178.075L217.639 176.995C218.049 176.665 218.539 176.415 219.109 176.245C219.689 176.065 220.294 175.975 220.924 175.975C222.014 175.975 222.854 176.24 223.444 176.77C224.034 177.3 224.329 178.11 224.329 179.2V184H222.964ZM220.354 184.09C219.764 184.09 219.244 183.99 218.794 183.79C218.354 183.59 218.014 183.315 217.774 182.965C217.534 182.605 217.414 182.2 217.414 181.75C217.414 181.32 217.514 180.93 217.714 180.58C217.924 180.23 218.259 179.95 218.719 179.74C219.189 179.53 219.819 179.425 220.609 179.425H223.129V180.46H220.669C219.949 180.46 219.464 180.58 219.214 180.82C218.964 181.06 218.839 181.35 218.839 181.69C218.839 182.08 218.994 182.395 219.304 182.635C219.614 182.865 220.044 182.98 220.594 182.98C221.134 182.98 221.604 182.86 222.004 182.62C222.414 182.38 222.709 182.03 222.889 181.57L223.174 182.56C222.984 183.03 222.649 183.405 222.169 183.685C221.689 183.955 221.084 184.09 220.354 184.09ZM19.86 202.09C19.05 202.09 18.325 201.915 17.685 201.565C17.055 201.215 16.56 200.735 16.2 200.125C15.84 199.515 15.66 198.815 15.66 198.025C15.66 197.235 15.84 196.535 16.2 195.925C16.56 195.315 17.055 194.84 17.685 194.5C18.325 194.15 19.05 193.975 19.86 193.975C20.58 193.975 21.22 194.12 21.78 194.41C22.35 194.69 22.79 195.11 23.1 195.67L22.005 196.375C21.745 195.985 21.425 195.7 21.045 195.52C20.675 195.33 20.275 195.235 19.845 195.235C19.325 195.235 18.86 195.35 18.45 195.58C18.04 195.81 17.715 196.135 17.475 196.555C17.235 196.965 17.115 197.455 17.115 198.025C17.115 198.595 17.235 199.09 17.475 199.51C17.715 199.93 18.04 200.255 18.45 200.485C18.86 200.715 19.325 200.83 19.845 200.83C20.275 200.83 20.675 200.74 21.045 200.56C21.425 200.37 21.745 200.08 22.005 199.69L23.1 200.38C22.79 200.93 22.35 201.355 21.78 201.655C21.22 201.945 20.58 202.09 19.86 202.09ZM28.2521 202.09C27.4521 202.09 26.7421 201.915 26.1221 201.565C25.5021 201.215 25.0121 200.735 24.6521 200.125C24.2921 199.505 24.1121 198.805 24.1121 198.025C24.1121 197.235 24.2921 196.535 24.6521 195.925C25.0121 195.315 25.5021 194.84 26.1221 194.5C26.7421 194.15 27.4521 193.975 28.2521 193.975C29.0421 193.975 29.7471 194.15 30.3671 194.5C30.9971 194.84 31.4871 195.315 31.8371 195.925C32.1971 196.525 32.3771 197.225 32.3771 198.025C32.3771 198.815 32.1971 199.515 31.8371 200.125C31.4871 200.735 30.9971 201.215 30.3671 201.565C29.7471 201.915 29.0421 202.09 28.2521 202.09ZM28.2521 200.83C28.7621 200.83 29.2171 200.715 29.6171 200.485C30.0271 200.255 30.3471 199.93 30.5771 199.51C30.8071 199.08 30.9221 198.585 30.9221 198.025C30.9221 197.455 30.8071 196.965 30.5771 196.555C30.3471 196.135 30.0271 195.81 29.6171 195.58C29.2171 195.35 28.7621 195.235 28.2521 195.235C27.7421 195.235 27.2871 195.35 26.8871 195.58C26.4871 195.81 26.1671 196.135 25.9271 196.555C25.6871 196.965 25.5671 197.455 25.5671 198.025C25.5671 198.585 25.6871 199.08 25.9271 199.51C26.1671 199.93 26.4871 200.255 26.8871 200.485C27.2871 200.715 27.7421 200.83 28.2521 200.83ZM37.9215 202.09C37.1115 202.09 36.3865 201.915 35.7465 201.565C35.1165 201.215 34.6215 200.735 34.2615 200.125C33.9015 199.515 33.7215 198.815 33.7215 198.025C33.7215 197.235 33.9015 196.535 34.2615 195.925C34.6215 195.315 35.1165 194.84 35.7465 194.5C36.3865 194.15 37.1115 193.975 37.9215 193.975C38.6415 193.975 39.2815 194.12 39.8415 194.41C40.4115 194.69 40.8515 195.11 41.1615 195.67L40.0665 196.375C39.8065 195.985 39.4865 195.7 39.1065 195.52C38.7365 195.33 38.3365 195.235 37.9065 195.235C37.3865 195.235 36.9215 195.35 36.5115 195.58C36.1015 195.81 35.7765 196.135 35.5365 196.555C35.2965 196.965 35.1765 197.455 35.1765 198.025C35.1765 198.595 35.2965 199.09 35.5365 199.51C35.7765 199.93 36.1015 200.255 36.5115 200.485C36.9215 200.715 37.3865 200.83 37.9065 200.83C38.3365 200.83 38.7365 200.74 39.1065 200.56C39.4865 200.37 39.8065 200.08 40.0665 199.69L41.1615 200.38C40.8515 200.93 40.4115 201.355 39.8415 201.655C39.2815 201.945 38.6415 202.09 37.9215 202.09ZM44.4983 202V194.935L44.8583 195.31H41.5883V194.05H48.8483V195.31H45.5933L45.9383 194.935V202H44.4983ZM53.3742 202.09C52.5742 202.09 51.8642 201.915 51.2442 201.565C50.6242 201.215 50.1342 200.735 49.7742 200.125C49.4142 199.505 49.2342 198.805 49.2342 198.025C49.2342 197.235 49.4142 196.535 49.7742 195.925C50.1342 195.315 50.6242 194.84 51.2442 194.5C51.8642 194.15 52.5742 193.975 53.3742 193.975C54.1642 193.975 54.8692 194.15 55.4892 194.5C56.1192 194.84 56.6092 195.315 56.9592 195.925C57.3192 196.525 57.4992 197.225 57.4992 198.025C57.4992 198.815 57.3192 199.515 56.9592 200.125C56.6092 200.735 56.1192 201.215 55.4892 201.565C54.8692 201.915 54.1642 202.09 53.3742 202.09ZM53.3742 200.83C53.8842 200.83 54.3392 200.715 54.7392 200.485C55.1492 200.255 55.4692 199.93 55.6992 199.51C55.9292 199.08 56.0442 198.585 56.0442 198.025C56.0442 197.455 55.9292 196.965 55.6992 196.555C55.4692 196.135 55.1492 195.81 54.7392 195.58C54.3392 195.35 53.8842 195.235 53.3742 195.235C52.8642 195.235 52.4092 195.35 52.0092 195.58C51.6092 195.81 51.2892 196.135 51.0492 196.555C50.8092 196.965 50.6892 197.455 50.6892 198.025C50.6892 198.585 50.8092 199.08 51.0492 199.51C51.2892 199.93 51.6092 200.255 52.0092 200.485C52.4092 200.715 52.8642 200.83 53.3742 200.83ZM64.3999 202V199.21L64.6249 199.48H62.0899C61.0299 199.48 60.1999 199.255 59.5999 198.805C59.0099 198.355 58.7149 197.7 58.7149 196.84C58.7149 195.92 59.0299 195.225 59.6599 194.755C60.2999 194.285 61.1499 194.05 62.2099 194.05H65.6899V202H64.3999ZM58.6399 202L60.7999 198.955H62.2849L60.1849 202H58.6399ZM64.3999 198.76V194.905L64.6249 195.31H62.2549C61.5949 195.31 61.0849 195.435 60.7249 195.685C60.3649 195.925 60.1849 196.325 60.1849 196.885C60.1849 197.925 60.8549 198.445 62.1949 198.445H64.6249L64.3999 198.76ZM68.4995 202V194.05H69.9395V197.425H74.4695V194.05H75.9095V202H74.4695V198.67H69.9395V202H68.4995ZM78.7095 202V194.05H80.1495V199.84L85.0245 194.05H86.3295V202H84.8895V196.21L80.0295 202H78.7095ZM94.2095 202V199.21L94.4345 199.48H91.8995C90.8395 199.48 90.0095 199.255 89.4095 198.805C88.8195 198.355 88.5245 197.7 88.5245 196.84C88.5245 195.92 88.8395 195.225 89.4695 194.755C90.1095 194.285 90.9595 194.05 92.0195 194.05H95.4995V202H94.2095ZM88.4495 202L90.6095 198.955H92.0945L89.9945 202H88.4495ZM94.2095 198.76V194.905L94.4345 195.31H92.0645C91.4045 195.31 90.8945 195.435 90.5345 195.685C90.1745 195.925 89.9945 196.325 89.9945 196.885C89.9945 197.925 90.6645 198.445 92.0045 198.445H94.4345L94.2095 198.76ZM102.337 202V194.05H109.702V202H108.262V194.95L108.607 195.31H103.432L103.777 194.95V202H102.337ZM115.894 202.09C115.094 202.09 114.384 201.915 113.764 201.565C113.144 201.215 112.654 200.735 112.294 200.125C111.934 199.505 111.754 198.805 111.754 198.025C111.754 197.235 111.934 196.535 112.294 195.925C112.654 195.315 113.144 194.84 113.764 194.5C114.384 194.15 115.094 193.975 115.894 193.975C116.684 193.975 117.389 194.15 118.009 194.5C118.639 194.84 119.129 195.315 119.479 195.925C119.839 196.525 120.019 197.225 120.019 198.025C120.019 198.815 119.839 199.515 119.479 200.125C119.129 200.735 118.639 201.215 118.009 201.565C117.389 201.915 116.684 202.09 115.894 202.09ZM115.894 200.83C116.404 200.83 116.859 200.715 117.259 200.485C117.669 200.255 117.989 199.93 118.219 199.51C118.449 199.08 118.564 198.585 118.564 198.025C118.564 197.455 118.449 196.965 118.219 196.555C117.989 196.135 117.669 195.81 117.259 195.58C116.859 195.35 116.404 195.235 115.894 195.235C115.384 195.235 114.929 195.35 114.529 195.58C114.129 195.81 113.809 196.135 113.569 196.555C113.329 196.965 113.209 197.455 113.209 198.025C113.209 198.585 113.329 199.08 113.569 199.51C113.809 199.93 114.129 200.255 114.529 200.485C114.929 200.715 115.384 200.83 115.894 200.83ZM126.313 202.09C125.653 202.09 125.048 201.94 124.498 201.64C123.958 201.33 123.523 200.875 123.193 200.275C122.873 199.675 122.713 198.925 122.713 198.025C122.713 197.125 122.868 196.375 123.178 195.775C123.498 195.175 123.928 194.725 124.468 194.425C125.018 194.125 125.633 193.975 126.313 193.975C127.093 193.975 127.783 194.145 128.383 194.485C128.983 194.825 129.458 195.3 129.808 195.91C130.158 196.51 130.333 197.215 130.333 198.025C130.333 198.835 130.158 199.545 129.808 200.155C129.458 200.765 128.983 201.24 128.383 201.58C127.783 201.92 127.093 202.09 126.313 202.09ZM122.098 204.91V194.05H123.478V196.195L123.388 198.04L123.538 199.885V204.91H122.098ZM126.193 200.83C126.703 200.83 127.158 200.715 127.558 200.485C127.968 200.255 128.288 199.93 128.518 199.51C128.758 199.08 128.878 198.585 128.878 198.025C128.878 197.455 128.758 196.965 128.518 196.555C128.288 196.135 127.968 195.81 127.558 195.58C127.158 195.35 126.703 195.235 126.193 195.235C125.693 195.235 125.238 195.35 124.828 195.58C124.428 195.81 124.108 196.135 123.868 196.555C123.638 196.965 123.523 197.455 123.523 198.025C123.523 198.585 123.638 199.08 123.868 199.51C124.108 199.93 124.428 200.255 124.828 200.485C125.238 200.715 125.693 200.83 126.193 200.83ZM137.705 200.74L137.375 201.115V194.05H138.815V201.115L138.455 200.74H142.655L142.31 201.115V194.05H143.75V202H132.425V194.05H133.865V201.115L133.52 200.74H137.705ZM146.546 202V194.05H147.986V197.425H152.516V194.05H153.956V202H152.516V198.67H147.986V202H146.546ZM160.296 202.09C159.446 202.09 158.696 201.915 158.046 201.565C157.406 201.215 156.906 200.735 156.546 200.125C156.196 199.515 156.021 198.815 156.021 198.025C156.021 197.235 156.191 196.535 156.531 195.925C156.881 195.315 157.356 194.84 157.956 194.5C158.566 194.15 159.251 193.975 160.011 193.975C160.781 193.975 161.461 194.145 162.051 194.485C162.641 194.825 163.101 195.305 163.431 195.925C163.771 196.535 163.941 197.25 163.941 198.07C163.941 198.13 163.936 198.2 163.926 198.28C163.926 198.36 163.921 198.435 163.911 198.505H157.146V197.47H163.161L162.576 197.83C162.586 197.32 162.481 196.865 162.261 196.465C162.041 196.065 161.736 195.755 161.346 195.535C160.966 195.305 160.521 195.19 160.011 195.19C159.511 195.19 159.066 195.305 158.676 195.535C158.286 195.755 157.981 196.07 157.761 196.48C157.541 196.88 157.431 197.34 157.431 197.86V198.1C157.431 198.63 157.551 199.105 157.791 199.525C158.041 199.935 158.386 200.255 158.826 200.485C159.266 200.715 159.771 200.83 160.341 200.83C160.811 200.83 161.236 200.75 161.616 200.59C162.006 200.43 162.346 200.19 162.636 199.87L163.431 200.8C163.071 201.22 162.621 201.54 162.081 201.76C161.551 201.98 160.956 202.09 160.296 202.09ZM166.175 202V194.05H169.865C170.795 194.05 171.525 194.23 172.055 194.59C172.595 194.94 172.865 195.44 172.865 196.09C172.865 196.74 172.61 197.245 172.1 197.605C171.6 197.955 170.935 198.13 170.105 198.13L170.33 197.74C171.28 197.74 171.985 197.915 172.445 198.265C172.905 198.615 173.135 199.13 173.135 199.81C173.135 200.5 172.875 201.04 172.355 201.43C171.845 201.81 171.06 202 170 202H166.175ZM167.585 200.89H169.895C170.495 200.89 170.945 200.8 171.245 200.62C171.545 200.43 171.695 200.13 171.695 199.72C171.695 199.3 171.555 198.995 171.275 198.805C171.005 198.605 170.575 198.505 169.985 198.505H167.585V200.89ZM167.585 197.47H169.745C170.295 197.47 170.71 197.37 170.99 197.17C171.28 196.96 171.425 196.67 171.425 196.3C171.425 195.92 171.28 195.635 170.99 195.445C170.71 195.255 170.295 195.16 169.745 195.16H167.585V197.47ZM178.794 202.09C177.994 202.09 177.284 201.915 176.664 201.565C176.044 201.215 175.554 200.735 175.194 200.125C174.834 199.505 174.654 198.805 174.654 198.025C174.654 197.235 174.834 196.535 175.194 195.925C175.554 195.315 176.044 194.84 176.664 194.5C177.284 194.15 177.994 193.975 178.794 193.975C179.584 193.975 180.289 194.15 180.909 194.5C181.539 194.84 182.029 195.315 182.379 195.925C182.739 196.525 182.919 197.225 182.919 198.025C182.919 198.815 182.739 199.515 182.379 200.125C182.029 200.735 181.539 201.215 180.909 201.565C180.289 201.915 179.584 202.09 178.794 202.09ZM178.794 200.83C179.304 200.83 179.759 200.715 180.159 200.485C180.569 200.255 180.889 199.93 181.119 199.51C181.349 199.08 181.464 198.585 181.464 198.025C181.464 197.455 181.349 196.965 181.119 196.555C180.889 196.135 180.569 195.81 180.159 195.58C179.759 195.35 179.304 195.235 178.794 195.235C178.284 195.235 177.829 195.35 177.429 195.58C177.029 195.81 176.709 196.135 176.469 196.555C176.229 196.965 176.109 197.455 176.109 198.025C176.109 198.585 176.229 199.08 176.469 199.51C176.709 199.93 177.029 200.255 177.429 200.485C177.829 200.715 178.284 200.83 178.794 200.83ZM184.999 202V194.05H186.439V199.84L191.314 194.05H192.619V202H191.179V196.21L186.319 202H184.999ZM188.719 193.015C187.989 193.015 187.414 192.84 186.994 192.49C186.584 192.13 186.374 191.615 186.364 190.945H187.339C187.349 191.325 187.474 191.625 187.714 191.845C187.964 192.065 188.294 192.175 188.704 192.175C189.114 192.175 189.444 192.065 189.694 191.845C189.944 191.625 190.074 191.325 190.084 190.945H191.089C191.079 191.615 190.864 192.13 190.444 192.49C190.024 192.84 189.449 193.015 188.719 193.015ZM199.442 202V194.05H205.292V195.31H200.537L200.882 194.98V202H199.442ZM210.981 202.09C210.321 202.09 209.716 201.94 209.166 201.64C208.626 201.33 208.191 200.875 207.861 200.275C207.541 199.675 207.381 198.925 207.381 198.025C207.381 197.125 207.536 196.375 207.846 195.775C208.166 195.175 208.596 194.725 209.136 194.425C209.686 194.125 210.301 193.975 210.981 193.975C211.761 193.975 212.451 194.145 213.051 194.485C213.651 194.825 214.126 195.3 214.476 195.91C214.826 196.51 215.001 197.215 215.001 198.025C215.001 198.835 214.826 199.545 214.476 200.155C214.126 200.765 213.651 201.24 213.051 201.58C212.451 201.92 211.761 202.09 210.981 202.09ZM206.766 204.91V194.05H208.146V196.195L208.056 198.04L208.206 199.885V204.91H206.766ZM210.861 200.83C211.371 200.83 211.826 200.715 212.226 200.485C212.636 200.255 212.956 199.93 213.186 199.51C213.426 199.08 213.546 198.585 213.546 198.025C213.546 197.455 213.426 196.965 213.186 196.555C212.956 196.135 212.636 195.81 212.226 195.58C211.826 195.35 211.371 195.235 210.861 195.235C210.361 195.235 209.906 195.35 209.496 195.58C209.096 195.81 208.776 196.135 208.536 196.555C208.306 196.965 208.191 197.455 208.191 198.025C208.191 198.585 208.306 199.08 208.536 199.51C208.776 199.93 209.096 200.255 209.496 200.485C209.906 200.715 210.361 200.83 210.861 200.83ZM217.279 205C216.899 205 216.529 204.935 216.169 204.805C215.809 204.685 215.499 204.505 215.239 204.265L215.854 203.185C216.054 203.375 216.274 203.52 216.514 203.62C216.754 203.72 217.009 203.77 217.279 203.77C217.629 203.77 217.919 203.68 218.149 203.5C218.379 203.32 218.594 203 218.794 202.54L219.289 201.445L219.439 201.265L222.559 194.05H223.969L220.114 202.795C219.884 203.355 219.624 203.795 219.334 204.115C219.054 204.435 218.744 204.66 218.404 204.79C218.064 204.93 217.689 205 217.279 205ZM219.169 202.255L215.539 194.05H217.039L220.129 201.13L219.169 202.255ZM225.443 202V194.05H232.808V202H231.368V194.95L231.713 195.31H226.538L226.883 194.95V202H225.443ZM235.594 202V194.05H242.959V202H241.519V194.95L241.864 195.31H236.689L237.034 194.95V202H235.594ZM253.606 202V194.05H255.046V202H253.606ZM249.331 196.75C250.341 196.76 251.106 196.99 251.626 197.44C252.156 197.89 252.421 198.525 252.421 199.345C252.421 200.205 252.131 200.87 251.551 201.34C250.981 201.8 250.161 202.025 249.091 202.015L245.746 202V194.05H247.186V196.735L249.331 196.75ZM248.986 200.92C249.626 200.93 250.116 200.8 250.456 200.53C250.796 200.26 250.966 199.86 250.966 199.33C250.966 198.81 250.796 198.43 250.456 198.19C250.126 197.95 249.636 197.825 248.986 197.815L247.186 197.785V200.905L248.986 200.92ZM17.625 216.505V215.44H22.08V216.505H17.625ZM18.69 211.96C19.51 211.96 20.245 212.135 20.895 212.485C21.545 212.835 22.055 213.315 22.425 213.925C22.795 214.535 22.98 215.235 22.98 216.025C22.98 216.805 22.795 217.505 22.425 218.125C22.055 218.745 21.545 219.23 20.895 219.58C20.245 219.93 19.51 220.105 18.69 220.105C18.01 220.105 17.38 219.995 16.8 219.775C16.23 219.555 15.75 219.235 15.36 218.815L16.2 217.975C16.53 218.295 16.895 218.535 17.295 218.695C17.705 218.845 18.15 218.92 18.63 218.92C19.21 218.92 19.725 218.8 20.175 218.56C20.625 218.31 20.98 217.965 21.24 217.525C21.51 217.085 21.645 216.585 21.645 216.025C21.645 215.465 21.51 214.97 21.24 214.54C20.98 214.1 20.625 213.755 20.175 213.505C19.725 213.255 19.21 213.13 18.63 213.13C18.15 213.13 17.705 213.21 17.295 213.37C16.895 213.53 16.53 213.77 16.2 214.09L15.36 213.265C15.75 212.835 16.23 212.51 16.8 212.29C17.38 212.07 18.01 211.96 18.69 211.96ZM25.0229 220V212.05H26.4629V215.425H30.9929V212.05H32.4329V220H30.9929V216.67H26.4629V220H25.0229ZM40.6629 219.325V213.31H37.2129L37.1379 214.84C37.1179 215.34 37.0829 215.825 37.0329 216.295C36.9929 216.755 36.9229 217.18 36.8229 217.57C36.7329 217.96 36.5979 218.28 36.4179 218.53C36.2379 218.78 35.9979 218.935 35.6979 218.995L34.2729 218.74C34.5829 218.75 34.8329 218.65 35.0229 218.44C35.2129 218.22 35.3579 217.92 35.4579 217.54C35.5679 217.16 35.6479 216.73 35.6979 216.25C35.7479 215.76 35.7879 215.255 35.8179 214.735L35.9379 212.05H42.1029V219.325H40.6629ZM33.9579 221.845V218.74H43.3179V221.845H41.9679V220H35.3229V221.845H33.9579ZM48.5988 220.09C47.7988 220.09 47.0888 219.915 46.4688 219.565C45.8488 219.215 45.3588 218.735 44.9988 218.125C44.6388 217.505 44.4588 216.805 44.4588 216.025C44.4588 215.235 44.6388 214.535 44.9988 213.925C45.3588 213.315 45.8488 212.84 46.4688 212.5C47.0888 212.15 47.7988 211.975 48.5988 211.975C49.3888 211.975 50.0938 212.15 50.7138 212.5C51.3438 212.84 51.8338 213.315 52.1838 213.925C52.5438 214.525 52.7238 215.225 52.7238 216.025C52.7238 216.815 52.5438 217.515 52.1838 218.125C51.8338 218.735 51.3438 219.215 50.7138 219.565C50.0938 219.915 49.3888 220.09 48.5988 220.09ZM48.5988 218.83C49.1088 218.83 49.5638 218.715 49.9638 218.485C50.3738 218.255 50.6938 217.93 50.9238 217.51C51.1538 217.08 51.2688 216.585 51.2688 216.025C51.2688 215.455 51.1538 214.965 50.9238 214.555C50.6938 214.135 50.3738 213.81 49.9638 213.58C49.5638 213.35 49.1088 213.235 48.5988 213.235C48.0888 213.235 47.6338 213.35 47.2338 213.58C46.8338 213.81 46.5138 214.135 46.2738 214.555C46.0338 214.965 45.9138 215.455 45.9138 216.025C45.9138 216.585 46.0338 217.08 46.2738 217.51C46.5138 217.93 46.8338 218.255 47.2338 218.485C47.6338 218.715 48.0888 218.83 48.5988 218.83ZM58.2682 220.09C57.4582 220.09 56.7332 219.915 56.0932 219.565C55.4632 219.215 54.9682 218.735 54.6082 218.125C54.2482 217.515 54.0682 216.815 54.0682 216.025C54.0682 215.235 54.2482 214.535 54.6082 213.925C54.9682 213.315 55.4632 212.84 56.0932 212.5C56.7332 212.15 57.4582 211.975 58.2682 211.975C58.9882 211.975 59.6282 212.12 60.1882 212.41C60.7582 212.69 61.1982 213.11 61.5082 213.67L60.4132 214.375C60.1532 213.985 59.8332 213.7 59.4532 213.52C59.0832 213.33 58.6832 213.235 58.2532 213.235C57.7332 213.235 57.2682 213.35 56.8582 213.58C56.4482 213.81 56.1232 214.135 55.8832 214.555C55.6432 214.965 55.5232 215.455 55.5232 216.025C55.5232 216.595 55.6432 217.09 55.8832 217.51C56.1232 217.93 56.4482 218.255 56.8582 218.485C57.2682 218.715 57.7332 218.83 58.2532 218.83C58.6832 218.83 59.0832 218.74 59.4532 218.56C59.8332 218.37 60.1532 218.08 60.4132 217.69L61.5082 218.38C61.1982 218.93 60.7582 219.355 60.1882 219.655C59.6282 219.945 58.9882 220.09 58.2682 220.09ZM69.1325 220L66.0575 216.13L67.2425 215.41L70.8275 220H69.1325ZM63.3725 220V212.05H64.8125V220H63.3725ZM64.3775 216.64V215.41H67.0025V216.64H64.3775ZM67.3625 216.19L66.0275 216.01L69.0725 212.05H70.6175L67.3625 216.19ZM75.4787 220.09C74.6787 220.09 73.9687 219.915 73.3487 219.565C72.7287 219.215 72.2387 218.735 71.8787 218.125C71.5187 217.505 71.3387 216.805 71.3387 216.025C71.3387 215.235 71.5187 214.535 71.8787 213.925C72.2387 213.315 72.7287 212.84 73.3487 212.5C73.9687 212.15 74.6787 211.975 75.4787 211.975C76.2687 211.975 76.9737 212.15 77.5937 212.5C78.2237 212.84 78.7137 213.315 79.0637 213.925C79.4237 214.525 79.6037 215.225 79.6037 216.025C79.6037 216.815 79.4237 217.515 79.0637 218.125C78.7137 218.735 78.2237 219.215 77.5937 219.565C76.9737 219.915 76.2687 220.09 75.4787 220.09ZM75.4787 218.83C75.9887 218.83 76.4437 218.715 76.8437 218.485C77.2537 218.255 77.5737 217.93 77.8037 217.51C78.0337 217.08 78.1487 216.585 78.1487 216.025C78.1487 215.455 78.0337 214.965 77.8037 214.555C77.5737 214.135 77.2537 213.81 76.8437 213.58C76.4437 213.35 75.9887 213.235 75.4787 213.235C74.9687 213.235 74.5137 213.35 74.1137 213.58C73.7137 213.81 73.3937 214.135 73.1537 214.555C72.9137 214.965 72.7937 215.455 72.7937 216.025C72.7937 216.585 72.9137 217.08 73.1537 217.51C73.3937 217.93 73.7137 218.255 74.1137 218.485C74.5137 218.715 74.9687 218.83 75.4787 218.83ZM81.6831 220V212.05H89.0481V220H87.6081V212.95L87.9531 213.31H82.7781L83.1231 212.95V220H81.6831ZM95.2395 220.09C94.4395 220.09 93.7295 219.915 93.1095 219.565C92.4895 219.215 91.9995 218.735 91.6395 218.125C91.2795 217.505 91.0995 216.805 91.0995 216.025C91.0995 215.235 91.2795 214.535 91.6395 213.925C91.9995 213.315 92.4895 212.84 93.1095 212.5C93.7295 212.15 94.4395 211.975 95.2395 211.975C96.0295 211.975 96.7345 212.15 97.3545 212.5C97.9845 212.84 98.4745 213.315 98.8245 213.925C99.1845 214.525 99.3645 215.225 99.3645 216.025C99.3645 216.815 99.1845 217.515 98.8245 218.125C98.4745 218.735 97.9845 219.215 97.3545 219.565C96.7345 219.915 96.0295 220.09 95.2395 220.09ZM95.2395 218.83C95.7495 218.83 96.2045 218.715 96.6045 218.485C97.0145 218.255 97.3345 217.93 97.5645 217.51C97.7945 217.08 97.9095 216.585 97.9095 216.025C97.9095 215.455 97.7945 214.965 97.5645 214.555C97.3345 214.135 97.0145 213.81 96.6045 213.58C96.2045 213.35 95.7495 213.235 95.2395 213.235C94.7295 213.235 94.2745 213.35 93.8745 213.58C93.4745 213.81 93.1545 214.135 92.9145 214.555C92.6745 214.965 92.5545 215.455 92.5545 216.025C92.5545 216.585 92.6745 217.08 92.9145 217.51C93.1545 217.93 93.4745 218.255 93.8745 218.485C94.2745 218.715 94.7295 218.83 95.2395 218.83ZM101.444 220V212.05H102.929L106.349 217.93H105.749L109.259 212.05H110.609V220H109.304V213.67L109.544 213.805L106.334 219.1H105.704L102.479 213.7L102.764 213.64V220H101.444ZM120.905 220.09C120.095 220.09 119.37 219.915 118.73 219.565C118.1 219.215 117.605 218.735 117.245 218.125C116.885 217.515 116.705 216.815 116.705 216.025C116.705 215.235 116.885 214.535 117.245 213.925C117.605 213.315 118.1 212.84 118.73 212.5C119.37 212.15 120.095 211.975 120.905 211.975C121.625 211.975 122.265 212.12 122.825 212.41C123.395 212.69 123.835 213.11 124.145 213.67L123.05 214.375C122.79 213.985 122.47 213.7 122.09 213.52C121.72 213.33 121.32 213.235 120.89 213.235C120.37 213.235 119.905 213.35 119.495 213.58C119.085 213.81 118.76 214.135 118.52 214.555C118.28 214.965 118.16 215.455 118.16 216.025C118.16 216.595 118.28 217.09 118.52 217.51C118.76 217.93 119.085 218.255 119.495 218.485C119.905 218.715 120.37 218.83 120.89 218.83C121.32 218.83 121.72 218.74 122.09 218.56C122.47 218.37 122.79 218.08 123.05 217.69L124.145 218.38C123.835 218.93 123.395 219.355 122.825 219.655C122.265 219.945 121.625 220.09 120.905 220.09ZM134.778 220.12C134.768 220.12 134.733 220.12 134.673 220.12C134.623 220.12 134.573 220.12 134.523 220.12C134.473 220.12 134.443 220.12 134.433 220.12C132.803 220.1 131.538 219.74 130.638 219.04C129.738 218.33 129.288 217.32 129.288 216.01C129.288 214.71 129.738 213.715 130.638 213.025C131.548 212.325 132.828 211.97 134.478 211.96C134.498 211.96 134.528 211.96 134.568 211.96C134.618 211.96 134.663 211.96 134.703 211.96C134.753 211.96 134.783 211.96 134.793 211.96C136.463 211.96 137.758 212.31 138.678 213.01C139.608 213.71 140.073 214.71 140.073 216.01C140.073 217.33 139.608 218.345 138.678 219.055C137.748 219.765 136.448 220.12 134.778 220.12ZM134.748 218.86C135.618 218.86 136.338 218.75 136.908 218.53C137.488 218.31 137.923 217.99 138.213 217.57C138.503 217.15 138.648 216.63 138.648 216.01C138.648 215.4 138.503 214.89 138.213 214.48C137.923 214.07 137.488 213.76 136.908 213.55C136.338 213.34 135.618 213.235 134.748 213.235C134.728 213.235 134.688 213.235 134.628 213.235C134.568 213.235 134.533 213.235 134.523 213.235C133.673 213.235 132.963 213.345 132.393 213.565C131.833 213.775 131.413 214.085 131.133 214.495C130.853 214.905 130.713 215.41 130.713 216.01C130.713 216.62 130.853 217.135 131.133 217.555C131.423 217.975 131.848 218.295 132.408 218.515C132.978 218.735 133.683 218.85 134.523 218.86C134.543 218.86 134.578 218.86 134.628 218.86C134.688 218.86 134.728 218.86 134.748 218.86ZM133.968 222.91V208.87H135.378V222.91H133.968ZM145.513 220.09C144.713 220.09 144.003 219.915 143.383 219.565C142.763 219.215 142.273 218.735 141.913 218.125C141.553 217.505 141.373 216.805 141.373 216.025C141.373 215.235 141.553 214.535 141.913 213.925C142.273 213.315 142.763 212.84 143.383 212.5C144.003 212.15 144.713 211.975 145.513 211.975C146.303 211.975 147.008 212.15 147.628 212.5C148.258 212.84 148.748 213.315 149.098 213.925C149.458 214.525 149.638 215.225 149.638 216.025C149.638 216.815 149.458 217.515 149.098 218.125C148.748 218.735 148.258 219.215 147.628 219.565C147.008 219.915 146.303 220.09 145.513 220.09ZM145.513 218.83C146.023 218.83 146.478 218.715 146.878 218.485C147.288 218.255 147.608 217.93 147.838 217.51C148.068 217.08 148.183 216.585 148.183 216.025C148.183 215.455 148.068 214.965 147.838 214.555C147.608 214.135 147.288 213.81 146.878 213.58C146.478 213.35 146.023 213.235 145.513 213.235C145.003 213.235 144.548 213.35 144.148 213.58C143.748 213.81 143.428 214.135 143.188 214.555C142.948 214.965 142.828 215.455 142.828 216.025C142.828 216.585 142.948 217.08 143.188 217.51C143.428 217.93 143.748 218.255 144.148 218.485C144.548 218.715 145.003 218.83 145.513 218.83ZM152.999 220V212.935L153.359 213.31H150.089V212.05H157.349V213.31H154.094L154.439 212.935V220H152.999ZM161.875 220.09C161.075 220.09 160.365 219.915 159.745 219.565C159.125 219.215 158.635 218.735 158.275 218.125C157.915 217.505 157.735 216.805 157.735 216.025C157.735 215.235 157.915 214.535 158.275 213.925C158.635 213.315 159.125 212.84 159.745 212.5C160.365 212.15 161.075 211.975 161.875 211.975C162.665 211.975 163.37 212.15 163.99 212.5C164.62 212.84 165.11 213.315 165.46 213.925C165.82 214.525 166 215.225 166 216.025C166 216.815 165.82 217.515 165.46 218.125C165.11 218.735 164.62 219.215 163.99 219.565C163.37 219.915 162.665 220.09 161.875 220.09ZM161.875 218.83C162.385 218.83 162.84 218.715 163.24 218.485C163.65 218.255 163.97 217.93 164.2 217.51C164.43 217.08 164.545 216.585 164.545 216.025C164.545 215.455 164.43 214.965 164.2 214.555C163.97 214.135 163.65 213.81 163.24 213.58C162.84 213.35 162.385 213.235 161.875 213.235C161.365 213.235 160.91 213.35 160.51 213.58C160.11 213.81 159.79 214.135 159.55 214.555C159.31 214.965 159.19 215.455 159.19 216.025C159.19 216.585 159.31 217.08 159.55 217.51C159.79 217.93 160.11 218.255 160.51 218.485C160.91 218.715 161.365 218.83 161.875 218.83ZM172.108 220V212.05H173.548V217.84L178.423 212.05H179.728V220H178.288V214.21L173.428 220H172.108ZM186.551 220V212.05H190.241C191.171 212.05 191.901 212.23 192.431 212.59C192.971 212.94 193.241 213.44 193.241 214.09C193.241 214.74 192.986 215.245 192.476 215.605C191.976 215.955 191.311 216.13 190.481 216.13L190.706 215.74C191.656 215.74 192.361 215.915 192.821 216.265C193.281 216.615 193.511 217.13 193.511 217.81C193.511 218.5 193.251 219.04 192.731 219.43C192.221 219.81 191.436 220 190.376 220H186.551ZM187.961 218.89H190.271C190.871 218.89 191.321 218.8 191.621 218.62C191.921 218.43 192.071 218.13 192.071 217.72C192.071 217.3 191.931 216.995 191.651 216.805C191.381 216.605 190.951 216.505 190.361 216.505H187.961V218.89ZM187.961 215.47H190.121C190.671 215.47 191.086 215.37 191.366 215.17C191.656 214.96 191.801 214.67 191.801 214.3C191.801 213.92 191.656 213.635 191.366 213.445C191.086 213.255 190.671 213.16 190.121 213.16H187.961V215.47ZM195.765 220V212.05H197.205V217.84L202.08 212.05H203.385V220H201.945V214.21L197.085 220H195.765ZM211.61 219.325V213.31H208.16L208.085 214.84C208.065 215.34 208.03 215.825 207.98 216.295C207.94 216.755 207.87 217.18 207.77 217.57C207.68 217.96 207.545 218.28 207.365 218.53C207.185 218.78 206.945 218.935 206.645 218.995L205.22 218.74C205.53 218.75 205.78 218.65 205.97 218.44C206.16 218.22 206.305 217.92 206.405 217.54C206.515 217.16 206.595 216.73 206.645 216.25C206.695 215.76 206.735 215.255 206.765 214.735L206.885 212.05H213.05V219.325H211.61ZM204.905 221.845V218.74H214.265V221.845H212.915V220H206.27V221.845H204.905ZM219.681 220.09C218.831 220.09 218.081 219.915 217.431 219.565C216.791 219.215 216.291 218.735 215.931 218.125C215.581 217.515 215.406 216.815 215.406 216.025C215.406 215.235 215.576 214.535 215.916 213.925C216.266 213.315 216.741 212.84 217.341 212.5C217.951 212.15 218.636 211.975 219.396 211.975C220.166 211.975 220.846 212.145 221.436 212.485C222.026 212.825 222.486 213.305 222.816 213.925C223.156 214.535 223.326 215.25 223.326 216.07C223.326 216.13 223.321 216.2 223.311 216.28C223.311 216.36 223.306 216.435 223.296 216.505H216.531V215.47H222.546L221.961 215.83C221.971 215.32 221.866 214.865 221.646 214.465C221.426 214.065 221.121 213.755 220.731 213.535C220.351 213.305 219.906 213.19 219.396 213.19C218.896 213.19 218.451 213.305 218.061 213.535C217.671 213.755 217.366 214.07 217.146 214.48C216.926 214.88 216.816 215.34 216.816 215.86V216.1C216.816 216.63 216.936 217.105 217.176 217.525C217.426 217.935 217.771 218.255 218.211 218.485C218.651 218.715 219.156 218.83 219.726 218.83C220.196 218.83 220.621 218.75 221.001 218.59C221.391 218.43 221.731 218.19 222.021 217.87L222.816 218.8C222.456 219.22 222.006 219.54 221.466 219.76C220.936 219.98 220.341 220.09 219.681 220.09ZM228.965 220.09C228.165 220.09 227.455 219.915 226.835 219.565C226.215 219.215 225.725 218.735 225.365 218.125C225.005 217.505 224.825 216.805 224.825 216.025C224.825 215.235 225.005 214.535 225.365 213.925C225.725 213.315 226.215 212.84 226.835 212.5C227.455 212.15 228.165 211.975 228.965 211.975C229.755 211.975 230.46 212.15 231.08 212.5C231.71 212.84 232.2 213.315 232.55 213.925C232.91 214.525 233.09 215.225 233.09 216.025C233.09 216.815 232.91 217.515 232.55 218.125C232.2 218.735 231.71 219.215 231.08 219.565C230.46 219.915 229.755 220.09 228.965 220.09ZM228.965 218.83C229.475 218.83 229.93 218.715 230.33 218.485C230.74 218.255 231.06 217.93 231.29 217.51C231.52 217.08 231.635 216.585 231.635 216.025C231.635 215.455 231.52 214.965 231.29 214.555C231.06 214.135 230.74 213.81 230.33 213.58C229.93 213.35 229.475 213.235 228.965 213.235C228.455 213.235 228 213.35 227.6 213.58C227.2 213.81 226.88 214.135 226.64 214.555C226.4 214.965 226.28 215.455 226.28 216.025C226.28 216.585 226.4 217.08 226.64 217.51C226.88 217.93 227.2 218.255 227.6 218.485C228 218.715 228.455 218.83 228.965 218.83Z" fill="#434343"/>
</svg>
