<svg width="194" height="193" viewBox="0 0 194 193" fill="none" xmlns="http://www.w3.org/2000/svg">
<rect width="194" height="193" rx="35" fill="#00AAFF"/>
<path d="M81.4545 37C80.35 37 79.4545 37.8954 79.4545 39V42C79.4545 43.1046 80.35 44 81.4545 44H87.6818C88.7864 44 89.6818 44.8954 89.6818 46V49C89.6818 50.1046 88.7864 51 87.6818 51H80.2984C79.7589 51 79.2422 51.218 78.8657 51.6045L73.2037 57.4176C72.8399 57.791 72.6364 58.2917 72.6364 58.8131V66.5C72.6364 67.6046 71.7409 68.5 70.6364 68.5H67.8182C66.7136 68.5 65.8182 67.6046 65.8182 66.5V60C65.8182 58.8954 64.9228 58 63.8182 58H61C59.8954 58 59 58.8954 59 60V84C59 85.1046 59.8954 86 61 86H63.8182C64.9227 86 65.8182 85.1046 65.8182 84V77.5C65.8182 76.3954 66.7136 75.5 67.8182 75.5H70.6364C71.7409 75.5 72.6364 76.3954 72.6364 77.5V84C72.6364 85.1046 73.5318 86 74.6364 86H82.0198C82.5593 86 83.076 86.218 83.4524 86.6045L89.093 92.3955C89.4695 92.782 89.9861 93 90.5257 93H114.955C116.059 93 116.955 92.1046 116.955 91V81C116.955 79.8954 117.85 79 118.955 79H121.773C122.877 79 123.773 79.8954 123.773 81V87.5C123.773 88.6046 124.668 89.5 125.773 89.5H132C133.105 89.5 134 88.6046 134 87.5V56.5C134 55.3954 133.105 54.5 132 54.5H125.773C124.668 54.5 123.773 55.3954 123.773 56.5V63C123.773 64.1046 122.877 65 121.773 65H118.955C117.85 65 116.955 64.1046 116.955 63V53C116.955 51.8954 116.059 51 114.955 51H98.5C97.3954 51 96.5 50.1046 96.5 49V46C96.5 44.8954 97.3954 44 98.5 44H104.727C105.832 44 106.727 43.1046 106.727 42V39C106.727 37.8954 105.832 37 104.727 37H81.4545Z" fill="white"/>
<path d="M22.6683 127.784L23.2283 126.6C23.7189 126.984 24.2576 127.272 24.8443 127.464C25.4416 127.656 26.0336 127.757 26.6203 127.768C27.2069 127.768 27.7456 127.688 28.2363 127.528C28.7376 127.368 29.1376 127.128 29.4363 126.808C29.7349 126.488 29.8843 126.093 29.8843 125.624C29.8843 125.048 29.6496 124.611 29.1803 124.312C28.7216 124.013 28.0816 123.864 27.2603 123.864H24.7643V122.568H27.1483C27.8629 122.568 28.4176 122.424 28.8123 122.136C29.2176 121.837 29.4203 121.427 29.4203 120.904C29.4203 120.509 29.2976 120.179 29.0523 119.912C28.8176 119.635 28.4923 119.427 28.0763 119.288C27.6709 119.149 27.2069 119.08 26.6843 119.08C26.1723 119.069 25.6443 119.139 25.1003 119.288C24.5563 119.427 24.0336 119.651 23.5323 119.96L23.0203 118.648C23.7029 118.264 24.4123 117.997 25.1483 117.848C25.8949 117.688 26.6149 117.64 27.3083 117.704C28.0016 117.757 28.6256 117.917 29.1803 118.184C29.7456 118.44 30.1936 118.781 30.5243 119.208C30.8656 119.624 31.0363 120.125 31.0363 120.712C31.0363 121.245 30.8976 121.72 30.6203 122.136C30.3429 122.541 29.9589 122.856 29.4683 123.08C28.9776 123.293 28.4069 123.4 27.7563 123.4L27.8203 122.968C28.5669 122.968 29.2123 123.091 29.7563 123.336C30.3109 123.571 30.7376 123.907 31.0363 124.344C31.3456 124.781 31.5003 125.288 31.5003 125.864C31.5003 126.408 31.3616 126.893 31.0843 127.32C30.8069 127.736 30.4283 128.088 29.9483 128.376C29.4789 128.653 28.9403 128.856 28.3323 128.984C27.7349 129.112 27.1056 129.155 26.4443 129.112C25.7829 129.069 25.1269 128.941 24.4763 128.728C23.8363 128.515 23.2336 128.2 22.6683 127.784ZM39.1099 129V127.208L39.0299 126.872V123.816C39.0299 123.165 38.8379 122.664 38.4539 122.312C38.0805 121.949 37.5152 121.768 36.7579 121.768C36.2565 121.768 35.7659 121.853 35.2859 122.024C34.8059 122.184 34.4005 122.403 34.0699 122.68L33.4299 121.528C33.8672 121.176 34.3899 120.909 34.9979 120.728C35.6165 120.536 36.2619 120.44 36.9339 120.44C38.0965 120.44 38.9925 120.723 39.6219 121.288C40.2512 121.853 40.5659 122.717 40.5659 123.88V129H39.1099ZM36.3259 129.096C35.6965 129.096 35.1419 128.989 34.6619 128.776C34.1925 128.563 33.8299 128.269 33.5739 127.896C33.3179 127.512 33.1899 127.08 33.1899 126.6C33.1899 126.141 33.2965 125.725 33.5099 125.352C33.7339 124.979 34.0912 124.68 34.5819 124.456C35.0832 124.232 35.7552 124.12 36.5979 124.12H39.2859V125.224H36.6619C35.8939 125.224 35.3765 125.352 35.1099 125.608C34.8432 125.864 34.7099 126.173 34.7099 126.536C34.7099 126.952 34.8752 127.288 35.2059 127.544C35.5365 127.789 35.9952 127.912 36.5819 127.912C37.1579 127.912 37.6592 127.784 38.0859 127.528C38.5232 127.272 38.8379 126.899 39.0299 126.408L39.3339 127.464C39.1312 127.965 38.7739 128.365 38.2619 128.664C37.7499 128.952 37.1045 129.096 36.3259 129.096ZM43.3318 129V120.52H51.1878V129H49.6518V121.48L50.0198 121.864H44.4998L44.8678 121.48V129H43.3318ZM54.5919 132.2C54.1865 132.2 53.7919 132.131 53.4079 131.992C53.0239 131.864 52.6932 131.672 52.4159 131.416L53.0719 130.264C53.2852 130.467 53.5199 130.621 53.7759 130.728C54.0319 130.835 54.3039 130.888 54.5919 130.888C54.9652 130.888 55.2745 130.792 55.5199 130.6C55.7652 130.408 55.9945 130.067 56.2079 129.576L56.7359 128.408L56.8959 128.216L60.2239 120.52H61.7279L57.6159 129.848C57.3705 130.445 57.0932 130.915 56.7839 131.256C56.4852 131.597 56.1545 131.837 55.7919 131.976C55.4292 132.125 55.0292 132.2 54.5919 132.2ZM56.6079 129.272L52.7359 120.52H54.3359L57.6319 128.072L56.6079 129.272ZM66.7621 129.096C65.8981 129.096 65.1248 128.909 64.4421 128.536C63.7701 128.163 63.2421 127.651 62.8581 127C62.4741 126.349 62.2821 125.603 62.2821 124.76C62.2821 123.917 62.4741 123.171 62.8581 122.52C63.2421 121.869 63.7701 121.363 64.4421 121C65.1248 120.627 65.8981 120.44 66.7621 120.44C67.5301 120.44 68.2128 120.595 68.8101 120.904C69.4181 121.203 69.8875 121.651 70.2181 122.248L69.0501 123C68.7728 122.584 68.4315 122.28 68.0261 122.088C67.6315 121.885 67.2048 121.784 66.7461 121.784C66.1915 121.784 65.6955 121.907 65.2581 122.152C64.8208 122.397 64.4741 122.744 64.2181 123.192C63.9621 123.629 63.8341 124.152 63.8341 124.76C63.8341 125.368 63.9621 125.896 64.2181 126.344C64.4741 126.792 64.8208 127.139 65.2581 127.384C65.6955 127.629 66.1915 127.752 66.7461 127.752C67.2048 127.752 67.6315 127.656 68.0261 127.464C68.4315 127.261 68.7728 126.952 69.0501 126.536L70.2181 127.272C69.8875 127.859 69.4181 128.312 68.8101 128.632C68.2128 128.941 67.5301 129.096 66.7621 129.096ZM78.3508 129L75.0708 124.872L76.3348 124.104L80.1588 129H78.3508ZM72.2068 129V120.52H73.7428V129H72.2068ZM73.2788 125.416V124.104H76.0788V125.416H73.2788ZM76.4628 124.936L75.0388 124.744L78.2868 120.52H79.9348L76.4628 124.936ZM91.8581 128.28V121.864H88.1781L88.0981 123.496C88.0768 124.029 88.0395 124.547 87.9861 125.048C87.9435 125.539 87.8688 125.992 87.7621 126.408C87.6661 126.824 87.5221 127.165 87.3301 127.432C87.1381 127.699 86.8821 127.864 86.5621 127.928L85.0421 127.656C85.3728 127.667 85.6395 127.56 85.8421 127.336C86.0448 127.101 86.1995 126.781 86.3061 126.376C86.4235 125.971 86.5088 125.512 86.5621 125C86.6155 124.477 86.6581 123.939 86.6901 123.384L86.8181 120.52H93.3941V128.28H91.8581ZM84.7061 130.968V127.656H94.6901V130.968H93.2501V129H86.1621V130.968H84.7061ZM96.6911 129V120.52H100.627C101.619 120.52 102.398 120.712 102.963 121.096C103.539 121.469 103.827 122.003 103.827 122.696C103.827 123.389 103.555 123.928 103.011 124.312C102.478 124.685 101.768 124.872 100.883 124.872L101.123 124.456C102.136 124.456 102.888 124.643 103.379 125.016C103.87 125.389 104.115 125.939 104.115 126.664C104.115 127.4 103.838 127.976 103.283 128.392C102.739 128.797 101.902 129 100.771 129H96.6911ZM98.1951 127.816H100.659C101.299 127.816 101.779 127.72 102.099 127.528C102.419 127.325 102.579 127.005 102.579 126.568C102.579 126.12 102.43 125.795 102.131 125.592C101.843 125.379 101.384 125.272 100.755 125.272H98.1951V127.816ZM98.1951 124.168H100.499C101.086 124.168 101.528 124.061 101.827 123.848C102.136 123.624 102.291 123.315 102.291 122.92C102.291 122.515 102.136 122.211 101.827 122.008C101.528 121.805 101.086 121.704 100.499 121.704H98.1951V124.168ZM106.519 129V120.52H108.055V126.696L113.255 120.52H114.647V129H113.111V122.824L107.927 129H106.519ZM117.629 129V120.52H123.869V121.864H118.797L119.165 121.512V129H117.629ZM130.641 129V127.208L130.561 126.872V123.816C130.561 123.165 130.369 122.664 129.985 122.312C129.612 121.949 129.046 121.768 128.289 121.768C127.788 121.768 127.297 121.853 126.817 122.024C126.337 122.184 125.932 122.403 125.601 122.68L124.961 121.528C125.398 121.176 125.921 120.909 126.529 120.728C127.148 120.536 127.793 120.44 128.465 120.44C129.628 120.44 130.524 120.723 131.153 121.288C131.782 121.853 132.097 122.717 132.097 123.88V129H130.641ZM127.857 129.096C127.228 129.096 126.673 128.989 126.193 128.776C125.724 128.563 125.361 128.269 125.105 127.896C124.849 127.512 124.721 127.08 124.721 126.6C124.721 126.141 124.828 125.725 125.041 125.352C125.265 124.979 125.622 124.68 126.113 124.456C126.614 124.232 127.286 124.12 128.129 124.12H130.817V125.224H128.193C127.425 125.224 126.908 125.352 126.641 125.608C126.374 125.864 126.241 126.173 126.241 126.536C126.241 126.952 126.406 127.288 126.737 127.544C127.068 127.789 127.526 127.912 128.113 127.912C128.689 127.912 129.19 127.784 129.617 127.528C130.054 127.272 130.369 126.899 130.561 126.408L130.865 127.464C130.662 127.965 130.305 128.365 129.793 128.664C129.281 128.952 128.636 129.096 127.857 129.096ZM136.543 129V121.464L136.927 121.864H133.439V120.52H141.183V121.864H137.711L138.079 121.464V129H136.543ZM146.155 129.096C145.248 129.096 144.448 128.909 143.755 128.536C143.072 128.163 142.539 127.651 142.155 127C141.781 126.349 141.595 125.603 141.595 124.76C141.595 123.917 141.776 123.171 142.139 122.52C142.512 121.869 143.019 121.363 143.659 121C144.309 120.627 145.04 120.44 145.851 120.44C146.672 120.44 147.397 120.621 148.027 120.984C148.656 121.347 149.147 121.859 149.499 122.52C149.861 123.171 150.043 123.933 150.043 124.808C150.043 124.872 150.037 124.947 150.027 125.032C150.027 125.117 150.021 125.197 150.011 125.272H142.795V124.168H149.211L148.587 124.552C148.597 124.008 148.485 123.523 148.251 123.096C148.016 122.669 147.691 122.339 147.275 122.104C146.869 121.859 146.395 121.736 145.851 121.736C145.317 121.736 144.843 121.859 144.427 122.104C144.011 122.339 143.685 122.675 143.451 123.112C143.216 123.539 143.099 124.029 143.099 124.584V124.84C143.099 125.405 143.227 125.912 143.483 126.36C143.749 126.797 144.117 127.139 144.587 127.384C145.056 127.629 145.595 127.752 146.203 127.752C146.704 127.752 147.157 127.667 147.563 127.496C147.979 127.325 148.341 127.069 148.651 126.728L149.499 127.72C149.115 128.168 148.635 128.509 148.059 128.744C147.493 128.979 146.859 129.096 146.155 129.096ZM150.877 128.984L150.973 127.688C151.048 127.699 151.117 127.709 151.181 127.72C151.245 127.731 151.304 127.736 151.357 127.736C151.698 127.736 151.965 127.619 152.157 127.384C152.36 127.149 152.509 126.84 152.605 126.456C152.701 126.061 152.77 125.619 152.813 125.128C152.856 124.637 152.888 124.147 152.909 123.656L153.053 120.52H159.565V129H158.029V121.416L158.397 121.864H154.045L154.397 121.4L154.285 123.752C154.253 124.499 154.194 125.197 154.109 125.848C154.024 126.499 153.89 127.069 153.709 127.56C153.538 128.051 153.298 128.435 152.989 128.712C152.69 128.989 152.301 129.128 151.821 129.128C151.682 129.128 151.533 129.112 151.373 129.08C151.224 129.059 151.058 129.027 150.877 128.984ZM167.959 129V126.024L168.199 126.312H165.495C164.364 126.312 163.479 126.072 162.839 125.592C162.21 125.112 161.895 124.413 161.895 123.496C161.895 122.515 162.231 121.773 162.903 121.272C163.586 120.771 164.492 120.52 165.623 120.52H169.335V129H167.959ZM161.815 129L164.119 125.752H165.703L163.463 129H161.815ZM167.959 125.544V121.432L168.199 121.864H165.671C164.967 121.864 164.423 121.997 164.039 122.264C163.655 122.52 163.463 122.947 163.463 123.544C163.463 124.653 164.178 125.208 165.607 125.208H168.199L167.959 125.544ZM25.023 149V140.52H32.879V149H31.343V141.48L31.711 141.864H26.191L26.559 141.48V149H25.023ZM38.5231 149.096C37.6698 149.096 36.9125 148.909 36.2511 148.536C35.5898 148.163 35.0671 147.651 34.6831 147C34.2991 146.339 34.1071 145.592 34.1071 144.76C34.1071 143.917 34.2991 143.171 34.6831 142.52C35.0671 141.869 35.5898 141.363 36.2511 141C36.9125 140.627 37.6698 140.44 38.5231 140.44C39.3658 140.44 40.1178 140.627 40.7791 141C41.4511 141.363 41.9738 141.869 42.3471 142.52C42.7311 143.16 42.9231 143.907 42.9231 144.76C42.9231 145.603 42.7311 146.349 42.3471 147C41.9738 147.651 41.4511 148.163 40.7791 148.536C40.1178 148.909 39.3658 149.096 38.5231 149.096ZM38.5231 147.752C39.0671 147.752 39.5525 147.629 39.9791 147.384C40.4165 147.139 40.7578 146.792 41.0031 146.344C41.2485 145.885 41.3711 145.357 41.3711 144.76C41.3711 144.152 41.2485 143.629 41.0031 143.192C40.7578 142.744 40.4165 142.397 39.9791 142.152C39.5525 141.907 39.0671 141.784 38.5231 141.784C37.9791 141.784 37.4938 141.907 37.0671 142.152C36.6405 142.397 36.2991 142.744 36.0431 143.192C35.7871 143.629 35.6591 144.152 35.6591 144.76C35.6591 145.357 35.7871 145.885 36.0431 146.344C36.2991 146.792 36.6405 147.139 37.0671 147.384C37.4938 147.629 37.9791 147.752 38.5231 147.752ZM47.8771 149.096C47.0131 149.096 46.2398 148.909 45.5571 148.536C44.8851 148.163 44.3571 147.651 43.9731 147C43.5891 146.349 43.3971 145.603 43.3971 144.76C43.3971 143.917 43.5891 143.171 43.9731 142.52C44.3571 141.869 44.8851 141.363 45.5571 141C46.2398 140.627 47.0131 140.44 47.8771 140.44C48.6451 140.44 49.3278 140.595 49.9251 140.904C50.5331 141.203 51.0025 141.651 51.3331 142.248L50.1651 143C49.8878 142.584 49.5465 142.28 49.1411 142.088C48.7465 141.885 48.3198 141.784 47.8611 141.784C47.3065 141.784 46.8105 141.907 46.3731 142.152C45.9358 142.397 45.5891 142.744 45.3331 143.192C45.0771 143.629 44.9491 144.152 44.9491 144.76C44.9491 145.368 45.0771 145.896 45.3331 146.344C45.5891 146.792 45.9358 147.139 46.3731 147.384C46.8105 147.629 47.3065 147.752 47.8611 147.752C48.3198 147.752 48.7465 147.656 49.1411 147.464C49.5465 147.261 49.8878 146.952 50.1651 146.536L51.3331 147.272C51.0025 147.859 50.5331 148.312 49.9251 148.632C49.3278 148.941 48.6451 149.096 47.8771 149.096ZM50.7037 148.984L50.7997 147.688C50.8744 147.699 50.9437 147.709 51.0077 147.72C51.0717 147.731 51.1304 147.736 51.1837 147.736C51.5251 147.736 51.7917 147.619 51.9837 147.384C52.1864 147.149 52.3357 146.84 52.4317 146.456C52.5277 146.061 52.5971 145.619 52.6397 145.128C52.6824 144.637 52.7144 144.147 52.7357 143.656L52.8797 140.52H59.3917V149H57.8557V141.416L58.2237 141.864H53.8717L54.2237 141.4L54.1117 143.752C54.0797 144.499 54.0211 145.197 53.9357 145.848C53.8504 146.499 53.7171 147.069 53.5357 147.56C53.3651 148.051 53.1251 148.435 52.8157 148.712C52.5171 148.989 52.1277 149.128 51.6477 149.128C51.5091 149.128 51.3597 149.112 51.1997 149.08C51.0504 149.059 50.8851 149.027 50.7037 148.984ZM65.1777 149.096C64.2711 149.096 63.4711 148.909 62.7777 148.536C62.0951 148.163 61.5617 147.651 61.1777 147C60.8044 146.349 60.6177 145.603 60.6177 144.76C60.6177 143.917 60.7991 143.171 61.1617 142.52C61.5351 141.869 62.0417 141.363 62.6817 141C63.3324 140.627 64.0631 140.44 64.8737 140.44C65.6951 140.44 66.4204 140.621 67.0497 140.984C67.6791 141.347 68.1697 141.859 68.5217 142.52C68.8844 143.171 69.0657 143.933 69.0657 144.808C69.0657 144.872 69.0604 144.947 69.0497 145.032C69.0497 145.117 69.0444 145.197 69.0337 145.272H61.8177V144.168H68.2337L67.6097 144.552C67.6204 144.008 67.5084 143.523 67.2737 143.096C67.0391 142.669 66.7137 142.339 66.2977 142.104C65.8924 141.859 65.4177 141.736 64.8737 141.736C64.3404 141.736 63.8657 141.859 63.4497 142.104C63.0337 142.339 62.7084 142.675 62.4737 143.112C62.2391 143.539 62.1217 144.029 62.1217 144.584V144.84C62.1217 145.405 62.2497 145.912 62.5057 146.36C62.7724 146.797 63.1404 147.139 63.6097 147.384C64.0791 147.629 64.6177 147.752 65.2257 147.752C65.7271 147.752 66.1804 147.667 66.5857 147.496C67.0017 147.325 67.3644 147.069 67.6737 146.728L68.5217 147.72C68.1377 148.168 67.6577 148.509 67.0817 148.744C66.5164 148.979 65.8817 149.096 65.1777 149.096ZM79.6175 148.28V141.864H75.9375L75.8575 143.496C75.8362 144.029 75.7988 144.547 75.7455 145.048C75.7028 145.539 75.6282 145.992 75.5215 146.408C75.4255 146.824 75.2815 147.165 75.0895 147.432C74.8975 147.699 74.6415 147.864 74.3215 147.928L72.8015 147.656C73.1322 147.667 73.3988 147.56 73.6015 147.336C73.8042 147.101 73.9588 146.781 74.0655 146.376C74.1828 145.971 74.2682 145.512 74.3215 145C74.3748 144.477 74.4175 143.939 74.4495 143.384L74.5775 140.52H81.1535V148.28H79.6175ZM72.4655 150.968V147.656H82.4495V150.968H81.0095V149H73.9215V150.968H72.4655ZM82.0825 148.984L82.1785 147.688C82.2532 147.699 82.3225 147.709 82.3865 147.72C82.4505 147.731 82.5092 147.736 82.5625 147.736C82.9038 147.736 83.1705 147.619 83.3625 147.384C83.5652 147.149 83.7145 146.84 83.8105 146.456C83.9065 146.061 83.9758 145.619 84.0185 145.128C84.0612 144.637 84.0932 144.147 84.1145 143.656L84.2585 140.52H90.7705V149H89.2345V141.416L89.6025 141.864H85.2505L85.6025 141.4L85.4905 143.752C85.4585 144.499 85.3998 145.197 85.3145 145.848C85.2292 146.499 85.0958 147.069 84.9145 147.56C84.7438 148.051 84.5038 148.435 84.1945 148.712C83.8958 148.989 83.5065 149.128 83.0265 149.128C82.8878 149.128 82.7385 149.112 82.5785 149.08C82.4292 149.059 82.2638 149.027 82.0825 148.984ZM92.7805 149V140.52H94.3165V146.696L99.5165 140.52H100.908V149H99.3725V142.824L94.1885 149H92.7805ZM104.61 149V141.464L104.994 141.864H101.506V140.52H109.25V141.864H105.778L106.146 141.464V149H104.61ZM113.261 149.096C112.355 149.096 111.555 148.909 110.861 148.536C110.179 148.163 109.645 147.651 109.261 147C108.888 146.349 108.701 145.603 108.701 144.76C108.701 143.917 108.883 143.171 109.245 142.52C109.619 141.869 110.125 141.363 110.765 141C111.416 140.627 112.147 140.44 112.957 140.44C113.779 140.44 114.504 140.621 115.133 140.984C115.763 141.347 116.253 141.859 116.605 142.52C116.968 143.171 117.149 143.933 117.149 144.808C117.149 144.872 117.144 144.947 117.133 145.032C117.133 145.117 117.128 145.197 117.117 145.272H109.901V144.168H116.317L115.693 144.552C115.704 144.008 115.592 143.523 115.357 143.096C115.123 142.669 114.797 142.339 114.381 142.104C113.976 141.859 113.501 141.736 112.957 141.736C112.424 141.736 111.949 141.859 111.533 142.104C111.117 142.339 110.792 142.675 110.557 143.112C110.323 143.539 110.205 144.029 110.205 144.584V144.84C110.205 145.405 110.333 145.912 110.589 146.36C110.856 146.797 111.224 147.139 111.693 147.384C112.163 147.629 112.701 147.752 113.309 147.752C113.811 147.752 114.264 147.667 114.669 147.496C115.085 147.325 115.448 147.069 115.757 146.728L116.605 147.72C116.221 148.168 115.741 148.509 115.165 148.744C114.6 148.979 113.965 149.096 113.261 149.096ZM117.024 148.984L117.12 147.688C117.194 147.699 117.264 147.709 117.328 147.72C117.392 147.731 117.45 147.736 117.504 147.736C117.845 147.736 118.112 147.619 118.304 147.384C118.506 147.149 118.656 146.84 118.752 146.456C118.848 146.061 118.917 145.619 118.96 145.128C119.002 144.637 119.034 144.147 119.056 143.656L119.2 140.52H125.712V149H124.176V141.416L124.544 141.864H120.192L120.544 141.4L120.432 143.752C120.4 144.499 120.341 145.197 120.256 145.848C120.17 146.499 120.037 147.069 119.856 147.56C119.685 148.051 119.445 148.435 119.136 148.712C118.837 148.989 118.448 149.128 117.968 149.128C117.829 149.128 117.68 149.112 117.52 149.08C117.37 149.059 117.205 149.027 117.024 148.984ZM131.642 143.4C132.719 143.411 133.54 143.656 134.106 144.136C134.671 144.616 134.954 145.293 134.954 146.168C134.954 147.085 134.644 147.795 134.026 148.296C133.407 148.787 132.532 149.027 131.402 149.016L127.722 149V140.52H129.258V143.384L131.642 143.4ZM131.274 147.848C131.967 147.859 132.49 147.72 132.842 147.432C133.204 147.144 133.386 146.717 133.386 146.152C133.386 145.597 133.21 145.192 132.858 144.936C132.506 144.68 131.978 144.547 131.274 144.536L129.258 144.504V147.832L131.274 147.848ZM135.965 149V140.52H137.501V144.12H142.333V140.52H143.869V149H142.333V145.448H137.501V149H135.965ZM149.527 149.096C148.674 149.096 147.917 148.909 147.255 148.536C146.594 148.163 146.071 147.651 145.687 147C145.303 146.339 145.111 145.592 145.111 144.76C145.111 143.917 145.303 143.171 145.687 142.52C146.071 141.869 146.594 141.363 147.255 141C147.917 140.627 148.674 140.44 149.527 140.44C150.37 140.44 151.122 140.627 151.783 141C152.455 141.363 152.978 141.869 153.351 142.52C153.735 143.16 153.927 143.907 153.927 144.76C153.927 145.603 153.735 146.349 153.351 147C152.978 147.651 152.455 148.163 151.783 148.536C151.122 148.909 150.37 149.096 149.527 149.096ZM149.527 147.752C150.071 147.752 150.557 147.629 150.983 147.384C151.421 147.139 151.762 146.792 152.007 146.344C152.253 145.885 152.375 145.357 152.375 144.76C152.375 144.152 152.253 143.629 152.007 143.192C151.762 142.744 151.421 142.397 150.983 142.152C150.557 141.907 150.071 141.784 149.527 141.784C148.983 141.784 148.498 141.907 148.071 142.152C147.645 142.397 147.303 142.744 147.047 143.192C146.791 143.629 146.663 144.152 146.663 144.76C146.663 145.357 146.791 145.885 147.047 146.344C147.303 146.792 147.645 147.139 148.071 147.384C148.498 147.629 148.983 147.752 149.527 147.752ZM155.186 149V140.52H161.426V141.864H156.354L156.722 141.512V149H155.186ZM165.295 149.096C164.442 149.096 163.684 148.909 163.023 148.536C162.362 148.163 161.839 147.651 161.455 147C161.071 146.339 160.879 145.592 160.879 144.76C160.879 143.917 161.071 143.171 161.455 142.52C161.839 141.869 162.362 141.363 163.023 141C163.684 140.627 164.442 140.44 165.295 140.44C166.138 140.44 166.89 140.627 167.551 141C168.223 141.363 168.746 141.869 169.119 142.52C169.503 143.16 169.695 143.907 169.695 144.76C169.695 145.603 169.503 146.349 169.119 147C168.746 147.651 168.223 148.163 167.551 148.536C166.89 148.909 166.138 149.096 165.295 149.096ZM165.295 147.752C165.839 147.752 166.324 147.629 166.751 147.384C167.188 147.139 167.53 146.792 167.775 146.344C168.02 145.885 168.143 145.357 168.143 144.76C168.143 144.152 168.02 143.629 167.775 143.192C167.53 142.744 167.188 142.397 166.751 142.152C166.324 141.907 165.839 141.784 165.295 141.784C164.751 141.784 164.266 141.907 163.839 142.152C163.412 142.397 163.071 142.744 162.815 143.192C162.559 143.629 162.431 144.152 162.431 144.76C162.431 145.357 162.559 145.885 162.815 146.344C163.071 146.792 163.412 147.139 163.839 147.384C164.266 147.629 164.751 147.752 165.295 147.752ZM63.7849 169V160.52H71.6409V169H70.1049V161.48L70.4729 161.864H64.9529L65.3209 161.48V169H63.7849ZM79.109 169.096C78.405 169.096 77.7597 168.936 77.173 168.616C76.597 168.285 76.133 167.8 75.781 167.16C75.4397 166.52 75.269 165.72 75.269 164.76C75.269 163.8 75.4343 163 75.765 162.36C76.1063 161.72 76.565 161.24 77.141 160.92C77.7277 160.6 78.3837 160.44 79.109 160.44C79.941 160.44 80.677 160.621 81.317 160.984C81.957 161.347 82.4637 161.853 82.837 162.504C83.2103 163.144 83.397 163.896 83.397 164.76C83.397 165.624 83.2103 166.381 82.837 167.032C82.4637 167.683 81.957 168.189 81.317 168.552C80.677 168.915 79.941 169.096 79.109 169.096ZM74.613 172.104V160.52H76.085V162.808L75.989 164.776L76.149 166.744V172.104H74.613ZM78.981 167.752C79.525 167.752 80.0103 167.629 80.437 167.384C80.8743 167.139 81.2157 166.792 81.461 166.344C81.717 165.885 81.845 165.357 81.845 164.76C81.845 164.152 81.717 163.629 81.461 163.192C81.2157 162.744 80.8743 162.397 80.437 162.152C80.0103 161.907 79.525 161.784 78.981 161.784C78.4477 161.784 77.9623 161.907 77.525 162.152C77.0983 162.397 76.757 162.744 76.501 163.192C76.2557 163.629 76.133 164.152 76.133 164.76C76.133 165.357 76.2557 165.885 76.501 166.344C76.757 166.792 77.0983 167.139 77.525 167.384C77.9623 167.629 78.4477 167.752 78.981 167.752ZM89.2606 169.096C88.4073 169.096 87.65 168.909 86.9886 168.536C86.3273 168.163 85.8046 167.651 85.4206 167C85.0366 166.339 84.8446 165.592 84.8446 164.76C84.8446 163.917 85.0366 163.171 85.4206 162.52C85.8046 161.869 86.3273 161.363 86.9886 161C87.65 160.627 88.4073 160.44 89.2606 160.44C90.1033 160.44 90.8553 160.627 91.5166 161C92.1886 161.363 92.7113 161.869 93.0846 162.52C93.4686 163.16 93.6606 163.907 93.6606 164.76C93.6606 165.603 93.4686 166.349 93.0846 167C92.7113 167.651 92.1886 168.163 91.5166 168.536C90.8553 168.909 90.1033 169.096 89.2606 169.096ZM89.2606 167.752C89.8046 167.752 90.29 167.629 90.7166 167.384C91.154 167.139 91.4953 166.792 91.7406 166.344C91.986 165.885 92.1086 165.357 92.1086 164.76C92.1086 164.152 91.986 163.629 91.7406 163.192C91.4953 162.744 91.154 162.397 90.7166 162.152C90.29 161.907 89.8046 161.784 89.2606 161.784C88.7166 161.784 88.2313 161.907 87.8046 162.152C87.378 162.397 87.0366 162.744 86.7806 163.192C86.5246 163.629 86.3966 164.152 86.3966 164.76C86.3966 165.357 86.5246 165.885 86.7806 166.344C87.0366 166.792 87.378 167.139 87.8046 167.384C88.2313 167.629 88.7166 167.752 89.2606 167.752ZM99.5746 169.096C98.7106 169.096 97.9373 168.909 97.2546 168.536C96.5826 168.163 96.0546 167.651 95.6706 167C95.2866 166.349 95.0946 165.603 95.0946 164.76C95.0946 163.917 95.2866 163.171 95.6706 162.52C96.0546 161.869 96.5826 161.363 97.2546 161C97.9373 160.627 98.7106 160.44 99.5746 160.44C100.343 160.44 101.025 160.595 101.623 160.904C102.231 161.203 102.7 161.651 103.031 162.248L101.863 163C101.585 162.584 101.244 162.28 100.839 162.088C100.444 161.885 100.017 161.784 99.5586 161.784C99.004 161.784 98.508 161.907 98.0706 162.152C97.6333 162.397 97.2866 162.744 97.0306 163.192C96.7746 163.629 96.6466 164.152 96.6466 164.76C96.6466 165.368 96.7746 165.896 97.0306 166.344C97.2866 166.792 97.6333 167.139 98.0706 167.384C98.508 167.629 99.004 167.752 99.5586 167.752C100.017 167.752 100.444 167.656 100.839 167.464C101.244 167.261 101.585 166.952 101.863 166.536L103.031 167.272C102.7 167.859 102.231 168.312 101.623 168.632C101.025 168.941 100.343 169.096 99.5746 169.096ZM106.59 169V161.464L106.974 161.864H103.486V160.52H111.23V161.864H107.758L108.126 161.464V169H106.59ZM116.058 169.096C115.204 169.096 114.447 168.909 113.786 168.536C113.124 168.163 112.602 167.651 112.218 167C111.834 166.339 111.642 165.592 111.642 164.76C111.642 163.917 111.834 163.171 112.218 162.52C112.602 161.869 113.124 161.363 113.786 161C114.447 160.627 115.204 160.44 116.058 160.44C116.9 160.44 117.652 160.627 118.314 161C118.986 161.363 119.508 161.869 119.882 162.52C120.266 163.16 120.458 163.907 120.458 164.76C120.458 165.603 120.266 166.349 119.882 167C119.508 167.651 118.986 168.163 118.314 168.536C117.652 168.909 116.9 169.096 116.058 169.096ZM116.058 167.752C116.602 167.752 117.087 167.629 117.514 167.384C117.951 167.139 118.292 166.792 118.538 166.344C118.783 165.885 118.906 165.357 118.906 164.76C118.906 164.152 118.783 163.629 118.538 163.192C118.292 162.744 117.951 162.397 117.514 162.152C117.087 161.907 116.602 161.784 116.058 161.784C115.514 161.784 115.028 161.907 114.602 162.152C114.175 162.397 113.834 162.744 113.578 163.192C113.322 163.629 113.194 164.152 113.194 164.76C113.194 165.357 113.322 165.885 113.578 166.344C113.834 166.792 114.175 167.139 114.602 167.384C115.028 167.629 115.514 167.752 116.058 167.752ZM127.818 169V166.024L128.058 166.312H125.354C124.224 166.312 123.338 166.072 122.698 165.592C122.069 165.112 121.754 164.413 121.754 163.496C121.754 162.515 122.09 161.773 122.762 161.272C123.445 160.771 124.352 160.52 125.482 160.52H129.194V169H127.818ZM121.674 169L123.978 165.752H125.562L123.322 169H121.674ZM127.818 165.544V161.432L128.058 161.864H125.53C124.826 161.864 124.282 161.997 123.898 162.264C123.514 162.52 123.322 162.947 123.322 163.544C123.322 164.653 124.037 165.208 125.466 165.208H128.058L127.818 165.544Z" fill="white"/>
</svg>
