<svg width="260" height="260" viewBox="0 0 260 260" fill="none" xmlns="http://www.w3.org/2000/svg">
<path d="M0 50C0 26.4298 0 14.6447 7.32233 7.32233C14.6447 0 26.4298 0 50 0H222.02C222.232 0 222.339 0 222.411 0.00263821C225.426 0.112163 227.239 3.39119 225.729 6.00223C225.693 6.06513 225.636 6.15524 225.523 6.33547C224.509 7.95089 224.002 8.75859 223.784 9.14281C214.265 25.9084 231.642 45.11 249.272 37.3059C249.676 37.127 250.53 36.7029 252.238 35.8545L253.875 35.0416C254.178 34.8911 254.33 34.8158 254.442 34.7684C256.984 33.6933 259.825 35.4547 259.993 38.2095C260 38.3309 260 38.5001 260 38.8385V210C260 233.57 260 245.355 252.678 252.678C245.355 260 233.57 260 210 260H50C26.4298 260 14.6447 260 7.32233 252.678C0 245.355 0 233.57 0 210V50Z" fill="#F3F5F7"/>
<mask id="mask0_103_42" style="mask-type:alpha" maskUnits="userSpaceOnUse" x="0" y="0" width="260" height="260">
<path d="M0 60C0 31.7157 0 17.5736 8.7868 8.7868C17.5736 0 31.7157 0 60 0H222.429C222.529 0 222.58 0 222.613 0.000571758C225.743 0.053489 227.602 3.51781 225.916 6.15473C225.898 6.18322 225.87 6.22508 225.814 6.3088L224.912 7.66935C224.838 7.77972 224.802 7.8349 224.79 7.85282C212.449 26.5404 235.453 48.2883 253.419 34.9191C253.436 34.9063 253.489 34.8666 253.595 34.7873C253.604 34.7811 253.608 34.7779 253.611 34.7759C256.247 32.8125 259.994 34.6901 260 37.9771C260 37.9804 260 37.9857 260 37.9961V200C260 228.284 260 242.426 251.213 251.213C242.426 260 228.284 260 200 260H60C31.7157 260 17.5736 260 8.7868 251.213C0 242.426 0 228.284 0 200V60Z" fill="#F3F5F7"/>
</mask>
<g mask="url(#mask0_103_42)">
<path d="M0.519981 110.92C-6.92002 110.92 -13.52 109.2 -19.28 105.76C-24.96 102.32 -29.44 97.32 -32.72 90.76C-35.92 84.2 -37.52 76.28 -37.52 67C-37.52 57.72 -35.92 49.8 -32.72 43.24C-29.44 36.68 -24.96 31.68 -19.28 28.24C-13.52 24.8 -6.92002 23.08 0.519981 23.08C7.95998 23.08 14.52 24.8 20.2 28.24C25.96 31.68 30.44 36.68 33.64 43.24C36.92 49.8 38.56 57.72 38.56 67C38.56 76.28 36.92 84.2 33.64 90.76C30.44 97.32 25.96 102.32 20.2 105.76C14.52 109.2 7.95998 110.92 0.519981 110.92ZM0.519981 88.24C2.35998 88.24 3.99998 87.6 5.43998 86.32C6.87998 85.04 7.99998 82.84 8.79998 79.72C9.67999 76.6 10.12 72.36 10.12 67C10.12 61.56 9.67999 57.32 8.79998 54.28C7.99998 51.16 6.87998 48.96 5.43998 47.68C3.99998 46.4 2.35998 45.76 0.519981 45.76C-1.32002 45.76 -2.96002 46.4 -4.40002 47.68C-5.84002 48.96 -7.00002 51.16 -7.88002 54.28C-8.68002 57.32 -9.08002 61.56 -9.08002 67C-9.08002 72.36 -8.68002 76.6 -7.88002 79.72C-7.00002 82.84 -5.84002 85.04 -4.40002 86.32C-2.96002 87.6 -1.32002 88.24 0.519981 88.24Z" fill="#00AAFF" fill-opacity="0.1"/>
<path d="M85.8859 110.92C77.8859 110.92 70.8459 109.4 64.7659 106.36C58.7659 103.24 54.0459 98.64 50.6059 92.56C47.2459 86.4 45.5659 78.76 45.5659 69.64C45.5659 59.8 47.5259 51.44 51.4459 44.56C55.3659 37.6 60.8059 32.28 67.7659 28.6C74.8059 24.92 82.9259 23.08 92.1259 23.08C97.0859 23.08 101.846 23.68 106.406 24.88C111.046 26 114.966 27.6 118.166 29.68L107.966 49.48C105.486 47.72 102.966 46.56 100.406 46C97.9259 45.36 95.3659 45.04 92.7259 45.04C87.0459 45.04 82.4859 46.76 79.0459 50.2C75.6859 53.56 74.0059 58.48 74.0059 64.96C74.0059 66.16 74.0059 67.36 74.0059 68.56C74.0059 69.68 74.0059 70.84 74.0059 72.04L67.5259 67.36C69.1259 64.64 71.0059 62.36 73.1659 60.52C75.3259 58.6 77.8859 57.16 80.8459 56.2C83.8059 55.16 87.2459 54.64 91.1659 54.64C96.2859 54.64 101.006 55.76 105.326 58C109.726 60.16 113.246 63.24 115.886 67.24C118.606 71.24 119.966 76 119.966 81.52C119.966 87.52 118.446 92.72 115.406 97.12C112.366 101.52 108.246 104.92 103.046 107.32C97.9259 109.72 92.2059 110.92 85.8859 110.92ZM83.9659 91.36C85.6459 91.36 87.1259 91.04 88.4059 90.4C89.7659 89.68 90.8059 88.68 91.5259 87.4C92.2459 86.12 92.6059 84.6 92.6059 82.84C92.6059 80.2 91.8059 78.12 90.2059 76.6C88.6059 75 86.5259 74.2 83.9659 74.2C82.2859 74.2 80.8059 74.56 79.5259 75.28C78.2459 76 77.2059 77 76.4059 78.28C75.6859 79.56 75.3259 81.08 75.3259 82.84C75.3259 84.6 75.6859 86.12 76.4059 87.4C77.2059 88.68 78.2459 89.68 79.5259 90.4C80.8059 91.04 82.2859 91.36 83.9659 91.36Z" fill="#00AAFF" fill-opacity="0.1"/>
</g>
<circle cx="242.5" cy="17.5" r="17.5" fill="#F3F5F7"/>
<path d="M235 18.25H250M250 18.25L243 11M250 18.25L243 25" stroke="#00AAFF" stroke-width="2" stroke-linecap="round" stroke-linejoin="round"/>
<path d="M21.784 141.128C20.9307 141.128 20.136 140.984 19.4 140.696C18.6747 140.408 18.0453 140.008 17.512 139.496C16.9787 138.973 16.5627 138.365 16.264 137.672C15.9653 136.979 15.816 136.221 15.816 135.4C15.816 134.579 15.9653 133.821 16.264 133.128C16.5627 132.435 16.9787 131.832 17.512 131.32C18.0453 130.797 18.6747 130.392 19.4 130.104C20.1253 129.816 20.92 129.672 21.784 129.672C22.6373 129.672 23.4213 129.816 24.136 130.104C24.8613 130.381 25.4907 130.781 26.024 131.304C26.568 131.816 26.984 132.419 27.272 133.112C27.5707 133.805 27.72 134.568 27.72 135.4C27.72 136.232 27.5707 136.995 27.272 137.688C26.984 138.381 26.568 138.989 26.024 139.512C25.4907 140.024 24.8613 140.424 24.136 140.712C23.4213 140.989 22.6373 141.128 21.784 141.128ZM21.784 139.704C22.4027 139.704 22.9733 139.597 23.496 139.384C24.0293 139.171 24.488 138.872 24.872 138.488C25.2667 138.093 25.5707 137.635 25.784 137.112C26.008 136.589 26.12 136.019 26.12 135.4C26.12 134.781 26.008 134.211 25.784 133.688C25.5707 133.165 25.2667 132.712 24.872 132.328C24.488 131.933 24.0293 131.629 23.496 131.416C22.9733 131.203 22.4027 131.096 21.784 131.096C21.1547 131.096 20.5733 131.203 20.04 131.416C19.5173 131.629 19.0587 131.933 18.664 132.328C18.2693 132.712 17.96 133.165 17.736 133.688C17.5227 134.211 17.416 134.781 17.416 135.4C17.416 136.019 17.5227 136.589 17.736 137.112C17.96 137.635 18.2693 138.093 18.664 138.488C19.0587 138.872 19.5173 139.171 20.04 139.384C20.5733 139.597 21.1547 139.704 21.784 139.704ZM33.9705 141.128C33.2665 141.128 32.6425 141.016 32.0985 140.792C31.5652 140.568 31.1065 140.237 30.7225 139.8C30.3385 139.352 30.0452 138.792 29.8425 138.12C29.6505 137.437 29.5545 136.637 29.5545 135.72C29.5545 134.995 29.6185 134.344 29.7465 133.768C29.8745 133.192 30.0558 132.68 30.2905 132.232C30.5358 131.784 30.8345 131.395 31.1865 131.064C31.5492 130.733 31.9545 130.461 32.4025 130.248C32.8612 130.024 33.3625 129.853 33.9065 129.736L37.7785 128.872L38.0025 130.296L34.4345 131.064C34.2212 131.107 33.9652 131.171 33.6665 131.256C33.3678 131.341 33.0638 131.475 32.7545 131.656C32.4452 131.827 32.1572 132.067 31.8905 132.376C31.6238 132.685 31.4105 133.091 31.2505 133.592C31.0905 134.083 31.0105 134.691 31.0105 135.416C31.0105 135.619 31.0158 135.773 31.0265 135.88C31.0372 135.987 31.0478 136.093 31.0585 136.2C31.0798 136.307 31.0958 136.467 31.1065 136.68L30.4665 136.024C30.6372 135.437 30.9092 134.925 31.2825 134.488C31.6558 134.051 32.1038 133.715 32.6265 133.48C33.1598 133.235 33.7412 133.112 34.3705 133.112C35.1598 133.112 35.8585 133.283 36.4665 133.624C37.0852 133.965 37.5705 134.435 37.9225 135.032C38.2745 135.629 38.4505 136.312 38.4505 137.08C38.4505 137.859 38.2638 138.557 37.8905 139.176C37.5278 139.784 37.0105 140.264 36.3385 140.616C35.6665 140.957 34.8772 141.128 33.9705 141.128ZM34.1145 139.848C34.6585 139.848 35.1385 139.731 35.5545 139.496C35.9705 139.251 36.2958 138.925 36.5305 138.52C36.7652 138.104 36.8825 137.64 36.8825 137.128C36.8825 136.616 36.7652 136.163 36.5305 135.768C36.2958 135.373 35.9705 135.064 35.5545 134.84C35.1385 134.605 34.6478 134.488 34.0825 134.488C33.5492 134.488 33.0692 134.6 32.6425 134.824C32.2158 135.037 31.8852 135.341 31.6505 135.736C31.4158 136.12 31.2985 136.568 31.2985 137.08C31.2985 137.592 31.4158 138.061 31.6505 138.488C31.8958 138.904 32.2265 139.235 32.6425 139.48C33.0692 139.725 33.5598 139.848 34.1145 139.848ZM44.2763 141.096C43.4229 141.096 42.6656 140.909 42.0043 140.536C41.3429 140.163 40.8203 139.651 40.4363 139C40.0523 138.339 39.8603 137.592 39.8603 136.76C39.8603 135.917 40.0523 135.171 40.4363 134.52C40.8203 133.869 41.3429 133.363 42.0043 133C42.6656 132.627 43.4229 132.44 44.2763 132.44C45.1189 132.44 45.8709 132.627 46.5323 133C47.2043 133.363 47.7269 133.869 48.1003 134.52C48.4843 135.16 48.6763 135.907 48.6763 136.76C48.6763 137.603 48.4843 138.349 48.1003 139C47.7269 139.651 47.2043 140.163 46.5323 140.536C45.8709 140.909 45.1189 141.096 44.2763 141.096ZM44.2763 139.752C44.8203 139.752 45.3056 139.629 45.7323 139.384C46.1696 139.139 46.5109 138.792 46.7563 138.344C47.0016 137.885 47.1243 137.357 47.1243 136.76C47.1243 136.152 47.0016 135.629 46.7563 135.192C46.5109 134.744 46.1696 134.397 45.7323 134.152C45.3056 133.907 44.8203 133.784 44.2763 133.784C43.7323 133.784 43.2469 133.907 42.8203 134.152C42.3936 134.397 42.0523 134.744 41.7963 135.192C41.5403 135.629 41.4123 136.152 41.4123 136.76C41.4123 137.357 41.5403 137.885 41.7963 138.344C42.0523 138.792 42.3936 139.139 42.8203 139.384C43.2469 139.629 43.7323 139.752 44.2763 139.752ZM54.5903 141.096C53.7263 141.096 52.9529 140.909 52.2703 140.536C51.5983 140.163 51.0703 139.651 50.6863 139C50.3023 138.349 50.1103 137.603 50.1103 136.76C50.1103 135.917 50.3023 135.171 50.6863 134.52C51.0703 133.869 51.5983 133.363 52.2703 133C52.9529 132.627 53.7263 132.44 54.5903 132.44C55.3583 132.44 56.0409 132.595 56.6383 132.904C57.2463 133.203 57.7156 133.651 58.0463 134.248L56.8783 135C56.6009 134.584 56.2596 134.28 55.8543 134.088C55.4596 133.885 55.0329 133.784 54.5743 133.784C54.0196 133.784 53.5236 133.907 53.0863 134.152C52.6489 134.397 52.3023 134.744 52.0463 135.192C51.7903 135.629 51.6623 136.152 51.6623 136.76C51.6623 137.368 51.7903 137.896 52.0463 138.344C52.3023 138.792 52.6489 139.139 53.0863 139.384C53.5236 139.629 54.0196 139.752 54.5743 139.752C55.0329 139.752 55.4596 139.656 55.8543 139.464C56.2596 139.261 56.6009 138.952 56.8783 138.536L58.0463 139.272C57.7156 139.859 57.2463 140.312 56.6383 140.632C56.0409 140.941 55.3583 141.096 54.5903 141.096ZM60.0349 141V132.52H61.5709V136.12H66.4029V132.52H67.9389V141H66.4029V137.448H61.5709V141H60.0349ZM74.5575 141.096C73.7042 141.096 72.9468 140.909 72.2855 140.536C71.6242 140.163 71.1015 139.651 70.7175 139C70.3335 138.339 70.1415 137.592 70.1415 136.76C70.1415 135.917 70.3335 135.171 70.7175 134.52C71.1015 133.869 71.6242 133.363 72.2855 133C72.9468 132.627 73.7042 132.44 74.5575 132.44C75.4002 132.44 76.1522 132.627 76.8135 133C77.4855 133.363 78.0082 133.869 78.3815 134.52C78.7655 135.16 78.9575 135.907 78.9575 136.76C78.9575 137.603 78.7655 138.349 78.3815 139C78.0082 139.651 77.4855 140.163 76.8135 140.536C76.1522 140.909 75.4002 141.096 74.5575 141.096ZM74.5575 139.752C75.1015 139.752 75.5868 139.629 76.0135 139.384C76.4508 139.139 76.7922 138.792 77.0375 138.344C77.2828 137.885 77.4055 137.357 77.4055 136.76C77.4055 136.152 77.2828 135.629 77.0375 135.192C76.7922 134.744 76.4508 134.397 76.0135 134.152C75.5868 133.907 75.1015 133.784 74.5575 133.784C74.0135 133.784 73.5282 133.907 73.1015 134.152C72.6748 134.397 72.3335 134.744 72.0775 135.192C71.8215 135.629 71.6935 136.152 71.6935 136.76C71.6935 137.357 71.8215 137.885 72.0775 138.344C72.3335 138.792 72.6748 139.139 73.1015 139.384C73.5282 139.629 74.0135 139.752 74.5575 139.752ZM81.1755 141V132.52H85.1115C86.1035 132.52 86.8822 132.712 87.4475 133.096C88.0235 133.469 88.3115 134.003 88.3115 134.696C88.3115 135.389 88.0395 135.928 87.4955 136.312C86.9622 136.685 86.2528 136.872 85.3675 136.872L85.6075 136.456C86.6208 136.456 87.3728 136.643 87.8635 137.016C88.3542 137.389 88.5995 137.939 88.5995 138.664C88.5995 139.4 88.3222 139.976 87.7675 140.392C87.2235 140.797 86.3862 141 85.2555 141H81.1755ZM82.6795 139.816H85.1435C85.7835 139.816 86.2635 139.72 86.5835 139.528C86.9035 139.325 87.0635 139.005 87.0635 138.568C87.0635 138.12 86.9142 137.795 86.6155 137.592C86.3275 137.379 85.8688 137.272 85.2395 137.272H82.6795V139.816ZM82.6795 136.168H84.9835C85.5702 136.168 86.0128 136.061 86.3115 135.848C86.6208 135.624 86.7755 135.315 86.7755 134.92C86.7755 134.515 86.6208 134.211 86.3115 134.008C86.0128 133.805 85.5702 133.704 84.9835 133.704H82.6795V136.168ZM96.2036 141V139.208L96.1236 138.872V135.816C96.1236 135.165 95.9316 134.664 95.5476 134.312C95.1743 133.949 94.609 133.768 93.8516 133.768C93.3503 133.768 92.8596 133.853 92.3796 134.024C91.8996 134.184 91.4943 134.403 91.1636 134.68L90.5236 133.528C90.961 133.176 91.4836 132.909 92.0916 132.728C92.7103 132.536 93.3556 132.44 94.0276 132.44C95.1903 132.44 96.0863 132.723 96.7156 133.288C97.345 133.853 97.6596 134.717 97.6596 135.88V141H96.2036ZM93.4196 141.096C92.7903 141.096 92.2356 140.989 91.7556 140.776C91.2863 140.563 90.9236 140.269 90.6676 139.896C90.4116 139.512 90.2836 139.08 90.2836 138.6C90.2836 138.141 90.3903 137.725 90.6036 137.352C90.8276 136.979 91.185 136.68 91.6756 136.456C92.177 136.232 92.849 136.12 93.6916 136.12H96.3796V137.224H93.7556C92.9876 137.224 92.4703 137.352 92.2036 137.608C91.937 137.864 91.8036 138.173 91.8036 138.536C91.8036 138.952 91.969 139.288 92.2996 139.544C92.6303 139.789 93.089 139.912 93.6756 139.912C94.2516 139.912 94.753 139.784 95.1796 139.528C95.617 139.272 95.9316 138.899 96.1236 138.408L96.4276 139.464C96.225 139.965 95.8676 140.365 95.3556 140.664C94.8436 140.952 94.1983 141.096 93.4196 141.096ZM100.426 141V132.52H101.962V136.12H106.794V132.52H108.33V141H106.794V137.448H101.962V141H100.426ZM111.316 141V132.52H112.852V136.12H117.684V132.52H119.22V141H117.684V137.448H112.852V141H111.316ZM130.591 141V132.52H132.127V141H130.591ZM126.031 135.4C127.108 135.411 127.924 135.656 128.479 136.136C129.044 136.616 129.327 137.293 129.327 138.168C129.327 139.085 129.017 139.795 128.399 140.296C127.791 140.787 126.916 141.027 125.775 141.016L122.207 141V132.52H123.743V135.384L126.031 135.4ZM125.663 139.848C126.345 139.859 126.868 139.72 127.231 139.432C127.593 139.144 127.775 138.717 127.775 138.152C127.775 137.597 127.593 137.192 127.231 136.936C126.879 136.68 126.356 136.547 125.663 136.536L123.743 136.504V139.832L125.663 139.848ZM135.113 141V132.52H136.649V138.696L141.849 132.52H143.241V141H141.705V134.824L136.521 141H135.113ZM139.081 131.416C138.302 131.416 137.689 131.229 137.241 130.856C136.804 130.472 136.58 129.923 136.569 129.208H137.609C137.62 129.613 137.753 129.933 138.009 130.168C138.276 130.403 138.628 130.52 139.065 130.52C139.502 130.52 139.854 130.403 140.121 130.168C140.388 129.933 140.526 129.613 140.537 129.208H141.609C141.598 129.923 141.369 130.472 140.921 130.856C140.473 131.229 139.86 131.416 139.081 131.416ZM152.199 141V133.464L152.583 133.864H149.095V132.52H156.839V133.864H153.367L153.735 133.464V141H152.199ZM161.667 141.096C160.814 141.096 160.056 140.909 159.395 140.536C158.734 140.163 158.211 139.651 157.827 139C157.443 138.339 157.251 137.592 157.251 136.76C157.251 135.917 157.443 135.171 157.827 134.52C158.211 133.869 158.734 133.363 159.395 133C160.056 132.627 160.814 132.44 161.667 132.44C162.51 132.44 163.262 132.627 163.923 133C164.595 133.363 165.118 133.869 165.491 134.52C165.875 135.16 166.067 135.907 166.067 136.76C166.067 137.603 165.875 138.349 165.491 139C165.118 139.651 164.595 140.163 163.923 140.536C163.262 140.909 162.51 141.096 161.667 141.096ZM161.667 139.752C162.211 139.752 162.696 139.629 163.123 139.384C163.56 139.139 163.902 138.792 164.147 138.344C164.392 137.885 164.515 137.357 164.515 136.76C164.515 136.152 164.392 135.629 164.147 135.192C163.902 134.744 163.56 134.397 163.123 134.152C162.696 133.907 162.211 133.784 161.667 133.784C161.123 133.784 160.638 133.907 160.211 134.152C159.784 134.397 159.443 134.744 159.187 135.192C158.931 135.629 158.803 136.152 158.803 136.76C158.803 137.357 158.931 137.885 159.187 138.344C159.443 138.792 159.784 139.139 160.211 139.384C160.638 139.629 161.123 139.752 161.667 139.752ZM172.781 141.096C172.077 141.096 171.432 140.936 170.845 140.616C170.269 140.285 169.805 139.8 169.453 139.16C169.112 138.52 168.941 137.72 168.941 136.76C168.941 135.8 169.106 135 169.437 134.36C169.778 133.72 170.237 133.24 170.813 132.92C171.4 132.6 172.056 132.44 172.781 132.44C173.613 132.44 174.349 132.621 174.989 132.984C175.629 133.347 176.136 133.853 176.509 134.504C176.882 135.144 177.069 135.896 177.069 136.76C177.069 137.624 176.882 138.381 176.509 139.032C176.136 139.683 175.629 140.189 174.989 140.552C174.349 140.915 173.613 141.096 172.781 141.096ZM168.285 144.104V132.52H169.757V134.808L169.661 136.776L169.821 138.744V144.104H168.285ZM172.653 139.752C173.197 139.752 173.682 139.629 174.109 139.384C174.546 139.139 174.888 138.792 175.133 138.344C175.389 137.885 175.517 137.357 175.517 136.76C175.517 136.152 175.389 135.629 175.133 135.192C174.888 134.744 174.546 134.397 174.109 134.152C173.682 133.907 173.197 133.784 172.653 133.784C172.12 133.784 171.634 133.907 171.197 134.152C170.77 134.397 170.429 134.744 170.173 135.192C169.928 135.629 169.805 136.152 169.805 136.76C169.805 137.357 169.928 137.885 170.173 138.344C170.429 138.792 170.77 139.139 171.197 139.384C171.634 139.629 172.12 139.752 172.653 139.752ZM179.301 141V132.52H185.541V133.864H180.469L180.837 133.512V141H179.301ZM20.184 161.096C19.32 161.096 18.5467 160.909 17.864 160.536C17.192 160.163 16.664 159.651 16.28 159C15.896 158.349 15.704 157.603 15.704 156.76C15.704 155.917 15.896 155.171 16.28 154.52C16.664 153.869 17.192 153.363 17.864 153C18.5467 152.627 19.32 152.44 20.184 152.44C20.952 152.44 21.6347 152.595 22.232 152.904C22.84 153.203 23.3093 153.651 23.64 154.248L22.472 155C22.1947 154.584 21.8533 154.28 21.448 154.088C21.0533 153.885 20.6267 153.784 20.168 153.784C19.6133 153.784 19.1173 153.907 18.68 154.152C18.2427 154.397 17.896 154.744 17.64 155.192C17.384 155.629 17.256 156.152 17.256 156.76C17.256 157.368 17.384 157.896 17.64 158.344C17.896 158.792 18.2427 159.139 18.68 159.384C19.1173 159.629 19.6133 159.752 20.168 159.752C20.6267 159.752 21.0533 159.656 21.448 159.464C21.8533 159.261 22.1947 158.952 22.472 158.536L23.64 159.272C23.3093 159.859 22.84 160.312 22.232 160.632C21.6347 160.941 20.952 161.096 20.184 161.096ZM25.6286 161V152.52H33.4846V161H31.9486V153.48L32.3166 153.864H26.7966L27.1646 153.48V161H25.6286ZM40.9528 161.096C40.2488 161.096 39.6034 160.936 39.0168 160.616C38.4408 160.285 37.9768 159.8 37.6248 159.16C37.2834 158.52 37.1128 157.72 37.1128 156.76C37.1128 155.8 37.2781 155 37.6088 154.36C37.9501 153.72 38.4088 153.24 38.9848 152.92C39.5714 152.6 40.2274 152.44 40.9528 152.44C41.7848 152.44 42.5208 152.621 43.1608 152.984C43.8008 153.347 44.3074 153.853 44.6808 154.504C45.0541 155.144 45.2408 155.896 45.2408 156.76C45.2408 157.624 45.0541 158.381 44.6808 159.032C44.3074 159.683 43.8008 160.189 43.1608 160.552C42.5208 160.915 41.7848 161.096 40.9528 161.096ZM36.4568 164.104V152.52H37.9288V154.808L37.8328 156.776L37.9928 158.744V164.104H36.4568ZM40.8248 159.752C41.3688 159.752 41.8541 159.629 42.2808 159.384C42.7181 159.139 43.0594 158.792 43.3048 158.344C43.5608 157.885 43.6888 157.357 43.6888 156.76C43.6888 156.152 43.5608 155.629 43.3048 155.192C43.0594 154.744 42.7181 154.397 42.2808 154.152C41.8541 153.907 41.3688 153.784 40.8248 153.784C40.2914 153.784 39.8061 153.907 39.3688 154.152C38.9421 154.397 38.6008 154.744 38.3448 155.192C38.0994 155.629 37.9768 156.152 37.9768 156.76C37.9768 157.357 38.0994 157.885 38.3448 158.344C38.6008 158.792 38.9421 159.139 39.3688 159.384C39.8061 159.629 40.2914 159.752 40.8248 159.752ZM51.1044 161.096C50.251 161.096 49.4937 160.909 48.8324 160.536C48.171 160.163 47.6484 159.651 47.2644 159C46.8804 158.339 46.6884 157.592 46.6884 156.76C46.6884 155.917 46.8804 155.171 47.2644 154.52C47.6484 153.869 48.171 153.363 48.8324 153C49.4937 152.627 50.251 152.44 51.1044 152.44C51.947 152.44 52.699 152.627 53.3604 153C54.0324 153.363 54.555 153.869 54.9284 154.52C55.3124 155.16 55.5044 155.907 55.5044 156.76C55.5044 157.603 55.3124 158.349 54.9284 159C54.555 159.651 54.0324 160.163 53.3604 160.536C52.699 160.909 51.947 161.096 51.1044 161.096ZM51.1044 159.752C51.6484 159.752 52.1337 159.629 52.5604 159.384C52.9977 159.139 53.339 158.792 53.5844 158.344C53.8297 157.885 53.9524 157.357 53.9524 156.76C53.9524 156.152 53.8297 155.629 53.5844 155.192C53.339 154.744 52.9977 154.397 52.5604 154.152C52.1337 153.907 51.6484 153.784 51.1044 153.784C50.5604 153.784 50.075 153.907 49.6484 154.152C49.2217 154.397 48.8804 154.744 48.6244 155.192C48.3684 155.629 48.2404 156.152 48.2404 156.76C48.2404 157.357 48.3684 157.885 48.6244 158.344C48.8804 158.792 49.2217 159.139 49.6484 159.384C50.075 159.629 50.5604 159.752 51.1044 159.752ZM63.4519 160.28V153.864H59.7719L59.6919 155.496C59.6705 156.029 59.6332 156.547 59.5799 157.048C59.5372 157.539 59.4625 157.992 59.3559 158.408C59.2599 158.824 59.1159 159.165 58.9239 159.432C58.7319 159.699 58.4759 159.864 58.1559 159.928L56.6359 159.656C56.9665 159.667 57.2332 159.56 57.4359 159.336C57.6385 159.101 57.7932 158.781 57.8999 158.376C58.0172 157.971 58.1025 157.512 58.1559 157C58.2092 156.477 58.2519 155.939 58.2839 155.384L58.4119 152.52H64.9879V160.28H63.4519ZM56.2999 162.968V159.656H66.2839V162.968H64.8439V161H57.7559V162.968H56.2999ZM71.9169 161.096C71.0635 161.096 70.3062 160.909 69.6449 160.536C68.9835 160.163 68.4609 159.651 68.0769 159C67.6929 158.339 67.5009 157.592 67.5009 156.76C67.5009 155.917 67.6929 155.171 68.0769 154.52C68.4609 153.869 68.9835 153.363 69.6449 153C70.3062 152.627 71.0635 152.44 71.9169 152.44C72.7595 152.44 73.5115 152.627 74.1729 153C74.8449 153.363 75.3675 153.869 75.7409 154.52C76.1249 155.16 76.3169 155.907 76.3169 156.76C76.3169 157.603 76.1249 158.349 75.7409 159C75.3675 159.651 74.8449 160.163 74.1729 160.536C73.5115 160.909 72.7595 161.096 71.9169 161.096ZM71.9169 159.752C72.4609 159.752 72.9462 159.629 73.3729 159.384C73.8102 159.139 74.1515 158.792 74.3969 158.344C74.6422 157.885 74.7649 157.357 74.7649 156.76C74.7649 156.152 74.6422 155.629 74.3969 155.192C74.1515 154.744 73.8102 154.397 73.3729 154.152C72.9462 153.907 72.4609 153.784 71.9169 153.784C71.3729 153.784 70.8875 153.907 70.4609 154.152C70.0342 154.397 69.6929 154.744 69.4369 155.192C69.1809 155.629 69.0529 156.152 69.0529 156.76C69.0529 157.357 69.1809 157.885 69.4369 158.344C69.6929 158.792 70.0342 159.139 70.4609 159.384C70.8875 159.629 71.3729 159.752 71.9169 159.752ZM78.5349 161V152.52H82.4709C83.4629 152.52 84.2415 152.712 84.8069 153.096C85.3829 153.469 85.6709 154.003 85.6709 154.696C85.6709 155.389 85.3989 155.928 84.8549 156.312C84.3215 156.685 83.6122 156.872 82.7269 156.872L82.9669 156.456C83.9802 156.456 84.7322 156.643 85.2229 157.016C85.7135 157.389 85.9589 157.939 85.9589 158.664C85.9589 159.4 85.6815 159.976 85.1269 160.392C84.5829 160.797 83.7455 161 82.6149 161H78.5349ZM80.0389 159.816H82.5029C83.1429 159.816 83.6229 159.72 83.9429 159.528C84.2629 159.325 84.4229 159.005 84.4229 158.568C84.4229 158.12 84.2735 157.795 83.9749 157.592C83.6869 157.379 83.2282 157.272 82.5989 157.272H80.0389V159.816ZM80.0389 156.168H82.3429C82.9295 156.168 83.3722 156.061 83.6709 155.848C83.9802 155.624 84.1349 155.315 84.1349 154.92C84.1349 154.515 83.9802 154.211 83.6709 154.008C83.3722 153.805 82.9295 153.704 82.3429 153.704H80.0389V156.168ZM88.363 161V152.52H89.899V159.656H94.539V152.52H96.075V161H88.363ZM95.963 162.968V160.92L96.347 161H94.539V159.656H97.419V162.968H95.963ZM103.042 161.096C102.189 161.096 101.431 160.909 100.77 160.536C100.109 160.163 99.5859 159.651 99.2019 159C98.8179 158.339 98.6259 157.592 98.6259 156.76C98.6259 155.917 98.8179 155.171 99.2019 154.52C99.5859 153.869 100.109 153.363 100.77 153C101.431 152.627 102.189 152.44 103.042 152.44C103.885 152.44 104.637 152.627 105.298 153C105.97 153.363 106.493 153.869 106.866 154.52C107.25 155.16 107.442 155.907 107.442 156.76C107.442 157.603 107.25 158.349 106.866 159C106.493 159.651 105.97 160.163 105.298 160.536C104.637 160.909 103.885 161.096 103.042 161.096ZM103.042 159.752C103.586 159.752 104.071 159.629 104.498 159.384C104.935 159.139 105.277 158.792 105.522 158.344C105.767 157.885 105.89 157.357 105.89 156.76C105.89 156.152 105.767 155.629 105.522 155.192C105.277 154.744 104.935 154.397 104.498 154.152C104.071 153.907 103.586 153.784 103.042 153.784C102.498 153.784 102.013 153.907 101.586 154.152C101.159 154.397 100.818 154.744 100.562 155.192C100.306 155.629 100.178 156.152 100.178 156.76C100.178 157.357 100.306 157.885 100.562 158.344C100.818 158.792 101.159 159.139 101.586 159.384C102.013 159.629 102.498 159.752 103.042 159.752ZM109.66 161V152.52H111.244L114.892 158.792H114.252L117.996 152.52H119.436V161H118.044V154.248L118.3 154.392L114.876 160.04H114.204L110.764 154.28L111.068 154.216V161H109.66ZM128.658 164.104C128.05 163.133 127.581 162.013 127.25 160.744C126.92 159.464 126.754 158.088 126.754 156.616C126.754 155.144 126.92 153.768 127.25 152.488C127.581 151.197 128.05 150.077 128.658 149.128H130.114C129.474 150.259 129.005 151.443 128.706 152.68C128.408 153.907 128.258 155.219 128.258 156.616C128.258 158.013 128.408 159.331 128.706 160.568C129.005 161.795 129.474 162.973 130.114 164.104H128.658ZM138.257 161L134.977 156.872L136.241 156.104L140.065 161H138.257ZM132.113 161V152.52H133.649V161H132.113ZM133.185 157.416V156.104H135.985V157.416H133.185ZM136.369 156.936L134.945 156.744L138.193 152.52H139.841L136.369 156.936ZM146.719 161V159.208L146.639 158.872V155.816C146.639 155.165 146.447 154.664 146.063 154.312C145.69 153.949 145.125 153.768 144.367 153.768C143.866 153.768 143.375 153.853 142.895 154.024C142.415 154.184 142.01 154.403 141.679 154.68L141.039 153.528C141.477 153.176 141.999 152.909 142.607 152.728C143.226 152.536 143.871 152.44 144.543 152.44C145.706 152.44 146.602 152.723 147.231 153.288C147.861 153.853 148.175 154.717 148.175 155.88V161H146.719ZM143.935 161.096C143.306 161.096 142.751 160.989 142.271 160.776C141.802 160.563 141.439 160.269 141.183 159.896C140.927 159.512 140.799 159.08 140.799 158.6C140.799 158.141 140.906 157.725 141.119 157.352C141.343 156.979 141.701 156.68 142.191 156.456C142.693 156.232 143.365 156.12 144.207 156.12H146.895V157.224H144.271C143.503 157.224 142.986 157.352 142.719 157.608C142.453 157.864 142.319 158.173 142.319 158.536C142.319 158.952 142.485 159.288 142.815 159.544C143.146 159.789 143.605 159.912 144.191 159.912C144.767 159.912 145.269 159.784 145.695 159.528C146.133 159.272 146.447 158.899 146.639 158.408L146.943 159.464C146.741 159.965 146.383 160.365 145.871 160.664C145.359 160.952 144.714 161.096 143.935 161.096ZM157.085 161L153.805 156.872L155.069 156.104L158.893 161H157.085ZM150.941 161V152.52H152.477V161H150.941ZM152.013 157.416V156.104H154.813V157.416H152.013ZM155.197 156.936L153.773 156.744L157.021 152.52H158.669L155.197 156.936ZM164.801 161V152.52H172.657V161H171.121V153.48L171.489 153.864H165.969L166.337 153.48V161H164.801ZM180.125 161.096C179.421 161.096 178.775 160.936 178.189 160.616C177.613 160.285 177.149 159.8 176.797 159.16C176.455 158.52 176.285 157.72 176.285 156.76C176.285 155.8 176.45 155 176.781 154.36C177.122 153.72 177.581 153.24 178.157 152.92C178.743 152.6 179.399 152.44 180.125 152.44C180.957 152.44 181.693 152.621 182.333 152.984C182.973 153.347 183.479 153.853 183.853 154.504C184.226 155.144 184.413 155.896 184.413 156.76C184.413 157.624 184.226 158.381 183.853 159.032C183.479 159.683 182.973 160.189 182.333 160.552C181.693 160.915 180.957 161.096 180.125 161.096ZM175.629 164.104V152.52H177.101V154.808L177.005 156.776L177.165 158.744V164.104H175.629ZM179.997 159.752C180.541 159.752 181.026 159.629 181.453 159.384C181.89 159.139 182.231 158.792 182.477 158.344C182.733 157.885 182.861 157.357 182.861 156.76C182.861 156.152 182.733 155.629 182.477 155.192C182.231 154.744 181.89 154.397 181.453 154.152C181.026 153.907 180.541 153.784 179.997 153.784C179.463 153.784 178.978 153.907 178.541 154.152C178.114 154.397 177.773 154.744 177.517 155.192C177.271 155.629 177.149 156.152 177.149 156.76C177.149 157.357 177.271 157.885 177.517 158.344C177.773 158.792 178.114 159.139 178.541 159.384C178.978 159.629 179.463 159.752 179.997 159.752ZM191.766 161V159.208L191.686 158.872V155.816C191.686 155.165 191.494 154.664 191.11 154.312C190.737 153.949 190.171 153.768 189.414 153.768C188.913 153.768 188.422 153.853 187.942 154.024C187.462 154.184 187.057 154.403 186.726 154.68L186.086 153.528C186.523 153.176 187.046 152.909 187.654 152.728C188.273 152.536 188.918 152.44 189.59 152.44C190.753 152.44 191.649 152.723 192.278 153.288C192.907 153.853 193.222 154.717 193.222 155.88V161H191.766ZM188.982 161.096C188.353 161.096 187.798 160.989 187.318 160.776C186.849 160.563 186.486 160.269 186.23 159.896C185.974 159.512 185.846 159.08 185.846 158.6C185.846 158.141 185.953 157.725 186.166 157.352C186.39 156.979 186.747 156.68 187.238 156.456C187.739 156.232 188.411 156.12 189.254 156.12H191.942V157.224H189.318C188.55 157.224 188.033 157.352 187.766 157.608C187.499 157.864 187.366 158.173 187.366 158.536C187.366 158.952 187.531 159.288 187.862 159.544C188.193 159.789 188.651 159.912 189.238 159.912C189.814 159.912 190.315 159.784 190.742 159.528C191.179 159.272 191.494 158.899 191.686 158.408L191.99 159.464C191.787 159.965 191.43 160.365 190.918 160.664C190.406 160.952 189.761 161.096 188.982 161.096ZM195.988 161V152.52H199.924C200.916 152.52 201.695 152.712 202.26 153.096C202.836 153.469 203.124 154.003 203.124 154.696C203.124 155.389 202.852 155.928 202.308 156.312C201.775 156.685 201.065 156.872 200.18 156.872L200.42 156.456C201.433 156.456 202.185 156.643 202.676 157.016C203.167 157.389 203.412 157.939 203.412 158.664C203.412 159.4 203.135 159.976 202.58 160.392C202.036 160.797 201.199 161 200.068 161H195.988ZM197.492 159.816H199.956C200.596 159.816 201.076 159.72 201.396 159.528C201.716 159.325 201.876 159.005 201.876 158.568C201.876 158.12 201.727 157.795 201.428 157.592C201.14 157.379 200.681 157.272 200.052 157.272H197.492V159.816ZM197.492 156.168H199.796C200.383 156.168 200.825 156.061 201.124 155.848C201.433 155.624 201.588 155.315 201.588 154.92C201.588 154.515 201.433 154.211 201.124 154.008C200.825 153.805 200.383 153.704 199.796 153.704H197.492V156.168ZM205.816 161V152.52H207.352V158.696L212.552 152.52H213.944V161H212.408V154.824L207.224 161H205.816ZM215.518 160.984L215.614 159.688C215.688 159.699 215.758 159.709 215.822 159.72C215.886 159.731 215.944 159.736 215.998 159.736C216.339 159.736 216.606 159.619 216.798 159.384C217 159.149 217.15 158.84 217.246 158.456C217.342 158.061 217.411 157.619 217.454 157.128C217.496 156.637 217.528 156.147 217.549 155.656L217.694 152.52H224.206V161H222.67V153.416L223.038 153.864H218.686L219.038 153.4L218.926 155.752C218.894 156.499 218.835 157.197 218.75 157.848C218.664 158.499 218.531 159.069 218.35 159.56C218.179 160.051 217.939 160.435 217.63 160.712C217.331 160.989 216.942 161.128 216.462 161.128C216.323 161.128 216.174 161.112 216.014 161.08C215.864 161.059 215.699 161.027 215.518 160.984ZM230.808 161.096C229.954 161.096 229.197 160.909 228.536 160.536C227.874 160.163 227.352 159.651 226.968 159C226.584 158.339 226.392 157.592 226.392 156.76C226.392 155.917 226.584 155.171 226.968 154.52C227.352 153.869 227.874 153.363 228.536 153C229.197 152.627 229.954 152.44 230.808 152.44C231.65 152.44 232.402 152.627 233.064 153C233.736 153.363 234.258 153.869 234.632 154.52C235.016 155.16 235.208 155.907 235.208 156.76C235.208 157.603 235.016 158.349 234.632 159C234.258 159.651 233.736 160.163 233.064 160.536C232.402 160.909 231.65 161.096 230.808 161.096ZM230.808 159.752C231.352 159.752 231.837 159.629 232.264 159.384C232.701 159.139 233.042 158.792 233.288 158.344C233.533 157.885 233.656 157.357 233.656 156.76C233.656 156.152 233.533 155.629 233.288 155.192C233.042 154.744 232.701 154.397 232.264 154.152C231.837 153.907 231.352 153.784 230.808 153.784C230.264 153.784 229.778 153.907 229.352 154.152C228.925 154.397 228.584 154.744 228.328 155.192C228.072 155.629 227.944 156.152 227.944 156.76C227.944 157.357 228.072 157.885 228.328 158.344C228.584 158.792 228.925 159.139 229.352 159.384C229.778 159.629 230.264 159.752 230.808 159.752ZM20.184 181.096C19.32 181.096 18.5467 180.909 17.864 180.536C17.192 180.163 16.664 179.651 16.28 179C15.896 178.349 15.704 177.603 15.704 176.76C15.704 175.917 15.896 175.171 16.28 174.52C16.664 173.869 17.192 173.363 17.864 173C18.5467 172.627 19.32 172.44 20.184 172.44C20.952 172.44 21.6347 172.595 22.232 172.904C22.84 173.203 23.3093 173.651 23.64 174.248L22.472 175C22.1947 174.584 21.8533 174.28 21.448 174.088C21.0533 173.885 20.6267 173.784 20.168 173.784C19.6133 173.784 19.1173 173.907 18.68 174.152C18.2427 174.397 17.896 174.744 17.64 175.192C17.384 175.629 17.256 176.152 17.256 176.76C17.256 177.368 17.384 177.896 17.64 178.344C17.896 178.792 18.2427 179.139 18.68 179.384C19.1173 179.629 19.6133 179.752 20.168 179.752C20.6267 179.752 21.0533 179.656 21.448 179.464C21.8533 179.261 22.1947 178.952 22.472 178.536L23.64 179.272C23.3093 179.859 22.84 180.312 22.232 180.632C21.6347 180.941 20.952 181.096 20.184 181.096ZM27.1993 181V173.464L27.5833 173.864H24.0953V172.52H31.8393V173.864H28.3673L28.7352 173.464V181H27.1993ZM36.6669 181.096C35.8135 181.096 35.0562 180.909 34.3949 180.536C33.7335 180.163 33.2109 179.651 32.8269 179C32.4429 178.339 32.2509 177.592 32.2509 176.76C32.2509 175.917 32.4429 175.171 32.8269 174.52C33.2109 173.869 33.7335 173.363 34.3949 173C35.0562 172.627 35.8135 172.44 36.6669 172.44C37.5095 172.44 38.2615 172.627 38.9229 173C39.5949 173.363 40.1175 173.869 40.4909 174.52C40.8749 175.16 41.0669 175.907 41.0669 176.76C41.0669 177.603 40.8749 178.349 40.4909 179C40.1175 179.651 39.5949 180.163 38.9229 180.536C38.2615 180.909 37.5095 181.096 36.6669 181.096ZM36.6669 179.752C37.2109 179.752 37.6962 179.629 38.1229 179.384C38.5602 179.139 38.9015 178.792 39.1469 178.344C39.3922 177.885 39.5149 177.357 39.5149 176.76C39.5149 176.152 39.3922 175.629 39.1469 175.192C38.9015 174.744 38.5602 174.397 38.1229 174.152C37.6962 173.907 37.2109 173.784 36.6669 173.784C36.1229 173.784 35.6375 173.907 35.2109 174.152C34.7842 174.397 34.4429 174.744 34.1869 175.192C33.9309 175.629 33.8029 176.152 33.8029 176.76C33.8029 177.357 33.9309 177.885 34.1869 178.344C34.4429 178.792 34.7842 179.139 35.2109 179.384C35.6375 179.629 36.1229 179.752 36.6669 179.752ZM43.2849 181V172.52H44.8209V178.696L50.0209 172.52H51.4129V181H49.8769V174.824L44.6929 181H43.2849ZM54.3943 181V172.52H55.9783L59.6263 178.792H58.9863L62.7303 172.52H64.1703V181H62.7783V174.248L63.0343 174.392L59.6103 180.04H58.9383L55.4983 174.28L55.8023 174.216V181H54.3943ZM70.7919 181.096C69.9385 181.096 69.1812 180.909 68.5199 180.536C67.8585 180.163 67.3359 179.651 66.9519 179C66.5679 178.339 66.3759 177.592 66.3759 176.76C66.3759 175.917 66.5679 175.171 66.9519 174.52C67.3359 173.869 67.8585 173.363 68.5199 173C69.1812 172.627 69.9385 172.44 70.7919 172.44C71.6345 172.44 72.3865 172.627 73.0479 173C73.7199 173.363 74.2425 173.869 74.6159 174.52C74.9999 175.16 75.1919 175.907 75.1919 176.76C75.1919 177.603 74.9999 178.349 74.6159 179C74.2425 179.651 73.7199 180.163 73.0479 180.536C72.3865 180.909 71.6345 181.096 70.7919 181.096ZM70.7919 179.752C71.3359 179.752 71.8212 179.629 72.2479 179.384C72.6852 179.139 73.0265 178.792 73.2719 178.344C73.5172 177.885 73.6399 177.357 73.6399 176.76C73.6399 176.152 73.5172 175.629 73.2719 175.192C73.0265 174.744 72.6852 174.397 72.2479 174.152C71.8212 173.907 71.3359 173.784 70.7919 173.784C70.2479 173.784 69.7625 173.907 69.3359 174.152C68.9092 174.397 68.5679 174.744 68.3119 175.192C68.0559 175.629 67.9279 176.152 67.9279 176.76C67.9279 177.357 68.0559 177.885 68.3119 178.344C68.5679 178.792 68.9092 179.139 69.3359 179.384C69.7625 179.629 70.2479 179.752 70.7919 179.752ZM81.1059 181.096C80.2419 181.096 79.4685 180.909 78.7859 180.536C78.1139 180.163 77.5859 179.651 77.2019 179C76.8179 178.349 76.6259 177.603 76.6259 176.76C76.6259 175.917 76.8179 175.171 77.2019 174.52C77.5859 173.869 78.1139 173.363 78.7859 173C79.4685 172.627 80.2419 172.44 81.1059 172.44C81.8739 172.44 82.5565 172.595 83.1539 172.904C83.7619 173.203 84.2312 173.651 84.5619 174.248L83.3939 175C83.1165 174.584 82.7752 174.28 82.3699 174.088C81.9752 173.885 81.5485 173.784 81.0899 173.784C80.5352 173.784 80.0392 173.907 79.6019 174.152C79.1645 174.397 78.8179 174.744 78.5619 175.192C78.3059 175.629 78.1779 176.152 78.1779 176.76C78.1779 177.368 78.3059 177.896 78.5619 178.344C78.8179 178.792 79.1645 179.139 79.6019 179.384C80.0392 179.629 80.5352 179.752 81.0899 179.752C81.5485 179.752 81.9752 179.656 82.3699 179.464C82.7752 179.261 83.1165 178.952 83.3939 178.536L84.5619 179.272C84.2312 179.859 83.7619 180.312 83.1539 180.632C82.5565 180.941 81.8739 181.096 81.1059 181.096ZM88.1211 181V173.464L88.5051 173.864H85.0171V172.52H92.7611V173.864H89.2891L89.6571 173.464V181H88.1211ZM98.2518 175.4C99.3291 175.411 100.15 175.656 100.716 176.136C101.281 176.616 101.564 177.293 101.564 178.168C101.564 179.085 101.254 179.795 100.636 180.296C100.017 180.787 99.1424 181.027 98.0118 181.016L94.3318 181V172.52H95.8678V175.384L98.2518 175.4ZM97.8838 179.848C98.5771 179.859 99.0998 179.72 99.4518 179.432C99.8144 179.144 99.9958 178.717 99.9958 178.152C99.9958 177.597 99.8198 177.192 99.4678 176.936C99.1158 176.68 98.5878 176.547 97.8838 176.536L95.8678 176.504V179.832L97.8838 179.848ZM111.464 181.096C110.61 181.096 109.853 180.909 109.192 180.536C108.53 180.163 108.008 179.651 107.624 179C107.24 178.339 107.048 177.592 107.048 176.76C107.048 175.917 107.24 175.171 107.624 174.52C108.008 173.869 108.53 173.363 109.192 173C109.853 172.627 110.61 172.44 111.464 172.44C112.306 172.44 113.058 172.627 113.72 173C114.392 173.363 114.914 173.869 115.288 174.52C115.672 175.16 115.864 175.907 115.864 176.76C115.864 177.603 115.672 178.349 115.288 179C114.914 179.651 114.392 180.163 113.72 180.536C113.058 180.909 112.306 181.096 111.464 181.096ZM111.464 179.752C112.008 179.752 112.493 179.629 112.92 179.384C113.357 179.139 113.698 178.792 113.944 178.344C114.189 177.885 114.312 177.357 114.312 176.76C114.312 176.152 114.189 175.629 113.944 175.192C113.698 174.744 113.357 174.397 112.92 174.152C112.493 173.907 112.008 173.784 111.464 173.784C110.92 173.784 110.434 173.907 110.008 174.152C109.581 174.397 109.24 174.744 108.984 175.192C108.728 175.629 108.6 176.152 108.6 176.76C108.6 177.357 108.728 177.885 108.984 178.344C109.24 178.792 109.581 179.139 110.008 179.384C110.434 179.629 110.92 179.752 111.464 179.752ZM118.082 181V172.52H125.938V181H124.402V173.48L124.77 173.864H119.25L119.618 173.48V181H118.082ZM129.342 184.2C128.937 184.2 128.542 184.131 128.158 183.992C127.774 183.864 127.443 183.672 127.166 183.416L127.822 182.264C128.035 182.467 128.27 182.621 128.526 182.728C128.782 182.835 129.054 182.888 129.342 182.888C129.715 182.888 130.025 182.792 130.27 182.6C130.515 182.408 130.745 182.067 130.958 181.576L131.486 180.408L131.646 180.216L134.974 172.52H136.478L132.366 181.848C132.121 182.445 131.843 182.915 131.534 183.256C131.235 183.597 130.905 183.837 130.542 183.976C130.179 184.125 129.779 184.2 129.342 184.2ZM131.358 181.272L127.486 172.52H129.086L132.382 180.072L131.358 181.272ZM141.512 181.096C140.648 181.096 139.875 180.909 139.192 180.536C138.52 180.163 137.992 179.651 137.608 179C137.224 178.349 137.032 177.603 137.032 176.76C137.032 175.917 137.224 175.171 137.608 174.52C137.992 173.869 138.52 173.363 139.192 173C139.875 172.627 140.648 172.44 141.512 172.44C142.28 172.44 142.963 172.595 143.56 172.904C144.168 173.203 144.637 173.651 144.968 174.248L143.8 175C143.523 174.584 143.181 174.28 142.776 174.088C142.381 173.885 141.955 173.784 141.496 173.784C140.941 173.784 140.445 173.907 140.008 174.152C139.571 174.397 139.224 174.744 138.968 175.192C138.712 175.629 138.584 176.152 138.584 176.76C138.584 177.368 138.712 177.896 138.968 178.344C139.224 178.792 139.571 179.139 140.008 179.384C140.445 179.629 140.941 179.752 141.496 179.752C141.955 179.752 142.381 179.656 142.776 179.464C143.181 179.261 143.523 178.952 143.8 178.536L144.968 179.272C144.637 179.859 144.168 180.312 143.56 180.632C142.963 180.941 142.28 181.096 141.512 181.096ZM153.101 181L149.821 176.872L151.085 176.104L154.909 181H153.101ZM146.957 181V172.52H148.493V181H146.957ZM148.029 177.416V176.104H150.829V177.416H148.029ZM151.213 176.936L149.789 176.744L153.037 172.52H154.685L151.213 176.936ZM161.563 181V179.208L161.483 178.872V175.816C161.483 175.165 161.291 174.664 160.907 174.312C160.534 173.949 159.968 173.768 159.211 173.768C158.71 173.768 158.219 173.853 157.739 174.024C157.259 174.184 156.854 174.403 156.523 174.68L155.883 173.528C156.32 173.176 156.843 172.909 157.451 172.728C158.07 172.536 158.715 172.44 159.387 172.44C160.55 172.44 161.446 172.723 162.075 173.288C162.704 173.853 163.019 174.717 163.019 175.88V181H161.563ZM158.779 181.096C158.15 181.096 157.595 180.989 157.115 180.776C156.646 180.563 156.283 180.269 156.027 179.896C155.771 179.512 155.643 179.08 155.643 178.6C155.643 178.141 155.75 177.725 155.963 177.352C156.187 176.979 156.544 176.68 157.035 176.456C157.536 176.232 158.208 176.12 159.051 176.12H161.739V177.224H159.115C158.347 177.224 157.83 177.352 157.563 177.608C157.296 177.864 157.163 178.173 157.163 178.536C157.163 178.952 157.328 179.288 157.659 179.544C157.99 179.789 158.448 179.912 159.035 179.912C159.611 179.912 160.112 179.784 160.539 179.528C160.976 179.272 161.291 178.899 161.483 178.408L161.787 179.464C161.584 179.965 161.227 180.365 160.715 180.664C160.203 180.952 159.558 181.096 158.779 181.096ZM169.561 181.096C168.654 181.096 167.854 180.909 167.161 180.536C166.478 180.163 165.945 179.651 165.561 179C165.188 178.349 165.001 177.603 165.001 176.76C165.001 175.917 165.182 175.171 165.545 174.52C165.918 173.869 166.425 173.363 167.065 173C167.716 172.627 168.446 172.44 169.257 172.44C170.078 172.44 170.804 172.621 171.433 172.984C172.062 173.347 172.553 173.859 172.905 174.52C173.268 175.171 173.449 175.933 173.449 176.808C173.449 176.872 173.444 176.947 173.433 177.032C173.433 177.117 173.428 177.197 173.417 177.272H166.201V176.168H172.617L171.993 176.552C172.004 176.008 171.892 175.523 171.657 175.096C171.422 174.669 171.097 174.339 170.681 174.104C170.276 173.859 169.801 173.736 169.257 173.736C168.724 173.736 168.249 173.859 167.833 174.104C167.417 174.339 167.092 174.675 166.857 175.112C166.622 175.539 166.505 176.029 166.505 176.584V176.84C166.505 177.405 166.633 177.912 166.889 178.36C167.156 178.797 167.524 179.139 167.993 179.384C168.462 179.629 169.001 179.752 169.609 179.752C170.11 179.752 170.564 179.667 170.969 179.496C171.385 179.325 171.748 179.069 172.057 178.728L172.905 179.72C172.521 180.168 172.041 180.509 171.465 180.744C170.9 180.979 170.265 181.096 169.561 181.096ZM177.152 181V173.464L177.536 173.864H174.048V172.52H181.792V173.864H178.32L178.688 173.464V181H177.152ZM186.684 181.096C185.82 181.096 185.047 180.909 184.364 180.536C183.692 180.163 183.164 179.651 182.78 179C182.396 178.349 182.204 177.603 182.204 176.76C182.204 175.917 182.396 175.171 182.78 174.52C183.164 173.869 183.692 173.363 184.364 173C185.047 172.627 185.82 172.44 186.684 172.44C187.452 172.44 188.135 172.595 188.732 172.904C189.34 173.203 189.809 173.651 190.14 174.248L188.972 175C188.695 174.584 188.353 174.28 187.948 174.088C187.553 173.885 187.127 173.784 186.668 173.784C186.113 173.784 185.617 173.907 185.18 174.152C184.743 174.397 184.396 174.744 184.14 175.192C183.884 175.629 183.756 176.152 183.756 176.76C183.756 177.368 183.884 177.896 184.14 178.344C184.396 178.792 184.743 179.139 185.18 179.384C185.617 179.629 186.113 179.752 186.668 179.752C187.127 179.752 187.553 179.656 187.948 179.464C188.353 179.261 188.695 178.952 188.972 178.536L190.14 179.272C189.809 179.859 189.34 180.312 188.732 180.632C188.135 180.941 187.452 181.096 186.684 181.096ZM197.287 181V178.024L197.527 178.312H194.823C193.692 178.312 192.807 178.072 192.167 177.592C191.538 177.112 191.223 176.413 191.223 175.496C191.223 174.515 191.559 173.773 192.231 173.272C192.914 172.771 193.82 172.52 194.951 172.52H198.663V181H197.287ZM191.143 181L193.447 177.752H195.031L192.791 181H191.143ZM197.287 177.544V173.432L197.527 173.864H194.999C194.295 173.864 193.751 173.997 193.367 174.264C192.983 174.52 192.791 174.947 192.791 175.544C192.791 176.653 193.506 177.208 194.935 177.208H197.527L197.287 177.544ZM205.957 181V172.52H207.493V176.12H212.325V172.52H213.861V181H212.325V177.448H207.493V181H205.957ZM222.047 181V179.208L221.967 178.872V175.816C221.967 175.165 221.775 174.664 221.391 174.312C221.018 173.949 220.453 173.768 219.695 173.768C219.194 173.768 218.703 173.853 218.223 174.024C217.743 174.184 217.338 174.403 217.007 174.68L216.367 173.528C216.805 173.176 217.327 172.909 217.935 172.728C218.554 172.536 219.199 172.44 219.871 172.44C221.034 172.44 221.93 172.723 222.559 173.288C223.189 173.853 223.503 174.717 223.503 175.88V181H222.047ZM219.263 181.096C218.634 181.096 218.079 180.989 217.599 180.776C217.13 180.563 216.767 180.269 216.511 179.896C216.255 179.512 216.127 179.08 216.127 178.6C216.127 178.141 216.234 177.725 216.447 177.352C216.671 176.979 217.029 176.68 217.519 176.456C218.021 176.232 218.693 176.12 219.535 176.12H222.223V177.224H219.599C218.831 177.224 218.314 177.352 218.047 177.608C217.781 177.864 217.647 178.173 217.647 178.536C217.647 178.952 217.813 179.288 218.143 179.544C218.474 179.789 218.933 179.912 219.519 179.912C220.095 179.912 220.597 179.784 221.023 179.528C221.461 179.272 221.775 178.899 221.967 178.408L222.271 179.464C222.069 179.965 221.711 180.365 221.199 180.664C220.687 180.952 220.042 181.096 219.263 181.096ZM17.656 201V190.44L18.344 191.192H15.128V189.8H19.24V201H17.656ZM26.2659 201.128C25.3912 201.128 24.6072 200.904 23.9139 200.456C23.2312 200.008 22.6872 199.357 22.2819 198.504C21.8872 197.651 21.6899 196.616 21.6899 195.4C21.6899 194.184 21.8872 193.149 22.2819 192.296C22.6872 191.443 23.2312 190.792 23.9139 190.344C24.6072 189.896 25.3912 189.672 26.2659 189.672C27.1299 189.672 27.9085 189.896 28.6019 190.344C29.2952 190.792 29.8392 191.443 30.2339 192.296C30.6285 193.149 30.8259 194.184 30.8259 195.4C30.8259 196.616 30.6285 197.651 30.2339 198.504C29.8392 199.357 29.2952 200.008 28.6019 200.456C27.9085 200.904 27.1299 201.128 26.2659 201.128ZM26.2659 199.704C26.8525 199.704 27.3645 199.544 27.8019 199.224C28.2499 198.904 28.5965 198.424 28.8419 197.784C29.0979 197.144 29.2259 196.349 29.2259 195.4C29.2259 194.451 29.0979 193.656 28.8419 193.016C28.5965 192.376 28.2499 191.896 27.8019 191.576C27.3645 191.256 26.8525 191.096 26.2659 191.096C25.6792 191.096 25.1619 191.256 24.7139 191.576C24.2659 191.896 23.9139 192.376 23.6579 193.016C23.4125 193.656 23.2899 194.451 23.2899 195.4C23.2899 196.349 23.4125 197.144 23.6579 197.784C23.9139 198.424 24.2659 198.904 24.7139 199.224C25.1619 199.544 25.6792 199.704 26.2659 199.704ZM32.6151 197.272V195.944H36.9191V197.272H32.6151ZM38.217 201V199.912L42.777 195.512C43.1823 195.128 43.481 194.792 43.673 194.504C43.8757 194.205 44.009 193.933 44.073 193.688C44.1477 193.432 44.185 193.187 44.185 192.952C44.185 192.376 43.9823 191.923 43.577 191.592C43.1717 191.261 42.5797 191.096 41.801 191.096C41.2037 191.096 40.665 191.197 40.185 191.4C39.705 191.592 39.289 191.896 38.937 192.312L37.849 191.368C38.2757 190.824 38.8463 190.408 39.561 190.12C40.2863 189.821 41.081 189.672 41.945 189.672C42.7237 189.672 43.401 189.8 43.977 190.056C44.553 190.301 44.9957 190.659 45.305 191.128C45.625 191.597 45.785 192.152 45.785 192.792C45.785 193.155 45.737 193.512 45.641 193.864C45.545 194.216 45.3637 194.589 45.097 194.984C44.8303 195.379 44.4463 195.821 43.945 196.312L39.881 200.232L39.497 199.608H46.265V201H38.217ZM52.1409 201.128C51.2662 201.128 50.4822 200.904 49.7889 200.456C49.1062 200.008 48.5622 199.357 48.1569 198.504C47.7622 197.651 47.5649 196.616 47.5649 195.4C47.5649 194.184 47.7622 193.149 48.1569 192.296C48.5622 191.443 49.1062 190.792 49.7889 190.344C50.4822 189.896 51.2662 189.672 52.1409 189.672C53.0049 189.672 53.7835 189.896 54.4769 190.344C55.1702 190.792 55.7142 191.443 56.1089 192.296C56.5035 193.149 56.7009 194.184 56.7009 195.4C56.7009 196.616 56.5035 197.651 56.1089 198.504C55.7142 199.357 55.1702 200.008 54.4769 200.456C53.7835 200.904 53.0049 201.128 52.1409 201.128ZM52.1409 199.704C52.7275 199.704 53.2395 199.544 53.6769 199.224C54.1249 198.904 54.4715 198.424 54.7169 197.784C54.9729 197.144 55.1009 196.349 55.1009 195.4C55.1009 194.451 54.9729 193.656 54.7169 193.016C54.4715 192.376 54.1249 191.896 53.6769 191.576C53.2395 191.256 52.7275 191.096 52.1409 191.096C51.5542 191.096 51.0369 191.256 50.5889 191.576C50.1409 191.896 49.7889 192.376 49.5329 193.016C49.2875 193.656 49.1649 194.451 49.1649 195.4C49.1649 196.349 49.2875 197.144 49.5329 197.784C49.7889 198.424 50.1409 198.904 50.5889 199.224C51.0369 199.544 51.5542 199.704 52.1409 199.704ZM59.7728 201L67.4208 189.8H68.6528L61.0048 201H59.7728ZM60.6688 195.816C60.1568 195.816 59.7034 195.688 59.3088 195.432C58.9141 195.176 58.6048 194.819 58.3808 194.36C58.1674 193.901 58.0608 193.368 58.0608 192.76C58.0608 192.152 58.1674 191.619 58.3808 191.16C58.6048 190.701 58.9141 190.344 59.3088 190.088C59.7034 189.832 60.1568 189.704 60.6688 189.704C61.1914 189.704 61.6448 189.832 62.0288 190.088C62.4234 190.344 62.7274 190.701 62.9408 191.16C63.1541 191.619 63.2608 192.152 63.2608 192.76C63.2608 193.368 63.1541 193.901 62.9408 194.36C62.7274 194.819 62.4234 195.176 62.0288 195.432C61.6448 195.688 61.1914 195.816 60.6688 195.816ZM60.6688 194.904C61.1594 194.904 61.5434 194.717 61.8208 194.344C62.0981 193.96 62.2368 193.432 62.2368 192.76C62.2368 192.088 62.0981 191.565 61.8208 191.192C61.5434 190.808 61.1594 190.616 60.6688 190.616C60.1888 190.616 59.8048 190.808 59.5168 191.192C59.2394 191.565 59.1008 192.088 59.1008 192.76C59.1008 193.421 59.2394 193.944 59.5168 194.328C59.8048 194.712 60.1888 194.904 60.6688 194.904ZM67.7568 201.096C67.2448 201.096 66.7914 200.968 66.3968 200.712C66.0021 200.456 65.6981 200.099 65.4848 199.64C65.2714 199.181 65.1648 198.648 65.1648 198.04C65.1648 197.432 65.2714 196.899 65.4848 196.44C65.6981 195.981 66.0021 195.624 66.3968 195.368C66.7914 195.112 67.2448 194.984 67.7568 194.984C68.2794 194.984 68.7328 195.112 69.1168 195.368C69.5114 195.624 69.8154 195.981 70.0288 196.44C70.2528 196.899 70.3648 197.432 70.3648 198.04C70.3648 198.648 70.2528 199.181 70.0288 199.64C69.8154 200.099 69.5114 200.456 69.1168 200.712C68.7328 200.968 68.2794 201.096 67.7568 201.096ZM67.7568 200.184C68.2368 200.184 68.6154 199.997 68.8928 199.624C69.1808 199.24 69.3248 198.712 69.3248 198.04C69.3248 197.379 69.1808 196.856 68.8928 196.472C68.6154 196.088 68.2368 195.896 67.7568 195.896C67.2768 195.896 66.8928 196.088 66.6048 196.472C66.3274 196.845 66.1888 197.368 66.1888 198.04C66.1888 198.712 66.3274 199.24 66.6048 199.624C66.8928 199.997 67.2768 200.184 67.7568 200.184ZM72.2855 203.368L73.0855 200.136L73.2935 201.064C72.9842 201.064 72.7228 200.968 72.5095 200.776C72.3068 200.584 72.2055 200.323 72.2055 199.992C72.2055 199.672 72.3068 199.411 72.5095 199.208C72.7228 199.005 72.9788 198.904 73.2775 198.904C73.5868 198.904 73.8375 199.011 74.0295 199.224C74.2215 199.427 74.3175 199.683 74.3175 199.992C74.3175 200.099 74.3068 200.205 74.2855 200.312C74.2748 200.408 74.2482 200.525 74.2055 200.664C74.1735 200.792 74.1202 200.952 74.0455 201.144L73.2935 203.368H72.2855ZM80.8474 201V192.52H84.7834C85.7754 192.52 86.554 192.712 87.1194 193.096C87.6954 193.469 87.9834 194.003 87.9834 194.696C87.9834 195.389 87.7114 195.928 87.1674 196.312C86.634 196.685 85.9247 196.872 85.0394 196.872L85.2794 196.456C86.2927 196.456 87.0447 196.643 87.5354 197.016C88.026 197.389 88.2714 197.939 88.2714 198.664C88.2714 199.4 87.994 199.976 87.4394 200.392C86.8954 200.797 86.058 201 84.9274 201H80.8474ZM82.3514 199.816H84.8154C85.4554 199.816 85.9354 199.72 86.2554 199.528C86.5754 199.325 86.7354 199.005 86.7354 198.568C86.7354 198.12 86.586 197.795 86.2874 197.592C85.9994 197.379 85.5407 197.272 84.9114 197.272H82.3514V199.816ZM82.3514 196.168H84.6554C85.242 196.168 85.6847 196.061 85.9834 195.848C86.2927 195.624 86.4474 195.315 86.4474 194.92C86.4474 194.515 86.2927 194.211 85.9834 194.008C85.6847 193.805 85.242 193.704 84.6554 193.704H82.3514V196.168ZM99.4684 201.096C98.7644 201.096 98.119 200.936 97.5324 200.616C96.9564 200.285 96.4924 199.8 96.1404 199.16C95.799 198.52 95.6284 197.72 95.6284 196.76C95.6284 195.8 95.7937 195 96.1244 194.36C96.4657 193.72 96.9244 193.24 97.5004 192.92C98.087 192.6 98.743 192.44 99.4684 192.44C100.3 192.44 101.036 192.621 101.676 192.984C102.316 193.347 102.823 193.853 103.196 194.504C103.57 195.144 103.756 195.896 103.756 196.76C103.756 197.624 103.57 198.381 103.196 199.032C102.823 199.683 102.316 200.189 101.676 200.552C101.036 200.915 100.3 201.096 99.4684 201.096ZM94.9724 204.104V192.52H96.4444V194.808L96.3484 196.776L96.5084 198.744V204.104H94.9724ZM99.3404 199.752C99.8844 199.752 100.37 199.629 100.796 199.384C101.234 199.139 101.575 198.792 101.82 198.344C102.076 197.885 102.204 197.357 102.204 196.76C102.204 196.152 102.076 195.629 101.82 195.192C101.575 194.744 101.234 194.397 100.796 194.152C100.37 193.907 99.8844 193.784 99.3404 193.784C98.807 193.784 98.3217 193.907 97.8844 194.152C97.4577 194.397 97.1164 194.744 96.8604 195.192C96.615 195.629 96.4924 196.152 96.4924 196.76C96.4924 197.357 96.615 197.885 96.8604 198.344C97.1164 198.792 97.4577 199.139 97.8844 199.384C98.3217 199.629 98.807 199.752 99.3404 199.752ZM109.764 201.096C108.857 201.096 108.057 200.909 107.364 200.536C106.681 200.163 106.148 199.651 105.764 199C105.391 198.349 105.204 197.603 105.204 196.76C105.204 195.917 105.385 195.171 105.748 194.52C106.121 193.869 106.628 193.363 107.268 193C107.919 192.627 108.649 192.44 109.46 192.44C110.281 192.44 111.007 192.621 111.636 192.984C112.265 193.347 112.756 193.859 113.108 194.52C113.471 195.171 113.652 195.933 113.652 196.808C113.652 196.872 113.647 196.947 113.636 197.032C113.636 197.117 113.631 197.197 113.62 197.272H106.404V196.168H112.82L112.196 196.552C112.207 196.008 112.095 195.523 111.86 195.096C111.625 194.669 111.3 194.339 110.884 194.104C110.479 193.859 110.004 193.736 109.46 193.736C108.927 193.736 108.452 193.859 108.036 194.104C107.62 194.339 107.295 194.675 107.06 195.112C106.825 195.539 106.708 196.029 106.708 196.584V196.84C106.708 197.405 106.836 197.912 107.092 198.36C107.359 198.797 107.727 199.139 108.196 199.384C108.665 199.629 109.204 199.752 109.812 199.752C110.313 199.752 110.767 199.667 111.172 199.496C111.588 199.325 111.951 199.069 112.26 198.728L113.108 199.72C112.724 200.168 112.244 200.509 111.668 200.744C111.103 200.979 110.468 201.096 109.764 201.096ZM121.686 200.28V193.864H118.006L117.926 195.496C117.905 196.029 117.868 196.547 117.814 197.048C117.772 197.539 117.697 197.992 117.59 198.408C117.494 198.824 117.35 199.165 117.158 199.432C116.966 199.699 116.71 199.864 116.39 199.928L114.87 199.656C115.201 199.667 115.468 199.56 115.67 199.336C115.873 199.101 116.028 198.781 116.134 198.376C116.252 197.971 116.337 197.512 116.39 197C116.444 196.477 116.486 195.939 116.518 195.384L116.646 192.52H123.222V200.28H121.686ZM114.534 202.968V199.656H124.518V202.968H123.078V201H115.99V202.968H114.534ZM132.663 201L129.383 196.872L130.647 196.104L134.471 201H132.663ZM126.519 201V192.52H128.055V201H126.519ZM127.591 197.416V196.104H130.391V197.416H127.591ZM130.775 196.936L129.351 196.744L132.599 192.52H134.247L130.775 196.936ZM136.082 201V192.52H137.618V198.696L142.818 192.52H144.21V201H142.674V194.824L137.49 201H136.082ZM145.847 201L149.495 196.264L149.479 197.048L146.007 192.52H147.719L150.375 196.008H149.719L152.375 192.52H154.055L150.535 197.08L150.551 196.264L154.231 201H152.487L149.687 197.288L150.311 197.384L147.559 201H145.847ZM163.84 201.096C162.976 201.096 162.203 200.909 161.52 200.536C160.848 200.163 160.32 199.651 159.936 199C159.552 198.349 159.36 197.603 159.36 196.76C159.36 195.917 159.552 195.171 159.936 194.52C160.32 193.869 160.848 193.363 161.52 193C162.203 192.627 162.976 192.44 163.84 192.44C164.608 192.44 165.291 192.595 165.888 192.904C166.496 193.203 166.966 193.651 167.296 194.248L166.128 195C165.851 194.584 165.51 194.28 165.104 194.088C164.71 193.885 164.283 193.784 163.824 193.784C163.27 193.784 162.774 193.907 162.336 194.152C161.899 194.397 161.552 194.744 161.296 195.192C161.04 195.629 160.912 196.152 160.912 196.76C160.912 197.368 161.04 197.896 161.296 198.344C161.552 198.792 161.899 199.139 162.336 199.384C162.774 199.629 163.27 199.752 163.824 199.752C164.283 199.752 164.71 199.656 165.104 199.464C165.51 199.261 165.851 198.952 166.128 198.536L167.296 199.272C166.966 199.859 166.496 200.312 165.888 200.632C165.291 200.941 164.608 201.096 163.84 201.096ZM167.627 200.984L167.723 199.688C167.798 199.699 167.867 199.709 167.931 199.72C167.995 199.731 168.054 199.736 168.107 199.736C168.448 199.736 168.715 199.619 168.907 199.384C169.11 199.149 169.259 198.84 169.355 198.456C169.451 198.061 169.52 197.619 169.563 197.128C169.606 196.637 169.638 196.147 169.659 195.656L169.803 192.52H176.315V201H174.779V193.416L175.147 193.864H170.795L171.147 193.4L171.035 195.752C171.003 196.499 170.944 197.197 170.859 197.848C170.774 198.499 170.64 199.069 170.459 199.56C170.288 200.051 170.048 200.435 169.739 200.712C169.44 200.989 169.051 201.128 168.571 201.128C168.432 201.128 168.283 201.112 168.123 201.08C167.974 201.059 167.808 201.027 167.627 200.984ZM179.717 204.2C179.312 204.2 178.917 204.131 178.533 203.992C178.149 203.864 177.818 203.672 177.541 203.416L178.197 202.264C178.41 202.467 178.645 202.621 178.901 202.728C179.157 202.835 179.429 202.888 179.717 202.888C180.09 202.888 180.4 202.792 180.645 202.6C180.89 202.408 181.12 202.067 181.333 201.576L181.861 200.408L182.021 200.216L185.349 192.52H186.853L182.741 201.848C182.496 202.445 182.218 202.915 181.909 203.256C181.61 203.597 181.28 203.837 180.917 203.976C180.554 204.125 180.154 204.2 179.717 204.2ZM181.733 201.272L177.861 192.52H179.461L182.757 200.072L181.733 201.272ZM193.77 197.528C193.322 197.741 192.858 197.912 192.378 198.04C191.908 198.157 191.423 198.216 190.922 198.216C189.898 198.216 189.087 197.976 188.49 197.496C187.903 197.016 187.61 196.275 187.61 195.272V192.52H189.146V195.176C189.146 195.784 189.332 196.232 189.706 196.52C190.09 196.808 190.602 196.952 191.242 196.952C191.647 196.952 192.063 196.899 192.49 196.792C192.927 196.685 193.354 196.536 193.77 196.344V197.528ZM193.658 201V192.52H195.194V201H193.658ZM203.376 201V199.208L203.296 198.872V195.816C203.296 195.165 203.104 194.664 202.72 194.312C202.346 193.949 201.781 193.768 201.024 193.768C200.522 193.768 200.032 193.853 199.552 194.024C199.072 194.184 198.666 194.403 198.336 194.68L197.696 193.528C198.133 193.176 198.656 192.909 199.264 192.728C199.882 192.536 200.528 192.44 201.2 192.44C202.362 192.44 203.258 192.723 203.888 193.288C204.517 193.853 204.832 194.717 204.832 195.88V201H203.376ZM200.592 201.096C199.962 201.096 199.408 200.989 198.928 200.776C198.458 200.563 198.096 200.269 197.84 199.896C197.584 199.512 197.456 199.08 197.456 198.6C197.456 198.141 197.562 197.725 197.776 197.352C198 196.979 198.357 196.68 198.848 196.456C199.349 196.232 200.021 196.12 200.864 196.12H203.552V197.224H200.928C200.16 197.224 199.642 197.352 199.376 197.608C199.109 197.864 198.976 198.173 198.976 198.536C198.976 198.952 199.141 199.288 199.472 199.544C199.802 199.789 200.261 199.912 200.848 199.912C201.424 199.912 201.925 199.784 202.352 199.528C202.789 199.272 203.104 198.899 203.296 198.408L203.6 199.464C203.397 199.965 203.04 200.365 202.528 200.664C202.016 200.952 201.37 201.096 200.592 201.096ZM213.021 201V198.024L213.261 198.312H210.557C209.427 198.312 208.541 198.072 207.901 197.592C207.272 197.112 206.957 196.413 206.957 195.496C206.957 194.515 207.293 193.773 207.965 193.272C208.648 192.771 209.555 192.52 210.685 192.52H214.397V201H213.021ZM206.877 201L209.181 197.752H210.765L208.525 201H206.877ZM213.021 197.544V193.432L213.261 193.864H210.733C210.029 193.864 209.485 193.997 209.101 194.264C208.717 194.52 208.525 194.947 208.525 195.544C208.525 196.653 209.24 197.208 210.669 197.208H213.261L213.021 197.544ZM216.05 201L219.698 196.264L219.682 197.048L216.21 192.52H217.922L220.578 196.008H219.922L222.578 192.52H224.258L220.738 197.08L220.754 196.264L224.434 201H222.69L219.89 197.288L220.514 197.384L217.762 201H216.05ZM22.28 220.28V213.864H18.6L18.52 215.496C18.4987 216.029 18.4613 216.547 18.408 217.048C18.3653 217.539 18.2907 217.992 18.184 218.408C18.088 218.824 17.944 219.165 17.752 219.432C17.56 219.699 17.304 219.864 16.984 219.928L15.464 219.656C15.7947 219.667 16.0613 219.56 16.264 219.336C16.4667 219.101 16.6213 218.781 16.728 218.376C16.8453 217.971 16.9307 217.512 16.984 217C17.0373 216.477 17.08 215.939 17.112 215.384L17.24 212.52H23.816V220.28H22.28ZM15.128 222.968V219.656H25.112V222.968H23.672V221H16.584V222.968H15.128ZM30.745 221.096C29.8917 221.096 29.1343 220.909 28.473 220.536C27.8117 220.163 27.289 219.651 26.905 219C26.521 218.339 26.329 217.592 26.329 216.76C26.329 215.917 26.521 215.171 26.905 214.52C27.289 213.869 27.8117 213.363 28.473 213C29.1343 212.627 29.8917 212.44 30.745 212.44C31.5877 212.44 32.3397 212.627 33.001 213C33.673 213.363 34.1957 213.869 34.569 214.52C34.953 215.16 35.145 215.907 35.145 216.76C35.145 217.603 34.953 218.349 34.569 219C34.1957 219.651 33.673 220.163 33.001 220.536C32.3397 220.909 31.5877 221.096 30.745 221.096ZM30.745 219.752C31.289 219.752 31.7743 219.629 32.201 219.384C32.6383 219.139 32.9797 218.792 33.225 218.344C33.4703 217.885 33.593 217.357 33.593 216.76C33.593 216.152 33.4703 215.629 33.225 215.192C32.9797 214.744 32.6383 214.397 32.201 214.152C31.7743 213.907 31.289 213.784 30.745 213.784C30.201 213.784 29.7157 213.907 29.289 214.152C28.8623 214.397 28.521 214.744 28.265 215.192C28.009 215.629 27.881 216.152 27.881 216.76C27.881 217.357 28.009 217.885 28.265 218.344C28.521 218.792 28.8623 219.139 29.289 219.384C29.7157 219.629 30.201 219.752 30.745 219.752ZM44.3639 221.128C43.5745 221.128 42.8065 221.005 42.0599 220.76C41.3239 220.515 40.7212 220.184 40.2519 219.768L40.9879 218.504C41.3612 218.856 41.8465 219.144 42.4439 219.368C43.0412 219.592 43.6812 219.704 44.3639 219.704C45.1959 219.704 45.8412 219.528 46.2999 219.176C46.7692 218.813 47.0039 218.328 47.0039 217.72C47.0039 217.133 46.7799 216.664 46.3319 216.312C45.8945 215.949 45.1959 215.768 44.2359 215.768H43.3399V214.648L46.6679 210.552L46.8919 211.192H40.7639V209.8H48.1559V210.888L44.8439 214.968L44.0119 214.472H44.5399C45.8945 214.472 46.9079 214.776 47.5799 215.384C48.2625 215.992 48.6039 216.765 48.6039 217.704C48.6039 218.333 48.4492 218.909 48.1399 219.432C47.8305 219.955 47.3612 220.371 46.7319 220.68C46.1132 220.979 45.3239 221.128 44.3639 221.128ZM54.6721 221.128C53.7975 221.128 53.0135 220.904 52.3201 220.456C51.6375 220.008 51.0935 219.357 50.6881 218.504C50.2935 217.651 50.0961 216.616 50.0961 215.4C50.0961 214.184 50.2935 213.149 50.6881 212.296C51.0935 211.443 51.6375 210.792 52.3201 210.344C53.0135 209.896 53.7975 209.672 54.6721 209.672C55.5361 209.672 56.3148 209.896 57.0081 210.344C57.7015 210.792 58.2455 211.443 58.6401 212.296C59.0348 213.149 59.2321 214.184 59.2321 215.4C59.2321 216.616 59.0348 217.651 58.6401 218.504C58.2455 219.357 57.7015 220.008 57.0081 220.456C56.3148 220.904 55.5361 221.128 54.6721 221.128ZM54.6721 219.704C55.2588 219.704 55.7708 219.544 56.2081 219.224C56.6561 218.904 57.0028 218.424 57.2481 217.784C57.5041 217.144 57.6321 216.349 57.6321 215.4C57.6321 214.451 57.5041 213.656 57.2481 213.016C57.0028 212.376 56.6561 211.896 56.2081 211.576C55.7708 211.256 55.2588 211.096 54.6721 211.096C54.0855 211.096 53.5681 211.256 53.1201 211.576C52.6721 211.896 52.3201 212.376 52.0641 213.016C51.8188 213.656 51.6961 214.451 51.6961 215.4C51.6961 216.349 51.8188 217.144 52.0641 217.784C52.3201 218.424 52.6721 218.904 53.1201 219.224C53.5681 219.544 54.0855 219.704 54.6721 219.704ZM62.304 221L69.952 209.8H71.184L63.536 221H62.304ZM63.2 215.816C62.688 215.816 62.2347 215.688 61.84 215.432C61.4453 215.176 61.136 214.819 60.912 214.36C60.6987 213.901 60.592 213.368 60.592 212.76C60.592 212.152 60.6987 211.619 60.912 211.16C61.136 210.701 61.4453 210.344 61.84 210.088C62.2347 209.832 62.688 209.704 63.2 209.704C63.7227 209.704 64.176 209.832 64.56 210.088C64.9547 210.344 65.2587 210.701 65.472 211.16C65.6853 211.619 65.792 212.152 65.792 212.76C65.792 213.368 65.6853 213.901 65.472 214.36C65.2587 214.819 64.9547 215.176 64.56 215.432C64.176 215.688 63.7227 215.816 63.2 215.816ZM63.2 214.904C63.6907 214.904 64.0747 214.717 64.352 214.344C64.6293 213.96 64.768 213.432 64.768 212.76C64.768 212.088 64.6293 211.565 64.352 211.192C64.0747 210.808 63.6907 210.616 63.2 210.616C62.72 210.616 62.336 210.808 62.048 211.192C61.7707 211.565 61.632 212.088 61.632 212.76C61.632 213.421 61.7707 213.944 62.048 214.328C62.336 214.712 62.72 214.904 63.2 214.904ZM70.288 221.096C69.776 221.096 69.3227 220.968 68.928 220.712C68.5333 220.456 68.2293 220.099 68.016 219.64C67.8027 219.181 67.696 218.648 67.696 218.04C67.696 217.432 67.8027 216.899 68.016 216.44C68.2293 215.981 68.5333 215.624 68.928 215.368C69.3227 215.112 69.776 214.984 70.288 214.984C70.8107 214.984 71.264 215.112 71.648 215.368C72.0427 215.624 72.3467 215.981 72.56 216.44C72.784 216.899 72.896 217.432 72.896 218.04C72.896 218.648 72.784 219.181 72.56 219.64C72.3467 220.099 72.0427 220.456 71.648 220.712C71.264 220.968 70.8107 221.096 70.288 221.096ZM70.288 220.184C70.768 220.184 71.1467 219.997 71.424 219.624C71.712 219.24 71.856 218.712 71.856 218.04C71.856 217.379 71.712 216.856 71.424 216.472C71.1467 216.088 70.768 215.896 70.288 215.896C69.808 215.896 69.424 216.088 69.136 216.472C68.8587 216.845 68.72 217.368 68.72 218.04C68.72 218.712 68.8587 219.24 69.136 219.624C69.424 219.997 69.808 220.184 70.288 220.184ZM82.9013 221.096C82.0479 221.096 81.2906 220.909 80.6293 220.536C79.9679 220.163 79.4453 219.651 79.0613 219C78.6773 218.339 78.4853 217.592 78.4853 216.76C78.4853 215.917 78.6773 215.171 79.0613 214.52C79.4453 213.869 79.9679 213.363 80.6293 213C81.2906 212.627 82.0479 212.44 82.9013 212.44C83.7439 212.44 84.4959 212.627 85.1573 213C85.8293 213.363 86.3519 213.869 86.7253 214.52C87.1093 215.16 87.3013 215.907 87.3013 216.76C87.3013 217.603 87.1093 218.349 86.7253 219C86.3519 219.651 85.8293 220.163 85.1573 220.536C84.4959 220.909 83.7439 221.096 82.9013 221.096ZM82.9013 219.752C83.4453 219.752 83.9306 219.629 84.3573 219.384C84.7946 219.139 85.1359 218.792 85.3813 218.344C85.6266 217.885 85.7493 217.357 85.7493 216.76C85.7493 216.152 85.6266 215.629 85.3813 215.192C85.1359 214.744 84.7946 214.397 84.3573 214.152C83.9306 213.907 83.4453 213.784 82.9013 213.784C82.3573 213.784 81.8719 213.907 81.4453 214.152C81.0186 214.397 80.6773 214.744 80.4213 215.192C80.1653 215.629 80.0373 216.152 80.0373 216.76C80.0373 217.357 80.1653 217.885 80.4213 218.344C80.6773 218.792 81.0186 219.139 81.4453 219.384C81.8719 219.629 82.3573 219.752 82.9013 219.752ZM90.8868 221V213.464L91.2708 213.864H87.7828V212.52H95.5268V213.864H92.0548L92.4227 213.464V221H90.8868ZM101.394 221V212.52H109.25V221H107.714V213.48L108.082 213.864H102.562L102.93 213.48V221H101.394ZM115.998 221.096C115.092 221.096 114.292 220.909 113.598 220.536C112.916 220.163 112.382 219.651 111.998 219C111.625 218.349 111.438 217.603 111.438 216.76C111.438 215.917 111.62 215.171 111.982 214.52C112.356 213.869 112.862 213.363 113.502 213C114.153 212.627 114.884 212.44 115.694 212.44C116.516 212.44 117.241 212.621 117.87 212.984C118.5 213.347 118.99 213.859 119.342 214.52C119.705 215.171 119.886 215.933 119.886 216.808C119.886 216.872 119.881 216.947 119.87 217.032C119.87 217.117 119.865 217.197 119.854 217.272H112.638V216.168H119.054L118.43 216.552C118.441 216.008 118.329 215.523 118.094 215.096C117.86 214.669 117.534 214.339 117.118 214.104C116.713 213.859 116.238 213.736 115.694 213.736C115.161 213.736 114.686 213.859 114.27 214.104C113.854 214.339 113.529 214.675 113.294 215.112C113.06 215.539 112.942 216.029 112.942 216.584V216.84C112.942 217.405 113.07 217.912 113.326 218.36C113.593 218.797 113.961 219.139 114.43 219.384C114.9 219.629 115.438 219.752 116.046 219.752C116.548 219.752 117.001 219.667 117.406 219.496C117.822 219.325 118.185 219.069 118.494 218.728L119.342 219.72C118.958 220.168 118.478 220.509 117.902 220.744C117.337 220.979 116.702 221.096 115.998 221.096ZM126.765 221.096C126.061 221.096 125.416 220.936 124.829 220.616C124.253 220.285 123.789 219.8 123.437 219.16C123.096 218.52 122.925 217.72 122.925 216.76C122.925 215.8 123.091 215 123.421 214.36C123.763 213.72 124.221 213.24 124.797 212.92C125.384 212.6 126.04 212.44 126.765 212.44C127.597 212.44 128.333 212.621 128.973 212.984C129.613 213.347 130.12 213.853 130.493 214.504C130.867 215.144 131.053 215.896 131.053 216.76C131.053 217.624 130.867 218.381 130.493 219.032C130.12 219.683 129.613 220.189 128.973 220.552C128.333 220.915 127.597 221.096 126.765 221.096ZM122.269 224.104V212.52H123.741V214.808L123.645 216.776L123.805 218.744V224.104H122.269ZM126.637 219.752C127.181 219.752 127.667 219.629 128.093 219.384C128.531 219.139 128.872 218.792 129.117 218.344C129.373 217.885 129.501 217.357 129.501 216.76C129.501 216.152 129.373 215.629 129.117 215.192C128.872 214.744 128.531 214.397 128.093 214.152C127.667 213.907 127.181 213.784 126.637 213.784C126.104 213.784 125.619 213.907 125.181 214.152C124.755 214.397 124.413 214.744 124.157 215.192C123.912 215.629 123.789 216.152 123.789 216.76C123.789 217.357 123.912 217.885 124.157 218.344C124.413 218.792 124.755 219.139 125.181 219.384C125.619 219.629 126.104 219.752 126.637 219.752ZM133.285 221V212.52H137.221C138.213 212.52 138.992 212.712 139.557 213.096C140.133 213.469 140.421 214.003 140.421 214.696C140.421 215.389 140.149 215.928 139.605 216.312C139.072 216.685 138.362 216.872 137.477 216.872L137.717 216.456C138.73 216.456 139.482 216.643 139.973 217.016C140.464 217.389 140.709 217.939 140.709 218.664C140.709 219.4 140.432 219.976 139.877 220.392C139.333 220.797 138.496 221 137.365 221H133.285ZM134.789 219.816H137.253C137.893 219.816 138.373 219.72 138.693 219.528C139.013 219.325 139.173 219.005 139.173 218.568C139.173 218.12 139.024 217.795 138.725 217.592C138.437 217.379 137.978 217.272 137.349 217.272H134.789V219.816ZM134.789 216.168H137.093C137.68 216.168 138.122 216.061 138.421 215.848C138.73 215.624 138.885 215.315 138.885 214.92C138.885 214.515 138.73 214.211 138.421 214.008C138.122 213.805 137.68 213.704 137.093 213.704H134.789V216.168ZM146.745 221.096C145.892 221.096 145.134 220.909 144.473 220.536C143.812 220.163 143.289 219.651 142.905 219C142.521 218.339 142.329 217.592 142.329 216.76C142.329 215.917 142.521 215.171 142.905 214.52C143.289 213.869 143.812 213.363 144.473 213C145.134 212.627 145.892 212.44 146.745 212.44C147.588 212.44 148.34 212.627 149.001 213C149.673 213.363 150.196 213.869 150.569 214.52C150.953 215.16 151.145 215.907 151.145 216.76C151.145 217.603 150.953 218.349 150.569 219C150.196 219.651 149.673 220.163 149.001 220.536C148.34 220.909 147.588 221.096 146.745 221.096ZM146.745 219.752C147.289 219.752 147.774 219.629 148.201 219.384C148.638 219.139 148.98 218.792 149.225 218.344C149.47 217.885 149.593 217.357 149.593 216.76C149.593 216.152 149.47 215.629 149.225 215.192C148.98 214.744 148.638 214.397 148.201 214.152C147.774 213.907 147.289 213.784 146.745 213.784C146.201 213.784 145.716 213.907 145.289 214.152C144.862 214.397 144.521 214.744 144.265 215.192C144.009 215.629 143.881 216.152 143.881 216.76C143.881 217.357 144.009 217.885 144.265 218.344C144.521 218.792 144.862 219.139 145.289 219.384C145.716 219.629 146.201 219.752 146.745 219.752ZM153.363 221V212.52H154.899V216.12H159.731V212.52H161.267V221H159.731V217.448H154.899V221H153.363ZM167.886 221.096C167.032 221.096 166.275 220.909 165.614 220.536C164.952 220.163 164.43 219.651 164.046 219C163.662 218.339 163.47 217.592 163.47 216.76C163.47 215.917 163.662 215.171 164.046 214.52C164.43 213.869 164.952 213.363 165.614 213C166.275 212.627 167.032 212.44 167.886 212.44C168.728 212.44 169.48 212.627 170.142 213C170.814 213.363 171.336 213.869 171.71 214.52C172.094 215.16 172.286 215.907 172.286 216.76C172.286 217.603 172.094 218.349 171.71 219C171.336 219.651 170.814 220.163 170.142 220.536C169.48 220.909 168.728 221.096 167.886 221.096ZM167.886 219.752C168.43 219.752 168.915 219.629 169.342 219.384C169.779 219.139 170.12 218.792 170.366 218.344C170.611 217.885 170.734 217.357 170.734 216.76C170.734 216.152 170.611 215.629 170.366 215.192C170.12 214.744 169.779 214.397 169.342 214.152C168.915 213.907 168.43 213.784 167.886 213.784C167.342 213.784 166.856 213.907 166.43 214.152C166.003 214.397 165.662 214.744 165.406 215.192C165.15 215.629 165.022 216.152 165.022 216.76C165.022 217.357 165.15 217.885 165.406 218.344C165.662 218.792 166.003 219.139 166.43 219.384C166.856 219.629 167.342 219.752 167.886 219.752ZM179.848 217.528C179.4 217.741 178.936 217.912 178.456 218.04C177.986 218.157 177.501 218.216 177 218.216C175.976 218.216 175.165 217.976 174.568 217.496C173.981 217.016 173.688 216.275 173.688 215.272V212.52H175.224V215.176C175.224 215.784 175.41 216.232 175.784 216.52C176.168 216.808 176.68 216.952 177.32 216.952C177.725 216.952 178.141 216.899 178.568 216.792C179.005 216.685 179.432 216.536 179.848 216.344V217.528ZM179.736 221V212.52H181.272V221H179.736ZM189.454 221V219.208L189.374 218.872V215.816C189.374 215.165 189.182 214.664 188.798 214.312C188.424 213.949 187.859 213.768 187.102 213.768C186.6 213.768 186.11 213.853 185.63 214.024C185.15 214.184 184.744 214.403 184.414 214.68L183.774 213.528C184.211 213.176 184.734 212.909 185.342 212.728C185.96 212.536 186.606 212.44 187.278 212.44C188.44 212.44 189.336 212.723 189.966 213.288C190.595 213.853 190.91 214.717 190.91 215.88V221H189.454ZM186.67 221.096C186.04 221.096 185.486 220.989 185.006 220.776C184.536 220.563 184.174 220.269 183.918 219.896C183.662 219.512 183.534 219.08 183.534 218.6C183.534 218.141 183.64 217.725 183.854 217.352C184.078 216.979 184.435 216.68 184.926 216.456C185.427 216.232 186.099 216.12 186.942 216.12H189.63V217.224H187.006C186.238 217.224 185.72 217.352 185.454 217.608C185.187 217.864 185.054 218.173 185.054 218.536C185.054 218.952 185.219 219.288 185.55 219.544C185.88 219.789 186.339 219.912 186.926 219.912C187.502 219.912 188.003 219.784 188.43 219.528C188.867 219.272 189.182 218.899 189.374 218.408L189.678 219.464C189.475 219.965 189.118 220.365 188.606 220.664C188.094 220.952 187.448 221.096 186.67 221.096ZM192.268 220.984L192.364 219.688C192.438 219.699 192.508 219.709 192.572 219.72C192.636 219.731 192.694 219.736 192.748 219.736C193.089 219.736 193.356 219.619 193.548 219.384C193.75 219.149 193.9 218.84 193.996 218.456C194.092 218.061 194.161 217.619 194.204 217.128C194.246 216.637 194.278 216.147 194.299 215.656L194.444 212.52H200.956V221H199.42V213.416L199.788 213.864H195.436L195.788 213.4L195.676 215.752C195.644 216.499 195.585 217.197 195.5 217.848C195.414 218.499 195.281 219.069 195.1 219.56C194.929 220.051 194.689 220.435 194.38 220.712C194.081 220.989 193.692 221.128 193.212 221.128C193.073 221.128 192.924 221.112 192.764 221.08C192.614 221.059 192.449 221.027 192.268 220.984ZM207.846 215.4C208.923 215.411 209.744 215.656 210.31 216.136C210.875 216.616 211.158 217.293 211.158 218.168C211.158 219.085 210.848 219.795 210.23 220.296C209.611 220.787 208.736 221.027 207.606 221.016L203.926 221V212.52H205.462V215.384L207.846 215.4ZM207.478 219.848C208.171 219.859 208.694 219.72 209.046 219.432C209.408 219.144 209.59 218.717 209.59 218.152C209.59 217.597 209.414 217.192 209.062 216.936C208.71 216.68 208.182 216.547 207.478 216.536L205.462 216.504V219.832L207.478 219.848ZM213.129 221V212.52H214.665V216.12H219.497V212.52H221.033V221H219.497V217.448H214.665V221H213.129ZM227.651 221.096C226.798 221.096 226.041 220.909 225.379 220.536C224.718 220.163 224.195 219.651 223.811 219C223.427 218.339 223.235 217.592 223.235 216.76C223.235 215.917 223.427 215.171 223.811 214.52C224.195 213.869 224.718 213.363 225.379 213C226.041 212.627 226.798 212.44 227.651 212.44C228.494 212.44 229.246 212.627 229.907 213C230.579 213.363 231.102 213.869 231.475 214.52C231.859 215.16 232.051 215.907 232.051 216.76C232.051 217.603 231.859 218.349 231.475 219C231.102 219.651 230.579 220.163 229.907 220.536C229.246 220.909 228.494 221.096 227.651 221.096ZM227.651 219.752C228.195 219.752 228.681 219.629 229.107 219.384C229.545 219.139 229.886 218.792 230.131 218.344C230.377 217.885 230.499 217.357 230.499 216.76C230.499 216.152 230.377 215.629 230.131 215.192C229.886 214.744 229.545 214.397 229.107 214.152C228.681 213.907 228.195 213.784 227.651 213.784C227.107 213.784 226.622 213.907 226.195 214.152C225.769 214.397 225.427 214.744 225.171 215.192C224.915 215.629 224.787 216.152 224.787 216.76C224.787 217.357 224.915 217.885 225.171 218.344C225.427 218.792 225.769 219.139 226.195 219.384C226.622 219.629 227.107 219.752 227.651 219.752ZM18.968 241.112C19.7147 241.112 20.376 241.005 20.952 240.792C21.5387 240.568 22.0027 240.264 22.344 239.88C22.6853 239.485 22.856 239.032 22.856 238.52C22.856 237.88 22.584 237.373 22.04 237C21.496 236.627 20.7493 236.44 19.8 236.44L19.736 236.808C20.2907 236.808 20.7813 236.717 21.208 236.536C21.6347 236.355 21.976 236.109 22.232 235.8C22.488 235.48 22.616 235.117 22.616 234.712C22.616 234.232 22.4453 233.816 22.104 233.464C21.7733 233.112 21.32 232.845 20.744 232.664C20.168 232.472 19.512 232.387 18.776 232.408C18.2853 232.419 17.7893 232.493 17.288 232.632C16.7973 232.76 16.296 232.947 15.784 233.192L16.2 234.392C16.6587 234.168 17.1067 234.003 17.544 233.896C17.992 233.789 18.4293 233.731 18.856 233.72C19.2933 233.72 19.672 233.768 19.992 233.864C20.3227 233.96 20.5787 234.099 20.76 234.28C20.9413 234.461 21.032 234.68 21.032 234.936C21.032 235.171 20.952 235.379 20.792 235.56C20.6427 235.731 20.4293 235.859 20.152 235.944C19.8747 236.029 19.5493 236.072 19.176 236.072H17.736V237.176H19.272C19.9013 237.176 20.392 237.283 20.744 237.496C21.096 237.709 21.272 238.013 21.272 238.408C21.272 238.685 21.176 238.931 20.984 239.144C20.792 239.347 20.5147 239.507 20.152 239.624C19.8 239.741 19.3787 239.8 18.888 239.8C18.3547 239.8 17.8267 239.731 17.304 239.592C16.7813 239.443 16.3173 239.24 15.912 238.984L15.448 240.152C15.928 240.461 16.472 240.701 17.08 240.872C17.6987 241.032 18.328 241.112 18.968 241.112ZM30.3911 241V239.208L30.3111 238.872V235.816C30.3111 235.165 30.1191 234.664 29.7351 234.312C29.3618 233.949 28.7965 233.768 28.0391 233.768C27.5378 233.768 27.0471 233.853 26.5671 234.024C26.0871 234.184 25.6818 234.403 25.3511 234.68L24.7111 233.528C25.1485 233.176 25.6711 232.909 26.2791 232.728C26.8978 232.536 27.5431 232.44 28.2151 232.44C29.3778 232.44 30.2738 232.723 30.9031 233.288C31.5325 233.853 31.8471 234.717 31.8471 235.88V241H30.3911ZM27.6071 241.096C26.9778 241.096 26.4231 240.989 25.9431 240.776C25.4738 240.563 25.1111 240.269 24.8551 239.896C24.5991 239.512 24.4711 239.08 24.4711 238.6C24.4711 238.141 24.5778 237.725 24.7911 237.352C25.0151 236.979 25.3725 236.68 25.8631 236.456C26.3645 236.232 27.0365 236.12 27.8791 236.12H30.5671V237.224H27.9431C27.1751 237.224 26.6578 237.352 26.3911 237.608C26.1245 237.864 25.9911 238.173 25.9911 238.536C25.9911 238.952 26.1565 239.288 26.4871 239.544C26.8178 239.789 27.2765 239.912 27.8631 239.912C28.4391 239.912 28.9405 239.784 29.3671 239.528C29.8045 239.272 30.1191 238.899 30.3111 238.408L30.6151 239.464C30.4125 239.965 30.0551 240.365 29.5431 240.664C29.0311 240.952 28.3858 241.096 27.6071 241.096ZM40.037 241V238.024L40.277 238.312H37.573C36.4423 238.312 35.557 238.072 34.917 237.592C34.2877 237.112 33.973 236.413 33.973 235.496C33.973 234.515 34.309 233.773 34.981 233.272C35.6637 232.771 36.5703 232.52 37.701 232.52H41.413V241H40.037ZM33.893 241L36.197 237.752H37.781L35.541 241H33.893ZM40.037 237.544V233.432L40.277 233.864H37.749C37.045 233.864 36.501 233.997 36.117 234.264C35.733 234.52 35.541 234.947 35.541 235.544C35.541 236.653 36.2557 237.208 37.685 237.208H40.277L40.037 237.544ZM44.4099 241V232.52H48.3459C49.3379 232.52 50.1165 232.712 50.6819 233.096C51.2579 233.469 51.5459 234.003 51.5459 234.696C51.5459 235.389 51.2739 235.928 50.7299 236.312C50.1965 236.685 49.4872 236.872 48.6019 236.872L48.8419 236.456C49.8552 236.456 50.6072 236.643 51.0979 237.016C51.5885 237.389 51.8339 237.939 51.8339 238.664C51.8339 239.4 51.5565 239.976 51.0019 240.392C50.4579 240.797 49.6205 241 48.4899 241H44.4099ZM45.9139 239.816H48.3779C49.0179 239.816 49.4979 239.72 49.8179 239.528C50.1379 239.325 50.2979 239.005 50.2979 238.568C50.2979 238.12 50.1485 237.795 49.8499 237.592C49.5619 237.379 49.1032 237.272 48.4739 237.272H45.9139V239.816ZM45.9139 236.168H48.2179C48.8045 236.168 49.2472 236.061 49.5459 235.848C49.8552 235.624 50.0099 235.315 50.0099 234.92C50.0099 234.515 49.8552 234.211 49.5459 234.008C49.2472 233.805 48.8045 233.704 48.2179 233.704H45.9139V236.168ZM52.83 240.984L52.926 239.688C53.0007 239.699 53.07 239.709 53.134 239.72C53.198 239.731 53.2567 239.736 53.31 239.736C53.6513 239.736 53.918 239.619 54.11 239.384C54.3127 239.149 54.462 238.84 54.558 238.456C54.654 238.061 54.7233 237.619 54.766 237.128C54.8087 236.637 54.8407 236.147 54.862 235.656L55.006 232.52H61.518V241H59.982V233.416L60.35 233.864H55.998L56.35 233.4L56.238 235.752C56.206 236.499 56.1473 237.197 56.062 237.848C55.9767 238.499 55.8433 239.069 55.662 239.56C55.4913 240.051 55.2513 240.435 54.942 240.712C54.6433 240.989 54.254 241.128 53.774 241.128C53.6353 241.128 53.486 241.112 53.326 241.08C53.1767 241.059 53.0113 241.027 52.83 240.984ZM68.264 241.096C67.3573 241.096 66.5573 240.909 65.864 240.536C65.1813 240.163 64.648 239.651 64.264 239C63.8907 238.349 63.704 237.603 63.704 236.76C63.704 235.917 63.8853 235.171 64.248 234.52C64.6213 233.869 65.128 233.363 65.768 233C66.4187 232.627 67.1493 232.44 67.96 232.44C68.7813 232.44 69.5067 232.621 70.136 232.984C70.7653 233.347 71.256 233.859 71.608 234.52C71.9707 235.171 72.152 235.933 72.152 236.808C72.152 236.872 72.1467 236.947 72.136 237.032C72.136 237.117 72.1307 237.197 72.12 237.272H64.904V236.168H71.32L70.696 236.552C70.7067 236.008 70.5947 235.523 70.36 235.096C70.1253 234.669 69.8 234.339 69.384 234.104C68.9787 233.859 68.504 233.736 67.96 233.736C67.4267 233.736 66.952 233.859 66.536 234.104C66.12 234.339 65.7947 234.675 65.56 235.112C65.3253 235.539 65.208 236.029 65.208 236.584V236.84C65.208 237.405 65.336 237.912 65.592 238.36C65.8587 238.797 66.2267 239.139 66.696 239.384C67.1653 239.629 67.704 239.752 68.312 239.752C68.8133 239.752 69.2667 239.667 69.672 239.496C70.088 239.325 70.4507 239.069 70.76 238.728L71.608 239.72C71.224 240.168 70.744 240.509 70.168 240.744C69.6027 240.979 68.968 241.096 68.264 241.096ZM74.5349 241V232.52H76.0709V236.12H80.9029V232.52H82.4389V241H80.9029V237.448H76.0709V241H74.5349ZM89.0575 241.096C88.2042 241.096 87.4468 240.909 86.7855 240.536C86.1242 240.163 85.6015 239.651 85.2175 239C84.8335 238.339 84.6415 237.592 84.6415 236.76C84.6415 235.917 84.8335 235.171 85.2175 234.52C85.6015 233.869 86.1242 233.363 86.7855 233C87.4468 232.627 88.2042 232.44 89.0575 232.44C89.9002 232.44 90.6522 232.627 91.3135 233C91.9855 233.363 92.5082 233.869 92.8815 234.52C93.2655 235.16 93.4575 235.907 93.4575 236.76C93.4575 237.603 93.2655 238.349 92.8815 239C92.5082 239.651 91.9855 240.163 91.3135 240.536C90.6522 240.909 89.9002 241.096 89.0575 241.096ZM89.0575 239.752C89.6015 239.752 90.0868 239.629 90.5135 239.384C90.9508 239.139 91.2922 238.792 91.5375 238.344C91.7828 237.885 91.9055 237.357 91.9055 236.76C91.9055 236.152 91.7828 235.629 91.5375 235.192C91.2922 234.744 90.9508 234.397 90.5135 234.152C90.0868 233.907 89.6015 233.784 89.0575 233.784C88.5135 233.784 88.0282 233.907 87.6015 234.152C87.1748 234.397 86.8335 234.744 86.5775 235.192C86.3215 235.629 86.1935 236.152 86.1935 236.76C86.1935 237.357 86.3215 237.885 86.5775 238.344C86.8335 238.792 87.1748 239.139 87.6015 239.384C88.0282 239.629 88.5135 239.752 89.0575 239.752ZM95.6755 241V232.52H97.2115V238.696L102.411 232.52H103.804V241H102.267V234.824L97.0835 241H95.6755ZM99.6435 231.416C98.8648 231.416 98.2515 231.229 97.8035 230.856C97.3662 230.472 97.1422 229.923 97.1315 229.208H98.1715C98.1822 229.613 98.3155 229.933 98.5715 230.168C98.8382 230.403 99.1902 230.52 99.6275 230.52C100.065 230.52 100.417 230.403 100.684 230.168C100.95 229.933 101.089 229.613 101.1 229.208H102.172C102.161 229.923 101.932 230.472 101.484 230.856C101.036 231.229 100.422 231.416 99.6435 231.416ZM107.265 244.104H105.809C106.46 242.973 106.934 241.795 107.233 240.568C107.532 239.331 107.681 238.013 107.681 236.616C107.681 235.219 107.532 233.907 107.233 232.68C106.934 231.443 106.46 230.259 105.809 229.128H107.265C107.894 230.077 108.369 231.197 108.689 232.488C109.02 233.768 109.185 235.144 109.185 236.616C109.185 238.088 109.02 239.464 108.689 240.744C108.369 242.013 107.894 243.133 107.265 244.104Z" fill="#434343"/>
</svg>
