<svg width="300" height="238" viewBox="0 0 300 238" fill="none" xmlns="http://www.w3.org/2000/svg">
<mask id="mask0_221_16" style="mask-type:alpha" maskUnits="userSpaceOnUse" x="0" y="0" width="300" height="238">
<path d="M0 60C0 31.7157 0 17.5736 8.7868 8.7868C17.5736 0 31.7157 0 60 0H256.834C257.128 0 257.276 0 257.37 0.00447289C260.527 0.15388 262.272 3.73255 260.445 6.31161C260.391 6.38882 260.3 6.50488 260.119 6.73699V6.73699C257.862 9.62399 256.734 11.0675 256.397 11.5553C244.388 28.9517 264.063 50.6575 282.552 40.41C283.07 40.1226 284.617 39.1411 287.711 37.178L293.249 33.6645C293.774 33.3318 294.036 33.1655 294.225 33.0716C296.721 31.8362 299.684 33.4653 299.978 36.2344C300 36.4448 300 36.7553 300 37.3763V177.5C300 205.784 300 219.926 291.213 228.713C282.426 237.5 268.284 237.5 240 237.5H60C31.7157 237.5 17.5736 237.5 8.7868 228.713C0 219.926 0 205.784 0 177.5V60Z" fill="#F3F5F7"/>
</mask>
<g mask="url(#mask0_221_16)">
<path d="M0.600011 108.633C-7.9846 108.633 -15.6 106.948 -22.2461 103.579C-28.8 100.21 -33.9692 95.3133 -37.7538 88.8886C-41.4461 82.4639 -43.2923 74.7072 -43.2923 65.6185C-43.2923 56.5298 -41.4461 48.7731 -37.7538 42.3484C-33.9692 35.9236 -28.8 31.0267 -22.2461 27.6577C-15.6 24.2886 -7.9846 22.6041 0.600011 22.6041C9.18463 22.6041 16.7539 24.2886 23.3077 27.6577C29.9539 31.0267 35.1231 35.9236 38.8154 42.3484C42.6 48.7731 44.4923 56.5298 44.4923 65.6185C44.4923 74.7072 42.6 82.4639 38.8154 88.8886C35.1231 95.3133 29.9539 100.21 23.3077 103.579C16.7539 106.948 9.18463 108.633 0.600011 108.633ZM0.600011 86.4206C2.72309 86.4206 4.6154 85.7938 6.27694 84.5401C7.93848 83.2865 9.23078 81.1319 10.1539 78.0762C11.1692 75.0206 11.6769 70.868 11.6769 65.6185C11.6769 60.2907 11.1692 56.1381 10.1539 53.1608C9.23078 50.1051 7.93848 47.9505 6.27694 46.6968C4.6154 45.4432 2.72309 44.8164 0.600011 44.8164C-1.52307 44.8164 -3.41538 45.4432 -5.07691 46.6968C-6.73845 47.9505 -8.07691 50.1051 -9.09229 53.1608C-10.0154 56.1381 -10.4769 60.2907 -10.4769 65.6185C-10.4769 70.868 -10.0154 75.0206 -9.09229 78.0762C-8.07691 81.1319 -6.73845 83.2865 -5.07691 84.5401C-3.41538 85.7938 -1.52307 86.4206 0.600011 86.4206Z" fill="#00AAFF" fill-opacity="0.1"/>
<path d="M99.0992 108.633C89.8684 108.633 81.7453 107.144 74.7299 104.167C67.8069 101.111 62.3607 96.6061 58.3915 90.6515C54.5146 84.6185 52.5761 77.136 52.5761 68.2041C52.5761 58.567 54.8376 50.3793 59.3607 43.6412C63.8838 36.8247 70.1607 31.6144 78.1915 28.0103C86.3146 24.4061 95.6838 22.6041 106.299 22.6041C112.022 22.6041 117.515 23.1917 122.776 24.3669C128.13 25.4639 132.653 27.0309 136.345 29.068L124.576 48.4597C121.715 46.736 118.807 45.5999 115.853 45.0515C112.991 44.4247 110.038 44.1113 106.991 44.1113C100.438 44.1113 95.1761 45.7958 91.2069 49.1649C87.3299 52.4556 85.3915 57.2742 85.3915 63.6206C85.3915 64.7958 85.3915 65.9711 85.3915 67.1463C85.3915 68.2432 85.3915 69.3793 85.3915 70.5546L77.9146 65.9711C79.7607 63.3072 81.9299 61.0742 84.4222 59.2721C86.9146 57.3917 89.8684 55.9814 93.2838 55.0412C96.6992 54.0226 100.668 53.5133 105.191 53.5133C111.099 53.5133 116.545 54.6103 121.53 56.8041C126.607 58.9195 130.668 61.936 133.715 65.8535C136.853 69.7711 138.422 74.4329 138.422 79.8391C138.422 85.7154 136.668 90.8082 133.161 95.1175C129.653 99.4267 124.899 102.757 118.899 105.107C112.991 107.458 106.391 108.633 99.0992 108.633ZM96.8838 89.4762C98.8222 89.4762 100.53 89.1628 102.007 88.536C103.576 87.8309 104.776 86.8515 105.607 85.5979C106.438 84.3443 106.853 82.8556 106.853 81.1319C106.853 78.5463 105.93 76.5092 104.084 75.0206C102.238 73.4535 99.8376 72.67 96.8838 72.67C94.9453 72.67 93.2376 73.0226 91.7607 73.7278C90.2838 74.4329 89.0838 75.4123 88.1607 76.6659C87.3299 77.9195 86.9146 79.4082 86.9146 81.1319C86.9146 82.8556 87.3299 84.3443 88.1607 85.5979C89.0838 86.8515 90.2838 87.8309 91.7607 88.536C93.2376 89.1628 94.9453 89.4762 96.8838 89.4762Z" fill="#00AAFF" fill-opacity="0.1"/>
</g>
</svg>
