<svg width="193" height="193" viewBox="0 0 193 193" fill="none" xmlns="http://www.w3.org/2000/svg">
<rect width="193" height="193" rx="35" fill="#00AAFF"/>
<path d="M61.8454 115V104.5H65.9404C66.8604 104.5 67.6454 104.645 68.2954 104.935C68.9454 105.225 69.4454 105.645 69.7955 106.195C70.1454 106.745 70.3204 107.4 70.3204 108.16C70.3204 108.92 70.1454 109.575 69.7955 110.125C69.4454 110.665 68.9454 111.085 68.2954 111.385C67.6454 111.675 66.8604 111.82 65.9404 111.82H62.6704L63.3454 111.115V115H61.8454ZM63.3454 111.265L62.6704 110.515H65.8954C66.8554 110.515 67.5804 110.31 68.0704 109.9C68.5704 109.49 68.8204 108.91 68.8204 108.16C68.8204 107.41 68.5704 106.83 68.0704 106.42C67.5804 106.01 66.8554 105.805 65.8954 105.805H62.6704L63.3454 105.055V111.265ZM75.6777 115.09C74.8277 115.09 74.0777 114.915 73.4277 114.565C72.7877 114.215 72.2877 113.735 71.9277 113.125C71.5777 112.515 71.4027 111.815 71.4027 111.025C71.4027 110.235 71.5727 109.535 71.9127 108.925C72.2627 108.315 72.7377 107.84 73.3377 107.5C73.9477 107.15 74.6327 106.975 75.3927 106.975C76.1627 106.975 76.8427 107.145 77.4327 107.485C78.0227 107.825 78.4827 108.305 78.8127 108.925C79.1527 109.535 79.3227 110.25 79.3227 111.07C79.3227 111.13 79.3177 111.2 79.3077 111.28C79.3077 111.36 79.3027 111.435 79.2927 111.505H72.5277V110.47H78.5427L77.9577 110.83C77.9677 110.32 77.8627 109.865 77.6427 109.465C77.4227 109.065 77.1177 108.755 76.7277 108.535C76.3477 108.305 75.9027 108.19 75.3927 108.19C74.8927 108.19 74.4477 108.305 74.0577 108.535C73.6677 108.755 73.3627 109.07 73.1427 109.48C72.9227 109.88 72.8127 110.34 72.8127 110.86V111.1C72.8127 111.63 72.9327 112.105 73.1727 112.525C73.4227 112.935 73.7677 113.255 74.2077 113.485C74.6477 113.715 75.1527 113.83 75.7227 113.83C76.1927 113.83 76.6177 113.75 76.9977 113.59C77.3877 113.43 77.7277 113.19 78.0177 112.87L78.8127 113.8C78.4527 114.22 78.0027 114.54 77.4627 114.76C76.9327 114.98 76.3377 115.09 75.6777 115.09ZM81.5566 115V107.05H83.0416L86.4616 112.93H85.8616L89.3716 107.05H90.7216V115H89.4166V108.67L89.6566 108.805L86.4466 114.1H85.8166L82.5916 108.7L82.8766 108.64V115H81.5566ZM96.9294 115.09C96.1294 115.09 95.4194 114.915 94.7994 114.565C94.1794 114.215 93.6894 113.735 93.3294 113.125C92.9694 112.505 92.7894 111.805 92.7894 111.025C92.7894 110.235 92.9694 109.535 93.3294 108.925C93.6894 108.315 94.1794 107.84 94.7994 107.5C95.4194 107.15 96.1294 106.975 96.9294 106.975C97.7194 106.975 98.4244 107.15 99.0444 107.5C99.6744 107.84 100.164 108.315 100.514 108.925C100.874 109.525 101.054 110.225 101.054 111.025C101.054 111.815 100.874 112.515 100.514 113.125C100.164 113.735 99.6744 114.215 99.0444 114.565C98.4244 114.915 97.7194 115.09 96.9294 115.09ZM96.9294 113.83C97.4394 113.83 97.8944 113.715 98.2944 113.485C98.7044 113.255 99.0244 112.93 99.2544 112.51C99.4844 112.08 99.5994 111.585 99.5994 111.025C99.5994 110.455 99.4844 109.965 99.2544 109.555C99.0244 109.135 98.7044 108.81 98.2944 108.58C97.8944 108.35 97.4394 108.235 96.9294 108.235C96.4194 108.235 95.9644 108.35 95.5644 108.58C95.1644 108.81 94.8444 109.135 94.6044 109.555C94.3644 109.965 94.2444 110.455 94.2444 111.025C94.2444 111.585 94.3644 112.08 94.6044 112.51C94.8444 112.93 95.1644 113.255 95.5644 113.485C95.9644 113.715 96.4194 113.83 96.9294 113.83ZM103.134 115V107.05H104.574V110.425H109.104V107.05H110.544V115H109.104V111.67H104.574V115H103.134ZM114.919 115V107.935L115.279 108.31H112.009V107.05H119.269V108.31H116.014L116.359 107.935V115H114.919ZM124.77 115V107.05H126.21V112.84L131.085 107.05H132.39V115H130.95V109.21L126.09 115H124.77ZM37.582 133V125.05H41.272C42.202 125.05 42.932 125.23 43.462 125.59C44.002 125.94 44.272 126.44 44.272 127.09C44.272 127.74 44.017 128.245 43.507 128.605C43.007 128.955 42.342 129.13 41.512 129.13L41.737 128.74C42.687 128.74 43.392 128.915 43.852 129.265C44.312 129.615 44.542 130.13 44.542 130.81C44.542 131.5 44.282 132.04 43.762 132.43C43.252 132.81 42.467 133 41.407 133H37.582ZM38.992 131.89H41.302C41.902 131.89 42.352 131.8 42.652 131.62C42.952 131.43 43.102 131.13 43.102 130.72C43.102 130.3 42.962 129.995 42.682 129.805C42.412 129.605 41.982 129.505 41.392 129.505H38.992V131.89ZM38.992 128.47H41.152C41.702 128.47 42.117 128.37 42.397 128.17C42.687 127.96 42.832 127.67 42.832 127.3C42.832 126.92 42.687 126.635 42.397 126.445C42.117 126.255 41.702 126.16 41.152 126.16H38.992V128.47ZM50.2009 133.09C49.4009 133.09 48.6909 132.915 48.0709 132.565C47.4509 132.215 46.9609 131.735 46.6009 131.125C46.2409 130.505 46.0609 129.805 46.0609 129.025C46.0609 128.235 46.2409 127.535 46.6009 126.925C46.9609 126.315 47.4509 125.84 48.0709 125.5C48.6909 125.15 49.4009 124.975 50.2009 124.975C50.9909 124.975 51.6959 125.15 52.3159 125.5C52.9459 125.84 53.4359 126.315 53.7859 126.925C54.1459 127.525 54.3259 128.225 54.3259 129.025C54.3259 129.815 54.1459 130.515 53.7859 131.125C53.4359 131.735 52.9459 132.215 52.3159 132.565C51.6959 132.915 50.9909 133.09 50.2009 133.09ZM50.2009 131.83C50.7109 131.83 51.1659 131.715 51.5659 131.485C51.9759 131.255 52.2959 130.93 52.5259 130.51C52.7559 130.08 52.8709 129.585 52.8709 129.025C52.8709 128.455 52.7559 127.965 52.5259 127.555C52.2959 127.135 51.9759 126.81 51.5659 126.58C51.1659 126.35 50.7109 126.235 50.2009 126.235C49.6909 126.235 49.2359 126.35 48.8359 126.58C48.4359 126.81 48.1159 127.135 47.8759 127.555C47.6359 127.965 47.5159 128.455 47.5159 129.025C47.5159 129.585 47.6359 130.08 47.8759 130.51C48.1159 130.93 48.4359 131.255 48.8359 131.485C49.2359 131.715 49.6909 131.83 50.2009 131.83ZM59.8703 133.09C59.0603 133.09 58.3353 132.915 57.6953 132.565C57.0653 132.215 56.5703 131.735 56.2103 131.125C55.8503 130.515 55.6703 129.815 55.6703 129.025C55.6703 128.235 55.8503 127.535 56.2103 126.925C56.5703 126.315 57.0653 125.84 57.6953 125.5C58.3353 125.15 59.0603 124.975 59.8703 124.975C60.5903 124.975 61.2303 125.12 61.7903 125.41C62.3603 125.69 62.8003 126.11 63.1103 126.67L62.0153 127.375C61.7553 126.985 61.4353 126.7 61.0553 126.52C60.6853 126.33 60.2853 126.235 59.8553 126.235C59.3353 126.235 58.8703 126.35 58.4603 126.58C58.0503 126.81 57.7253 127.135 57.4853 127.555C57.2453 127.965 57.1253 128.455 57.1253 129.025C57.1253 129.595 57.2453 130.09 57.4853 130.51C57.7253 130.93 58.0503 131.255 58.4603 131.485C58.8703 131.715 59.3353 131.83 59.8553 131.83C60.2853 131.83 60.6853 131.74 61.0553 131.56C61.4353 131.37 61.7553 131.08 62.0153 130.69L63.1103 131.38C62.8003 131.93 62.3603 132.355 61.7903 132.655C61.2303 132.945 60.5903 133.09 59.8703 133.09ZM66.4471 133V125.935L66.8071 126.31H63.5371V125.05H70.7971V126.31H67.5421L67.8871 125.935V133H66.4471ZM77.1445 133V131.32L77.0695 131.005V128.14C77.0695 127.53 76.8895 127.06 76.5295 126.73C76.1795 126.39 75.6495 126.22 74.9395 126.22C74.4695 126.22 74.0095 126.3 73.5595 126.46C73.1095 126.61 72.7295 126.815 72.4195 127.075L71.8195 125.995C72.2295 125.665 72.7195 125.415 73.2895 125.245C73.8695 125.065 74.4745 124.975 75.1045 124.975C76.1945 124.975 77.0345 125.24 77.6245 125.77C78.2145 126.3 78.5095 127.11 78.5095 128.2V133H77.1445ZM74.5345 133.09C73.9445 133.09 73.4245 132.99 72.9745 132.79C72.5345 132.59 72.1945 132.315 71.9545 131.965C71.7145 131.605 71.5945 131.2 71.5945 130.75C71.5945 130.32 71.6945 129.93 71.8945 129.58C72.1045 129.23 72.4395 128.95 72.8995 128.74C73.3695 128.53 73.9995 128.425 74.7895 128.425H77.3095V129.46H74.8495C74.1295 129.46 73.6445 129.58 73.3945 129.82C73.1445 130.06 73.0195 130.35 73.0195 130.69C73.0195 131.08 73.1745 131.395 73.4845 131.635C73.7945 131.865 74.2245 131.98 74.7745 131.98C75.3145 131.98 75.7845 131.86 76.1845 131.62C76.5945 131.38 76.8895 131.03 77.0695 130.57L77.3545 131.56C77.1645 132.03 76.8295 132.405 76.3495 132.685C75.8695 132.955 75.2645 133.09 74.5345 133.09ZM81.1025 133V125.05H82.5425V128.425H87.0725V125.05H88.5125V133H87.0725V129.67H82.5425V133H81.1025ZM94.7175 133.09C93.9175 133.09 93.2075 132.915 92.5875 132.565C91.9675 132.215 91.4775 131.735 91.1175 131.125C90.7575 130.505 90.5775 129.805 90.5775 129.025C90.5775 128.235 90.7575 127.535 91.1175 126.925C91.4775 126.315 91.9675 125.84 92.5875 125.5C93.2075 125.15 93.9175 124.975 94.7175 124.975C95.5075 124.975 96.2125 125.15 96.8325 125.5C97.4625 125.84 97.9525 126.315 98.3025 126.925C98.6625 127.525 98.8425 128.225 98.8425 129.025C98.8425 129.815 98.6625 130.515 98.3025 131.125C97.9525 131.735 97.4625 132.215 96.8325 132.565C96.2125 132.915 95.5075 133.09 94.7175 133.09ZM94.7175 131.83C95.2275 131.83 95.6825 131.715 96.0825 131.485C96.4925 131.255 96.8125 130.93 97.0425 130.51C97.2725 130.08 97.3875 129.585 97.3875 129.025C97.3875 128.455 97.2725 127.965 97.0425 127.555C96.8125 127.135 96.4925 126.81 96.0825 126.58C95.6825 126.35 95.2275 126.235 94.7175 126.235C94.2075 126.235 93.7525 126.35 93.3525 126.58C92.9525 126.81 92.6325 127.135 92.3925 127.555C92.1525 127.965 92.0325 128.455 92.0325 129.025C92.0325 129.585 92.1525 130.08 92.3925 130.51C92.6325 130.93 92.9525 131.255 93.3525 131.485C93.7525 131.715 94.2075 131.83 94.7175 131.83ZM100.922 133V125.05H104.612C105.542 125.05 106.272 125.23 106.802 125.59C107.342 125.94 107.612 126.44 107.612 127.09C107.612 127.74 107.357 128.245 106.847 128.605C106.347 128.955 105.682 129.13 104.852 129.13L105.077 128.74C106.027 128.74 106.732 128.915 107.192 129.265C107.652 129.615 107.882 130.13 107.882 130.81C107.882 131.5 107.622 132.04 107.102 132.43C106.592 132.81 105.807 133 104.747 133H100.922ZM102.332 131.89H104.642C105.242 131.89 105.692 131.8 105.992 131.62C106.292 131.43 106.442 131.13 106.442 130.72C106.442 130.3 106.302 129.995 106.022 129.805C105.752 129.605 105.322 129.505 104.732 129.505H102.332V131.89ZM102.332 128.47H104.492C105.042 128.47 105.457 128.37 105.737 128.17C106.027 127.96 106.172 127.67 106.172 127.3C106.172 126.92 106.027 126.635 105.737 126.445C105.457 126.255 105.042 126.16 104.492 126.16H102.332V128.47ZM108.816 132.985L108.906 131.77C108.976 131.78 109.041 131.79 109.101 131.8C109.161 131.81 109.216 131.815 109.266 131.815C109.586 131.815 109.836 131.705 110.016 131.485C110.206 131.265 110.346 130.975 110.436 130.615C110.526 130.245 110.591 129.83 110.631 129.37C110.671 128.91 110.701 128.45 110.721 127.99L110.856 125.05H116.961V133H115.521V125.89L115.866 126.31H111.786L112.116 125.875L112.011 128.08C111.981 128.78 111.926 129.435 111.846 130.045C111.766 130.655 111.641 131.19 111.471 131.65C111.311 132.11 111.086 132.47 110.796 132.73C110.516 132.99 110.151 133.12 109.701 133.12C109.571 133.12 109.431 133.105 109.281 133.075C109.141 133.055 108.986 133.025 108.816 132.985ZM123.285 133.09C122.435 133.09 121.685 132.915 121.035 132.565C120.395 132.215 119.895 131.735 119.535 131.125C119.185 130.515 119.01 129.815 119.01 129.025C119.01 128.235 119.18 127.535 119.52 126.925C119.87 126.315 120.345 125.84 120.945 125.5C121.555 125.15 122.24 124.975 123 124.975C123.77 124.975 124.45 125.145 125.04 125.485C125.63 125.825 126.09 126.305 126.42 126.925C126.76 127.535 126.93 128.25 126.93 129.07C126.93 129.13 126.925 129.2 126.915 129.28C126.915 129.36 126.91 129.435 126.9 129.505H120.135V128.47H126.15L125.565 128.83C125.575 128.32 125.47 127.865 125.25 127.465C125.03 127.065 124.725 126.755 124.335 126.535C123.955 126.305 123.51 126.19 123 126.19C122.5 126.19 122.055 126.305 121.665 126.535C121.275 126.755 120.97 127.07 120.75 127.48C120.53 127.88 120.42 128.34 120.42 128.86V129.1C120.42 129.63 120.54 130.105 120.78 130.525C121.03 130.935 121.375 131.255 121.815 131.485C122.255 131.715 122.76 131.83 123.33 131.83C123.8 131.83 124.225 131.75 124.605 131.59C124.995 131.43 125.335 131.19 125.625 130.87L126.42 131.8C126.06 132.22 125.61 132.54 125.07 132.76C124.54 132.98 123.945 133.09 123.285 133.09ZM129.164 133V125.05H130.604V128.425H135.134V125.05H136.574V133H135.134V129.67H130.604V133H129.164ZM139.374 133V125.05H140.814V130.84L145.689 125.05H146.994V133H145.554V127.21L140.694 133H139.374ZM153.329 133.09C152.479 133.09 151.729 132.915 151.079 132.565C150.439 132.215 149.939 131.735 149.579 131.125C149.229 130.515 149.054 129.815 149.054 129.025C149.054 128.235 149.224 127.535 149.564 126.925C149.914 126.315 150.389 125.84 150.989 125.5C151.599 125.15 152.284 124.975 153.044 124.975C153.814 124.975 154.494 125.145 155.084 125.485C155.674 125.825 156.134 126.305 156.464 126.925C156.804 127.535 156.974 128.25 156.974 129.07C156.974 129.13 156.969 129.2 156.959 129.28C156.959 129.36 156.954 129.435 156.944 129.505H150.179V128.47H156.194L155.609 128.83C155.619 128.32 155.514 127.865 155.294 127.465C155.074 127.065 154.769 126.755 154.379 126.535C153.999 126.305 153.554 126.19 153.044 126.19C152.544 126.19 152.099 126.305 151.709 126.535C151.319 126.755 151.014 127.07 150.794 127.48C150.574 127.88 150.464 128.34 150.464 128.86V129.1C150.464 129.63 150.584 130.105 150.824 130.525C151.074 130.935 151.419 131.255 151.859 131.485C152.299 131.715 152.804 131.83 153.374 131.83C153.844 131.83 154.269 131.75 154.649 131.59C155.039 131.43 155.379 131.19 155.669 130.87L156.464 131.8C156.104 132.22 155.654 132.54 155.114 132.76C154.584 132.98 153.989 133.09 153.329 133.09ZM49.9526 151V143.05H51.3926V146.425H55.9226V143.05H57.3626V151H55.9226V147.67H51.3926V151H49.9526ZM63.7026 151.09C62.8526 151.09 62.1026 150.915 61.4526 150.565C60.8126 150.215 60.3126 149.735 59.9526 149.125C59.6026 148.515 59.4276 147.815 59.4276 147.025C59.4276 146.235 59.5976 145.535 59.9376 144.925C60.2876 144.315 60.7626 143.84 61.3626 143.5C61.9726 143.15 62.6576 142.975 63.4176 142.975C64.1876 142.975 64.8676 143.145 65.4576 143.485C66.0476 143.825 66.5076 144.305 66.8376 144.925C67.1776 145.535 67.3476 146.25 67.3476 147.07C67.3476 147.13 67.3426 147.2 67.3326 147.28C67.3326 147.36 67.3276 147.435 67.3176 147.505H60.5526V146.47H66.5676L65.9826 146.83C65.9926 146.32 65.8876 145.865 65.6676 145.465C65.4476 145.065 65.1426 144.755 64.7526 144.535C64.3726 144.305 63.9276 144.19 63.4176 144.19C62.9176 144.19 62.4726 144.305 62.0826 144.535C61.6926 144.755 61.3876 145.07 61.1676 145.48C60.9476 145.88 60.8376 146.34 60.8376 146.86V147.1C60.8376 147.63 60.9576 148.105 61.1976 148.525C61.4476 148.935 61.7926 149.255 62.2326 149.485C62.6726 149.715 63.1776 149.83 63.7476 149.83C64.2176 149.83 64.6426 149.75 65.0226 149.59C65.4126 149.43 65.7526 149.19 66.0426 148.87L66.8376 149.8C66.4776 150.22 66.0276 150.54 65.4876 150.76C64.9576 150.98 64.3626 151.09 63.7026 151.09ZM73.0465 151.09C72.2365 151.09 71.5115 150.915 70.8715 150.565C70.2415 150.215 69.7465 149.735 69.3865 149.125C69.0265 148.515 68.8465 147.815 68.8465 147.025C68.8465 146.235 69.0265 145.535 69.3865 144.925C69.7465 144.315 70.2415 143.84 70.8715 143.5C71.5115 143.15 72.2365 142.975 73.0465 142.975C73.7665 142.975 74.4065 143.12 74.9665 143.41C75.5365 143.69 75.9765 144.11 76.2865 144.67L75.1915 145.375C74.9315 144.985 74.6115 144.7 74.2315 144.52C73.8615 144.33 73.4615 144.235 73.0315 144.235C72.5115 144.235 72.0465 144.35 71.6365 144.58C71.2265 144.81 70.9015 145.135 70.6615 145.555C70.4215 145.965 70.3015 146.455 70.3015 147.025C70.3015 147.595 70.4215 148.09 70.6615 148.51C70.9015 148.93 71.2265 149.255 71.6365 149.485C72.0465 149.715 72.5115 149.83 73.0315 149.83C73.4615 149.83 73.8615 149.74 74.2315 149.56C74.6115 149.37 74.9315 149.08 75.1915 148.69L76.2865 149.38C75.9765 149.93 75.5365 150.355 74.9665 150.655C74.4065 150.945 73.7665 151.09 73.0465 151.09ZM78.1509 151V143.05H85.5159V151H84.0759V143.95L84.4209 144.31H79.2459L79.5909 143.95V151H78.1509ZM92.5172 151.09C91.8572 151.09 91.2522 150.94 90.7022 150.64C90.1622 150.33 89.7272 149.875 89.3972 149.275C89.0772 148.675 88.9172 147.925 88.9172 147.025C88.9172 146.125 89.0722 145.375 89.3822 144.775C89.7022 144.175 90.1322 143.725 90.6722 143.425C91.2222 143.125 91.8372 142.975 92.5172 142.975C93.2972 142.975 93.9872 143.145 94.5872 143.485C95.1872 143.825 95.6622 144.3 96.0122 144.91C96.3622 145.51 96.5372 146.215 96.5372 147.025C96.5372 147.835 96.3622 148.545 96.0122 149.155C95.6622 149.765 95.1872 150.24 94.5872 150.58C93.9872 150.92 93.2972 151.09 92.5172 151.09ZM88.3022 153.91V143.05H89.6822V145.195L89.5922 147.04L89.7422 148.885V153.91H88.3022ZM92.3972 149.83C92.9072 149.83 93.3622 149.715 93.7622 149.485C94.1722 149.255 94.4922 148.93 94.7222 148.51C94.9622 148.08 95.0822 147.585 95.0822 147.025C95.0822 146.455 94.9622 145.965 94.7222 145.555C94.4922 145.135 94.1722 144.81 93.7622 144.58C93.3622 144.35 92.9072 144.235 92.3972 144.235C91.8972 144.235 91.4422 144.35 91.0322 144.58C90.6322 144.81 90.3122 145.135 90.0722 145.555C89.8422 145.965 89.7272 146.455 89.7272 147.025C89.7272 147.585 89.8422 148.08 90.0722 148.51C90.3122 148.93 90.6322 149.255 91.0322 149.485C91.4422 149.715 91.8972 149.83 92.3972 149.83ZM103.431 151V149.32L103.356 149.005V146.14C103.356 145.53 103.176 145.06 102.816 144.73C102.466 144.39 101.936 144.22 101.226 144.22C100.756 144.22 100.296 144.3 99.8461 144.46C99.3961 144.61 99.0161 144.815 98.7061 145.075L98.1061 143.995C98.5161 143.665 99.0061 143.415 99.5761 143.245C100.156 143.065 100.761 142.975 101.391 142.975C102.481 142.975 103.321 143.24 103.911 143.77C104.501 144.3 104.796 145.11 104.796 146.2V151H103.431ZM100.821 151.09C100.231 151.09 99.7111 150.99 99.2611 150.79C98.8211 150.59 98.4811 150.315 98.2411 149.965C98.0011 149.605 97.8811 149.2 97.8811 148.75C97.8811 148.32 97.9811 147.93 98.1811 147.58C98.3911 147.23 98.7261 146.95 99.1861 146.74C99.6561 146.53 100.286 146.425 101.076 146.425H103.596V147.46H101.136C100.416 147.46 99.9311 147.58 99.6811 147.82C99.4311 148.06 99.3061 148.35 99.3061 148.69C99.3061 149.08 99.4611 149.395 99.7711 149.635C100.081 149.865 100.511 149.98 101.061 149.98C101.601 149.98 102.071 149.86 102.471 149.62C102.881 149.38 103.176 149.03 103.356 148.57L103.641 149.56C103.451 150.03 103.116 150.405 102.636 150.685C102.156 150.955 101.551 151.09 100.821 151.09ZM107.389 151V143.05H111.079C112.009 143.05 112.739 143.23 113.269 143.59C113.809 143.94 114.079 144.44 114.079 145.09C114.079 145.74 113.824 146.245 113.314 146.605C112.814 146.955 112.149 147.13 111.319 147.13L111.544 146.74C112.494 146.74 113.199 146.915 113.659 147.265C114.119 147.615 114.349 148.13 114.349 148.81C114.349 149.5 114.089 150.04 113.569 150.43C113.059 150.81 112.274 151 111.214 151H107.389ZM108.799 149.89H111.109C111.709 149.89 112.159 149.8 112.459 149.62C112.759 149.43 112.909 149.13 112.909 148.72C112.909 148.3 112.769 147.995 112.489 147.805C112.219 147.605 111.789 147.505 111.199 147.505H108.799V149.89ZM108.799 146.47H110.959C111.509 146.47 111.924 146.37 112.204 146.17C112.494 145.96 112.639 145.67 112.639 145.3C112.639 144.92 112.494 144.635 112.204 144.445C111.924 144.255 111.509 144.16 110.959 144.16H108.799V146.47ZM116.603 151V143.05H118.043V146.425H122.573V143.05H124.013V151H122.573V147.67H118.043V151H116.603ZM130.218 151.09C129.418 151.09 128.708 150.915 128.088 150.565C127.468 150.215 126.978 149.735 126.618 149.125C126.258 148.505 126.078 147.805 126.078 147.025C126.078 146.235 126.258 145.535 126.618 144.925C126.978 144.315 127.468 143.84 128.088 143.5C128.708 143.15 129.418 142.975 130.218 142.975C131.008 142.975 131.713 143.15 132.333 143.5C132.963 143.84 133.453 144.315 133.803 144.925C134.163 145.525 134.343 146.225 134.343 147.025C134.343 147.815 134.163 148.515 133.803 149.125C133.453 149.735 132.963 150.215 132.333 150.565C131.713 150.915 131.008 151.09 130.218 151.09ZM130.218 149.83C130.728 149.83 131.183 149.715 131.583 149.485C131.993 149.255 132.313 148.93 132.543 148.51C132.773 148.08 132.888 147.585 132.888 147.025C132.888 146.455 132.773 145.965 132.543 145.555C132.313 145.135 131.993 144.81 131.583 144.58C131.183 144.35 130.728 144.235 130.218 144.235C129.708 144.235 129.253 144.35 128.853 144.58C128.453 144.81 128.133 145.135 127.893 145.555C127.653 145.965 127.533 146.455 127.533 147.025C127.533 147.585 127.653 148.08 127.893 148.51C128.133 148.93 128.453 149.255 128.853 149.485C129.253 149.715 129.708 149.83 130.218 149.83ZM136.422 151V143.05H137.862V148.84L142.737 143.05H144.042V151H142.602V145.21L137.742 151H136.422ZM140.142 142.015C139.412 142.015 138.837 141.84 138.417 141.49C138.007 141.13 137.797 140.615 137.787 139.945H138.762C138.772 140.325 138.897 140.625 139.137 140.845C139.387 141.065 139.717 141.175 140.127 141.175C140.537 141.175 140.867 141.065 141.117 140.845C141.367 140.625 141.497 140.325 141.507 139.945H142.512C142.502 140.615 142.287 141.13 141.867 141.49C141.447 141.84 140.872 142.015 140.142 142.015ZM59.2983 169V161.05H66.6633V169H65.2233V161.95L65.5683 162.31H60.3933L60.7383 161.95V169H59.2983ZM73.6647 169.09C73.0047 169.09 72.3997 168.94 71.8497 168.64C71.3097 168.33 70.8747 167.875 70.5447 167.275C70.2247 166.675 70.0647 165.925 70.0647 165.025C70.0647 164.125 70.2197 163.375 70.5297 162.775C70.8497 162.175 71.2797 161.725 71.8197 161.425C72.3697 161.125 72.9847 160.975 73.6647 160.975C74.4447 160.975 75.1347 161.145 75.7347 161.485C76.3347 161.825 76.8097 162.3 77.1597 162.91C77.5097 163.51 77.6847 164.215 77.6847 165.025C77.6847 165.835 77.5097 166.545 77.1597 167.155C76.8097 167.765 76.3347 168.24 75.7347 168.58C75.1347 168.92 74.4447 169.09 73.6647 169.09ZM69.4497 171.91V161.05H70.8297V163.195L70.7397 165.04L70.8897 166.885V171.91H69.4497ZM73.5447 167.83C74.0547 167.83 74.5097 167.715 74.9097 167.485C75.3197 167.255 75.6397 166.93 75.8697 166.51C76.1097 166.08 76.2297 165.585 76.2297 165.025C76.2297 164.455 76.1097 163.965 75.8697 163.555C75.6397 163.135 75.3197 162.81 74.9097 162.58C74.5097 162.35 74.0547 162.235 73.5447 162.235C73.0447 162.235 72.5897 162.35 72.1797 162.58C71.7797 162.81 71.4597 163.135 71.2197 163.555C70.9897 163.965 70.8747 164.455 70.8747 165.025C70.8747 165.585 70.9897 166.08 71.2197 166.51C71.4597 166.93 71.7797 167.255 72.1797 167.485C72.5897 167.715 73.0447 167.83 73.5447 167.83ZM83.1818 169.09C82.3818 169.09 81.6718 168.915 81.0518 168.565C80.4318 168.215 79.9418 167.735 79.5818 167.125C79.2218 166.505 79.0418 165.805 79.0418 165.025C79.0418 164.235 79.2218 163.535 79.5818 162.925C79.9418 162.315 80.4318 161.84 81.0518 161.5C81.6718 161.15 82.3818 160.975 83.1818 160.975C83.9718 160.975 84.6768 161.15 85.2968 161.5C85.9268 161.84 86.4168 162.315 86.7668 162.925C87.1268 163.525 87.3068 164.225 87.3068 165.025C87.3068 165.815 87.1268 166.515 86.7668 167.125C86.4168 167.735 85.9268 168.215 85.2968 168.565C84.6768 168.915 83.9718 169.09 83.1818 169.09ZM83.1818 167.83C83.6918 167.83 84.1468 167.715 84.5468 167.485C84.9568 167.255 85.2768 166.93 85.5068 166.51C85.7368 166.08 85.8518 165.585 85.8518 165.025C85.8518 164.455 85.7368 163.965 85.5068 163.555C85.2768 163.135 84.9568 162.81 84.5468 162.58C84.1468 162.35 83.6918 162.235 83.1818 162.235C82.6718 162.235 82.2168 162.35 81.8168 162.58C81.4168 162.81 81.0968 163.135 80.8568 163.555C80.6168 163.965 80.4968 164.455 80.4968 165.025C80.4968 165.585 80.6168 166.08 80.8568 166.51C81.0968 166.93 81.4168 167.255 81.8168 167.485C82.2168 167.715 82.6718 167.83 83.1818 167.83ZM89.3862 169V161.05H93.0762C94.0062 161.05 94.7362 161.23 95.2662 161.59C95.8062 161.94 96.0762 162.44 96.0762 163.09C96.0762 163.74 95.8212 164.245 95.3112 164.605C94.8112 164.955 94.1462 165.13 93.3162 165.13L93.5412 164.74C94.4912 164.74 95.1962 164.915 95.6562 165.265C96.1162 165.615 96.3462 166.13 96.3462 166.81C96.3462 167.5 96.0862 168.04 95.5662 168.43C95.0562 168.81 94.2712 169 93.2112 169H89.3862ZM90.7962 167.89H93.1062C93.7062 167.89 94.1562 167.8 94.4562 167.62C94.7562 167.43 94.9062 167.13 94.9062 166.72C94.9062 166.3 94.7662 165.995 94.4862 165.805C94.2162 165.605 93.7862 165.505 93.1962 165.505H90.7962V167.89ZM90.7962 164.47H92.9562C93.5062 164.47 93.9212 164.37 94.2012 164.17C94.4912 163.96 94.6362 163.67 94.6362 163.3C94.6362 162.92 94.4912 162.635 94.2012 162.445C93.9212 162.255 93.5062 162.16 92.9562 162.16H90.7962V164.47ZM102.005 169.09C101.205 169.09 100.495 168.915 99.8751 168.565C99.2551 168.215 98.7651 167.735 98.4051 167.125C98.0451 166.505 97.8651 165.805 97.8651 165.025C97.8651 164.235 98.0451 163.535 98.4051 162.925C98.7651 162.315 99.2551 161.84 99.8751 161.5C100.495 161.15 101.205 160.975 102.005 160.975C102.795 160.975 103.5 161.15 104.12 161.5C104.75 161.84 105.24 162.315 105.59 162.925C105.95 163.525 106.13 164.225 106.13 165.025C106.13 165.815 105.95 166.515 105.59 167.125C105.24 167.735 104.75 168.215 104.12 168.565C103.5 168.915 102.795 169.09 102.005 169.09ZM102.005 167.83C102.515 167.83 102.97 167.715 103.37 167.485C103.78 167.255 104.1 166.93 104.33 166.51C104.56 166.08 104.675 165.585 104.675 165.025C104.675 164.455 104.56 163.965 104.33 163.555C104.1 163.135 103.78 162.81 103.37 162.58C102.97 162.35 102.515 162.235 102.005 162.235C101.495 162.235 101.04 162.35 100.64 162.58C100.24 162.81 99.9201 163.135 99.6801 163.555C99.4401 163.965 99.3201 164.455 99.3201 165.025C99.3201 165.585 99.4401 166.08 99.6801 166.51C99.9201 166.93 100.24 167.255 100.64 167.485C101.04 167.715 101.495 167.83 102.005 167.83ZM113.581 168.325V162.31H110.131L110.056 163.84C110.036 164.34 110.001 164.825 109.951 165.295C109.911 165.755 109.841 166.18 109.741 166.57C109.651 166.96 109.516 167.28 109.336 167.53C109.156 167.78 108.916 167.935 108.616 167.995L107.191 167.74C107.501 167.75 107.751 167.65 107.941 167.44C108.131 167.22 108.276 166.92 108.376 166.54C108.486 166.16 108.566 165.73 108.616 165.25C108.666 164.76 108.706 164.255 108.736 163.735L108.856 161.05H115.021V168.325H113.581ZM106.876 170.845V167.74H116.236V170.845H114.886V169H108.241V170.845H106.876ZM123.872 169L120.797 165.13L121.982 164.41L125.567 169H123.872ZM118.112 169V161.05H119.552V169H118.112ZM119.117 165.64V164.41H121.742V165.64H119.117ZM122.102 165.19L120.767 165.01L123.812 161.05H125.357L122.102 165.19ZM127.077 169V161.05H128.517V166.84L133.392 161.05H134.697V169H133.257V163.21L128.397 169H127.077Z" fill="white"/>
<path d="M71.613 44.71H84.6775V57.226C84.6775 58.3306 83.782 59.226 82.6775 59.226H73.613C72.5085 59.226 71.613 58.3306 71.613 57.226V44.71Z" fill="#FFFFFE"/>
<path d="M73.0646 38.0002C73.0646 36.8957 73.9601 36.0002 75.0646 36.0002H81.2259C82.3304 36.0002 83.2259 36.8957 83.2259 38.0002V43.2583H73.0646V38.0002Z" fill="#FFFFFE"/>
<path d="M107.903 59.7744C107.903 58.6698 108.799 57.7744 109.903 57.7744H118.968C120.072 57.7744 120.968 58.6698 120.968 59.7744V72.2905H107.903V59.7744Z" fill="#FFFFFE"/>
<path d="M109.355 73.7419H119.516V79C119.516 80.1045 118.621 81 117.516 81H111.355C110.25 81 109.355 80.1045 109.355 79V73.7419Z" fill="#FFFFFE"/>
<path d="M78.1453 61.4033V78C78.1453 79.6568 79.4884 81 81.1453 81H93.2903C94.9472 81 96.2903 79.6568 96.2903 78V74.4678" stroke="#FFFFFE"/>
<path d="M114.435 55.5967L114.435 39C114.435 37.3432 113.092 36 111.435 36L99.2903 36C97.6335 36 96.2903 37.3432 96.2903 39V42.5322" stroke="#FFFFFE"/>
<path d="M96.2903 47.613L88.3065 59.9517H97.0161L91.2097 68.6613H96.2903L103.548 56.3227H94.8387L100.645 47.613H96.2903Z" fill="#FFFFFE"/>
</svg>
