<svg width="260" height="260" viewBox="0 0 260 260" fill="none" xmlns="http://www.w3.org/2000/svg">
<path d="M0 50C0 26.4298 0 14.6447 7.32233 7.32233C14.6447 0 26.4298 0 50 0H222.02C222.232 0 222.339 0 222.411 0.00263821C225.426 0.112163 227.239 3.39119 225.729 6.00223C225.693 6.06513 225.636 6.15524 225.523 6.33547C224.509 7.95089 224.002 8.75859 223.784 9.14281C214.265 25.9084 231.642 45.11 249.272 37.3059C249.676 37.127 250.53 36.7029 252.238 35.8545L253.875 35.0416C254.178 34.8911 254.33 34.8158 254.442 34.7684C256.984 33.6933 259.825 35.4547 259.993 38.2095C260 38.3309 260 38.5001 260 38.8385V210C260 233.57 260 245.355 252.678 252.678C245.355 260 233.57 260 210 260H50C26.4298 260 14.6447 260 7.32233 252.678C0 245.355 0 233.57 0 210V50Z" fill="#F3F5F7"/>
<mask id="mask0_103_46" style="mask-type:alpha" maskUnits="userSpaceOnUse" x="0" y="0" width="260" height="260">
<path d="M0 60C0 31.7157 0 17.5736 8.7868 8.7868C17.5736 0 31.7157 0 60 0H222.429C222.529 0 222.58 0 222.613 0.000571758C225.743 0.053489 227.602 3.51781 225.916 6.15473C225.898 6.18322 225.87 6.22508 225.814 6.3088L224.912 7.66935C224.838 7.77972 224.802 7.8349 224.79 7.85282C212.449 26.5404 235.453 48.2883 253.419 34.9191C253.436 34.9063 253.489 34.8666 253.595 34.7873C253.604 34.7811 253.608 34.7779 253.611 34.7759C256.247 32.8125 259.994 34.6901 260 37.9771C260 37.9804 260 37.9857 260 37.9961V200C260 228.284 260 242.426 251.213 251.213C242.426 260 228.284 260 200 260H60C31.7157 260 17.5736 260 8.7868 251.213C0 242.426 0 228.284 0 200V60Z" fill="#F3F5F7"/>
</mask>
<g mask="url(#mask0_103_46)">
<path d="M0.519981 110.92C-6.92002 110.92 -13.52 109.2 -19.28 105.76C-24.96 102.32 -29.44 97.32 -32.72 90.76C-35.92 84.2 -37.52 76.28 -37.52 67C-37.52 57.72 -35.92 49.8 -32.72 43.24C-29.44 36.68 -24.96 31.68 -19.28 28.24C-13.52 24.8 -6.92002 23.08 0.519981 23.08C7.95998 23.08 14.52 24.8 20.2 28.24C25.96 31.68 30.44 36.68 33.64 43.24C36.92 49.8 38.56 57.72 38.56 67C38.56 76.28 36.92 84.2 33.64 90.76C30.44 97.32 25.96 102.32 20.2 105.76C14.52 109.2 7.95998 110.92 0.519981 110.92ZM0.519981 88.24C2.35998 88.24 3.99998 87.6 5.43998 86.32C6.87998 85.04 7.99998 82.84 8.79998 79.72C9.67999 76.6 10.12 72.36 10.12 67C10.12 61.56 9.67999 57.32 8.79998 54.28C7.99998 51.16 6.87998 48.96 5.43998 47.68C3.99998 46.4 2.35998 45.76 0.519981 45.76C-1.32002 45.76 -2.96002 46.4 -4.40002 47.68C-5.84002 48.96 -7.00002 51.16 -7.88002 54.28C-8.68002 57.32 -9.08002 61.56 -9.08002 67C-9.08002 72.36 -8.68002 76.6 -7.88002 79.72C-7.00002 82.84 -5.84002 85.04 -4.40002 86.32C-2.96002 87.6 -1.32002 88.24 0.519981 88.24Z" fill="#00AAFF" fill-opacity="0.1"/>
<path d="M57.5659 109L89.2459 35.08L96.8059 46.96H56.9659L68.0059 34.12V59.2H44.6059V25H116.486V42.4L88.5259 109H57.5659Z" fill="#00AAFF" fill-opacity="0.1"/>
</g>
<circle cx="242.5" cy="17.5" r="17.5" fill="#F3F5F7"/>
<path d="M235 18.25H250M250 18.25L243 11M250 18.25L243 25" stroke="#00AAFF" stroke-width="2" stroke-linecap="round" stroke-linejoin="round"/>
<path d="M22.208 157.136C21.3013 157.136 20.457 156.983 19.675 156.677C18.9043 156.371 18.2357 155.946 17.669 155.402C17.1023 154.847 16.6603 154.201 16.343 153.464C16.0257 152.727 15.867 151.923 15.867 151.05C15.867 150.177 16.0257 149.373 16.343 148.636C16.6603 147.899 17.1023 147.259 17.669 146.715C18.2357 146.16 18.9043 145.729 19.675 145.423C20.4457 145.117 21.29 144.964 22.208 144.964C23.1147 144.964 23.9477 145.117 24.707 145.423C25.4777 145.718 26.1463 146.143 26.713 146.698C27.291 147.242 27.733 147.882 28.039 148.619C28.3563 149.356 28.515 150.166 28.515 151.05C28.515 151.934 28.3563 152.744 28.039 153.481C27.733 154.218 27.291 154.864 26.713 155.419C26.1463 155.963 25.4777 156.388 24.707 156.694C23.9477 156.989 23.1147 157.136 22.208 157.136ZM22.208 155.623C22.8653 155.623 23.4717 155.51 24.027 155.283C24.5937 155.056 25.081 154.739 25.489 154.331C25.9083 153.912 26.2313 153.424 26.458 152.869C26.696 152.314 26.815 151.707 26.815 151.05C26.815 150.393 26.696 149.786 26.458 149.231C26.2313 148.676 25.9083 148.194 25.489 147.786C25.081 147.367 24.5937 147.044 24.027 146.817C23.4717 146.59 22.8653 146.477 22.208 146.477C21.5393 146.477 20.9217 146.59 20.355 146.817C19.7997 147.044 19.3123 147.367 18.893 147.786C18.4737 148.194 18.145 148.676 17.907 149.231C17.6803 149.786 17.567 150.393 17.567 151.05C17.567 151.707 17.6803 152.314 17.907 152.869C18.145 153.424 18.4737 153.912 18.893 154.331C19.3123 154.739 19.7997 155.056 20.355 155.283C20.9217 155.51 21.5393 155.623 22.208 155.623ZM36.3632 157.136C36.3518 157.136 36.3122 157.136 36.2442 157.136C36.1875 157.136 36.1308 157.136 36.0742 157.136C36.0175 157.136 35.9835 157.136 35.9722 157.136C34.1248 157.113 32.6912 156.705 31.6712 155.912C30.6512 155.107 30.1412 153.963 30.1412 152.478C30.1412 151.005 30.6512 149.877 31.6712 149.095C32.7025 148.302 34.1532 147.899 36.0232 147.888C36.0458 147.888 36.0798 147.888 36.1252 147.888C36.1818 147.888 36.2328 147.888 36.2782 147.888C36.3348 147.888 36.3688 147.888 36.3802 147.888C38.2728 147.888 39.7405 148.285 40.7832 149.078C41.8372 149.871 42.3642 151.005 42.3642 152.478C42.3642 153.974 41.8372 155.124 40.7832 155.929C39.7292 156.734 38.2558 157.136 36.3632 157.136ZM36.3292 155.708C37.3152 155.708 38.1312 155.583 38.7772 155.334C39.4345 155.085 39.9275 154.722 40.2562 154.246C40.5848 153.77 40.7492 153.181 40.7492 152.478C40.7492 151.787 40.5848 151.209 40.2562 150.744C39.9275 150.279 39.4345 149.928 38.7772 149.69C38.1312 149.452 37.3152 149.333 36.3292 149.333C36.3065 149.333 36.2612 149.333 36.1932 149.333C36.1252 149.333 36.0855 149.333 36.0742 149.333C35.1108 149.333 34.3062 149.458 33.6602 149.707C33.0255 149.945 32.5495 150.296 32.2322 150.761C31.9148 151.226 31.7562 151.798 31.7562 152.478C31.7562 153.169 31.9148 153.753 32.2322 154.229C32.5608 154.705 33.0425 155.068 33.6772 155.317C34.3232 155.566 35.1222 155.697 36.0742 155.708C36.0968 155.708 36.1365 155.708 36.1932 155.708C36.2612 155.708 36.3065 155.708 36.3292 155.708ZM35.4452 160.298V144.386H37.0432V160.298H35.4452ZM48.5298 157.102C47.6232 157.102 46.8185 156.904 46.1158 156.507C45.4132 156.11 44.8578 155.566 44.4498 154.875C44.0418 154.172 43.8378 153.379 43.8378 152.495C43.8378 151.6 44.0418 150.806 44.4498 150.115C44.8578 149.424 45.4132 148.885 46.1158 148.5C46.8185 148.103 47.6232 147.905 48.5298 147.905C49.4252 147.905 50.2242 148.103 50.9268 148.5C51.6408 148.885 52.1962 149.424 52.5928 150.115C53.0008 150.795 53.2048 151.588 53.2048 152.495C53.2048 153.39 53.0008 154.184 52.5928 154.875C52.1962 155.566 51.6408 156.11 50.9268 156.507C50.2242 156.904 49.4252 157.102 48.5298 157.102ZM48.5298 155.674C49.1078 155.674 49.6235 155.544 50.0768 155.283C50.5415 155.022 50.9042 154.654 51.1648 154.178C51.4255 153.691 51.5558 153.13 51.5558 152.495C51.5558 151.849 51.4255 151.294 51.1648 150.829C50.9042 150.353 50.5415 149.985 50.0768 149.724C49.6235 149.463 49.1078 149.333 48.5298 149.333C47.9518 149.333 47.4362 149.463 46.9828 149.724C46.5295 149.985 46.1668 150.353 45.8948 150.829C45.6228 151.294 45.4868 151.849 45.4868 152.495C45.4868 153.13 45.6228 153.691 45.8948 154.178C46.1668 154.654 46.5295 155.022 46.9828 155.283C47.4362 155.544 47.9518 155.674 48.5298 155.674ZM60.3385 157.102C59.5905 157.102 58.9048 156.932 58.2815 156.592C57.6695 156.241 57.1765 155.725 56.8025 155.045C56.4398 154.365 56.2585 153.515 56.2585 152.495C56.2585 151.475 56.4341 150.625 56.7855 149.945C57.1481 149.265 57.6355 148.755 58.2475 148.415C58.8708 148.075 59.5678 147.905 60.3385 147.905C61.2225 147.905 62.0045 148.098 62.6845 148.483C63.3645 148.868 63.9028 149.407 64.2995 150.098C64.6961 150.778 64.8945 151.577 64.8945 152.495C64.8945 153.413 64.6961 154.218 64.2995 154.909C63.9028 155.6 63.3645 156.139 62.6845 156.524C62.0045 156.909 61.2225 157.102 60.3385 157.102ZM55.5615 160.298V147.99H57.1255V150.421L57.0235 152.512L57.1935 154.603V160.298H55.5615ZM60.2025 155.674C60.7805 155.674 61.2961 155.544 61.7495 155.283C62.2141 155.022 62.5768 154.654 62.8375 154.178C63.1095 153.691 63.2455 153.13 63.2455 152.495C63.2455 151.849 63.1095 151.294 62.8375 150.829C62.5768 150.353 62.2141 149.985 61.7495 149.724C61.2961 149.463 60.7805 149.333 60.2025 149.333C59.6358 149.333 59.1201 149.463 58.6555 149.724C58.2021 149.985 57.8395 150.353 57.5675 150.829C57.3068 151.294 57.1765 151.849 57.1765 152.495C57.1765 153.13 57.3068 153.691 57.5675 154.178C57.8395 154.654 58.2021 155.022 58.6555 155.283C59.1201 155.544 59.6358 155.674 60.2025 155.674ZM67.2656 157V147.99H68.9486L72.8246 154.654H72.1446L76.1226 147.99H77.6526V157H76.1736V149.826L76.4456 149.979L72.8076 155.98H72.0936L68.4386 149.86L68.7616 149.792V157H67.2656ZM79.333 156.983L79.435 155.606C79.5144 155.617 79.588 155.629 79.656 155.64C79.724 155.651 79.7864 155.657 79.843 155.657C80.2057 155.657 80.489 155.532 80.693 155.283C80.9084 155.034 81.067 154.705 81.169 154.297C81.271 153.878 81.3447 153.407 81.39 152.886C81.4354 152.365 81.4694 151.843 81.492 151.322L81.645 147.99H88.564V157H86.932V148.942L87.323 149.418H82.699L83.073 148.925L82.954 151.424C82.92 152.217 82.8577 152.96 82.767 153.651C82.6764 154.342 82.5347 154.949 82.342 155.47C82.1607 155.991 81.9057 156.399 81.577 156.694C81.2597 156.989 80.846 157.136 80.336 157.136C80.1887 157.136 80.03 157.119 79.86 157.085C79.7014 157.062 79.5257 157.028 79.333 156.983ZM97.4827 157V153.838L97.7377 154.144H94.8647C93.6633 154.144 92.7227 153.889 92.0427 153.379C91.374 152.869 91.0397 152.127 91.0397 151.152C91.0397 150.109 91.3967 149.322 92.1107 148.789C92.836 148.256 93.7993 147.99 95.0007 147.99H98.9447V157H97.4827ZM90.9547 157L93.4027 153.549H95.0857L92.7057 157H90.9547ZM97.4827 153.328V148.959L97.7377 149.418H95.0517C94.3037 149.418 93.7257 149.56 93.3177 149.843C92.9097 150.115 92.7057 150.568 92.7057 151.203C92.7057 152.382 93.465 152.971 94.9837 152.971H97.7377L97.4827 153.328ZM106.141 157.102C105.178 157.102 104.328 156.904 103.591 156.507C102.866 156.11 102.299 155.566 101.891 154.875C101.494 154.184 101.296 153.39 101.296 152.495C101.296 151.6 101.489 150.806 101.874 150.115C102.271 149.424 102.809 148.885 103.489 148.5C104.18 148.103 104.957 147.905 105.818 147.905C106.691 147.905 107.461 148.098 108.13 148.483C108.799 148.868 109.32 149.412 109.694 150.115C110.079 150.806 110.272 151.617 110.272 152.546C110.272 152.614 110.266 152.693 110.255 152.784C110.255 152.875 110.249 152.96 110.238 153.039H102.571V151.866H109.388L108.725 152.274C108.736 151.696 108.617 151.18 108.368 150.727C108.119 150.274 107.773 149.922 107.331 149.673C106.9 149.412 106.396 149.282 105.818 149.282C105.251 149.282 104.747 149.412 104.305 149.673C103.863 149.922 103.517 150.279 103.268 150.744C103.019 151.197 102.894 151.719 102.894 152.308V152.58C102.894 153.181 103.03 153.719 103.302 154.195C103.585 154.66 103.976 155.022 104.475 155.283C104.974 155.544 105.546 155.674 106.192 155.674C106.725 155.674 107.206 155.583 107.637 155.402C108.079 155.221 108.464 154.949 108.793 154.586L109.694 155.64C109.286 156.116 108.776 156.479 108.164 156.728C107.563 156.977 106.889 157.102 106.141 157.102ZM112.804 157V147.99H114.487L118.363 154.654H117.683L121.661 147.99H123.191V157H121.712V149.826L121.984 149.979L118.346 155.98H117.632L113.977 149.86L114.3 149.792V157H112.804ZM134.86 157.102C133.942 157.102 133.12 156.904 132.395 156.507C131.681 156.11 131.12 155.566 130.712 154.875C130.304 154.184 130.1 153.39 130.1 152.495C130.1 151.6 130.304 150.806 130.712 150.115C131.12 149.424 131.681 148.885 132.395 148.5C133.12 148.103 133.942 147.905 134.86 147.905C135.676 147.905 136.401 148.069 137.036 148.398C137.682 148.715 138.18 149.191 138.532 149.826L137.291 150.625C136.996 150.183 136.633 149.86 136.203 149.656C135.783 149.441 135.33 149.333 134.843 149.333C134.253 149.333 133.726 149.463 133.262 149.724C132.797 149.985 132.429 150.353 132.157 150.829C131.885 151.294 131.749 151.849 131.749 152.495C131.749 153.141 131.885 153.702 132.157 154.178C132.429 154.654 132.797 155.022 133.262 155.283C133.726 155.544 134.253 155.674 134.843 155.674C135.33 155.674 135.783 155.572 136.203 155.368C136.633 155.153 136.996 154.824 137.291 154.382L138.532 155.164C138.18 155.787 137.682 156.269 137.036 156.609C136.401 156.938 135.676 157.102 134.86 157.102ZM146.533 156.235V149.418H142.623L142.538 151.152C142.515 151.719 142.476 152.268 142.419 152.801C142.374 153.322 142.294 153.804 142.181 154.246C142.079 154.688 141.926 155.051 141.722 155.334C141.518 155.617 141.246 155.793 140.906 155.861L139.291 155.572C139.642 155.583 139.926 155.47 140.141 155.232C140.356 154.983 140.521 154.643 140.634 154.212C140.759 153.781 140.849 153.294 140.906 152.75C140.963 152.195 141.008 151.622 141.042 151.033L141.178 147.99H148.165V156.235H146.533ZM138.934 159.091V155.572H149.542V159.091H148.012V157H140.481V159.091H138.934ZM155.68 157.102C154.717 157.102 153.867 156.904 153.13 156.507C152.405 156.11 151.838 155.566 151.43 154.875C151.033 154.184 150.835 153.39 150.835 152.495C150.835 151.6 151.028 150.806 151.413 150.115C151.81 149.424 152.348 148.885 153.028 148.5C153.719 148.103 154.496 147.905 155.357 147.905C156.23 147.905 157 148.098 157.669 148.483C158.338 148.868 158.859 149.412 159.233 150.115C159.618 150.806 159.811 151.617 159.811 152.546C159.811 152.614 159.805 152.693 159.794 152.784C159.794 152.875 159.788 152.96 159.777 153.039H152.11V151.866H158.927L158.264 152.274C158.275 151.696 158.156 151.18 157.907 150.727C157.658 150.274 157.312 149.922 156.87 149.673C156.439 149.412 155.935 149.282 155.357 149.282C154.79 149.282 154.286 149.412 153.844 149.673C153.402 149.922 153.056 150.279 152.807 150.744C152.558 151.197 152.433 151.719 152.433 152.308V152.58C152.433 153.181 152.569 153.719 152.841 154.195C153.124 154.66 153.515 155.022 154.014 155.283C154.513 155.544 155.085 155.674 155.731 155.674C156.264 155.674 156.745 155.583 157.176 155.402C157.618 155.221 158.003 154.949 158.332 154.586L159.233 155.64C158.825 156.116 158.315 156.479 157.703 156.728C157.102 156.977 156.428 157.102 155.68 157.102ZM160.697 156.983L160.799 155.606C160.879 155.617 160.952 155.629 161.02 155.64C161.088 155.651 161.151 155.657 161.207 155.657C161.57 155.657 161.853 155.532 162.057 155.283C162.273 155.034 162.431 154.705 162.533 154.297C162.635 153.878 162.709 153.407 162.754 152.886C162.8 152.365 162.834 151.843 162.856 151.322L163.009 147.99H169.928V157H168.296V148.942L168.687 149.418H164.063L164.437 148.925L164.318 151.424C164.284 152.217 164.222 152.96 164.131 153.651C164.041 154.342 163.899 154.949 163.706 155.47C163.525 155.991 163.27 156.399 162.941 156.694C162.624 156.989 162.21 157.136 161.7 157.136C161.553 157.136 161.394 157.119 161.224 157.085C161.066 157.062 160.89 157.028 160.697 156.983ZM179.612 157L176.127 152.614L177.47 151.798L181.533 157H179.612ZM173.084 157V147.99H174.716V157H173.084ZM174.223 153.192V151.798H177.198V153.192H174.223ZM177.606 152.682L176.093 152.478L179.544 147.99H181.295L177.606 152.682ZM183.188 160.4C182.758 160.4 182.338 160.326 181.93 160.179C181.522 160.043 181.171 159.839 180.876 159.567L181.573 158.343C181.8 158.558 182.049 158.723 182.321 158.836C182.593 158.949 182.882 159.006 183.188 159.006C183.585 159.006 183.914 158.904 184.174 158.7C184.435 158.496 184.679 158.133 184.905 157.612L185.466 156.371L185.636 156.167L189.172 147.99H190.77L186.401 157.901C186.141 158.536 185.846 159.034 185.517 159.397C185.2 159.76 184.849 160.015 184.463 160.162C184.078 160.321 183.653 160.4 183.188 160.4ZM185.33 157.289L181.216 147.99H182.916L186.418 156.014L185.33 157.289ZM191.197 159.516L192.047 156.082L192.268 157.068C191.939 157.068 191.662 156.966 191.435 156.762C191.22 156.558 191.112 156.28 191.112 155.929C191.112 155.589 191.22 155.311 191.435 155.096C191.662 154.881 191.934 154.773 192.251 154.773C192.58 154.773 192.846 154.886 193.05 155.113C193.254 155.328 193.356 155.6 193.356 155.929C193.356 156.042 193.345 156.156 193.322 156.269C193.311 156.371 193.282 156.496 193.237 156.643C193.203 156.779 193.146 156.949 193.067 157.153L192.268 159.516H191.197ZM16.581 178V168.99H24.928V178H23.296V170.01L23.687 170.418H17.822L18.213 170.01V178H16.581ZM31.9449 178.102C31.0382 178.102 30.2335 177.904 29.5309 177.507C28.8282 177.11 28.2729 176.566 27.8649 175.875C27.4569 175.172 27.2529 174.379 27.2529 173.495C27.2529 172.6 27.4569 171.806 27.8649 171.115C28.2729 170.424 28.8282 169.885 29.5309 169.5C30.2335 169.103 31.0382 168.905 31.9449 168.905C32.8402 168.905 33.6392 169.103 34.3419 169.5C35.0559 169.885 35.6112 170.424 36.0079 171.115C36.4159 171.795 36.6199 172.588 36.6199 173.495C36.6199 174.39 36.4159 175.184 36.0079 175.875C35.6112 176.566 35.0559 177.11 34.3419 177.507C33.6392 177.904 32.8402 178.102 31.9449 178.102ZM31.9449 176.674C32.5229 176.674 33.0385 176.544 33.4919 176.283C33.9565 176.022 34.3192 175.654 34.5799 175.178C34.8405 174.691 34.9709 174.13 34.9709 173.495C34.9709 172.849 34.8405 172.294 34.5799 171.829C34.3192 171.353 33.9565 170.985 33.4919 170.724C33.0385 170.463 32.5229 170.333 31.9449 170.333C31.3669 170.333 30.8512 170.463 30.3979 170.724C29.9445 170.985 29.5819 171.353 29.3099 171.829C29.0379 172.294 28.9019 172.849 28.9019 173.495C28.9019 174.13 29.0379 174.691 29.3099 175.178C29.5819 175.654 29.9445 176.022 30.3979 176.283C30.8512 176.544 31.3669 176.674 31.9449 176.674ZM45.0641 177.235V170.418H41.1541L41.0691 172.152C41.0464 172.719 41.0068 173.268 40.9501 173.801C40.9048 174.322 40.8254 174.804 40.7121 175.246C40.6101 175.688 40.4571 176.051 40.2531 176.334C40.0491 176.617 39.7771 176.793 39.4371 176.861L37.8221 176.572C38.1734 176.583 38.4568 176.47 38.6721 176.232C38.8874 175.983 39.0518 175.643 39.1651 175.212C39.2898 174.781 39.3804 174.294 39.4371 173.75C39.4938 173.195 39.5391 172.622 39.5731 172.033L39.7091 168.99H46.6961V177.235H45.0641ZM37.4651 180.091V176.572H48.0731V180.091H46.5431V178H39.0121V180.091H37.4651ZM50.1992 178V168.99H56.8292V170.418H51.4402L51.8312 170.044V178H50.1992ZM61.9605 178.102C61.0538 178.102 60.2492 177.904 59.5465 177.507C58.8438 177.11 58.2885 176.566 57.8805 175.875C57.4725 175.172 57.2685 174.379 57.2685 173.495C57.2685 172.6 57.4725 171.806 57.8805 171.115C58.2885 170.424 58.8438 169.885 59.5465 169.5C60.2492 169.103 61.0538 168.905 61.9605 168.905C62.8558 168.905 63.6548 169.103 64.3575 169.5C65.0715 169.885 65.6268 170.424 66.0235 171.115C66.4315 171.795 66.6355 172.588 66.6355 173.495C66.6355 174.39 66.4315 175.184 66.0235 175.875C65.6268 176.566 65.0715 177.11 64.3575 177.507C63.6548 177.904 62.8558 178.102 61.9605 178.102ZM61.9605 176.674C62.5385 176.674 63.0542 176.544 63.5075 176.283C63.9722 176.022 64.3348 175.654 64.5955 175.178C64.8562 174.691 64.9865 174.13 64.9865 173.495C64.9865 172.849 64.8562 172.294 64.5955 171.829C64.3348 171.353 63.9722 170.985 63.5075 170.724C63.0542 170.463 62.5385 170.333 61.9605 170.333C61.3825 170.333 60.8668 170.463 60.4135 170.724C59.9602 170.985 59.5975 171.353 59.3255 171.829C59.0535 172.294 58.9175 172.849 58.9175 173.495C58.9175 174.13 59.0535 174.691 59.3255 175.178C59.5975 175.654 59.9602 176.022 60.4135 176.283C60.8668 176.544 61.3825 176.674 61.9605 176.674ZM70.4451 178V169.993L70.8531 170.418H67.1471V168.99H75.3751V170.418H71.6861L72.0771 169.993V178H70.4451ZM82.5689 178V176.096L82.4839 175.739V172.492C82.4839 171.801 82.2799 171.268 81.8719 170.894C81.4752 170.509 80.8746 170.316 80.0699 170.316C79.5372 170.316 79.0159 170.407 78.5059 170.588C77.9959 170.758 77.5652 170.99 77.2139 171.285L76.5339 170.061C76.9986 169.687 77.5539 169.404 78.1999 169.211C78.8572 169.007 79.5429 168.905 80.2569 168.905C81.4922 168.905 82.4442 169.205 83.1129 169.806C83.7816 170.407 84.1159 171.325 84.1159 172.56V178H82.5689ZM79.6109 178.102C78.9422 178.102 78.3529 177.989 77.8429 177.762C77.3442 177.535 76.9589 177.224 76.6869 176.827C76.4149 176.419 76.2789 175.96 76.2789 175.45C76.2789 174.963 76.3922 174.521 76.6189 174.124C76.8569 173.727 77.2366 173.41 77.7579 173.172C78.2906 172.934 79.0046 172.815 79.8999 172.815H82.7559V173.988H79.9679C79.1519 173.988 78.6022 174.124 78.3189 174.396C78.0356 174.668 77.8939 174.997 77.8939 175.382C77.8939 175.824 78.0696 176.181 78.4209 176.453C78.7722 176.714 79.2596 176.844 79.8829 176.844C80.4949 176.844 81.0276 176.708 81.4809 176.436C81.9456 176.164 82.2799 175.767 82.4839 175.246L82.8069 176.368C82.5916 176.901 82.2119 177.326 81.6679 177.643C81.1239 177.949 80.4382 178.102 79.6109 178.102ZM87.0546 178V168.99H91.2366C92.2906 168.99 93.118 169.194 93.7186 169.602C94.3306 169.999 94.6366 170.565 94.6366 171.302C94.6366 172.039 94.3476 172.611 93.7696 173.019C93.203 173.416 92.4493 173.614 91.5086 173.614L91.7636 173.172C92.8403 173.172 93.6393 173.37 94.1606 173.767C94.682 174.164 94.9426 174.747 94.9426 175.518C94.9426 176.3 94.648 176.912 94.0586 177.354C93.4806 177.785 92.591 178 91.3896 178H87.0546ZM88.6526 176.742H91.2706C91.9506 176.742 92.4606 176.64 92.8006 176.436C93.1406 176.221 93.3106 175.881 93.3106 175.416C93.3106 174.94 93.152 174.594 92.8346 174.379C92.5286 174.152 92.0413 174.039 91.3726 174.039H88.6526V176.742ZM88.6526 172.866H91.1006C91.724 172.866 92.1943 172.753 92.5116 172.526C92.8403 172.288 93.0046 171.959 93.0046 171.54C93.0046 171.109 92.8403 170.786 92.5116 170.571C92.1943 170.356 91.724 170.248 91.1006 170.248H88.6526V172.866ZM96.001 177.983L96.103 176.606C96.1823 176.617 96.256 176.629 96.324 176.64C96.392 176.651 96.4543 176.657 96.511 176.657C96.8737 176.657 97.157 176.532 97.361 176.283C97.5763 176.034 97.735 175.705 97.837 175.297C97.939 174.878 98.0127 174.407 98.058 173.886C98.1033 173.365 98.1373 172.843 98.16 172.322L98.313 168.99H105.232V178H103.6V169.942L103.991 170.418H99.367L99.741 169.925L99.622 172.424C99.588 173.217 99.5257 173.96 99.435 174.651C99.3443 175.342 99.2027 175.949 99.01 176.47C98.8287 176.991 98.5737 177.399 98.245 177.694C97.9277 177.989 97.514 178.136 97.004 178.136C96.8567 178.136 96.698 178.119 96.528 178.085C96.3693 178.062 96.1937 178.028 96.001 177.983ZM108.388 178V168.99H110.02V175.552L115.545 168.99H117.024V178H115.392V171.438L109.884 178H108.388ZM120.191 178V168.99H124.373C125.427 168.99 126.255 169.194 126.855 169.602C127.467 169.999 127.773 170.565 127.773 171.302C127.773 172.039 127.484 172.611 126.906 173.019C126.34 173.416 125.586 173.614 124.645 173.614L124.9 173.172C125.977 173.172 126.776 173.37 127.297 173.767C127.819 174.164 128.079 174.747 128.079 175.518C128.079 176.3 127.785 176.912 127.195 177.354C126.617 177.785 125.728 178 124.526 178H120.191ZM121.789 176.742H124.407C125.087 176.742 125.597 176.64 125.937 176.436C126.277 176.221 126.447 175.881 126.447 175.416C126.447 174.94 126.289 174.594 125.971 174.379C125.665 174.152 125.178 174.039 124.509 174.039H121.789V176.742ZM121.789 172.866H124.237C124.861 172.866 125.331 172.753 125.648 172.526C125.977 172.288 126.141 171.959 126.141 171.54C126.141 171.109 125.977 170.786 125.648 170.571C125.331 170.356 124.861 170.248 124.237 170.248H121.789V172.866ZM136.159 178V176.096L136.074 175.739V172.492C136.074 171.801 135.87 171.268 135.462 170.894C135.065 170.509 134.464 170.316 133.66 170.316C133.127 170.316 132.606 170.407 132.096 170.588C131.586 170.758 131.155 170.99 130.804 171.285L130.124 170.061C130.588 169.687 131.144 169.404 131.79 169.211C132.447 169.007 133.133 168.905 133.847 168.905C135.082 168.905 136.034 169.205 136.703 169.806C137.371 170.407 137.706 171.325 137.706 172.56V178H136.159ZM133.201 178.102C132.532 178.102 131.943 177.989 131.433 177.762C130.934 177.535 130.549 177.224 130.277 176.827C130.005 176.419 129.869 175.96 129.869 175.45C129.869 174.963 129.982 174.521 130.209 174.124C130.447 173.727 130.826 173.41 131.348 173.172C131.88 172.934 132.594 172.815 133.49 172.815H136.346V173.988H133.558C132.742 173.988 132.192 174.124 131.909 174.396C131.625 174.668 131.484 174.997 131.484 175.382C131.484 175.824 131.659 176.181 132.011 176.453C132.362 176.714 132.849 176.844 133.473 176.844C134.085 176.844 134.617 176.708 135.071 176.436C135.535 176.164 135.87 175.767 136.074 175.246L136.397 176.368C136.181 176.901 135.802 177.326 135.258 177.643C134.714 177.949 134.028 178.102 133.201 178.102ZM144.656 178.102C143.693 178.102 142.843 177.904 142.106 177.507C141.381 177.11 140.814 176.566 140.406 175.875C140.01 175.184 139.811 174.39 139.811 173.495C139.811 172.6 140.004 171.806 140.389 171.115C140.786 170.424 141.324 169.885 142.004 169.5C142.696 169.103 143.472 168.905 144.333 168.905C145.206 168.905 145.977 169.098 146.645 169.483C147.314 169.868 147.835 170.412 148.209 171.115C148.595 171.806 148.787 172.617 148.787 173.546C148.787 173.614 148.782 173.693 148.77 173.784C148.77 173.875 148.765 173.96 148.753 174.039H141.086V172.866H147.903L147.24 173.274C147.252 172.696 147.133 172.18 146.883 171.727C146.634 171.274 146.288 170.922 145.846 170.673C145.416 170.412 144.911 170.282 144.333 170.282C143.767 170.282 143.262 170.412 142.82 170.673C142.378 170.922 142.033 171.279 141.783 171.744C141.534 172.197 141.409 172.719 141.409 173.308V173.58C141.409 174.181 141.545 174.719 141.817 175.195C142.101 175.66 142.492 176.022 142.99 176.283C143.489 176.544 144.061 176.674 144.707 176.674C145.24 176.674 145.722 176.583 146.152 176.402C146.594 176.221 146.98 175.949 147.308 175.586L148.209 176.64C147.801 177.116 147.291 177.479 146.679 177.728C146.079 177.977 145.404 178.102 144.656 178.102ZM151.319 178V168.99H153.002L156.878 175.654H156.198L160.176 168.99H161.706V178H160.227V170.826L160.499 170.979L156.861 176.98H156.147L152.492 170.86L152.815 170.792V178H151.319ZM169.448 178V168.99H177.795V178H176.163V170.01L176.554 170.418H170.689L171.08 170.01V178H169.448ZM186.478 178V176.096L186.393 175.739V172.492C186.393 171.801 186.189 171.268 185.781 170.894C185.384 170.509 184.784 170.316 183.979 170.316C183.446 170.316 182.925 170.407 182.415 170.588C181.905 170.758 181.474 170.99 181.123 171.285L180.443 170.061C180.908 169.687 181.463 169.404 182.109 169.211C182.766 169.007 183.452 168.905 184.166 168.905C185.401 168.905 186.353 169.205 187.022 169.806C187.691 170.407 188.025 171.325 188.025 172.56V178H186.478ZM183.52 178.102C182.851 178.102 182.262 177.989 181.752 177.762C181.253 177.535 180.868 177.224 180.596 176.827C180.324 176.419 180.188 175.96 180.188 175.45C180.188 174.963 180.301 174.521 180.528 174.124C180.766 173.727 181.146 173.41 181.667 173.172C182.2 172.934 182.914 172.815 183.809 172.815H186.665V173.988H183.877C183.061 173.988 182.511 174.124 182.228 174.396C181.945 174.668 181.803 174.997 181.803 175.382C181.803 175.824 181.979 176.181 182.33 176.453C182.681 176.714 183.169 176.844 183.792 176.844C184.404 176.844 184.937 176.708 185.39 176.436C185.855 176.164 186.189 175.767 186.393 175.246L186.716 176.368C186.501 176.901 186.121 177.326 185.577 177.643C185.033 177.949 184.347 178.102 183.52 178.102ZM197.492 178L194.007 173.614L195.35 172.798L199.413 178H197.492ZM190.964 178V168.99H192.596V178H190.964ZM192.103 174.192V172.798H195.078V174.192H192.103ZM195.486 173.682L193.973 173.478L197.424 168.99H199.175L195.486 173.682ZM204.837 178.102C203.874 178.102 203.024 177.904 202.287 177.507C201.562 177.11 200.995 176.566 200.587 175.875C200.19 175.184 199.992 174.39 199.992 173.495C199.992 172.6 200.185 171.806 200.57 171.115C200.967 170.424 201.505 169.885 202.185 169.5C202.876 169.103 203.653 168.905 204.514 168.905C205.387 168.905 206.157 169.098 206.826 169.483C207.495 169.868 208.016 170.412 208.39 171.115C208.775 171.806 208.968 172.617 208.968 173.546C208.968 173.614 208.962 173.693 208.951 173.784C208.951 173.875 208.945 173.96 208.934 174.039H201.267V172.866H208.084L207.421 173.274C207.432 172.696 207.313 172.18 207.064 171.727C206.815 171.274 206.469 170.922 206.027 170.673C205.596 170.412 205.092 170.282 204.514 170.282C203.947 170.282 203.443 170.412 203.001 170.673C202.559 170.922 202.213 171.279 201.964 171.744C201.715 172.197 201.59 172.719 201.59 173.308V173.58C201.59 174.181 201.726 174.719 201.998 175.195C202.281 175.66 202.672 176.022 203.171 176.283C203.67 176.544 204.242 176.674 204.888 176.674C205.421 176.674 205.902 176.583 206.333 176.402C206.775 176.221 207.16 175.949 207.489 175.586L208.39 176.64C207.982 177.116 207.472 177.479 206.86 177.728C206.259 177.977 205.585 178.102 204.837 178.102ZM212.903 178V169.993L213.311 170.418H209.605V168.99H217.833V170.418H214.144L214.535 169.993V178H212.903ZM22.735 198.235V191.418H18.825L18.74 193.152C18.7173 193.719 18.6777 194.268 18.621 194.801C18.5757 195.322 18.4963 195.804 18.383 196.246C18.281 196.688 18.128 197.051 17.924 197.334C17.72 197.617 17.448 197.793 17.108 197.861L15.493 197.572C15.8443 197.583 16.1277 197.47 16.343 197.232C16.5583 196.983 16.7227 196.643 16.836 196.212C16.9607 195.781 17.0513 195.294 17.108 194.75C17.1647 194.195 17.21 193.622 17.244 193.033L17.38 189.99H24.367V198.235H22.735ZM15.136 201.091V197.572H25.744V201.091H24.214V199H16.683V201.091H15.136ZM31.7291 199.102C30.8224 199.102 30.0177 198.904 29.3151 198.507C28.6124 198.11 28.0571 197.566 27.6491 196.875C27.2411 196.172 27.0371 195.379 27.0371 194.495C27.0371 193.6 27.2411 192.806 27.6491 192.115C28.0571 191.424 28.6124 190.885 29.3151 190.5C30.0177 190.103 30.8224 189.905 31.7291 189.905C32.6244 189.905 33.4234 190.103 34.1261 190.5C34.8401 190.885 35.3954 191.424 35.7921 192.115C36.2001 192.795 36.4041 193.588 36.4041 194.495C36.4041 195.39 36.2001 196.184 35.7921 196.875C35.3954 197.566 34.8401 198.11 34.1261 198.507C33.4234 198.904 32.6244 199.102 31.7291 199.102ZM31.7291 197.674C32.3071 197.674 32.8227 197.544 33.2761 197.283C33.7407 197.022 34.1034 196.654 34.3641 196.178C34.6247 195.691 34.7551 195.13 34.7551 194.495C34.7551 193.849 34.6247 193.294 34.3641 192.829C34.1034 192.353 33.7407 191.985 33.2761 191.724C32.8227 191.463 32.3071 191.333 31.7291 191.333C31.1511 191.333 30.6354 191.463 30.1821 191.724C29.7287 191.985 29.3661 192.353 29.0941 192.829C28.8221 193.294 28.6861 193.849 28.6861 194.495C28.6861 195.13 28.8221 195.691 29.0941 196.178C29.3661 196.654 29.7287 197.022 30.1821 197.283C30.6354 197.544 31.1511 197.674 31.7291 197.674ZM45.2887 199L41.8037 194.614L43.1467 193.798L47.2097 199H45.2887ZM38.7607 199V189.99H40.3927V199H38.7607ZM39.8997 195.192V193.798H42.8747V195.192H39.8997ZM43.2827 194.682L41.7697 194.478L45.2207 189.99H46.9717L43.2827 194.682ZM48.8652 202.4C48.4345 202.4 48.0152 202.326 47.6072 202.179C47.1992 202.043 46.8479 201.839 46.5532 201.567L47.2502 200.343C47.4769 200.558 47.7262 200.723 47.9982 200.836C48.2702 200.949 48.5592 201.006 48.8652 201.006C49.2619 201.006 49.5905 200.904 49.8512 200.7C50.1119 200.496 50.3555 200.133 50.5822 199.612L51.1432 198.371L51.3132 198.167L54.8492 189.99H56.4472L52.0782 199.901C51.8175 200.536 51.5229 201.034 51.1942 201.397C50.8769 201.76 50.5255 202.015 50.1402 202.162C49.7549 202.321 49.3299 202.4 48.8652 202.4ZM51.0072 199.289L46.8932 189.99H48.5932L52.0952 198.014L51.0072 199.289ZM58.1181 199V189.99H59.8011L63.6771 196.654H62.9971L66.9751 189.99H68.5051V199H67.0261V191.826L67.2981 191.979L63.6601 197.98H62.9461L59.2911 191.86L59.6141 191.792V199H58.1181ZM75.6936 199.102C74.7303 199.102 73.8803 198.904 73.1436 198.507C72.4183 198.11 71.8516 197.566 71.4436 196.875C71.0469 196.184 70.8486 195.39 70.8486 194.495C70.8486 193.6 71.0413 192.806 71.4266 192.115C71.8233 191.424 72.3616 190.885 73.0416 190.5C73.7329 190.103 74.5093 189.905 75.3706 189.905C76.2433 189.905 77.0139 190.098 77.6826 190.483C78.3513 190.868 78.8726 191.412 79.2466 192.115C79.6319 192.806 79.8246 193.617 79.8246 194.546C79.8246 194.614 79.8189 194.693 79.8076 194.784C79.8076 194.875 79.8019 194.96 79.7906 195.039H72.1236V193.866H78.9406L78.2776 194.274C78.2889 193.696 78.1699 193.18 77.9206 192.727C77.6713 192.274 77.3256 191.922 76.8836 191.673C76.4529 191.412 75.9486 191.282 75.3706 191.282C74.8039 191.282 74.2996 191.412 73.8576 191.673C73.4156 191.922 73.0699 192.279 72.8206 192.744C72.5713 193.197 72.4466 193.719 72.4466 194.308V194.58C72.4466 195.181 72.5826 195.719 72.8546 196.195C73.1379 196.66 73.5289 197.022 74.0276 197.283C74.5263 197.544 75.0986 197.674 75.7446 197.674C76.2773 197.674 76.7589 197.583 77.1896 197.402C77.6316 197.221 78.0169 196.949 78.3456 196.586L79.2466 197.64C78.8386 198.116 78.3286 198.479 77.7166 198.728C77.1159 198.977 76.4416 199.102 75.6936 199.102ZM82.3564 199V189.99H83.9884V193.815H89.1224V189.99H90.7544V199H89.1224V195.226H83.9884V199H82.3564ZM95.7127 199V190.993L96.1207 191.418H92.4147V189.99H100.643V191.418H96.9537L97.3447 190.993V199H95.7127ZM105.772 199.102C104.865 199.102 104.061 198.904 103.358 198.507C102.655 198.11 102.1 197.566 101.692 196.875C101.284 196.172 101.08 195.379 101.08 194.495C101.08 193.6 101.284 192.806 101.692 192.115C102.1 191.424 102.655 190.885 103.358 190.5C104.061 190.103 104.865 189.905 105.772 189.905C106.667 189.905 107.466 190.103 108.169 190.5C108.883 190.885 109.438 191.424 109.835 192.115C110.243 192.795 110.447 193.588 110.447 194.495C110.447 195.39 110.243 196.184 109.835 196.875C109.438 197.566 108.883 198.11 108.169 198.507C107.466 198.904 106.667 199.102 105.772 199.102ZM105.772 197.674C106.35 197.674 106.866 197.544 107.319 197.283C107.784 197.022 108.146 196.654 108.407 196.178C108.668 195.691 108.798 195.13 108.798 194.495C108.798 193.849 108.668 193.294 108.407 192.829C108.146 192.353 107.784 191.985 107.319 191.724C106.866 191.463 106.35 191.333 105.772 191.333C105.194 191.333 104.678 191.463 104.225 191.724C103.772 191.985 103.409 192.353 103.137 192.829C102.865 193.294 102.729 193.849 102.729 194.495C102.729 195.13 102.865 195.691 103.137 196.178C103.409 196.654 103.772 197.022 104.225 197.283C104.678 197.544 105.194 197.674 105.772 197.674ZM112.804 199V189.99H116.986C118.04 189.99 118.867 190.194 119.468 190.602C120.08 190.999 120.386 191.565 120.386 192.302C120.386 193.039 120.097 193.611 119.519 194.019C118.952 194.416 118.198 194.614 117.258 194.614L117.513 194.172C118.589 194.172 119.388 194.37 119.91 194.767C120.431 195.164 120.692 195.747 120.692 196.518C120.692 197.3 120.397 197.912 119.808 198.354C119.23 198.785 118.34 199 117.139 199H112.804ZM114.402 197.742H117.02C117.7 197.742 118.21 197.64 118.55 197.436C118.89 197.221 119.06 196.881 119.06 196.416C119.06 195.94 118.901 195.594 118.584 195.379C118.278 195.152 117.79 195.039 117.122 195.039H114.402V197.742ZM114.402 193.866H116.85C117.473 193.866 117.943 193.753 118.261 193.526C118.589 193.288 118.754 192.959 118.754 192.54C118.754 192.109 118.589 191.786 118.261 191.571C117.943 191.356 117.473 191.248 116.85 191.248H114.402V193.866ZM133.965 198.235V191.418H130.055L129.97 193.152C129.948 193.719 129.908 194.268 129.851 194.801C129.806 195.322 129.727 195.804 129.613 196.246C129.511 196.688 129.358 197.051 129.154 197.334C128.95 197.617 128.678 197.793 128.338 197.861L126.723 197.572C127.075 197.583 127.358 197.47 127.573 197.232C127.789 196.983 127.953 196.643 128.066 196.212C128.191 195.781 128.282 195.294 128.338 194.75C128.395 194.195 128.44 193.622 128.474 193.033L128.61 189.99H135.597V198.235H133.965ZM126.366 201.091V197.572H136.974V201.091H135.444V199H127.913V201.091H126.366ZM137.605 198.983L137.707 197.606C137.786 197.617 137.86 197.629 137.928 197.64C137.996 197.651 138.058 197.657 138.115 197.657C138.477 197.657 138.761 197.532 138.965 197.283C139.18 197.034 139.339 196.705 139.441 196.297C139.543 195.878 139.616 195.407 139.662 194.886C139.707 194.365 139.741 193.843 139.764 193.322L139.917 189.99H146.836V199H145.204V190.942L145.595 191.418H140.971L141.345 190.925L141.226 193.424C141.192 194.217 141.129 194.96 141.039 195.651C140.948 196.342 140.806 196.949 140.614 197.47C140.432 197.991 140.177 198.399 139.849 198.694C139.531 198.989 139.118 199.136 138.608 199.136C138.46 199.136 138.302 199.119 138.132 199.085C137.973 199.062 137.797 199.028 137.605 198.983ZM155.754 199V195.838L156.009 196.144H153.136C151.935 196.144 150.994 195.889 150.314 195.379C149.645 194.869 149.311 194.127 149.311 193.152C149.311 192.109 149.668 191.322 150.382 190.789C151.107 190.256 152.071 189.99 153.272 189.99H157.216V199H155.754ZM149.226 199L151.674 195.549H153.357L150.977 199H149.226ZM155.754 195.328V190.959L156.009 191.418H153.323C152.575 191.418 151.997 191.56 151.589 191.843C151.181 192.115 150.977 192.568 150.977 193.203C150.977 194.382 151.736 194.971 153.255 194.971H156.009L155.754 195.328ZM16.581 220V210.99H24.928V220H23.296V212.01L23.687 212.418H17.822L18.213 212.01V220H16.581ZM32.0979 220.102C31.1345 220.102 30.2845 219.904 29.5479 219.507C28.8225 219.11 28.2559 218.566 27.8479 217.875C27.4512 217.184 27.2529 216.39 27.2529 215.495C27.2529 214.6 27.4455 213.806 27.8309 213.115C28.2275 212.424 28.7659 211.885 29.4459 211.5C30.1372 211.103 30.9135 210.905 31.7749 210.905C32.6475 210.905 33.4182 211.098 34.0869 211.483C34.7555 211.868 35.2769 212.412 35.6509 213.115C36.0362 213.806 36.2289 214.617 36.2289 215.546C36.2289 215.614 36.2232 215.693 36.2119 215.784C36.2119 215.875 36.2062 215.96 36.1949 216.039H28.5279V214.866H35.3449L34.6819 215.274C34.6932 214.696 34.5742 214.18 34.3249 213.727C34.0755 213.274 33.7299 212.922 33.2879 212.673C32.8572 212.412 32.3529 212.282 31.7749 212.282C31.2082 212.282 30.7039 212.412 30.2619 212.673C29.8199 212.922 29.4742 213.279 29.2249 213.744C28.9755 214.197 28.8509 214.719 28.8509 215.308V215.58C28.8509 216.181 28.9869 216.719 29.2589 217.195C29.5422 217.66 29.9332 218.022 30.4319 218.283C30.9305 218.544 31.5029 218.674 32.1489 218.674C32.6815 218.674 33.1632 218.583 33.5939 218.402C34.0359 218.221 34.4212 217.949 34.7499 217.586L35.6509 218.64C35.2429 219.116 34.7329 219.479 34.1209 219.728C33.5202 219.977 32.8459 220.102 32.0979 220.102ZM43.5377 220.102C42.7897 220.102 42.104 219.932 41.4807 219.592C40.8687 219.241 40.3757 218.725 40.0017 218.045C39.639 217.365 39.4577 216.515 39.4577 215.495C39.4577 214.475 39.6334 213.625 39.9847 212.945C40.3474 212.265 40.8347 211.755 41.4467 211.415C42.07 211.075 42.767 210.905 43.5377 210.905C44.4217 210.905 45.2037 211.098 45.8837 211.483C46.5637 211.868 47.102 212.407 47.4987 213.098C47.8954 213.778 48.0937 214.577 48.0937 215.495C48.0937 216.413 47.8954 217.218 47.4987 217.909C47.102 218.6 46.5637 219.139 45.8837 219.524C45.2037 219.909 44.4217 220.102 43.5377 220.102ZM38.7607 223.298V210.99H40.3247V213.421L40.2227 215.512L40.3927 217.603V223.298H38.7607ZM43.4017 218.674C43.9797 218.674 44.4954 218.544 44.9487 218.283C45.4134 218.022 45.776 217.654 46.0367 217.178C46.3087 216.691 46.4447 216.13 46.4447 215.495C46.4447 214.849 46.3087 214.294 46.0367 213.829C45.776 213.353 45.4134 212.985 44.9487 212.724C44.4954 212.463 43.9797 212.333 43.4017 212.333C42.835 212.333 42.3194 212.463 41.8547 212.724C41.4014 212.985 41.0387 213.353 40.7667 213.829C40.506 214.294 40.3757 214.849 40.3757 215.495C40.3757 216.13 40.506 216.691 40.7667 217.178C41.0387 217.654 41.4014 218.022 41.8547 218.283C42.3194 218.544 42.835 218.674 43.4017 218.674ZM54.4768 220.102C53.5135 220.102 52.6635 219.904 51.9268 219.507C51.2015 219.11 50.6348 218.566 50.2268 217.875C49.8301 217.184 49.6318 216.39 49.6318 215.495C49.6318 214.6 49.8245 213.806 50.2098 213.115C50.6065 212.424 51.1448 211.885 51.8248 211.5C52.5161 211.103 53.2925 210.905 54.1538 210.905C55.0265 210.905 55.7971 211.098 56.4658 211.483C57.1345 211.868 57.6558 212.412 58.0298 213.115C58.4151 213.806 58.6078 214.617 58.6078 215.546C58.6078 215.614 58.6021 215.693 58.5908 215.784C58.5908 215.875 58.5851 215.96 58.5738 216.039H50.9068V214.866H57.7238L57.0608 215.274C57.0721 214.696 56.9531 214.18 56.7038 213.727C56.4545 213.274 56.1088 212.922 55.6668 212.673C55.2361 212.412 54.7318 212.282 54.1538 212.282C53.5871 212.282 53.0828 212.412 52.6408 212.673C52.1988 212.922 51.8531 213.279 51.6038 213.744C51.3545 214.197 51.2298 214.719 51.2298 215.308V215.58C51.2298 216.181 51.3658 216.719 51.6378 217.195C51.9211 217.66 52.3121 218.022 52.8108 218.283C53.3095 218.544 53.8818 218.674 54.5278 218.674C55.0605 218.674 55.5421 218.583 55.9728 218.402C56.4148 218.221 56.8001 217.949 57.1288 217.586L58.0298 218.64C57.6218 219.116 57.1118 219.479 56.4998 219.728C55.8991 219.977 55.2248 220.102 54.4768 220.102ZM64.9986 220.102C64.0919 220.102 63.2873 219.904 62.5846 219.507C61.8819 219.11 61.3266 218.566 60.9186 217.875C60.5106 217.172 60.3066 216.379 60.3066 215.495C60.3066 214.6 60.5106 213.806 60.9186 213.115C61.3266 212.424 61.8819 211.885 62.5846 211.5C63.2873 211.103 64.0919 210.905 64.9986 210.905C65.8939 210.905 66.6929 211.103 67.3956 211.5C68.1096 211.885 68.6649 212.424 69.0616 213.115C69.4696 213.795 69.6736 214.588 69.6736 215.495C69.6736 216.39 69.4696 217.184 69.0616 217.875C68.6649 218.566 68.1096 219.11 67.3956 219.507C66.6929 219.904 65.8939 220.102 64.9986 220.102ZM64.9986 218.674C65.5766 218.674 66.0923 218.544 66.5456 218.283C67.0103 218.022 67.3729 217.654 67.6336 217.178C67.8943 216.691 68.0246 216.13 68.0246 215.495C68.0246 214.849 67.8943 214.294 67.6336 213.829C67.3729 213.353 67.0103 212.985 66.5456 212.724C66.0923 212.463 65.5766 212.333 64.9986 212.333C64.4206 212.333 63.9049 212.463 63.4516 212.724C62.9983 212.985 62.6356 213.353 62.3636 213.829C62.0916 214.294 61.9556 214.849 61.9556 215.495C61.9556 216.13 62.0916 216.691 62.3636 217.178C62.6356 217.654 62.9983 218.022 63.4516 218.283C63.9049 218.544 64.4206 218.674 64.9986 218.674ZM77.4022 220.136C77.3909 220.136 77.3512 220.136 77.2832 220.136C77.2266 220.136 77.1699 220.136 77.1132 220.136C77.0566 220.136 77.0226 220.136 77.0112 220.136C75.1639 220.113 73.7302 219.705 72.7102 218.912C71.6902 218.107 71.1802 216.963 71.1802 215.478C71.1802 214.005 71.6902 212.877 72.7102 212.095C73.7416 211.302 75.1922 210.899 77.0622 210.888C77.0849 210.888 77.1189 210.888 77.1642 210.888C77.2209 210.888 77.2719 210.888 77.3172 210.888C77.3739 210.888 77.4079 210.888 77.4192 210.888C79.3119 210.888 80.7796 211.285 81.8222 212.078C82.8762 212.871 83.4032 214.005 83.4032 215.478C83.4032 216.974 82.8762 218.124 81.8222 218.929C80.7682 219.734 79.2949 220.136 77.4022 220.136ZM77.3682 218.708C78.3542 218.708 79.1702 218.583 79.8162 218.334C80.4736 218.085 80.9666 217.722 81.2952 217.246C81.6239 216.77 81.7882 216.181 81.7882 215.478C81.7882 214.787 81.6239 214.209 81.2952 213.744C80.9666 213.279 80.4736 212.928 79.8162 212.69C79.1702 212.452 78.3542 212.333 77.3682 212.333C77.3456 212.333 77.3002 212.333 77.2322 212.333C77.1642 212.333 77.1246 212.333 77.1132 212.333C76.1499 212.333 75.3452 212.458 74.6992 212.707C74.0646 212.945 73.5886 213.296 73.2712 213.761C72.9539 214.226 72.7952 214.798 72.7952 215.478C72.7952 216.169 72.9539 216.753 73.2712 217.229C73.5999 217.705 74.0816 218.068 74.7162 218.317C75.3622 218.566 76.1612 218.697 77.1132 218.708C77.1359 218.708 77.1756 218.708 77.2322 218.708C77.3002 218.708 77.3456 218.708 77.3682 218.708ZM76.4842 223.298V207.386H78.0822V223.298H76.4842ZM89.5689 220.102C88.6622 220.102 87.8576 219.904 87.1549 219.507C86.4522 219.11 85.8969 218.566 85.4889 217.875C85.0809 217.172 84.8769 216.379 84.8769 215.495C84.8769 214.6 85.0809 213.806 85.4889 213.115C85.8969 212.424 86.4522 211.885 87.1549 211.5C87.8576 211.103 88.6622 210.905 89.5689 210.905C90.4642 210.905 91.2632 211.103 91.9659 211.5C92.6799 211.885 93.2352 212.424 93.6319 213.115C94.0399 213.795 94.2439 214.588 94.2439 215.495C94.2439 216.39 94.0399 217.184 93.6319 217.875C93.2352 218.566 92.6799 219.11 91.9659 219.507C91.2632 219.904 90.4642 220.102 89.5689 220.102ZM89.5689 218.674C90.1469 218.674 90.6626 218.544 91.1159 218.283C91.5806 218.022 91.9432 217.654 92.2039 217.178C92.4646 216.691 92.5949 216.13 92.5949 215.495C92.5949 214.849 92.4646 214.294 92.2039 213.829C91.9432 213.353 91.5806 212.985 91.1159 212.724C90.6626 212.463 90.1469 212.333 89.5689 212.333C88.9909 212.333 88.4752 212.463 88.0219 212.724C87.5686 212.985 87.2059 213.353 86.9339 213.829C86.6619 214.294 86.5259 214.849 86.5259 215.495C86.5259 216.13 86.6619 216.691 86.9339 217.178C87.2059 217.654 87.5686 218.022 88.0219 218.283C88.4752 218.544 88.9909 218.674 89.5689 218.674ZM101.378 220.102C100.63 220.102 99.9439 219.932 99.3205 219.592C98.7085 219.241 98.2155 218.725 97.8415 218.045C97.4789 217.365 97.2975 216.515 97.2975 215.495C97.2975 214.475 97.4732 213.625 97.8245 212.945C98.1872 212.265 98.6745 211.755 99.2865 211.415C99.9099 211.075 100.607 210.905 101.378 210.905C102.262 210.905 103.044 211.098 103.724 211.483C104.404 211.868 104.942 212.407 105.339 213.098C105.735 213.778 105.934 214.577 105.934 215.495C105.934 216.413 105.735 217.218 105.339 217.909C104.942 218.6 104.404 219.139 103.724 219.524C103.044 219.909 102.262 220.102 101.378 220.102ZM96.6005 223.298V210.99H98.1645V213.421L98.0625 215.512L98.2325 217.603V223.298H96.6005ZM101.242 218.674C101.82 218.674 102.335 218.544 102.789 218.283C103.253 218.022 103.616 217.654 103.877 217.178C104.149 216.691 104.285 216.13 104.285 215.495C104.285 214.849 104.149 214.294 103.877 213.829C103.616 213.353 103.253 212.985 102.789 212.724C102.335 212.463 101.82 212.333 101.242 212.333C100.675 212.333 100.159 212.463 99.6945 212.724C99.2412 212.985 98.8785 213.353 98.6065 213.829C98.3459 214.294 98.2155 214.849 98.2155 215.495C98.2155 216.13 98.3459 216.691 98.6065 217.178C98.8785 217.654 99.2412 218.022 99.6945 218.283C100.159 218.544 100.675 218.674 101.242 218.674ZM108.305 220V210.99H109.988L113.864 217.654H113.184L117.162 210.99H118.692V220H117.213V212.826L117.485 212.979L113.847 218.98H113.133L109.478 212.86L109.801 212.792V220H108.305ZM120.372 219.983L120.474 218.606C120.553 218.617 120.627 218.629 120.695 218.64C120.763 218.651 120.825 218.657 120.882 218.657C121.245 218.657 121.528 218.532 121.732 218.283C121.947 218.034 122.106 217.705 122.208 217.297C122.31 216.878 122.384 216.407 122.429 215.886C122.474 215.365 122.508 214.843 122.531 214.322L122.684 210.99H129.603V220H127.971V211.942L128.362 212.418H123.738L124.112 211.925L123.993 214.424C123.959 215.217 123.897 215.96 123.806 216.651C123.715 217.342 123.574 217.949 123.381 218.47C123.2 218.991 122.945 219.399 122.616 219.694C122.299 219.989 121.885 220.136 121.375 220.136C121.228 220.136 121.069 220.119 120.899 220.085C120.74 220.062 120.565 220.028 120.372 219.983ZM136.771 220.102C135.807 220.102 134.957 219.904 134.221 219.507C133.495 219.11 132.929 218.566 132.521 217.875C132.124 217.184 131.926 216.39 131.926 215.495C131.926 214.6 132.118 213.806 132.504 213.115C132.9 212.424 133.439 211.885 134.119 211.5C134.81 211.103 135.586 210.905 136.448 210.905C137.32 210.905 138.091 211.098 138.76 211.483C139.428 211.868 139.95 212.412 140.324 213.115C140.709 213.806 140.902 214.617 140.902 215.546C140.902 215.614 140.896 215.693 140.885 215.784C140.885 215.875 140.879 215.96 140.868 216.039H133.201V214.866H140.018L139.355 215.274C139.366 214.696 139.247 214.18 138.998 213.727C138.748 213.274 138.403 212.922 137.961 212.673C137.53 212.412 137.026 212.282 136.448 212.282C135.881 212.282 135.377 212.412 134.935 212.673C134.493 212.922 134.147 213.279 133.898 213.744C133.648 214.197 133.524 214.719 133.524 215.308V215.58C133.524 216.181 133.66 216.719 133.932 217.195C134.215 217.66 134.606 218.022 135.105 218.283C135.603 218.544 136.176 218.674 136.822 218.674C137.354 218.674 137.836 218.583 138.267 218.402C138.709 218.221 139.094 217.949 139.423 217.586L140.324 218.64C139.916 219.116 139.406 219.479 138.794 219.728C138.193 219.977 137.519 220.102 136.771 220.102ZM143.434 220V210.99H145.066V214.815H150.2V210.99H151.832V220H150.2V216.226H145.066V220H143.434ZM155.005 220V210.99H156.637V217.552L162.162 210.99H163.641V220H162.009V213.438L156.501 220H155.005ZM172.572 220V216.838L172.827 217.144H169.954C168.752 217.144 167.812 216.889 167.132 216.379C166.463 215.869 166.129 215.127 166.129 214.152C166.129 213.109 166.486 212.322 167.2 211.789C167.925 211.256 168.888 210.99 170.09 210.99H174.034V220H172.572ZM166.044 220L168.492 216.549H170.175L167.795 220H166.044ZM172.572 216.328V211.959L172.827 212.418H170.141C169.393 212.418 168.815 212.56 168.407 212.843C167.999 213.115 167.795 213.568 167.795 214.203C167.795 215.382 168.554 215.971 170.073 215.971H172.827L172.572 216.328ZM22.106 241V239.096L22.021 238.739V235.492C22.021 234.801 21.817 234.268 21.409 233.894C21.0123 233.509 20.4117 233.316 19.607 233.316C19.0743 233.316 18.553 233.407 18.043 233.588C17.533 233.758 17.1023 233.99 16.751 234.285L16.071 233.061C16.5357 232.687 17.091 232.404 17.737 232.211C18.3943 232.007 19.08 231.905 19.794 231.905C21.0293 231.905 21.9813 232.205 22.65 232.806C23.3187 233.407 23.653 234.325 23.653 235.56V241H22.106ZM19.148 241.102C18.4793 241.102 17.89 240.989 17.38 240.762C16.8813 240.535 16.496 240.224 16.224 239.827C15.952 239.419 15.816 238.96 15.816 238.45C15.816 237.963 15.9293 237.521 16.156 237.124C16.394 236.727 16.7737 236.41 17.295 236.172C17.8277 235.934 18.5417 235.815 19.437 235.815H22.293V236.988H19.505C18.689 236.988 18.1393 237.124 17.856 237.396C17.5727 237.668 17.431 237.997 17.431 238.382C17.431 238.824 17.6067 239.181 17.958 239.453C18.3093 239.714 18.7967 239.844 19.42 239.844C20.032 239.844 20.5647 239.708 21.018 239.436C21.4827 239.164 21.817 238.767 22.021 238.246L22.344 239.368C22.1287 239.901 21.749 240.326 21.205 240.643C20.661 240.949 19.9753 241.102 19.148 241.102ZM26.5917 241V231.99H30.7737C31.8277 231.99 32.6551 232.194 33.2557 232.602C33.8677 232.999 34.1737 233.565 34.1737 234.302C34.1737 235.039 33.8847 235.611 33.3067 236.019C32.7401 236.416 31.9864 236.614 31.0457 236.614L31.3007 236.172C32.3774 236.172 33.1764 236.37 33.6977 236.767C34.2191 237.164 34.4797 237.747 34.4797 238.518C34.4797 239.3 34.1851 239.912 33.5957 240.354C33.0177 240.785 32.1281 241 30.9267 241H26.5917ZM28.1897 239.742H30.8077C31.4877 239.742 31.9977 239.64 32.3377 239.436C32.6777 239.221 32.8477 238.881 32.8477 238.416C32.8477 237.94 32.6891 237.594 32.3717 237.379C32.0657 237.152 31.5784 237.039 30.9097 237.039H28.1897V239.742ZM28.1897 235.866H30.6377C31.2611 235.866 31.7314 235.753 32.0487 235.526C32.3774 235.288 32.5417 234.959 32.5417 234.54C32.5417 234.109 32.3774 233.786 32.0487 233.571C31.7314 233.356 31.2611 233.248 30.6377 233.248H28.1897V235.866ZM38.8191 241V232.993L39.2271 233.418H35.5211V231.99H43.7491V233.418H40.0601L40.4511 232.993V241H38.8191ZM48.8785 241.102C47.9718 241.102 47.1671 240.904 46.4645 240.507C45.7618 240.11 45.2065 239.566 44.7985 238.875C44.3905 238.172 44.1865 237.379 44.1865 236.495C44.1865 235.6 44.3905 234.806 44.7985 234.115C45.2065 233.424 45.7618 232.885 46.4645 232.5C47.1671 232.103 47.9718 231.905 48.8785 231.905C49.7738 231.905 50.5728 232.103 51.2755 232.5C51.9895 232.885 52.5448 233.424 52.9415 234.115C53.3495 234.795 53.5535 235.588 53.5535 236.495C53.5535 237.39 53.3495 238.184 52.9415 238.875C52.5448 239.566 51.9895 240.11 51.2755 240.507C50.5728 240.904 49.7738 241.102 48.8785 241.102ZM48.8785 239.674C49.4565 239.674 49.9721 239.544 50.4255 239.283C50.8901 239.022 51.2528 238.654 51.5135 238.178C51.7741 237.691 51.9045 237.13 51.9045 236.495C51.9045 235.849 51.7741 235.294 51.5135 234.829C51.2528 234.353 50.8901 233.985 50.4255 233.724C49.9721 233.463 49.4565 233.333 48.8785 233.333C48.3005 233.333 47.7848 233.463 47.3315 233.724C46.8781 233.985 46.5155 234.353 46.2435 234.829C45.9715 235.294 45.8355 235.849 45.8355 236.495C45.8355 237.13 45.9715 237.691 46.2435 238.178C46.5155 238.654 46.8781 239.022 47.3315 239.283C47.7848 239.544 48.3005 239.674 48.8785 239.674ZM55.9101 241V231.99H57.5931L61.4691 238.654H60.7891L64.7671 231.99H66.2971V241H64.8181V233.826L65.0901 233.979L61.4521 239.98H60.7381L57.0831 233.86L57.4061 233.792V241H55.9101ZM73.3326 241.102C72.4259 241.102 71.6212 240.904 70.9186 240.507C70.2159 240.11 69.6606 239.566 69.2526 238.875C68.8446 238.172 68.6406 237.379 68.6406 236.495C68.6406 235.6 68.8446 234.806 69.2526 234.115C69.6606 233.424 70.2159 232.885 70.9186 232.5C71.6212 232.103 72.4259 231.905 73.3326 231.905C74.2279 231.905 75.0269 232.103 75.7296 232.5C76.4436 232.885 76.9989 233.424 77.3956 234.115C77.8036 234.795 78.0076 235.588 78.0076 236.495C78.0076 237.39 77.8036 238.184 77.3956 238.875C76.9989 239.566 76.4436 240.11 75.7296 240.507C75.0269 240.904 74.2279 241.102 73.3326 241.102ZM73.3326 239.674C73.9106 239.674 74.4262 239.544 74.8796 239.283C75.3442 239.022 75.7069 238.654 75.9676 238.178C76.2282 237.691 76.3586 237.13 76.3586 236.495C76.3586 235.849 76.2282 235.294 75.9676 234.829C75.7069 234.353 75.3442 233.985 74.8796 233.724C74.4262 233.463 73.9106 233.333 73.3326 233.333C72.7546 233.333 72.2389 233.463 71.7856 233.724C71.3322 233.985 70.9696 234.353 70.6976 234.829C70.4256 235.294 70.2896 235.849 70.2896 236.495C70.2896 237.13 70.4256 237.691 70.6976 238.178C70.9696 238.654 71.3322 239.022 71.7856 239.283C72.2389 239.544 72.7546 239.674 73.3326 239.674ZM84.5292 241.136C83.7812 241.136 83.1182 241.017 82.5402 240.779C81.9735 240.541 81.4862 240.19 81.0782 239.725C80.6702 239.249 80.3585 238.654 80.1432 237.94C79.9392 237.215 79.8372 236.365 79.8372 235.39C79.8372 234.619 79.9052 233.928 80.0412 233.316C80.1772 232.704 80.3699 232.16 80.6192 231.684C80.8799 231.208 81.1972 230.794 81.5712 230.443C81.9565 230.092 82.3872 229.803 82.8632 229.576C83.3505 229.338 83.8832 229.157 84.4612 229.032L88.5752 228.114L88.8132 229.627L85.0222 230.443C84.7955 230.488 84.5235 230.556 84.2062 230.647C83.8889 230.738 83.5659 230.879 83.2372 231.072C82.9085 231.253 82.6025 231.508 82.3192 231.837C82.0359 232.166 81.8092 232.596 81.6392 233.129C81.4692 233.65 81.3842 234.296 81.3842 235.067C81.3842 235.282 81.3899 235.447 81.4012 235.56C81.4125 235.673 81.4239 235.787 81.4352 235.9C81.4579 236.013 81.4749 236.183 81.4862 236.41L80.8062 235.713C80.9875 235.09 81.2765 234.546 81.6732 234.081C82.0699 233.616 82.5459 233.259 83.1012 233.01C83.6679 232.749 84.2855 232.619 84.9542 232.619C85.7929 232.619 86.5352 232.8 87.1812 233.163C87.8385 233.526 88.3542 234.024 88.7282 234.659C89.1022 235.294 89.2892 236.019 89.2892 236.835C89.2892 237.662 89.0909 238.405 88.6942 239.062C88.3089 239.708 87.7592 240.218 87.0452 240.592C86.3312 240.955 85.4925 241.136 84.5292 241.136ZM84.6822 239.776C85.2602 239.776 85.7702 239.651 86.2122 239.402C86.6542 239.141 86.9999 238.796 87.2492 238.365C87.4985 237.923 87.6232 237.43 87.6232 236.886C87.6232 236.342 87.4985 235.86 87.2492 235.441C86.9999 235.022 86.6542 234.693 86.2122 234.455C85.7702 234.206 85.2489 234.081 84.6482 234.081C84.0815 234.081 83.5715 234.2 83.1182 234.438C82.6649 234.665 82.3135 234.988 82.0642 235.407C81.8149 235.815 81.6902 236.291 81.6902 236.835C81.6902 237.379 81.8149 237.878 82.0642 238.331C82.3249 238.773 82.6762 239.124 83.1182 239.385C83.5715 239.646 84.0929 239.776 84.6822 239.776ZM91.6201 241V231.99H93.2521V238.552L98.7771 231.99H100.256V241H98.6241V234.438L93.1161 241H91.6201ZM101.928 240.983L102.03 239.606C102.109 239.617 102.183 239.629 102.251 239.64C102.319 239.651 102.381 239.657 102.438 239.657C102.8 239.657 103.084 239.532 103.288 239.283C103.503 239.034 103.662 238.705 103.764 238.297C103.866 237.878 103.939 237.407 103.985 236.886C104.03 236.365 104.064 235.843 104.087 235.322L104.24 231.99H111.159V241H109.527V232.942L109.918 233.418H105.294L105.668 232.925L105.549 235.424C105.515 236.217 105.452 236.96 105.362 237.651C105.271 238.342 105.129 238.949 104.937 239.47C104.755 239.991 104.5 240.399 104.172 240.694C103.854 240.989 103.441 241.136 102.931 241.136C102.783 241.136 102.625 241.119 102.455 241.085C102.296 241.062 102.12 241.028 101.928 240.983ZM120.077 241V237.838L120.332 238.144H117.459C116.258 238.144 115.317 237.889 114.637 237.379C113.969 236.869 113.634 236.127 113.634 235.152C113.634 234.109 113.991 233.322 114.705 232.789C115.431 232.256 116.394 231.99 117.595 231.99H121.539V241H120.077ZM113.549 241L115.997 237.549H117.68L115.3 241H113.549ZM120.077 237.328V232.959L120.332 233.418H117.646C116.898 233.418 116.32 233.56 115.912 233.843C115.504 234.115 115.3 234.568 115.3 235.203C115.3 236.382 116.06 236.971 117.578 236.971H120.332L120.077 237.328Z" fill="#434343"/>
</svg>
