<svg width="300" height="239" viewBox="0 0 300 239" fill="none" xmlns="http://www.w3.org/2000/svg">
<path d="M273 20.25H288M288 20.25L281 13M288 20.25L281 27" stroke="#00AAFF" stroke-width="2" stroke-linecap="round" stroke-linejoin="round"/>
<path d="M0 50C0 26.4298 0 14.6447 7.32233 7.32233C14.6447 0 26.4298 0 50 0H258.544C258.796 0 258.922 0 259.016 0.00438307C261.703 0.130288 263.503 2.81976 262.594 5.35171C262.562 5.43986 262.514 5.55661 262.417 5.79013L259.867 11.9672C251.281 32.7641 276.444 51.0542 293.576 36.469C296.107 34.3144 300 36.1129 300 39.4366V189C300 212.57 300 224.355 292.678 231.678C285.355 239 273.57 239 250 239H50C26.4298 239 14.6447 239 7.32233 231.678C0 224.355 0 212.57 0 189V50Z" fill="#F3F5F7"/>
<circle cx="280.5" cy="19.5" r="19.5" fill="#F3F5F7"/>
<mask id="mask0_221_18" style="mask-type:alpha" maskUnits="userSpaceOnUse" x="0" y="0" width="300" height="237">
<path d="M0 60C0 31.7157 0 17.5736 8.7868 8.7868C17.5736 0 31.7157 0 60 0H256.834C257.128 0 257.275 0 257.37 0.0044656C260.527 0.15376 262.272 3.73271 260.445 6.3118C260.39 6.38895 260.3 6.50491 260.119 6.73684V6.73684C257.864 9.62146 256.736 11.0638 256.4 11.5512C244.389 28.9476 264.065 50.6553 282.554 40.4067C283.072 40.1196 284.618 39.1389 287.71 37.1775L293.249 33.663C293.774 33.3303 294.036 33.164 294.225 33.0702C296.721 31.8347 299.684 33.4639 299.978 36.233C300 36.4434 300 36.7539 300 37.3747V177C300 205.284 300 219.426 291.213 228.213C282.426 237 268.284 237 240 237H60C31.7157 237 17.5736 237 8.7868 228.213C0 219.426 0 205.284 0 177V60Z" fill="#F3F5F7"/>
</mask>
<g mask="url(#mask0_221_18)">
<path d="M0.519981 105.92C-6.92002 105.92 -13.52 104.2 -19.28 100.76C-24.96 97.32 -29.44 92.32 -32.72 85.76C-35.92 79.2 -37.52 71.28 -37.52 62C-37.52 52.72 -35.92 44.8 -32.72 38.24C-29.44 31.68 -24.96 26.68 -19.28 23.24C-13.52 19.8 -6.92002 18.08 0.519981 18.08C7.95998 18.08 14.52 19.8 20.2 23.24C25.96 26.68 30.44 31.68 33.64 38.24C36.92 44.8 38.56 52.72 38.56 62C38.56 71.28 36.92 79.2 33.64 85.76C30.44 92.32 25.96 97.32 20.2 100.76C14.52 104.2 7.95998 105.92 0.519981 105.92ZM0.519981 83.24C2.35998 83.24 3.99998 82.6 5.43998 81.32C6.87998 80.04 7.99998 77.84 8.79998 74.72C9.67999 71.6 10.12 67.36 10.12 62C10.12 56.56 9.67999 52.32 8.79998 49.28C7.99998 46.16 6.87998 43.96 5.43998 42.68C3.99998 41.4 2.35998 40.76 0.519981 40.76C-1.32002 40.76 -2.96002 41.4 -4.40002 42.68C-5.84002 43.96 -7.00002 46.16 -7.88002 49.28C-8.68002 52.32 -9.08002 56.56 -9.08002 62C-9.08002 67.36 -8.68002 71.6 -7.88002 74.72C-7.00002 77.84 -5.84002 80.04 -4.40002 81.32C-2.96002 82.6 -1.32002 83.24 0.519981 83.24Z" fill="#00AAFF" fill-opacity="0.1"/>
<path d="M57.5659 104L89.2459 30.08L96.8059 41.96H56.9659L68.0059 29.12V54.2H44.6059V20H116.486V37.4L88.5259 104H57.5659Z" fill="#00AAFF" fill-opacity="0.1"/>
</g>
<path d="M22.208 157.136C21.3013 157.136 20.457 156.983 19.675 156.677C18.9043 156.371 18.2357 155.946 17.669 155.402C17.1023 154.847 16.6603 154.201 16.343 153.464C16.0257 152.727 15.867 151.923 15.867 151.05C15.867 150.177 16.0257 149.373 16.343 148.636C16.6603 147.899 17.1023 147.259 17.669 146.715C18.2357 146.16 18.9043 145.729 19.675 145.423C20.4457 145.117 21.29 144.964 22.208 144.964C23.1147 144.964 23.9477 145.117 24.707 145.423C25.4777 145.718 26.1463 146.143 26.713 146.698C27.291 147.242 27.733 147.882 28.039 148.619C28.3563 149.356 28.515 150.166 28.515 151.05C28.515 151.934 28.3563 152.744 28.039 153.481C27.733 154.218 27.291 154.864 26.713 155.419C26.1463 155.963 25.4777 156.388 24.707 156.694C23.9477 156.989 23.1147 157.136 22.208 157.136ZM22.208 155.623C22.8653 155.623 23.4717 155.51 24.027 155.283C24.5937 155.056 25.081 154.739 25.489 154.331C25.9083 153.912 26.2313 153.424 26.458 152.869C26.696 152.314 26.815 151.707 26.815 151.05C26.815 150.393 26.696 149.786 26.458 149.231C26.2313 148.676 25.9083 148.194 25.489 147.786C25.081 147.367 24.5937 147.044 24.027 146.817C23.4717 146.59 22.8653 146.477 22.208 146.477C21.5393 146.477 20.9217 146.59 20.355 146.817C19.7997 147.044 19.3123 147.367 18.893 147.786C18.4737 148.194 18.145 148.676 17.907 149.231C17.6803 149.786 17.567 150.393 17.567 151.05C17.567 151.707 17.6803 152.314 17.907 152.869C18.145 153.424 18.4737 153.912 18.893 154.331C19.3123 154.739 19.7997 155.056 20.355 155.283C20.9217 155.51 21.5393 155.623 22.208 155.623ZM36.3632 157.136C36.3518 157.136 36.3122 157.136 36.2442 157.136C36.1875 157.136 36.1308 157.136 36.0742 157.136C36.0175 157.136 35.9835 157.136 35.9722 157.136C34.1248 157.113 32.6912 156.705 31.6712 155.912C30.6512 155.107 30.1412 153.963 30.1412 152.478C30.1412 151.005 30.6512 149.877 31.6712 149.095C32.7025 148.302 34.1532 147.899 36.0232 147.888C36.0458 147.888 36.0798 147.888 36.1252 147.888C36.1818 147.888 36.2328 147.888 36.2782 147.888C36.3348 147.888 36.3688 147.888 36.3802 147.888C38.2728 147.888 39.7405 148.285 40.7832 149.078C41.8372 149.871 42.3642 151.005 42.3642 152.478C42.3642 153.974 41.8372 155.124 40.7832 155.929C39.7292 156.734 38.2558 157.136 36.3632 157.136ZM36.3292 155.708C37.3152 155.708 38.1312 155.583 38.7772 155.334C39.4345 155.085 39.9275 154.722 40.2562 154.246C40.5848 153.77 40.7492 153.181 40.7492 152.478C40.7492 151.787 40.5848 151.209 40.2562 150.744C39.9275 150.279 39.4345 149.928 38.7772 149.69C38.1312 149.452 37.3152 149.333 36.3292 149.333C36.3065 149.333 36.2612 149.333 36.1932 149.333C36.1252 149.333 36.0855 149.333 36.0742 149.333C35.1108 149.333 34.3062 149.458 33.6602 149.707C33.0255 149.945 32.5495 150.296 32.2322 150.761C31.9148 151.226 31.7562 151.798 31.7562 152.478C31.7562 153.169 31.9148 153.753 32.2322 154.229C32.5608 154.705 33.0425 155.068 33.6772 155.317C34.3232 155.566 35.1222 155.697 36.0742 155.708C36.0968 155.708 36.1365 155.708 36.1932 155.708C36.2612 155.708 36.3065 155.708 36.3292 155.708ZM35.4452 160.298V144.386H37.0432V160.298H35.4452ZM48.5298 157.102C47.6232 157.102 46.8185 156.904 46.1158 156.507C45.4132 156.11 44.8578 155.566 44.4498 154.875C44.0418 154.172 43.8378 153.379 43.8378 152.495C43.8378 151.6 44.0418 150.806 44.4498 150.115C44.8578 149.424 45.4132 148.885 46.1158 148.5C46.8185 148.103 47.6232 147.905 48.5298 147.905C49.4252 147.905 50.2242 148.103 50.9268 148.5C51.6408 148.885 52.1962 149.424 52.5928 150.115C53.0008 150.795 53.2048 151.588 53.2048 152.495C53.2048 153.39 53.0008 154.184 52.5928 154.875C52.1962 155.566 51.6408 156.11 50.9268 156.507C50.2242 156.904 49.4252 157.102 48.5298 157.102ZM48.5298 155.674C49.1078 155.674 49.6235 155.544 50.0768 155.283C50.5415 155.022 50.9042 154.654 51.1648 154.178C51.4255 153.691 51.5558 153.13 51.5558 152.495C51.5558 151.849 51.4255 151.294 51.1648 150.829C50.9042 150.353 50.5415 149.985 50.0768 149.724C49.6235 149.463 49.1078 149.333 48.5298 149.333C47.9518 149.333 47.4362 149.463 46.9828 149.724C46.5295 149.985 46.1668 150.353 45.8948 150.829C45.6228 151.294 45.4868 151.849 45.4868 152.495C45.4868 153.13 45.6228 153.691 45.8948 154.178C46.1668 154.654 46.5295 155.022 46.9828 155.283C47.4362 155.544 47.9518 155.674 48.5298 155.674ZM60.3385 157.102C59.5905 157.102 58.9048 156.932 58.2815 156.592C57.6695 156.241 57.1765 155.725 56.8025 155.045C56.4398 154.365 56.2585 153.515 56.2585 152.495C56.2585 151.475 56.4341 150.625 56.7855 149.945C57.1481 149.265 57.6355 148.755 58.2475 148.415C58.8708 148.075 59.5678 147.905 60.3385 147.905C61.2225 147.905 62.0045 148.098 62.6845 148.483C63.3645 148.868 63.9028 149.407 64.2995 150.098C64.6961 150.778 64.8945 151.577 64.8945 152.495C64.8945 153.413 64.6961 154.218 64.2995 154.909C63.9028 155.6 63.3645 156.139 62.6845 156.524C62.0045 156.909 61.2225 157.102 60.3385 157.102ZM55.5615 160.298V147.99H57.1255V150.421L57.0235 152.512L57.1935 154.603V160.298H55.5615ZM60.2025 155.674C60.7805 155.674 61.2961 155.544 61.7495 155.283C62.2141 155.022 62.5768 154.654 62.8375 154.178C63.1095 153.691 63.2455 153.13 63.2455 152.495C63.2455 151.849 63.1095 151.294 62.8375 150.829C62.5768 150.353 62.2141 149.985 61.7495 149.724C61.2961 149.463 60.7805 149.333 60.2025 149.333C59.6358 149.333 59.1201 149.463 58.6555 149.724C58.2021 149.985 57.8395 150.353 57.5675 150.829C57.3068 151.294 57.1765 151.849 57.1765 152.495C57.1765 153.13 57.3068 153.691 57.5675 154.178C57.8395 154.654 58.2021 155.022 58.6555 155.283C59.1201 155.544 59.6358 155.674 60.2025 155.674ZM67.2656 157V147.99H68.9486L72.8246 154.654H72.1446L76.1226 147.99H77.6526V157H76.1736V149.826L76.4456 149.979L72.8076 155.98H72.0936L68.4386 149.86L68.7616 149.792V157H67.2656ZM79.333 156.983L79.435 155.606C79.5144 155.617 79.588 155.629 79.656 155.64C79.724 155.651 79.7864 155.657 79.843 155.657C80.2057 155.657 80.489 155.532 80.693 155.283C80.9084 155.034 81.067 154.705 81.169 154.297C81.271 153.878 81.3447 153.407 81.39 152.886C81.4354 152.365 81.4694 151.843 81.492 151.322L81.645 147.99H88.564V157H86.932V148.942L87.323 149.418H82.699L83.073 148.925L82.954 151.424C82.92 152.217 82.8577 152.96 82.767 153.651C82.6764 154.342 82.5347 154.949 82.342 155.47C82.1607 155.991 81.9057 156.399 81.577 156.694C81.2597 156.989 80.846 157.136 80.336 157.136C80.1887 157.136 80.03 157.119 79.86 157.085C79.7014 157.062 79.5257 157.028 79.333 156.983ZM97.4827 157V153.838L97.7377 154.144H94.8647C93.6633 154.144 92.7227 153.889 92.0427 153.379C91.374 152.869 91.0397 152.127 91.0397 151.152C91.0397 150.109 91.3967 149.322 92.1107 148.789C92.836 148.256 93.7993 147.99 95.0007 147.99H98.9447V157H97.4827ZM90.9547 157L93.4027 153.549H95.0857L92.7057 157H90.9547ZM97.4827 153.328V148.959L97.7377 149.418H95.0517C94.3037 149.418 93.7257 149.56 93.3177 149.843C92.9097 150.115 92.7057 150.568 92.7057 151.203C92.7057 152.382 93.465 152.971 94.9837 152.971H97.7377L97.4827 153.328ZM106.141 157.102C105.178 157.102 104.328 156.904 103.591 156.507C102.866 156.11 102.299 155.566 101.891 154.875C101.494 154.184 101.296 153.39 101.296 152.495C101.296 151.6 101.489 150.806 101.874 150.115C102.271 149.424 102.809 148.885 103.489 148.5C104.18 148.103 104.957 147.905 105.818 147.905C106.691 147.905 107.461 148.098 108.13 148.483C108.799 148.868 109.32 149.412 109.694 150.115C110.079 150.806 110.272 151.617 110.272 152.546C110.272 152.614 110.266 152.693 110.255 152.784C110.255 152.875 110.249 152.96 110.238 153.039H102.571V151.866H109.388L108.725 152.274C108.736 151.696 108.617 151.18 108.368 150.727C108.119 150.274 107.773 149.922 107.331 149.673C106.9 149.412 106.396 149.282 105.818 149.282C105.251 149.282 104.747 149.412 104.305 149.673C103.863 149.922 103.517 150.279 103.268 150.744C103.019 151.197 102.894 151.719 102.894 152.308V152.58C102.894 153.181 103.03 153.719 103.302 154.195C103.585 154.66 103.976 155.022 104.475 155.283C104.974 155.544 105.546 155.674 106.192 155.674C106.725 155.674 107.206 155.583 107.637 155.402C108.079 155.221 108.464 154.949 108.793 154.586L109.694 155.64C109.286 156.116 108.776 156.479 108.164 156.728C107.563 156.977 106.889 157.102 106.141 157.102ZM112.804 157V147.99H114.487L118.363 154.654H117.683L121.661 147.99H123.191V157H121.712V149.826L121.984 149.979L118.346 155.98H117.632L113.977 149.86L114.3 149.792V157H112.804ZM134.86 157.102C133.942 157.102 133.12 156.904 132.395 156.507C131.681 156.11 131.12 155.566 130.712 154.875C130.304 154.184 130.1 153.39 130.1 152.495C130.1 151.6 130.304 150.806 130.712 150.115C131.12 149.424 131.681 148.885 132.395 148.5C133.12 148.103 133.942 147.905 134.86 147.905C135.676 147.905 136.401 148.069 137.036 148.398C137.682 148.715 138.18 149.191 138.532 149.826L137.291 150.625C136.996 150.183 136.633 149.86 136.203 149.656C135.783 149.441 135.33 149.333 134.843 149.333C134.253 149.333 133.726 149.463 133.262 149.724C132.797 149.985 132.429 150.353 132.157 150.829C131.885 151.294 131.749 151.849 131.749 152.495C131.749 153.141 131.885 153.702 132.157 154.178C132.429 154.654 132.797 155.022 133.262 155.283C133.726 155.544 134.253 155.674 134.843 155.674C135.33 155.674 135.783 155.572 136.203 155.368C136.633 155.153 136.996 154.824 137.291 154.382L138.532 155.164C138.18 155.787 137.682 156.269 137.036 156.609C136.401 156.938 135.676 157.102 134.86 157.102ZM146.533 156.235V149.418H142.623L142.538 151.152C142.515 151.719 142.476 152.268 142.419 152.801C142.374 153.322 142.294 153.804 142.181 154.246C142.079 154.688 141.926 155.051 141.722 155.334C141.518 155.617 141.246 155.793 140.906 155.861L139.291 155.572C139.642 155.583 139.926 155.47 140.141 155.232C140.356 154.983 140.521 154.643 140.634 154.212C140.759 153.781 140.849 153.294 140.906 152.75C140.963 152.195 141.008 151.622 141.042 151.033L141.178 147.99H148.165V156.235H146.533ZM138.934 159.091V155.572H149.542V159.091H148.012V157H140.481V159.091H138.934ZM155.68 157.102C154.717 157.102 153.867 156.904 153.13 156.507C152.405 156.11 151.838 155.566 151.43 154.875C151.033 154.184 150.835 153.39 150.835 152.495C150.835 151.6 151.028 150.806 151.413 150.115C151.81 149.424 152.348 148.885 153.028 148.5C153.719 148.103 154.496 147.905 155.357 147.905C156.23 147.905 157 148.098 157.669 148.483C158.338 148.868 158.859 149.412 159.233 150.115C159.618 150.806 159.811 151.617 159.811 152.546C159.811 152.614 159.805 152.693 159.794 152.784C159.794 152.875 159.788 152.96 159.777 153.039H152.11V151.866H158.927L158.264 152.274C158.275 151.696 158.156 151.18 157.907 150.727C157.658 150.274 157.312 149.922 156.87 149.673C156.439 149.412 155.935 149.282 155.357 149.282C154.79 149.282 154.286 149.412 153.844 149.673C153.402 149.922 153.056 150.279 152.807 150.744C152.558 151.197 152.433 151.719 152.433 152.308V152.58C152.433 153.181 152.569 153.719 152.841 154.195C153.124 154.66 153.515 155.022 154.014 155.283C154.513 155.544 155.085 155.674 155.731 155.674C156.264 155.674 156.745 155.583 157.176 155.402C157.618 155.221 158.003 154.949 158.332 154.586L159.233 155.64C158.825 156.116 158.315 156.479 157.703 156.728C157.102 156.977 156.428 157.102 155.68 157.102ZM160.697 156.983L160.799 155.606C160.879 155.617 160.952 155.629 161.02 155.64C161.088 155.651 161.151 155.657 161.207 155.657C161.57 155.657 161.853 155.532 162.057 155.283C162.273 155.034 162.431 154.705 162.533 154.297C162.635 153.878 162.709 153.407 162.754 152.886C162.8 152.365 162.834 151.843 162.856 151.322L163.009 147.99H169.928V157H168.296V148.942L168.687 149.418H164.063L164.437 148.925L164.318 151.424C164.284 152.217 164.222 152.96 164.131 153.651C164.041 154.342 163.899 154.949 163.706 155.47C163.525 155.991 163.27 156.399 162.941 156.694C162.624 156.989 162.21 157.136 161.7 157.136C161.553 157.136 161.394 157.119 161.224 157.085C161.066 157.062 160.89 157.028 160.697 156.983ZM179.612 157L176.127 152.614L177.47 151.798L181.533 157H179.612ZM173.084 157V147.99H174.716V157H173.084ZM174.223 153.192V151.798H177.198V153.192H174.223ZM177.606 152.682L176.093 152.478L179.544 147.99H181.295L177.606 152.682ZM183.188 160.4C182.758 160.4 182.338 160.326 181.93 160.179C181.522 160.043 181.171 159.839 180.876 159.567L181.573 158.343C181.8 158.558 182.049 158.723 182.321 158.836C182.593 158.949 182.882 159.006 183.188 159.006C183.585 159.006 183.914 158.904 184.174 158.7C184.435 158.496 184.679 158.133 184.905 157.612L185.466 156.371L185.636 156.167L189.172 147.99H190.77L186.401 157.901C186.141 158.536 185.846 159.034 185.517 159.397C185.2 159.76 184.849 160.015 184.463 160.162C184.078 160.321 183.653 160.4 183.188 160.4ZM185.33 157.289L181.216 147.99H182.916L186.418 156.014L185.33 157.289ZM191.197 159.516L192.047 156.082L192.268 157.068C191.939 157.068 191.662 156.966 191.435 156.762C191.22 156.558 191.112 156.28 191.112 155.929C191.112 155.589 191.22 155.311 191.435 155.096C191.662 154.881 191.934 154.773 192.251 154.773C192.58 154.773 192.846 154.886 193.05 155.113C193.254 155.328 193.356 155.6 193.356 155.929C193.356 156.042 193.345 156.156 193.322 156.269C193.311 156.371 193.282 156.496 193.237 156.643C193.203 156.779 193.146 156.949 193.067 157.153L192.268 159.516H191.197ZM16.581 178V168.99H24.928V178H23.296V170.01L23.687 170.418H17.822L18.213 170.01V178H16.581ZM31.9449 178.102C31.0382 178.102 30.2335 177.904 29.5309 177.507C28.8282 177.11 28.2729 176.566 27.8649 175.875C27.4569 175.172 27.2529 174.379 27.2529 173.495C27.2529 172.6 27.4569 171.806 27.8649 171.115C28.2729 170.424 28.8282 169.885 29.5309 169.5C30.2335 169.103 31.0382 168.905 31.9449 168.905C32.8402 168.905 33.6392 169.103 34.3419 169.5C35.0559 169.885 35.6112 170.424 36.0079 171.115C36.4159 171.795 36.6199 172.588 36.6199 173.495C36.6199 174.39 36.4159 175.184 36.0079 175.875C35.6112 176.566 35.0559 177.11 34.3419 177.507C33.6392 177.904 32.8402 178.102 31.9449 178.102ZM31.9449 176.674C32.5229 176.674 33.0385 176.544 33.4919 176.283C33.9565 176.022 34.3192 175.654 34.5799 175.178C34.8405 174.691 34.9709 174.13 34.9709 173.495C34.9709 172.849 34.8405 172.294 34.5799 171.829C34.3192 171.353 33.9565 170.985 33.4919 170.724C33.0385 170.463 32.5229 170.333 31.9449 170.333C31.3669 170.333 30.8512 170.463 30.3979 170.724C29.9445 170.985 29.5819 171.353 29.3099 171.829C29.0379 172.294 28.9019 172.849 28.9019 173.495C28.9019 174.13 29.0379 174.691 29.3099 175.178C29.5819 175.654 29.9445 176.022 30.3979 176.283C30.8512 176.544 31.3669 176.674 31.9449 176.674ZM45.0641 177.235V170.418H41.1541L41.0691 172.152C41.0464 172.719 41.0068 173.268 40.9501 173.801C40.9048 174.322 40.8254 174.804 40.7121 175.246C40.6101 175.688 40.4571 176.051 40.2531 176.334C40.0491 176.617 39.7771 176.793 39.4371 176.861L37.8221 176.572C38.1734 176.583 38.4568 176.47 38.6721 176.232C38.8874 175.983 39.0518 175.643 39.1651 175.212C39.2898 174.781 39.3804 174.294 39.4371 173.75C39.4938 173.195 39.5391 172.622 39.5731 172.033L39.7091 168.99H46.6961V177.235H45.0641ZM37.4651 180.091V176.572H48.0731V180.091H46.5431V178H39.0121V180.091H37.4651ZM50.1992 178V168.99H56.8292V170.418H51.4402L51.8312 170.044V178H50.1992ZM61.9605 178.102C61.0538 178.102 60.2492 177.904 59.5465 177.507C58.8438 177.11 58.2885 176.566 57.8805 175.875C57.4725 175.172 57.2685 174.379 57.2685 173.495C57.2685 172.6 57.4725 171.806 57.8805 171.115C58.2885 170.424 58.8438 169.885 59.5465 169.5C60.2492 169.103 61.0538 168.905 61.9605 168.905C62.8558 168.905 63.6548 169.103 64.3575 169.5C65.0715 169.885 65.6268 170.424 66.0235 171.115C66.4315 171.795 66.6355 172.588 66.6355 173.495C66.6355 174.39 66.4315 175.184 66.0235 175.875C65.6268 176.566 65.0715 177.11 64.3575 177.507C63.6548 177.904 62.8558 178.102 61.9605 178.102ZM61.9605 176.674C62.5385 176.674 63.0542 176.544 63.5075 176.283C63.9722 176.022 64.3348 175.654 64.5955 175.178C64.8562 174.691 64.9865 174.13 64.9865 173.495C64.9865 172.849 64.8562 172.294 64.5955 171.829C64.3348 171.353 63.9722 170.985 63.5075 170.724C63.0542 170.463 62.5385 170.333 61.9605 170.333C61.3825 170.333 60.8668 170.463 60.4135 170.724C59.9602 170.985 59.5975 171.353 59.3255 171.829C59.0535 172.294 58.9175 172.849 58.9175 173.495C58.9175 174.13 59.0535 174.691 59.3255 175.178C59.5975 175.654 59.9602 176.022 60.4135 176.283C60.8668 176.544 61.3825 176.674 61.9605 176.674ZM70.4451 178V169.993L70.8531 170.418H67.1471V168.99H75.3751V170.418H71.6861L72.0771 169.993V178H70.4451ZM82.5689 178V176.096L82.4839 175.739V172.492C82.4839 171.801 82.2799 171.268 81.8719 170.894C81.4752 170.509 80.8746 170.316 80.0699 170.316C79.5372 170.316 79.0159 170.407 78.5059 170.588C77.9959 170.758 77.5652 170.99 77.2139 171.285L76.5339 170.061C76.9986 169.687 77.5539 169.404 78.1999 169.211C78.8572 169.007 79.5429 168.905 80.2569 168.905C81.4922 168.905 82.4442 169.205 83.1129 169.806C83.7816 170.407 84.1159 171.325 84.1159 172.56V178H82.5689ZM79.6109 178.102C78.9422 178.102 78.3529 177.989 77.8429 177.762C77.3442 177.535 76.9589 177.224 76.6869 176.827C76.4149 176.419 76.2789 175.96 76.2789 175.45C76.2789 174.963 76.3922 174.521 76.6189 174.124C76.8569 173.727 77.2366 173.41 77.7579 173.172C78.2906 172.934 79.0046 172.815 79.8999 172.815H82.7559V173.988H79.9679C79.1519 173.988 78.6022 174.124 78.3189 174.396C78.0356 174.668 77.8939 174.997 77.8939 175.382C77.8939 175.824 78.0696 176.181 78.4209 176.453C78.7722 176.714 79.2596 176.844 79.8829 176.844C80.4949 176.844 81.0276 176.708 81.4809 176.436C81.9456 176.164 82.2799 175.767 82.4839 175.246L82.8069 176.368C82.5916 176.901 82.2119 177.326 81.6679 177.643C81.1239 177.949 80.4382 178.102 79.6109 178.102ZM87.0546 178V168.99H91.2366C92.2906 168.99 93.118 169.194 93.7186 169.602C94.3306 169.999 94.6366 170.565 94.6366 171.302C94.6366 172.039 94.3476 172.611 93.7696 173.019C93.203 173.416 92.4493 173.614 91.5086 173.614L91.7636 173.172C92.8403 173.172 93.6393 173.37 94.1606 173.767C94.682 174.164 94.9426 174.747 94.9426 175.518C94.9426 176.3 94.648 176.912 94.0586 177.354C93.4806 177.785 92.591 178 91.3896 178H87.0546ZM88.6526 176.742H91.2706C91.9506 176.742 92.4606 176.64 92.8006 176.436C93.1406 176.221 93.3106 175.881 93.3106 175.416C93.3106 174.94 93.152 174.594 92.8346 174.379C92.5286 174.152 92.0413 174.039 91.3726 174.039H88.6526V176.742ZM88.6526 172.866H91.1006C91.724 172.866 92.1943 172.753 92.5116 172.526C92.8403 172.288 93.0046 171.959 93.0046 171.54C93.0046 171.109 92.8403 170.786 92.5116 170.571C92.1943 170.356 91.724 170.248 91.1006 170.248H88.6526V172.866ZM96.001 177.983L96.103 176.606C96.1823 176.617 96.256 176.629 96.324 176.64C96.392 176.651 96.4543 176.657 96.511 176.657C96.8737 176.657 97.157 176.532 97.361 176.283C97.5763 176.034 97.735 175.705 97.837 175.297C97.939 174.878 98.0127 174.407 98.058 173.886C98.1033 173.365 98.1373 172.843 98.16 172.322L98.313 168.99H105.232V178H103.6V169.942L103.991 170.418H99.367L99.741 169.925L99.622 172.424C99.588 173.217 99.5257 173.96 99.435 174.651C99.3443 175.342 99.2027 175.949 99.01 176.47C98.8287 176.991 98.5737 177.399 98.245 177.694C97.9277 177.989 97.514 178.136 97.004 178.136C96.8567 178.136 96.698 178.119 96.528 178.085C96.3693 178.062 96.1937 178.028 96.001 177.983ZM108.388 178V168.99H110.02V175.552L115.545 168.99H117.024V178H115.392V171.438L109.884 178H108.388ZM120.191 178V168.99H124.373C125.427 168.99 126.255 169.194 126.855 169.602C127.467 169.999 127.773 170.565 127.773 171.302C127.773 172.039 127.484 172.611 126.906 173.019C126.34 173.416 125.586 173.614 124.645 173.614L124.9 173.172C125.977 173.172 126.776 173.37 127.297 173.767C127.819 174.164 128.079 174.747 128.079 175.518C128.079 176.3 127.785 176.912 127.195 177.354C126.617 177.785 125.728 178 124.526 178H120.191ZM121.789 176.742H124.407C125.087 176.742 125.597 176.64 125.937 176.436C126.277 176.221 126.447 175.881 126.447 175.416C126.447 174.94 126.289 174.594 125.971 174.379C125.665 174.152 125.178 174.039 124.509 174.039H121.789V176.742ZM121.789 172.866H124.237C124.861 172.866 125.331 172.753 125.648 172.526C125.977 172.288 126.141 171.959 126.141 171.54C126.141 171.109 125.977 170.786 125.648 170.571C125.331 170.356 124.861 170.248 124.237 170.248H121.789V172.866ZM136.159 178V176.096L136.074 175.739V172.492C136.074 171.801 135.87 171.268 135.462 170.894C135.065 170.509 134.464 170.316 133.66 170.316C133.127 170.316 132.606 170.407 132.096 170.588C131.586 170.758 131.155 170.99 130.804 171.285L130.124 170.061C130.588 169.687 131.144 169.404 131.79 169.211C132.447 169.007 133.133 168.905 133.847 168.905C135.082 168.905 136.034 169.205 136.703 169.806C137.371 170.407 137.706 171.325 137.706 172.56V178H136.159ZM133.201 178.102C132.532 178.102 131.943 177.989 131.433 177.762C130.934 177.535 130.549 177.224 130.277 176.827C130.005 176.419 129.869 175.96 129.869 175.45C129.869 174.963 129.982 174.521 130.209 174.124C130.447 173.727 130.826 173.41 131.348 173.172C131.88 172.934 132.594 172.815 133.49 172.815H136.346V173.988H133.558C132.742 173.988 132.192 174.124 131.909 174.396C131.625 174.668 131.484 174.997 131.484 175.382C131.484 175.824 131.659 176.181 132.011 176.453C132.362 176.714 132.849 176.844 133.473 176.844C134.085 176.844 134.617 176.708 135.071 176.436C135.535 176.164 135.87 175.767 136.074 175.246L136.397 176.368C136.181 176.901 135.802 177.326 135.258 177.643C134.714 177.949 134.028 178.102 133.201 178.102ZM144.656 178.102C143.693 178.102 142.843 177.904 142.106 177.507C141.381 177.11 140.814 176.566 140.406 175.875C140.01 175.184 139.811 174.39 139.811 173.495C139.811 172.6 140.004 171.806 140.389 171.115C140.786 170.424 141.324 169.885 142.004 169.5C142.696 169.103 143.472 168.905 144.333 168.905C145.206 168.905 145.977 169.098 146.645 169.483C147.314 169.868 147.835 170.412 148.209 171.115C148.595 171.806 148.787 172.617 148.787 173.546C148.787 173.614 148.782 173.693 148.77 173.784C148.77 173.875 148.765 173.96 148.753 174.039H141.086V172.866H147.903L147.24 173.274C147.252 172.696 147.133 172.18 146.883 171.727C146.634 171.274 146.288 170.922 145.846 170.673C145.416 170.412 144.911 170.282 144.333 170.282C143.767 170.282 143.262 170.412 142.82 170.673C142.378 170.922 142.033 171.279 141.783 171.744C141.534 172.197 141.409 172.719 141.409 173.308V173.58C141.409 174.181 141.545 174.719 141.817 175.195C142.101 175.66 142.492 176.022 142.99 176.283C143.489 176.544 144.061 176.674 144.707 176.674C145.24 176.674 145.722 176.583 146.152 176.402C146.594 176.221 146.98 175.949 147.308 175.586L148.209 176.64C147.801 177.116 147.291 177.479 146.679 177.728C146.079 177.977 145.404 178.102 144.656 178.102ZM151.319 178V168.99H153.002L156.878 175.654H156.198L160.176 168.99H161.706V178H160.227V170.826L160.499 170.979L156.861 176.98H156.147L152.492 170.86L152.815 170.792V178H151.319ZM169.448 178V168.99H177.795V178H176.163V170.01L176.554 170.418H170.689L171.08 170.01V178H169.448ZM186.478 178V176.096L186.393 175.739V172.492C186.393 171.801 186.189 171.268 185.781 170.894C185.384 170.509 184.784 170.316 183.979 170.316C183.446 170.316 182.925 170.407 182.415 170.588C181.905 170.758 181.474 170.99 181.123 171.285L180.443 170.061C180.908 169.687 181.463 169.404 182.109 169.211C182.766 169.007 183.452 168.905 184.166 168.905C185.401 168.905 186.353 169.205 187.022 169.806C187.691 170.407 188.025 171.325 188.025 172.56V178H186.478ZM183.52 178.102C182.851 178.102 182.262 177.989 181.752 177.762C181.253 177.535 180.868 177.224 180.596 176.827C180.324 176.419 180.188 175.96 180.188 175.45C180.188 174.963 180.301 174.521 180.528 174.124C180.766 173.727 181.146 173.41 181.667 173.172C182.2 172.934 182.914 172.815 183.809 172.815H186.665V173.988H183.877C183.061 173.988 182.511 174.124 182.228 174.396C181.945 174.668 181.803 174.997 181.803 175.382C181.803 175.824 181.979 176.181 182.33 176.453C182.681 176.714 183.169 176.844 183.792 176.844C184.404 176.844 184.937 176.708 185.39 176.436C185.855 176.164 186.189 175.767 186.393 175.246L186.716 176.368C186.501 176.901 186.121 177.326 185.577 177.643C185.033 177.949 184.347 178.102 183.52 178.102ZM197.492 178L194.007 173.614L195.35 172.798L199.413 178H197.492ZM190.964 178V168.99H192.596V178H190.964ZM192.103 174.192V172.798H195.078V174.192H192.103ZM195.486 173.682L193.973 173.478L197.424 168.99H199.175L195.486 173.682ZM204.837 178.102C203.874 178.102 203.024 177.904 202.287 177.507C201.562 177.11 200.995 176.566 200.587 175.875C200.19 175.184 199.992 174.39 199.992 173.495C199.992 172.6 200.185 171.806 200.57 171.115C200.967 170.424 201.505 169.885 202.185 169.5C202.876 169.103 203.653 168.905 204.514 168.905C205.387 168.905 206.157 169.098 206.826 169.483C207.495 169.868 208.016 170.412 208.39 171.115C208.775 171.806 208.968 172.617 208.968 173.546C208.968 173.614 208.962 173.693 208.951 173.784C208.951 173.875 208.945 173.96 208.934 174.039H201.267V172.866H208.084L207.421 173.274C207.432 172.696 207.313 172.18 207.064 171.727C206.815 171.274 206.469 170.922 206.027 170.673C205.596 170.412 205.092 170.282 204.514 170.282C203.947 170.282 203.443 170.412 203.001 170.673C202.559 170.922 202.213 171.279 201.964 171.744C201.715 172.197 201.59 172.719 201.59 173.308V173.58C201.59 174.181 201.726 174.719 201.998 175.195C202.281 175.66 202.672 176.022 203.171 176.283C203.67 176.544 204.242 176.674 204.888 176.674C205.421 176.674 205.902 176.583 206.333 176.402C206.775 176.221 207.16 175.949 207.489 175.586L208.39 176.64C207.982 177.116 207.472 177.479 206.86 177.728C206.259 177.977 205.585 178.102 204.837 178.102ZM212.903 178V169.993L213.311 170.418H209.605V168.99H217.833V170.418H214.144L214.535 169.993V178H212.903ZM22.735 198.235V191.418H18.825L18.74 193.152C18.7173 193.719 18.6777 194.268 18.621 194.801C18.5757 195.322 18.4963 195.804 18.383 196.246C18.281 196.688 18.128 197.051 17.924 197.334C17.72 197.617 17.448 197.793 17.108 197.861L15.493 197.572C15.8443 197.583 16.1277 197.47 16.343 197.232C16.5583 196.983 16.7227 196.643 16.836 196.212C16.9607 195.781 17.0513 195.294 17.108 194.75C17.1647 194.195 17.21 193.622 17.244 193.033L17.38 189.99H24.367V198.235H22.735ZM15.136 201.091V197.572H25.744V201.091H24.214V199H16.683V201.091H15.136ZM31.7291 199.102C30.8224 199.102 30.0177 198.904 29.3151 198.507C28.6124 198.11 28.0571 197.566 27.6491 196.875C27.2411 196.172 27.0371 195.379 27.0371 194.495C27.0371 193.6 27.2411 192.806 27.6491 192.115C28.0571 191.424 28.6124 190.885 29.3151 190.5C30.0177 190.103 30.8224 189.905 31.7291 189.905C32.6244 189.905 33.4234 190.103 34.1261 190.5C34.8401 190.885 35.3954 191.424 35.7921 192.115C36.2001 192.795 36.4041 193.588 36.4041 194.495C36.4041 195.39 36.2001 196.184 35.7921 196.875C35.3954 197.566 34.8401 198.11 34.1261 198.507C33.4234 198.904 32.6244 199.102 31.7291 199.102ZM31.7291 197.674C32.3071 197.674 32.8227 197.544 33.2761 197.283C33.7407 197.022 34.1034 196.654 34.3641 196.178C34.6247 195.691 34.7551 195.13 34.7551 194.495C34.7551 193.849 34.6247 193.294 34.3641 192.829C34.1034 192.353 33.7407 191.985 33.2761 191.724C32.8227 191.463 32.3071 191.333 31.7291 191.333C31.1511 191.333 30.6354 191.463 30.1821 191.724C29.7287 191.985 29.3661 192.353 29.0941 192.829C28.8221 193.294 28.6861 193.849 28.6861 194.495C28.6861 195.13 28.8221 195.691 29.0941 196.178C29.3661 196.654 29.7287 197.022 30.1821 197.283C30.6354 197.544 31.1511 197.674 31.7291 197.674ZM45.2887 199L41.8037 194.614L43.1467 193.798L47.2097 199H45.2887ZM38.7607 199V189.99H40.3927V199H38.7607ZM39.8997 195.192V193.798H42.8747V195.192H39.8997ZM43.2827 194.682L41.7697 194.478L45.2207 189.99H46.9717L43.2827 194.682ZM48.8652 202.4C48.4345 202.4 48.0152 202.326 47.6072 202.179C47.1992 202.043 46.8479 201.839 46.5532 201.567L47.2502 200.343C47.4769 200.558 47.7262 200.723 47.9982 200.836C48.2702 200.949 48.5592 201.006 48.8652 201.006C49.2619 201.006 49.5905 200.904 49.8512 200.7C50.1119 200.496 50.3555 200.133 50.5822 199.612L51.1432 198.371L51.3132 198.167L54.8492 189.99H56.4472L52.0782 199.901C51.8175 200.536 51.5229 201.034 51.1942 201.397C50.8769 201.76 50.5255 202.015 50.1402 202.162C49.7549 202.321 49.3299 202.4 48.8652 202.4ZM51.0072 199.289L46.8932 189.99H48.5932L52.0952 198.014L51.0072 199.289ZM58.1181 199V189.99H59.8011L63.6771 196.654H62.9971L66.9751 189.99H68.5051V199H67.0261V191.826L67.2981 191.979L63.6601 197.98H62.9461L59.2911 191.86L59.6141 191.792V199H58.1181ZM75.6936 199.102C74.7303 199.102 73.8803 198.904 73.1436 198.507C72.4183 198.11 71.8516 197.566 71.4436 196.875C71.0469 196.184 70.8486 195.39 70.8486 194.495C70.8486 193.6 71.0413 192.806 71.4266 192.115C71.8233 191.424 72.3616 190.885 73.0416 190.5C73.7329 190.103 74.5093 189.905 75.3706 189.905C76.2433 189.905 77.0139 190.098 77.6826 190.483C78.3513 190.868 78.8726 191.412 79.2466 192.115C79.6319 192.806 79.8246 193.617 79.8246 194.546C79.8246 194.614 79.8189 194.693 79.8076 194.784C79.8076 194.875 79.8019 194.96 79.7906 195.039H72.1236V193.866H78.9406L78.2776 194.274C78.2889 193.696 78.1699 193.18 77.9206 192.727C77.6713 192.274 77.3256 191.922 76.8836 191.673C76.4529 191.412 75.9486 191.282 75.3706 191.282C74.8039 191.282 74.2996 191.412 73.8576 191.673C73.4156 191.922 73.0699 192.279 72.8206 192.744C72.5713 193.197 72.4466 193.719 72.4466 194.308V194.58C72.4466 195.181 72.5826 195.719 72.8546 196.195C73.1379 196.66 73.5289 197.022 74.0276 197.283C74.5263 197.544 75.0986 197.674 75.7446 197.674C76.2773 197.674 76.7589 197.583 77.1896 197.402C77.6316 197.221 78.0169 196.949 78.3456 196.586L79.2466 197.64C78.8386 198.116 78.3286 198.479 77.7166 198.728C77.1159 198.977 76.4416 199.102 75.6936 199.102ZM82.3564 199V189.99H83.9884V193.815H89.1224V189.99H90.7544V199H89.1224V195.226H83.9884V199H82.3564ZM95.7127 199V190.993L96.1207 191.418H92.4147V189.99H100.643V191.418H96.9537L97.3447 190.993V199H95.7127ZM105.772 199.102C104.865 199.102 104.061 198.904 103.358 198.507C102.655 198.11 102.1 197.566 101.692 196.875C101.284 196.172 101.08 195.379 101.08 194.495C101.08 193.6 101.284 192.806 101.692 192.115C102.1 191.424 102.655 190.885 103.358 190.5C104.061 190.103 104.865 189.905 105.772 189.905C106.667 189.905 107.466 190.103 108.169 190.5C108.883 190.885 109.438 191.424 109.835 192.115C110.243 192.795 110.447 193.588 110.447 194.495C110.447 195.39 110.243 196.184 109.835 196.875C109.438 197.566 108.883 198.11 108.169 198.507C107.466 198.904 106.667 199.102 105.772 199.102ZM105.772 197.674C106.35 197.674 106.866 197.544 107.319 197.283C107.784 197.022 108.146 196.654 108.407 196.178C108.668 195.691 108.798 195.13 108.798 194.495C108.798 193.849 108.668 193.294 108.407 192.829C108.146 192.353 107.784 191.985 107.319 191.724C106.866 191.463 106.35 191.333 105.772 191.333C105.194 191.333 104.678 191.463 104.225 191.724C103.772 191.985 103.409 192.353 103.137 192.829C102.865 193.294 102.729 193.849 102.729 194.495C102.729 195.13 102.865 195.691 103.137 196.178C103.409 196.654 103.772 197.022 104.225 197.283C104.678 197.544 105.194 197.674 105.772 197.674ZM112.804 199V189.99H116.986C118.04 189.99 118.867 190.194 119.468 190.602C120.08 190.999 120.386 191.565 120.386 192.302C120.386 193.039 120.097 193.611 119.519 194.019C118.952 194.416 118.198 194.614 117.258 194.614L117.513 194.172C118.589 194.172 119.388 194.37 119.91 194.767C120.431 195.164 120.692 195.747 120.692 196.518C120.692 197.3 120.397 197.912 119.808 198.354C119.23 198.785 118.34 199 117.139 199H112.804ZM114.402 197.742H117.02C117.7 197.742 118.21 197.64 118.55 197.436C118.89 197.221 119.06 196.881 119.06 196.416C119.06 195.94 118.901 195.594 118.584 195.379C118.278 195.152 117.79 195.039 117.122 195.039H114.402V197.742ZM114.402 193.866H116.85C117.473 193.866 117.943 193.753 118.261 193.526C118.589 193.288 118.754 192.959 118.754 192.54C118.754 192.109 118.589 191.786 118.261 191.571C117.943 191.356 117.473 191.248 116.85 191.248H114.402V193.866ZM133.965 198.235V191.418H130.055L129.97 193.152C129.948 193.719 129.908 194.268 129.851 194.801C129.806 195.322 129.727 195.804 129.613 196.246C129.511 196.688 129.358 197.051 129.154 197.334C128.95 197.617 128.678 197.793 128.338 197.861L126.723 197.572C127.075 197.583 127.358 197.47 127.573 197.232C127.789 196.983 127.953 196.643 128.066 196.212C128.191 195.781 128.282 195.294 128.338 194.75C128.395 194.195 128.44 193.622 128.474 193.033L128.61 189.99H135.597V198.235H133.965ZM126.366 201.091V197.572H136.974V201.091H135.444V199H127.913V201.091H126.366ZM137.605 198.983L137.707 197.606C137.786 197.617 137.86 197.629 137.928 197.64C137.996 197.651 138.058 197.657 138.115 197.657C138.477 197.657 138.761 197.532 138.965 197.283C139.18 197.034 139.339 196.705 139.441 196.297C139.543 195.878 139.616 195.407 139.662 194.886C139.707 194.365 139.741 193.843 139.764 193.322L139.917 189.99H146.836V199H145.204V190.942L145.595 191.418H140.971L141.345 190.925L141.226 193.424C141.192 194.217 141.129 194.96 141.039 195.651C140.948 196.342 140.806 196.949 140.614 197.47C140.432 197.991 140.177 198.399 139.849 198.694C139.531 198.989 139.118 199.136 138.608 199.136C138.46 199.136 138.302 199.119 138.132 199.085C137.973 199.062 137.797 199.028 137.605 198.983ZM155.754 199V195.838L156.009 196.144H153.136C151.935 196.144 150.994 195.889 150.314 195.379C149.645 194.869 149.311 194.127 149.311 193.152C149.311 192.109 149.668 191.322 150.382 190.789C151.107 190.256 152.071 189.99 153.272 189.99H157.216V199H155.754ZM149.226 199L151.674 195.549H153.357L150.977 199H149.226ZM155.754 195.328V190.959L156.009 191.418H153.323C152.575 191.418 151.997 191.56 151.589 191.843C151.181 192.115 150.977 192.568 150.977 193.203C150.977 194.382 151.736 194.971 153.255 194.971H156.009L155.754 195.328ZM16.581 220V210.99H24.928V220H23.296V212.01L23.687 212.418H17.822L18.213 212.01V220H16.581ZM31.7579 220.102C30.7945 220.102 29.9445 219.904 29.2079 219.507C28.4825 219.11 27.9159 218.566 27.5079 217.875C27.1112 217.184 26.9129 216.39 26.9129 215.495C26.9129 214.6 27.1055 213.806 27.4909 213.115C27.8875 212.424 28.4259 211.885 29.1059 211.5C29.7972 211.103 30.5735 210.905 31.4349 210.905C32.3075 210.905 33.0782 211.098 33.7469 211.483C34.4155 211.868 34.9369 212.412 35.3109 213.115C35.6962 213.806 35.8889 214.617 35.8889 215.546C35.8889 215.614 35.8832 215.693 35.8719 215.784C35.8719 215.875 35.8662 215.96 35.8549 216.039H28.1879V214.866H35.0049L34.3419 215.274C34.3532 214.696 34.2342 214.18 33.9849 213.727C33.7355 213.274 33.3899 212.922 32.9479 212.673C32.5172 212.412 32.0129 212.282 31.4349 212.282C30.8682 212.282 30.3639 212.412 29.9219 212.673C29.4799 212.922 29.1342 213.279 28.8849 213.744C28.6355 214.197 28.5109 214.719 28.5109 215.308V215.58C28.5109 216.181 28.6469 216.719 28.9189 217.195C29.2022 217.66 29.5932 218.022 30.0919 218.283C30.5905 218.544 31.1629 218.674 31.8089 218.674C32.3415 218.674 32.8232 218.583 33.2539 218.402C33.6959 218.221 34.0812 217.949 34.4099 217.586L35.3109 218.64C34.9029 219.116 34.3929 219.479 33.7809 219.728C33.1802 219.977 32.5059 220.102 31.7579 220.102ZM42.8577 220.102C42.1097 220.102 41.424 219.932 40.8007 219.592C40.1887 219.241 39.6957 218.725 39.3217 218.045C38.959 217.365 38.7777 216.515 38.7777 215.495C38.7777 214.475 38.9534 213.625 39.3047 212.945C39.6674 212.265 40.1547 211.755 40.7667 211.415C41.39 211.075 42.087 210.905 42.8577 210.905C43.7417 210.905 44.5237 211.098 45.2037 211.483C45.8837 211.868 46.422 212.407 46.8187 213.098C47.2154 213.778 47.4137 214.577 47.4137 215.495C47.4137 216.413 47.2154 217.218 46.8187 217.909C46.422 218.6 45.8837 219.139 45.2037 219.524C44.5237 219.909 43.7417 220.102 42.8577 220.102ZM38.0807 223.298V210.99H39.6447V213.421L39.5427 215.512L39.7127 217.603V223.298H38.0807ZM42.7217 218.674C43.2997 218.674 43.8154 218.544 44.2687 218.283C44.7334 218.022 45.096 217.654 45.3567 217.178C45.6287 216.691 45.7647 216.13 45.7647 215.495C45.7647 214.849 45.6287 214.294 45.3567 213.829C45.096 213.353 44.7334 212.985 44.2687 212.724C43.8154 212.463 43.2997 212.333 42.7217 212.333C42.155 212.333 41.6394 212.463 41.1747 212.724C40.7214 212.985 40.3587 213.353 40.0867 213.829C39.826 214.294 39.6957 214.849 39.6957 215.495C39.6957 216.13 39.826 216.691 40.0867 217.178C40.3587 217.654 40.7214 218.022 41.1747 218.283C41.6394 218.544 42.155 218.674 42.7217 218.674ZM53.4568 220.102C52.4935 220.102 51.6435 219.904 50.9068 219.507C50.1815 219.11 49.6148 218.566 49.2068 217.875C48.8101 217.184 48.6118 216.39 48.6118 215.495C48.6118 214.6 48.8045 213.806 49.1898 213.115C49.5865 212.424 50.1248 211.885 50.8048 211.5C51.4961 211.103 52.2725 210.905 53.1338 210.905C54.0065 210.905 54.7771 211.098 55.4458 211.483C56.1145 211.868 56.6358 212.412 57.0098 213.115C57.3951 213.806 57.5878 214.617 57.5878 215.546C57.5878 215.614 57.5821 215.693 57.5708 215.784C57.5708 215.875 57.5651 215.96 57.5538 216.039H49.8868V214.866H56.7038L56.0408 215.274C56.0521 214.696 55.9331 214.18 55.6838 213.727C55.4345 213.274 55.0888 212.922 54.6468 212.673C54.2161 212.412 53.7118 212.282 53.1338 212.282C52.5671 212.282 52.0628 212.412 51.6208 212.673C51.1788 212.922 50.8331 213.279 50.5838 213.744C50.3345 214.197 50.2098 214.719 50.2098 215.308V215.58C50.2098 216.181 50.3458 216.719 50.6178 217.195C50.9011 217.66 51.2921 218.022 51.7908 218.283C52.2895 218.544 52.8618 218.674 53.5078 218.674C54.0405 218.674 54.5221 218.583 54.9528 218.402C55.3948 218.221 55.7801 217.949 56.1088 217.586L57.0098 218.64C56.6018 219.116 56.0918 219.479 55.4798 219.728C54.8791 219.977 54.2048 220.102 53.4568 220.102ZM63.6386 220.102C62.7319 220.102 61.9273 219.904 61.2246 219.507C60.5219 219.11 59.9666 218.566 59.5586 217.875C59.1506 217.172 58.9466 216.379 58.9466 215.495C58.9466 214.6 59.1506 213.806 59.5586 213.115C59.9666 212.424 60.5219 211.885 61.2246 211.5C61.9273 211.103 62.7319 210.905 63.6386 210.905C64.5339 210.905 65.3329 211.103 66.0356 211.5C66.7496 211.885 67.3049 212.424 67.7016 213.115C68.1096 213.795 68.3136 214.588 68.3136 215.495C68.3136 216.39 68.1096 217.184 67.7016 217.875C67.3049 218.566 66.7496 219.11 66.0356 219.507C65.3329 219.904 64.5339 220.102 63.6386 220.102ZM63.6386 218.674C64.2166 218.674 64.7323 218.544 65.1856 218.283C65.6503 218.022 66.0129 217.654 66.2736 217.178C66.5343 216.691 66.6646 216.13 66.6646 215.495C66.6646 214.849 66.5343 214.294 66.2736 213.829C66.0129 213.353 65.6503 212.985 65.1856 212.724C64.7323 212.463 64.2166 212.333 63.6386 212.333C63.0606 212.333 62.5449 212.463 62.0916 212.724C61.6383 212.985 61.2756 213.353 61.0036 213.829C60.7316 214.294 60.5956 214.849 60.5956 215.495C60.5956 216.13 60.7316 216.691 61.0036 217.178C61.2756 217.654 61.6383 218.022 62.0916 218.283C62.5449 218.544 63.0606 218.674 63.6386 218.674ZM75.7022 220.136C75.6909 220.136 75.6512 220.136 75.5832 220.136C75.5266 220.136 75.4699 220.136 75.4132 220.136C75.3566 220.136 75.3226 220.136 75.3112 220.136C73.4639 220.113 72.0302 219.705 71.0102 218.912C69.9902 218.107 69.4802 216.963 69.4802 215.478C69.4802 214.005 69.9902 212.877 71.0102 212.095C72.0416 211.302 73.4922 210.899 75.3622 210.888C75.3849 210.888 75.4189 210.888 75.4642 210.888C75.5209 210.888 75.5719 210.888 75.6172 210.888C75.6739 210.888 75.7079 210.888 75.7192 210.888C77.6119 210.888 79.0796 211.285 80.1222 212.078C81.1762 212.871 81.7032 214.005 81.7032 215.478C81.7032 216.974 81.1762 218.124 80.1222 218.929C79.0682 219.734 77.5949 220.136 75.7022 220.136ZM75.6682 218.708C76.6542 218.708 77.4702 218.583 78.1162 218.334C78.7736 218.085 79.2666 217.722 79.5952 217.246C79.9239 216.77 80.0882 216.181 80.0882 215.478C80.0882 214.787 79.9239 214.209 79.5952 213.744C79.2666 213.279 78.7736 212.928 78.1162 212.69C77.4702 212.452 76.6542 212.333 75.6682 212.333C75.6456 212.333 75.6002 212.333 75.5322 212.333C75.4642 212.333 75.4246 212.333 75.4132 212.333C74.4499 212.333 73.6452 212.458 72.9992 212.707C72.3646 212.945 71.8886 213.296 71.5712 213.761C71.2539 214.226 71.0952 214.798 71.0952 215.478C71.0952 216.169 71.2539 216.753 71.5712 217.229C71.8999 217.705 72.3816 218.068 73.0162 218.317C73.6622 218.566 74.4612 218.697 75.4132 218.708C75.4359 218.708 75.4756 218.708 75.5322 218.708C75.6002 218.708 75.6456 218.708 75.6682 218.708ZM74.7842 223.298V207.386H76.3822V223.298H74.7842ZM87.5289 220.102C86.6222 220.102 85.8176 219.904 85.1149 219.507C84.4122 219.11 83.8569 218.566 83.4489 217.875C83.0409 217.172 82.8369 216.379 82.8369 215.495C82.8369 214.6 83.0409 213.806 83.4489 213.115C83.8569 212.424 84.4122 211.885 85.1149 211.5C85.8176 211.103 86.6222 210.905 87.5289 210.905C88.4242 210.905 89.2232 211.103 89.9259 211.5C90.6399 211.885 91.1952 212.424 91.5919 213.115C91.9999 213.795 92.2039 214.588 92.2039 215.495C92.2039 216.39 91.9999 217.184 91.5919 217.875C91.1952 218.566 90.6399 219.11 89.9259 219.507C89.2232 219.904 88.4242 220.102 87.5289 220.102ZM87.5289 218.674C88.1069 218.674 88.6226 218.544 89.0759 218.283C89.5406 218.022 89.9032 217.654 90.1639 217.178C90.4246 216.691 90.5549 216.13 90.5549 215.495C90.5549 214.849 90.4246 214.294 90.1639 213.829C89.9032 213.353 89.5406 212.985 89.0759 212.724C88.6226 212.463 88.1069 212.333 87.5289 212.333C86.9509 212.333 86.4352 212.463 85.9819 212.724C85.5286 212.985 85.1659 213.353 84.8939 213.829C84.6219 214.294 84.4859 214.849 84.4859 215.495C84.4859 216.13 84.6219 216.691 84.8939 217.178C85.1659 217.654 85.5286 218.022 85.9819 218.283C86.4352 218.544 86.9509 218.674 87.5289 218.674ZM98.9975 220.102C98.2495 220.102 97.5639 219.932 96.9405 219.592C96.3285 219.241 95.8355 218.725 95.4615 218.045C95.0989 217.365 94.9175 216.515 94.9175 215.495C94.9175 214.475 95.0932 213.625 95.4445 212.945C95.8072 212.265 96.2945 211.755 96.9065 211.415C97.5299 211.075 98.2269 210.905 98.9975 210.905C99.8815 210.905 100.664 211.098 101.344 211.483C102.024 211.868 102.562 212.407 102.959 213.098C103.355 213.778 103.554 214.577 103.554 215.495C103.554 216.413 103.355 217.218 102.959 217.909C102.562 218.6 102.024 219.139 101.344 219.524C100.664 219.909 99.8815 220.102 98.9975 220.102ZM94.2205 223.298V210.99H95.7845V213.421L95.6825 215.512L95.8525 217.603V223.298H94.2205ZM98.8615 218.674C99.4395 218.674 99.9552 218.544 100.409 218.283C100.873 218.022 101.236 217.654 101.497 217.178C101.769 216.691 101.905 216.13 101.905 215.495C101.905 214.849 101.769 214.294 101.497 213.829C101.236 213.353 100.873 212.985 100.409 212.724C99.9552 212.463 99.4395 212.333 98.8615 212.333C98.2949 212.333 97.7792 212.463 97.3145 212.724C96.8612 212.985 96.4985 213.353 96.2265 213.829C95.9659 214.294 95.8355 214.849 95.8355 215.495C95.8355 216.13 95.9659 216.691 96.2265 217.178C96.4985 217.654 96.8612 218.022 97.3145 218.283C97.7792 218.544 98.2949 218.674 98.8615 218.674ZM105.585 220V210.99H107.268L111.144 217.654H110.464L114.442 210.99H115.972V220H114.493V212.826L114.765 212.979L111.127 218.98H110.413L106.758 212.86L107.081 212.792V220H105.585ZM117.312 219.983L117.414 218.606C117.493 218.617 117.567 218.629 117.635 218.64C117.703 218.651 117.765 218.657 117.822 218.657C118.185 218.657 118.468 218.532 118.672 218.283C118.887 218.034 119.046 217.705 119.148 217.297C119.25 216.878 119.324 216.407 119.369 215.886C119.414 215.365 119.448 214.843 119.471 214.322L119.624 210.99H126.543V220H124.911V211.942L125.302 212.418H120.678L121.052 211.925L120.933 214.424C120.899 215.217 120.837 215.96 120.746 216.651C120.655 217.342 120.514 217.949 120.321 218.47C120.14 218.991 119.885 219.399 119.556 219.694C119.239 219.989 118.825 220.136 118.315 220.136C118.168 220.136 118.009 220.119 117.839 220.085C117.68 220.062 117.505 220.028 117.312 219.983ZM133.371 220.102C132.407 220.102 131.557 219.904 130.821 219.507C130.095 219.11 129.529 218.566 129.121 217.875C128.724 217.184 128.526 216.39 128.526 215.495C128.526 214.6 128.718 213.806 129.104 213.115C129.5 212.424 130.039 211.885 130.719 211.5C131.41 211.103 132.186 210.905 133.048 210.905C133.92 210.905 134.691 211.098 135.36 211.483C136.028 211.868 136.55 212.412 136.924 213.115C137.309 213.806 137.502 214.617 137.502 215.546C137.502 215.614 137.496 215.693 137.485 215.784C137.485 215.875 137.479 215.96 137.468 216.039H129.801V214.866H136.618L135.955 215.274C135.966 214.696 135.847 214.18 135.598 213.727C135.348 213.274 135.003 212.922 134.561 212.673C134.13 212.412 133.626 212.282 133.048 212.282C132.481 212.282 131.977 212.412 131.535 212.673C131.093 212.922 130.747 213.279 130.498 213.744C130.248 214.197 130.124 214.719 130.124 215.308V215.58C130.124 216.181 130.26 216.719 130.532 217.195C130.815 217.66 131.206 218.022 131.705 218.283C132.203 218.544 132.776 218.674 133.422 218.674C133.954 218.674 134.436 218.583 134.867 218.402C135.309 218.221 135.694 217.949 136.023 217.586L136.924 218.64C136.516 219.116 136.006 219.479 135.394 219.728C134.793 219.977 134.119 220.102 133.371 220.102ZM139.694 220V210.99H141.326V214.815H146.46V210.99H148.092V220H146.46V216.226H141.326V220H139.694ZM150.925 220V210.99H152.557V217.552L158.082 210.99H159.561V220H157.929V213.438L152.421 220H150.925ZM168.152 220V216.838L168.407 217.144H165.534C164.332 217.144 163.392 216.889 162.712 216.379C162.043 215.869 161.709 215.127 161.709 214.152C161.709 213.109 162.066 212.322 162.78 211.789C163.505 211.256 164.468 210.99 165.67 210.99H169.614V220H168.152ZM161.624 220L164.072 216.549H165.755L163.375 220H161.624ZM168.152 216.328V211.959L168.407 212.418H165.721C164.973 212.418 164.395 212.56 163.987 212.843C163.579 213.115 163.375 213.568 163.375 214.203C163.375 215.382 164.134 215.971 165.653 215.971H168.407L168.152 216.328ZM182.208 220V218.096L182.123 217.739V214.492C182.123 213.801 181.919 213.268 181.511 212.894C181.114 212.509 180.514 212.316 179.709 212.316C179.176 212.316 178.655 212.407 178.145 212.588C177.635 212.758 177.204 212.99 176.853 213.285L176.173 212.061C176.638 211.687 177.193 211.404 177.839 211.211C178.496 211.007 179.182 210.905 179.896 210.905C181.131 210.905 182.083 211.205 182.752 211.806C183.421 212.407 183.755 213.325 183.755 214.56V220H182.208ZM179.25 220.102C178.581 220.102 177.992 219.989 177.482 219.762C176.983 219.535 176.598 219.224 176.326 218.827C176.054 218.419 175.918 217.96 175.918 217.45C175.918 216.963 176.031 216.521 176.258 216.124C176.496 215.727 176.876 215.41 177.397 215.172C177.93 214.934 178.644 214.815 179.539 214.815H182.395V215.988H179.607C178.791 215.988 178.241 216.124 177.958 216.396C177.675 216.668 177.533 216.997 177.533 217.382C177.533 217.824 177.709 218.181 178.06 218.453C178.411 218.714 178.899 218.844 179.522 218.844C180.134 218.844 180.667 218.708 181.12 218.436C181.585 218.164 181.919 217.767 182.123 217.246L182.446 218.368C182.231 218.901 181.851 219.326 181.307 219.643C180.763 219.949 180.077 220.102 179.25 220.102ZM186.354 220V210.99H190.536C191.59 210.99 192.417 211.194 193.018 211.602C193.63 211.999 193.936 212.565 193.936 213.302C193.936 214.039 193.647 214.611 193.069 215.019C192.502 215.416 191.749 215.614 190.808 215.614L191.063 215.172C192.14 215.172 192.939 215.37 193.46 215.767C193.981 216.164 194.242 216.747 194.242 217.518C194.242 218.3 193.947 218.912 193.358 219.354C192.78 219.785 191.89 220 190.689 220H186.354ZM187.952 218.742H190.57C191.25 218.742 191.76 218.64 192.1 218.436C192.44 218.221 192.61 217.881 192.61 217.416C192.61 216.94 192.451 216.594 192.134 216.379C191.828 216.152 191.341 216.039 190.672 216.039H187.952V218.742ZM187.952 214.866H190.4C191.023 214.866 191.494 214.753 191.811 214.526C192.14 214.288 192.304 213.959 192.304 213.54C192.304 213.109 192.14 212.786 191.811 212.571C191.494 212.356 191.023 212.248 190.4 212.248H187.952V214.866ZM198.241 220V211.993L198.649 212.418H194.943V210.99H203.171V212.418H199.482L199.873 211.993V220H198.241ZM207.961 220.102C207.054 220.102 206.249 219.904 205.547 219.507C204.844 219.11 204.289 218.566 203.881 217.875C203.473 217.172 203.269 216.379 203.269 215.495C203.269 214.6 203.473 213.806 203.881 213.115C204.289 212.424 204.844 211.885 205.547 211.5C206.249 211.103 207.054 210.905 207.961 210.905C208.856 210.905 209.655 211.103 210.358 211.5C211.072 211.885 211.627 212.424 212.024 213.115C212.432 213.795 212.636 214.588 212.636 215.495C212.636 216.39 212.432 217.184 212.024 217.875C211.627 218.566 211.072 219.11 210.358 219.507C209.655 219.904 208.856 220.102 207.961 220.102ZM207.961 218.674C208.539 218.674 209.054 218.544 209.508 218.283C209.972 218.022 210.335 217.654 210.596 217.178C210.856 216.691 210.987 216.13 210.987 215.495C210.987 214.849 210.856 214.294 210.596 213.829C210.335 213.353 209.972 212.985 209.508 212.724C209.054 212.463 208.539 212.333 207.961 212.333C207.383 212.333 206.867 212.463 206.414 212.724C205.96 212.985 205.598 213.353 205.326 213.829C205.054 214.294 204.918 214.849 204.918 215.495C204.918 216.13 205.054 216.691 205.326 217.178C205.598 217.654 205.96 218.022 206.414 218.283C206.867 218.544 207.383 218.674 207.961 218.674ZM214.652 220V210.99H216.335L220.211 217.654H219.531L223.509 210.99H225.039V220H223.56V212.826L223.832 212.979L220.194 218.98H219.48L215.825 212.86L216.148 212.792V220H214.652ZM231.735 220.102C230.828 220.102 230.023 219.904 229.321 219.507C228.618 219.11 228.063 218.566 227.655 217.875C227.247 217.172 227.043 216.379 227.043 215.495C227.043 214.6 227.247 213.806 227.655 213.115C228.063 212.424 228.618 211.885 229.321 211.5C230.023 211.103 230.828 210.905 231.735 210.905C232.63 210.905 233.429 211.103 234.132 211.5C234.846 211.885 235.401 212.424 235.798 213.115C236.206 213.795 236.41 214.588 236.41 215.495C236.41 216.39 236.206 217.184 235.798 217.875C235.401 218.566 234.846 219.11 234.132 219.507C233.429 219.904 232.63 220.102 231.735 220.102ZM231.735 218.674C232.313 218.674 232.828 218.544 233.282 218.283C233.746 218.022 234.109 217.654 234.37 217.178C234.63 216.691 234.761 216.13 234.761 215.495C234.761 214.849 234.63 214.294 234.37 213.829C234.109 213.353 233.746 212.985 233.282 212.724C232.828 212.463 232.313 212.333 231.735 212.333C231.157 212.333 230.641 212.463 230.188 212.724C229.734 212.985 229.372 213.353 229.1 213.829C228.828 214.294 228.692 214.849 228.692 215.495C228.692 216.13 228.828 216.691 229.1 217.178C229.372 217.654 229.734 218.022 230.188 218.283C230.641 218.544 231.157 218.674 231.735 218.674ZM242.591 220.136C241.843 220.136 241.18 220.017 240.602 219.779C240.036 219.541 239.548 219.19 239.14 218.725C238.732 218.249 238.421 217.654 238.205 216.94C238.001 216.215 237.899 215.365 237.899 214.39C237.899 213.619 237.967 212.928 238.103 212.316C238.239 211.704 238.432 211.16 238.681 210.684C238.942 210.208 239.259 209.794 239.633 209.443C240.019 209.092 240.449 208.803 240.925 208.576C241.413 208.338 241.945 208.157 242.523 208.032L246.637 207.114L246.875 208.627L243.084 209.443C242.858 209.488 242.586 209.556 242.268 209.647C241.951 209.738 241.628 209.879 241.299 210.072C240.971 210.253 240.665 210.508 240.381 210.837C240.098 211.166 239.871 211.596 239.701 212.129C239.531 212.65 239.446 213.296 239.446 214.067C239.446 214.282 239.452 214.447 239.463 214.56C239.475 214.673 239.486 214.787 239.497 214.9C239.52 215.013 239.537 215.183 239.548 215.41L238.868 214.713C239.05 214.09 239.339 213.546 239.735 213.081C240.132 212.616 240.608 212.259 241.163 212.01C241.73 211.749 242.348 211.619 243.016 211.619C243.855 211.619 244.597 211.8 245.243 212.163C245.901 212.526 246.416 213.024 246.79 213.659C247.164 214.294 247.351 215.019 247.351 215.835C247.351 216.662 247.153 217.405 246.756 218.062C246.371 218.708 245.821 219.218 245.107 219.592C244.393 219.955 243.555 220.136 242.591 220.136ZM242.744 218.776C243.322 218.776 243.832 218.651 244.274 218.402C244.716 218.141 245.062 217.796 245.311 217.365C245.561 216.923 245.685 216.43 245.685 215.886C245.685 215.342 245.561 214.86 245.311 214.441C245.062 214.022 244.716 213.693 244.274 213.455C243.832 213.206 243.311 213.081 242.71 213.081C242.144 213.081 241.634 213.2 241.18 213.438C240.727 213.665 240.376 213.988 240.126 214.407C239.877 214.815 239.752 215.291 239.752 215.835C239.752 216.379 239.877 216.878 240.126 217.331C240.387 217.773 240.738 218.124 241.18 218.385C241.634 218.646 242.155 218.776 242.744 218.776ZM249.342 220V210.99H250.974V217.552L256.499 210.99H257.978V220H256.346V213.438L250.838 220H249.342ZM259.31 219.983L259.412 218.606C259.491 218.617 259.565 218.629 259.633 218.64C259.701 218.651 259.763 218.657 259.82 218.657C260.183 218.657 260.466 218.532 260.67 218.283C260.885 218.034 261.044 217.705 261.146 217.297C261.248 216.878 261.322 216.407 261.367 215.886C261.412 215.365 261.446 214.843 261.469 214.322L261.622 210.99H268.541V220H266.909V211.942L267.3 212.418H262.676L263.05 211.925L262.931 214.424C262.897 215.217 262.835 215.96 262.744 216.651C262.653 217.342 262.512 217.949 262.319 218.47C262.138 218.991 261.883 219.399 261.554 219.694C261.237 219.989 260.823 220.136 260.313 220.136C260.166 220.136 260.007 220.119 259.837 220.085C259.678 220.062 259.503 220.028 259.31 219.983ZM277.12 220V216.838L277.375 217.144H274.502C273.3 217.144 272.36 216.889 271.68 216.379C271.011 215.869 270.677 215.127 270.677 214.152C270.677 213.109 271.034 212.322 271.748 211.789C272.473 211.256 273.436 210.99 274.638 210.99H278.582V220H277.12ZM270.592 220L273.04 216.549H274.723L272.343 220H270.592ZM277.12 216.328V211.959L277.375 212.418H274.689C273.941 212.418 273.363 212.56 272.955 212.843C272.547 213.115 272.343 213.568 272.343 214.203C272.343 215.382 273.102 215.971 274.621 215.971H277.375L277.12 216.328Z" fill="#434343"/>
<path d="M275 20.25H290M290 20.25L283 13M290 20.25L283 27" stroke="#00AAFF" stroke-width="2" stroke-linecap="round" stroke-linejoin="round"/>
</svg>
