<svg width="260" height="260" viewBox="0 0 260 260" fill="none" xmlns="http://www.w3.org/2000/svg">
<path d="M0 50C0 26.4298 0 14.6447 7.32233 7.32233C14.6447 0 26.4298 0 50 0H222.02C222.232 0 222.339 0 222.411 0.00263821C225.426 0.112163 227.239 3.39119 225.729 6.00223C225.693 6.06513 225.636 6.15524 225.523 6.33547C224.509 7.95089 224.002 8.75859 223.784 9.14281C214.265 25.9084 231.642 45.11 249.272 37.3059C249.676 37.127 250.53 36.7029 252.238 35.8545L253.875 35.0416C254.178 34.8911 254.33 34.8158 254.442 34.7684C256.984 33.6933 259.825 35.4547 259.993 38.2095C260 38.3309 260 38.5001 260 38.8385V210C260 233.57 260 245.355 252.678 252.678C245.355 260 233.57 260 210 260H50C26.4298 260 14.6447 260 7.32233 252.678C0 245.355 0 233.57 0 210V50Z" fill="#F3F5F7"/>
<mask id="mask0_103_49" style="mask-type:alpha" maskUnits="userSpaceOnUse" x="0" y="0" width="260" height="260">
<path d="M0 60C0 31.7157 0 17.5736 8.7868 8.7868C17.5736 0 31.7157 0 60 0H222.429C222.529 0 222.58 0 222.613 0.000571758C225.743 0.053489 227.602 3.51781 225.916 6.15473C225.898 6.18322 225.87 6.22508 225.814 6.3088L224.912 7.66935C224.838 7.77972 224.802 7.8349 224.79 7.85282C212.449 26.5404 235.453 48.2883 253.419 34.9191C253.436 34.9063 253.489 34.8666 253.595 34.7873C253.604 34.7811 253.608 34.7779 253.611 34.7759C256.247 32.8125 259.994 34.6901 260 37.9771C260 37.9804 260 37.9857 260 37.9961V200C260 228.284 260 242.426 251.213 251.213C242.426 260 228.284 260 200 260H60C31.7157 260 17.5736 260 8.7868 251.213C0 242.426 0 228.284 0 200V60Z" fill="#F3F5F7"/>
</mask>
<g mask="url(#mask0_103_49)">
<path d="M1.51998 110.92C-5.92002 110.92 -12.52 109.2 -18.28 105.76C-23.96 102.32 -28.44 97.32 -31.72 90.76C-34.92 84.2 -36.52 76.28 -36.52 67C-36.52 57.72 -34.92 49.8 -31.72 43.24C-28.44 36.68 -23.96 31.68 -18.28 28.24C-12.52 24.8 -5.92002 23.08 1.51998 23.08C8.95998 23.08 15.52 24.8 21.2 28.24C26.96 31.68 31.44 36.68 34.64 43.24C37.92 49.8 39.56 57.72 39.56 67C39.56 76.28 37.92 84.2 34.64 90.76C31.44 97.32 26.96 102.32 21.2 105.76C15.52 109.2 8.95998 110.92 1.51998 110.92ZM1.51998 88.24C3.35998 88.24 4.99998 87.6 6.43998 86.32C7.87998 85.04 8.99998 82.84 9.79998 79.72C10.68 76.6 11.12 72.36 11.12 67C11.12 61.56 10.68 57.32 9.79998 54.28C8.99998 51.16 7.87998 48.96 6.43998 47.68C4.99998 46.4 3.35998 45.76 1.51998 45.76C-0.320019 45.76 -1.96002 46.4 -3.40002 47.68C-4.84002 48.96 -6.00002 51.16 -6.88002 54.28C-7.68002 57.32 -8.08002 61.56 -8.08002 67C-8.08002 72.36 -7.68002 76.6 -6.88002 79.72C-6.00002 82.84 -4.84002 85.04 -3.40002 86.32C-1.96002 87.6 -0.320019 88.24 1.51998 88.24Z" fill="#00AAFF" fill-opacity="0.1"/>
<path d="M83.7659 110.92C76.3259 110.92 69.7659 109.84 64.0859 107.68C58.4859 105.44 54.0859 102.32 50.8859 98.32C47.6859 94.24 46.0859 89.48 46.0859 84.04C46.0859 78.6 47.7259 73.96 51.0059 70.12C54.2859 66.28 58.7659 63.36 64.4459 61.36C70.1259 59.36 76.5659 58.36 83.7659 58.36C90.9659 58.36 97.4059 59.36 103.086 61.36C108.766 63.36 113.246 66.28 116.526 70.12C119.806 73.96 121.446 78.6 121.446 84.04C121.446 89.48 119.846 94.24 116.646 98.32C113.446 102.32 109.006 105.44 103.326 107.68C97.7259 109.84 91.2059 110.92 83.7659 110.92ZM83.7659 91.84C86.4859 91.84 88.6859 91.08 90.3659 89.56C92.1259 87.96 93.0059 85.8 93.0059 83.08C93.0059 80.36 92.1259 78.24 90.3659 76.72C88.6859 75.12 86.4859 74.32 83.7659 74.32C81.0459 74.32 78.8059 75.12 77.0459 76.72C75.3659 78.24 74.5259 80.36 74.5259 83.08C74.5259 85.8 75.3659 87.96 77.0459 89.56C78.8059 91.08 81.0459 91.84 83.7659 91.84ZM83.7659 72.04C77.2059 72.04 71.2859 71.12 66.0059 69.28C60.8059 67.36 56.6859 64.64 53.6459 61.12C50.6059 57.52 49.0859 53.2 49.0859 48.16C49.0859 43.04 50.5659 38.64 53.5259 34.96C56.4859 31.2 60.5659 28.28 65.7659 26.2C70.9659 24.12 76.9659 23.08 83.7659 23.08C90.5659 23.08 96.5659 24.12 101.766 26.2C106.966 28.28 111.046 31.2 114.006 34.96C116.966 38.64 118.446 43.04 118.446 48.16C118.446 53.2 116.926 57.52 113.886 61.12C110.846 64.64 106.726 67.36 101.526 69.28C96.3259 71.12 90.4059 72.04 83.7659 72.04ZM83.7659 56.56C85.6859 56.56 87.2859 55.92 88.5659 54.64C89.8459 53.36 90.4859 51.6 90.4859 49.36C90.4859 47.04 89.8459 45.28 88.5659 44.08C87.2859 42.8 85.6859 42.16 83.7659 42.16C81.8459 42.16 80.2459 42.8 78.9659 44.08C77.6859 45.28 77.0459 47.04 77.0459 49.36C77.0459 51.6 77.6859 53.36 78.9659 54.64C80.2459 55.92 81.8459 56.56 83.7659 56.56Z" fill="#00AAFF" fill-opacity="0.1"/>
</g>
<circle cx="242.5" cy="17.5" r="17.5" fill="#F3F5F7"/>
<path d="M235 18.25H250M250 18.25L243 11M250 18.25L243 25" stroke="#00AAFF" stroke-width="2" stroke-linecap="round" stroke-linejoin="round"/>
<path d="M22.174 178.136C21.2673 178.136 20.4287 177.989 19.658 177.694C18.8987 177.388 18.2357 176.963 17.669 176.419C17.1137 175.864 16.6773 175.218 16.36 174.481C16.0427 173.744 15.884 172.934 15.884 172.05C15.884 171.166 16.0427 170.356 16.36 169.619C16.6773 168.882 17.1193 168.242 17.686 167.698C18.2527 167.143 18.9157 166.718 19.675 166.423C20.4457 166.117 21.2843 165.964 22.191 165.964C23.109 165.964 23.9533 166.123 24.724 166.44C25.506 166.746 26.169 167.205 26.713 167.817L25.608 168.888C25.1547 168.412 24.6447 168.061 24.078 167.834C23.5113 167.596 22.905 167.477 22.259 167.477C21.5903 167.477 20.967 167.59 20.389 167.817C19.8223 168.044 19.3293 168.361 18.91 168.769C18.4907 169.177 18.162 169.664 17.924 170.231C17.6973 170.786 17.584 171.393 17.584 172.05C17.584 172.707 17.6973 173.319 17.924 173.886C18.162 174.441 18.4907 174.923 18.91 175.331C19.3293 175.739 19.8223 176.056 20.389 176.283C20.967 176.51 21.5903 176.623 22.259 176.623C22.905 176.623 23.5113 176.51 24.078 176.283C24.6447 176.045 25.1547 175.682 25.608 175.195L26.713 176.266C26.169 176.878 25.506 177.343 24.724 177.66C23.9533 177.977 23.1033 178.136 22.174 178.136ZM32.2603 178.102C31.3536 178.102 30.549 177.904 29.8463 177.507C29.1436 177.11 28.5883 176.566 28.1803 175.875C27.7723 175.172 27.5683 174.379 27.5683 173.495C27.5683 172.6 27.7723 171.806 28.1803 171.115C28.5883 170.424 29.1436 169.885 29.8463 169.5C30.549 169.103 31.3536 168.905 32.2603 168.905C33.1556 168.905 33.9546 169.103 34.6573 169.5C35.3713 169.885 35.9266 170.424 36.3233 171.115C36.7313 171.795 36.9353 172.588 36.9353 173.495C36.9353 174.39 36.7313 175.184 36.3233 175.875C35.9266 176.566 35.3713 177.11 34.6573 177.507C33.9546 177.904 33.1556 178.102 32.2603 178.102ZM32.2603 176.674C32.8383 176.674 33.354 176.544 33.8073 176.283C34.272 176.022 34.6346 175.654 34.8953 175.178C35.156 174.691 35.2863 174.13 35.2863 173.495C35.2863 172.849 35.156 172.294 34.8953 171.829C34.6346 171.353 34.272 170.985 33.8073 170.724C33.354 170.463 32.8383 170.333 32.2603 170.333C31.6823 170.333 31.1666 170.463 30.7133 170.724C30.26 170.985 29.8973 171.353 29.6253 171.829C29.3533 172.294 29.2173 172.849 29.2173 173.495C29.2173 174.13 29.3533 174.691 29.6253 175.178C29.8973 175.654 30.26 176.022 30.7133 176.283C31.1666 176.544 31.6823 176.674 32.2603 176.674ZM39.2919 178V168.99H47.6389V178H46.0069V170.01L46.3979 170.418H40.5329L40.9239 170.01V178H39.2919ZM55.5738 178.102C54.8258 178.102 54.1402 177.932 53.5168 177.592C52.9048 177.241 52.4118 176.725 52.0378 176.045C51.6752 175.365 51.4938 174.515 51.4938 173.495C51.4938 172.475 51.6695 171.625 52.0208 170.945C52.3835 170.265 52.8708 169.755 53.4828 169.415C54.1062 169.075 54.8032 168.905 55.5738 168.905C56.4578 168.905 57.2398 169.098 57.9198 169.483C58.5998 169.868 59.1382 170.407 59.5348 171.098C59.9315 171.778 60.1298 172.577 60.1298 173.495C60.1298 174.413 59.9315 175.218 59.5348 175.909C59.1382 176.6 58.5998 177.139 57.9198 177.524C57.2398 177.909 56.4578 178.102 55.5738 178.102ZM50.7968 181.298V168.99H52.3608V171.421L52.2588 173.512L52.4288 175.603V181.298H50.7968ZM55.4378 176.674C56.0158 176.674 56.5315 176.544 56.9848 176.283C57.4495 176.022 57.8122 175.654 58.0728 175.178C58.3448 174.691 58.4808 174.13 58.4808 173.495C58.4808 172.849 58.3448 172.294 58.0728 171.829C57.8122 171.353 57.4495 170.985 56.9848 170.724C56.5315 170.463 56.0158 170.333 55.4378 170.333C54.8712 170.333 54.3555 170.463 53.8908 170.724C53.4375 170.985 53.0748 171.353 52.8028 171.829C52.5422 172.294 52.4118 172.849 52.4118 173.495C52.4118 174.13 52.5422 174.691 52.8028 175.178C53.0748 175.654 53.4375 176.022 53.8908 176.283C54.3555 176.544 54.8712 176.674 55.4378 176.674ZM66.3599 178.102C65.4533 178.102 64.6486 177.904 63.9459 177.507C63.2433 177.11 62.6879 176.566 62.2799 175.875C61.8719 175.172 61.6679 174.379 61.6679 173.495C61.6679 172.6 61.8719 171.806 62.2799 171.115C62.6879 170.424 63.2433 169.885 63.9459 169.5C64.6486 169.103 65.4533 168.905 66.3599 168.905C67.2553 168.905 68.0543 169.103 68.7569 169.5C69.4709 169.885 70.0263 170.424 70.4229 171.115C70.8309 171.795 71.0349 172.588 71.0349 173.495C71.0349 174.39 70.8309 175.184 70.4229 175.875C70.0263 176.566 69.4709 177.11 68.7569 177.507C68.0543 177.904 67.2553 178.102 66.3599 178.102ZM66.3599 176.674C66.9379 176.674 67.4536 176.544 67.9069 176.283C68.3716 176.022 68.7343 175.654 68.9949 175.178C69.2556 174.691 69.3859 174.13 69.3859 173.495C69.3859 172.849 69.2556 172.294 68.9949 171.829C68.7343 171.353 68.3716 170.985 67.9069 170.724C67.4536 170.463 66.9379 170.333 66.3599 170.333C65.7819 170.333 65.2663 170.463 64.8129 170.724C64.3596 170.985 63.9969 171.353 63.7249 171.829C63.4529 172.294 63.3169 172.849 63.3169 173.495C63.3169 174.13 63.4529 174.691 63.7249 175.178C63.9969 175.654 64.3596 176.022 64.8129 176.283C65.2663 176.544 65.7819 176.674 66.3599 176.674ZM73.3915 178V168.99H77.5735C78.6275 168.99 79.4549 169.194 80.0555 169.602C80.6675 169.999 80.9735 170.565 80.9735 171.302C80.9735 172.039 80.6845 172.611 80.1065 173.019C79.5399 173.416 78.7862 173.614 77.8455 173.614L78.1005 173.172C79.1772 173.172 79.9762 173.37 80.4975 173.767C81.0189 174.164 81.2795 174.747 81.2795 175.518C81.2795 176.3 80.9849 176.912 80.3955 177.354C79.8175 177.785 78.9279 178 77.7265 178H73.3915ZM74.9895 176.742H77.6075C78.2875 176.742 78.7975 176.64 79.1375 176.436C79.4775 176.221 79.6475 175.881 79.6475 175.416C79.6475 174.94 79.4889 174.594 79.1715 174.379C78.8655 174.152 78.3782 174.039 77.7095 174.039H74.9895V176.742ZM74.9895 172.866H77.4375C78.0609 172.866 78.5312 172.753 78.8485 172.526C79.1772 172.288 79.3415 171.959 79.3415 171.54C79.3415 171.109 79.1772 170.786 78.8485 170.571C78.5312 170.356 78.0609 170.248 77.4375 170.248H74.9895V172.866ZM87.6929 178.102C86.7863 178.102 85.9816 177.904 85.2789 177.507C84.5763 177.11 84.0209 176.566 83.6129 175.875C83.2049 175.172 83.0009 174.379 83.0009 173.495C83.0009 172.6 83.2049 171.806 83.6129 171.115C84.0209 170.424 84.5763 169.885 85.2789 169.5C85.9816 169.103 86.7863 168.905 87.6929 168.905C88.5883 168.905 89.3873 169.103 90.0899 169.5C90.8039 169.885 91.3593 170.424 91.7559 171.115C92.1639 171.795 92.3679 172.588 92.3679 173.495C92.3679 174.39 92.1639 175.184 91.7559 175.875C91.3593 176.566 90.8039 177.11 90.0899 177.507C89.3873 177.904 88.5883 178.102 87.6929 178.102ZM87.6929 176.674C88.2709 176.674 88.7866 176.544 89.2399 176.283C89.7046 176.022 90.0673 175.654 90.3279 175.178C90.5886 174.691 90.7189 174.13 90.7189 173.495C90.7189 172.849 90.5886 172.294 90.3279 171.829C90.0673 171.353 89.7046 170.985 89.2399 170.724C88.7866 170.463 88.2709 170.333 87.6929 170.333C87.1149 170.333 86.5993 170.463 86.1459 170.724C85.6926 170.985 85.3299 171.353 85.0579 171.829C84.7859 172.294 84.6499 172.849 84.6499 173.495C84.6499 174.13 84.7859 174.691 85.0579 175.178C85.3299 175.654 85.6926 176.022 86.1459 176.283C86.5993 176.544 87.1149 176.674 87.6929 176.674ZM105.119 178L102.246 173.614L103.589 172.798L107.057 178H105.119ZM100.376 174.192V172.798H103.3V174.192H100.376ZM103.742 173.682L102.195 173.478L105.068 168.99H106.819L103.742 173.682ZM95.0037 178H93.0657L96.5167 172.798L97.8597 173.614L95.0037 178ZM100.869 178H99.2367V168.99H100.869V178ZM99.7297 174.192H96.8227V172.798H99.7297V174.192ZM96.3807 173.682L93.3037 168.99H95.0377L97.9107 173.478L96.3807 173.682ZM115.006 177.235V170.418H111.096L111.011 172.152C110.989 172.719 110.949 173.268 110.892 173.801C110.847 174.322 110.768 174.804 110.654 175.246C110.552 175.688 110.399 176.051 110.195 176.334C109.991 176.617 109.719 176.793 109.379 176.861L107.764 176.572C108.116 176.583 108.399 176.47 108.614 176.232C108.83 175.983 108.994 175.643 109.107 175.212C109.232 174.781 109.323 174.294 109.379 173.75C109.436 173.195 109.481 172.622 109.515 172.033L109.651 168.99H116.638V177.235H115.006ZM107.407 180.091V176.572H118.015V180.091H116.485V178H108.954V180.091H107.407ZM125.667 178V176.096L125.582 175.739V172.492C125.582 171.801 125.378 171.268 124.97 170.894C124.573 170.509 123.972 170.316 123.168 170.316C122.635 170.316 122.114 170.407 121.604 170.588C121.094 170.758 120.663 170.99 120.312 171.285L119.632 170.061C120.096 169.687 120.652 169.404 121.298 169.211C121.955 169.007 122.641 168.905 123.355 168.905C124.59 168.905 125.542 169.205 126.211 169.806C126.879 170.407 127.214 171.325 127.214 172.56V178H125.667ZM122.709 178.102C122.04 178.102 121.451 177.989 120.941 177.762C120.442 177.535 120.057 177.224 119.785 176.827C119.513 176.419 119.377 175.96 119.377 175.45C119.377 174.963 119.49 174.521 119.717 174.124C119.955 173.727 120.334 173.41 120.856 173.172C121.388 172.934 122.102 172.815 122.998 172.815H125.854V173.988H123.066C122.25 173.988 121.7 174.124 121.417 174.396C121.133 174.668 120.992 174.997 120.992 175.382C120.992 175.824 121.167 176.181 121.519 176.453C121.87 176.714 122.357 176.844 122.981 176.844C123.593 176.844 124.125 176.708 124.579 176.436C125.043 176.164 125.378 175.767 125.582 175.246L125.905 176.368C125.689 176.901 125.31 177.326 124.766 177.643C124.222 177.949 123.536 178.102 122.709 178.102ZM134.164 178.102C133.201 178.102 132.351 177.904 131.614 177.507C130.889 177.11 130.322 176.566 129.914 175.875C129.518 175.184 129.319 174.39 129.319 173.495C129.319 172.6 129.512 171.806 129.897 171.115C130.294 170.424 130.832 169.885 131.512 169.5C132.204 169.103 132.98 168.905 133.841 168.905C134.714 168.905 135.485 169.098 136.153 169.483C136.822 169.868 137.343 170.412 137.717 171.115C138.103 171.806 138.295 172.617 138.295 173.546C138.295 173.614 138.29 173.693 138.278 173.784C138.278 173.875 138.273 173.96 138.261 174.039H130.594V172.866H137.411L136.748 173.274C136.76 172.696 136.641 172.18 136.391 171.727C136.142 171.274 135.796 170.922 135.354 170.673C134.924 170.412 134.419 170.282 133.841 170.282C133.275 170.282 132.77 170.412 132.328 170.673C131.886 170.922 131.541 171.279 131.291 171.744C131.042 172.197 130.917 172.719 130.917 173.308V173.58C130.917 174.181 131.053 174.719 131.325 175.195C131.609 175.66 132 176.022 132.498 176.283C132.997 176.544 133.569 176.674 134.215 176.674C134.748 176.674 135.23 176.583 135.66 176.402C136.102 176.221 136.488 175.949 136.816 175.586L137.717 176.64C137.309 177.116 136.799 177.479 136.187 177.728C135.587 177.977 134.912 178.102 134.164 178.102ZM140.827 178V168.99H142.51L146.386 175.654H145.706L149.684 168.99H151.214V178H149.735V170.826L150.007 170.979L146.369 176.98H145.655L142 170.86L142.323 170.792V178H140.827ZM158.956 178V168.99H163.138C164.192 168.99 165.019 169.194 165.62 169.602C166.232 169.999 166.538 170.565 166.538 171.302C166.538 172.039 166.249 172.611 165.671 173.019C165.104 173.416 164.351 173.614 163.41 173.614L163.665 173.172C164.742 173.172 165.541 173.37 166.062 173.767C166.583 174.164 166.844 174.747 166.844 175.518C166.844 176.3 166.549 176.912 165.96 177.354C165.382 177.785 164.492 178 163.291 178H158.956ZM160.554 176.742H163.172C163.852 176.742 164.362 176.64 164.702 176.436C165.042 176.221 165.212 175.881 165.212 175.416C165.212 174.94 165.053 174.594 164.736 174.379C164.43 174.152 163.943 174.039 163.274 174.039H160.554V176.742ZM160.554 172.866H163.002C163.625 172.866 164.096 172.753 164.413 172.526C164.742 172.288 164.906 171.959 164.906 171.54C164.906 171.109 164.742 170.786 164.413 170.571C164.096 170.356 163.625 170.248 163.002 170.248H160.554V172.866ZM174.923 178V176.096L174.838 175.739V172.492C174.838 171.801 174.634 171.268 174.226 170.894C173.83 170.509 173.229 170.316 172.424 170.316C171.892 170.316 171.37 170.407 170.86 170.588C170.35 170.758 169.92 170.99 169.568 171.285L168.888 170.061C169.353 169.687 169.908 169.404 170.554 169.211C171.212 169.007 171.897 168.905 172.611 168.905C173.847 168.905 174.799 169.205 175.467 169.806C176.136 170.407 176.47 171.325 176.47 172.56V178H174.923ZM171.965 178.102C171.297 178.102 170.707 177.989 170.197 177.762C169.699 177.535 169.313 177.224 169.041 176.827C168.769 176.419 168.633 175.96 168.633 175.45C168.633 174.963 168.747 174.521 168.973 174.124C169.211 173.727 169.591 173.41 170.112 173.172C170.645 172.934 171.359 172.815 172.254 172.815H175.11V173.988H172.322C171.506 173.988 170.957 174.124 170.673 174.396C170.39 174.668 170.248 174.997 170.248 175.382C170.248 175.824 170.424 176.181 170.775 176.453C171.127 176.714 171.614 176.844 172.237 176.844C172.849 176.844 173.382 176.708 173.835 176.436C174.3 176.164 174.634 175.767 174.838 175.246L175.161 176.368C174.946 176.901 174.566 177.326 174.022 177.643C173.478 177.949 172.793 178.102 171.965 178.102ZM183.336 178.102C182.418 178.102 181.596 177.904 180.871 177.507C180.157 177.11 179.596 176.566 179.188 175.875C178.78 175.184 178.576 174.39 178.576 173.495C178.576 172.6 178.78 171.806 179.188 171.115C179.596 170.424 180.157 169.885 180.871 169.5C181.596 169.103 182.418 168.905 183.336 168.905C184.152 168.905 184.877 169.069 185.512 169.398C186.158 169.715 186.657 170.191 187.008 170.826L185.767 171.625C185.472 171.183 185.11 170.86 184.679 170.656C184.26 170.441 183.806 170.333 183.319 170.333C182.73 170.333 182.203 170.463 181.738 170.724C181.273 170.985 180.905 171.353 180.633 171.829C180.361 172.294 180.225 172.849 180.225 173.495C180.225 174.141 180.361 174.702 180.633 175.178C180.905 175.654 181.273 176.022 181.738 176.283C182.203 176.544 182.73 176.674 183.319 176.674C183.806 176.674 184.26 176.572 184.679 176.368C185.11 176.153 185.472 175.824 185.767 175.382L187.008 176.164C186.657 176.787 186.158 177.269 185.512 177.609C184.877 177.938 184.152 178.102 183.336 178.102ZM193.686 178V168.99H197.868C198.922 168.99 199.75 169.194 200.35 169.602C200.962 169.999 201.268 170.565 201.268 171.302C201.268 172.039 200.979 172.611 200.401 173.019C199.835 173.416 199.081 173.614 198.14 173.614L198.395 173.172C199.472 173.172 200.271 173.37 200.792 173.767C201.314 174.164 201.574 174.747 201.574 175.518C201.574 176.3 201.28 176.912 200.69 177.354C200.112 177.785 199.223 178 198.021 178H193.686ZM195.284 176.742H197.902C198.582 176.742 199.092 176.64 199.432 176.436C199.772 176.221 199.942 175.881 199.942 175.416C199.942 174.94 199.784 174.594 199.466 174.379C199.16 174.152 198.673 174.039 198.004 174.039H195.284V176.742ZM195.284 172.866H197.732C198.356 172.866 198.826 172.753 199.143 172.526C199.472 172.288 199.636 171.959 199.636 171.54C199.636 171.109 199.472 170.786 199.143 170.571C198.826 170.356 198.356 170.248 197.732 170.248H195.284V172.866ZM16.853 199V187.1H24.656L24.639 188.579H18.111L18.519 188.154L18.536 199H16.853ZM26.6811 199V187.1H28.3641V196.28L35.4021 187.1H36.9661V199H35.3001V189.837L28.2451 199H26.6811ZM40.6762 199V187.1H49.6522V188.545H42.3592V191.945H46.0652C47.4819 191.945 48.5586 192.24 49.2952 192.829C50.0319 193.418 50.4002 194.274 50.4002 195.396C50.4002 196.552 49.9979 197.442 49.1932 198.065C48.3999 198.688 47.2609 199 45.7762 199H40.6762ZM42.3592 197.657H45.7082C46.6942 197.657 47.4366 197.47 47.9352 197.096C48.4452 196.722 48.7002 196.167 48.7002 195.43C48.7002 194.002 47.7029 193.288 45.7082 193.288H42.3592V197.657ZM60.717 198.201V188.579H55.498L55.413 191.078C55.379 191.917 55.3223 192.721 55.243 193.492C55.175 194.263 55.073 194.96 54.937 195.583C54.801 196.195 54.6083 196.699 54.359 197.096C54.121 197.493 53.815 197.736 53.441 197.827L51.605 197.521C52.047 197.555 52.4097 197.408 52.693 197.079C52.9877 196.739 53.2143 196.269 53.373 195.668C53.543 195.056 53.6677 194.348 53.747 193.543C53.8263 192.727 53.883 191.854 53.917 190.925L54.036 187.1H62.4V198.201H60.717ZM51.18 201.601L51.197 197.521H64.151V201.601H62.57V199H52.778L52.761 201.601H51.18ZM74.3801 198.201V188.579H69.1611L69.0761 191.078C69.0421 191.917 68.9854 192.721 68.9061 193.492C68.8381 194.263 68.7361 194.96 68.6001 195.583C68.4641 196.195 68.2714 196.699 68.0221 197.096C67.7841 197.493 67.4781 197.736 67.1041 197.827L65.2681 197.521C65.7101 197.555 66.0727 197.408 66.3561 197.079C66.6507 196.739 66.8774 196.269 67.0361 195.668C67.2061 195.056 67.3307 194.348 67.4101 193.543C67.4894 192.727 67.5461 191.854 67.5801 190.925L67.6991 187.1H76.0631V198.201H74.3801ZM64.8431 201.601L64.8601 197.521H77.8141V201.601H76.2331V199H66.4411L66.4241 201.601H64.8431ZM84.4316 199V189.99H86.0636V193.815H91.1976V189.99H92.8296V199H91.1976V195.226H86.0636V199H84.4316ZM101.528 199V197.096L101.443 196.739V193.492C101.443 192.801 101.239 192.268 100.831 191.894C100.434 191.509 99.8335 191.316 99.0289 191.316C98.4962 191.316 97.9749 191.407 97.4649 191.588C96.9549 191.758 96.5242 191.99 96.1729 192.285L95.4929 191.061C95.9575 190.687 96.5129 190.404 97.1589 190.211C97.8162 190.007 98.5019 189.905 99.2159 189.905C100.451 189.905 101.403 190.205 102.072 190.806C102.741 191.407 103.075 192.325 103.075 193.56V199H101.528ZM98.5699 199.102C97.9012 199.102 97.3119 198.989 96.8019 198.762C96.3032 198.535 95.9179 198.224 95.6459 197.827C95.3739 197.419 95.2379 196.96 95.2379 196.45C95.2379 195.963 95.3512 195.521 95.5779 195.124C95.8159 194.727 96.1955 194.41 96.7169 194.172C97.2495 193.934 97.9635 193.815 98.8589 193.815H101.715V194.988H98.9269C98.1109 194.988 97.5612 195.124 97.2779 195.396C96.9945 195.668 96.8529 195.997 96.8529 196.382C96.8529 196.824 97.0285 197.181 97.3799 197.453C97.7312 197.714 98.2185 197.844 98.8419 197.844C99.4539 197.844 99.9865 197.708 100.44 197.436C100.905 197.164 101.239 196.767 101.443 196.246L101.766 197.368C101.551 197.901 101.171 198.326 100.627 198.643C100.083 198.949 99.3972 199.102 98.5699 199.102ZM16.581 220V210.99H24.928V220H23.296V212.01L23.687 212.418H17.822L18.213 212.01V220H16.581ZM32.0979 220.102C31.1345 220.102 30.2845 219.904 29.5479 219.507C28.8225 219.11 28.2559 218.566 27.8479 217.875C27.4512 217.184 27.2529 216.39 27.2529 215.495C27.2529 214.6 27.4455 213.806 27.8309 213.115C28.2275 212.424 28.7659 211.885 29.4459 211.5C30.1372 211.103 30.9135 210.905 31.7749 210.905C32.6475 210.905 33.4182 211.098 34.0869 211.483C34.7555 211.868 35.2769 212.412 35.6509 213.115C36.0362 213.806 36.2289 214.617 36.2289 215.546C36.2289 215.614 36.2232 215.693 36.2119 215.784C36.2119 215.875 36.2062 215.96 36.1949 216.039H28.5279V214.866H35.3449L34.6819 215.274C34.6932 214.696 34.5742 214.18 34.3249 213.727C34.0755 213.274 33.7299 212.922 33.2879 212.673C32.8572 212.412 32.3529 212.282 31.7749 212.282C31.2082 212.282 30.7039 212.412 30.2619 212.673C29.8199 212.922 29.4742 213.279 29.2249 213.744C28.9755 214.197 28.8509 214.719 28.8509 215.308V215.58C28.8509 216.181 28.9869 216.719 29.2589 217.195C29.5422 217.66 29.9332 218.022 30.4319 218.283C30.9305 218.544 31.5029 218.674 32.1489 218.674C32.6815 218.674 33.1632 218.583 33.5939 218.402C34.0359 218.221 34.4212 217.949 34.7499 217.586L35.6509 218.64C35.2429 219.116 34.7329 219.479 34.1209 219.728C33.5202 219.977 32.8459 220.102 32.0979 220.102ZM43.5377 220.102C42.7897 220.102 42.104 219.932 41.4807 219.592C40.8687 219.241 40.3757 218.725 40.0017 218.045C39.639 217.365 39.4577 216.515 39.4577 215.495C39.4577 214.475 39.6334 213.625 39.9847 212.945C40.3474 212.265 40.8347 211.755 41.4467 211.415C42.07 211.075 42.767 210.905 43.5377 210.905C44.4217 210.905 45.2037 211.098 45.8837 211.483C46.5637 211.868 47.102 212.407 47.4987 213.098C47.8954 213.778 48.0937 214.577 48.0937 215.495C48.0937 216.413 47.8954 217.218 47.4987 217.909C47.102 218.6 46.5637 219.139 45.8837 219.524C45.2037 219.909 44.4217 220.102 43.5377 220.102ZM38.7607 223.298V210.99H40.3247V213.421L40.2227 215.512L40.3927 217.603V223.298H38.7607ZM43.4017 218.674C43.9797 218.674 44.4954 218.544 44.9487 218.283C45.4134 218.022 45.776 217.654 46.0367 217.178C46.3087 216.691 46.4447 216.13 46.4447 215.495C46.4447 214.849 46.3087 214.294 46.0367 213.829C45.776 213.353 45.4134 212.985 44.9487 212.724C44.4954 212.463 43.9797 212.333 43.4017 212.333C42.835 212.333 42.3194 212.463 41.8547 212.724C41.4014 212.985 41.0387 213.353 40.7667 213.829C40.506 214.294 40.3757 214.849 40.3757 215.495C40.3757 216.13 40.506 216.691 40.7667 217.178C41.0387 217.654 41.4014 218.022 41.8547 218.283C42.3194 218.544 42.835 218.674 43.4017 218.674ZM54.4768 220.102C53.5135 220.102 52.6635 219.904 51.9268 219.507C51.2015 219.11 50.6348 218.566 50.2268 217.875C49.8301 217.184 49.6318 216.39 49.6318 215.495C49.6318 214.6 49.8245 213.806 50.2098 213.115C50.6065 212.424 51.1448 211.885 51.8248 211.5C52.5161 211.103 53.2925 210.905 54.1538 210.905C55.0265 210.905 55.7971 211.098 56.4658 211.483C57.1345 211.868 57.6558 212.412 58.0298 213.115C58.4151 213.806 58.6078 214.617 58.6078 215.546C58.6078 215.614 58.6021 215.693 58.5908 215.784C58.5908 215.875 58.5851 215.96 58.5738 216.039H50.9068V214.866H57.7238L57.0608 215.274C57.0721 214.696 56.9531 214.18 56.7038 213.727C56.4545 213.274 56.1088 212.922 55.6668 212.673C55.2361 212.412 54.7318 212.282 54.1538 212.282C53.5871 212.282 53.0828 212.412 52.6408 212.673C52.1988 212.922 51.8531 213.279 51.6038 213.744C51.3545 214.197 51.2298 214.719 51.2298 215.308V215.58C51.2298 216.181 51.3658 216.719 51.6378 217.195C51.9211 217.66 52.3121 218.022 52.8108 218.283C53.3095 218.544 53.8818 218.674 54.5278 218.674C55.0605 218.674 55.5421 218.583 55.9728 218.402C56.4148 218.221 56.8001 217.949 57.1288 217.586L58.0298 218.64C57.6218 219.116 57.1118 219.479 56.4998 219.728C55.8991 219.977 55.2248 220.102 54.4768 220.102ZM65.9166 220.102C65.1686 220.102 64.4829 219.932 63.8596 219.592C63.2476 219.241 62.7546 218.725 62.3806 218.045C62.0179 217.365 61.8366 216.515 61.8366 215.495C61.8366 214.475 62.0123 213.625 62.3636 212.945C62.7263 212.265 63.2136 211.755 63.8256 211.415C64.4489 211.075 65.1459 210.905 65.9166 210.905C66.8006 210.905 67.5826 211.098 68.2626 211.483C68.9426 211.868 69.4809 212.407 69.8776 213.098C70.2743 213.778 70.4726 214.577 70.4726 215.495C70.4726 216.413 70.2743 217.218 69.8776 217.909C69.4809 218.6 68.9426 219.139 68.2626 219.524C67.5826 219.909 66.8006 220.102 65.9166 220.102ZM61.1396 223.298V210.99H62.7036V213.421L62.6016 215.512L62.7716 217.603V223.298H61.1396ZM65.7806 218.674C66.3586 218.674 66.8743 218.544 67.3276 218.283C67.7923 218.022 68.1549 217.654 68.4156 217.178C68.6876 216.691 68.8236 216.13 68.8236 215.495C68.8236 214.849 68.6876 214.294 68.4156 213.829C68.1549 213.353 67.7923 212.985 67.3276 212.724C66.8743 212.463 66.3586 212.333 65.7806 212.333C65.2139 212.333 64.6983 212.463 64.2336 212.724C63.7803 212.985 63.4176 213.353 63.1456 213.829C62.8849 214.294 62.7546 214.849 62.7546 215.495C62.7546 216.13 62.8849 216.691 63.1456 217.178C63.4176 217.654 63.7803 218.022 64.2336 218.283C64.6983 218.544 65.2139 218.674 65.7806 218.674ZM76.8557 220.102C75.8924 220.102 75.0424 219.904 74.3057 219.507C73.5804 219.11 73.0137 218.566 72.6057 217.875C72.209 217.184 72.0107 216.39 72.0107 215.495C72.0107 214.6 72.2034 213.806 72.5887 213.115C72.9854 212.424 73.5237 211.885 74.2037 211.5C74.895 211.103 75.6714 210.905 76.5327 210.905C77.4054 210.905 78.176 211.098 78.8447 211.483C79.5134 211.868 80.0347 212.412 80.4087 213.115C80.794 213.806 80.9867 214.617 80.9867 215.546C80.9867 215.614 80.981 215.693 80.9697 215.784C80.9697 215.875 80.964 215.96 80.9527 216.039H73.2857V214.866H80.1027L79.4397 215.274C79.451 214.696 79.332 214.18 79.0827 213.727C78.8334 213.274 78.4877 212.922 78.0457 212.673C77.615 212.412 77.1107 212.282 76.5327 212.282C75.966 212.282 75.4617 212.412 75.0197 212.673C74.5777 212.922 74.232 213.279 73.9827 213.744C73.7334 214.197 73.6087 214.719 73.6087 215.308V215.58C73.6087 216.181 73.7447 216.719 74.0167 217.195C74.3 217.66 74.691 218.022 75.1897 218.283C75.6884 218.544 76.2607 218.674 76.9067 218.674C77.4394 218.674 77.921 218.583 78.3517 218.402C78.7937 218.221 79.179 217.949 79.5077 217.586L80.4087 218.64C80.0007 219.116 79.4907 219.479 78.8787 219.728C78.278 219.977 77.6037 220.102 76.8557 220.102ZM83.5185 220V210.99H90.1485V212.418H84.7595L85.1505 212.044V220H83.5185ZM91.8193 220V210.99H93.4513V217.552L98.9763 210.99H100.455V220H98.8233V213.438L93.3153 220H91.8193ZM107.55 220.102C106.632 220.102 105.81 219.904 105.085 219.507C104.371 219.11 103.81 218.566 103.402 217.875C102.994 217.184 102.79 216.39 102.79 215.495C102.79 214.6 102.994 213.806 103.402 213.115C103.81 212.424 104.371 211.885 105.085 211.5C105.81 211.103 106.632 210.905 107.55 210.905C108.366 210.905 109.091 211.069 109.726 211.398C110.372 211.715 110.871 212.191 111.222 212.826L109.981 213.625C109.686 213.183 109.324 212.86 108.893 212.656C108.474 212.441 108.02 212.333 107.533 212.333C106.944 212.333 106.417 212.463 105.952 212.724C105.487 212.985 105.119 213.353 104.847 213.829C104.575 214.294 104.439 214.849 104.439 215.495C104.439 216.141 104.575 216.702 104.847 217.178C105.119 217.654 105.487 218.022 105.952 218.283C106.417 218.544 106.944 218.674 107.533 218.674C108.02 218.674 108.474 218.572 108.893 218.368C109.324 218.153 109.686 217.824 109.981 217.382L111.222 218.164C110.871 218.787 110.372 219.269 109.726 219.609C109.091 219.938 108.366 220.102 107.55 220.102ZM115.004 220V211.993L115.412 212.418H111.706V210.99H119.934V212.418H116.245L116.636 211.993V220H115.004ZM126.379 220.102C125.631 220.102 124.946 219.932 124.322 219.592C123.71 219.241 123.217 218.725 122.843 218.045C122.481 217.365 122.299 216.515 122.299 215.495C122.299 214.475 122.475 213.625 122.826 212.945C123.189 212.265 123.676 211.755 124.288 211.415C124.912 211.075 125.609 210.905 126.379 210.905C127.263 210.905 128.045 211.098 128.725 211.483C129.405 211.868 129.944 212.407 130.34 213.098C130.737 213.778 130.935 214.577 130.935 215.495C130.935 216.413 130.737 217.218 130.34 217.909C129.944 218.6 129.405 219.139 128.725 219.524C128.045 219.909 127.263 220.102 126.379 220.102ZM121.602 223.298V210.99H123.166V213.421L123.064 215.512L123.234 217.603V223.298H121.602ZM126.243 218.674C126.821 218.674 127.337 218.544 127.79 218.283C128.255 218.022 128.618 217.654 128.878 217.178C129.15 216.691 129.286 216.13 129.286 215.495C129.286 214.849 129.15 214.294 128.878 213.829C128.618 213.353 128.255 212.985 127.79 212.724C127.337 212.463 126.821 212.333 126.243 212.333C125.677 212.333 125.161 212.463 124.696 212.724C124.243 212.985 123.88 213.353 123.608 213.829C123.348 214.294 123.217 214.849 123.217 215.495C123.217 216.13 123.348 216.691 123.608 217.178C123.88 217.654 124.243 218.022 124.696 218.283C125.161 218.544 125.677 218.674 126.243 218.674ZM138.749 220V218.096L138.664 217.739V214.492C138.664 213.801 138.46 213.268 138.052 212.894C137.655 212.509 137.054 212.316 136.25 212.316C135.717 212.316 135.196 212.407 134.686 212.588C134.176 212.758 133.745 212.99 133.394 213.285L132.714 212.061C133.178 211.687 133.734 211.404 134.38 211.211C135.037 211.007 135.723 210.905 136.437 210.905C137.672 210.905 138.624 211.205 139.293 211.806C139.961 212.407 140.296 213.325 140.296 214.56V220H138.749ZM135.791 220.102C135.122 220.102 134.533 219.989 134.023 219.762C133.524 219.535 133.139 219.224 132.867 218.827C132.595 218.419 132.459 217.96 132.459 217.45C132.459 216.963 132.572 216.521 132.799 216.124C133.037 215.727 133.416 215.41 133.938 215.172C134.47 214.934 135.184 214.815 136.08 214.815H138.936V215.988H136.148C135.332 215.988 134.782 216.124 134.499 216.396C134.215 216.668 134.074 216.997 134.074 217.382C134.074 217.824 134.249 218.181 134.601 218.453C134.952 218.714 135.439 218.844 136.063 218.844C136.675 218.844 137.207 218.708 137.661 218.436C138.125 218.164 138.46 217.767 138.664 217.246L138.987 218.368C138.771 218.901 138.392 219.326 137.848 219.643C137.304 219.949 136.618 220.102 135.791 220.102ZM143.234 220V210.99H144.866V218.572H149.796V210.99H151.428V220H143.234ZM151.309 222.091V219.915L151.717 220H149.796V218.572H152.856V222.091H151.309ZM154.972 220V210.99H156.604V217.552L162.129 210.99H163.608V220H161.976V213.438L156.468 220H154.972ZM166.775 220V210.99H168.407V214.679H171.127V216.192H168.407V220H166.775ZM174.748 220.102C173.864 220.102 173.077 219.904 172.385 219.507C171.705 219.11 171.167 218.566 170.77 217.875C170.374 217.172 170.175 216.379 170.175 215.495C170.175 214.6 170.374 213.806 170.77 213.115C171.167 212.412 171.705 211.868 172.385 211.483C173.077 211.098 173.864 210.905 174.748 210.905C175.621 210.905 176.403 211.098 177.094 211.483C177.786 211.868 178.33 212.412 178.726 213.115C179.123 213.806 179.321 214.6 179.321 215.495C179.321 216.39 179.123 217.184 178.726 217.875C178.33 218.566 177.786 219.11 177.094 219.507C176.403 219.904 175.621 220.102 174.748 220.102ZM174.748 218.674C175.315 218.674 175.819 218.544 176.261 218.283C176.703 218.011 177.055 217.643 177.315 217.178C177.576 216.702 177.706 216.141 177.706 215.495C177.706 214.849 177.576 214.294 177.315 213.829C177.055 213.353 176.703 212.985 176.261 212.724C175.819 212.463 175.315 212.333 174.748 212.333C174.193 212.333 173.689 212.463 173.235 212.724C172.793 212.985 172.442 213.353 172.181 213.829C171.921 214.294 171.79 214.849 171.79 215.495C171.79 216.141 171.921 216.702 172.181 217.178C172.442 217.643 172.793 218.011 173.235 218.283C173.689 218.544 174.193 218.674 174.748 218.674ZM22.106 241V239.096L22.021 238.739V235.492C22.021 234.801 21.817 234.268 21.409 233.894C21.0123 233.509 20.4117 233.316 19.607 233.316C19.0743 233.316 18.553 233.407 18.043 233.588C17.533 233.758 17.1023 233.99 16.751 234.285L16.071 233.061C16.5357 232.687 17.091 232.404 17.737 232.211C18.3943 232.007 19.08 231.905 19.794 231.905C21.0293 231.905 21.9813 232.205 22.65 232.806C23.3187 233.407 23.653 234.325 23.653 235.56V241H22.106ZM19.148 241.102C18.4793 241.102 17.89 240.989 17.38 240.762C16.8813 240.535 16.496 240.224 16.224 239.827C15.952 239.419 15.816 238.96 15.816 238.45C15.816 237.963 15.9293 237.521 16.156 237.124C16.394 236.727 16.7737 236.41 17.295 236.172C17.8277 235.934 18.5417 235.815 19.437 235.815H22.293V236.988H19.505C18.689 236.988 18.1393 237.124 17.856 237.396C17.5727 237.668 17.431 237.997 17.431 238.382C17.431 238.824 17.6067 239.181 17.958 239.453C18.3093 239.714 18.7967 239.844 19.42 239.844C20.032 239.844 20.5647 239.708 21.018 239.436C21.4827 239.164 21.817 238.767 22.021 238.246L22.344 239.368C22.1287 239.901 21.749 240.326 21.205 240.643C20.661 240.949 19.9753 241.102 19.148 241.102ZM26.5917 241V231.99H30.7737C31.8277 231.99 32.6551 232.194 33.2557 232.602C33.8677 232.999 34.1737 233.565 34.1737 234.302C34.1737 235.039 33.8847 235.611 33.3067 236.019C32.7401 236.416 31.9864 236.614 31.0457 236.614L31.3007 236.172C32.3774 236.172 33.1764 236.37 33.6977 236.767C34.2191 237.164 34.4797 237.747 34.4797 238.518C34.4797 239.3 34.1851 239.912 33.5957 240.354C33.0177 240.785 32.1281 241 30.9267 241H26.5917ZM28.1897 239.742H30.8077C31.4877 239.742 31.9977 239.64 32.3377 239.436C32.6777 239.221 32.8477 238.881 32.8477 238.416C32.8477 237.94 32.6891 237.594 32.3717 237.379C32.0657 237.152 31.5784 237.039 30.9097 237.039H28.1897V239.742ZM28.1897 235.866H30.6377C31.2611 235.866 31.7314 235.753 32.0487 235.526C32.3774 235.288 32.5417 234.959 32.5417 234.54C32.5417 234.109 32.3774 233.786 32.0487 233.571C31.7314 233.356 31.2611 233.248 30.6377 233.248H28.1897V235.866ZM38.8191 241V232.993L39.2271 233.418H35.5211V231.99H43.7491V233.418H40.0601L40.4511 232.993V241H38.8191ZM48.8785 241.102C47.9718 241.102 47.1671 240.904 46.4645 240.507C45.7618 240.11 45.2065 239.566 44.7985 238.875C44.3905 238.172 44.1865 237.379 44.1865 236.495C44.1865 235.6 44.3905 234.806 44.7985 234.115C45.2065 233.424 45.7618 232.885 46.4645 232.5C47.1671 232.103 47.9718 231.905 48.8785 231.905C49.7738 231.905 50.5728 232.103 51.2755 232.5C51.9895 232.885 52.5448 233.424 52.9415 234.115C53.3495 234.795 53.5535 235.588 53.5535 236.495C53.5535 237.39 53.3495 238.184 52.9415 238.875C52.5448 239.566 51.9895 240.11 51.2755 240.507C50.5728 240.904 49.7738 241.102 48.8785 241.102ZM48.8785 239.674C49.4565 239.674 49.9721 239.544 50.4255 239.283C50.8901 239.022 51.2528 238.654 51.5135 238.178C51.7741 237.691 51.9045 237.13 51.9045 236.495C51.9045 235.849 51.7741 235.294 51.5135 234.829C51.2528 234.353 50.8901 233.985 50.4255 233.724C49.9721 233.463 49.4565 233.333 48.8785 233.333C48.3005 233.333 47.7848 233.463 47.3315 233.724C46.8781 233.985 46.5155 234.353 46.2435 234.829C45.9715 235.294 45.8355 235.849 45.8355 236.495C45.8355 237.13 45.9715 237.691 46.2435 238.178C46.5155 238.654 46.8781 239.022 47.3315 239.283C47.7848 239.544 48.3005 239.674 48.8785 239.674ZM55.9101 241V231.99H57.5931L61.4691 238.654H60.7891L64.7671 231.99H66.2971V241H64.8181V233.826L65.0901 233.979L61.4521 239.98H60.7381L57.0831 233.86L57.4061 233.792V241H55.9101ZM73.3326 241.102C72.4259 241.102 71.6212 240.904 70.9186 240.507C70.2159 240.11 69.6606 239.566 69.2526 238.875C68.8446 238.172 68.6406 237.379 68.6406 236.495C68.6406 235.6 68.8446 234.806 69.2526 234.115C69.6606 233.424 70.2159 232.885 70.9186 232.5C71.6212 232.103 72.4259 231.905 73.3326 231.905C74.2279 231.905 75.0269 232.103 75.7296 232.5C76.4436 232.885 76.9989 233.424 77.3956 234.115C77.8036 234.795 78.0076 235.588 78.0076 236.495C78.0076 237.39 77.8036 238.184 77.3956 238.875C76.9989 239.566 76.4436 240.11 75.7296 240.507C75.0269 240.904 74.2279 241.102 73.3326 241.102ZM73.3326 239.674C73.9106 239.674 74.4262 239.544 74.8796 239.283C75.3442 239.022 75.7069 238.654 75.9676 238.178C76.2282 237.691 76.3586 237.13 76.3586 236.495C76.3586 235.849 76.2282 235.294 75.9676 234.829C75.7069 234.353 75.3442 233.985 74.8796 233.724C74.4262 233.463 73.9106 233.333 73.3326 233.333C72.7546 233.333 72.2389 233.463 71.7856 233.724C71.3322 233.985 70.9696 234.353 70.6976 234.829C70.4256 235.294 70.2896 235.849 70.2896 236.495C70.2896 237.13 70.4256 237.691 70.6976 238.178C70.9696 238.654 71.3322 239.022 71.7856 239.283C72.2389 239.544 72.7546 239.674 73.3326 239.674ZM84.5292 241.136C83.7812 241.136 83.1182 241.017 82.5402 240.779C81.9735 240.541 81.4862 240.19 81.0782 239.725C80.6702 239.249 80.3585 238.654 80.1432 237.94C79.9392 237.215 79.8372 236.365 79.8372 235.39C79.8372 234.619 79.9052 233.928 80.0412 233.316C80.1772 232.704 80.3699 232.16 80.6192 231.684C80.8799 231.208 81.1972 230.794 81.5712 230.443C81.9565 230.092 82.3872 229.803 82.8632 229.576C83.3505 229.338 83.8832 229.157 84.4612 229.032L88.5752 228.114L88.8132 229.627L85.0222 230.443C84.7955 230.488 84.5235 230.556 84.2062 230.647C83.8889 230.738 83.5659 230.879 83.2372 231.072C82.9085 231.253 82.6025 231.508 82.3192 231.837C82.0359 232.166 81.8092 232.596 81.6392 233.129C81.4692 233.65 81.3842 234.296 81.3842 235.067C81.3842 235.282 81.3899 235.447 81.4012 235.56C81.4125 235.673 81.4239 235.787 81.4352 235.9C81.4579 236.013 81.4749 236.183 81.4862 236.41L80.8062 235.713C80.9875 235.09 81.2765 234.546 81.6732 234.081C82.0699 233.616 82.5459 233.259 83.1012 233.01C83.6679 232.749 84.2855 232.619 84.9542 232.619C85.7929 232.619 86.5352 232.8 87.1812 233.163C87.8385 233.526 88.3542 234.024 88.7282 234.659C89.1022 235.294 89.2892 236.019 89.2892 236.835C89.2892 237.662 89.0909 238.405 88.6942 239.062C88.3089 239.708 87.7592 240.218 87.0452 240.592C86.3312 240.955 85.4925 241.136 84.5292 241.136ZM84.6822 239.776C85.2602 239.776 85.7702 239.651 86.2122 239.402C86.6542 239.141 86.9999 238.796 87.2492 238.365C87.4985 237.923 87.6232 237.43 87.6232 236.886C87.6232 236.342 87.4985 235.86 87.2492 235.441C86.9999 235.022 86.6542 234.693 86.2122 234.455C85.7702 234.206 85.2489 234.081 84.6482 234.081C84.0815 234.081 83.5715 234.2 83.1182 234.438C82.6649 234.665 82.3135 234.988 82.0642 235.407C81.8149 235.815 81.6902 236.291 81.6902 236.835C81.6902 237.379 81.8149 237.878 82.0642 238.331C82.3249 238.773 82.6762 239.124 83.1182 239.385C83.5715 239.646 84.0929 239.776 84.6822 239.776ZM91.6201 241V231.99H93.2521V238.552L98.7771 231.99H100.256V241H98.6241V234.438L93.1161 241H91.6201ZM101.928 240.983L102.03 239.606C102.109 239.617 102.183 239.629 102.251 239.64C102.319 239.651 102.381 239.657 102.438 239.657C102.8 239.657 103.084 239.532 103.288 239.283C103.503 239.034 103.662 238.705 103.764 238.297C103.866 237.878 103.939 237.407 103.985 236.886C104.03 236.365 104.064 235.843 104.087 235.322L104.24 231.99H111.159V241H109.527V232.942L109.918 233.418H105.294L105.668 232.925L105.549 235.424C105.515 236.217 105.452 236.96 105.362 237.651C105.271 238.342 105.129 238.949 104.937 239.47C104.755 239.991 104.5 240.399 104.172 240.694C103.854 240.989 103.441 241.136 102.931 241.136C102.783 241.136 102.625 241.119 102.455 241.085C102.296 241.062 102.12 241.028 101.928 240.983ZM120.077 241V237.838L120.332 238.144H117.459C116.258 238.144 115.317 237.889 114.637 237.379C113.969 236.869 113.634 236.127 113.634 235.152C113.634 234.109 113.991 233.322 114.705 232.789C115.431 232.256 116.394 231.99 117.595 231.99H121.539V241H120.077ZM113.549 241L115.997 237.549H117.68L115.3 241H113.549ZM120.077 237.328V232.959L120.332 233.418H117.646C116.898 233.418 116.32 233.56 115.912 233.843C115.504 234.115 115.3 234.568 115.3 235.203C115.3 236.382 116.06 236.971 117.578 236.971H120.332L120.077 237.328ZM125.081 241.102C124.763 241.102 124.491 240.994 124.265 240.779C124.038 240.552 123.925 240.269 123.925 239.929C123.925 239.589 124.038 239.311 124.265 239.096C124.491 238.881 124.763 238.773 125.081 238.773C125.387 238.773 125.647 238.881 125.863 239.096C126.089 239.311 126.203 239.589 126.203 239.929C126.203 240.269 126.089 240.552 125.863 240.779C125.647 240.994 125.387 241.102 125.081 241.102Z" fill="#434343"/>
</svg>
