<svg width="300" height="239" viewBox="0 0 300 239" fill="none" xmlns="http://www.w3.org/2000/svg">
<path d="M0 50C0 26.4298 0 14.6447 7.32233 7.32233C14.6447 0 26.4298 0 50 0H258.544C258.796 0 258.922 0 259.016 0.00438307C261.703 0.130288 263.503 2.81976 262.594 5.35171C262.562 5.43986 262.514 5.55661 262.417 5.79013L259.867 11.9672C251.281 32.7641 276.444 51.0542 293.576 36.469C296.107 34.3144 300 36.1129 300 39.4366V189C300 212.57 300 224.355 292.678 231.678C285.355 239 273.57 239 250 239H50C26.4298 239 14.6447 239 7.32233 231.678C0 224.355 0 212.57 0 189V50Z" fill="#F3F5F7"/>
<circle cx="280.5" cy="19.5" r="19.5" fill="#F3F5F7"/>
<path d="M273 20.25H288M288 20.25L281 13M288 20.25L281 27" stroke="#00AAFF" stroke-width="2" stroke-linecap="round" stroke-linejoin="round"/>
<mask id="mask0_221_9" style="mask-type:alpha" maskUnits="userSpaceOnUse" x="0" y="0" width="300" height="239">
<path d="M2.13966 59.2737C2.47823 31.303 2.64752 17.3176 11.4118 8.6588C20.176 0 34.1624 0 62.1353 0H257.224C257.544 0 257.704 0 257.807 0.0053231C260.932 0.166703 262.67 3.69207 260.894 6.26904C260.836 6.35404 260.739 6.4808 260.544 6.73432V6.73432C258.104 9.91283 256.883 11.5021 256.522 12.0415C244.835 29.5017 264.531 50.8668 282.882 40.6351C283.449 40.319 285.132 39.2318 288.498 37.0575L293.242 33.9932C293.748 33.6663 294.001 33.5029 294.183 33.4101C296.688 32.1335 299.693 33.7699 299.979 36.5661C300 36.7694 300 37.0706 300 37.6731V178.405C300 206.945 300 221.216 291.108 230.02C282.216 238.824 267.947 238.683 239.407 238.402L60.1309 236.631C31.7904 236.351 17.6201 236.211 8.91668 227.314C0.213279 218.418 0.384801 204.248 0.727845 175.908L2.13966 59.2737Z" fill="#F3F5F7"/>
</mask>
<g mask="url(#mask0_221_9)">
<path d="M1.51998 105.92C-5.92002 105.92 -12.52 104.2 -18.28 100.76C-23.96 97.32 -28.44 92.32 -31.72 85.76C-34.92 79.2 -36.52 71.28 -36.52 62C-36.52 52.72 -34.92 44.8 -31.72 38.24C-28.44 31.68 -23.96 26.68 -18.28 23.24C-12.52 19.8 -5.92002 18.08 1.51998 18.08C8.95998 18.08 15.52 19.8 21.2 23.24C26.96 26.68 31.44 31.68 34.64 38.24C37.92 44.8 39.56 52.72 39.56 62C39.56 71.28 37.92 79.2 34.64 85.76C31.44 92.32 26.96 97.32 21.2 100.76C15.52 104.2 8.95998 105.92 1.51998 105.92ZM1.51998 83.24C3.35998 83.24 4.99998 82.6 6.43998 81.32C7.87998 80.04 8.99998 77.84 9.79998 74.72C10.68 71.6 11.12 67.36 11.12 62C11.12 56.56 10.68 52.32 9.79998 49.28C8.99998 46.16 7.87998 43.96 6.43998 42.68C4.99998 41.4 3.35998 40.76 1.51998 40.76C-0.320019 40.76 -1.96002 41.4 -3.40002 42.68C-4.84002 43.96 -6.00002 46.16 -6.88002 49.28C-7.68002 52.32 -8.08002 56.56 -8.08002 62C-8.08002 67.36 -7.68002 71.6 -6.88002 74.72C-6.00002 77.84 -4.84002 80.04 -3.40002 81.32C-1.96002 82.6 -0.320019 83.24 1.51998 83.24Z" fill="#00AAFF" fill-opacity="0.1"/>
<path d="M83.7659 105.92C76.3259 105.92 69.7659 104.84 64.0859 102.68C58.4859 100.44 54.0859 97.32 50.8859 93.32C47.6859 89.24 46.0859 84.48 46.0859 79.04C46.0859 73.6 47.7259 68.96 51.0059 65.12C54.2859 61.28 58.7659 58.36 64.4459 56.36C70.1259 54.36 76.5659 53.36 83.7659 53.36C90.9659 53.36 97.4059 54.36 103.086 56.36C108.766 58.36 113.246 61.28 116.526 65.12C119.806 68.96 121.446 73.6 121.446 79.04C121.446 84.48 119.846 89.24 116.646 93.32C113.446 97.32 109.006 100.44 103.326 102.68C97.7259 104.84 91.2059 105.92 83.7659 105.92ZM83.7659 86.84C86.4859 86.84 88.6859 86.08 90.3659 84.56C92.1259 82.96 93.0059 80.8 93.0059 78.08C93.0059 75.36 92.1259 73.24 90.3659 71.72C88.6859 70.12 86.4859 69.32 83.7659 69.32C81.0459 69.32 78.8059 70.12 77.0459 71.72C75.3659 73.24 74.5259 75.36 74.5259 78.08C74.5259 80.8 75.3659 82.96 77.0459 84.56C78.8059 86.08 81.0459 86.84 83.7659 86.84ZM83.7659 67.04C77.2059 67.04 71.2859 66.12 66.0059 64.28C60.8059 62.36 56.6859 59.64 53.6459 56.12C50.6059 52.52 49.0859 48.2 49.0859 43.16C49.0859 38.04 50.5659 33.64 53.5259 29.96C56.4859 26.2 60.5659 23.28 65.7659 21.2C70.9659 19.12 76.9659 18.08 83.7659 18.08C90.5659 18.08 96.5659 19.12 101.766 21.2C106.966 23.28 111.046 26.2 114.006 29.96C116.966 33.64 118.446 38.04 118.446 43.16C118.446 48.2 116.926 52.52 113.886 56.12C110.846 59.64 106.726 62.36 101.526 64.28C96.3259 66.12 90.4059 67.04 83.7659 67.04ZM83.7659 51.56C85.6859 51.56 87.2859 50.92 88.5659 49.64C89.8459 48.36 90.4859 46.6 90.4859 44.36C90.4859 42.04 89.8459 40.28 88.5659 39.08C87.2859 37.8 85.6859 37.16 83.7659 37.16C81.8459 37.16 80.2459 37.8 78.9659 39.08C77.6859 40.28 77.0459 42.04 77.0459 44.36C77.0459 46.6 77.6859 48.36 78.9659 49.64C80.2459 50.92 81.8459 51.56 83.7659 51.56Z" fill="#00AAFF" fill-opacity="0.1"/>
</g>
<path d="M22.174 157.136C21.2673 157.136 20.4287 156.989 19.658 156.694C18.8987 156.388 18.2357 155.963 17.669 155.419C17.1137 154.864 16.6773 154.218 16.36 153.481C16.0427 152.744 15.884 151.934 15.884 151.05C15.884 150.166 16.0427 149.356 16.36 148.619C16.6773 147.882 17.1193 147.242 17.686 146.698C18.2527 146.143 18.9157 145.718 19.675 145.423C20.4457 145.117 21.2843 144.964 22.191 144.964C23.109 144.964 23.9533 145.123 24.724 145.44C25.506 145.746 26.169 146.205 26.713 146.817L25.608 147.888C25.1547 147.412 24.6447 147.061 24.078 146.834C23.5113 146.596 22.905 146.477 22.259 146.477C21.5903 146.477 20.967 146.59 20.389 146.817C19.8223 147.044 19.3293 147.361 18.91 147.769C18.4907 148.177 18.162 148.664 17.924 149.231C17.6973 149.786 17.584 150.393 17.584 151.05C17.584 151.707 17.6973 152.319 17.924 152.886C18.162 153.441 18.4907 153.923 18.91 154.331C19.3293 154.739 19.8223 155.056 20.389 155.283C20.967 155.51 21.5903 155.623 22.259 155.623C22.905 155.623 23.5113 155.51 24.078 155.283C24.6447 155.045 25.1547 154.682 25.608 154.195L26.713 155.266C26.169 155.878 25.506 156.343 24.724 156.66C23.9533 156.977 23.1033 157.136 22.174 157.136ZM32.2603 157.102C31.3536 157.102 30.549 156.904 29.8463 156.507C29.1436 156.11 28.5883 155.566 28.1803 154.875C27.7723 154.172 27.5683 153.379 27.5683 152.495C27.5683 151.6 27.7723 150.806 28.1803 150.115C28.5883 149.424 29.1436 148.885 29.8463 148.5C30.549 148.103 31.3536 147.905 32.2603 147.905C33.1556 147.905 33.9546 148.103 34.6573 148.5C35.3713 148.885 35.9266 149.424 36.3233 150.115C36.7313 150.795 36.9353 151.588 36.9353 152.495C36.9353 153.39 36.7313 154.184 36.3233 154.875C35.9266 155.566 35.3713 156.11 34.6573 156.507C33.9546 156.904 33.1556 157.102 32.2603 157.102ZM32.2603 155.674C32.8383 155.674 33.354 155.544 33.8073 155.283C34.272 155.022 34.6346 154.654 34.8953 154.178C35.156 153.691 35.2863 153.13 35.2863 152.495C35.2863 151.849 35.156 151.294 34.8953 150.829C34.6346 150.353 34.272 149.985 33.8073 149.724C33.354 149.463 32.8383 149.333 32.2603 149.333C31.6823 149.333 31.1666 149.463 30.7133 149.724C30.26 149.985 29.8973 150.353 29.6253 150.829C29.3533 151.294 29.2173 151.849 29.2173 152.495C29.2173 153.13 29.3533 153.691 29.6253 154.178C29.8973 154.654 30.26 155.022 30.7133 155.283C31.1666 155.544 31.6823 155.674 32.2603 155.674ZM39.2919 157V147.99H47.6389V157H46.0069V149.01L46.3979 149.418H40.5329L40.9239 149.01V157H39.2919ZM55.5738 157.102C54.8258 157.102 54.1402 156.932 53.5168 156.592C52.9048 156.241 52.4118 155.725 52.0378 155.045C51.6752 154.365 51.4938 153.515 51.4938 152.495C51.4938 151.475 51.6695 150.625 52.0208 149.945C52.3835 149.265 52.8708 148.755 53.4828 148.415C54.1062 148.075 54.8032 147.905 55.5738 147.905C56.4578 147.905 57.2398 148.098 57.9198 148.483C58.5998 148.868 59.1382 149.407 59.5348 150.098C59.9315 150.778 60.1298 151.577 60.1298 152.495C60.1298 153.413 59.9315 154.218 59.5348 154.909C59.1382 155.6 58.5998 156.139 57.9198 156.524C57.2398 156.909 56.4578 157.102 55.5738 157.102ZM50.7968 160.298V147.99H52.3608V150.421L52.2588 152.512L52.4288 154.603V160.298H50.7968ZM55.4378 155.674C56.0158 155.674 56.5315 155.544 56.9848 155.283C57.4495 155.022 57.8122 154.654 58.0728 154.178C58.3448 153.691 58.4808 153.13 58.4808 152.495C58.4808 151.849 58.3448 151.294 58.0728 150.829C57.8122 150.353 57.4495 149.985 56.9848 149.724C56.5315 149.463 56.0158 149.333 55.4378 149.333C54.8712 149.333 54.3555 149.463 53.8908 149.724C53.4375 149.985 53.0748 150.353 52.8028 150.829C52.5422 151.294 52.4118 151.849 52.4118 152.495C52.4118 153.13 52.5422 153.691 52.8028 154.178C53.0748 154.654 53.4375 155.022 53.8908 155.283C54.3555 155.544 54.8712 155.674 55.4378 155.674ZM66.3599 157.102C65.4533 157.102 64.6486 156.904 63.9459 156.507C63.2433 156.11 62.6879 155.566 62.2799 154.875C61.8719 154.172 61.6679 153.379 61.6679 152.495C61.6679 151.6 61.8719 150.806 62.2799 150.115C62.6879 149.424 63.2433 148.885 63.9459 148.5C64.6486 148.103 65.4533 147.905 66.3599 147.905C67.2553 147.905 68.0543 148.103 68.7569 148.5C69.4709 148.885 70.0263 149.424 70.4229 150.115C70.8309 150.795 71.0349 151.588 71.0349 152.495C71.0349 153.39 70.8309 154.184 70.4229 154.875C70.0263 155.566 69.4709 156.11 68.7569 156.507C68.0543 156.904 67.2553 157.102 66.3599 157.102ZM66.3599 155.674C66.9379 155.674 67.4536 155.544 67.9069 155.283C68.3716 155.022 68.7343 154.654 68.9949 154.178C69.2556 153.691 69.3859 153.13 69.3859 152.495C69.3859 151.849 69.2556 151.294 68.9949 150.829C68.7343 150.353 68.3716 149.985 67.9069 149.724C67.4536 149.463 66.9379 149.333 66.3599 149.333C65.7819 149.333 65.2663 149.463 64.8129 149.724C64.3596 149.985 63.9969 150.353 63.7249 150.829C63.4529 151.294 63.3169 151.849 63.3169 152.495C63.3169 153.13 63.4529 153.691 63.7249 154.178C63.9969 154.654 64.3596 155.022 64.8129 155.283C65.2663 155.544 65.7819 155.674 66.3599 155.674ZM73.3915 157V147.99H77.5735C78.6275 147.99 79.4549 148.194 80.0555 148.602C80.6675 148.999 80.9735 149.565 80.9735 150.302C80.9735 151.039 80.6845 151.611 80.1065 152.019C79.5399 152.416 78.7862 152.614 77.8455 152.614L78.1005 152.172C79.1772 152.172 79.9762 152.37 80.4975 152.767C81.0189 153.164 81.2795 153.747 81.2795 154.518C81.2795 155.3 80.9849 155.912 80.3955 156.354C79.8175 156.785 78.9279 157 77.7265 157H73.3915ZM74.9895 155.742H77.6075C78.2875 155.742 78.7975 155.64 79.1375 155.436C79.4775 155.221 79.6475 154.881 79.6475 154.416C79.6475 153.94 79.4889 153.594 79.1715 153.379C78.8655 153.152 78.3782 153.039 77.7095 153.039H74.9895V155.742ZM74.9895 151.866H77.4375C78.0609 151.866 78.5312 151.753 78.8485 151.526C79.1772 151.288 79.3415 150.959 79.3415 150.54C79.3415 150.109 79.1772 149.786 78.8485 149.571C78.5312 149.356 78.0609 149.248 77.4375 149.248H74.9895V151.866ZM87.6929 157.102C86.7863 157.102 85.9816 156.904 85.2789 156.507C84.5763 156.11 84.0209 155.566 83.6129 154.875C83.2049 154.172 83.0009 153.379 83.0009 152.495C83.0009 151.6 83.2049 150.806 83.6129 150.115C84.0209 149.424 84.5763 148.885 85.2789 148.5C85.9816 148.103 86.7863 147.905 87.6929 147.905C88.5883 147.905 89.3873 148.103 90.0899 148.5C90.8039 148.885 91.3593 149.424 91.7559 150.115C92.1639 150.795 92.3679 151.588 92.3679 152.495C92.3679 153.39 92.1639 154.184 91.7559 154.875C91.3593 155.566 90.8039 156.11 90.0899 156.507C89.3873 156.904 88.5883 157.102 87.6929 157.102ZM87.6929 155.674C88.2709 155.674 88.7866 155.544 89.2399 155.283C89.7046 155.022 90.0673 154.654 90.3279 154.178C90.5886 153.691 90.7189 153.13 90.7189 152.495C90.7189 151.849 90.5886 151.294 90.3279 150.829C90.0673 150.353 89.7046 149.985 89.2399 149.724C88.7866 149.463 88.2709 149.333 87.6929 149.333C87.1149 149.333 86.5993 149.463 86.1459 149.724C85.6926 149.985 85.3299 150.353 85.0579 150.829C84.7859 151.294 84.6499 151.849 84.6499 152.495C84.6499 153.13 84.7859 153.691 85.0579 154.178C85.3299 154.654 85.6926 155.022 86.1459 155.283C86.5993 155.544 87.1149 155.674 87.6929 155.674ZM105.119 157L102.246 152.614L103.589 151.798L107.057 157H105.119ZM100.376 153.192V151.798H103.3V153.192H100.376ZM103.742 152.682L102.195 152.478L105.068 147.99H106.819L103.742 152.682ZM95.0037 157H93.0657L96.5167 151.798L97.8597 152.614L95.0037 157ZM100.869 157H99.2367V147.99H100.869V157ZM99.7297 153.192H96.8227V151.798H99.7297V153.192ZM96.3807 152.682L93.3037 147.99H95.0377L97.9107 152.478L96.3807 152.682ZM115.006 156.235V149.418H111.096L111.011 151.152C110.989 151.719 110.949 152.268 110.892 152.801C110.847 153.322 110.768 153.804 110.654 154.246C110.552 154.688 110.399 155.051 110.195 155.334C109.991 155.617 109.719 155.793 109.379 155.861L107.764 155.572C108.116 155.583 108.399 155.47 108.614 155.232C108.83 154.983 108.994 154.643 109.107 154.212C109.232 153.781 109.323 153.294 109.379 152.75C109.436 152.195 109.481 151.622 109.515 151.033L109.651 147.99H116.638V156.235H115.006ZM107.407 159.091V155.572H118.015V159.091H116.485V157H108.954V159.091H107.407ZM125.667 157V155.096L125.582 154.739V151.492C125.582 150.801 125.378 150.268 124.97 149.894C124.573 149.509 123.972 149.316 123.168 149.316C122.635 149.316 122.114 149.407 121.604 149.588C121.094 149.758 120.663 149.99 120.312 150.285L119.632 149.061C120.096 148.687 120.652 148.404 121.298 148.211C121.955 148.007 122.641 147.905 123.355 147.905C124.59 147.905 125.542 148.205 126.211 148.806C126.879 149.407 127.214 150.325 127.214 151.56V157H125.667ZM122.709 157.102C122.04 157.102 121.451 156.989 120.941 156.762C120.442 156.535 120.057 156.224 119.785 155.827C119.513 155.419 119.377 154.96 119.377 154.45C119.377 153.963 119.49 153.521 119.717 153.124C119.955 152.727 120.334 152.41 120.856 152.172C121.388 151.934 122.102 151.815 122.998 151.815H125.854V152.988H123.066C122.25 152.988 121.7 153.124 121.417 153.396C121.133 153.668 120.992 153.997 120.992 154.382C120.992 154.824 121.167 155.181 121.519 155.453C121.87 155.714 122.357 155.844 122.981 155.844C123.593 155.844 124.125 155.708 124.579 155.436C125.043 155.164 125.378 154.767 125.582 154.246L125.905 155.368C125.689 155.901 125.31 156.326 124.766 156.643C124.222 156.949 123.536 157.102 122.709 157.102ZM134.164 157.102C133.201 157.102 132.351 156.904 131.614 156.507C130.889 156.11 130.322 155.566 129.914 154.875C129.518 154.184 129.319 153.39 129.319 152.495C129.319 151.6 129.512 150.806 129.897 150.115C130.294 149.424 130.832 148.885 131.512 148.5C132.204 148.103 132.98 147.905 133.841 147.905C134.714 147.905 135.485 148.098 136.153 148.483C136.822 148.868 137.343 149.412 137.717 150.115C138.103 150.806 138.295 151.617 138.295 152.546C138.295 152.614 138.29 152.693 138.278 152.784C138.278 152.875 138.273 152.96 138.261 153.039H130.594V151.866H137.411L136.748 152.274C136.76 151.696 136.641 151.18 136.391 150.727C136.142 150.274 135.796 149.922 135.354 149.673C134.924 149.412 134.419 149.282 133.841 149.282C133.275 149.282 132.77 149.412 132.328 149.673C131.886 149.922 131.541 150.279 131.291 150.744C131.042 151.197 130.917 151.719 130.917 152.308V152.58C130.917 153.181 131.053 153.719 131.325 154.195C131.609 154.66 132 155.022 132.498 155.283C132.997 155.544 133.569 155.674 134.215 155.674C134.748 155.674 135.23 155.583 135.66 155.402C136.102 155.221 136.488 154.949 136.816 154.586L137.717 155.64C137.309 156.116 136.799 156.479 136.187 156.728C135.587 156.977 134.912 157.102 134.164 157.102ZM140.827 157V147.99H142.51L146.386 154.654H145.706L149.684 147.99H151.214V157H149.735V149.826L150.007 149.979L146.369 155.98H145.655L142 149.86L142.323 149.792V157H140.827ZM158.956 157V147.99H163.138C164.192 147.99 165.019 148.194 165.62 148.602C166.232 148.999 166.538 149.565 166.538 150.302C166.538 151.039 166.249 151.611 165.671 152.019C165.104 152.416 164.351 152.614 163.41 152.614L163.665 152.172C164.742 152.172 165.541 152.37 166.062 152.767C166.583 153.164 166.844 153.747 166.844 154.518C166.844 155.3 166.549 155.912 165.96 156.354C165.382 156.785 164.492 157 163.291 157H158.956ZM160.554 155.742H163.172C163.852 155.742 164.362 155.64 164.702 155.436C165.042 155.221 165.212 154.881 165.212 154.416C165.212 153.94 165.053 153.594 164.736 153.379C164.43 153.152 163.943 153.039 163.274 153.039H160.554V155.742ZM160.554 151.866H163.002C163.625 151.866 164.096 151.753 164.413 151.526C164.742 151.288 164.906 150.959 164.906 150.54C164.906 150.109 164.742 149.786 164.413 149.571C164.096 149.356 163.625 149.248 163.002 149.248H160.554V151.866ZM174.923 157V155.096L174.838 154.739V151.492C174.838 150.801 174.634 150.268 174.226 149.894C173.83 149.509 173.229 149.316 172.424 149.316C171.892 149.316 171.37 149.407 170.86 149.588C170.35 149.758 169.92 149.99 169.568 150.285L168.888 149.061C169.353 148.687 169.908 148.404 170.554 148.211C171.212 148.007 171.897 147.905 172.611 147.905C173.847 147.905 174.799 148.205 175.467 148.806C176.136 149.407 176.47 150.325 176.47 151.56V157H174.923ZM171.965 157.102C171.297 157.102 170.707 156.989 170.197 156.762C169.699 156.535 169.313 156.224 169.041 155.827C168.769 155.419 168.633 154.96 168.633 154.45C168.633 153.963 168.747 153.521 168.973 153.124C169.211 152.727 169.591 152.41 170.112 152.172C170.645 151.934 171.359 151.815 172.254 151.815H175.11V152.988H172.322C171.506 152.988 170.957 153.124 170.673 153.396C170.39 153.668 170.248 153.997 170.248 154.382C170.248 154.824 170.424 155.181 170.775 155.453C171.127 155.714 171.614 155.844 172.237 155.844C172.849 155.844 173.382 155.708 173.835 155.436C174.3 155.164 174.634 154.767 174.838 154.246L175.161 155.368C174.946 155.901 174.566 156.326 174.022 156.643C173.478 156.949 172.793 157.102 171.965 157.102ZM183.336 157.102C182.418 157.102 181.596 156.904 180.871 156.507C180.157 156.11 179.596 155.566 179.188 154.875C178.78 154.184 178.576 153.39 178.576 152.495C178.576 151.6 178.78 150.806 179.188 150.115C179.596 149.424 180.157 148.885 180.871 148.5C181.596 148.103 182.418 147.905 183.336 147.905C184.152 147.905 184.877 148.069 185.512 148.398C186.158 148.715 186.657 149.191 187.008 149.826L185.767 150.625C185.472 150.183 185.11 149.86 184.679 149.656C184.26 149.441 183.806 149.333 183.319 149.333C182.73 149.333 182.203 149.463 181.738 149.724C181.273 149.985 180.905 150.353 180.633 150.829C180.361 151.294 180.225 151.849 180.225 152.495C180.225 153.141 180.361 153.702 180.633 154.178C180.905 154.654 181.273 155.022 181.738 155.283C182.203 155.544 182.73 155.674 183.319 155.674C183.806 155.674 184.26 155.572 184.679 155.368C185.11 155.153 185.472 154.824 185.767 154.382L187.008 155.164C186.657 155.787 186.158 156.269 185.512 156.609C184.877 156.938 184.152 157.102 183.336 157.102ZM193.686 157V147.99H197.868C198.922 147.99 199.75 148.194 200.35 148.602C200.962 148.999 201.268 149.565 201.268 150.302C201.268 151.039 200.979 151.611 200.401 152.019C199.835 152.416 199.081 152.614 198.14 152.614L198.395 152.172C199.472 152.172 200.271 152.37 200.792 152.767C201.314 153.164 201.574 153.747 201.574 154.518C201.574 155.3 201.28 155.912 200.69 156.354C200.112 156.785 199.223 157 198.021 157H193.686ZM195.284 155.742H197.902C198.582 155.742 199.092 155.64 199.432 155.436C199.772 155.221 199.942 154.881 199.942 154.416C199.942 153.94 199.784 153.594 199.466 153.379C199.16 153.152 198.673 153.039 198.004 153.039H195.284V155.742ZM195.284 151.866H197.732C198.356 151.866 198.826 151.753 199.143 151.526C199.472 151.288 199.636 150.959 199.636 150.54C199.636 150.109 199.472 149.786 199.143 149.571C198.826 149.356 198.356 149.248 197.732 149.248H195.284V151.866ZM208.966 157V145.1H216.769L216.752 146.579H210.224L210.632 146.154L210.649 157H208.966ZM218.794 157V145.1H220.477V154.28L227.515 145.1H229.079V157H227.413V147.837L220.358 157H218.794ZM232.79 157V145.1H241.766V146.545H234.473V149.945H238.179C239.595 149.945 240.672 150.24 241.409 150.829C242.145 151.418 242.514 152.274 242.514 153.396C242.514 154.552 242.111 155.442 241.307 156.065C240.513 156.688 239.374 157 237.89 157H232.79ZM234.473 155.657H237.822C238.808 155.657 239.55 155.47 240.049 155.096C240.559 154.722 240.814 154.167 240.814 153.43C240.814 152.002 239.816 151.288 237.822 151.288H234.473V155.657ZM252.83 156.201V146.579H247.611L247.526 149.078C247.492 149.917 247.436 150.721 247.356 151.492C247.288 152.263 247.186 152.96 247.05 153.583C246.914 154.195 246.722 154.699 246.472 155.096C246.234 155.493 245.928 155.736 245.554 155.827L243.718 155.521C244.16 155.555 244.523 155.408 244.806 155.079C245.101 154.739 245.328 154.269 245.486 153.668C245.656 153.056 245.781 152.348 245.86 151.543C245.94 150.727 245.996 149.854 246.03 148.925L246.149 145.1H254.513V156.201H252.83ZM243.293 159.601L243.31 155.521H256.264V159.601H254.683V157H244.891L244.874 159.601H243.293ZM266.493 156.201V146.579H261.274L261.189 149.078C261.155 149.917 261.099 150.721 261.019 151.492C260.951 152.263 260.849 152.96 260.713 153.583C260.577 154.195 260.385 154.699 260.135 155.096C259.897 155.493 259.591 155.736 259.217 155.827L257.381 155.521C257.823 155.555 258.186 155.408 258.469 155.079C258.764 154.739 258.991 154.269 259.149 153.668C259.319 153.056 259.444 152.348 259.523 151.543C259.603 150.727 259.659 149.854 259.693 148.925L259.812 145.1H268.176V156.201H266.493ZM256.956 159.601L256.973 155.521H269.927V159.601H268.346V157H258.554L258.537 159.601H256.956ZM16.581 178V168.99H18.213V172.815H23.347V168.99H24.979V178H23.347V174.226H18.213V178H16.581ZM33.6773 178V176.096L33.5923 175.739V172.492C33.5923 171.801 33.3883 171.268 32.9803 170.894C32.5836 170.509 31.983 170.316 31.1783 170.316C30.6456 170.316 30.1243 170.407 29.6143 170.588C29.1043 170.758 28.6736 170.99 28.3223 171.285L27.6423 170.061C28.107 169.687 28.6623 169.404 29.3083 169.211C29.9656 169.007 30.6513 168.905 31.3653 168.905C32.6006 168.905 33.5526 169.205 34.2213 169.806C34.89 170.407 35.2243 171.325 35.2243 172.56V178H33.6773ZM30.7193 178.102C30.0506 178.102 29.4613 177.989 28.9513 177.762C28.4526 177.535 28.0673 177.224 27.7953 176.827C27.5233 176.419 27.3873 175.96 27.3873 175.45C27.3873 174.963 27.5006 174.521 27.7273 174.124C27.9653 173.727 28.345 173.41 28.8663 173.172C29.399 172.934 30.113 172.815 31.0083 172.815H33.8643V173.988H31.0763C30.2603 173.988 29.7106 174.124 29.4273 174.396C29.144 174.668 29.0023 174.997 29.0023 175.382C29.0023 175.824 29.178 176.181 29.5293 176.453C29.8806 176.714 30.368 176.844 30.9913 176.844C31.6033 176.844 32.136 176.708 32.5893 176.436C33.054 176.164 33.3883 175.767 33.5923 175.246L33.9153 176.368C33.7 176.901 33.3203 177.326 32.7763 177.643C32.2323 177.949 31.5466 178.102 30.7193 178.102ZM42.7285 178V168.99H51.0755V178H49.4435V170.01L49.8345 170.418H43.9695L44.3605 170.01V178H42.7285ZM58.2453 178.102C57.282 178.102 56.432 177.904 55.6953 177.507C54.97 177.11 54.4033 176.566 53.9953 175.875C53.5987 175.184 53.4003 174.39 53.4003 173.495C53.4003 172.6 53.593 171.806 53.9783 171.115C54.375 170.424 54.9133 169.885 55.5933 169.5C56.2847 169.103 57.061 168.905 57.9223 168.905C58.795 168.905 59.5657 169.098 60.2343 169.483C60.903 169.868 61.4243 170.412 61.7983 171.115C62.1837 171.806 62.3763 172.617 62.3763 173.546C62.3763 173.614 62.3707 173.693 62.3593 173.784C62.3593 173.875 62.3537 173.96 62.3423 174.039H54.6753V172.866H61.4923L60.8293 173.274C60.8407 172.696 60.7217 172.18 60.4723 171.727C60.223 171.274 59.8773 170.922 59.4353 170.673C59.0047 170.412 58.5003 170.282 57.9223 170.282C57.3557 170.282 56.8513 170.412 56.4093 170.673C55.9673 170.922 55.6217 171.279 55.3723 171.744C55.123 172.197 54.9983 172.719 54.9983 173.308V173.58C54.9983 174.181 55.1343 174.719 55.4063 175.195C55.6897 175.66 56.0807 176.022 56.5793 176.283C57.078 176.544 57.6503 176.674 58.2963 176.674C58.829 176.674 59.3107 176.583 59.7413 176.402C60.1833 176.221 60.5687 175.949 60.8973 175.586L61.7983 176.64C61.3903 177.116 60.8803 177.479 60.2683 177.728C59.6677 177.977 58.9933 178.102 58.2453 178.102ZM69.6851 178.102C68.9371 178.102 68.2515 177.932 67.6281 177.592C67.0161 177.241 66.5231 176.725 66.1491 176.045C65.7865 175.365 65.6051 174.515 65.6051 173.495C65.6051 172.475 65.7808 171.625 66.1321 170.945C66.4948 170.265 66.9821 169.755 67.5941 169.415C68.2175 169.075 68.9145 168.905 69.6851 168.905C70.5691 168.905 71.3511 169.098 72.0311 169.483C72.7111 169.868 73.2495 170.407 73.6461 171.098C74.0428 171.778 74.2411 172.577 74.2411 173.495C74.2411 174.413 74.0428 175.218 73.6461 175.909C73.2495 176.6 72.7111 177.139 72.0311 177.524C71.3511 177.909 70.5691 178.102 69.6851 178.102ZM64.9081 181.298V168.99H66.4721V171.421L66.3701 173.512L66.5401 175.603V181.298H64.9081ZM69.5491 176.674C70.1271 176.674 70.6428 176.544 71.0961 176.283C71.5608 176.022 71.9235 175.654 72.1841 175.178C72.4561 174.691 72.5921 174.13 72.5921 173.495C72.5921 172.849 72.4561 172.294 72.1841 171.829C71.9235 171.353 71.5608 170.985 71.0961 170.724C70.6428 170.463 70.1271 170.333 69.5491 170.333C68.9825 170.333 68.4668 170.463 68.0021 170.724C67.5488 170.985 67.1861 171.353 66.9141 171.829C66.6535 172.294 66.5231 172.849 66.5231 173.495C66.5231 174.13 66.6535 174.691 66.9141 175.178C67.1861 175.654 67.5488 176.022 68.0021 176.283C68.4668 176.544 68.9825 176.674 69.5491 176.674ZM80.6243 178.102C79.6609 178.102 78.8109 177.904 78.0743 177.507C77.3489 177.11 76.7823 176.566 76.3743 175.875C75.9776 175.184 75.7793 174.39 75.7793 173.495C75.7793 172.6 75.9719 171.806 76.3573 171.115C76.7539 170.424 77.2923 169.885 77.9723 169.5C78.6636 169.103 79.4399 168.905 80.3013 168.905C81.1739 168.905 81.9446 169.098 82.6133 169.483C83.2819 169.868 83.8033 170.412 84.1773 171.115C84.5626 171.806 84.7553 172.617 84.7553 173.546C84.7553 173.614 84.7496 173.693 84.7383 173.784C84.7383 173.875 84.7326 173.96 84.7213 174.039H77.0543V172.866H83.8713L83.2083 173.274C83.2196 172.696 83.1006 172.18 82.8513 171.727C82.6019 171.274 82.2563 170.922 81.8143 170.673C81.3836 170.412 80.8793 170.282 80.3013 170.282C79.7346 170.282 79.2303 170.412 78.7883 170.673C78.3463 170.922 78.0006 171.279 77.7513 171.744C77.5019 172.197 77.3773 172.719 77.3773 173.308V173.58C77.3773 174.181 77.5133 174.719 77.7853 175.195C78.0686 175.66 78.4596 176.022 78.9583 176.283C79.4569 176.544 80.0293 176.674 80.6753 176.674C81.2079 176.674 81.6896 176.583 82.1203 176.402C82.5623 176.221 82.9476 175.949 83.2763 175.586L84.1773 176.64C83.7693 177.116 83.2593 177.479 82.6473 177.728C82.0466 177.977 81.3723 178.102 80.6243 178.102ZM92.0641 178.102C91.3161 178.102 90.6304 177.932 90.0071 177.592C89.3951 177.241 88.9021 176.725 88.5281 176.045C88.1654 175.365 87.9841 174.515 87.9841 173.495C87.9841 172.475 88.1597 171.625 88.5111 170.945C88.8737 170.265 89.3611 169.755 89.9731 169.415C90.5964 169.075 91.2934 168.905 92.0641 168.905C92.9481 168.905 93.7301 169.098 94.4101 169.483C95.0901 169.868 95.6284 170.407 96.0251 171.098C96.4217 171.778 96.6201 172.577 96.6201 173.495C96.6201 174.413 96.4217 175.218 96.0251 175.909C95.6284 176.6 95.0901 177.139 94.4101 177.524C93.7301 177.909 92.9481 178.102 92.0641 178.102ZM87.2871 181.298V168.99H88.8511V171.421L88.7491 173.512L88.9191 175.603V181.298H87.2871ZM91.9281 176.674C92.5061 176.674 93.0217 176.544 93.4751 176.283C93.9397 176.022 94.3024 175.654 94.5631 175.178C94.8351 174.691 94.9711 174.13 94.9711 173.495C94.9711 172.849 94.8351 172.294 94.5631 171.829C94.3024 171.353 93.9397 170.985 93.4751 170.724C93.0217 170.463 92.5061 170.333 91.9281 170.333C91.3614 170.333 90.8457 170.463 90.3811 170.724C89.9277 170.985 89.5651 171.353 89.2931 171.829C89.0324 172.294 88.9021 172.849 88.9021 173.495C88.9021 174.13 89.0324 174.691 89.2931 175.178C89.5651 175.654 89.9277 176.022 90.3811 176.283C90.8457 176.544 91.3614 176.674 91.9281 176.674ZM103.003 178.102C102.04 178.102 101.19 177.904 100.453 177.507C99.7278 177.11 99.1612 176.566 98.7532 175.875C98.3565 175.184 98.1582 174.39 98.1582 173.495C98.1582 172.6 98.3508 171.806 98.7362 171.115C99.1328 170.424 99.6712 169.885 100.351 169.5C101.042 169.103 101.819 168.905 102.68 168.905C103.553 168.905 104.323 169.098 104.992 169.483C105.661 169.868 106.182 170.412 106.556 171.115C106.941 171.806 107.134 172.617 107.134 173.546C107.134 173.614 107.128 173.693 107.117 173.784C107.117 173.875 107.111 173.96 107.1 174.039H99.4332V172.866H106.25L105.587 173.274C105.598 172.696 105.479 172.18 105.23 171.727C104.981 171.274 104.635 170.922 104.193 170.673C103.762 170.412 103.258 170.282 102.68 170.282C102.113 170.282 101.609 170.412 101.167 170.673C100.725 170.922 100.379 171.279 100.13 171.744C99.8808 172.197 99.7562 172.719 99.7562 173.308V173.58C99.7562 174.181 99.8922 174.719 100.164 175.195C100.447 175.66 100.838 176.022 101.337 176.283C101.836 176.544 102.408 176.674 103.054 176.674C103.587 176.674 104.068 176.583 104.499 176.402C104.941 176.221 105.326 175.949 105.655 175.586L106.556 176.64C106.148 177.116 105.638 177.479 105.026 177.728C104.425 177.977 103.751 178.102 103.003 178.102ZM109.666 178V168.99H116.296V170.418H110.907L111.298 170.044V178H109.666ZM117.967 178V168.99H119.599V175.552L125.124 168.99H126.603V178H124.971V171.438L119.463 178H117.967ZM133.697 178.102C132.779 178.102 131.958 177.904 131.232 177.507C130.518 177.11 129.957 176.566 129.549 175.875C129.141 175.184 128.937 174.39 128.937 173.495C128.937 172.6 129.141 171.806 129.549 171.115C129.957 170.424 130.518 169.885 131.232 169.5C131.958 169.103 132.779 168.905 133.697 168.905C134.513 168.905 135.239 169.069 135.873 169.398C136.519 169.715 137.018 170.191 137.369 170.826L136.128 171.625C135.834 171.183 135.471 170.86 135.04 170.656C134.621 170.441 134.168 170.333 133.68 170.333C133.091 170.333 132.564 170.463 132.099 170.724C131.635 170.985 131.266 171.353 130.994 171.829C130.722 172.294 130.586 172.849 130.586 173.495C130.586 174.141 130.722 174.702 130.994 175.178C131.266 175.654 131.635 176.022 132.099 176.283C132.564 176.544 133.091 176.674 133.68 176.674C134.168 176.674 134.621 176.572 135.04 176.368C135.471 176.153 135.834 175.824 136.128 175.382L137.369 176.164C137.018 176.787 136.519 177.269 135.873 177.609C135.239 177.938 134.513 178.102 133.697 178.102ZM141.151 178V169.993L141.559 170.418H137.853V168.99H146.081V170.418H142.392L142.783 169.993V178H141.151ZM152.527 178.102C151.779 178.102 151.093 177.932 150.47 177.592C149.858 177.241 149.365 176.725 148.991 176.045C148.628 175.365 148.447 174.515 148.447 173.495C148.447 172.475 148.623 171.625 148.974 170.945C149.337 170.265 149.824 169.755 150.436 169.415C151.059 169.075 151.756 168.905 152.527 168.905C153.411 168.905 154.193 169.098 154.873 169.483C155.553 169.868 156.091 170.407 156.488 171.098C156.885 171.778 157.083 172.577 157.083 173.495C157.083 174.413 156.885 175.218 156.488 175.909C156.091 176.6 155.553 177.139 154.873 177.524C154.193 177.909 153.411 178.102 152.527 178.102ZM147.75 181.298V168.99H149.314V171.421L149.212 173.512L149.382 175.603V181.298H147.75ZM152.391 176.674C152.969 176.674 153.485 176.544 153.938 176.283C154.403 176.022 154.765 175.654 155.026 175.178C155.298 174.691 155.434 174.13 155.434 173.495C155.434 172.849 155.298 172.294 155.026 171.829C154.765 171.353 154.403 170.985 153.938 170.724C153.485 170.463 152.969 170.333 152.391 170.333C151.824 170.333 151.309 170.463 150.844 170.724C150.391 170.985 150.028 171.353 149.756 171.829C149.495 172.294 149.365 172.849 149.365 173.495C149.365 174.13 149.495 174.691 149.756 175.178C150.028 175.654 150.391 176.022 150.844 176.283C151.309 176.544 151.824 176.674 152.391 176.674ZM164.896 178V176.096L164.811 175.739V172.492C164.811 171.801 164.607 171.268 164.199 170.894C163.802 170.509 163.202 170.316 162.397 170.316C161.864 170.316 161.343 170.407 160.833 170.588C160.323 170.758 159.892 170.99 159.541 171.285L158.861 170.061C159.326 169.687 159.881 169.404 160.527 169.211C161.184 169.007 161.87 168.905 162.584 168.905C163.819 168.905 164.771 169.205 165.44 169.806C166.109 170.407 166.443 171.325 166.443 172.56V178H164.896ZM161.938 178.102C161.269 178.102 160.68 177.989 160.17 177.762C159.671 177.535 159.286 177.224 159.014 176.827C158.742 176.419 158.606 175.96 158.606 175.45C158.606 174.963 158.719 174.521 158.946 174.124C159.184 173.727 159.564 173.41 160.085 173.172C160.618 172.934 161.332 172.815 162.227 172.815H165.083V173.988H162.295C161.479 173.988 160.929 174.124 160.646 174.396C160.363 174.668 160.221 174.997 160.221 175.382C160.221 175.824 160.397 176.181 160.748 176.453C161.099 176.714 161.587 176.844 162.21 176.844C162.822 176.844 163.355 176.708 163.808 176.436C164.273 176.164 164.607 175.767 164.811 175.246L165.134 176.368C164.919 176.901 164.539 177.326 163.995 177.643C163.451 177.949 162.765 178.102 161.938 178.102ZM169.382 178V168.99H171.014V176.572H175.944V168.99H177.576V178H169.382ZM177.457 180.091V177.915L177.865 178H175.944V176.572H179.004V180.091H177.457ZM181.119 178V168.99H182.751V175.552L188.276 168.99H189.755V178H188.123V171.438L182.615 178H181.119ZM192.923 178V168.99H194.555V172.679H197.275V174.192H194.555V178H192.923ZM200.896 178.102C200.012 178.102 199.224 177.904 198.533 177.507C197.853 177.11 197.314 176.566 196.918 175.875C196.521 175.172 196.323 174.379 196.323 173.495C196.323 172.6 196.521 171.806 196.918 171.115C197.314 170.412 197.853 169.868 198.533 169.483C199.224 169.098 200.012 168.905 200.896 168.905C201.768 168.905 202.55 169.098 203.242 169.483C203.933 169.868 204.477 170.412 204.874 171.115C205.27 171.806 205.469 172.6 205.469 173.495C205.469 174.39 205.27 175.184 204.874 175.875C204.477 176.566 203.933 177.11 203.242 177.507C202.55 177.904 201.768 178.102 200.896 178.102ZM200.896 176.674C201.462 176.674 201.967 176.544 202.409 176.283C202.851 176.011 203.202 175.643 203.463 175.178C203.723 174.702 203.854 174.141 203.854 173.495C203.854 172.849 203.723 172.294 203.463 171.829C203.202 171.353 202.851 170.985 202.409 170.724C201.967 170.463 201.462 170.333 200.896 170.333C200.34 170.333 199.836 170.463 199.383 170.724C198.941 170.985 198.589 171.353 198.329 171.829C198.068 172.294 197.938 172.849 197.938 173.495C197.938 174.141 198.068 174.702 198.329 175.178C198.589 175.643 198.941 176.011 199.383 176.283C199.836 176.544 200.34 176.674 200.896 176.674ZM22.106 199V197.096L22.021 196.739V193.492C22.021 192.801 21.817 192.268 21.409 191.894C21.0123 191.509 20.4117 191.316 19.607 191.316C19.0743 191.316 18.553 191.407 18.043 191.588C17.533 191.758 17.1023 191.99 16.751 192.285L16.071 191.061C16.5357 190.687 17.091 190.404 17.737 190.211C18.3943 190.007 19.08 189.905 19.794 189.905C21.0293 189.905 21.9813 190.205 22.65 190.806C23.3187 191.407 23.653 192.325 23.653 193.56V199H22.106ZM19.148 199.102C18.4793 199.102 17.89 198.989 17.38 198.762C16.8813 198.535 16.496 198.224 16.224 197.827C15.952 197.419 15.816 196.96 15.816 196.45C15.816 195.963 15.9293 195.521 16.156 195.124C16.394 194.727 16.7737 194.41 17.295 194.172C17.8277 193.934 18.5417 193.815 19.437 193.815H22.293V194.988H19.505C18.689 194.988 18.1393 195.124 17.856 195.396C17.5727 195.668 17.431 195.997 17.431 196.382C17.431 196.824 17.6067 197.181 17.958 197.453C18.3093 197.714 18.7967 197.844 19.42 197.844C20.032 197.844 20.5647 197.708 21.018 197.436C21.4827 197.164 21.817 196.767 22.021 196.246L22.344 197.368C22.1287 197.901 21.749 198.326 21.205 198.643C20.661 198.949 19.9753 199.102 19.148 199.102ZM26.5917 199V189.99H30.7737C31.8277 189.99 32.6551 190.194 33.2557 190.602C33.8677 190.999 34.1737 191.565 34.1737 192.302C34.1737 193.039 33.8847 193.611 33.3067 194.019C32.7401 194.416 31.9864 194.614 31.0457 194.614L31.3007 194.172C32.3774 194.172 33.1764 194.37 33.6977 194.767C34.2191 195.164 34.4797 195.747 34.4797 196.518C34.4797 197.3 34.1851 197.912 33.5957 198.354C33.0177 198.785 32.1281 199 30.9267 199H26.5917ZM28.1897 197.742H30.8077C31.4877 197.742 31.9977 197.64 32.3377 197.436C32.6777 197.221 32.8477 196.881 32.8477 196.416C32.8477 195.94 32.6891 195.594 32.3717 195.379C32.0657 195.152 31.5784 195.039 30.9097 195.039H28.1897V197.742ZM28.1897 193.866H30.6377C31.2611 193.866 31.7314 193.753 32.0487 193.526C32.3774 193.288 32.5417 192.959 32.5417 192.54C32.5417 192.109 32.3774 191.786 32.0487 191.571C31.7314 191.356 31.2611 191.248 30.6377 191.248H28.1897V193.866ZM38.8191 199V190.993L39.2271 191.418H35.5211V189.99H43.7491V191.418H40.0601L40.4511 190.993V199H38.8191ZM48.8785 199.102C47.9718 199.102 47.1671 198.904 46.4645 198.507C45.7618 198.11 45.2065 197.566 44.7985 196.875C44.3905 196.172 44.1865 195.379 44.1865 194.495C44.1865 193.6 44.3905 192.806 44.7985 192.115C45.2065 191.424 45.7618 190.885 46.4645 190.5C47.1671 190.103 47.9718 189.905 48.8785 189.905C49.7738 189.905 50.5728 190.103 51.2755 190.5C51.9895 190.885 52.5448 191.424 52.9415 192.115C53.3495 192.795 53.5535 193.588 53.5535 194.495C53.5535 195.39 53.3495 196.184 52.9415 196.875C52.5448 197.566 51.9895 198.11 51.2755 198.507C50.5728 198.904 49.7738 199.102 48.8785 199.102ZM48.8785 197.674C49.4565 197.674 49.9721 197.544 50.4255 197.283C50.8901 197.022 51.2528 196.654 51.5135 196.178C51.7741 195.691 51.9045 195.13 51.9045 194.495C51.9045 193.849 51.7741 193.294 51.5135 192.829C51.2528 192.353 50.8901 191.985 50.4255 191.724C49.9721 191.463 49.4565 191.333 48.8785 191.333C48.3005 191.333 47.7848 191.463 47.3315 191.724C46.8781 191.985 46.5155 192.353 46.2435 192.829C45.9715 193.294 45.8355 193.849 45.8355 194.495C45.8355 195.13 45.9715 195.691 46.2435 196.178C46.5155 196.654 46.8781 197.022 47.3315 197.283C47.7848 197.544 48.3005 197.674 48.8785 197.674ZM55.9101 199V189.99H57.5931L61.4691 196.654H60.7891L64.7671 189.99H66.2971V199H64.8181V191.826L65.0901 191.979L61.4521 197.98H60.7381L57.0831 191.86L57.4061 191.792V199H55.9101ZM73.3326 199.102C72.4259 199.102 71.6212 198.904 70.9186 198.507C70.2159 198.11 69.6606 197.566 69.2526 196.875C68.8446 196.172 68.6406 195.379 68.6406 194.495C68.6406 193.6 68.8446 192.806 69.2526 192.115C69.6606 191.424 70.2159 190.885 70.9186 190.5C71.6212 190.103 72.4259 189.905 73.3326 189.905C74.2279 189.905 75.0269 190.103 75.7296 190.5C76.4436 190.885 76.9989 191.424 77.3956 192.115C77.8036 192.795 78.0076 193.588 78.0076 194.495C78.0076 195.39 77.8036 196.184 77.3956 196.875C76.9989 197.566 76.4436 198.11 75.7296 198.507C75.0269 198.904 74.2279 199.102 73.3326 199.102ZM73.3326 197.674C73.9106 197.674 74.4262 197.544 74.8796 197.283C75.3442 197.022 75.7069 196.654 75.9676 196.178C76.2282 195.691 76.3586 195.13 76.3586 194.495C76.3586 193.849 76.2282 193.294 75.9676 192.829C75.7069 192.353 75.3442 191.985 74.8796 191.724C74.4262 191.463 73.9106 191.333 73.3326 191.333C72.7546 191.333 72.2389 191.463 71.7856 191.724C71.3322 191.985 70.9696 192.353 70.6976 192.829C70.4256 193.294 70.2896 193.849 70.2896 194.495C70.2896 195.13 70.4256 195.691 70.6976 196.178C70.9696 196.654 71.3322 197.022 71.7856 197.283C72.2389 197.544 72.7546 197.674 73.3326 197.674ZM84.5292 199.136C83.7812 199.136 83.1182 199.017 82.5402 198.779C81.9735 198.541 81.4862 198.19 81.0782 197.725C80.6702 197.249 80.3585 196.654 80.1432 195.94C79.9392 195.215 79.8372 194.365 79.8372 193.39C79.8372 192.619 79.9052 191.928 80.0412 191.316C80.1772 190.704 80.3699 190.16 80.6192 189.684C80.8799 189.208 81.1972 188.794 81.5712 188.443C81.9565 188.092 82.3872 187.803 82.8632 187.576C83.3505 187.338 83.8832 187.157 84.4612 187.032L88.5752 186.114L88.8132 187.627L85.0222 188.443C84.7955 188.488 84.5235 188.556 84.2062 188.647C83.8889 188.738 83.5659 188.879 83.2372 189.072C82.9085 189.253 82.6025 189.508 82.3192 189.837C82.0359 190.166 81.8092 190.596 81.6392 191.129C81.4692 191.65 81.3842 192.296 81.3842 193.067C81.3842 193.282 81.3899 193.447 81.4012 193.56C81.4125 193.673 81.4239 193.787 81.4352 193.9C81.4579 194.013 81.4749 194.183 81.4862 194.41L80.8062 193.713C80.9875 193.09 81.2765 192.546 81.6732 192.081C82.0699 191.616 82.5459 191.259 83.1012 191.01C83.6679 190.749 84.2855 190.619 84.9542 190.619C85.7929 190.619 86.5352 190.8 87.1812 191.163C87.8385 191.526 88.3542 192.024 88.7282 192.659C89.1022 193.294 89.2892 194.019 89.2892 194.835C89.2892 195.662 89.0909 196.405 88.6942 197.062C88.3089 197.708 87.7592 198.218 87.0452 198.592C86.3312 198.955 85.4925 199.136 84.5292 199.136ZM84.6822 197.776C85.2602 197.776 85.7702 197.651 86.2122 197.402C86.6542 197.141 86.9999 196.796 87.2492 196.365C87.4985 195.923 87.6232 195.43 87.6232 194.886C87.6232 194.342 87.4985 193.86 87.2492 193.441C86.9999 193.022 86.6542 192.693 86.2122 192.455C85.7702 192.206 85.2489 192.081 84.6482 192.081C84.0815 192.081 83.5715 192.2 83.1182 192.438C82.6649 192.665 82.3135 192.988 82.0642 193.407C81.8149 193.815 81.6902 194.291 81.6902 194.835C81.6902 195.379 81.8149 195.878 82.0642 196.331C82.3249 196.773 82.6762 197.124 83.1182 197.385C83.5715 197.646 84.0929 197.776 84.6822 197.776ZM91.6201 199V189.99H93.2521V196.552L98.7771 189.99H100.256V199H98.6241V192.438L93.1161 199H91.6201ZM101.928 198.983L102.03 197.606C102.109 197.617 102.183 197.629 102.251 197.64C102.319 197.651 102.381 197.657 102.438 197.657C102.8 197.657 103.084 197.532 103.288 197.283C103.503 197.034 103.662 196.705 103.764 196.297C103.866 195.878 103.939 195.407 103.985 194.886C104.03 194.365 104.064 193.843 104.087 193.322L104.24 189.99H111.159V199H109.527V190.942L109.918 191.418H105.294L105.668 190.925L105.549 193.424C105.515 194.217 105.452 194.96 105.362 195.651C105.271 196.342 105.129 196.949 104.937 197.47C104.755 197.991 104.5 198.399 104.172 198.694C103.854 198.989 103.441 199.136 102.931 199.136C102.783 199.136 102.625 199.119 102.455 199.085C102.296 199.062 102.12 199.028 101.928 198.983ZM120.077 199V195.838L120.332 196.144H117.459C116.258 196.144 115.317 195.889 114.637 195.379C113.969 194.869 113.634 194.127 113.634 193.152C113.634 192.109 113.991 191.322 114.705 190.789C115.431 190.256 116.394 189.99 117.595 189.99H121.539V199H120.077ZM113.549 199L115.997 195.549H117.68L115.3 199H113.549ZM120.077 195.328V190.959L120.332 191.418H117.646C116.898 191.418 116.32 191.56 115.912 191.843C115.504 192.115 115.3 192.568 115.3 193.203C115.3 194.382 116.06 194.971 117.578 194.971H120.332L120.077 195.328ZM125.081 199.102C124.763 199.102 124.491 198.994 124.265 198.779C124.038 198.552 123.925 198.269 123.925 197.929C123.925 197.589 124.038 197.311 124.265 197.096C124.491 196.881 124.763 196.773 125.081 196.773C125.387 196.773 125.647 196.881 125.863 197.096C126.089 197.311 126.203 197.589 126.203 197.929C126.203 198.269 126.089 198.552 125.863 198.779C125.647 198.994 125.387 199.102 125.081 199.102Z" fill="#434343"/>
</svg>
