<svg width="260" height="260" viewBox="0 0 260 260" fill="none" xmlns="http://www.w3.org/2000/svg">
<path d="M0 50C0 26.4298 0 14.6447 7.32233 7.32233C14.6447 0 26.4298 0 50 0H222.02C222.232 0 222.339 0 222.411 0.00263821C225.426 0.112163 227.239 3.39119 225.729 6.00223C225.693 6.06513 225.636 6.15524 225.523 6.33547C224.509 7.95089 224.002 8.75859 223.784 9.14281C214.265 25.9084 231.642 45.11 249.272 37.3059C249.676 37.127 250.53 36.7029 252.238 35.8545L253.875 35.0416C254.178 34.8911 254.33 34.8158 254.442 34.7684C256.984 33.6933 259.825 35.4547 259.993 38.2095C260 38.3309 260 38.5001 260 38.8385V210C260 233.57 260 245.355 252.678 252.678C245.355 260 233.57 260 210 260H50C26.4298 260 14.6447 260 7.32233 252.678C0 245.355 0 233.57 0 210V50Z" fill="#F3F5F7"/>
<mask id="mask0_19_14" style="mask-type:alpha" maskUnits="userSpaceOnUse" x="0" y="0" width="260" height="260">
<path d="M0 50C0 26.4298 0 14.6447 7.32233 7.32233C14.6447 0 26.4298 0 50 0H222.02C222.232 0 222.339 0 222.411 0.00263821C225.426 0.112163 227.239 3.39119 225.729 6.00223C225.693 6.06513 225.636 6.15524 225.523 6.33547C224.509 7.95089 224.002 8.75859 223.784 9.14281C214.265 25.9084 231.642 45.11 249.272 37.3059C249.676 37.127 250.53 36.7029 252.238 35.8545L253.875 35.0416C254.178 34.8911 254.33 34.8158 254.442 34.7684C256.984 33.6933 259.825 35.4547 259.993 38.2095C260 38.3309 260 38.5001 260 38.8385V210C260 233.57 260 245.355 252.678 252.678C245.355 260 233.57 260 210 260H50C26.4298 260 14.6447 260 7.32233 252.678C0 245.355 0 233.57 0 210V50Z" fill="#F3F5F7"/>
</mask>
<g mask="url(#mask0_19_14)">
<path d="M-0.959999 110.84C-8.4 110.84 -15 109.12 -20.76 105.68C-26.44 102.24 -30.92 97.24 -34.2 90.68C-37.4 84.12 -39 76.2 -39 66.92C-39 57.64 -37.4 49.72 -34.2 43.16C-30.92 36.6 -26.44 31.6 -20.76 28.16C-15 24.72 -8.4 23 -0.959999 23C6.48 23 13.04 24.72 18.72 28.16C24.48 31.6 28.96 36.6 32.16 43.16C35.44 49.72 37.08 57.64 37.08 66.92C37.08 76.2 35.44 84.12 32.16 90.68C28.96 97.24 24.48 102.24 18.72 105.68C13.04 109.12 6.48 110.84 -0.959999 110.84ZM-0.959999 88.16C0.880001 88.16 2.52 87.52 3.96 86.24C5.4 84.96 6.52 82.76 7.32 79.64C8.2 76.52 8.64 72.28 8.64 66.92C8.64 61.48 8.2 57.24 7.32 54.2C6.52 51.08 5.4 48.88 3.96 47.6C2.52 46.32 0.880001 45.68 -0.959999 45.68C-2.8 45.68 -4.44 46.32 -5.88 47.6C-7.32 48.88 -8.48 51.08 -9.36 54.2C-10.16 57.24 -10.56 61.48 -10.56 66.92C-10.56 72.28 -10.16 76.52 -9.36 79.64C-8.48 82.76 -7.32 84.96 -5.88 86.24C-4.44 87.52 -2.8 88.16 -0.959999 88.16Z" fill="#00AAFF" fill-opacity="0.1"/>
<path d="M76.1259 23C84.1259 23 91.1259 24.56 97.1259 27.68C103.206 30.72 107.926 35.28 111.286 41.36C114.726 47.44 116.446 55.08 116.446 64.28C116.446 74.12 114.486 82.52 110.566 89.48C106.646 96.36 101.206 101.64 94.2459 105.32C87.2859 109 79.1659 110.84 69.8859 110.84C64.9259 110.84 60.1259 110.24 55.4859 109.04C50.9259 107.92 47.0459 106.32 43.8459 104.24L54.0459 84.44C56.5259 86.2 59.0059 87.4 61.4859 88.04C64.0459 88.6 66.6459 88.88 69.2859 88.88C74.9659 88.88 79.4859 87.2 82.8459 83.84C86.2859 80.4 88.0059 75.44 88.0059 68.96C88.0059 67.76 88.0059 66.6 88.0059 65.48C88.0059 64.28 88.0059 63.08 88.0059 61.88L94.4859 66.56C92.9659 69.28 91.0859 71.6 88.8459 73.52C86.6859 75.36 84.1259 76.8 81.1659 77.84C78.2059 78.8 74.7659 79.28 70.8459 79.28C65.7259 79.28 60.9659 78.2 56.5659 76.04C52.2459 73.8 48.7259 70.68 46.0059 66.68C43.3659 62.6 42.0459 57.84 42.0459 52.4C42.0459 46.4 43.5659 41.2 46.6059 36.8C49.6459 32.4 53.7259 29 58.8459 26.6C64.0459 24.2 69.8059 23 76.1259 23ZM78.0459 42.56C76.3659 42.56 74.8859 42.92 73.6059 43.64C72.3259 44.28 71.2859 45.24 70.4859 46.52C69.7659 47.8 69.4059 49.32 69.4059 51.08C69.4059 53.72 70.2059 55.84 71.8059 57.44C73.4859 58.96 75.5659 59.72 78.0459 59.72C79.7259 59.72 81.2059 59.36 82.4859 58.64C83.8459 57.92 84.8859 56.92 85.6059 55.64C86.3259 54.36 86.6859 52.84 86.6859 51.08C86.6859 49.32 86.3259 47.8 85.6059 46.52C84.8859 45.24 83.8459 44.28 82.4859 43.64C81.2059 42.92 79.7259 42.56 78.0459 42.56Z" fill="#00AAFF" fill-opacity="0.1"/>
</g>
<circle cx="242.5" cy="17.5" r="17.5" fill="#F3F5F7"/>
<path d="M235 18.25H250M250 18.25L243 11M250 18.25L243 25" stroke="#00AAFF" stroke-width="2" stroke-linecap="round" stroke-linejoin="round"/>
<path d="M16.853 178V166.1H21.97C23.262 166.1 24.2763 166.361 25.013 166.882C25.7497 167.403 26.118 168.163 26.118 169.16C26.118 170.135 25.7667 170.883 25.064 171.404C24.3613 171.914 23.4377 172.169 22.293 172.169L22.599 171.659C23.925 171.659 24.9393 171.925 25.642 172.458C26.356 172.979 26.713 173.744 26.713 174.753C26.713 175.773 26.339 176.572 25.591 177.15C24.8543 177.717 23.755 178 22.293 178H16.853ZM18.536 176.657H22.259C23.1657 176.657 23.8457 176.493 24.299 176.164C24.7637 175.824 24.996 175.308 24.996 174.617C24.996 173.926 24.7637 173.421 24.299 173.104C23.8457 172.787 23.1657 172.628 22.259 172.628H18.536V176.657ZM18.536 171.336H21.851C22.6783 171.336 23.3073 171.172 23.738 170.843C24.18 170.514 24.401 170.033 24.401 169.398C24.401 168.752 24.18 168.265 23.738 167.936C23.3073 167.607 22.6783 167.443 21.851 167.443H18.536V171.336ZM38.1892 178V168.99H39.8212V178H38.1892ZM33.3442 172.05C34.4889 172.061 35.3559 172.322 35.9452 172.832C36.5459 173.342 36.8462 174.062 36.8462 174.991C36.8462 175.966 36.5175 176.719 35.8602 177.252C35.2142 177.773 34.2849 178.028 33.0722 178.017L29.2812 178V168.99H30.9132V172.033L33.3442 172.05ZM32.9532 176.776C33.6785 176.787 34.2339 176.64 34.6192 176.334C35.0045 176.028 35.1972 175.575 35.1972 174.974C35.1972 174.385 35.0045 173.954 34.6192 173.682C34.2452 173.41 33.6899 173.268 32.9532 173.257L30.9132 173.223V176.759L32.9532 176.776ZM51.4865 178.102C50.5685 178.102 49.7468 177.904 49.0215 177.507C48.3075 177.11 47.7465 176.566 47.3385 175.875C46.9305 175.184 46.7265 174.39 46.7265 173.495C46.7265 172.6 46.9305 171.806 47.3385 171.115C47.7465 170.424 48.3075 169.885 49.0215 169.5C49.7468 169.103 50.5685 168.905 51.4865 168.905C52.3025 168.905 53.0278 169.069 53.6625 169.398C54.3085 169.715 54.8072 170.191 55.1585 170.826L53.9175 171.625C53.6228 171.183 53.2602 170.86 52.8295 170.656C52.4102 170.441 51.9568 170.333 51.4695 170.333C50.8802 170.333 50.3532 170.463 49.8885 170.724C49.4238 170.985 49.0555 171.353 48.7835 171.829C48.5115 172.294 48.3755 172.849 48.3755 173.495C48.3755 174.141 48.5115 174.702 48.7835 175.178C49.0555 175.654 49.4238 176.022 49.8885 176.283C50.3532 176.544 50.8802 176.674 51.4695 176.674C51.9568 176.674 52.4102 176.572 52.8295 176.368C53.2602 176.153 53.6228 175.824 53.9175 175.382L55.1585 176.164C54.8072 176.787 54.3085 177.269 53.6625 177.609C53.0278 177.938 52.3025 178.102 51.4865 178.102ZM58.9402 178V169.993L59.3482 170.418H55.6422V168.99H63.8702V170.418H60.1812L60.5722 169.993V178H58.9402ZM71.064 178V176.096L70.979 175.739V172.492C70.979 171.801 70.775 171.268 70.367 170.894C69.9703 170.509 69.3697 170.316 68.565 170.316C68.0323 170.316 67.511 170.407 67.001 170.588C66.491 170.758 66.0603 170.99 65.709 171.285L65.029 170.061C65.4937 169.687 66.049 169.404 66.695 169.211C67.3523 169.007 68.038 168.905 68.752 168.905C69.9873 168.905 70.9393 169.205 71.608 169.806C72.2767 170.407 72.611 171.325 72.611 172.56V178H71.064ZM68.106 178.102C67.4373 178.102 66.848 177.989 66.338 177.762C65.8393 177.535 65.454 177.224 65.182 176.827C64.91 176.419 64.774 175.96 64.774 175.45C64.774 174.963 64.8873 174.521 65.114 174.124C65.352 173.727 65.7317 173.41 66.253 173.172C66.7857 172.934 67.4997 172.815 68.395 172.815H71.251V173.988H68.463C67.647 173.988 67.0973 174.124 66.814 174.396C66.5307 174.668 66.389 174.997 66.389 175.382C66.389 175.824 66.5647 176.181 66.916 176.453C67.2673 176.714 67.7547 176.844 68.378 176.844C68.99 176.844 69.5227 176.708 69.976 176.436C70.4407 176.164 70.775 175.767 70.979 175.246L71.302 176.368C71.0867 176.901 70.707 177.326 70.163 177.643C69.619 177.949 68.9333 178.102 68.106 178.102ZM75.5498 178V168.99H77.1818V172.815H82.3158V168.99H83.9478V178H82.3158V174.226H77.1818V178H75.5498ZM90.98 178.102C90.0734 178.102 89.2687 177.904 88.566 177.507C87.8634 177.11 87.308 176.566 86.9 175.875C86.492 175.172 86.288 174.379 86.288 173.495C86.288 172.6 86.492 171.806 86.9 171.115C87.308 170.424 87.8634 169.885 88.566 169.5C89.2687 169.103 90.0734 168.905 90.98 168.905C91.8754 168.905 92.6744 169.103 93.377 169.5C94.091 169.885 94.6464 170.424 95.043 171.115C95.451 171.795 95.655 172.588 95.655 173.495C95.655 174.39 95.451 175.184 95.043 175.875C94.6464 176.566 94.091 177.11 93.377 177.507C92.6744 177.904 91.8754 178.102 90.98 178.102ZM90.98 176.674C91.558 176.674 92.0737 176.544 92.527 176.283C92.9917 176.022 93.3544 175.654 93.615 175.178C93.8757 174.691 94.006 174.13 94.006 173.495C94.006 172.849 93.8757 172.294 93.615 171.829C93.3544 171.353 92.9917 170.985 92.527 170.724C92.0737 170.463 91.558 170.333 90.98 170.333C90.402 170.333 89.8864 170.463 89.433 170.724C88.9797 170.985 88.617 171.353 88.345 171.829C88.073 172.294 87.937 172.849 87.937 173.495C87.937 174.13 88.073 174.691 88.345 175.178C88.617 175.654 88.9797 176.022 89.433 176.283C89.8864 176.544 90.402 176.674 90.98 176.674ZM98.0117 178V168.99H102.194C103.248 168.99 104.075 169.194 104.676 169.602C105.288 169.999 105.594 170.565 105.594 171.302C105.594 172.039 105.305 172.611 104.727 173.019C104.16 173.416 103.406 173.614 102.466 173.614L102.721 173.172C103.797 173.172 104.596 173.37 105.118 173.767C105.639 174.164 105.9 174.747 105.9 175.518C105.9 176.3 105.605 176.912 105.016 177.354C104.438 177.785 103.548 178 102.347 178H98.0117ZM99.6097 176.742H102.228C102.908 176.742 103.418 176.64 103.758 176.436C104.098 176.221 104.268 175.881 104.268 175.416C104.268 174.94 104.109 174.594 103.792 174.379C103.486 174.152 102.998 174.039 102.33 174.039H99.6097V176.742ZM99.6097 172.866H102.058C102.681 172.866 103.151 172.753 103.469 172.526C103.797 172.288 103.962 171.959 103.962 171.54C103.962 171.109 103.797 170.786 103.469 170.571C103.151 170.356 102.681 170.248 102.058 170.248H99.6097V172.866ZM108.454 178V168.99H110.086V175.552L115.611 168.99H117.09V178H115.458V171.438L109.95 178H108.454ZM122.043 178V169.993L122.451 170.418H118.745V168.99H126.973V170.418H123.284L123.675 169.993V178H122.043ZM132.255 178.102C131.292 178.102 130.442 177.904 129.705 177.507C128.98 177.11 128.413 176.566 128.005 175.875C127.608 175.184 127.41 174.39 127.41 173.495C127.41 172.6 127.603 171.806 127.988 171.115C128.385 170.424 128.923 169.885 129.603 169.5C130.294 169.103 131.071 168.905 131.932 168.905C132.805 168.905 133.575 169.098 134.244 169.483C134.913 169.868 135.434 170.412 135.808 171.115C136.193 171.806 136.386 172.617 136.386 173.546C136.386 173.614 136.38 173.693 136.369 173.784C136.369 173.875 136.363 173.96 136.352 174.039H128.685V172.866H135.502L134.839 173.274C134.85 172.696 134.731 172.18 134.482 171.727C134.233 171.274 133.887 170.922 133.445 170.673C133.014 170.412 132.51 170.282 131.932 170.282C131.365 170.282 130.861 170.412 130.419 170.673C129.977 170.922 129.631 171.279 129.382 171.744C129.133 172.197 129.008 172.719 129.008 173.308V173.58C129.008 174.181 129.144 174.719 129.416 175.195C129.699 175.66 130.09 176.022 130.589 176.283C131.088 176.544 131.66 176.674 132.306 176.674C132.839 176.674 133.32 176.583 133.751 176.402C134.193 176.221 134.578 175.949 134.907 175.586L135.808 176.64C135.4 177.116 134.89 177.479 134.278 177.728C133.677 177.977 133.003 178.102 132.255 178.102ZM142.845 178.102C141.927 178.102 141.105 177.904 140.38 177.507C139.666 177.11 139.105 176.566 138.697 175.875C138.289 175.184 138.085 174.39 138.085 173.495C138.085 172.6 138.289 171.806 138.697 171.115C139.105 170.424 139.666 169.885 140.38 169.5C141.105 169.103 141.927 168.905 142.845 168.905C143.661 168.905 144.386 169.069 145.021 169.398C145.667 169.715 146.166 170.191 146.517 170.826L145.276 171.625C144.981 171.183 144.619 170.86 144.188 170.656C143.769 170.441 143.315 170.333 142.828 170.333C142.239 170.333 141.712 170.463 141.247 170.724C140.782 170.985 140.414 171.353 140.142 171.829C139.87 172.294 139.734 172.849 139.734 173.495C139.734 174.141 139.87 174.702 140.142 175.178C140.414 175.654 140.782 176.022 141.247 176.283C141.712 176.544 142.239 176.674 142.828 176.674C143.315 176.674 143.769 176.572 144.188 176.368C144.619 176.153 144.981 175.824 145.276 175.382L146.517 176.164C146.166 176.787 145.667 177.269 145.021 177.609C144.386 177.938 143.661 178.102 142.845 178.102ZM152.795 172.05C153.939 172.061 154.812 172.322 155.413 172.832C156.013 173.342 156.314 174.062 156.314 174.991C156.314 175.966 155.985 176.719 155.328 177.252C154.67 177.773 153.741 178.028 152.54 178.017L148.63 178V168.99H150.262V172.033L152.795 172.05ZM152.404 176.776C153.14 176.787 153.696 176.64 154.07 176.334C154.455 176.028 154.648 175.575 154.648 174.974C154.648 174.385 154.461 173.954 154.087 173.682C153.713 173.41 153.152 173.268 152.404 173.257L150.262 173.223V176.759L152.404 176.776ZM19.216 199.119C20.0093 199.119 20.712 199.006 21.324 198.779C21.9473 198.541 22.4403 198.218 22.803 197.81C23.1657 197.391 23.347 196.909 23.347 196.365C23.347 195.685 23.058 195.147 22.48 194.75C21.902 194.353 21.1087 194.155 20.1 194.155L20.032 194.546C20.6213 194.546 21.1427 194.45 21.596 194.257C22.0493 194.064 22.412 193.804 22.684 193.475C22.956 193.135 23.092 192.75 23.092 192.319C23.092 191.809 22.9107 191.367 22.548 190.993C22.1967 190.619 21.715 190.336 21.103 190.143C20.491 189.939 19.794 189.848 19.012 189.871C18.4907 189.882 17.9637 189.962 17.431 190.109C16.9097 190.245 16.377 190.443 15.833 190.704L16.275 191.979C16.7623 191.741 17.2383 191.565 17.703 191.452C18.179 191.339 18.6437 191.276 19.097 191.265C19.5617 191.265 19.964 191.316 20.304 191.418C20.6553 191.52 20.9273 191.667 21.12 191.86C21.3127 192.053 21.409 192.285 21.409 192.557C21.409 192.806 21.324 193.027 21.154 193.22C20.9953 193.401 20.7687 193.537 20.474 193.628C20.1793 193.719 19.8337 193.764 19.437 193.764H17.907V194.937H19.539C20.2077 194.937 20.729 195.05 21.103 195.277C21.477 195.504 21.664 195.827 21.664 196.246C21.664 196.541 21.562 196.801 21.358 197.028C21.154 197.243 20.8593 197.413 20.474 197.538C20.1 197.663 19.6523 197.725 19.131 197.725C18.5643 197.725 18.0033 197.651 17.448 197.504C16.8927 197.345 16.3997 197.13 15.969 196.858L15.476 198.099C15.986 198.428 16.564 198.683 17.21 198.864C17.8673 199.034 18.536 199.119 19.216 199.119ZM31.3531 199V197.096L31.2681 196.739V193.492C31.2681 192.801 31.0641 192.268 30.6561 191.894C30.2594 191.509 29.6587 191.316 28.8541 191.316C28.3214 191.316 27.8001 191.407 27.2901 191.588C26.7801 191.758 26.3494 191.99 25.9981 192.285L25.3181 191.061C25.7827 190.687 26.3381 190.404 26.9841 190.211C27.6414 190.007 28.3271 189.905 29.0411 189.905C30.2764 189.905 31.2284 190.205 31.8971 190.806C32.5657 191.407 32.9001 192.325 32.9001 193.56V199H31.3531ZM28.3951 199.102C27.7264 199.102 27.1371 198.989 26.6271 198.762C26.1284 198.535 25.7431 198.224 25.4711 197.827C25.1991 197.419 25.0631 196.96 25.0631 196.45C25.0631 195.963 25.1764 195.521 25.4031 195.124C25.6411 194.727 26.0207 194.41 26.5421 194.172C27.0747 193.934 27.7887 193.815 28.6841 193.815H31.5401V194.988H28.7521C27.9361 194.988 27.3864 195.124 27.1031 195.396C26.8197 195.668 26.6781 195.997 26.6781 196.382C26.6781 196.824 26.8537 197.181 27.2051 197.453C27.5564 197.714 28.0437 197.844 28.6671 197.844C29.2791 197.844 29.8117 197.708 30.2651 197.436C30.7297 197.164 31.0641 196.767 31.2681 196.246L31.5911 197.368C31.3757 197.901 30.9961 198.326 30.4521 198.643C29.9081 198.949 29.2224 199.102 28.3951 199.102ZM42.3668 199L38.8818 194.614L40.2248 193.798L44.2878 199H42.3668ZM35.8388 199V189.99H37.4708V199H35.8388ZM36.9778 195.192V193.798H39.9528V195.192H36.9778ZM40.3608 194.682L38.8478 194.478L42.2988 189.99H44.0498L40.3608 194.682ZM49.5591 199.102C48.6525 199.102 47.8478 198.904 47.1451 198.507C46.4425 198.11 45.8871 197.566 45.4791 196.875C45.0711 196.172 44.8671 195.379 44.8671 194.495C44.8671 193.6 45.0711 192.806 45.4791 192.115C45.8871 191.424 46.4425 190.885 47.1451 190.5C47.8478 190.103 48.6525 189.905 49.5591 189.905C50.4545 189.905 51.2535 190.103 51.9561 190.5C52.6701 190.885 53.2255 191.424 53.6221 192.115C54.0301 192.795 54.2341 193.588 54.2341 194.495C54.2341 195.39 54.0301 196.184 53.6221 196.875C53.2255 197.566 52.6701 198.11 51.9561 198.507C51.2535 198.904 50.4545 199.102 49.5591 199.102ZM49.5591 197.674C50.1371 197.674 50.6528 197.544 51.1061 197.283C51.5708 197.022 51.9335 196.654 52.1941 196.178C52.4548 195.691 52.5851 195.13 52.5851 194.495C52.5851 193.849 52.4548 193.294 52.1941 192.829C51.9335 192.353 51.5708 191.985 51.1061 191.724C50.6528 191.463 50.1371 191.333 49.5591 191.333C48.9811 191.333 48.4655 191.463 48.0121 191.724C47.5588 191.985 47.1961 192.353 46.9241 192.829C46.6521 193.294 46.5161 193.849 46.5161 194.495C46.5161 195.13 46.6521 195.691 46.9241 196.178C47.1961 196.654 47.5588 197.022 48.0121 197.283C48.4655 197.544 48.9811 197.674 49.5591 197.674ZM56.5908 199V189.99H58.2228V193.815H63.3568V189.99H64.9888V199H63.3568V195.226H58.2228V199H56.5908ZM68.1621 199V189.99H69.7941V193.815H74.9281V189.99H76.5601V199H74.9281V195.226H69.7941V199H68.1621ZM88.6413 199V189.99H90.2733V199H88.6413ZM83.7963 193.05C84.941 193.061 85.808 193.322 86.3973 193.832C86.998 194.342 87.2983 195.062 87.2983 195.991C87.2983 196.966 86.9697 197.719 86.3123 198.252C85.6663 198.773 84.737 199.028 83.5243 199.017L79.7333 199V189.99H81.3653V193.033L83.7963 193.05ZM83.4053 197.776C84.1307 197.787 84.686 197.64 85.0713 197.334C85.4567 197.028 85.6493 196.575 85.6493 195.974C85.6493 195.385 85.4567 194.954 85.0713 194.682C84.6973 194.41 84.142 194.268 83.4053 194.257L81.3653 194.223V197.759L83.4053 197.776ZM93.4462 199V189.99H95.1292L99.0052 196.654H98.3252L102.303 189.99H103.833V199H102.354V191.826L102.626 191.979L98.9882 197.98H98.2742L94.6192 191.86L94.9422 191.792V199H93.4462ZM16.581 220V210.99H24.928V220H23.296V212.01L23.687 212.418H17.822L18.213 212.01V220H16.581ZM31.9449 220.102C31.0382 220.102 30.2335 219.904 29.5309 219.507C28.8282 219.11 28.2729 218.566 27.8649 217.875C27.4569 217.172 27.2529 216.379 27.2529 215.495C27.2529 214.6 27.4569 213.806 27.8649 213.115C28.2729 212.424 28.8282 211.885 29.5309 211.5C30.2335 211.103 31.0382 210.905 31.9449 210.905C32.8402 210.905 33.6392 211.103 34.3419 211.5C35.0559 211.885 35.6112 212.424 36.0079 213.115C36.4159 213.795 36.6199 214.588 36.6199 215.495C36.6199 216.39 36.4159 217.184 36.0079 217.875C35.6112 218.566 35.0559 219.11 34.3419 219.507C33.6392 219.904 32.8402 220.102 31.9449 220.102ZM31.9449 218.674C32.5229 218.674 33.0385 218.544 33.4919 218.283C33.9565 218.022 34.3192 217.654 34.5799 217.178C34.8405 216.691 34.9709 216.13 34.9709 215.495C34.9709 214.849 34.8405 214.294 34.5799 213.829C34.3192 213.353 33.9565 212.985 33.4919 212.724C33.0385 212.463 32.5229 212.333 31.9449 212.333C31.3669 212.333 30.8512 212.463 30.3979 212.724C29.9445 212.985 29.5819 213.353 29.3099 213.829C29.0379 214.294 28.9019 214.849 28.9019 215.495C28.9019 216.13 29.0379 216.691 29.3099 217.178C29.5819 217.654 29.9445 218.022 30.3979 218.283C30.8512 218.544 31.3669 218.674 31.9449 218.674ZM37.4141 219.983L37.5161 218.606C37.5954 218.617 37.6691 218.629 37.7371 218.64C37.8051 218.651 37.8674 218.657 37.9241 218.657C38.2868 218.657 38.5701 218.532 38.7741 218.283C38.9894 218.034 39.1481 217.705 39.2501 217.297C39.3521 216.878 39.4258 216.407 39.4711 215.886C39.5164 215.365 39.5504 214.843 39.5731 214.322L39.7261 210.99H46.6451V220H45.0131V211.942L45.4041 212.418H40.7801L41.1541 211.925L41.0351 214.424C41.0011 215.217 40.9388 215.96 40.8481 216.651C40.7574 217.342 40.6158 217.949 40.4231 218.47C40.2418 218.991 39.9868 219.399 39.6581 219.694C39.3408 219.989 38.9271 220.136 38.4171 220.136C38.2698 220.136 38.1111 220.119 37.9411 220.085C37.7824 220.062 37.6068 220.028 37.4141 219.983ZM53.9657 214.05C55.1104 214.061 55.9831 214.322 56.5837 214.832C57.1844 215.342 57.4847 216.062 57.4847 216.991C57.4847 217.966 57.1561 218.719 56.4987 219.252C55.8414 219.773 54.9121 220.028 53.7107 220.017L49.8007 220V210.99H51.4327V214.033L53.9657 214.05ZM53.5747 218.776C54.3114 218.787 54.8667 218.64 55.2407 218.334C55.6261 218.028 55.8187 217.575 55.8187 216.974C55.8187 216.385 55.6317 215.954 55.2577 215.682C54.8837 215.41 54.3227 215.268 53.5747 215.257L51.4327 215.223V218.759L53.5747 218.776ZM62.0812 220.119C62.8746 220.119 63.5772 220.006 64.1892 219.779C64.8126 219.541 65.3056 219.218 65.6682 218.81C66.0309 218.391 66.2122 217.909 66.2122 217.365C66.2122 216.685 65.9232 216.147 65.3452 215.75C64.7672 215.353 63.9739 215.155 62.9652 215.155L62.8972 215.546C63.4866 215.546 64.0079 215.45 64.4612 215.257C64.9146 215.064 65.2772 214.804 65.5492 214.475C65.8212 214.135 65.9572 213.75 65.9572 213.319C65.9572 212.809 65.7759 212.367 65.4132 211.993C65.0619 211.619 64.5802 211.336 63.9682 211.143C63.3562 210.939 62.6592 210.848 61.8772 210.871C61.3559 210.882 60.8289 210.962 60.2962 211.109C59.7749 211.245 59.2422 211.443 58.6982 211.704L59.1402 212.979C59.6276 212.741 60.1036 212.565 60.5682 212.452C61.0442 212.339 61.5089 212.276 61.9622 212.265C62.4269 212.265 62.8292 212.316 63.1692 212.418C63.5206 212.52 63.7926 212.667 63.9852 212.86C64.1779 213.053 64.2742 213.285 64.2742 213.557C64.2742 213.806 64.1892 214.027 64.0192 214.22C63.8606 214.401 63.6339 214.537 63.3392 214.628C63.0446 214.719 62.6989 214.764 62.3022 214.764H60.7722V215.937H62.4042C63.0729 215.937 63.5942 216.05 63.9682 216.277C64.3422 216.504 64.5292 216.827 64.5292 217.246C64.5292 217.541 64.4272 217.801 64.2232 218.028C64.0192 218.243 63.7246 218.413 63.3392 218.538C62.9652 218.663 62.5176 218.725 61.9962 218.725C61.4296 218.725 60.8686 218.651 60.3132 218.504C59.7579 218.345 59.2649 218.13 58.8342 217.858L58.3412 219.099C58.8512 219.428 59.4292 219.683 60.0752 219.864C60.7326 220.034 61.4012 220.119 62.0812 220.119ZM72.5523 220.102C71.6456 220.102 70.841 219.904 70.1383 219.507C69.4356 219.11 68.8803 218.566 68.4723 217.875C68.0643 217.172 67.8603 216.379 67.8603 215.495C67.8603 214.6 68.0643 213.806 68.4723 213.115C68.8803 212.424 69.4356 211.885 70.1383 211.5C70.841 211.103 71.6456 210.905 72.5523 210.905C73.4476 210.905 74.2466 211.103 74.9493 211.5C75.6633 211.885 76.2186 212.424 76.6153 213.115C77.0233 213.795 77.2273 214.588 77.2273 215.495C77.2273 216.39 77.0233 217.184 76.6153 217.875C76.2186 218.566 75.6633 219.11 74.9493 219.507C74.2466 219.904 73.4476 220.102 72.5523 220.102ZM72.5523 218.674C73.1303 218.674 73.646 218.544 74.0993 218.283C74.564 218.022 74.9266 217.654 75.1873 217.178C75.448 216.691 75.5783 216.13 75.5783 215.495C75.5783 214.849 75.448 214.294 75.1873 213.829C74.9266 213.353 74.564 212.985 74.0993 212.724C73.646 212.463 73.1303 212.333 72.5523 212.333C71.9743 212.333 71.4586 212.463 71.0053 212.724C70.552 212.985 70.1893 213.353 69.9173 213.829C69.6453 214.294 69.5093 214.849 69.5093 215.495C69.5093 216.13 69.6453 216.691 69.9173 217.178C70.1893 217.654 70.552 218.022 71.0053 218.283C71.4586 218.544 71.9743 218.674 72.5523 218.674ZM79.5839 220V210.99H83.7659C84.8199 210.99 85.6473 211.194 86.2479 211.602C86.8599 211.999 87.1659 212.565 87.1659 213.302C87.1659 214.039 86.8769 214.611 86.2989 215.019C85.7323 215.416 84.9786 215.614 84.0379 215.614L84.2929 215.172C85.3696 215.172 86.1686 215.37 86.6899 215.767C87.2113 216.164 87.4719 216.747 87.4719 217.518C87.4719 218.3 87.1773 218.912 86.5879 219.354C86.0099 219.785 85.1203 220 83.9189 220H79.5839ZM81.1819 218.742H83.7999C84.4799 218.742 84.9899 218.64 85.3299 218.436C85.6699 218.221 85.8399 217.881 85.8399 217.416C85.8399 216.94 85.6813 216.594 85.3639 216.379C85.0579 216.152 84.5706 216.039 83.9019 216.039H81.1819V218.742ZM81.1819 214.866H83.6299C84.2533 214.866 84.7236 214.753 85.0409 214.526C85.3696 214.288 85.5339 213.959 85.5339 213.54C85.5339 213.109 85.3696 212.786 85.0409 212.571C84.7236 212.356 84.2533 212.248 83.6299 212.248H81.1819V214.866ZM95.5513 220V218.096L95.4663 217.739V214.492C95.4663 213.801 95.2623 213.268 94.8543 212.894C94.4576 212.509 93.857 212.316 93.0523 212.316C92.5196 212.316 91.9983 212.407 91.4883 212.588C90.9783 212.758 90.5476 212.99 90.1963 213.285L89.5163 212.061C89.981 211.687 90.5363 211.404 91.1823 211.211C91.8396 211.007 92.5253 210.905 93.2393 210.905C94.4746 210.905 95.4266 211.205 96.0953 211.806C96.764 212.407 97.0983 213.325 97.0983 214.56V220H95.5513ZM92.5933 220.102C91.9246 220.102 91.3353 219.989 90.8253 219.762C90.3266 219.535 89.9413 219.224 89.6693 218.827C89.3973 218.419 89.2613 217.96 89.2613 217.45C89.2613 216.963 89.3746 216.521 89.6013 216.124C89.8393 215.727 90.219 215.41 90.7403 215.172C91.273 214.934 91.987 214.815 92.8823 214.815H95.7383V215.988H92.9503C92.1343 215.988 91.5846 216.124 91.3013 216.396C91.018 216.668 90.8763 216.997 90.8763 217.382C90.8763 217.824 91.052 218.181 91.4033 218.453C91.7546 218.714 92.242 218.844 92.8653 218.844C93.4773 218.844 94.01 218.708 94.4633 218.436C94.928 218.164 95.2623 217.767 95.4663 217.246L95.7893 218.368C95.574 218.901 95.1943 219.326 94.6503 219.643C94.1063 219.949 93.4206 220.102 92.5933 220.102ZM101.822 220V211.993L102.23 212.418H98.5241V210.99H106.752V212.418H103.063L103.454 211.993V220H101.822ZM112.034 220.102C111.071 220.102 110.221 219.904 109.484 219.507C108.759 219.11 108.192 218.566 107.784 217.875C107.388 217.184 107.189 216.39 107.189 215.495C107.189 214.6 107.382 213.806 107.767 213.115C108.164 212.424 108.702 211.885 109.382 211.5C110.074 211.103 110.85 210.905 111.711 210.905C112.584 210.905 113.355 211.098 114.023 211.483C114.692 211.868 115.213 212.412 115.587 213.115C115.973 213.806 116.165 214.617 116.165 215.546C116.165 215.614 116.16 215.693 116.148 215.784C116.148 215.875 116.143 215.96 116.131 216.039H108.464V214.866H115.281L114.618 215.274C114.63 214.696 114.511 214.18 114.261 213.727C114.012 213.274 113.666 212.922 113.224 212.673C112.794 212.412 112.289 212.282 111.711 212.282C111.145 212.282 110.64 212.412 110.198 212.673C109.756 212.922 109.411 213.279 109.161 213.744C108.912 214.197 108.787 214.719 108.787 215.308V215.58C108.787 216.181 108.923 216.719 109.195 217.195C109.479 217.66 109.87 218.022 110.368 218.283C110.867 218.544 111.439 218.674 112.085 218.674C112.618 218.674 113.1 218.583 113.53 218.402C113.972 218.221 114.358 217.949 114.686 217.586L115.587 218.64C115.179 219.116 114.669 219.479 114.057 219.728C113.457 219.977 112.782 220.102 112.034 220.102ZM117.052 219.983L117.154 218.606C117.233 218.617 117.307 218.629 117.375 218.64C117.443 218.651 117.505 218.657 117.562 218.657C117.924 218.657 118.208 218.532 118.412 218.283C118.627 218.034 118.786 217.705 118.888 217.297C118.99 216.878 119.063 216.407 119.109 215.886C119.154 215.365 119.188 214.843 119.211 214.322L119.364 210.99H126.283V220H124.651V211.942L125.042 212.418H120.418L120.792 211.925L120.673 214.424C120.639 215.217 120.576 215.96 120.486 216.651C120.395 217.342 120.253 217.949 120.061 218.47C119.879 218.991 119.624 219.399 119.296 219.694C118.978 219.989 118.565 220.136 118.055 220.136C117.907 220.136 117.749 220.119 117.579 220.085C117.42 220.062 117.244 220.028 117.052 219.983ZM133.45 220.102C132.487 220.102 131.637 219.904 130.9 219.507C130.175 219.11 129.608 218.566 129.2 217.875C128.804 217.184 128.605 216.39 128.605 215.495C128.605 214.6 128.798 213.806 129.183 213.115C129.58 212.424 130.118 211.885 130.798 211.5C131.49 211.103 132.266 210.905 133.127 210.905C134 210.905 134.771 211.098 135.439 211.483C136.108 211.868 136.629 212.412 137.003 213.115C137.389 213.806 137.581 214.617 137.581 215.546C137.581 215.614 137.576 215.693 137.564 215.784C137.564 215.875 137.559 215.96 137.547 216.039H129.88V214.866H136.697L136.034 215.274C136.046 214.696 135.927 214.18 135.677 213.727C135.428 213.274 135.082 212.922 134.64 212.673C134.21 212.412 133.705 212.282 133.127 212.282C132.561 212.282 132.056 212.412 131.614 212.673C131.172 212.922 130.827 213.279 130.577 213.744C130.328 214.197 130.203 214.719 130.203 215.308V215.58C130.203 216.181 130.339 216.719 130.611 217.195C130.895 217.66 131.286 218.022 131.784 218.283C132.283 218.544 132.855 218.674 133.501 218.674C134.034 218.674 134.516 218.583 134.946 218.402C135.388 218.221 135.774 217.949 136.102 217.586L137.003 218.64C136.595 219.116 136.085 219.479 135.473 219.728C134.873 219.977 134.198 220.102 133.45 220.102ZM140.113 220V210.99H141.796L145.672 217.654H144.992L148.97 210.99H150.5V220H149.021V212.826L149.293 212.979L145.655 218.98H144.941L141.286 212.86L141.609 212.792V220H140.113ZM22.106 241V239.096L22.021 238.739V235.492C22.021 234.801 21.817 234.268 21.409 233.894C21.0123 233.509 20.4117 233.316 19.607 233.316C19.0743 233.316 18.553 233.407 18.043 233.588C17.533 233.758 17.1023 233.99 16.751 234.285L16.071 233.061C16.5357 232.687 17.091 232.404 17.737 232.211C18.3943 232.007 19.08 231.905 19.794 231.905C21.0293 231.905 21.9813 232.205 22.65 232.806C23.3187 233.407 23.653 234.325 23.653 235.56V241H22.106ZM19.148 241.102C18.4793 241.102 17.89 240.989 17.38 240.762C16.8813 240.535 16.496 240.224 16.224 239.827C15.952 239.419 15.816 238.96 15.816 238.45C15.816 237.963 15.9293 237.521 16.156 237.124C16.394 236.727 16.7737 236.41 17.295 236.172C17.8277 235.934 18.5417 235.815 19.437 235.815H22.293V236.988H19.505C18.689 236.988 18.1393 237.124 17.856 237.396C17.5727 237.668 17.431 237.997 17.431 238.382C17.431 238.824 17.6067 239.181 17.958 239.453C18.3093 239.714 18.7967 239.844 19.42 239.844C20.032 239.844 20.5647 239.708 21.018 239.436C21.4827 239.164 21.817 238.767 22.021 238.246L22.344 239.368C22.1287 239.901 21.749 240.326 21.205 240.643C20.661 240.949 19.9753 241.102 19.148 241.102ZM26.5917 241V231.99H30.7737C31.8277 231.99 32.6551 232.194 33.2557 232.602C33.8677 232.999 34.1737 233.565 34.1737 234.302C34.1737 235.039 33.8847 235.611 33.3067 236.019C32.7401 236.416 31.9864 236.614 31.0457 236.614L31.3007 236.172C32.3774 236.172 33.1764 236.37 33.6977 236.767C34.2191 237.164 34.4797 237.747 34.4797 238.518C34.4797 239.3 34.1851 239.912 33.5957 240.354C33.0177 240.785 32.1281 241 30.9267 241H26.5917ZM28.1897 239.742H30.8077C31.4877 239.742 31.9977 239.64 32.3377 239.436C32.6777 239.221 32.8477 238.881 32.8477 238.416C32.8477 237.94 32.6891 237.594 32.3717 237.379C32.0657 237.152 31.5784 237.039 30.9097 237.039H28.1897V239.742ZM28.1897 235.866H30.6377C31.2611 235.866 31.7314 235.753 32.0487 235.526C32.3774 235.288 32.5417 234.959 32.5417 234.54C32.5417 234.109 32.3774 233.786 32.0487 233.571C31.7314 233.356 31.2611 233.248 30.6377 233.248H28.1897V235.866ZM38.8191 241V232.993L39.2271 233.418H35.5211V231.99H43.7491V233.418H40.0601L40.4511 232.993V241H38.8191ZM48.8785 241.102C47.9718 241.102 47.1671 240.904 46.4645 240.507C45.7618 240.11 45.2065 239.566 44.7985 238.875C44.3905 238.172 44.1865 237.379 44.1865 236.495C44.1865 235.6 44.3905 234.806 44.7985 234.115C45.2065 233.424 45.7618 232.885 46.4645 232.5C47.1671 232.103 47.9718 231.905 48.8785 231.905C49.7738 231.905 50.5728 232.103 51.2755 232.5C51.9895 232.885 52.5448 233.424 52.9415 234.115C53.3495 234.795 53.5535 235.588 53.5535 236.495C53.5535 237.39 53.3495 238.184 52.9415 238.875C52.5448 239.566 51.9895 240.11 51.2755 240.507C50.5728 240.904 49.7738 241.102 48.8785 241.102ZM48.8785 239.674C49.4565 239.674 49.9721 239.544 50.4255 239.283C50.8901 239.022 51.2528 238.654 51.5135 238.178C51.7741 237.691 51.9045 237.13 51.9045 236.495C51.9045 235.849 51.7741 235.294 51.5135 234.829C51.2528 234.353 50.8901 233.985 50.4255 233.724C49.9721 233.463 49.4565 233.333 48.8785 233.333C48.3005 233.333 47.7848 233.463 47.3315 233.724C46.8781 233.985 46.5155 234.353 46.2435 234.829C45.9715 235.294 45.8355 235.849 45.8355 236.495C45.8355 237.13 45.9715 237.691 46.2435 238.178C46.5155 238.654 46.8781 239.022 47.3315 239.283C47.7848 239.544 48.3005 239.674 48.8785 239.674ZM55.9101 241V231.99H57.5931L61.4691 238.654H60.7891L64.7671 231.99H66.2971V241H64.8181V233.826L65.0901 233.979L61.4521 239.98H60.7381L57.0831 233.86L57.4061 233.792V241H55.9101ZM73.3326 241.102C72.4259 241.102 71.6212 240.904 70.9186 240.507C70.2159 240.11 69.6606 239.566 69.2526 238.875C68.8446 238.172 68.6406 237.379 68.6406 236.495C68.6406 235.6 68.8446 234.806 69.2526 234.115C69.6606 233.424 70.2159 232.885 70.9186 232.5C71.6212 232.103 72.4259 231.905 73.3326 231.905C74.2279 231.905 75.0269 232.103 75.7296 232.5C76.4436 232.885 76.9989 233.424 77.3956 234.115C77.8036 234.795 78.0076 235.588 78.0076 236.495C78.0076 237.39 77.8036 238.184 77.3956 238.875C76.9989 239.566 76.4436 240.11 75.7296 240.507C75.0269 240.904 74.2279 241.102 73.3326 241.102ZM73.3326 239.674C73.9106 239.674 74.4262 239.544 74.8796 239.283C75.3442 239.022 75.7069 238.654 75.9676 238.178C76.2282 237.691 76.3586 237.13 76.3586 236.495C76.3586 235.849 76.2282 235.294 75.9676 234.829C75.7069 234.353 75.3442 233.985 74.8796 233.724C74.4262 233.463 73.9106 233.333 73.3326 233.333C72.7546 233.333 72.2389 233.463 71.7856 233.724C71.3322 233.985 70.9696 234.353 70.6976 234.829C70.4256 235.294 70.2896 235.849 70.2896 236.495C70.2896 237.13 70.4256 237.691 70.6976 238.178C70.9696 238.654 71.3322 239.022 71.7856 239.283C72.2389 239.544 72.7546 239.674 73.3326 239.674ZM84.5292 241.136C83.7812 241.136 83.1182 241.017 82.5402 240.779C81.9735 240.541 81.4862 240.19 81.0782 239.725C80.6702 239.249 80.3585 238.654 80.1432 237.94C79.9392 237.215 79.8372 236.365 79.8372 235.39C79.8372 234.619 79.9052 233.928 80.0412 233.316C80.1772 232.704 80.3699 232.16 80.6192 231.684C80.8799 231.208 81.1972 230.794 81.5712 230.443C81.9565 230.092 82.3872 229.803 82.8632 229.576C83.3505 229.338 83.8832 229.157 84.4612 229.032L88.5752 228.114L88.8132 229.627L85.0222 230.443C84.7955 230.488 84.5235 230.556 84.2062 230.647C83.8889 230.738 83.5659 230.879 83.2372 231.072C82.9085 231.253 82.6025 231.508 82.3192 231.837C82.0359 232.166 81.8092 232.596 81.6392 233.129C81.4692 233.65 81.3842 234.296 81.3842 235.067C81.3842 235.282 81.3899 235.447 81.4012 235.56C81.4125 235.673 81.4239 235.787 81.4352 235.9C81.4579 236.013 81.4749 236.183 81.4862 236.41L80.8062 235.713C80.9875 235.09 81.2765 234.546 81.6732 234.081C82.0699 233.616 82.5459 233.259 83.1012 233.01C83.6679 232.749 84.2855 232.619 84.9542 232.619C85.7929 232.619 86.5352 232.8 87.1812 233.163C87.8385 233.526 88.3542 234.024 88.7282 234.659C89.1022 235.294 89.2892 236.019 89.2892 236.835C89.2892 237.662 89.0909 238.405 88.6942 239.062C88.3089 239.708 87.7592 240.218 87.0452 240.592C86.3312 240.955 85.4925 241.136 84.5292 241.136ZM84.6822 239.776C85.2602 239.776 85.7702 239.651 86.2122 239.402C86.6542 239.141 86.9999 238.796 87.2492 238.365C87.4985 237.923 87.6232 237.43 87.6232 236.886C87.6232 236.342 87.4985 235.86 87.2492 235.441C86.9999 235.022 86.6542 234.693 86.2122 234.455C85.7702 234.206 85.2489 234.081 84.6482 234.081C84.0815 234.081 83.5715 234.2 83.1182 234.438C82.6649 234.665 82.3135 234.988 82.0642 235.407C81.8149 235.815 81.6902 236.291 81.6902 236.835C81.6902 237.379 81.8149 237.878 82.0642 238.331C82.3249 238.773 82.6762 239.124 83.1182 239.385C83.5715 239.646 84.0929 239.776 84.6822 239.776ZM91.6201 241V231.99H93.2521V238.552L98.7771 231.99H100.256V241H98.6241V234.438L93.1161 241H91.6201ZM101.928 240.983L102.03 239.606C102.109 239.617 102.183 239.629 102.251 239.64C102.319 239.651 102.381 239.657 102.438 239.657C102.8 239.657 103.084 239.532 103.288 239.283C103.503 239.034 103.662 238.705 103.764 238.297C103.866 237.878 103.939 237.407 103.985 236.886C104.03 236.365 104.064 235.843 104.087 235.322L104.24 231.99H111.159V241H109.527V232.942L109.918 233.418H105.294L105.668 232.925L105.549 235.424C105.515 236.217 105.452 236.96 105.362 237.651C105.271 238.342 105.129 238.949 104.937 239.47C104.755 239.991 104.5 240.399 104.172 240.694C103.854 240.989 103.441 241.136 102.931 241.136C102.783 241.136 102.625 241.119 102.455 241.085C102.296 241.062 102.12 241.028 101.928 240.983ZM120.077 241V237.838L120.332 238.144H117.459C116.258 238.144 115.317 237.889 114.637 237.379C113.969 236.869 113.634 236.127 113.634 235.152C113.634 234.109 113.991 233.322 114.705 232.789C115.431 232.256 116.394 231.99 117.595 231.99H121.539V241H120.077ZM113.549 241L115.997 237.549H117.68L115.3 241H113.549ZM120.077 237.328V232.959L120.332 233.418H117.646C116.898 233.418 116.32 233.56 115.912 233.843C115.504 234.115 115.3 234.568 115.3 235.203C115.3 236.382 116.06 236.971 117.578 236.971H120.332L120.077 237.328Z" fill="#434343"/>
</svg>
