<svg width="300" height="193" viewBox="0 0 300 193" fill="none" xmlns="http://www.w3.org/2000/svg">
<path d="M0 50C0 26.4298 0 14.6447 7.32233 7.32233C14.6447 0 26.4298 0 50 0H258.544C258.796 0 258.922 0 259.016 0.00438307C261.703 0.130288 263.503 2.81976 262.594 5.35171C262.562 5.43986 262.514 5.55661 262.417 5.79013L259.867 11.9672C251.281 32.7641 276.444 51.0542 293.576 36.469C296.107 34.3144 300 36.1129 300 39.4366V143C300 166.57 300 178.355 292.678 185.678C285.355 193 273.57 193 250 193H50C26.4298 193 14.6447 193 7.32233 185.678C0 178.355 0 166.57 0 143V50Z" fill="#F3F5F7"/>
<circle cx="280.5" cy="19.5" r="19.5" fill="#F3F5F7"/>
<path d="M273 20.25H288M288 20.25L281 13M288 20.25L281 27" stroke="#00AAFF" stroke-width="2" stroke-linecap="round" stroke-linejoin="round"/>
<mask id="mask0_221_19" style="mask-type:alpha" maskUnits="userSpaceOnUse" x="0" y="0" width="300" height="193">
<path d="M0 50C0 26.4298 0 14.6447 7.32233 7.32233C14.6447 0 26.4298 0 50 0H256.513C256.986 0 257.223 0 257.379 0.0122194C260.338 0.244047 262.023 3.50457 260.5 6.05227C260.42 6.18656 260.283 6.37953 260.009 6.76548V6.76548C257.657 10.0814 256.481 11.7393 256.015 12.545C246.81 28.4759 262.186 47.336 279.645 41.529C280.528 41.2353 282.388 40.4174 286.11 38.7818L293.374 35.5893C294.272 35.1947 294.721 34.9974 295.072 34.9137C297.304 34.3812 299.525 35.8314 299.935 38.089C300 38.4438 300 38.9342 300 39.9149V143C300 166.57 300 178.355 292.678 185.678C285.355 193 273.57 193 250 193H50C26.4298 193 14.6447 193 7.32233 185.678C0 178.355 0 166.57 0 143V50Z" fill="#F3F5F7"/>
</mask>
<g mask="url(#mask0_221_19)">
<path d="M-0.959999 110.84C-8.4 110.84 -15 109.12 -20.76 105.68C-26.44 102.24 -30.92 97.24 -34.2 90.68C-37.4 84.12 -39 76.2 -39 66.92C-39 57.64 -37.4 49.72 -34.2 43.16C-30.92 36.6 -26.44 31.6 -20.76 28.16C-15 24.72 -8.4 23 -0.959999 23C6.48 23 13.04 24.72 18.72 28.16C24.48 31.6 28.96 36.6 32.16 43.16C35.44 49.72 37.08 57.64 37.08 66.92C37.08 76.2 35.44 84.12 32.16 90.68C28.96 97.24 24.48 102.24 18.72 105.68C13.04 109.12 6.48 110.84 -0.959999 110.84ZM-0.959999 88.16C0.880001 88.16 2.52 87.52 3.96 86.24C5.4 84.96 6.52 82.76 7.32 79.64C8.2 76.52 8.64 72.28 8.64 66.92C8.64 61.48 8.2 57.24 7.32 54.2C6.52 51.08 5.4 48.88 3.96 47.6C2.52 46.32 0.880001 45.68 -0.959999 45.68C-2.8 45.68 -4.44 46.32 -5.88 47.6C-7.32 48.88 -8.48 51.08 -9.36 54.2C-10.16 57.24 -10.56 61.48 -10.56 66.92C-10.56 72.28 -10.16 76.52 -9.36 79.64C-8.48 82.76 -7.32 84.96 -5.88 86.24C-4.44 87.52 -2.8 88.16 -0.959999 88.16Z" fill="#00AAFF" fill-opacity="0.1"/>
<path d="M76.1259 23C84.1259 23 91.1259 24.56 97.1259 27.68C103.206 30.72 107.926 35.28 111.286 41.36C114.726 47.44 116.446 55.08 116.446 64.28C116.446 74.12 114.486 82.52 110.566 89.48C106.646 96.36 101.206 101.64 94.2459 105.32C87.2859 109 79.1659 110.84 69.8859 110.84C64.9259 110.84 60.1259 110.24 55.4859 109.04C50.9259 107.92 47.0459 106.32 43.8459 104.24L54.0459 84.44C56.5259 86.2 59.0059 87.4 61.4859 88.04C64.0459 88.6 66.6459 88.88 69.2859 88.88C74.9659 88.88 79.4859 87.2 82.8459 83.84C86.2859 80.4 88.0059 75.44 88.0059 68.96C88.0059 67.76 88.0059 66.6 88.0059 65.48C88.0059 64.28 88.0059 63.08 88.0059 61.88L94.4859 66.56C92.9659 69.28 91.0859 71.6 88.8459 73.52C86.6859 75.36 84.1259 76.8 81.1659 77.84C78.2059 78.8 74.7659 79.28 70.8459 79.28C65.7259 79.28 60.9659 78.2 56.5659 76.04C52.2459 73.8 48.7259 70.68 46.0059 66.68C43.3659 62.6 42.0459 57.84 42.0459 52.4C42.0459 46.4 43.5659 41.2 46.6059 36.8C49.6459 32.4 53.7259 29 58.8459 26.6C64.0459 24.2 69.8059 23 76.1259 23ZM78.0459 42.56C76.3659 42.56 74.8859 42.92 73.6059 43.64C72.3259 44.28 71.2859 45.24 70.4859 46.52C69.7659 47.8 69.4059 49.32 69.4059 51.08C69.4059 53.72 70.2059 55.84 71.8059 57.44C73.4859 58.96 75.5659 59.72 78.0459 59.72C79.7259 59.72 81.2059 59.36 82.4859 58.64C83.8459 57.92 84.8859 56.92 85.6059 55.64C86.3259 54.36 86.6859 52.84 86.6859 51.08C86.6859 49.32 86.3259 47.8 85.6059 46.52C84.8859 45.24 83.8459 44.28 82.4859 43.64C81.2059 42.92 79.7259 42.56 78.0459 42.56Z" fill="#00AAFF" fill-opacity="0.1"/>
</g>
<path d="M16.853 153V141.1H21.97C23.262 141.1 24.2763 141.361 25.013 141.882C25.7497 142.403 26.118 143.163 26.118 144.16C26.118 145.135 25.7667 145.883 25.064 146.404C24.3613 146.914 23.4377 147.169 22.293 147.169L22.599 146.659C23.925 146.659 24.9393 146.925 25.642 147.458C26.356 147.979 26.713 148.744 26.713 149.753C26.713 150.773 26.339 151.572 25.591 152.15C24.8543 152.717 23.755 153 22.293 153H16.853ZM18.536 151.657H22.259C23.1657 151.657 23.8457 151.493 24.299 151.164C24.7637 150.824 24.996 150.308 24.996 149.617C24.996 148.926 24.7637 148.421 24.299 148.104C23.8457 147.787 23.1657 147.628 22.259 147.628H18.536V151.657ZM18.536 146.336H21.851C22.6783 146.336 23.3073 146.172 23.738 145.843C24.18 145.514 24.401 145.033 24.401 144.398C24.401 143.752 24.18 143.265 23.738 142.936C23.3073 142.607 22.6783 142.443 21.851 142.443H18.536V146.336ZM38.1892 153V143.99H39.8212V153H38.1892ZM33.3442 147.05C34.4889 147.061 35.3559 147.322 35.9452 147.832C36.5459 148.342 36.8462 149.062 36.8462 149.991C36.8462 150.966 36.5175 151.719 35.8602 152.252C35.2142 152.773 34.2849 153.028 33.0722 153.017L29.2812 153V143.99H30.9132V147.033L33.3442 147.05ZM32.9532 151.776C33.6785 151.787 34.2339 151.64 34.6192 151.334C35.0045 151.028 35.1972 150.575 35.1972 149.974C35.1972 149.385 35.0045 148.954 34.6192 148.682C34.2452 148.41 33.6899 148.268 32.9532 148.257L30.9132 148.223V151.759L32.9532 151.776ZM51.4865 153.102C50.5685 153.102 49.7468 152.904 49.0215 152.507C48.3075 152.11 47.7465 151.566 47.3385 150.875C46.9305 150.184 46.7265 149.39 46.7265 148.495C46.7265 147.6 46.9305 146.806 47.3385 146.115C47.7465 145.424 48.3075 144.885 49.0215 144.5C49.7468 144.103 50.5685 143.905 51.4865 143.905C52.3025 143.905 53.0278 144.069 53.6625 144.398C54.3085 144.715 54.8072 145.191 55.1585 145.826L53.9175 146.625C53.6228 146.183 53.2602 145.86 52.8295 145.656C52.4102 145.441 51.9568 145.333 51.4695 145.333C50.8802 145.333 50.3532 145.463 49.8885 145.724C49.4238 145.985 49.0555 146.353 48.7835 146.829C48.5115 147.294 48.3755 147.849 48.3755 148.495C48.3755 149.141 48.5115 149.702 48.7835 150.178C49.0555 150.654 49.4238 151.022 49.8885 151.283C50.3532 151.544 50.8802 151.674 51.4695 151.674C51.9568 151.674 52.4102 151.572 52.8295 151.368C53.2602 151.153 53.6228 150.824 53.9175 150.382L55.1585 151.164C54.8072 151.787 54.3085 152.269 53.6625 152.609C53.0278 152.938 52.3025 153.102 51.4865 153.102ZM58.9402 153V144.993L59.3482 145.418H55.6422V143.99H63.8702V145.418H60.1812L60.5722 144.993V153H58.9402ZM71.064 153V151.096L70.979 150.739V147.492C70.979 146.801 70.775 146.268 70.367 145.894C69.9703 145.509 69.3697 145.316 68.565 145.316C68.0323 145.316 67.511 145.407 67.001 145.588C66.491 145.758 66.0603 145.99 65.709 146.285L65.029 145.061C65.4937 144.687 66.049 144.404 66.695 144.211C67.3523 144.007 68.038 143.905 68.752 143.905C69.9873 143.905 70.9393 144.205 71.608 144.806C72.2767 145.407 72.611 146.325 72.611 147.56V153H71.064ZM68.106 153.102C67.4373 153.102 66.848 152.989 66.338 152.762C65.8393 152.535 65.454 152.224 65.182 151.827C64.91 151.419 64.774 150.96 64.774 150.45C64.774 149.963 64.8873 149.521 65.114 149.124C65.352 148.727 65.7317 148.41 66.253 148.172C66.7857 147.934 67.4997 147.815 68.395 147.815H71.251V148.988H68.463C67.647 148.988 67.0973 149.124 66.814 149.396C66.5307 149.668 66.389 149.997 66.389 150.382C66.389 150.824 66.5647 151.181 66.916 151.453C67.2673 151.714 67.7547 151.844 68.378 151.844C68.99 151.844 69.5227 151.708 69.976 151.436C70.4407 151.164 70.775 150.767 70.979 150.246L71.302 151.368C71.0867 151.901 70.707 152.326 70.163 152.643C69.619 152.949 68.9333 153.102 68.106 153.102ZM75.5498 153V143.99H77.1818V147.815H82.3158V143.99H83.9478V153H82.3158V149.226H77.1818V153H75.5498ZM90.98 153.102C90.0734 153.102 89.2687 152.904 88.566 152.507C87.8634 152.11 87.308 151.566 86.9 150.875C86.492 150.172 86.288 149.379 86.288 148.495C86.288 147.6 86.492 146.806 86.9 146.115C87.308 145.424 87.8634 144.885 88.566 144.5C89.2687 144.103 90.0734 143.905 90.98 143.905C91.8754 143.905 92.6744 144.103 93.377 144.5C94.091 144.885 94.6464 145.424 95.043 146.115C95.451 146.795 95.655 147.588 95.655 148.495C95.655 149.39 95.451 150.184 95.043 150.875C94.6464 151.566 94.091 152.11 93.377 152.507C92.6744 152.904 91.8754 153.102 90.98 153.102ZM90.98 151.674C91.558 151.674 92.0737 151.544 92.527 151.283C92.9917 151.022 93.3544 150.654 93.615 150.178C93.8757 149.691 94.006 149.13 94.006 148.495C94.006 147.849 93.8757 147.294 93.615 146.829C93.3544 146.353 92.9917 145.985 92.527 145.724C92.0737 145.463 91.558 145.333 90.98 145.333C90.402 145.333 89.8864 145.463 89.433 145.724C88.9797 145.985 88.617 146.353 88.345 146.829C88.073 147.294 87.937 147.849 87.937 148.495C87.937 149.13 88.073 149.691 88.345 150.178C88.617 150.654 88.9797 151.022 89.433 151.283C89.8864 151.544 90.402 151.674 90.98 151.674ZM98.0117 153V143.99H102.194C103.248 143.99 104.075 144.194 104.676 144.602C105.288 144.999 105.594 145.565 105.594 146.302C105.594 147.039 105.305 147.611 104.727 148.019C104.16 148.416 103.406 148.614 102.466 148.614L102.721 148.172C103.797 148.172 104.596 148.37 105.118 148.767C105.639 149.164 105.9 149.747 105.9 150.518C105.9 151.3 105.605 151.912 105.016 152.354C104.438 152.785 103.548 153 102.347 153H98.0117ZM99.6097 151.742H102.228C102.908 151.742 103.418 151.64 103.758 151.436C104.098 151.221 104.268 150.881 104.268 150.416C104.268 149.94 104.109 149.594 103.792 149.379C103.486 149.152 102.998 149.039 102.33 149.039H99.6097V151.742ZM99.6097 147.866H102.058C102.681 147.866 103.151 147.753 103.469 147.526C103.797 147.288 103.962 146.959 103.962 146.54C103.962 146.109 103.797 145.786 103.469 145.571C103.151 145.356 102.681 145.248 102.058 145.248H99.6097V147.866ZM108.454 153V143.99H110.086V150.552L115.611 143.99H117.09V153H115.458V146.438L109.95 153H108.454ZM122.043 153V144.993L122.451 145.418H118.745V143.99H126.973V145.418H123.284L123.675 144.993V153H122.043ZM132.255 153.102C131.292 153.102 130.442 152.904 129.705 152.507C128.98 152.11 128.413 151.566 128.005 150.875C127.608 150.184 127.41 149.39 127.41 148.495C127.41 147.6 127.603 146.806 127.988 146.115C128.385 145.424 128.923 144.885 129.603 144.5C130.294 144.103 131.071 143.905 131.932 143.905C132.805 143.905 133.575 144.098 134.244 144.483C134.913 144.868 135.434 145.412 135.808 146.115C136.193 146.806 136.386 147.617 136.386 148.546C136.386 148.614 136.38 148.693 136.369 148.784C136.369 148.875 136.363 148.96 136.352 149.039H128.685V147.866H135.502L134.839 148.274C134.85 147.696 134.731 147.18 134.482 146.727C134.233 146.274 133.887 145.922 133.445 145.673C133.014 145.412 132.51 145.282 131.932 145.282C131.365 145.282 130.861 145.412 130.419 145.673C129.977 145.922 129.631 146.279 129.382 146.744C129.133 147.197 129.008 147.719 129.008 148.308V148.58C129.008 149.181 129.144 149.719 129.416 150.195C129.699 150.66 130.09 151.022 130.589 151.283C131.088 151.544 131.66 151.674 132.306 151.674C132.839 151.674 133.32 151.583 133.751 151.402C134.193 151.221 134.578 150.949 134.907 150.586L135.808 151.64C135.4 152.116 134.89 152.479 134.278 152.728C133.677 152.977 133.003 153.102 132.255 153.102ZM142.845 153.102C141.927 153.102 141.105 152.904 140.38 152.507C139.666 152.11 139.105 151.566 138.697 150.875C138.289 150.184 138.085 149.39 138.085 148.495C138.085 147.6 138.289 146.806 138.697 146.115C139.105 145.424 139.666 144.885 140.38 144.5C141.105 144.103 141.927 143.905 142.845 143.905C143.661 143.905 144.386 144.069 145.021 144.398C145.667 144.715 146.166 145.191 146.517 145.826L145.276 146.625C144.981 146.183 144.619 145.86 144.188 145.656C143.769 145.441 143.315 145.333 142.828 145.333C142.239 145.333 141.712 145.463 141.247 145.724C140.782 145.985 140.414 146.353 140.142 146.829C139.87 147.294 139.734 147.849 139.734 148.495C139.734 149.141 139.87 149.702 140.142 150.178C140.414 150.654 140.782 151.022 141.247 151.283C141.712 151.544 142.239 151.674 142.828 151.674C143.315 151.674 143.769 151.572 144.188 151.368C144.619 151.153 144.981 150.824 145.276 150.382L146.517 151.164C146.166 151.787 145.667 152.269 145.021 152.609C144.386 152.938 143.661 153.102 142.845 153.102ZM152.795 147.05C153.939 147.061 154.812 147.322 155.413 147.832C156.013 148.342 156.314 149.062 156.314 149.991C156.314 150.966 155.985 151.719 155.328 152.252C154.67 152.773 153.741 153.028 152.54 153.017L148.63 153V143.99H150.262V147.033L152.795 147.05ZM152.404 151.776C153.14 151.787 153.696 151.64 154.07 151.334C154.455 151.028 154.648 150.575 154.648 149.974C154.648 149.385 154.461 148.954 154.087 148.682C153.713 148.41 153.152 148.268 152.404 148.257L150.262 148.223V151.759L152.404 151.776ZM165.609 153.119C166.402 153.119 167.105 153.006 167.717 152.779C168.34 152.541 168.833 152.218 169.196 151.81C169.558 151.391 169.74 150.909 169.74 150.365C169.74 149.685 169.451 149.147 168.873 148.75C168.295 148.353 167.501 148.155 166.493 148.155L166.425 148.546C167.014 148.546 167.535 148.45 167.989 148.257C168.442 148.064 168.805 147.804 169.077 147.475C169.349 147.135 169.485 146.75 169.485 146.319C169.485 145.809 169.303 145.367 168.941 144.993C168.589 144.619 168.108 144.336 167.496 144.143C166.884 143.939 166.187 143.848 165.405 143.871C164.883 143.882 164.356 143.962 163.824 144.109C163.302 144.245 162.77 144.443 162.226 144.704L162.668 145.979C163.155 145.741 163.631 145.565 164.096 145.452C164.572 145.339 165.036 145.276 165.49 145.265C165.954 145.265 166.357 145.316 166.697 145.418C167.048 145.52 167.32 145.667 167.513 145.86C167.705 146.053 167.802 146.285 167.802 146.557C167.802 146.806 167.717 147.027 167.547 147.22C167.388 147.401 167.161 147.537 166.867 147.628C166.572 147.719 166.226 147.764 165.83 147.764H164.3V148.937H165.932C166.6 148.937 167.122 149.05 167.496 149.277C167.87 149.504 168.057 149.827 168.057 150.246C168.057 150.541 167.955 150.801 167.751 151.028C167.547 151.243 167.252 151.413 166.867 151.538C166.493 151.663 166.045 151.725 165.524 151.725C164.957 151.725 164.396 151.651 163.841 151.504C163.285 151.345 162.792 151.13 162.362 150.858L161.869 152.099C162.379 152.428 162.957 152.683 163.603 152.864C164.26 153.034 164.929 153.119 165.609 153.119ZM177.746 153V151.096L177.661 150.739V147.492C177.661 146.801 177.457 146.268 177.049 145.894C176.652 145.509 176.051 145.316 175.247 145.316C174.714 145.316 174.193 145.407 173.683 145.588C173.173 145.758 172.742 145.99 172.391 146.285L171.711 145.061C172.175 144.687 172.731 144.404 173.377 144.211C174.034 144.007 174.72 143.905 175.434 143.905C176.669 143.905 177.621 144.205 178.29 144.806C178.958 145.407 179.293 146.325 179.293 147.56V153H177.746ZM174.788 153.102C174.119 153.102 173.53 152.989 173.02 152.762C172.521 152.535 172.136 152.224 171.864 151.827C171.592 151.419 171.456 150.96 171.456 150.45C171.456 149.963 171.569 149.521 171.796 149.124C172.034 148.727 172.413 148.41 172.935 148.172C173.467 147.934 174.181 147.815 175.077 147.815H177.933V148.988H175.145C174.329 148.988 173.779 149.124 173.496 149.396C173.212 149.668 173.071 149.997 173.071 150.382C173.071 150.824 173.246 151.181 173.598 151.453C173.949 151.714 174.436 151.844 175.06 151.844C175.672 151.844 176.204 151.708 176.658 151.436C177.122 151.164 177.457 150.767 177.661 150.246L177.984 151.368C177.768 151.901 177.389 152.326 176.845 152.643C176.301 152.949 175.615 153.102 174.788 153.102ZM188.759 153L185.274 148.614L186.617 147.798L190.68 153H188.759ZM182.231 153V143.99H183.863V153H182.231ZM183.37 149.192V147.798H186.345V149.192H183.37ZM186.753 148.682L185.24 148.478L188.691 143.99H190.442L186.753 148.682ZM195.952 153.102C195.045 153.102 194.24 152.904 193.538 152.507C192.835 152.11 192.28 151.566 191.872 150.875C191.464 150.172 191.26 149.379 191.26 148.495C191.26 147.6 191.464 146.806 191.872 146.115C192.28 145.424 192.835 144.885 193.538 144.5C194.24 144.103 195.045 143.905 195.952 143.905C196.847 143.905 197.646 144.103 198.349 144.5C199.063 144.885 199.618 145.424 200.015 146.115C200.423 146.795 200.627 147.588 200.627 148.495C200.627 149.39 200.423 150.184 200.015 150.875C199.618 151.566 199.063 152.11 198.349 152.507C197.646 152.904 196.847 153.102 195.952 153.102ZM195.952 151.674C196.53 151.674 197.045 151.544 197.499 151.283C197.963 151.022 198.326 150.654 198.587 150.178C198.847 149.691 198.978 149.13 198.978 148.495C198.978 147.849 198.847 147.294 198.587 146.829C198.326 146.353 197.963 145.985 197.499 145.724C197.045 145.463 196.53 145.333 195.952 145.333C195.374 145.333 194.858 145.463 194.405 145.724C193.951 145.985 193.589 146.353 193.317 146.829C193.045 147.294 192.909 147.849 192.909 148.495C192.909 149.13 193.045 149.691 193.317 150.178C193.589 150.654 193.951 151.022 194.405 151.283C194.858 151.544 195.374 151.674 195.952 151.674ZM202.983 153V143.99H204.615V147.815H209.749V143.99H211.381V153H209.749V149.226H204.615V153H202.983ZM214.555 153V143.99H216.187V147.815H221.321V143.99H222.953V153H221.321V149.226H216.187V153H214.555ZM235.034 153V143.99H236.666V153H235.034ZM230.189 147.05C231.334 147.061 232.201 147.322 232.79 147.832C233.391 148.342 233.691 149.062 233.691 149.991C233.691 150.966 233.362 151.719 232.705 152.252C232.059 152.773 231.13 153.028 229.917 153.017L226.126 153V143.99H227.758V147.033L230.189 147.05ZM229.798 151.776C230.523 151.787 231.079 151.64 231.464 151.334C231.849 151.028 232.042 150.575 232.042 149.974C232.042 149.385 231.849 148.954 231.464 148.682C231.09 148.41 230.535 148.268 229.798 148.257L227.758 148.223V151.759L229.798 151.776ZM239.839 153V143.99H241.522L245.398 150.654H244.718L248.696 143.99H250.226V153H248.747V145.826L249.019 145.979L245.381 151.98H244.667L241.012 145.86L241.335 145.792V153H239.839ZM16.581 174V164.99H24.928V174H23.296V166.01L23.687 166.418H17.822L18.213 166.01V174H16.581ZM31.9449 174.102C31.0382 174.102 30.2335 173.904 29.5309 173.507C28.8282 173.11 28.2729 172.566 27.8649 171.875C27.4569 171.172 27.2529 170.379 27.2529 169.495C27.2529 168.6 27.4569 167.806 27.8649 167.115C28.2729 166.424 28.8282 165.885 29.5309 165.5C30.2335 165.103 31.0382 164.905 31.9449 164.905C32.8402 164.905 33.6392 165.103 34.3419 165.5C35.0559 165.885 35.6112 166.424 36.0079 167.115C36.4159 167.795 36.6199 168.588 36.6199 169.495C36.6199 170.39 36.4159 171.184 36.0079 171.875C35.6112 172.566 35.0559 173.11 34.3419 173.507C33.6392 173.904 32.8402 174.102 31.9449 174.102ZM31.9449 172.674C32.5229 172.674 33.0385 172.544 33.4919 172.283C33.9565 172.022 34.3192 171.654 34.5799 171.178C34.8405 170.691 34.9709 170.13 34.9709 169.495C34.9709 168.849 34.8405 168.294 34.5799 167.829C34.3192 167.353 33.9565 166.985 33.4919 166.724C33.0385 166.463 32.5229 166.333 31.9449 166.333C31.3669 166.333 30.8512 166.463 30.3979 166.724C29.9445 166.985 29.5819 167.353 29.3099 167.829C29.0379 168.294 28.9019 168.849 28.9019 169.495C28.9019 170.13 29.0379 170.691 29.3099 171.178C29.5819 171.654 29.9445 172.022 30.3979 172.283C30.8512 172.544 31.3669 172.674 31.9449 172.674ZM37.4141 173.983L37.5161 172.606C37.5954 172.617 37.6691 172.629 37.7371 172.64C37.8051 172.651 37.8674 172.657 37.9241 172.657C38.2868 172.657 38.5701 172.532 38.7741 172.283C38.9894 172.034 39.1481 171.705 39.2501 171.297C39.3521 170.878 39.4258 170.407 39.4711 169.886C39.5164 169.365 39.5504 168.843 39.5731 168.322L39.7261 164.99H46.6451V174H45.0131V165.942L45.4041 166.418H40.7801L41.1541 165.925L41.0351 168.424C41.0011 169.217 40.9388 169.96 40.8481 170.651C40.7574 171.342 40.6158 171.949 40.4231 172.47C40.2418 172.991 39.9868 173.399 39.6581 173.694C39.3408 173.989 38.9271 174.136 38.4171 174.136C38.2698 174.136 38.1111 174.119 37.9411 174.085C37.7824 174.062 37.6068 174.028 37.4141 173.983ZM53.9657 168.05C55.1104 168.061 55.9831 168.322 56.5837 168.832C57.1844 169.342 57.4847 170.062 57.4847 170.991C57.4847 171.966 57.1561 172.719 56.4987 173.252C55.8414 173.773 54.9121 174.028 53.7107 174.017L49.8007 174V164.99H51.4327V168.033L53.9657 168.05ZM53.5747 172.776C54.3114 172.787 54.8667 172.64 55.2407 172.334C55.6261 172.028 55.8187 171.575 55.8187 170.974C55.8187 170.385 55.6317 169.954 55.2577 169.682C54.8837 169.41 54.3227 169.268 53.5747 169.257L51.4327 169.223V172.759L53.5747 172.776ZM62.0812 174.119C62.8746 174.119 63.5772 174.006 64.1892 173.779C64.8126 173.541 65.3056 173.218 65.6682 172.81C66.0309 172.391 66.2122 171.909 66.2122 171.365C66.2122 170.685 65.9232 170.147 65.3452 169.75C64.7672 169.353 63.9739 169.155 62.9652 169.155L62.8972 169.546C63.4866 169.546 64.0079 169.45 64.4612 169.257C64.9146 169.064 65.2772 168.804 65.5492 168.475C65.8212 168.135 65.9572 167.75 65.9572 167.319C65.9572 166.809 65.7759 166.367 65.4132 165.993C65.0619 165.619 64.5802 165.336 63.9682 165.143C63.3562 164.939 62.6592 164.848 61.8772 164.871C61.3559 164.882 60.8289 164.962 60.2962 165.109C59.7749 165.245 59.2422 165.443 58.6982 165.704L59.1402 166.979C59.6276 166.741 60.1036 166.565 60.5682 166.452C61.0442 166.339 61.5089 166.276 61.9622 166.265C62.4269 166.265 62.8292 166.316 63.1692 166.418C63.5206 166.52 63.7926 166.667 63.9852 166.86C64.1779 167.053 64.2742 167.285 64.2742 167.557C64.2742 167.806 64.1892 168.027 64.0192 168.22C63.8606 168.401 63.6339 168.537 63.3392 168.628C63.0446 168.719 62.6989 168.764 62.3022 168.764H60.7722V169.937H62.4042C63.0729 169.937 63.5942 170.05 63.9682 170.277C64.3422 170.504 64.5292 170.827 64.5292 171.246C64.5292 171.541 64.4272 171.801 64.2232 172.028C64.0192 172.243 63.7246 172.413 63.3392 172.538C62.9652 172.663 62.5176 172.725 61.9962 172.725C61.4296 172.725 60.8686 172.651 60.3132 172.504C59.7579 172.345 59.2649 172.13 58.8342 171.858L58.3412 173.099C58.8512 173.428 59.4292 173.683 60.0752 173.864C60.7326 174.034 61.4012 174.119 62.0812 174.119ZM72.5523 174.102C71.6456 174.102 70.841 173.904 70.1383 173.507C69.4356 173.11 68.8803 172.566 68.4723 171.875C68.0643 171.172 67.8603 170.379 67.8603 169.495C67.8603 168.6 68.0643 167.806 68.4723 167.115C68.8803 166.424 69.4356 165.885 70.1383 165.5C70.841 165.103 71.6456 164.905 72.5523 164.905C73.4476 164.905 74.2466 165.103 74.9493 165.5C75.6633 165.885 76.2186 166.424 76.6153 167.115C77.0233 167.795 77.2273 168.588 77.2273 169.495C77.2273 170.39 77.0233 171.184 76.6153 171.875C76.2186 172.566 75.6633 173.11 74.9493 173.507C74.2466 173.904 73.4476 174.102 72.5523 174.102ZM72.5523 172.674C73.1303 172.674 73.646 172.544 74.0993 172.283C74.564 172.022 74.9266 171.654 75.1873 171.178C75.448 170.691 75.5783 170.13 75.5783 169.495C75.5783 168.849 75.448 168.294 75.1873 167.829C74.9266 167.353 74.564 166.985 74.0993 166.724C73.646 166.463 73.1303 166.333 72.5523 166.333C71.9743 166.333 71.4586 166.463 71.0053 166.724C70.552 166.985 70.1893 167.353 69.9173 167.829C69.6453 168.294 69.5093 168.849 69.5093 169.495C69.5093 170.13 69.6453 170.691 69.9173 171.178C70.1893 171.654 70.552 172.022 71.0053 172.283C71.4586 172.544 71.9743 172.674 72.5523 172.674ZM79.5839 174V164.99H83.7659C84.8199 164.99 85.6473 165.194 86.2479 165.602C86.8599 165.999 87.1659 166.565 87.1659 167.302C87.1659 168.039 86.8769 168.611 86.2989 169.019C85.7323 169.416 84.9786 169.614 84.0379 169.614L84.2929 169.172C85.3696 169.172 86.1686 169.37 86.6899 169.767C87.2113 170.164 87.4719 170.747 87.4719 171.518C87.4719 172.3 87.1773 172.912 86.5879 173.354C86.0099 173.785 85.1203 174 83.9189 174H79.5839ZM81.1819 172.742H83.7999C84.4799 172.742 84.9899 172.64 85.3299 172.436C85.6699 172.221 85.8399 171.881 85.8399 171.416C85.8399 170.94 85.6813 170.594 85.3639 170.379C85.0579 170.152 84.5706 170.039 83.9019 170.039H81.1819V172.742ZM81.1819 168.866H83.6299C84.2533 168.866 84.7236 168.753 85.0409 168.526C85.3696 168.288 85.5339 167.959 85.5339 167.54C85.5339 167.109 85.3696 166.786 85.0409 166.571C84.7236 166.356 84.2533 166.248 83.6299 166.248H81.1819V168.866ZM95.5513 174V172.096L95.4663 171.739V168.492C95.4663 167.801 95.2623 167.268 94.8543 166.894C94.4576 166.509 93.857 166.316 93.0523 166.316C92.5196 166.316 91.9983 166.407 91.4883 166.588C90.9783 166.758 90.5476 166.99 90.1963 167.285L89.5163 166.061C89.981 165.687 90.5363 165.404 91.1823 165.211C91.8396 165.007 92.5253 164.905 93.2393 164.905C94.4746 164.905 95.4266 165.205 96.0953 165.806C96.764 166.407 97.0983 167.325 97.0983 168.56V174H95.5513ZM92.5933 174.102C91.9246 174.102 91.3353 173.989 90.8253 173.762C90.3266 173.535 89.9413 173.224 89.6693 172.827C89.3973 172.419 89.2613 171.96 89.2613 171.45C89.2613 170.963 89.3746 170.521 89.6013 170.124C89.8393 169.727 90.219 169.41 90.7403 169.172C91.273 168.934 91.987 168.815 92.8823 168.815H95.7383V169.988H92.9503C92.1343 169.988 91.5846 170.124 91.3013 170.396C91.018 170.668 90.8763 170.997 90.8763 171.382C90.8763 171.824 91.052 172.181 91.4033 172.453C91.7546 172.714 92.242 172.844 92.8653 172.844C93.4773 172.844 94.01 172.708 94.4633 172.436C94.928 172.164 95.2623 171.767 95.4663 171.246L95.7893 172.368C95.574 172.901 95.1943 173.326 94.6503 173.643C94.1063 173.949 93.4206 174.102 92.5933 174.102ZM101.822 174V165.993L102.23 166.418H98.5241V164.99H106.752V166.418H103.063L103.454 165.993V174H101.822ZM112.034 174.102C111.071 174.102 110.221 173.904 109.484 173.507C108.759 173.11 108.192 172.566 107.784 171.875C107.388 171.184 107.189 170.39 107.189 169.495C107.189 168.6 107.382 167.806 107.767 167.115C108.164 166.424 108.702 165.885 109.382 165.5C110.074 165.103 110.85 164.905 111.711 164.905C112.584 164.905 113.355 165.098 114.023 165.483C114.692 165.868 115.213 166.412 115.587 167.115C115.973 167.806 116.165 168.617 116.165 169.546C116.165 169.614 116.16 169.693 116.148 169.784C116.148 169.875 116.143 169.96 116.131 170.039H108.464V168.866H115.281L114.618 169.274C114.63 168.696 114.511 168.18 114.261 167.727C114.012 167.274 113.666 166.922 113.224 166.673C112.794 166.412 112.289 166.282 111.711 166.282C111.145 166.282 110.64 166.412 110.198 166.673C109.756 166.922 109.411 167.279 109.161 167.744C108.912 168.197 108.787 168.719 108.787 169.308V169.58C108.787 170.181 108.923 170.719 109.195 171.195C109.479 171.66 109.87 172.022 110.368 172.283C110.867 172.544 111.439 172.674 112.085 172.674C112.618 172.674 113.1 172.583 113.53 172.402C113.972 172.221 114.358 171.949 114.686 171.586L115.587 172.64C115.179 173.116 114.669 173.479 114.057 173.728C113.457 173.977 112.782 174.102 112.034 174.102ZM117.052 173.983L117.154 172.606C117.233 172.617 117.307 172.629 117.375 172.64C117.443 172.651 117.505 172.657 117.562 172.657C117.924 172.657 118.208 172.532 118.412 172.283C118.627 172.034 118.786 171.705 118.888 171.297C118.99 170.878 119.063 170.407 119.109 169.886C119.154 169.365 119.188 168.843 119.211 168.322L119.364 164.99H126.283V174H124.651V165.942L125.042 166.418H120.418L120.792 165.925L120.673 168.424C120.639 169.217 120.576 169.96 120.486 170.651C120.395 171.342 120.253 171.949 120.061 172.47C119.879 172.991 119.624 173.399 119.296 173.694C118.978 173.989 118.565 174.136 118.055 174.136C117.907 174.136 117.749 174.119 117.579 174.085C117.42 174.062 117.244 174.028 117.052 173.983ZM133.45 174.102C132.487 174.102 131.637 173.904 130.9 173.507C130.175 173.11 129.608 172.566 129.2 171.875C128.804 171.184 128.605 170.39 128.605 169.495C128.605 168.6 128.798 167.806 129.183 167.115C129.58 166.424 130.118 165.885 130.798 165.5C131.49 165.103 132.266 164.905 133.127 164.905C134 164.905 134.771 165.098 135.439 165.483C136.108 165.868 136.629 166.412 137.003 167.115C137.389 167.806 137.581 168.617 137.581 169.546C137.581 169.614 137.576 169.693 137.564 169.784C137.564 169.875 137.559 169.96 137.547 170.039H129.88V168.866H136.697L136.034 169.274C136.046 168.696 135.927 168.18 135.677 167.727C135.428 167.274 135.082 166.922 134.64 166.673C134.21 166.412 133.705 166.282 133.127 166.282C132.561 166.282 132.056 166.412 131.614 166.673C131.172 166.922 130.827 167.279 130.577 167.744C130.328 168.197 130.203 168.719 130.203 169.308V169.58C130.203 170.181 130.339 170.719 130.611 171.195C130.895 171.66 131.286 172.022 131.784 172.283C132.283 172.544 132.855 172.674 133.501 172.674C134.034 172.674 134.516 172.583 134.946 172.402C135.388 172.221 135.774 171.949 136.102 171.586L137.003 172.64C136.595 173.116 136.085 173.479 135.473 173.728C134.873 173.977 134.198 174.102 133.45 174.102ZM140.113 174V164.99H141.796L145.672 171.654H144.992L148.97 164.99H150.5V174H149.021V166.826L149.293 166.979L145.655 172.98H144.941L141.286 166.86L141.609 166.792V174H140.113ZM163.767 174V172.096L163.682 171.739V168.492C163.682 167.801 163.478 167.268 163.07 166.894C162.673 166.509 162.073 166.316 161.268 166.316C160.735 166.316 160.214 166.407 159.704 166.588C159.194 166.758 158.763 166.99 158.412 167.285L157.732 166.061C158.197 165.687 158.752 165.404 159.398 165.211C160.055 165.007 160.741 164.905 161.455 164.905C162.69 164.905 163.642 165.205 164.311 165.806C164.98 166.407 165.314 167.325 165.314 168.56V174H163.767ZM160.809 174.102C160.14 174.102 159.551 173.989 159.041 173.762C158.542 173.535 158.157 173.224 157.885 172.827C157.613 172.419 157.477 171.96 157.477 171.45C157.477 170.963 157.59 170.521 157.817 170.124C158.055 169.727 158.435 169.41 158.956 169.172C159.489 168.934 160.203 168.815 161.098 168.815H163.954V169.988H161.166C160.35 169.988 159.8 170.124 159.517 170.396C159.234 170.668 159.092 170.997 159.092 171.382C159.092 171.824 159.268 172.181 159.619 172.453C159.97 172.714 160.458 172.844 161.081 172.844C161.693 172.844 162.226 172.708 162.679 172.436C163.144 172.164 163.478 171.767 163.682 171.246L164.005 172.368C163.79 172.901 163.41 173.326 162.866 173.643C162.322 173.949 161.636 174.102 160.809 174.102ZM168.253 174V164.99H172.435C173.489 164.99 174.316 165.194 174.917 165.602C175.529 165.999 175.835 166.565 175.835 167.302C175.835 168.039 175.546 168.611 174.968 169.019C174.401 169.416 173.648 169.614 172.707 169.614L172.962 169.172C174.039 169.172 174.838 169.37 175.359 169.767C175.88 170.164 176.141 170.747 176.141 171.518C176.141 172.3 175.846 172.912 175.257 173.354C174.679 173.785 173.789 174 172.588 174H168.253ZM169.851 172.742H172.469C173.149 172.742 173.659 172.64 173.999 172.436C174.339 172.221 174.509 171.881 174.509 171.416C174.509 170.94 174.35 170.594 174.033 170.379C173.727 170.152 173.24 170.039 172.571 170.039H169.851V172.742ZM169.851 168.866H172.299C172.922 168.866 173.393 168.753 173.71 168.526C174.039 168.288 174.203 167.959 174.203 167.54C174.203 167.109 174.039 166.786 173.71 166.571C173.393 166.356 172.922 166.248 172.299 166.248H169.851V168.866ZM180.48 174V165.993L180.888 166.418H177.182V164.99H185.41V166.418H181.721L182.112 165.993V174H180.48ZM190.54 174.102C189.633 174.102 188.828 173.904 188.126 173.507C187.423 173.11 186.868 172.566 186.46 171.875C186.052 171.172 185.848 170.379 185.848 169.495C185.848 168.6 186.052 167.806 186.46 167.115C186.868 166.424 187.423 165.885 188.126 165.5C188.828 165.103 189.633 164.905 190.54 164.905C191.435 164.905 192.234 165.103 192.937 165.5C193.651 165.885 194.206 166.424 194.603 167.115C195.011 167.795 195.215 168.588 195.215 169.495C195.215 170.39 195.011 171.184 194.603 171.875C194.206 172.566 193.651 173.11 192.937 173.507C192.234 173.904 191.435 174.102 190.54 174.102ZM190.54 172.674C191.118 172.674 191.633 172.544 192.087 172.283C192.551 172.022 192.914 171.654 193.175 171.178C193.435 170.691 193.566 170.13 193.566 169.495C193.566 168.849 193.435 168.294 193.175 167.829C192.914 167.353 192.551 166.985 192.087 166.724C191.633 166.463 191.118 166.333 190.54 166.333C189.962 166.333 189.446 166.463 188.993 166.724C188.539 166.985 188.177 167.353 187.905 167.829C187.633 168.294 187.497 168.849 187.497 169.495C187.497 170.13 187.633 170.691 187.905 171.178C188.177 171.654 188.539 172.022 188.993 172.283C189.446 172.544 189.962 172.674 190.54 172.674ZM197.571 174V164.99H199.254L203.13 171.654H202.45L206.428 164.99H207.958V174H206.479V166.826L206.751 166.979L203.113 172.98H202.399L198.744 166.86L199.067 166.792V174H197.571ZM214.994 174.102C214.087 174.102 213.282 173.904 212.58 173.507C211.877 173.11 211.322 172.566 210.914 171.875C210.506 171.172 210.302 170.379 210.302 169.495C210.302 168.6 210.506 167.806 210.914 167.115C211.322 166.424 211.877 165.885 212.58 165.5C213.282 165.103 214.087 164.905 214.994 164.905C215.889 164.905 216.688 165.103 217.391 165.5C218.105 165.885 218.66 166.424 219.057 167.115C219.465 167.795 219.669 168.588 219.669 169.495C219.669 170.39 219.465 171.184 219.057 171.875C218.66 172.566 218.105 173.11 217.391 173.507C216.688 173.904 215.889 174.102 214.994 174.102ZM214.994 172.674C215.572 172.674 216.087 172.544 216.541 172.283C217.005 172.022 217.368 171.654 217.629 171.178C217.889 170.691 218.02 170.13 218.02 169.495C218.02 168.849 217.889 168.294 217.629 167.829C217.368 167.353 217.005 166.985 216.541 166.724C216.087 166.463 215.572 166.333 214.994 166.333C214.416 166.333 213.9 166.463 213.447 166.724C212.993 166.985 212.631 167.353 212.359 167.829C212.087 168.294 211.951 168.849 211.951 169.495C211.951 170.13 212.087 170.691 212.359 171.178C212.631 171.654 212.993 172.022 213.447 172.283C213.9 172.544 214.416 172.674 214.994 172.674ZM226.19 174.136C225.442 174.136 224.779 174.017 224.201 173.779C223.635 173.541 223.147 173.19 222.739 172.725C222.331 172.249 222.02 171.654 221.804 170.94C221.6 170.215 221.498 169.365 221.498 168.39C221.498 167.619 221.566 166.928 221.702 166.316C221.838 165.704 222.031 165.16 222.28 164.684C222.541 164.208 222.858 163.794 223.232 163.443C223.618 163.092 224.048 162.803 224.524 162.576C225.012 162.338 225.544 162.157 226.122 162.032L230.236 161.114L230.474 162.627L226.683 163.443C226.457 163.488 226.185 163.556 225.867 163.647C225.55 163.738 225.227 163.879 224.898 164.072C224.57 164.253 224.264 164.508 223.98 164.837C223.697 165.166 223.47 165.596 223.3 166.129C223.13 166.65 223.045 167.296 223.045 168.067C223.045 168.282 223.051 168.447 223.062 168.56C223.074 168.673 223.085 168.787 223.096 168.9C223.119 169.013 223.136 169.183 223.147 169.41L222.467 168.713C222.649 168.09 222.938 167.546 223.334 167.081C223.731 166.616 224.207 166.259 224.762 166.01C225.329 165.749 225.947 165.619 226.615 165.619C227.454 165.619 228.196 165.8 228.842 166.163C229.5 166.526 230.015 167.024 230.389 167.659C230.763 168.294 230.95 169.019 230.95 169.835C230.95 170.662 230.752 171.405 230.355 172.062C229.97 172.708 229.42 173.218 228.706 173.592C227.992 173.955 227.154 174.136 226.19 174.136ZM226.343 172.776C226.921 172.776 227.431 172.651 227.873 172.402C228.315 172.141 228.661 171.796 228.91 171.365C229.16 170.923 229.284 170.43 229.284 169.886C229.284 169.342 229.16 168.86 228.91 168.441C228.661 168.022 228.315 167.693 227.873 167.455C227.431 167.206 226.91 167.081 226.309 167.081C225.743 167.081 225.233 167.2 224.779 167.438C224.326 167.665 223.975 167.988 223.725 168.407C223.476 168.815 223.351 169.291 223.351 169.835C223.351 170.379 223.476 170.878 223.725 171.331C223.986 171.773 224.337 172.124 224.779 172.385C225.233 172.646 225.754 172.776 226.343 172.776ZM233.281 174V164.99H234.913V171.552L240.438 164.99H241.917V174H240.285V167.438L234.777 174H233.281ZM243.589 173.983L243.691 172.606C243.77 172.617 243.844 172.629 243.912 172.64C243.98 172.651 244.042 172.657 244.099 172.657C244.462 172.657 244.745 172.532 244.949 172.283C245.164 172.034 245.323 171.705 245.425 171.297C245.527 170.878 245.601 170.407 245.646 169.886C245.691 169.365 245.725 168.843 245.748 168.322L245.901 164.99H252.82V174H251.188V165.942L251.579 166.418H246.955L247.329 165.925L247.21 168.424C247.176 169.217 247.114 169.96 247.023 170.651C246.932 171.342 246.791 171.949 246.598 172.47C246.417 172.991 246.162 173.399 245.833 173.694C245.516 173.989 245.102 174.136 244.592 174.136C244.445 174.136 244.286 174.119 244.116 174.085C243.957 174.062 243.782 174.028 243.589 173.983ZM261.739 174V170.838L261.994 171.144H259.121C257.919 171.144 256.979 170.889 256.299 170.379C255.63 169.869 255.296 169.127 255.296 168.152C255.296 167.109 255.653 166.322 256.367 165.789C257.092 165.256 258.055 164.99 259.257 164.99H263.201V174H261.739ZM255.211 174L257.659 170.549H259.342L256.962 174H255.211ZM261.739 170.328V165.959L261.994 166.418H259.308C258.56 166.418 257.982 166.56 257.574 166.843C257.166 167.115 256.962 167.568 256.962 168.203C256.962 169.382 257.721 169.971 259.24 169.971H261.994L261.739 170.328Z" fill="#434343"/>
</svg>
