<svg width="160" height="160" viewBox="0 0 160 160" fill="none" xmlns="http://www.w3.org/2000/svg">
<rect width="160" height="160" rx="30" fill="#00AAFF"/>
<path d="M20.9341 98.86L21.4591 97.75C21.9191 98.11 22.4241 98.38 22.9741 98.56C23.5341 98.74 24.0891 98.835 24.6391 98.845C25.1891 98.845 25.6941 98.77 26.1541 98.62C26.6241 98.47 26.9991 98.245 27.2791 97.945C27.5591 97.645 27.6991 97.275 27.6991 96.835C27.6991 96.295 27.4791 95.885 27.0391 95.605C26.6091 95.325 26.0091 95.185 25.2391 95.185H22.8991V93.97H25.1341C25.8041 93.97 26.3241 93.835 26.6941 93.565C27.0741 93.285 27.2641 92.9 27.2641 92.41C27.2641 92.04 27.1491 91.73 26.9191 91.48C26.6991 91.22 26.3941 91.025 26.0041 90.895C25.6241 90.765 25.1891 90.7 24.6991 90.7C24.2191 90.69 23.7241 90.755 23.2141 90.895C22.7041 91.025 22.2141 91.235 21.7441 91.525L21.2641 90.295C21.9041 89.935 22.5691 89.685 23.2591 89.545C23.9591 89.395 24.6341 89.35 25.2841 89.41C25.9341 89.46 26.5191 89.61 27.0391 89.86C27.5691 90.1 27.9891 90.42 28.2991 90.82C28.6191 91.21 28.7791 91.68 28.7791 92.23C28.7791 92.73 28.6491 93.175 28.3891 93.565C28.1291 93.945 27.7691 94.24 27.3091 94.45C26.8491 94.65 26.3141 94.75 25.7041 94.75L25.7641 94.345C26.4641 94.345 27.0691 94.46 27.5791 94.69C28.0991 94.91 28.4991 95.225 28.7791 95.635C29.0691 96.045 29.2141 96.52 29.2141 97.06C29.2141 97.57 29.0841 98.025 28.8241 98.425C28.5641 98.815 28.2091 99.145 27.7591 99.415C27.3191 99.675 26.8141 99.865 26.2441 99.985C25.6841 100.105 25.0941 100.145 24.4741 100.105C23.8541 100.065 23.2391 99.945 22.6291 99.745C22.0291 99.545 21.4641 99.25 20.9341 98.86ZM36.3481 100V98.32L36.2731 98.005V95.14C36.2731 94.53 36.0931 94.06 35.7331 93.73C35.3831 93.39 34.8531 93.22 34.1431 93.22C33.6731 93.22 33.2131 93.3 32.7631 93.46C32.3131 93.61 31.9331 93.815 31.6231 94.075L31.0231 92.995C31.4331 92.665 31.9231 92.415 32.4931 92.245C33.0731 92.065 33.6781 91.975 34.3081 91.975C35.3981 91.975 36.2381 92.24 36.8281 92.77C37.4181 93.3 37.7131 94.11 37.7131 95.2V100H36.3481ZM33.7381 100.09C33.1481 100.09 32.6281 99.99 32.1781 99.79C31.7381 99.59 31.3981 99.315 31.1581 98.965C30.9181 98.605 30.7981 98.2 30.7981 97.75C30.7981 97.32 30.8981 96.93 31.0981 96.58C31.3081 96.23 31.6431 95.95 32.1031 95.74C32.5731 95.53 33.2031 95.425 33.9931 95.425H36.5131V96.46H34.0531C33.3331 96.46 32.8481 96.58 32.5981 96.82C32.3481 97.06 32.2231 97.35 32.2231 97.69C32.2231 98.08 32.3781 98.395 32.6881 98.635C32.9981 98.865 33.4281 98.98 33.9781 98.98C34.5181 98.98 34.9881 98.86 35.3881 98.62C35.7981 98.38 36.0931 98.03 36.2731 97.57L36.5581 98.56C36.3681 99.03 36.0331 99.405 35.5531 99.685C35.0731 99.955 34.4681 100.09 33.7381 100.09ZM40.3061 100V92.05H41.7911L45.2111 97.93H44.6111L48.1211 92.05H49.4711V100H48.1661V93.67L48.4061 93.805L45.1961 99.1H44.5661L41.3411 93.7L41.6261 93.64V100H40.3061ZM55.8139 100.09C54.9639 100.09 54.2139 99.915 53.5639 99.565C52.9239 99.215 52.4239 98.735 52.0639 98.125C51.7139 97.515 51.5389 96.815 51.5389 96.025C51.5389 95.235 51.7089 94.535 52.0489 93.925C52.3989 93.315 52.8739 92.84 53.4739 92.5C54.0839 92.15 54.7689 91.975 55.5289 91.975C56.2989 91.975 56.9789 92.145 57.5689 92.485C58.1589 92.825 58.6189 93.305 58.9489 93.925C59.2889 94.535 59.4589 95.25 59.4589 96.07C59.4589 96.13 59.4539 96.2 59.4439 96.28C59.4439 96.36 59.4389 96.435 59.4289 96.505H52.6639V95.47H58.6789L58.0939 95.83C58.1039 95.32 57.9989 94.865 57.7789 94.465C57.5589 94.065 57.2539 93.755 56.8639 93.535C56.4839 93.305 56.0389 93.19 55.5289 93.19C55.0289 93.19 54.5839 93.305 54.1939 93.535C53.8039 93.755 53.4989 94.07 53.2789 94.48C53.0589 94.88 52.9489 95.34 52.9489 95.86V96.1C52.9489 96.63 53.0689 97.105 53.3089 97.525C53.5589 97.935 53.9039 98.255 54.3439 98.485C54.7839 98.715 55.2889 98.83 55.8589 98.83C56.3289 98.83 56.7539 98.75 57.1339 98.59C57.5239 98.43 57.8639 98.19 58.1539 97.87L58.9489 98.8C58.5889 99.22 58.1389 99.54 57.5989 99.76C57.0689 99.98 56.4739 100.09 55.8139 100.09ZM61.6929 100V92.05H63.1329V95.425H67.6629V92.05H69.1029V100H67.6629V96.67H63.1329V100H61.6929ZM76.7778 100V98.32L76.7028 98.005V95.14C76.7028 94.53 76.5228 94.06 76.1628 93.73C75.8128 93.39 75.2828 93.22 74.5728 93.22C74.1028 93.22 73.6428 93.3 73.1928 93.46C72.7428 93.61 72.3628 93.815 72.0528 94.075L71.4528 92.995C71.8628 92.665 72.3528 92.415 72.9228 92.245C73.5028 92.065 74.1078 91.975 74.7378 91.975C75.8278 91.975 76.6678 92.24 77.2578 92.77C77.8478 93.3 78.1428 94.11 78.1428 95.2V100H76.7778ZM74.1678 100.09C73.5778 100.09 73.0578 99.99 72.6078 99.79C72.1678 99.59 71.8278 99.315 71.5878 98.965C71.3478 98.605 71.2278 98.2 71.2278 97.75C71.2278 97.32 71.3278 96.93 71.5278 96.58C71.7378 96.23 72.0728 95.95 72.5328 95.74C73.0028 95.53 73.6328 95.425 74.4228 95.425H76.9428V96.46H74.4828C73.7628 96.46 73.2778 96.58 73.0278 96.82C72.7778 97.06 72.6528 97.35 72.6528 97.69C72.6528 98.08 72.8078 98.395 73.1178 98.635C73.4278 98.865 73.8578 98.98 74.4078 98.98C74.9478 98.98 75.4178 98.86 75.8178 98.62C76.2278 98.38 76.5228 98.03 76.7028 97.57L76.9878 98.56C76.7978 99.03 76.4628 99.405 75.9828 99.685C75.5028 99.955 74.8978 100.09 74.1678 100.09ZM88.2291 100.09C87.4191 100.09 86.6941 99.915 86.0541 99.565C85.4241 99.215 84.9291 98.735 84.5691 98.125C84.2091 97.515 84.0291 96.815 84.0291 96.025C84.0291 95.235 84.2091 94.535 84.5691 93.925C84.9291 93.315 85.4241 92.84 86.0541 92.5C86.6941 92.15 87.4191 91.975 88.2291 91.975C88.9491 91.975 89.5891 92.12 90.1491 92.41C90.7191 92.69 91.1591 93.11 91.4691 93.67L90.3741 94.375C90.1141 93.985 89.7941 93.7 89.4141 93.52C89.0441 93.33 88.6441 93.235 88.2141 93.235C87.6941 93.235 87.2291 93.35 86.8191 93.58C86.4091 93.81 86.0841 94.135 85.8441 94.555C85.6041 94.965 85.4841 95.455 85.4841 96.025C85.4841 96.595 85.6041 97.09 85.8441 97.51C86.0841 97.93 86.4091 98.255 86.8191 98.485C87.2291 98.715 87.6941 98.83 88.2141 98.83C88.6441 98.83 89.0441 98.74 89.4141 98.56C89.7941 98.37 90.1141 98.08 90.3741 97.69L91.4691 98.38C91.1591 98.93 90.7191 99.355 90.1491 99.655C89.5891 99.945 88.9491 100.09 88.2291 100.09ZM93.3335 100V92.05H97.0235C97.9535 92.05 98.6835 92.23 99.2135 92.59C99.7535 92.94 100.023 93.44 100.023 94.09C100.023 94.74 99.7685 95.245 99.2585 95.605C98.7585 95.955 98.0935 96.13 97.2635 96.13L97.4885 95.74C98.4385 95.74 99.1435 95.915 99.6035 96.265C100.063 96.615 100.293 97.13 100.293 97.81C100.293 98.5 100.033 99.04 99.5135 99.43C99.0035 99.81 98.2185 100 97.1585 100H93.3335ZM94.7435 98.89H97.0535C97.6535 98.89 98.1035 98.8 98.4035 98.62C98.7035 98.43 98.8535 98.13 98.8535 97.72C98.8535 97.3 98.7135 96.995 98.4335 96.805C98.1635 96.605 97.7335 96.505 97.1435 96.505H94.7435V98.89ZM94.7435 95.47H96.9035C97.4535 95.47 97.8685 95.37 98.1485 95.17C98.4385 94.96 98.5835 94.67 98.5835 94.3C98.5835 93.92 98.4385 93.635 98.1485 93.445C97.8685 93.255 97.4535 93.16 96.9035 93.16H94.7435V95.47ZM106.087 100.09C105.237 100.09 104.487 99.915 103.837 99.565C103.197 99.215 102.697 98.735 102.337 98.125C101.987 97.515 101.812 96.815 101.812 96.025C101.812 95.235 101.982 94.535 102.322 93.925C102.672 93.315 103.147 92.84 103.747 92.5C104.357 92.15 105.042 91.975 105.802 91.975C106.572 91.975 107.252 92.145 107.842 92.485C108.432 92.825 108.892 93.305 109.222 93.925C109.562 94.535 109.732 95.25 109.732 96.07C109.732 96.13 109.727 96.2 109.717 96.28C109.717 96.36 109.712 96.435 109.702 96.505H102.937V95.47H108.952L108.367 95.83C108.377 95.32 108.272 94.865 108.052 94.465C107.832 94.065 107.527 93.755 107.137 93.535C106.757 93.305 106.312 93.19 105.802 93.19C105.302 93.19 104.857 93.305 104.467 93.535C104.077 93.755 103.772 94.07 103.552 94.48C103.332 94.88 103.222 95.34 103.222 95.86V96.1C103.222 96.63 103.342 97.105 103.582 97.525C103.832 97.935 104.177 98.255 104.617 98.485C105.057 98.715 105.562 98.83 106.132 98.83C106.602 98.83 107.027 98.75 107.407 98.59C107.797 98.43 108.137 98.19 108.427 97.87L109.222 98.8C108.862 99.22 108.412 99.54 107.872 99.76C107.342 99.98 106.747 100.09 106.087 100.09ZM116.976 96.745C116.556 96.945 116.121 97.105 115.671 97.225C115.231 97.335 114.776 97.39 114.306 97.39C113.346 97.39 112.586 97.165 112.026 96.715C111.476 96.265 111.201 95.57 111.201 94.63V92.05H112.641V94.54C112.641 95.11 112.816 95.53 113.166 95.8C113.526 96.07 114.006 96.205 114.606 96.205C114.986 96.205 115.376 96.155 115.776 96.055C116.186 95.955 116.586 95.815 116.976 95.635V96.745ZM116.871 100V92.05H118.311V100H116.871ZM124.647 100.09C123.797 100.09 123.047 99.915 122.397 99.565C121.757 99.215 121.257 98.735 120.897 98.125C120.547 97.515 120.372 96.815 120.372 96.025C120.372 95.235 120.542 94.535 120.882 93.925C121.232 93.315 121.707 92.84 122.307 92.5C122.917 92.15 123.602 91.975 124.362 91.975C125.132 91.975 125.812 92.145 126.402 92.485C126.992 92.825 127.452 93.305 127.782 93.925C128.122 94.535 128.292 95.25 128.292 96.07C128.292 96.13 128.287 96.2 128.277 96.28C128.277 96.36 128.272 96.435 128.262 96.505H121.497V95.47H127.512L126.927 95.83C126.937 95.32 126.832 94.865 126.612 94.465C126.392 94.065 126.087 93.755 125.697 93.535C125.317 93.305 124.872 93.19 124.362 93.19C123.862 93.19 123.417 93.305 123.027 93.535C122.637 93.755 122.332 94.07 122.112 94.48C121.892 94.88 121.782 95.34 121.782 95.86V96.1C121.782 96.63 121.902 97.105 122.142 97.525C122.392 97.935 122.737 98.255 123.177 98.485C123.617 98.715 124.122 98.83 124.692 98.83C125.162 98.83 125.587 98.75 125.967 98.59C126.357 98.43 126.697 98.19 126.987 97.87L127.782 98.8C127.422 99.22 126.972 99.54 126.432 99.76C125.902 99.98 125.307 100.09 124.647 100.09ZM130.526 100V92.05H131.966V97.84L136.841 92.05H138.146V100H136.706V94.21L131.846 100H130.526ZM134.246 91.015C133.516 91.015 132.941 90.84 132.521 90.49C132.111 90.13 131.901 89.615 131.891 88.945H132.866C132.876 89.325 133.001 89.625 133.241 89.845C133.491 90.065 133.821 90.175 134.231 90.175C134.641 90.175 134.971 90.065 135.221 89.845C135.471 89.625 135.601 89.325 135.611 88.945H136.616C136.606 89.615 136.391 90.13 135.971 90.49C135.551 90.84 134.976 91.015 134.246 91.015ZM40.6682 118.105C41.3682 118.105 41.9882 118.005 42.5282 117.805C43.0782 117.595 43.5132 117.31 43.8332 116.95C44.1532 116.58 44.3132 116.155 44.3132 115.675C44.3132 115.075 44.0582 114.6 43.5482 114.25C43.0382 113.9 42.3382 113.725 41.4482 113.725L41.3882 114.07C41.9082 114.07 42.3682 113.985 42.7682 113.815C43.1682 113.645 43.4882 113.415 43.7282 113.125C43.9682 112.825 44.0882 112.485 44.0882 112.105C44.0882 111.655 43.9282 111.265 43.6082 110.935C43.2982 110.605 42.8732 110.355 42.3332 110.185C41.7932 110.005 41.1782 109.925 40.4882 109.945C40.0282 109.955 39.5632 110.025 39.0932 110.155C38.6332 110.275 38.1632 110.45 37.6832 110.68L38.0732 111.805C38.5032 111.595 38.9232 111.44 39.3332 111.34C39.7532 111.24 40.1632 111.185 40.5632 111.175C40.9732 111.175 41.3282 111.22 41.6282 111.31C41.9382 111.4 42.1782 111.53 42.3482 111.7C42.5182 111.87 42.6032 112.075 42.6032 112.315C42.6032 112.535 42.5282 112.73 42.3782 112.9C42.2382 113.06 42.0382 113.18 41.7782 113.26C41.5182 113.34 41.2132 113.38 40.8632 113.38H39.5132V114.415H40.9532C41.5432 114.415 42.0032 114.515 42.3332 114.715C42.6632 114.915 42.8282 115.2 42.8282 115.57C42.8282 115.83 42.7382 116.06 42.5582 116.26C42.3782 116.45 42.1182 116.6 41.7782 116.71C41.4482 116.82 41.0532 116.875 40.5932 116.875C40.0932 116.875 39.5982 116.81 39.1082 116.68C38.6182 116.54 38.1832 116.35 37.8032 116.11L37.3682 117.205C37.8182 117.495 38.3282 117.72 38.8982 117.88C39.4782 118.03 40.0682 118.105 40.6682 118.105ZM51.3774 118V116.32L51.3024 116.005V113.14C51.3024 112.53 51.1224 112.06 50.7624 111.73C50.4124 111.39 49.8824 111.22 49.1724 111.22C48.7024 111.22 48.2424 111.3 47.7924 111.46C47.3424 111.61 46.9624 111.815 46.6524 112.075L46.0524 110.995C46.4624 110.665 46.9524 110.415 47.5224 110.245C48.1024 110.065 48.7074 109.975 49.3374 109.975C50.4274 109.975 51.2674 110.24 51.8574 110.77C52.4474 111.3 52.7424 112.11 52.7424 113.2V118H51.3774ZM48.7674 118.09C48.1774 118.09 47.6574 117.99 47.2074 117.79C46.7674 117.59 46.4274 117.315 46.1874 116.965C45.9474 116.605 45.8274 116.2 45.8274 115.75C45.8274 115.32 45.9274 114.93 46.1274 114.58C46.3374 114.23 46.6724 113.95 47.1324 113.74C47.6024 113.53 48.2324 113.425 49.0224 113.425H51.5424V114.46H49.0824C48.3624 114.46 47.8774 114.58 47.6274 114.82C47.3774 115.06 47.2524 115.35 47.2524 115.69C47.2524 116.08 47.4074 116.395 47.7174 116.635C48.0274 116.865 48.4574 116.98 49.0074 116.98C49.5474 116.98 50.0174 116.86 50.4174 116.62C50.8274 116.38 51.1224 116.03 51.3024 115.57L51.5874 116.56C51.3974 117.03 51.0624 117.405 50.5824 117.685C50.1024 117.955 49.4974 118.09 48.7674 118.09ZM64.7704 118L62.2354 114.13L63.4204 113.41L66.4804 118H64.7704ZM60.5854 114.64V113.41H63.1654V114.64H60.5854ZM63.5554 114.19L62.1904 114.01L64.7254 110.05H66.2704L63.5554 114.19ZM55.8454 118H54.1354L57.1804 113.41L58.3654 114.13L55.8454 118ZM61.0204 118H59.5804V110.05H61.0204V118ZM60.0154 114.64H57.4504V113.41H60.0154V114.64ZM57.0604 114.19L54.3454 110.05H55.8754L58.4104 114.01L57.0604 114.19ZM68.0649 118V110.05H69.5049V115.84L74.3799 110.05H75.6849V118H74.2449V112.21L69.3849 118H68.0649ZM78.48 118V110.05H84.33V111.31H79.575L79.92 110.98V118H78.48ZM90.6792 118V116.32L90.6042 116.005V113.14C90.6042 112.53 90.4242 112.06 90.0642 111.73C89.7142 111.39 89.1842 111.22 88.4742 111.22C88.0042 111.22 87.5442 111.3 87.0942 111.46C86.6442 111.61 86.2642 111.815 85.9542 112.075L85.3542 110.995C85.7642 110.665 86.2542 110.415 86.8242 110.245C87.4042 110.065 88.0092 109.975 88.6392 109.975C89.7292 109.975 90.5692 110.24 91.1592 110.77C91.7492 111.3 92.0442 112.11 92.0442 113.2V118H90.6792ZM88.0692 118.09C87.4792 118.09 86.9592 117.99 86.5092 117.79C86.0692 117.59 85.7292 117.315 85.4892 116.965C85.2492 116.605 85.1292 116.2 85.1292 115.75C85.1292 115.32 85.2292 114.93 85.4292 114.58C85.6392 114.23 85.9742 113.95 86.4342 113.74C86.9042 113.53 87.5342 113.425 88.3242 113.425H90.8442V114.46H88.3842C87.6642 114.46 87.1792 114.58 86.9292 114.82C86.6792 115.06 86.5542 115.35 86.5542 115.69C86.5542 116.08 86.7092 116.395 87.0192 116.635C87.3292 116.865 87.7592 116.98 88.3092 116.98C88.8492 116.98 89.3192 116.86 89.7192 116.62C90.1292 116.38 90.4242 116.03 90.6042 115.57L90.8892 116.56C90.6992 117.03 90.3642 117.405 89.8842 117.685C89.4042 117.955 88.7992 118.09 88.0692 118.09ZM94.6372 118V110.05H96.0772V113.425H100.607V110.05H102.047V118H100.607V114.67H96.0772V118H94.6372ZM104.847 118V110.05H106.287V115.84L111.162 110.05H112.467V118H111.027V112.21L106.167 118H104.847ZM120.347 118V115.21L120.572 115.48H118.037C116.977 115.48 116.147 115.255 115.547 114.805C114.957 114.355 114.662 113.7 114.662 112.84C114.662 111.92 114.977 111.225 115.607 110.755C116.247 110.285 117.097 110.05 118.157 110.05H121.637V118H120.347ZM114.587 118L116.747 114.955H118.232L116.132 118H114.587ZM120.347 114.76V110.905L120.572 111.31H118.202C117.542 111.31 117.032 111.435 116.672 111.685C116.312 111.925 116.132 112.325 116.132 112.885C116.132 113.925 116.802 114.445 118.142 114.445H120.572L120.347 114.76Z" fill="white"/>
<path d="M67.2759 75.9979C66.1645 75.9979 65.0531 75.9942 63.9416 76C63.4585 76.0022 63.0517 75.8482 62.7125 75.4973C62.3013 75.0717 61.8727 74.6627 61.4594 74.2392C60.8601 73.6239 60.847 72.7645 61.4209 72.2102C61.9846 71.6654 62.881 71.6429 63.4077 72.293C64.0448 73.0783 64.7915 73.2955 65.7664 73.2396C67.1154 73.1626 68.4716 73.2163 69.825 73.2243C70.0567 73.2258 70.2311 73.1728 70.3989 72.997C70.9415 72.4296 71.5001 71.8775 72.0624 71.3291C72.207 71.1881 72.2622 71.1032 72.0835 70.9317C71.4566 70.3288 70.8413 69.7135 70.2376 69.0873C70.0654 68.9086 69.9819 68.9645 69.8402 69.1091C69.0855 69.8755 68.3322 70.6426 67.5592 71.3901C66.7609 72.1616 65.5318 71.8354 65.2325 70.7799C65.0807 70.2445 65.2441 69.784 65.632 69.396C66.3752 68.6529 67.1118 67.9032 67.8658 67.1703C68.0452 66.9959 68.0569 66.9022 67.8723 66.7213C66.9149 65.7828 65.9705 64.8297 65.0233 63.881C64.2903 63.1466 64.2903 62.3787 65.0233 61.6457C65.7839 60.8852 66.551 60.1319 67.305 59.3655C67.4546 59.2137 67.5324 59.189 67.698 59.3553C71.0069 62.6758 74.3216 65.9905 77.6421 69.2994C77.8099 69.4672 77.778 69.5421 77.6298 69.6895C75.6858 71.624 73.7463 73.5636 71.8103 75.5061C71.4754 75.8417 71.0817 76.0015 70.6117 76C69.5003 75.9971 68.3888 75.9993 67.2774 75.9993L67.2759 75.9979Z" fill="white"/>
<path d="M99.3813 40.5501C99.7881 40.1477 99.9516 39.6435 99.993 39.074C99.9196 38.2183 99.5477 37.5442 98.7196 37.1904C97.898 36.8388 97.1359 36.979 96.48 37.571C95.9519 38.0483 95.4513 38.5583 94.9574 39.0718C94.7859 39.2498 94.6559 39.2789 94.4336 39.1634C93.6128 38.7377 92.7265 38.5052 91.8105 38.4486C89.5455 38.3084 87.6095 39.0515 85.9983 40.6635C82.6073 44.0559 79.2033 47.4352 75.8137 50.8284C75.6089 51.0333 75.5094 51.0209 75.3183 50.8226C74.6217 50.102 73.9061 49.3988 73.195 48.6912C72.4954 47.9953 71.7152 47.996 71.012 48.6971C69.7023 50.0017 68.3947 51.3078 67.0886 52.6161C66.3854 53.3208 66.3847 54.1032 67.0828 54.8013C72.114 59.834 77.146 64.866 82.1787 69.8972C82.8812 70.5997 83.6585 70.6062 84.3624 69.9067C85.6816 68.5947 86.9964 67.2784 88.3113 65.9614C88.9956 65.2764 88.9956 64.4969 88.3091 63.8054C87.5943 63.0847 86.8824 62.3612 86.1523 61.6566C85.9344 61.4466 85.9002 61.3406 86.1414 61.1023C89.5266 57.7557 92.8994 54.3966 96.2722 51.0369C98.6985 48.6208 99.2404 45.5262 97.7788 42.4359C97.7062 42.2819 97.7091 42.1969 97.8348 42.0756C98.3571 41.5729 98.8678 41.0586 99.3828 40.548L99.3813 40.5501ZM86.6303 54.9807C86.0644 55.2451 85.5428 55.1311 85.0983 54.7206C84.6551 54.3109 84.2403 53.8714 83.8132 53.445C83.3265 52.959 82.8361 52.4752 82.3545 51.9849C81.7262 51.3456 81.708 50.5153 82.3015 49.9334C82.8776 49.369 83.7129 49.3981 84.3268 50.0097C85.2167 50.8952 86.1015 51.7858 86.9913 52.6721C87.2855 52.9656 87.4635 53.3048 87.4533 53.7312C87.4286 54.3116 87.157 54.7351 86.6303 54.9814V54.9807ZM92.9008 48.7C92.6546 49.2491 92.2165 49.5121 91.6267 49.5419C91.2279 49.5433 90.8988 49.3879 90.6235 49.114C89.7089 48.2024 88.7929 47.2914 87.8841 46.3732C87.3095 45.7928 87.295 44.961 87.8347 44.4002C88.3941 43.8183 89.2324 43.7944 89.8331 44.3791C90.7753 45.2974 91.7059 46.2279 92.6234 47.1715C93.0447 47.6052 93.1573 48.129 92.9008 48.7007V48.7Z" fill="white"/>
</svg>
