<svg width="160" height="160" viewBox="0 0 160 160" fill="none" xmlns="http://www.w3.org/2000/svg">
<rect width="160" height="160" rx="30" fill="#00AAFF"/>
<path d="M10.7827 92.86L11.3077 91.75C11.7677 92.11 12.2727 92.38 12.8227 92.56C13.3827 92.74 13.9377 92.835 14.4877 92.845C15.0377 92.845 15.5427 92.77 16.0027 92.62C16.4727 92.47 16.8477 92.245 17.1277 91.945C17.4077 91.645 17.5477 91.275 17.5477 90.835C17.5477 90.295 17.3277 89.885 16.8877 89.605C16.4577 89.325 15.8577 89.185 15.0877 89.185H12.7477V87.97H14.9827C15.6527 87.97 16.1727 87.835 16.5427 87.565C16.9227 87.285 17.1127 86.9 17.1127 86.41C17.1127 86.04 16.9977 85.73 16.7677 85.48C16.5477 85.22 16.2427 85.025 15.8527 84.895C15.4727 84.765 15.0377 84.7 14.5477 84.7C14.0677 84.69 13.5727 84.755 13.0627 84.895C12.5527 85.025 12.0627 85.235 11.5927 85.525L11.1127 84.295C11.7527 83.935 12.4177 83.685 13.1077 83.545C13.8077 83.395 14.4827 83.35 15.1327 83.41C15.7827 83.46 16.3677 83.61 16.8877 83.86C17.4177 84.1 17.8377 84.42 18.1477 84.82C18.4677 85.21 18.6277 85.68 18.6277 86.23C18.6277 86.73 18.4977 87.175 18.2377 87.565C17.9777 87.945 17.6177 88.24 17.1577 88.45C16.6977 88.65 16.1627 88.75 15.5527 88.75L15.6127 88.345C16.3127 88.345 16.9177 88.46 17.4277 88.69C17.9477 88.91 18.3477 89.225 18.6277 89.635C18.9177 90.045 19.0627 90.52 19.0627 91.06C19.0627 91.57 18.9327 92.025 18.6727 92.425C18.4127 92.815 18.0577 93.145 17.6077 93.415C17.1677 93.675 16.6627 93.865 16.0927 93.985C15.5327 94.105 14.9427 94.145 14.3227 94.105C13.7027 94.065 13.0877 93.945 12.4777 93.745C11.8777 93.545 11.3127 93.25 10.7827 92.86ZM26.1968 94V92.32L26.1218 92.005V89.14C26.1218 88.53 25.9418 88.06 25.5818 87.73C25.2318 87.39 24.7018 87.22 23.9918 87.22C23.5218 87.22 23.0618 87.3 22.6118 87.46C22.1618 87.61 21.7818 87.815 21.4718 88.075L20.8718 86.995C21.2818 86.665 21.7718 86.415 22.3418 86.245C22.9218 86.065 23.5268 85.975 24.1568 85.975C25.2468 85.975 26.0868 86.24 26.6768 86.77C27.2668 87.3 27.5618 88.11 27.5618 89.2V94H26.1968ZM23.5868 94.09C22.9968 94.09 22.4768 93.99 22.0268 93.79C21.5868 93.59 21.2468 93.315 21.0068 92.965C20.7668 92.605 20.6468 92.2 20.6468 91.75C20.6468 91.32 20.7468 90.93 20.9468 90.58C21.1568 90.23 21.4918 89.95 21.9518 89.74C22.4218 89.53 23.0518 89.425 23.8418 89.425H26.3618V90.46H23.9018C23.1818 90.46 22.6968 90.58 22.4468 90.82C22.1968 91.06 22.0718 91.35 22.0718 91.69C22.0718 92.08 22.2268 92.395 22.5368 92.635C22.8468 92.865 23.2768 92.98 23.8268 92.98C24.3668 92.98 24.8368 92.86 25.2368 92.62C25.6468 92.38 25.9418 92.03 26.1218 91.57L26.4068 92.56C26.2168 93.03 25.8818 93.405 25.4018 93.685C24.9218 93.955 24.3168 94.09 23.5868 94.09ZM30.1548 94V86.05H37.5198V94H36.0798V86.95L36.4248 87.31H31.2498L31.5948 86.95V94H30.1548ZM40.7111 97C40.3311 97 39.9611 96.935 39.6011 96.805C39.2411 96.685 38.9311 96.505 38.6711 96.265L39.2861 95.185C39.4861 95.375 39.7061 95.52 39.9461 95.62C40.1861 95.72 40.4411 95.77 40.7111 95.77C41.0611 95.77 41.3511 95.68 41.5811 95.5C41.8111 95.32 42.0261 95 42.2261 94.54L42.7211 93.445L42.8711 93.265L45.9911 86.05H47.4011L43.5461 94.795C43.3161 95.355 43.0561 95.795 42.7661 96.115C42.4861 96.435 42.1761 96.66 41.8361 96.79C41.4961 96.93 41.1211 97 40.7111 97ZM42.6011 94.255L38.9711 86.05H40.4711L43.5611 93.13L42.6011 94.255ZM52.1207 94.09C51.3107 94.09 50.5857 93.915 49.9457 93.565C49.3157 93.215 48.8207 92.735 48.4607 92.125C48.1007 91.515 47.9207 90.815 47.9207 90.025C47.9207 89.235 48.1007 88.535 48.4607 87.925C48.8207 87.315 49.3157 86.84 49.9457 86.5C50.5857 86.15 51.3107 85.975 52.1207 85.975C52.8407 85.975 53.4807 86.12 54.0407 86.41C54.6107 86.69 55.0507 87.11 55.3607 87.67L54.2657 88.375C54.0057 87.985 53.6857 87.7 53.3057 87.52C52.9357 87.33 52.5357 87.235 52.1057 87.235C51.5857 87.235 51.1207 87.35 50.7107 87.58C50.3007 87.81 49.9757 88.135 49.7357 88.555C49.4957 88.965 49.3757 89.455 49.3757 90.025C49.3757 90.595 49.4957 91.09 49.7357 91.51C49.9757 91.93 50.3007 92.255 50.7107 92.485C51.1207 92.715 51.5857 92.83 52.1057 92.83C52.5357 92.83 52.9357 92.74 53.3057 92.56C53.6857 92.37 54.0057 92.08 54.2657 91.69L55.3607 92.38C55.0507 92.93 54.6107 93.355 54.0407 93.655C53.4807 93.945 52.8407 94.09 52.1207 94.09ZM62.9851 94L59.9101 90.13L61.0951 89.41L64.6801 94H62.9851ZM57.2251 94V86.05H58.6651V94H57.2251ZM58.2301 90.64V89.41H60.8551V90.64H58.2301ZM61.2151 90.19L59.8801 90.01L62.9251 86.05H64.4701L61.2151 90.19ZM75.6482 93.325V87.31H72.1982L72.1232 88.84C72.1032 89.34 72.0682 89.825 72.0182 90.295C71.9782 90.755 71.9082 91.18 71.8082 91.57C71.7182 91.96 71.5832 92.28 71.4032 92.53C71.2232 92.78 70.9832 92.935 70.6832 92.995L69.2582 92.74C69.5682 92.75 69.8182 92.65 70.0082 92.44C70.1982 92.22 70.3432 91.92 70.4432 91.54C70.5532 91.16 70.6332 90.73 70.6832 90.25C70.7332 89.76 70.7732 89.255 70.8032 88.735L70.9232 86.05H77.0882V93.325H75.6482ZM68.9432 95.845V92.74H78.3032V95.845H76.9532V94H70.3082V95.845H68.9432ZM80.1792 94V86.05H83.8692C84.7992 86.05 85.5292 86.23 86.0592 86.59C86.5992 86.94 86.8692 87.44 86.8692 88.09C86.8692 88.74 86.6142 89.245 86.1042 89.605C85.6042 89.955 84.9392 90.13 84.1092 90.13L84.3342 89.74C85.2842 89.74 85.9892 89.915 86.4492 90.265C86.9092 90.615 87.1392 91.13 87.1392 91.81C87.1392 92.5 86.8792 93.04 86.3592 93.43C85.8492 93.81 85.0642 94 84.0042 94H80.1792ZM81.5892 92.89H83.8992C84.4992 92.89 84.9492 92.8 85.2492 92.62C85.5492 92.43 85.6992 92.13 85.6992 91.72C85.6992 91.3 85.5592 90.995 85.2792 90.805C85.0092 90.605 84.5792 90.505 83.9892 90.505H81.5892V92.89ZM81.5892 89.47H83.7492C84.2992 89.47 84.7142 89.37 84.9942 89.17C85.2842 88.96 85.4292 88.67 85.4292 88.3C85.4292 87.92 85.2842 87.635 84.9942 87.445C84.7142 87.255 84.2992 87.16 83.7492 87.16H81.5892V89.47ZM89.393 94V86.05H90.833V91.84L95.708 86.05H97.013V94H95.573V88.21L90.713 94H89.393ZM99.8081 94V86.05H105.658V87.31H100.903L101.248 86.98V94H99.8081ZM112.007 94V92.32L111.932 92.005V89.14C111.932 88.53 111.752 88.06 111.392 87.73C111.042 87.39 110.512 87.22 109.802 87.22C109.332 87.22 108.872 87.3 108.422 87.46C107.972 87.61 107.592 87.815 107.282 88.075L106.682 86.995C107.092 86.665 107.582 86.415 108.152 86.245C108.732 86.065 109.337 85.975 109.967 85.975C111.057 85.975 111.897 86.24 112.487 86.77C113.077 87.3 113.372 88.11 113.372 89.2V94H112.007ZM109.397 94.09C108.807 94.09 108.287 93.99 107.837 93.79C107.397 93.59 107.057 93.315 106.817 92.965C106.577 92.605 106.457 92.2 106.457 91.75C106.457 91.32 106.557 90.93 106.757 90.58C106.967 90.23 107.302 89.95 107.762 89.74C108.232 89.53 108.862 89.425 109.652 89.425H112.172V90.46H109.712C108.992 90.46 108.507 90.58 108.257 90.82C108.007 91.06 107.882 91.35 107.882 91.69C107.882 92.08 108.037 92.395 108.347 92.635C108.657 92.865 109.087 92.98 109.637 92.98C110.177 92.98 110.647 92.86 111.047 92.62C111.457 92.38 111.752 92.03 111.932 91.57L112.217 92.56C112.027 93.03 111.692 93.405 111.212 93.685C110.732 93.955 110.127 94.09 109.397 94.09ZM117.54 94V86.935L117.9 87.31H114.63V86.05H121.89V87.31H118.635L118.98 86.935V94H117.54ZM126.551 94.09C125.701 94.09 124.951 93.915 124.301 93.565C123.661 93.215 123.161 92.735 122.801 92.125C122.451 91.515 122.276 90.815 122.276 90.025C122.276 89.235 122.446 88.535 122.786 87.925C123.136 87.315 123.611 86.84 124.211 86.5C124.821 86.15 125.506 85.975 126.266 85.975C127.036 85.975 127.716 86.145 128.306 86.485C128.896 86.825 129.356 87.305 129.686 87.925C130.026 88.535 130.196 89.25 130.196 90.07C130.196 90.13 130.191 90.2 130.181 90.28C130.181 90.36 130.176 90.435 130.166 90.505H123.401V89.47H129.416L128.831 89.83C128.841 89.32 128.736 88.865 128.516 88.465C128.296 88.065 127.991 87.755 127.601 87.535C127.221 87.305 126.776 87.19 126.266 87.19C125.766 87.19 125.321 87.305 124.931 87.535C124.541 87.755 124.236 88.07 124.016 88.48C123.796 88.88 123.686 89.34 123.686 89.86V90.1C123.686 90.63 123.806 91.105 124.046 91.525C124.296 91.935 124.641 92.255 125.081 92.485C125.521 92.715 126.026 92.83 126.596 92.83C127.066 92.83 127.491 92.75 127.871 92.59C128.261 92.43 128.601 92.19 128.891 91.87L129.686 92.8C129.326 93.22 128.876 93.54 128.336 93.76C127.806 93.98 127.211 94.09 126.551 94.09ZM130.978 93.985L131.068 92.77C131.138 92.78 131.203 92.79 131.263 92.8C131.323 92.81 131.378 92.815 131.428 92.815C131.748 92.815 131.998 92.705 132.178 92.485C132.368 92.265 132.508 91.975 132.598 91.615C132.688 91.245 132.753 90.83 132.793 90.37C132.833 89.91 132.863 89.45 132.883 88.99L133.018 86.05H139.123V94H137.683V86.89L138.028 87.31H133.948L134.278 86.875L134.173 89.08C134.143 89.78 134.088 90.435 134.008 91.045C133.928 91.655 133.803 92.19 133.633 92.65C133.473 93.11 133.248 93.47 132.958 93.73C132.678 93.99 132.313 94.12 131.863 94.12C131.733 94.12 131.593 94.105 131.443 94.075C131.303 94.055 131.148 94.025 130.978 93.985ZM146.993 94V91.21L147.218 91.48H144.683C143.623 91.48 142.793 91.255 142.193 90.805C141.603 90.355 141.308 89.7 141.308 88.84C141.308 87.92 141.623 87.225 142.253 86.755C142.893 86.285 143.743 86.05 144.803 86.05H148.283V94H146.993ZM141.233 94L143.393 90.955H144.878L142.778 94H141.233ZM146.993 90.76V86.905L147.218 87.31H144.848C144.188 87.31 143.678 87.435 143.318 87.685C142.958 87.925 142.778 88.325 142.778 88.885C142.778 89.925 143.448 90.445 144.788 90.445H147.218L146.993 90.76ZM12.9903 112V104.05H20.3553V112H18.9153V104.95L19.2603 105.31H14.0853L14.4303 104.95V112H12.9903ZM25.6467 112.09C24.8467 112.09 24.1367 111.915 23.5167 111.565C22.8967 111.215 22.4067 110.735 22.0467 110.125C21.6867 109.505 21.5067 108.805 21.5067 108.025C21.5067 107.235 21.6867 106.535 22.0467 105.925C22.4067 105.315 22.8967 104.84 23.5167 104.5C24.1367 104.15 24.8467 103.975 25.6467 103.975C26.4367 103.975 27.1417 104.15 27.7617 104.5C28.3917 104.84 28.8817 105.315 29.2317 105.925C29.5917 106.525 29.7717 107.225 29.7717 108.025C29.7717 108.815 29.5917 109.515 29.2317 110.125C28.8817 110.735 28.3917 111.215 27.7617 111.565C27.1417 111.915 26.4367 112.09 25.6467 112.09ZM25.6467 110.83C26.1567 110.83 26.6117 110.715 27.0117 110.485C27.4217 110.255 27.7417 109.93 27.9717 109.51C28.2017 109.08 28.3167 108.585 28.3167 108.025C28.3167 107.455 28.2017 106.965 27.9717 106.555C27.7417 106.135 27.4217 105.81 27.0117 105.58C26.6117 105.35 26.1567 105.235 25.6467 105.235C25.1367 105.235 24.6817 105.35 24.2817 105.58C23.8817 105.81 23.5617 106.135 23.3217 106.555C23.0817 106.965 22.9617 107.455 22.9617 108.025C22.9617 108.585 23.0817 109.08 23.3217 109.51C23.5617 109.93 23.8817 110.255 24.2817 110.485C24.6817 110.715 25.1367 110.83 25.6467 110.83ZM34.4161 112.09C33.6061 112.09 32.8811 111.915 32.2411 111.565C31.6111 111.215 31.1161 110.735 30.7561 110.125C30.3961 109.515 30.2161 108.815 30.2161 108.025C30.2161 107.235 30.3961 106.535 30.7561 105.925C31.1161 105.315 31.6111 104.84 32.2411 104.5C32.8811 104.15 33.6061 103.975 34.4161 103.975C35.1361 103.975 35.7761 104.12 36.3361 104.41C36.9061 104.69 37.3461 105.11 37.6561 105.67L36.5611 106.375C36.3011 105.985 35.9811 105.7 35.6011 105.52C35.2311 105.33 34.8311 105.235 34.4011 105.235C33.8811 105.235 33.4161 105.35 33.0061 105.58C32.5961 105.81 32.2711 106.135 32.0311 106.555C31.7911 106.965 31.6711 107.455 31.6711 108.025C31.6711 108.595 31.7911 109.09 32.0311 109.51C32.2711 109.93 32.5961 110.255 33.0061 110.485C33.4161 110.715 33.8811 110.83 34.4011 110.83C34.8311 110.83 35.2311 110.74 35.6011 110.56C35.9811 110.37 36.3011 110.08 36.5611 109.69L37.6561 110.38C37.3461 110.93 36.9061 111.355 36.3361 111.655C35.7761 111.945 35.1361 112.09 34.4161 112.09ZM37.066 111.985L37.156 110.77C37.226 110.78 37.291 110.79 37.351 110.8C37.411 110.81 37.466 110.815 37.516 110.815C37.836 110.815 38.086 110.705 38.266 110.485C38.456 110.265 38.596 109.975 38.686 109.615C38.776 109.245 38.841 108.83 38.881 108.37C38.921 107.91 38.951 107.45 38.971 106.99L39.106 104.05H45.211V112H43.771V104.89L44.116 105.31H40.036L40.366 104.875L40.261 107.08C40.231 107.78 40.176 108.435 40.096 109.045C40.016 109.655 39.891 110.19 39.721 110.65C39.561 111.11 39.336 111.47 39.046 111.73C38.766 111.99 38.401 112.12 37.951 112.12C37.821 112.12 37.681 112.105 37.531 112.075C37.391 112.055 37.236 112.025 37.066 111.985ZM50.6354 112.09C49.7854 112.09 49.0354 111.915 48.3854 111.565C47.7454 111.215 47.2454 110.735 46.8854 110.125C46.5354 109.515 46.3604 108.815 46.3604 108.025C46.3604 107.235 46.5304 106.535 46.8704 105.925C47.2204 105.315 47.6954 104.84 48.2954 104.5C48.9054 104.15 49.5904 103.975 50.3504 103.975C51.1204 103.975 51.8004 104.145 52.3904 104.485C52.9804 104.825 53.4404 105.305 53.7704 105.925C54.1104 106.535 54.2804 107.25 54.2804 108.07C54.2804 108.13 54.2754 108.2 54.2654 108.28C54.2654 108.36 54.2604 108.435 54.2504 108.505H47.4854V107.47H53.5004L52.9154 107.83C52.9254 107.32 52.8204 106.865 52.6004 106.465C52.3804 106.065 52.0754 105.755 51.6854 105.535C51.3054 105.305 50.8604 105.19 50.3504 105.19C49.8504 105.19 49.4054 105.305 49.0154 105.535C48.6254 105.755 48.3204 106.07 48.1004 106.48C47.8804 106.88 47.7704 107.34 47.7704 107.86V108.1C47.7704 108.63 47.8904 109.105 48.1304 109.525C48.3804 109.935 48.7254 110.255 49.1654 110.485C49.6054 110.715 50.1104 110.83 50.6804 110.83C51.1504 110.83 51.5754 110.75 51.9554 110.59C52.3454 110.43 52.6854 110.19 52.9754 109.87L53.7704 110.8C53.4104 111.22 52.9604 111.54 52.4204 111.76C51.8904 111.98 51.2954 112.09 50.6354 112.09ZM64.1727 111.325V105.31H60.7227L60.6477 106.84C60.6277 107.34 60.5927 107.825 60.5427 108.295C60.5027 108.755 60.4327 109.18 60.3327 109.57C60.2427 109.96 60.1077 110.28 59.9277 110.53C59.7477 110.78 59.5077 110.935 59.2077 110.995L57.7827 110.74C58.0927 110.75 58.3427 110.65 58.5327 110.44C58.7227 110.22 58.8677 109.92 58.9677 109.54C59.0777 109.16 59.1577 108.73 59.2077 108.25C59.2577 107.76 59.2977 107.255 59.3277 106.735L59.4477 104.05H65.6127V111.325H64.1727ZM57.4677 113.845V110.74H66.8277V113.845H65.4777V112H58.8327V113.845H57.4677ZM66.4836 111.985L66.5736 110.77C66.6436 110.78 66.7086 110.79 66.7686 110.8C66.8286 110.81 66.8836 110.815 66.9336 110.815C67.2536 110.815 67.5036 110.705 67.6836 110.485C67.8736 110.265 68.0136 109.975 68.1036 109.615C68.1936 109.245 68.2586 108.83 68.2986 108.37C68.3386 107.91 68.3686 107.45 68.3886 106.99L68.5236 104.05H74.6286V112H73.1886V104.89L73.5336 105.31H69.4536L69.7836 104.875L69.6786 107.08C69.6486 107.78 69.5936 108.435 69.5136 109.045C69.4336 109.655 69.3086 110.19 69.1386 110.65C68.9786 111.11 68.7536 111.47 68.4636 111.73C68.1836 111.99 67.8186 112.12 67.3686 112.12C67.2386 112.12 67.0986 112.105 66.9486 112.075C66.8086 112.055 66.6536 112.025 66.4836 111.985ZM76.513 112V104.05H77.953V109.84L82.828 104.05H84.133V112H82.693V106.21L77.833 112H76.513ZM87.603 112V104.935L87.963 105.31H84.693V104.05H91.953V105.31H88.698L89.043 104.935V112H87.603ZM95.7139 112.09C94.8639 112.09 94.1139 111.915 93.4639 111.565C92.8239 111.215 92.3239 110.735 91.9639 110.125C91.6139 109.515 91.4389 108.815 91.4389 108.025C91.4389 107.235 91.6089 106.535 91.9489 105.925C92.2989 105.315 92.7739 104.84 93.3739 104.5C93.9839 104.15 94.6689 103.975 95.4289 103.975C96.1989 103.975 96.8789 104.145 97.4689 104.485C98.0589 104.825 98.5189 105.305 98.8489 105.925C99.1889 106.535 99.3589 107.25 99.3589 108.07C99.3589 108.13 99.3539 108.2 99.3439 108.28C99.3439 108.36 99.3389 108.435 99.3289 108.505H92.5639V107.47H98.5789L97.9939 107.83C98.0039 107.32 97.8989 106.865 97.6789 106.465C97.4589 106.065 97.1539 105.755 96.7639 105.535C96.3839 105.305 95.9389 105.19 95.4289 105.19C94.9289 105.19 94.4839 105.305 94.0939 105.535C93.7039 105.755 93.3989 106.07 93.1789 106.48C92.9589 106.88 92.8489 107.34 92.8489 107.86V108.1C92.8489 108.63 92.9689 109.105 93.2089 109.525C93.4589 109.935 93.8039 110.255 94.2439 110.485C94.6839 110.715 95.1889 110.83 95.7589 110.83C96.2289 110.83 96.6539 110.75 97.0339 110.59C97.4239 110.43 97.7639 110.19 98.0539 109.87L98.8489 110.8C98.4889 111.22 98.0389 111.54 97.4989 111.76C96.9689 111.98 96.3739 112.09 95.7139 112.09ZM99.241 111.985L99.331 110.77C99.401 110.78 99.466 110.79 99.526 110.8C99.586 110.81 99.641 110.815 99.691 110.815C100.011 110.815 100.261 110.705 100.441 110.485C100.631 110.265 100.771 109.975 100.861 109.615C100.951 109.245 101.016 108.83 101.056 108.37C101.096 107.91 101.126 107.45 101.146 106.99L101.281 104.05H107.386V112H105.946V104.89L106.291 105.31H102.211L102.541 104.875L102.436 107.08C102.406 107.78 102.351 108.435 102.271 109.045C102.191 109.655 102.066 110.19 101.896 110.65C101.736 111.11 101.511 111.47 101.221 111.73C100.941 111.99 100.576 112.12 100.126 112.12C99.996 112.12 99.856 112.105 99.706 112.075C99.566 112.055 99.411 112.025 99.241 111.985ZM112.945 106.75C113.955 106.76 114.725 106.99 115.255 107.44C115.785 107.89 116.05 108.525 116.05 109.345C116.05 110.205 115.76 110.87 115.18 111.34C114.6 111.8 113.78 112.025 112.72 112.015L109.27 112V104.05H110.71V106.735L112.945 106.75ZM112.6 110.92C113.25 110.93 113.74 110.8 114.07 110.53C114.41 110.26 114.58 109.86 114.58 109.33C114.58 108.81 114.415 108.43 114.085 108.19C113.755 107.95 113.26 107.825 112.6 107.815L110.71 107.785V110.905L112.6 110.92ZM116.998 112V104.05H118.438V107.425H122.968V104.05H124.408V112H122.968V108.67H118.438V112H116.998ZM129.713 112.09C128.913 112.09 128.203 111.915 127.583 111.565C126.963 111.215 126.473 110.735 126.113 110.125C125.753 109.505 125.573 108.805 125.573 108.025C125.573 107.235 125.753 106.535 126.113 105.925C126.473 105.315 126.963 104.84 127.583 104.5C128.203 104.15 128.913 103.975 129.713 103.975C130.503 103.975 131.208 104.15 131.828 104.5C132.458 104.84 132.948 105.315 133.298 105.925C133.658 106.525 133.838 107.225 133.838 108.025C133.838 108.815 133.658 109.515 133.298 110.125C132.948 110.735 132.458 111.215 131.828 111.565C131.208 111.915 130.503 112.09 129.713 112.09ZM129.713 110.83C130.223 110.83 130.678 110.715 131.078 110.485C131.488 110.255 131.808 109.93 132.038 109.51C132.268 109.08 132.383 108.585 132.383 108.025C132.383 107.455 132.268 106.965 132.038 106.555C131.808 106.135 131.488 105.81 131.078 105.58C130.678 105.35 130.223 105.235 129.713 105.235C129.203 105.235 128.748 105.35 128.348 105.58C127.948 105.81 127.628 106.135 127.388 106.555C127.148 106.965 127.028 107.455 127.028 108.025C127.028 108.585 127.148 109.08 127.388 109.51C127.628 109.93 127.948 110.255 128.348 110.485C128.748 110.715 129.203 110.83 129.713 110.83ZM135.018 112V104.05H140.868V105.31H136.113L136.458 104.98V112H135.018ZM144.495 112.09C143.695 112.09 142.985 111.915 142.365 111.565C141.745 111.215 141.255 110.735 140.895 110.125C140.535 109.505 140.355 108.805 140.355 108.025C140.355 107.235 140.535 106.535 140.895 105.925C141.255 105.315 141.745 104.84 142.365 104.5C142.985 104.15 143.695 103.975 144.495 103.975C145.285 103.975 145.99 104.15 146.61 104.5C147.24 104.84 147.73 105.315 148.08 105.925C148.44 106.525 148.62 107.225 148.62 108.025C148.62 108.815 148.44 109.515 148.08 110.125C147.73 110.735 147.24 111.215 146.61 111.565C145.99 111.915 145.285 112.09 144.495 112.09ZM144.495 110.83C145.005 110.83 145.46 110.715 145.86 110.485C146.27 110.255 146.59 109.93 146.82 109.51C147.05 109.08 147.165 108.585 147.165 108.025C147.165 107.455 147.05 106.965 146.82 106.555C146.59 106.135 146.27 105.81 145.86 105.58C145.46 105.35 145.005 105.235 144.495 105.235C143.985 105.235 143.53 105.35 143.13 105.58C142.73 105.81 142.41 106.135 142.17 106.555C141.93 106.965 141.81 107.455 141.81 108.025C141.81 108.585 141.93 109.08 142.17 109.51C142.41 109.93 142.73 110.255 143.13 110.485C143.53 110.715 143.985 110.83 144.495 110.83ZM49.3296 130V122.05H56.6946V130H55.2546V122.95L55.5996 123.31H50.4246L50.7696 122.95V130H49.3296ZM63.6959 130.09C63.0359 130.09 62.4309 129.94 61.8809 129.64C61.3409 129.33 60.9059 128.875 60.5759 128.275C60.2559 127.675 60.0959 126.925 60.0959 126.025C60.0959 125.125 60.2509 124.375 60.5609 123.775C60.8809 123.175 61.3109 122.725 61.8509 122.425C62.4009 122.125 63.0159 121.975 63.6959 121.975C64.4759 121.975 65.1659 122.145 65.7659 122.485C66.3659 122.825 66.8409 123.3 67.1909 123.91C67.5409 124.51 67.7159 125.215 67.7159 126.025C67.7159 126.835 67.5409 127.545 67.1909 128.155C66.8409 128.765 66.3659 129.24 65.7659 129.58C65.1659 129.92 64.4759 130.09 63.6959 130.09ZM59.4809 132.91V122.05H60.8609V124.195L60.7709 126.04L60.9209 127.885V132.91H59.4809ZM63.5759 128.83C64.0859 128.83 64.5409 128.715 64.9409 128.485C65.3509 128.255 65.6709 127.93 65.9009 127.51C66.1409 127.08 66.2609 126.585 66.2609 126.025C66.2609 125.455 66.1409 124.965 65.9009 124.555C65.6709 124.135 65.3509 123.81 64.9409 123.58C64.5409 123.35 64.0859 123.235 63.5759 123.235C63.0759 123.235 62.6209 123.35 62.2109 123.58C61.8109 123.81 61.4909 124.135 61.2509 124.555C61.0209 124.965 60.9059 125.455 60.9059 126.025C60.9059 126.585 61.0209 127.08 61.2509 127.51C61.4909 127.93 61.8109 128.255 62.2109 128.485C62.6209 128.715 63.0759 128.83 63.5759 128.83ZM73.2131 130.09C72.4131 130.09 71.7031 129.915 71.0831 129.565C70.4631 129.215 69.9731 128.735 69.6131 128.125C69.2531 127.505 69.0731 126.805 69.0731 126.025C69.0731 125.235 69.2531 124.535 69.6131 123.925C69.9731 123.315 70.4631 122.84 71.0831 122.5C71.7031 122.15 72.4131 121.975 73.2131 121.975C74.0031 121.975 74.7081 122.15 75.3281 122.5C75.9581 122.84 76.4481 123.315 76.7981 123.925C77.1581 124.525 77.3381 125.225 77.3381 126.025C77.3381 126.815 77.1581 127.515 76.7981 128.125C76.4481 128.735 75.9581 129.215 75.3281 129.565C74.7081 129.915 74.0031 130.09 73.2131 130.09ZM73.2131 128.83C73.7231 128.83 74.1781 128.715 74.5781 128.485C74.9881 128.255 75.3081 127.93 75.5381 127.51C75.7681 127.08 75.8831 126.585 75.8831 126.025C75.8831 125.455 75.7681 124.965 75.5381 124.555C75.3081 124.135 74.9881 123.81 74.5781 123.58C74.1781 123.35 73.7231 123.235 73.2131 123.235C72.7031 123.235 72.2481 123.35 71.8481 123.58C71.4481 123.81 71.1281 124.135 70.8881 124.555C70.6481 124.965 70.5281 125.455 70.5281 126.025C70.5281 126.585 70.6481 127.08 70.8881 127.51C71.1281 127.93 71.4481 128.255 71.8481 128.485C72.2481 128.715 72.7031 128.83 73.2131 128.83ZM82.8825 130.09C82.0725 130.09 81.3475 129.915 80.7075 129.565C80.0775 129.215 79.5825 128.735 79.2225 128.125C78.8625 127.515 78.6825 126.815 78.6825 126.025C78.6825 125.235 78.8625 124.535 79.2225 123.925C79.5825 123.315 80.0775 122.84 80.7075 122.5C81.3475 122.15 82.0725 121.975 82.8825 121.975C83.6025 121.975 84.2425 122.12 84.8025 122.41C85.3725 122.69 85.8125 123.11 86.1225 123.67L85.0275 124.375C84.7675 123.985 84.4475 123.7 84.0675 123.52C83.6975 123.33 83.2975 123.235 82.8675 123.235C82.3475 123.235 81.8825 123.35 81.4725 123.58C81.0625 123.81 80.7375 124.135 80.4975 124.555C80.2575 124.965 80.1375 125.455 80.1375 126.025C80.1375 126.595 80.2575 127.09 80.4975 127.51C80.7375 127.93 81.0625 128.255 81.4725 128.485C81.8825 128.715 82.3475 128.83 82.8675 128.83C83.2975 128.83 83.6975 128.74 84.0675 128.56C84.4475 128.37 84.7675 128.08 85.0275 127.69L86.1225 128.38C85.8125 128.93 85.3725 129.355 84.8025 129.655C84.2425 129.945 83.6025 130.09 82.8825 130.09ZM89.4593 130V122.935L89.8193 123.31H86.5493V122.05H93.8093V123.31H90.5543L90.8993 122.935V130H89.4593ZM98.3352 130.09C97.5352 130.09 96.8252 129.915 96.2052 129.565C95.5852 129.215 95.0952 128.735 94.7352 128.125C94.3752 127.505 94.1952 126.805 94.1952 126.025C94.1952 125.235 94.3752 124.535 94.7352 123.925C95.0952 123.315 95.5852 122.84 96.2052 122.5C96.8252 122.15 97.5352 121.975 98.3352 121.975C99.1252 121.975 99.8302 122.15 100.45 122.5C101.08 122.84 101.57 123.315 101.92 123.925C102.28 124.525 102.46 125.225 102.46 126.025C102.46 126.815 102.28 127.515 101.92 128.125C101.57 128.735 101.08 129.215 100.45 129.565C99.8302 129.915 99.1252 130.09 98.3352 130.09ZM98.3352 128.83C98.8452 128.83 99.3002 128.715 99.7002 128.485C100.11 128.255 100.43 127.93 100.66 127.51C100.89 127.08 101.005 126.585 101.005 126.025C101.005 125.455 100.89 124.965 100.66 124.555C100.43 124.135 100.11 123.81 99.7002 123.58C99.3002 123.35 98.8452 123.235 98.3352 123.235C97.8252 123.235 97.3702 123.35 96.9702 123.58C96.5702 123.81 96.2502 124.135 96.0102 124.555C95.7702 124.965 95.6502 125.455 95.6502 126.025C95.6502 126.585 95.7702 127.08 96.0102 127.51C96.2502 127.93 96.5702 128.255 96.9702 128.485C97.3702 128.715 97.8252 128.83 98.3352 128.83ZM109.361 130V127.21L109.586 127.48H107.051C105.991 127.48 105.161 127.255 104.561 126.805C103.971 126.355 103.676 125.7 103.676 124.84C103.676 123.92 103.991 123.225 104.621 122.755C105.261 122.285 106.111 122.05 107.171 122.05H110.651V130H109.361ZM103.601 130L105.761 126.955H107.246L105.146 130H103.601ZM109.361 126.76V122.905L109.586 123.31H107.216C106.556 123.31 106.046 123.435 105.686 123.685C105.326 123.925 105.146 124.325 105.146 124.885C105.146 125.925 105.816 126.445 107.156 126.445H109.586L109.361 126.76Z" fill="white"/>
<path d="M69.4545 26C68.35 26 67.4545 26.8954 67.4545 28V28.875C67.4545 29.9796 68.35 30.875 69.4545 30.875H72.6818C73.7864 30.875 74.6818 31.7704 74.6818 32.875V33.75C74.6818 34.8546 73.7864 35.75 72.6818 35.75H68.2898C67.7554 35.75 67.2431 35.9639 66.8674 36.3441L63.2139 40.0407C62.8439 40.415 62.6364 40.9202 62.6364 41.4466V45.9375C62.6364 47.0421 61.7409 47.9375 60.6364 47.9375H59.8182C58.7136 47.9375 57.8182 47.0421 57.8182 45.9375V42.625C57.8182 41.5204 56.9228 40.625 55.8182 40.625H55C53.8954 40.625 53 41.5204 53 42.625V58.125C53 59.2296 53.8954 60.125 55 60.125H55.8182C56.9228 60.125 57.8182 59.2296 57.8182 58.125V54.8125C57.8182 53.7079 58.7136 52.8125 59.8182 52.8125H60.6364C61.7409 52.8125 62.6364 53.7079 62.6364 54.8125V58.125C62.6364 59.2296 63.5318 60.125 64.6364 60.125H69.0283C69.5628 60.125 70.0751 60.3389 70.4508 60.7191L74.0946 64.4059C74.4704 64.7861 74.9826 65 75.5171 65H91.9545C93.0591 65 93.9545 64.1046 93.9545 63V57.25C93.9545 56.1454 94.85 55.25 95.9545 55.25H96.7727C97.8773 55.25 98.7727 56.1454 98.7727 57.25V60.5625C98.7727 61.6671 99.6682 62.5625 100.773 62.5625H104C105.105 62.5625 106 61.6671 106 60.5625V40.1875C106 39.0829 105.105 38.1875 104 38.1875H100.773C99.6682 38.1875 98.7727 39.0829 98.7727 40.1875V43.5C98.7727 44.6046 97.8773 45.5 96.7727 45.5H95.9545C94.85 45.5 93.9545 44.6046 93.9545 43.5V37.75C93.9545 36.6454 93.0591 35.75 91.9545 35.75H81.5C80.3954 35.75 79.5 34.8546 79.5 33.75V32.875C79.5 31.7704 80.3954 30.875 81.5 30.875H84.7273C85.8318 30.875 86.7273 29.9796 86.7273 28.875V28C86.7273 26.8954 85.8318 26 84.7273 26H69.4545Z" fill="white"/>
</svg>
