<svg width="160" height="160" viewBox="0 0 160 160" fill="none" xmlns="http://www.w3.org/2000/svg">
<rect width="160" height="160" rx="30" fill="#00AAFF"/>
<path d="M44.8454 81V70.5H48.9404C49.8604 70.5 50.6454 70.645 51.2954 70.935C51.9454 71.225 52.4454 71.645 52.7955 72.195C53.1454 72.745 53.3204 73.4 53.3204 74.16C53.3204 74.92 53.1454 75.575 52.7955 76.125C52.4454 76.665 51.9454 77.085 51.2954 77.385C50.6454 77.675 49.8604 77.82 48.9404 77.82H45.6704L46.3454 77.115V81H44.8454ZM46.3454 77.265L45.6704 76.515H48.8954C49.8554 76.515 50.5804 76.31 51.0704 75.9C51.5704 75.49 51.8204 74.91 51.8204 74.16C51.8204 73.41 51.5704 72.83 51.0704 72.42C50.5804 72.01 49.8554 71.805 48.8954 71.805H45.6704L46.3454 71.055V77.265ZM58.6777 81.09C57.8277 81.09 57.0777 80.915 56.4277 80.565C55.7877 80.215 55.2877 79.735 54.9277 79.125C54.5777 78.515 54.4027 77.815 54.4027 77.025C54.4027 76.235 54.5727 75.535 54.9127 74.925C55.2627 74.315 55.7377 73.84 56.3377 73.5C56.9477 73.15 57.6327 72.975 58.3927 72.975C59.1627 72.975 59.8427 73.145 60.4327 73.485C61.0227 73.825 61.4827 74.305 61.8127 74.925C62.1527 75.535 62.3227 76.25 62.3227 77.07C62.3227 77.13 62.3177 77.2 62.3077 77.28C62.3077 77.36 62.3027 77.435 62.2927 77.505H55.5277V76.47H61.5427L60.9577 76.83C60.9677 76.32 60.8627 75.865 60.6427 75.465C60.4227 75.065 60.1177 74.755 59.7277 74.535C59.3477 74.305 58.9027 74.19 58.3927 74.19C57.8927 74.19 57.4477 74.305 57.0577 74.535C56.6677 74.755 56.3627 75.07 56.1427 75.48C55.9227 75.88 55.8127 76.34 55.8127 76.86V77.1C55.8127 77.63 55.9327 78.105 56.1727 78.525C56.4227 78.935 56.7677 79.255 57.2077 79.485C57.6477 79.715 58.1527 79.83 58.7227 79.83C59.1927 79.83 59.6177 79.75 59.9977 79.59C60.3877 79.43 60.7277 79.19 61.0177 78.87L61.8127 79.8C61.4527 80.22 61.0027 80.54 60.4627 80.76C59.9327 80.98 59.3377 81.09 58.6777 81.09ZM64.5566 81V73.05H66.0416L69.4616 78.93H68.8616L72.3716 73.05H73.7216V81H72.4166V74.67L72.6566 74.805L69.4466 80.1H68.8166L65.5916 74.7L65.8766 74.64V81H64.5566ZM79.9294 81.09C79.1294 81.09 78.4194 80.915 77.7994 80.565C77.1794 80.215 76.6894 79.735 76.3294 79.125C75.9694 78.505 75.7894 77.805 75.7894 77.025C75.7894 76.235 75.9694 75.535 76.3294 74.925C76.6894 74.315 77.1794 73.84 77.7994 73.5C78.4194 73.15 79.1294 72.975 79.9294 72.975C80.7194 72.975 81.4244 73.15 82.0444 73.5C82.6744 73.84 83.1644 74.315 83.5144 74.925C83.8744 75.525 84.0544 76.225 84.0544 77.025C84.0544 77.815 83.8744 78.515 83.5144 79.125C83.1644 79.735 82.6744 80.215 82.0444 80.565C81.4244 80.915 80.7194 81.09 79.9294 81.09ZM79.9294 79.83C80.4394 79.83 80.8944 79.715 81.2944 79.485C81.7044 79.255 82.0244 78.93 82.2544 78.51C82.4844 78.08 82.5994 77.585 82.5994 77.025C82.5994 76.455 82.4844 75.965 82.2544 75.555C82.0244 75.135 81.7044 74.81 81.2944 74.58C80.8944 74.35 80.4394 74.235 79.9294 74.235C79.4194 74.235 78.9644 74.35 78.5644 74.58C78.1644 74.81 77.8444 75.135 77.6044 75.555C77.3644 75.965 77.2444 76.455 77.2444 77.025C77.2444 77.585 77.3644 78.08 77.6044 78.51C77.8444 78.93 78.1644 79.255 78.5644 79.485C78.9644 79.715 79.4194 79.83 79.9294 79.83ZM86.1338 81V73.05H87.5738V76.425H92.1038V73.05H93.5438V81H92.1038V77.67H87.5738V81H86.1338ZM97.9187 81V73.935L98.2787 74.31H95.0087V73.05H102.269V74.31H99.0137L99.3587 73.935V81H97.9187ZM107.77 81V73.05H109.21V78.84L114.085 73.05H115.39V81H113.95V75.21L109.09 81H107.77ZM20.582 99V91.05H24.272C25.202 91.05 25.932 91.23 26.462 91.59C27.002 91.94 27.272 92.44 27.272 93.09C27.272 93.74 27.017 94.245 26.507 94.605C26.007 94.955 25.342 95.13 24.512 95.13L24.737 94.74C25.687 94.74 26.392 94.915 26.852 95.265C27.312 95.615 27.542 96.13 27.542 96.81C27.542 97.5 27.282 98.04 26.762 98.43C26.252 98.81 25.467 99 24.407 99H20.582ZM21.992 97.89H24.302C24.902 97.89 25.352 97.8 25.652 97.62C25.952 97.43 26.102 97.13 26.102 96.72C26.102 96.3 25.962 95.995 25.682 95.805C25.412 95.605 24.982 95.505 24.392 95.505H21.992V97.89ZM21.992 94.47H24.152C24.702 94.47 25.117 94.37 25.397 94.17C25.687 93.96 25.832 93.67 25.832 93.3C25.832 92.92 25.687 92.635 25.397 92.445C25.117 92.255 24.702 92.16 24.152 92.16H21.992V94.47ZM33.2009 99.09C32.4009 99.09 31.6909 98.915 31.0709 98.565C30.4509 98.215 29.9609 97.735 29.6009 97.125C29.2409 96.505 29.0609 95.805 29.0609 95.025C29.0609 94.235 29.2409 93.535 29.6009 92.925C29.9609 92.315 30.4509 91.84 31.0709 91.5C31.6909 91.15 32.4009 90.975 33.2009 90.975C33.9909 90.975 34.6959 91.15 35.3159 91.5C35.9459 91.84 36.4359 92.315 36.7859 92.925C37.1459 93.525 37.3259 94.225 37.3259 95.025C37.3259 95.815 37.1459 96.515 36.7859 97.125C36.4359 97.735 35.9459 98.215 35.3159 98.565C34.6959 98.915 33.9909 99.09 33.2009 99.09ZM33.2009 97.83C33.7109 97.83 34.1659 97.715 34.5659 97.485C34.9759 97.255 35.2959 96.93 35.5259 96.51C35.7559 96.08 35.8709 95.585 35.8709 95.025C35.8709 94.455 35.7559 93.965 35.5259 93.555C35.2959 93.135 34.9759 92.81 34.5659 92.58C34.1659 92.35 33.7109 92.235 33.2009 92.235C32.6909 92.235 32.2359 92.35 31.8359 92.58C31.4359 92.81 31.1159 93.135 30.8759 93.555C30.6359 93.965 30.5159 94.455 30.5159 95.025C30.5159 95.585 30.6359 96.08 30.8759 96.51C31.1159 96.93 31.4359 97.255 31.8359 97.485C32.2359 97.715 32.6909 97.83 33.2009 97.83ZM42.8703 99.09C42.0603 99.09 41.3353 98.915 40.6953 98.565C40.0653 98.215 39.5703 97.735 39.2103 97.125C38.8503 96.515 38.6703 95.815 38.6703 95.025C38.6703 94.235 38.8503 93.535 39.2103 92.925C39.5703 92.315 40.0653 91.84 40.6953 91.5C41.3353 91.15 42.0603 90.975 42.8703 90.975C43.5903 90.975 44.2303 91.12 44.7903 91.41C45.3603 91.69 45.8003 92.11 46.1103 92.67L45.0153 93.375C44.7553 92.985 44.4353 92.7 44.0553 92.52C43.6853 92.33 43.2853 92.235 42.8553 92.235C42.3353 92.235 41.8703 92.35 41.4603 92.58C41.0503 92.81 40.7253 93.135 40.4853 93.555C40.2453 93.965 40.1253 94.455 40.1253 95.025C40.1253 95.595 40.2453 96.09 40.4853 96.51C40.7253 96.93 41.0503 97.255 41.4603 97.485C41.8703 97.715 42.3353 97.83 42.8553 97.83C43.2853 97.83 43.6853 97.74 44.0553 97.56C44.4353 97.37 44.7553 97.08 45.0153 96.69L46.1103 97.38C45.8003 97.93 45.3603 98.355 44.7903 98.655C44.2303 98.945 43.5903 99.09 42.8703 99.09ZM49.4471 99V91.935L49.8071 92.31H46.5371V91.05H53.7971V92.31H50.5421L50.8871 91.935V99H49.4471ZM60.1445 99V97.32L60.0695 97.005V94.14C60.0695 93.53 59.8895 93.06 59.5295 92.73C59.1795 92.39 58.6495 92.22 57.9395 92.22C57.4695 92.22 57.0095 92.3 56.5595 92.46C56.1095 92.61 55.7295 92.815 55.4195 93.075L54.8195 91.995C55.2295 91.665 55.7195 91.415 56.2895 91.245C56.8695 91.065 57.4745 90.975 58.1045 90.975C59.1945 90.975 60.0345 91.24 60.6245 91.77C61.2145 92.3 61.5095 93.11 61.5095 94.2V99H60.1445ZM57.5345 99.09C56.9445 99.09 56.4245 98.99 55.9745 98.79C55.5345 98.59 55.1945 98.315 54.9545 97.965C54.7145 97.605 54.5945 97.2 54.5945 96.75C54.5945 96.32 54.6945 95.93 54.8945 95.58C55.1045 95.23 55.4395 94.95 55.8995 94.74C56.3695 94.53 56.9995 94.425 57.7895 94.425H60.3095V95.46H57.8495C57.1295 95.46 56.6445 95.58 56.3945 95.82C56.1445 96.06 56.0195 96.35 56.0195 96.69C56.0195 97.08 56.1745 97.395 56.4845 97.635C56.7945 97.865 57.2245 97.98 57.7745 97.98C58.3145 97.98 58.7845 97.86 59.1845 97.62C59.5945 97.38 59.8895 97.03 60.0695 96.57L60.3545 97.56C60.1645 98.03 59.8295 98.405 59.3495 98.685C58.8695 98.955 58.2645 99.09 57.5345 99.09ZM64.1025 99V91.05H65.5425V94.425H70.0725V91.05H71.5125V99H70.0725V95.67H65.5425V99H64.1025ZM77.7175 99.09C76.9175 99.09 76.2075 98.915 75.5875 98.565C74.9675 98.215 74.4775 97.735 74.1175 97.125C73.7575 96.505 73.5775 95.805 73.5775 95.025C73.5775 94.235 73.7575 93.535 74.1175 92.925C74.4775 92.315 74.9675 91.84 75.5875 91.5C76.2075 91.15 76.9175 90.975 77.7175 90.975C78.5075 90.975 79.2125 91.15 79.8325 91.5C80.4625 91.84 80.9525 92.315 81.3025 92.925C81.6625 93.525 81.8425 94.225 81.8425 95.025C81.8425 95.815 81.6625 96.515 81.3025 97.125C80.9525 97.735 80.4625 98.215 79.8325 98.565C79.2125 98.915 78.5075 99.09 77.7175 99.09ZM77.7175 97.83C78.2275 97.83 78.6825 97.715 79.0825 97.485C79.4925 97.255 79.8125 96.93 80.0425 96.51C80.2725 96.08 80.3875 95.585 80.3875 95.025C80.3875 94.455 80.2725 93.965 80.0425 93.555C79.8125 93.135 79.4925 92.81 79.0825 92.58C78.6825 92.35 78.2275 92.235 77.7175 92.235C77.2075 92.235 76.7525 92.35 76.3525 92.58C75.9525 92.81 75.6325 93.135 75.3925 93.555C75.1525 93.965 75.0325 94.455 75.0325 95.025C75.0325 95.585 75.1525 96.08 75.3925 96.51C75.6325 96.93 75.9525 97.255 76.3525 97.485C76.7525 97.715 77.2075 97.83 77.7175 97.83ZM83.9219 99V91.05H87.6119C88.5419 91.05 89.2719 91.23 89.8019 91.59C90.3419 91.94 90.6119 92.44 90.6119 93.09C90.6119 93.74 90.3569 94.245 89.8469 94.605C89.3469 94.955 88.6819 95.13 87.8519 95.13L88.0769 94.74C89.0269 94.74 89.7319 94.915 90.1919 95.265C90.6519 95.615 90.8819 96.13 90.8819 96.81C90.8819 97.5 90.6219 98.04 90.1019 98.43C89.5919 98.81 88.8069 99 87.7469 99H83.9219ZM85.3319 97.89H87.6419C88.2419 97.89 88.6919 97.8 88.9919 97.62C89.2919 97.43 89.4419 97.13 89.4419 96.72C89.4419 96.3 89.3019 95.995 89.0219 95.805C88.7519 95.605 88.3219 95.505 87.7319 95.505H85.3319V97.89ZM85.3319 94.47H87.4919C88.0419 94.47 88.4569 94.37 88.7369 94.17C89.0269 93.96 89.1719 93.67 89.1719 93.3C89.1719 92.92 89.0269 92.635 88.7369 92.445C88.4569 92.255 88.0419 92.16 87.4919 92.16H85.3319V94.47ZM91.8157 98.985L91.9057 97.77C91.9757 97.78 92.0407 97.79 92.1007 97.8C92.1607 97.81 92.2157 97.815 92.2657 97.815C92.5857 97.815 92.8357 97.705 93.0157 97.485C93.2057 97.265 93.3457 96.975 93.4357 96.615C93.5257 96.245 93.5907 95.83 93.6307 95.37C93.6707 94.91 93.7007 94.45 93.7207 93.99L93.8557 91.05H99.9607V99H98.5207V91.89L98.8657 92.31H94.7857L95.1157 91.875L95.0107 94.08C94.9807 94.78 94.9257 95.435 94.8457 96.045C94.7657 96.655 94.6407 97.19 94.4707 97.65C94.3107 98.11 94.0857 98.47 93.7957 98.73C93.5157 98.99 93.1507 99.12 92.7007 99.12C92.5707 99.12 92.4307 99.105 92.2807 99.075C92.1407 99.055 91.9857 99.025 91.8157 98.985ZM106.285 99.09C105.435 99.09 104.685 98.915 104.035 98.565C103.395 98.215 102.895 97.735 102.535 97.125C102.185 96.515 102.01 95.815 102.01 95.025C102.01 94.235 102.18 93.535 102.52 92.925C102.87 92.315 103.345 91.84 103.945 91.5C104.555 91.15 105.24 90.975 106 90.975C106.77 90.975 107.45 91.145 108.04 91.485C108.63 91.825 109.09 92.305 109.42 92.925C109.76 93.535 109.93 94.25 109.93 95.07C109.93 95.13 109.925 95.2 109.915 95.28C109.915 95.36 109.91 95.435 109.9 95.505H103.135V94.47H109.15L108.565 94.83C108.575 94.32 108.47 93.865 108.25 93.465C108.03 93.065 107.725 92.755 107.335 92.535C106.955 92.305 106.51 92.19 106 92.19C105.5 92.19 105.055 92.305 104.665 92.535C104.275 92.755 103.97 93.07 103.75 93.48C103.53 93.88 103.42 94.34 103.42 94.86V95.1C103.42 95.63 103.54 96.105 103.78 96.525C104.03 96.935 104.375 97.255 104.815 97.485C105.255 97.715 105.76 97.83 106.33 97.83C106.8 97.83 107.225 97.75 107.605 97.59C107.995 97.43 108.335 97.19 108.625 96.87L109.42 97.8C109.06 98.22 108.61 98.54 108.07 98.76C107.54 98.98 106.945 99.09 106.285 99.09ZM112.164 99V91.05H113.604V94.425H118.134V91.05H119.574V99H118.134V95.67H113.604V99H112.164ZM122.374 99V91.05H123.814V96.84L128.689 91.05H129.994V99H128.554V93.21L123.694 99H122.374ZM136.329 99.09C135.479 99.09 134.729 98.915 134.079 98.565C133.439 98.215 132.939 97.735 132.579 97.125C132.229 96.515 132.054 95.815 132.054 95.025C132.054 94.235 132.224 93.535 132.564 92.925C132.914 92.315 133.389 91.84 133.989 91.5C134.599 91.15 135.284 90.975 136.044 90.975C136.814 90.975 137.494 91.145 138.084 91.485C138.674 91.825 139.134 92.305 139.464 92.925C139.804 93.535 139.974 94.25 139.974 95.07C139.974 95.13 139.969 95.2 139.959 95.28C139.959 95.36 139.954 95.435 139.944 95.505H133.179V94.47H139.194L138.609 94.83C138.619 94.32 138.514 93.865 138.294 93.465C138.074 93.065 137.769 92.755 137.379 92.535C136.999 92.305 136.554 92.19 136.044 92.19C135.544 92.19 135.099 92.305 134.709 92.535C134.319 92.755 134.014 93.07 133.794 93.48C133.574 93.88 133.464 94.34 133.464 94.86V95.1C133.464 95.63 133.584 96.105 133.824 96.525C134.074 96.935 134.419 97.255 134.859 97.485C135.299 97.715 135.804 97.83 136.374 97.83C136.844 97.83 137.269 97.75 137.649 97.59C138.039 97.43 138.379 97.19 138.669 96.87L139.464 97.8C139.104 98.22 138.654 98.54 138.114 98.76C137.584 98.98 136.989 99.09 136.329 99.09ZM32.9526 117V109.05H34.3926V112.425H38.9226V109.05H40.3626V117H38.9226V113.67H34.3926V117H32.9526ZM46.7026 117.09C45.8526 117.09 45.1026 116.915 44.4526 116.565C43.8126 116.215 43.3126 115.735 42.9526 115.125C42.6026 114.515 42.4276 113.815 42.4276 113.025C42.4276 112.235 42.5976 111.535 42.9376 110.925C43.2876 110.315 43.7626 109.84 44.3626 109.5C44.9726 109.15 45.6576 108.975 46.4176 108.975C47.1876 108.975 47.8676 109.145 48.4576 109.485C49.0476 109.825 49.5076 110.305 49.8376 110.925C50.1776 111.535 50.3476 112.25 50.3476 113.07C50.3476 113.13 50.3426 113.2 50.3326 113.28C50.3326 113.36 50.3276 113.435 50.3176 113.505H43.5526V112.47H49.5676L48.9826 112.83C48.9926 112.32 48.8876 111.865 48.6676 111.465C48.4476 111.065 48.1426 110.755 47.7526 110.535C47.3726 110.305 46.9276 110.19 46.4176 110.19C45.9176 110.19 45.4726 110.305 45.0826 110.535C44.6926 110.755 44.3876 111.07 44.1676 111.48C43.9476 111.88 43.8376 112.34 43.8376 112.86V113.1C43.8376 113.63 43.9576 114.105 44.1976 114.525C44.4476 114.935 44.7926 115.255 45.2326 115.485C45.6726 115.715 46.1776 115.83 46.7476 115.83C47.2176 115.83 47.6426 115.75 48.0226 115.59C48.4126 115.43 48.7526 115.19 49.0426 114.87L49.8376 115.8C49.4776 116.22 49.0276 116.54 48.4876 116.76C47.9576 116.98 47.3626 117.09 46.7026 117.09ZM56.0465 117.09C55.2365 117.09 54.5115 116.915 53.8715 116.565C53.2415 116.215 52.7465 115.735 52.3865 115.125C52.0265 114.515 51.8465 113.815 51.8465 113.025C51.8465 112.235 52.0265 111.535 52.3865 110.925C52.7465 110.315 53.2415 109.84 53.8715 109.5C54.5115 109.15 55.2365 108.975 56.0465 108.975C56.7665 108.975 57.4065 109.12 57.9665 109.41C58.5365 109.69 58.9765 110.11 59.2865 110.67L58.1915 111.375C57.9315 110.985 57.6115 110.7 57.2315 110.52C56.8615 110.33 56.4615 110.235 56.0315 110.235C55.5115 110.235 55.0465 110.35 54.6365 110.58C54.2265 110.81 53.9015 111.135 53.6615 111.555C53.4215 111.965 53.3015 112.455 53.3015 113.025C53.3015 113.595 53.4215 114.09 53.6615 114.51C53.9015 114.93 54.2265 115.255 54.6365 115.485C55.0465 115.715 55.5115 115.83 56.0315 115.83C56.4615 115.83 56.8615 115.74 57.2315 115.56C57.6115 115.37 57.9315 115.08 58.1915 114.69L59.2865 115.38C58.9765 115.93 58.5365 116.355 57.9665 116.655C57.4065 116.945 56.7665 117.09 56.0465 117.09ZM61.1509 117V109.05H68.5159V117H67.0759V109.95L67.4209 110.31H62.2459L62.5909 109.95V117H61.1509ZM75.5172 117.09C74.8572 117.09 74.2522 116.94 73.7022 116.64C73.1622 116.33 72.7272 115.875 72.3972 115.275C72.0772 114.675 71.9172 113.925 71.9172 113.025C71.9172 112.125 72.0722 111.375 72.3822 110.775C72.7022 110.175 73.1322 109.725 73.6722 109.425C74.2222 109.125 74.8372 108.975 75.5172 108.975C76.2972 108.975 76.9872 109.145 77.5872 109.485C78.1872 109.825 78.6622 110.3 79.0122 110.91C79.3622 111.51 79.5372 112.215 79.5372 113.025C79.5372 113.835 79.3622 114.545 79.0122 115.155C78.6622 115.765 78.1872 116.24 77.5872 116.58C76.9872 116.92 76.2972 117.09 75.5172 117.09ZM71.3022 119.91V109.05H72.6822V111.195L72.5922 113.04L72.7422 114.885V119.91H71.3022ZM75.3972 115.83C75.9072 115.83 76.3622 115.715 76.7622 115.485C77.1722 115.255 77.4922 114.93 77.7222 114.51C77.9622 114.08 78.0822 113.585 78.0822 113.025C78.0822 112.455 77.9622 111.965 77.7222 111.555C77.4922 111.135 77.1722 110.81 76.7622 110.58C76.3622 110.35 75.9072 110.235 75.3972 110.235C74.8972 110.235 74.4422 110.35 74.0322 110.58C73.6322 110.81 73.3122 111.135 73.0722 111.555C72.8422 111.965 72.7272 112.455 72.7272 113.025C72.7272 113.585 72.8422 114.08 73.0722 114.51C73.3122 114.93 73.6322 115.255 74.0322 115.485C74.4422 115.715 74.8972 115.83 75.3972 115.83ZM86.4311 117V115.32L86.3561 115.005V112.14C86.3561 111.53 86.1761 111.06 85.8161 110.73C85.4661 110.39 84.9361 110.22 84.2261 110.22C83.7561 110.22 83.2961 110.3 82.8461 110.46C82.3961 110.61 82.0161 110.815 81.7061 111.075L81.1061 109.995C81.5161 109.665 82.0061 109.415 82.5761 109.245C83.1561 109.065 83.7611 108.975 84.3911 108.975C85.4811 108.975 86.3211 109.24 86.9111 109.77C87.5011 110.3 87.7961 111.11 87.7961 112.2V117H86.4311ZM83.8211 117.09C83.2311 117.09 82.7111 116.99 82.2611 116.79C81.8211 116.59 81.4811 116.315 81.2411 115.965C81.0011 115.605 80.8811 115.2 80.8811 114.75C80.8811 114.32 80.9811 113.93 81.1811 113.58C81.3911 113.23 81.7261 112.95 82.1861 112.74C82.6561 112.53 83.2861 112.425 84.0761 112.425H86.5961V113.46H84.1361C83.4161 113.46 82.9311 113.58 82.6811 113.82C82.4311 114.06 82.3061 114.35 82.3061 114.69C82.3061 115.08 82.4611 115.395 82.7711 115.635C83.0811 115.865 83.5111 115.98 84.0611 115.98C84.6011 115.98 85.0711 115.86 85.4711 115.62C85.8811 115.38 86.1761 115.03 86.3561 114.57L86.6411 115.56C86.4511 116.03 86.1161 116.405 85.6361 116.685C85.1561 116.955 84.5511 117.09 83.8211 117.09ZM90.3891 117V109.05H94.0791C95.0091 109.05 95.7391 109.23 96.2691 109.59C96.8091 109.94 97.0791 110.44 97.0791 111.09C97.0791 111.74 96.8241 112.245 96.3141 112.605C95.8141 112.955 95.1491 113.13 94.3191 113.13L94.5441 112.74C95.4941 112.74 96.1991 112.915 96.6591 113.265C97.1191 113.615 97.3491 114.13 97.3491 114.81C97.3491 115.5 97.0891 116.04 96.5691 116.43C96.0591 116.81 95.2741 117 94.2141 117H90.3891ZM91.7991 115.89H94.1091C94.7091 115.89 95.1591 115.8 95.4591 115.62C95.7591 115.43 95.9091 115.13 95.9091 114.72C95.9091 114.3 95.7691 113.995 95.4891 113.805C95.2191 113.605 94.7891 113.505 94.1991 113.505H91.7991V115.89ZM91.7991 112.47H93.9591C94.5091 112.47 94.9241 112.37 95.2041 112.17C95.4941 111.96 95.6391 111.67 95.6391 111.3C95.6391 110.92 95.4941 110.635 95.2041 110.445C94.9241 110.255 94.5091 110.16 93.9591 110.16H91.7991V112.47ZM99.603 117V109.05H101.043V112.425H105.573V109.05H107.013V117H105.573V113.67H101.043V117H99.603ZM113.218 117.09C112.418 117.09 111.708 116.915 111.088 116.565C110.468 116.215 109.978 115.735 109.618 115.125C109.258 114.505 109.078 113.805 109.078 113.025C109.078 112.235 109.258 111.535 109.618 110.925C109.978 110.315 110.468 109.84 111.088 109.5C111.708 109.15 112.418 108.975 113.218 108.975C114.008 108.975 114.713 109.15 115.333 109.5C115.963 109.84 116.453 110.315 116.803 110.925C117.163 111.525 117.343 112.225 117.343 113.025C117.343 113.815 117.163 114.515 116.803 115.125C116.453 115.735 115.963 116.215 115.333 116.565C114.713 116.915 114.008 117.09 113.218 117.09ZM113.218 115.83C113.728 115.83 114.183 115.715 114.583 115.485C114.993 115.255 115.313 114.93 115.543 114.51C115.773 114.08 115.888 113.585 115.888 113.025C115.888 112.455 115.773 111.965 115.543 111.555C115.313 111.135 114.993 110.81 114.583 110.58C114.183 110.35 113.728 110.235 113.218 110.235C112.708 110.235 112.253 110.35 111.853 110.58C111.453 110.81 111.133 111.135 110.893 111.555C110.653 111.965 110.533 112.455 110.533 113.025C110.533 113.585 110.653 114.08 110.893 114.51C111.133 114.93 111.453 115.255 111.853 115.485C112.253 115.715 112.708 115.83 113.218 115.83ZM119.422 117V109.05H120.862V114.84L125.737 109.05H127.042V117H125.602V111.21L120.742 117H119.422ZM123.142 108.015C122.412 108.015 121.837 107.84 121.417 107.49C121.007 107.13 120.797 106.615 120.787 105.945H121.762C121.772 106.325 121.897 106.625 122.137 106.845C122.387 107.065 122.717 107.175 123.127 107.175C123.537 107.175 123.867 107.065 124.117 106.845C124.367 106.625 124.497 106.325 124.507 105.945H125.512C125.502 106.615 125.287 107.13 124.867 107.49C124.447 107.84 123.872 108.015 123.142 108.015ZM42.2983 135V127.05H49.6633V135H48.2233V127.95L48.5683 128.31H43.3933L43.7383 127.95V135H42.2983ZM56.6647 135.09C56.0047 135.09 55.3997 134.94 54.8497 134.64C54.3097 134.33 53.8747 133.875 53.5447 133.275C53.2247 132.675 53.0647 131.925 53.0647 131.025C53.0647 130.125 53.2197 129.375 53.5297 128.775C53.8497 128.175 54.2797 127.725 54.8197 127.425C55.3697 127.125 55.9847 126.975 56.6647 126.975C57.4447 126.975 58.1347 127.145 58.7347 127.485C59.3347 127.825 59.8097 128.3 60.1597 128.91C60.5097 129.51 60.6847 130.215 60.6847 131.025C60.6847 131.835 60.5097 132.545 60.1597 133.155C59.8097 133.765 59.3347 134.24 58.7347 134.58C58.1347 134.92 57.4447 135.09 56.6647 135.09ZM52.4497 137.91V127.05H53.8297V129.195L53.7397 131.04L53.8897 132.885V137.91H52.4497ZM56.5447 133.83C57.0547 133.83 57.5097 133.715 57.9097 133.485C58.3197 133.255 58.6397 132.93 58.8697 132.51C59.1097 132.08 59.2297 131.585 59.2297 131.025C59.2297 130.455 59.1097 129.965 58.8697 129.555C58.6397 129.135 58.3197 128.81 57.9097 128.58C57.5097 128.35 57.0547 128.235 56.5447 128.235C56.0447 128.235 55.5897 128.35 55.1797 128.58C54.7797 128.81 54.4597 129.135 54.2197 129.555C53.9897 129.965 53.8747 130.455 53.8747 131.025C53.8747 131.585 53.9897 132.08 54.2197 132.51C54.4597 132.93 54.7797 133.255 55.1797 133.485C55.5897 133.715 56.0447 133.83 56.5447 133.83ZM66.1818 135.09C65.3818 135.09 64.6718 134.915 64.0518 134.565C63.4318 134.215 62.9418 133.735 62.5818 133.125C62.2218 132.505 62.0418 131.805 62.0418 131.025C62.0418 130.235 62.2218 129.535 62.5818 128.925C62.9418 128.315 63.4318 127.84 64.0518 127.5C64.6718 127.15 65.3818 126.975 66.1818 126.975C66.9718 126.975 67.6768 127.15 68.2968 127.5C68.9268 127.84 69.4168 128.315 69.7668 128.925C70.1268 129.525 70.3068 130.225 70.3068 131.025C70.3068 131.815 70.1268 132.515 69.7668 133.125C69.4168 133.735 68.9268 134.215 68.2968 134.565C67.6768 134.915 66.9718 135.09 66.1818 135.09ZM66.1818 133.83C66.6918 133.83 67.1468 133.715 67.5468 133.485C67.9568 133.255 68.2768 132.93 68.5068 132.51C68.7368 132.08 68.8518 131.585 68.8518 131.025C68.8518 130.455 68.7368 129.965 68.5068 129.555C68.2768 129.135 67.9568 128.81 67.5468 128.58C67.1468 128.35 66.6918 128.235 66.1818 128.235C65.6718 128.235 65.2168 128.35 64.8168 128.58C64.4168 128.81 64.0968 129.135 63.8568 129.555C63.6168 129.965 63.4968 130.455 63.4968 131.025C63.4968 131.585 63.6168 132.08 63.8568 132.51C64.0968 132.93 64.4168 133.255 64.8168 133.485C65.2168 133.715 65.6718 133.83 66.1818 133.83ZM72.3862 135V127.05H76.0762C77.0062 127.05 77.7362 127.23 78.2662 127.59C78.8062 127.94 79.0762 128.44 79.0762 129.09C79.0762 129.74 78.8212 130.245 78.3112 130.605C77.8112 130.955 77.1462 131.13 76.3162 131.13L76.5412 130.74C77.4912 130.74 78.1962 130.915 78.6562 131.265C79.1162 131.615 79.3462 132.13 79.3462 132.81C79.3462 133.5 79.0862 134.04 78.5662 134.43C78.0562 134.81 77.2712 135 76.2112 135H72.3862ZM73.7962 133.89H76.1062C76.7062 133.89 77.1562 133.8 77.4562 133.62C77.7562 133.43 77.9062 133.13 77.9062 132.72C77.9062 132.3 77.7662 131.995 77.4862 131.805C77.2162 131.605 76.7862 131.505 76.1962 131.505H73.7962V133.89ZM73.7962 130.47H75.9562C76.5062 130.47 76.9212 130.37 77.2012 130.17C77.4912 129.96 77.6362 129.67 77.6362 129.3C77.6362 128.92 77.4912 128.635 77.2012 128.445C76.9212 128.255 76.5062 128.16 75.9562 128.16H73.7962V130.47ZM85.0051 135.09C84.2051 135.09 83.4951 134.915 82.8751 134.565C82.2551 134.215 81.7651 133.735 81.4051 133.125C81.0451 132.505 80.8651 131.805 80.8651 131.025C80.8651 130.235 81.0451 129.535 81.4051 128.925C81.7651 128.315 82.2551 127.84 82.8751 127.5C83.4951 127.15 84.2051 126.975 85.0051 126.975C85.7951 126.975 86.5001 127.15 87.1201 127.5C87.7501 127.84 88.2401 128.315 88.5901 128.925C88.9501 129.525 89.1301 130.225 89.1301 131.025C89.1301 131.815 88.9501 132.515 88.5901 133.125C88.2401 133.735 87.7501 134.215 87.1201 134.565C86.5001 134.915 85.7951 135.09 85.0051 135.09ZM85.0051 133.83C85.5151 133.83 85.9701 133.715 86.3701 133.485C86.7801 133.255 87.1001 132.93 87.3301 132.51C87.5601 132.08 87.6751 131.585 87.6751 131.025C87.6751 130.455 87.5601 129.965 87.3301 129.555C87.1001 129.135 86.7801 128.81 86.3701 128.58C85.9701 128.35 85.5151 128.235 85.0051 128.235C84.4951 128.235 84.0401 128.35 83.6401 128.58C83.2401 128.81 82.9201 129.135 82.6801 129.555C82.4401 129.965 82.3201 130.455 82.3201 131.025C82.3201 131.585 82.4401 132.08 82.6801 132.51C82.9201 132.93 83.2401 133.255 83.6401 133.485C84.0401 133.715 84.4951 133.83 85.0051 133.83ZM96.5809 134.325V128.31H93.1309L93.0559 129.84C93.0359 130.34 93.0009 130.825 92.9509 131.295C92.9109 131.755 92.8409 132.18 92.7409 132.57C92.6509 132.96 92.5159 133.28 92.3359 133.53C92.1559 133.78 91.9159 133.935 91.6159 133.995L90.1909 133.74C90.5009 133.75 90.7509 133.65 90.9409 133.44C91.1309 133.22 91.2759 132.92 91.3759 132.54C91.4859 132.16 91.5659 131.73 91.6159 131.25C91.6659 130.76 91.7059 130.255 91.7359 129.735L91.8559 127.05H98.0209V134.325H96.5809ZM89.8759 136.845V133.74H99.2359V136.845H97.8859V135H91.2409V136.845H89.8759ZM106.872 135L103.797 131.13L104.982 130.41L108.567 135H106.872ZM101.112 135V127.05H102.552V135H101.112ZM102.117 131.64V130.41H104.742V131.64H102.117ZM105.102 131.19L103.767 131.01L106.812 127.05H108.357L105.102 131.19ZM110.077 135V127.05H111.517V132.84L116.392 127.05H117.697V135H116.257V129.21L111.397 135H110.077Z" fill="white"/>
<path d="M59.7097 27.1614H70.4517V37.0969C70.4517 38.2014 69.5562 39.0969 68.4517 39.0969H61.7097C60.6051 39.0969 59.7097 38.2014 59.7097 37.0969V27.1614Z" fill="#FFFFFE"/>
<path d="M60.9033 22C60.9033 20.8954 61.7988 20 62.9033 20H67.2582C68.3627 20 69.2582 20.8954 69.2582 22V25.9677H60.9033V22Z" fill="#FFFFFE"/>
<path d="M89.5483 39.9033C89.5483 38.7988 90.4438 37.9033 91.5483 37.9033H98.2903C99.3948 37.9033 100.29 38.7988 100.29 39.9033V49.8388H89.5483V39.9033Z" fill="#FFFFFE"/>
<path d="M90.7419 51.0322H99.0968V55C99.0968 56.1045 98.2014 57 97.0968 57H92.7419C91.6374 57 90.7419 56.1045 90.7419 55V51.0322Z" fill="#FFFFFE"/>
<path d="M65.0806 40.8872V54.0001C65.0806 55.657 66.4237 57.0001 68.0806 57.0001H76.9999C78.6568 57.0001 79.9999 55.657 79.9999 54.0001V51.6291" stroke="#FFFFFE"/>
<path d="M94.9194 36.1128L94.9194 22.9999C94.9194 21.343 93.5763 19.9999 91.9194 19.9999L83.0001 19.9999C81.3432 19.9999 80.0001 21.343 80.0001 22.9999V25.3709" stroke="#FFFFFE"/>
<path d="M80.0001 29.5483L73.4355 39.6935H80.5968L75.8226 46.8548H80.0001L85.9678 36.7096H78.8065L83.5807 29.5483H80.0001Z" fill="#FFFFFE"/>
</svg>
