<svg width="27" height="22" viewBox="0 0 27 22" fill="none" xmlns="http://www.w3.org/2000/svg">
<path d="M27 6.336V17.5312C27.0001 18.6727 26.5713 19.7709 25.8016 20.6006C25.032 21.4302 23.9798 21.9285 22.8609 21.9931L22.6125 22H4.3875C3.26681 22.0001 2.18858 21.5634 1.37399 20.7794C0.559395 19.9955 0.0701982 18.9239 0.00675015 17.7843L0 17.5312V6.336L13.0302 13.288C13.1752 13.3653 13.3364 13.4057 13.5 13.4057C13.6636 13.4057 13.8248 13.3653 13.9698 13.288L27 6.336ZM4.3875 3.2457e-08H22.6125C23.7 -0.000133395 24.7489 0.411119 25.5556 1.15399C26.3622 1.89687 26.8693 2.91841 26.9784 4.0205L13.5 11.2118L0.0216 4.0205C0.126257 2.96218 0.598117 1.97659 1.35236 1.24089C2.10661 0.505187 3.09377 0.0676321 4.1364 0.00687519L4.3875 3.2457e-08H22.6125H4.3875Z" fill="#00AAFF"/>
</svg>
