<svg width="27" height="27" viewBox="0 0 27 27" fill="none" xmlns="http://www.w3.org/2000/svg">
<path d="M22.7337 25.7414L26.2201 22.2517C26.4674 22.0056 26.6636 21.713 26.7974 21.3908C26.9312 21.0686 27.0001 20.7231 27 20.3742C27 19.6632 26.7215 18.9947 26.2201 18.4934L22.465 14.7384C22.2189 14.4911 21.9263 14.295 21.6041 14.1611C21.2819 14.0273 20.9364 13.9584 20.5875 13.9585C19.8765 13.9585 19.208 14.237 18.7067 14.7384L15.9608 17.4842C14.5441 16.8415 13.2553 15.9479 12.1566 14.8465C11.0525 13.7479 10.1556 12.4592 9.50898 11.0423L12.2549 8.29648C12.5021 8.05032 12.6983 7.75773 12.8321 7.43553C12.9659 7.11332 13.0348 6.76785 13.0347 6.41896C13.0347 5.70793 12.7562 5.03949 12.2549 4.53816L8.50303 0.779845C8.25641 0.532297 7.96328 0.335956 7.64049 0.20212C7.31771 0.068284 6.97164 -0.000406039 6.62221 1.80555e-06C5.91116 1.80555e-06 5.24272 0.278517 4.74138 0.779845L1.25825 4.26292C0.455462 5.06243 0 6.16666 0 7.30038C0 7.53957 0.019659 7.76894 0.0589809 7.99503C0.786407 12.412 3.1358 16.7928 6.66808 20.3283C10.1971 23.8606 14.5748 26.2066 19.0049 26.9439C20.3581 27.1667 21.7507 26.7178 22.7337 25.7414Z" fill="#00AAFF"/>
</svg>
