<svg width="18" height="18" viewBox="0 0 18 18" fill="none" xmlns="http://www.w3.org/2000/svg">
<path d="M16.1053 8.52536H18C18 3.66537 14.3309 0 9.46436 0V1.89474C13.3125 1.89474 16.1053 4.68284 16.1053 8.52536Z" fill="#00AAFF"/>
<path d="M9.4738 5.68421C11.4661 5.68421 12.3159 6.534 12.3159 8.52631H14.2106C14.2106 5.47105 12.529 3.78947 9.4738 3.78947V5.68421ZM12.7156 10.8407C12.5336 10.6753 12.2944 10.587 12.0485 10.5946C11.8026 10.6022 11.5693 10.7051 11.3979 10.8815L9.13086 13.2129C8.58518 13.1087 7.48815 12.7667 6.3589 11.6403C5.22966 10.5101 4.88766 9.41021 4.7863 8.86831L7.11584 6.60031C7.29244 6.42896 7.39544 6.19562 7.40304 5.94967C7.41064 5.70372 7.32225 5.46446 7.15658 5.28253L3.6561 1.43337C3.49036 1.25087 3.26 1.14016 3.01394 1.12477C2.76789 1.10938 2.52553 1.19052 2.33834 1.35095L0.282579 3.114C0.118792 3.27838 0.0210327 3.49716 0.00784594 3.72884C-0.00636436 3.96568 -0.277307 9.576 4.07294 13.9282C7.86804 17.7224 12.6219 18 13.9311 18C14.1225 18 14.2399 17.9943 14.2712 17.9924C14.5028 17.9794 14.7215 17.8813 14.8851 17.7167L16.6472 15.66C16.8077 15.4729 16.889 15.2306 16.8738 14.9846C16.8586 14.7385 16.7481 14.5081 16.5657 14.3422L12.7156 10.8407Z" fill="#00AAFF"/>
</svg>
